<svg width="256" height="41" viewBox="0 0 256 41" fill="none" xmlns="http://www.w3.org/2000/svg">
  <path fill-rule="evenodd" clip-rule="evenodd" d="M14.0662 1.98705C12.881 1.98705 11.1379 2.89343 8.83715 4.70618C8.27938 3.4512 7.63446 2.54482 6.90239 1.98705L0 6.79781C1.28984 8.36654 2.12649 9.7261 2.50996 10.8765C2.92829 12.0269 3.13745 14.0139 3.13745 16.8377V19.4048C5.58115 19.6024 7.93515 19.8149 10.3536 20.0847V13.8048C10.3536 12.3058 10.3013 11.1902 10.1967 10.4582C11.6957 9.79582 12.9507 9.46464 13.9617 9.46464C14.4497 9.46464 15.0249 9.83068 15.6873 10.5628C16.3845 11.26 16.8725 11.9397 17.1514 12.6021C17.4303 13.2296 17.5697 14.9726 17.5697 17.8312V21.0389C20.4217 21.5052 22.9223 22.0421 24.7859 22.6552V17.8312C24.7859 14.1708 24.5941 11.8875 24.2107 10.9811C23.618 9.55179 22.0667 7.70418 19.5568 5.43825C17.0817 3.13745 15.2515 1.98705 14.0662 1.98705Z" fill="white"/>
  <path d="M24.2107 30.8516C24.5941 29.9452 24.7859 27.6619 24.7859 24.0015V22.6552C22.9223 22.0421 20.4217 21.5052 17.5697 21.0389V24.5244C17.5697 27.383 17.4303 29.1434 17.1514 29.8058C16.8725 30.4333 16.3845 31.1131 15.6873 31.8451C15.0249 32.5423 14.4497 32.8909 13.9617 32.8909H10.3536V20.0847C7.93515 19.8149 5.58115 19.6024 3.13745 19.4048V39.2181H13.9617C15.3561 39.2181 17.256 38.1723 19.6614 36.0807C22.0667 33.9542 23.5832 32.2112 24.2107 30.8516Z" fill="black"/>
  <path fill-rule="evenodd" clip-rule="evenodd" d="M48.5353 26.9298V25.0473C48.5353 21.0383 48.2913 18.5284 47.8032 17.5174C47.3152 16.4716 45.9382 15.0249 43.6722 13.1773C41.4412 11.3297 39.8027 10.4059 38.7569 10.4059C37.7111 10.4059 36.0552 11.3297 33.7893 13.1773C31.5582 15.0249 30.1986 16.4716 29.7106 17.5174C29.2529 18.4655 29.0098 20.7626 28.9814 24.4087C30.9011 25.1659 33.5617 26.096 36.7775 26.9298H48.5353ZM40.0642 17.0991C40.6219 17.5523 41.0228 18.0229 41.2669 18.511C41.5457 18.9641 41.7375 20.1145 41.8421 21.9622H35.8809C36.0204 20.1145 36.3864 18.7376 36.979 17.8312C37.5716 16.8899 38.0946 16.4193 38.5477 16.4193C39.0358 16.4193 39.5413 16.6459 40.0642 17.0991Z" fill="white"/>
  <path d="M35.8809 26.9298H36.7775C33.5617 26.096 30.9011 25.1659 28.9814 24.4087L28.9807 24.4965C28.9792 24.7104 28.9785 24.9288 28.9785 25.1519C28.9785 29.1957 29.2225 31.7405 29.7106 32.7864C30.1986 33.7973 31.5582 35.2266 33.7893 37.0742C36.0552 38.9218 37.7808 39.8456 38.9661 39.8456C40.1513 39.8456 41.7026 39.2007 43.62 37.9109C45.5721 36.621 47.0189 35.1046 47.9601 33.3616L42.5741 29.5443C42.1558 30.7296 41.5806 31.7405 40.8485 32.5772C40.1165 33.4138 39.5064 33.8322 39.0184 33.8322C38.5303 33.8322 38.0597 33.623 37.6065 33.2047C37.1533 32.7515 36.8396 32.3157 36.6653 31.8974C36.1424 30.6773 35.8809 29.0214 35.8809 26.9298Z" fill="black"/>
  <path fill-rule="evenodd" clip-rule="evenodd" d="M72.0837 31.3745V11.0334H66.9592L66.3317 14.1708C63.6126 11.6609 61.643 10.4059 60.4229 10.4059C59.5862 10.4059 58.2267 11.3297 56.3442 13.1773C54.4966 15.0249 53.3462 16.5239 52.893 17.6743C52.4398 18.8247 52.2132 21.3172 52.2132 25.1519C52.2132 27.0964 52.2726 28.694 52.3912 29.9447C54.4325 30.2062 57.8228 30.5791 59.2629 30.7329C58.9904 29.7424 58.8542 27.8821 58.8542 25.1519C58.8542 21.5961 59.0807 19.5045 59.5339 18.877C59.6734 18.4935 59.9523 18.0752 60.3706 17.622C60.8238 17.1688 61.2421 16.9422 61.6256 16.9422C62.009 16.9422 62.5668 17.1863 63.2989 17.6743C64.0658 18.1275 64.5713 18.5807 64.8153 19.0339C65.0593 19.4522 65.1813 21.509 65.1813 25.2042C65.1465 28.8994 65.0959 30.7575 64.8518 31.141C67.1999 31.2704 69.6142 31.3514 72.0837 31.3745Z" fill="white"/>
  <path d="M72.0837 32.4726V31.3745C69.6142 31.3514 67.1999 31.2704 64.8518 31.141C64.6427 31.5244 64.0658 32.1414 63.2989 32.6295C62.5668 33.0827 62.009 33.3093 61.6256 33.3093C61.2421 33.3093 60.8238 33.0827 60.3706 32.6295C59.9523 32.1414 59.6734 31.7231 59.5339 31.3745C59.4322 31.2336 59.3418 31.0197 59.2629 30.7329C57.8228 30.5791 54.4325 30.2062 52.3912 29.9447C52.5045 31.138 52.6717 32.0155 52.893 32.5772C53.3462 33.7276 54.4966 35.2266 56.3442 37.0742C58.2267 38.9218 59.5862 39.8456 60.4229 39.8456C61.5733 39.8456 63.5952 38.4338 66.4886 35.6101C66.9418 36.4467 67.4996 37.2659 68.1619 38.0677C68.8243 38.8695 69.382 39.4273 69.8352 39.741L74.5414 35.7146C73.1121 34.7734 72.2929 33.6927 72.0837 32.4726Z" fill="black"/>
  <path fill-rule="evenodd" clip-rule="evenodd" d="M85.6103 28.0802V16.5239H91.4669V11.0334H85.6103V9.46464C85.6103 5.80428 84.3553 2.98058 81.8454 0.993529L76.0934 5.01992C77.0695 5.96116 77.7318 6.93725 78.0804 7.94821C78.429 8.9243 78.6382 10.2664 78.7079 11.9746L76.0934 12.6021V16.5239H78.7079V30.3287C78.7079 30.6561 78.7288 30.981 78.7704 31.3034C80.9987 31.1811 84.6502 30.9469 86.1975 30.8451C85.806 29.9724 85.6103 29.0507 85.6103 28.0802Z" fill="white"/>
  <path d="M91.8852 35.8192C89.933 35.0174 88.3992 33.9368 87.2836 32.5772C86.8289 32.023 86.4668 31.4456 86.1975 30.8451C84.6502 30.9469 80.9987 31.1811 78.7704 31.3034C78.9729 32.8686 79.6666 34.3739 80.8518 35.8192C82.2811 37.5274 84.0416 38.8695 86.1332 39.8456L91.8852 35.8192Z" fill="black"/>
  <path d="M96.5808 39.2181H103.483V28.2619C100.48 28.9746 97.6303 29.4628 96.5808 29.6179V39.2181Z" fill="black"/>
  <path fill-rule="evenodd" clip-rule="evenodd" d="M96.5808 29.6179V10.6673C96.5808 8.88945 96.3716 7.52988 95.9533 6.58865C95.5349 5.64741 94.8726 4.79333 93.9662 4.0264L99.7182 0C102.228 1.98705 103.483 4.79333 103.483 8.41883V13.2819C105.645 11.3645 107.213 10.4059 108.189 10.4059C109.165 10.4059 110.717 11.382 112.843 13.3342C115.005 15.2515 116.085 17.1514 116.085 19.0339V25.3284L109.183 26.9625V19.7659C109.183 19.1733 108.869 18.5632 108.242 17.9358C107.614 17.2734 107.022 16.9422 106.464 16.9422C105.941 16.9422 104.947 17.6743 103.483 19.1384V28.2619C100.48 28.9746 97.6303 29.4628 96.5808 29.6179Z" fill="white"/>
  <path d="M116.713 33.257C116.294 32.2809 116.085 30.9039 116.085 29.126V25.3284L109.183 26.9625V31.3745C109.183 35.0349 110.438 37.8586 112.948 39.8456L118.7 35.8192C117.793 35.0872 117.131 34.2331 116.713 33.257Z" fill="black"/>
  <path fill-rule="evenodd" clip-rule="evenodd" d="M153.992 8.88944V2.61454H133.181V8.88944H139.978V19.4048C142.086 18.9282 146.479 17.9341 147.195 17.7707V8.88944H153.992Z" fill="white"/>
  <path d="M139.978 39.2181H147.195V17.7707C146.479 17.9341 142.086 18.9282 139.978 19.4048V39.2181Z" fill="black"/>
  <path fill-rule="evenodd" clip-rule="evenodd" d="M210.439 22.4687V18.877C210.439 15.2166 209.184 12.3929 206.674 10.4059L201.445 14.4323C202.695 15.7453 203.385 17.6752 203.514 20.2218L210.439 22.4687ZM179.064 11.0334V14.094C180.237 14.2302 183.26 14.6659 185.967 15.3196V11.0334H179.064ZM191.3 11.0334V16.5451L198.203 18.5878V11.0334H191.3Z" fill="white"/>
  <path d="M209.759 31.1653C210.212 30.1544 210.439 27.5573 210.439 23.374V22.4687L203.514 20.2218C203.529 20.5149 203.536 20.8161 203.536 21.1255V23.374C203.536 27.1041 203.397 29.2829 203.118 29.9104C202.874 30.5378 202.508 31.1828 202.02 31.8451C201.567 32.4726 201.183 32.7864 200.87 32.7864C200.556 32.7864 200.155 32.4726 199.667 31.8451C199.179 31.1828 198.813 30.5204 198.569 29.8581C198.325 29.1957 198.203 27.0344 198.203 23.374V18.5878L191.3 16.5451V25.2565C191.3 27.7316 191.161 29.2829 190.882 29.9104C190.638 30.5378 190.272 31.1828 189.784 31.8451C189.331 32.4726 188.947 32.7864 188.633 32.7864C188.32 32.7864 187.919 32.4726 187.431 31.8451C186.943 31.1828 186.577 30.5204 186.333 29.8581C186.089 29.1957 185.967 27.0344 185.967 23.374V15.3196C183.26 14.6659 180.237 14.2302 179.064 14.094V23.374C179.064 27.383 179.273 29.9278 179.692 31.0085C180.11 32.0891 181.435 33.8322 183.666 36.2376C185.932 38.6429 187.588 39.8456 188.633 39.8456C189.888 39.8456 191.928 37.876 194.752 33.9368C197.575 37.876 199.615 39.8456 200.87 39.8456C201.915 39.8456 203.554 38.6604 205.785 36.2898C208.016 33.8845 209.341 32.1763 209.759 31.1653Z" fill="black"/>
  <path fill-rule="evenodd" clip-rule="evenodd" d="M233.341 26.9298V25.0473C233.341 21.0383 233.096 18.5284 232.608 17.5174C232.12 16.4716 230.743 15.0249 228.477 13.1773C226.246 11.3297 224.608 10.4059 223.562 10.4059C222.516 10.4059 220.86 11.3297 218.594 13.1773C216.363 15.0249 215.004 16.4716 214.516 17.5174C214.097 18.3858 213.857 20.3859 213.798 23.5178C215.234 24.0314 219.459 25.433 224.869 26.9298H233.341ZM224.869 17.0991C225.427 17.5523 225.828 18.0229 226.072 18.511C226.351 18.9641 226.543 20.1145 226.647 21.9622H220.686C220.826 20.1145 221.192 18.7376 221.784 17.8312C222.377 16.8899 222.9 16.4193 223.353 16.4193C223.841 16.4193 224.346 16.6459 224.869 17.0991Z" fill="white"/>
  <path d="M221.47 31.8974C220.948 30.6773 220.686 29.0214 220.686 26.9298H224.869C219.459 25.433 215.234 24.0314 213.798 23.5178C213.789 24.032 213.784 24.5767 213.784 25.1519C213.784 29.1957 214.028 31.7405 214.516 32.7864C215.004 33.7973 216.363 35.2266 218.594 37.0742C220.86 38.9218 222.586 39.8456 223.771 39.8456C224.957 39.8456 226.508 39.2007 228.425 37.9109C230.377 36.621 231.824 35.1046 232.765 33.3616L227.379 29.5443C226.961 30.7296 226.386 31.7405 225.654 32.5772C224.922 33.4138 224.312 33.8322 223.824 33.8322C223.336 33.8322 222.865 33.623 222.412 33.2047C221.959 32.7515 221.645 32.3157 221.47 31.8974Z" fill="black"/>
  <path fill-rule="evenodd" clip-rule="evenodd" d="M238.849 21.1778V30.198C239.319 30.3058 241.359 30.5859 245.751 30.8434V19.1384C247.215 17.6743 248.244 16.9422 248.836 16.9422C249.115 16.9422 249.429 17.3431 249.777 18.1449C250.161 18.9467 250.37 19.7659 250.405 20.6026L256 16.5762C255.756 15.0423 254.919 13.6305 253.49 12.3406C252.061 11.0508 250.998 10.4059 250.3 10.4059C249.254 10.4059 247.442 11.626 244.862 14.0662C244.2 12.6718 243.241 11.4517 241.986 10.4059L236.234 14.4323C237.106 15.1643 237.75 16.0359 238.169 17.0468C238.622 18.0229 238.849 19.3999 238.849 21.1778Z" fill="white"/>
  <path d="M238.849 39.2181H245.751V30.8434C241.359 30.5859 239.319 30.3058 238.849 30.198V39.2181Z" fill="black"/>
  <path fill-rule="evenodd" clip-rule="evenodd" d="M174.079 24.6267L174.094 23.9329C175.046 25.5304 175.612 27.3956 175.615 29.3856C175.615 31.549 174.943 33.5633 173.878 35.2429L173.86 35.2398C171.955 38.1274 168.666 40.0291 164.951 40.0291C163.825 40.0291 162.824 39.9257 161.893 39.5484C160.962 39.1741 160.231 38.669 159.69 37.8901C158.962 36.8434 158.564 36.0218 158.299 34.4457C157.885 36.107 158.424 37.6284 158.88 38.4499C156.014 36.7156 154.307 33.7032 154.307 30.128V29.8724C154.534 26.3221 156.496 24.2165 158.24 22.3446C159.046 21.4795 159.805 20.6643 160.326 19.7796C160.885 18.8333 161.168 17.8261 160.934 16.6029C161.695 17.1719 161.914 18.2217 161.932 19.168C161.953 20.2208 161.731 21.1458 161.731 21.1458C161.999 20.6011 162.246 19.883 162.398 19.0432C162.621 17.8079 162.64 16.3086 162.223 14.7069C163.956 14.4345 167.612 13.8898 168.377 13.8898C170.939 16.1324 172.728 19.2414 173.288 22.7615C173.409 23.5343 173.473 24.3224 173.473 25.1287C173.473 26.2059 173.358 27.2556 173.142 28.2689C173.826 26.7505 174.024 25.4026 174.079 24.6267Z" fill="white"/>
  <path d="M161.031 10.414C160.28 10.2344 159.839 10.2131 159.839 10.2131L159.884 10.2679C161.126 11.7524 161.85 13.2708 162.223 14.7069C163.956 14.4345 167.612 13.8898 168.377 13.8898C166.341 12.1081 163.816 10.8733 161.031 10.414Z" fill="black"/>
  <path d="M170.143 30.3624L170.135 30.7347C170.104 31.151 169.992 31.8744 169.607 32.6892C169.729 32.1454 169.794 31.5821 169.794 31.0041C169.794 30.5714 169.758 30.1485 169.689 29.7337C169.124 26.344 166.329 23.6646 162.787 23.1078C162.364 23.0114 162.115 23 162.115 23C162.124 23.0098 162.132 23.0196 162.141 23.0294C163.62 24.7145 163.795 26.4812 163.556 27.7384C163.471 28.1891 163.332 28.5744 163.181 28.8667C163.181 28.8667 163.306 28.3703 163.294 27.8054C163.284 27.2976 163.161 26.7343 162.732 26.4289C162.864 27.0853 162.705 27.6258 162.389 28.1336C161.462 29.6358 159.187 30.7641 159 33.5496V33.6868C159 35.6054 159.961 37.2219 161.575 38.1526C161.318 37.7117 161.015 36.8953 161.248 36.0038C161.397 36.8496 161.622 37.2904 162.031 37.8521C162.336 38.2701 162.748 38.5412 163.272 38.742C163.796 38.9445 164.36 39 164.994 39C167.086 39 168.939 37.9795 170.011 36.4299L170.022 36.4316C170.621 35.5303 171 34.4493 171 33.2884C170.998 32.2205 170.68 31.2196 170.143 30.3624Z" fill="black"/>
</svg>
