<svg width="333" height="52" viewBox="0 0 333 52" fill="none" xmlns="http://www.w3.org/2000/svg">
<g clip-path="url(#clip0_130_1334)">
<path fill-rule="evenodd" clip-rule="evenodd" d="M18.27 2.5809C16.7306 2.5809 14.4666 3.75815 11.4782 6.11266C10.7537 4.48261 9.91608 3.30536 8.96522 2.5809L0 8.82939C1.67532 10.8669 2.76201 12.6328 3.26008 14.127C3.80343 15.6212 4.0751 18.2021 4.0751 21.8697V25.2041C7.24913 25.4607 10.3066 25.7367 13.4478 26.0872V17.9305C13.4478 15.9835 13.3799 14.5345 13.2441 13.5837C15.1911 12.7234 16.8211 12.2932 18.1342 12.2932C18.7681 12.2932 19.5152 12.7687 20.3755 13.7195C21.2811 14.6251 21.915 15.508 22.2772 16.3683C22.6395 17.1834 22.8206 19.4473 22.8206 23.1602V27.3265C26.5249 27.9322 29.7728 28.6296 32.1933 29.4259V23.1602C32.1933 18.4059 31.9443 15.4401 31.4462 14.2629C30.6765 12.4064 28.6616 10.0066 25.4015 7.06351C22.1867 4.07511 19.8095 2.5809 18.27 2.5809Z" fill="white"/>
<path d="M31.4462 40.0718C31.9443 38.8946 32.1933 35.9288 32.1933 31.1745V29.4259C29.7728 28.6296 26.5249 27.9322 22.8206 27.3265V31.8537C22.8206 35.5666 22.6395 37.8532 22.2772 38.7135C21.915 39.5285 21.2811 40.4114 20.3755 41.3623C19.5152 42.2679 18.7681 42.7207 18.1342 42.7207H13.4478V26.0872C10.3066 25.7367 7.24913 25.4607 4.0751 25.2041V50.9388H18.1342C19.9454 50.9388 22.4131 49.5804 25.5373 46.8637C28.6616 44.1017 30.6312 41.8377 31.4462 40.0718Z" fill="black"/>
<path fill-rule="evenodd" clip-rule="evenodd" d="M63.0404 34.978V32.5329C63.0404 27.3258 62.7235 24.0657 62.0896 22.7527C61.4557 21.3943 59.6672 19.5152 56.724 17.1154C53.8262 14.7157 51.6981 13.5158 50.3397 13.5158C48.9813 13.5158 46.8306 14.7157 43.8875 17.1154C40.9896 19.5152 39.2237 21.3943 38.5898 22.7527C37.9954 23.9841 37.6796 26.9677 37.6427 31.7034C40.1362 32.687 43.5919 33.895 47.7687 34.978H63.0404ZM52.0377 22.2093C52.7621 22.7979 53.2828 23.4092 53.5998 24.0431C53.962 24.6317 54.2111 26.1259 54.3469 28.5257H46.6042C46.7853 26.1259 47.2608 24.3374 48.0305 23.1602C48.8002 21.9376 49.4794 21.3264 50.068 21.3264C50.702 21.3264 51.3585 21.6207 52.0377 22.2093Z" fill="white"/>
<path d="M46.6042 34.978H47.7687C43.5919 33.895 40.1362 32.687 37.6427 31.7034L37.6418 31.8175C37.6399 32.0953 37.639 32.379 37.639 32.6687C37.639 37.9211 37.9559 41.2265 38.5898 42.5848C39.2237 43.8979 40.9896 45.7543 43.8875 48.1541C46.8306 50.5539 49.0719 51.7538 50.6114 51.7538C52.1509 51.7538 54.1658 50.9161 56.6561 49.2408C59.1917 47.5655 61.0708 45.5959 62.2934 43.3319L55.2978 38.3739C54.7544 39.9134 54.0073 41.2265 53.0564 42.3131C52.1056 43.3998 51.3132 43.9432 50.6793 43.9432C50.0454 43.9432 49.4341 43.6715 48.8455 43.1282C48.2569 42.5395 47.8494 41.9736 47.623 41.4302C46.9438 39.8454 46.6042 37.6947 46.6042 34.978Z" fill="black"/>
<path fill-rule="evenodd" clip-rule="evenodd" d="M93.6265 40.751V14.3308H86.9705L86.1555 18.4059C82.6238 15.1458 80.0655 13.5158 78.4807 13.5158C77.394 13.5158 75.6282 14.7157 73.1831 17.1154C70.7833 19.5152 69.2891 21.4622 68.7005 22.9564C68.1119 24.4506 67.8176 27.6881 67.8176 32.6687C67.8176 35.1944 67.8946 37.2694 68.0488 38.8939C70.7 39.2335 75.1037 39.7179 76.9741 39.9176C76.6201 38.6312 76.4432 36.2149 76.4432 32.6687C76.4432 28.0503 76.7375 25.3336 77.3261 24.5185C77.5072 24.0205 77.8695 23.4771 78.4128 22.8885C79.0014 22.2999 79.5448 22.0056 80.0429 22.0056C80.5409 22.0056 81.2654 22.3225 82.2162 22.9564C83.2124 23.545 83.8689 24.1337 84.1859 24.7223C84.5028 25.2656 84.6613 27.9371 84.6613 32.7367C84.616 37.5362 84.5503 39.9496 84.2333 40.4477C87.2831 40.6158 90.419 40.721 93.6265 40.751Z" fill="white"/>
<path d="M93.6265 42.1773V40.751C90.419 40.721 87.2831 40.6158 84.2333 40.4477C83.9617 40.9458 83.2124 41.7472 82.2162 42.3811C81.2654 42.9697 80.5409 43.264 80.0429 43.264C79.5448 43.264 79.0014 42.9697 78.4128 42.3811C77.8695 41.7472 77.5072 41.2038 77.3261 40.751C77.1939 40.568 77.0766 40.2902 76.9741 39.9176C75.1037 39.7179 70.7 39.2335 68.0488 38.8939C68.1958 40.4438 68.4131 41.5836 68.7005 42.3131C69.2891 43.8074 70.7833 45.7543 73.1831 48.1541C75.6282 50.5539 77.394 51.7538 78.4807 51.7538C79.9749 51.7538 82.6011 49.92 86.3593 46.2524C86.9479 47.3391 87.6724 48.4032 88.5327 49.4446C89.393 50.486 90.1174 51.2105 90.706 51.618L96.8187 46.3883C94.9623 45.1657 93.8982 43.7621 93.6265 42.1773Z" fill="black"/>
<path fill-rule="evenodd" clip-rule="evenodd" d="M111.196 36.4722V21.4622H118.802V14.3308H111.196V12.2932C111.196 7.53894 109.566 3.87135 106.306 1.29045L98.8345 6.52016C100.102 7.7427 100.963 9.0105 101.415 10.3236C101.868 11.5914 102.14 13.3346 102.23 15.5533L98.8345 16.3683V21.4622H102.23V39.3927C102.23 39.8179 102.257 40.2399 102.312 40.6586C105.206 40.4998 109.949 40.1956 111.958 40.0634C111.45 38.9299 111.196 37.7328 111.196 36.4722Z" fill="white"/>
<path d="M119.346 46.5241C116.81 45.4827 114.818 44.079 113.369 42.3131C112.778 41.5933 112.308 40.8434 111.958 40.0634C109.949 40.1956 105.206 40.4998 102.312 40.6586C102.575 42.6916 103.476 44.6468 105.015 46.5241C106.872 48.7428 109.158 50.486 111.875 51.7538L119.346 46.5241Z" fill="black"/>
<path d="M125.445 50.9388H134.41V36.7082C130.509 37.6339 126.808 38.268 125.445 38.4694V50.9388Z" fill="black"/>
<path fill-rule="evenodd" clip-rule="evenodd" d="M125.445 38.4694V13.8554C125.445 11.5461 125.173 9.78025 124.63 8.55772C124.086 7.33519 123.226 6.22585 122.049 5.22972L129.52 0C132.78 2.5809 134.41 6.22585 134.41 10.9349V17.2513C137.217 14.7609 139.255 13.5158 140.523 13.5158C141.79 13.5158 143.805 14.7836 146.567 17.3192C149.375 19.8095 150.778 22.2772 150.778 24.7223V32.898L141.813 35.0204V25.6731C141.813 24.9034 141.406 24.111 140.591 23.296C139.775 22.4357 139.006 22.0056 138.281 22.0056C137.602 22.0056 136.312 22.9564 134.41 24.8581V36.7082C130.509 37.6339 126.808 38.268 125.445 38.4694Z" fill="white"/>
<path d="M151.593 43.1961C151.05 41.9283 150.778 40.1398 150.778 37.8305V32.898L141.813 35.0204V40.751C141.813 45.5053 143.443 49.1729 146.703 51.7538L154.174 46.5241C152.997 45.5732 152.137 44.4639 151.593 43.1961Z" fill="black"/>
<path fill-rule="evenodd" clip-rule="evenodd" d="M200.014 11.5461V3.39592H172.983V11.5461H181.812V25.2041C184.549 24.585 190.255 23.2939 191.185 23.0816V11.5461H200.014Z" fill="white"/>
<path d="M181.812 50.9388H191.185V23.0816C190.255 23.2939 184.549 24.585 181.812 25.2041V50.9388Z" fill="black"/>
<path fill-rule="evenodd" clip-rule="evenodd" d="M273.33 29.1837V24.5185C273.33 19.7642 271.7 16.0967 268.44 13.5158L261.648 18.7455C263.272 20.4509 264.168 22.9575 264.336 26.2653L273.33 29.1837ZM232.579 14.3308V18.3061C234.103 18.483 238.029 19.049 241.544 19.898V14.3308H232.579ZM248.472 14.3308V21.4898L257.437 24.1429V14.3308H248.472Z" fill="white"/>
<path d="M272.447 40.4794C273.036 39.1663 273.33 35.793 273.33 30.3595V29.1837L264.336 26.2653C264.355 26.6459 264.365 27.0372 264.365 27.439V30.3595C264.365 35.2044 264.184 38.0343 263.821 38.8493C263.505 39.6643 263.029 40.502 262.395 41.3623C261.807 42.1773 261.308 42.5848 260.901 42.5848C260.493 42.5848 259.973 42.1773 259.339 41.3623C258.705 40.502 258.23 39.6417 257.913 38.7814C257.596 37.9211 257.437 35.1138 257.437 30.3595V24.1429L248.472 21.4898V32.8046C248.472 36.0194 248.291 38.0343 247.929 38.8493C247.612 39.6643 247.136 40.502 246.502 41.3623C245.914 42.1773 245.416 42.5848 245.008 42.5848C244.601 42.5848 244.08 42.1773 243.446 41.3623C242.812 40.502 242.337 39.6417 242.02 38.7814C241.703 37.9211 241.544 35.1138 241.544 30.3595V19.898C238.029 19.049 234.103 18.483 232.579 18.3061V30.3595C232.579 35.5666 232.851 38.872 233.394 40.2756C233.937 41.6792 235.658 43.9432 238.556 47.0674C241.499 50.1917 243.65 51.7538 245.008 51.7538C246.638 51.7538 249.287 49.1955 252.955 44.079C256.622 49.1955 259.271 51.7538 260.901 51.7538C262.259 51.7538 264.387 50.2143 267.285 47.1354C270.183 44.0111 271.904 41.7924 272.447 40.4794Z" fill="black"/>
<path fill-rule="evenodd" clip-rule="evenodd" d="M303.076 34.978V32.5329C303.076 27.3258 302.759 24.0657 302.125 22.7527C301.491 21.3943 299.703 19.5152 296.76 17.1154C293.862 14.7157 291.734 13.5158 290.375 13.5158C289.017 13.5158 286.866 14.7157 283.923 17.1154C281.025 19.5152 279.259 21.3943 278.626 22.7527C278.081 23.8806 277.77 26.4784 277.694 30.5463C279.559 31.2134 285.046 33.0338 292.073 34.978H303.076ZM292.073 22.2093C292.798 22.7979 293.319 23.4092 293.636 24.0431C293.998 24.6317 294.247 26.1259 294.383 28.5257H286.64C286.821 26.1259 287.296 24.3374 288.066 23.1602C288.836 21.9376 289.515 21.3264 290.104 21.3264C290.738 21.3264 291.394 21.6207 292.073 22.2093Z" fill="white"/>
<path d="M287.659 41.4302C286.98 39.8454 286.64 37.6947 286.64 34.978H292.073C285.046 33.0338 279.559 31.2134 277.694 30.5463C277.681 31.2141 277.675 31.9216 277.675 32.6687C277.675 37.9211 277.992 41.2265 278.626 42.5848C279.259 43.8979 281.025 45.7543 283.923 48.1541C286.866 50.5539 289.108 51.7538 290.647 51.7538C292.187 51.7538 294.202 50.9161 296.692 49.2408C299.227 47.5655 301.107 45.5959 302.329 43.3319L295.333 38.3739C294.79 39.9134 294.043 41.2265 293.092 42.3131C292.141 43.3998 291.349 43.9432 290.715 43.9432C290.081 43.9432 289.47 43.6715 288.881 43.1282C288.293 42.5395 287.885 41.9736 287.659 41.4302Z" fill="black"/>
<path fill-rule="evenodd" clip-rule="evenodd" d="M310.23 27.5069V39.2229C310.842 39.3629 313.491 39.7267 319.196 40.0612V24.8581C321.097 22.9564 322.433 22.0056 323.203 22.0056C323.565 22.0056 323.973 22.5263 324.425 23.5677C324.923 24.6091 325.195 25.6731 325.24 26.7598L332.508 21.5301C332.191 19.5379 331.104 17.7041 329.248 16.0287C327.391 14.3534 326.01 13.5158 325.105 13.5158C323.746 13.5158 321.392 15.1005 318.041 18.27C317.181 16.4589 315.936 14.8741 314.306 13.5158L306.834 18.7455C307.966 19.6963 308.804 20.8283 309.347 22.1414C309.936 23.4092 310.23 25.1977 310.23 27.5069Z" fill="white"/>
<path d="M310.23 50.9388H319.196V40.0612C313.491 39.7267 310.842 39.3629 310.23 39.2229V50.9388Z" fill="black"/>
<path fill-rule="evenodd" clip-rule="evenodd" d="M227.633 31.4467L227.653 30.5456C228.89 32.6205 229.625 35.0431 229.629 37.6278C229.629 40.4378 228.756 43.0541 227.372 45.2356L227.349 45.2317C224.875 48.9822 220.602 51.4523 215.777 51.4523C214.315 51.4523 213.014 51.3179 211.805 50.8279C210.596 50.3418 209.647 49.6857 208.944 48.674C207.999 47.3144 207.481 46.2474 207.137 44.2002C206.6 46.358 207.299 48.3341 207.892 49.4012C204.169 47.1485 201.952 43.2359 201.952 38.5921V38.2602C202.247 33.6489 204.795 30.914 207.06 28.4826C208.107 27.359 209.094 26.3002 209.77 25.151C210.497 23.9219 210.864 22.6138 210.56 21.025C211.548 21.7641 211.833 23.1275 211.856 24.3566C211.884 25.7241 211.595 26.9255 211.595 26.9255C211.943 26.2181 212.263 25.2854 212.461 24.1946C212.751 22.5901 212.775 20.6427 212.234 18.5623C214.485 18.2086 219.234 17.5011 220.227 17.5011C223.555 20.4138 225.879 24.452 226.606 29.0241C226.764 30.0279 226.847 31.0515 226.847 32.0988C226.847 33.4979 226.696 34.8614 226.416 36.1774C227.305 34.2053 227.562 32.4545 227.633 31.4467Z" fill="white"/>
<path d="M210.686 12.9864C209.71 12.7533 209.137 12.7256 209.137 12.7256L209.197 12.7967C210.809 14.7248 211.749 16.6971 212.234 18.5623C214.485 18.2086 219.234 17.5011 220.227 17.5011C217.582 15.1869 214.303 13.5831 210.686 12.9864Z" fill="black"/>
<path d="M222.971 38.7869L222.959 39.3331C222.916 39.944 222.76 41.0053 222.222 42.2008C222.392 41.403 222.483 40.5765 222.483 39.7284C222.483 39.0936 222.432 38.4731 222.337 37.8645C221.547 32.891 217.644 28.9597 212.698 28.1427C212.107 28.0014 211.76 27.9846 211.76 27.9846C211.772 27.999 211.784 28.0134 211.796 28.0277C213.861 30.5001 214.105 33.0923 213.773 34.937C213.653 35.5982 213.459 36.1636 213.249 36.5924C213.249 36.5924 213.423 35.8641 213.407 35.0352C213.392 34.2901 213.22 33.4636 212.622 33.0156C212.806 33.9787 212.583 34.7717 212.143 35.5167C210.849 37.7208 207.671 39.3762 207.41 43.4633V43.6646C207.41 46.4795 208.752 48.8513 211.007 50.2169C210.648 49.57 210.224 48.3722 210.55 47.0641C210.758 48.3051 211.071 48.9519 211.643 49.776C212.069 50.3893 212.643 50.787 213.375 51.0817C214.108 51.3788 214.895 51.4602 215.78 51.4602C218.702 51.4602 221.288 49.9629 222.786 47.6894L222.801 47.6918C223.638 46.3693 224.167 44.7834 224.167 43.08C224.165 41.5132 223.72 40.0446 222.971 38.7869Z" fill="black"/>
<mask id="mask0_130_1334" style="mask-type:alpha" maskUnits="userSpaceOnUse" x="201" y="13" width="29" height="39">
<path fill-rule="evenodd" clip-rule="evenodd" d="M227.654 31.9865L227.673 31.0854C228.91 33.1603 229.646 35.583 229.649 38.1676C229.649 40.9776 228.776 43.5939 227.393 45.7754L227.369 45.7715C224.895 49.522 220.623 51.9921 215.797 51.9921C214.335 51.9921 213.035 51.8577 211.825 51.3677C210.616 50.8816 209.668 50.2255 208.964 49.2138C208.02 47.8543 207.502 46.7872 207.158 44.74C206.62 46.8978 207.32 48.8739 207.913 49.941C204.19 47.6883 201.973 43.7757 201.973 39.1319V38.8C202.267 34.1887 204.816 31.4538 207.081 29.0224C208.128 27.8988 209.114 26.84 209.79 25.6908C210.517 24.4617 210.885 23.1536 210.58 21.5648C211.569 22.3039 211.853 23.6673 211.877 24.8964C211.904 26.2639 211.616 27.4653 211.616 27.4653C211.964 26.7579 212.284 25.8252 212.481 24.7344C212.771 23.1299 212.796 21.1825 212.255 19.1021C214.505 18.7484 219.254 18.0409 220.247 18.0409C223.576 20.9536 225.899 24.9918 226.626 29.5639C226.784 30.5677 226.867 31.5913 226.867 32.6386C226.867 34.0377 226.717 35.4012 226.436 36.7172C227.326 34.7451 227.583 32.9943 227.654 31.9865Z" fill="white"/>
<path d="M210.707 13.5262C209.731 13.293 209.158 13.2654 209.158 13.2654L209.217 13.3365C210.829 15.2646 211.77 17.2369 212.255 19.1021C214.505 18.7484 219.254 18.0409 220.247 18.0409C217.603 15.7267 214.324 14.1229 210.707 13.5262Z" fill="black"/>
<path d="M222.991 39.3267L222.979 39.8729C222.936 40.4838 222.781 41.5451 222.242 42.7406C222.412 41.9428 222.503 41.1163 222.503 40.2682C222.503 39.6333 222.453 39.0129 222.357 38.4043C221.567 33.4308 217.665 29.4995 212.719 28.6825C212.128 28.5412 211.781 28.5244 211.781 28.5244C211.793 28.5388 211.805 28.5532 211.817 28.5675C213.882 31.0399 214.126 33.6321 213.793 35.4768C213.673 36.138 213.48 36.7034 213.269 37.1322C213.269 37.1322 213.444 36.4039 213.427 35.575C213.413 34.8299 213.24 34.0034 212.642 33.5554C212.826 34.5185 212.604 35.3115 212.164 36.0565C210.869 38.2606 207.691 39.916 207.431 44.0031V44.2044C207.431 47.0193 208.773 49.3911 211.027 50.7566C210.668 50.1098 210.245 48.9119 210.57 47.6039C210.778 48.8449 211.092 49.4917 211.664 50.3158C212.089 50.9291 212.664 51.3268 213.396 51.6215C214.128 51.9186 214.915 52 215.801 52C218.722 52 221.309 50.5027 222.807 48.2292L222.821 48.2316C223.659 46.9091 224.188 45.3232 224.188 43.6198C224.185 42.053 223.74 40.5844 222.991 39.3267Z" fill="black"/>
</mask>
<g mask="url(#mask0_130_1334)">
<path d="M166.886 51.4153C166.961 49.481 167.777 45.3246 170.44 44.1731C173.769 42.7336 178.357 41.4741 180.336 38.8201C180.948 41.4831 180.711 42.7486 180.516 43.0485C180.786 43.0035 181.578 42.3378 182.585 40.0347C183.845 37.1558 184.295 36.7059 184.879 36.3461C185.464 35.9862 187.938 34.9966 189.648 34.7267C191.357 34.4568 194.776 33.6021 195.9 32.8374C195.225 34.4118 193.561 38.1904 193.291 39.4949C193.075 40.5385 192.871 41.5491 192.796 41.9239C193.531 41.639 195.36 40.9883 196.8 40.6644C198.599 40.2596 200.758 39.5398 202.423 38.0104C204.087 36.481 205.392 35.0416 206.561 34.3218C207.731 33.6021 209.395 32.7924 211.014 33.3322C209.755 34.6367 208.855 36.2561 208.63 37.8755C208.405 39.4949 208.001 43.6333 207.821 44.443C208.495 44.0381 209.26 42.8686 209.53 42.5087C209.8 42.1488 211.824 40.1246 213.174 40.3945C212.769 41.2492 212.184 42.5987 212.364 44.308C213.488 44.1731 215.648 43.0485 217.807 40.3045C219.966 37.5606 223.34 36.3011 225.184 35.8962C227.028 35.4914 229.502 35.1765 230.042 35.3115C228.963 35.5814 228.378 36.1661 227.973 37.2907C227.568 38.4153 227.568 41.5641 227.613 42.1488C228.243 41.744 229.547 40.8443 230.492 40.7544C231.248 40.6824 231.856 40.7244 232.066 40.7544L231.976 41.699V51.4153H166.886Z" fill="#FF673E"/>
<path d="M167.921 51.4602H230.582C230.798 50.4885 230.792 48.4763 230.042 47.5917C229.487 47.0219 228.441 45.5314 228.693 44.128C228.558 44.128 225.454 46.3321 224.959 47.3218C224.509 47.0519 224.329 46.4221 224.284 45.3425C223.673 45.6304 222.83 46.5121 222.485 46.9169C222.47 46.8569 222.314 46.5481 221.81 45.7923C221.18 44.8477 221.18 43.0934 221.225 42.6435C221.27 42.1937 221.18 42.2387 222.215 40.5743C221.459 40.9342 219.741 42.7335 218.976 43.5882C218.392 44.4279 216.691 46.1342 214.568 46.2422C211.914 46.3771 209.935 47.4117 209.215 47.7716C208.945 47.3667 209.125 45.9123 209.44 44.8027C209.305 44.8627 208.954 45.0906 208.63 45.5224C208.225 46.0622 207.416 47.0968 206.741 47.5917C206.066 48.0865 204.942 48.3564 204.447 48.4013C204.672 47.9965 205.347 46.557 205.571 45.8823C205.302 45.9723 203.547 45.5224 202.288 45.3875C201.28 45.2795 200.368 46.1522 200.039 46.602L200.308 45.7923C200.398 45.5224 200.488 44.5328 200.578 44.2629C200.668 43.993 201.343 42.4186 201.793 41.339C201.343 41.7889 200.218 42.3287 198.824 42.9584C197.43 43.5882 195.225 43.993 193.561 44.3979C192.23 44.7218 191.177 45.4025 190.817 45.7024C190.577 45.9723 190.061 46.5211 189.917 46.557C189.962 46.0622 189.782 45.0726 189.423 44.3979C189.063 43.7231 188.208 43.3633 187.758 42.9134C187.398 42.5536 187.488 41.564 187.578 41.1141C187.638 40.6943 188.001 39.5487 188.973 38.3252C186.949 39.2249 185.059 40.9792 184.834 41.2941C184.654 41.546 183.26 43.5882 182.585 44.5778C182.36 44.9827 181.407 45.9003 179.391 46.3321C176.908 46.764 175.778 47.5917 175.523 47.9515C175.688 47.4117 176 46.0083 175.928 44.7128C175.28 46.0442 173.049 47.5167 172.014 48.0865C170.179 49.346 168.551 50.1557 167.921 51.4602Z" fill="#FF9B50"/>
<path d="M170.395 51.4603C170.47 51.1304 170.8 50.3987 171.52 50.1108C172.239 49.8229 172.719 49.541 172.869 49.436C172.914 49.6759 173.004 50.2097 173.004 50.4256C174.084 49.9758 177.007 48.8962 178.357 48.4914C179.706 48.0865 181.956 47.3668 183.71 45.4775C183.782 47.1329 183.23 48.0566 182.945 48.3115C182.81 48.6863 182.621 49.382 182.945 49.1661C183.35 48.4914 184.295 47.8616 184.385 47.7717C184.457 47.6997 185.134 47.2619 185.464 47.0519C185.509 47.3668 185.635 48.0596 185.779 48.3115C185.959 48.6263 186.229 49.391 186.184 49.6609C186.652 49.3731 188.298 49.2111 189.063 49.1661C189.723 49.2261 191.384 49.0852 192.751 48.0416C194.461 46.7371 195.72 46.3322 196.395 46.3322C195.783 47.016 195.72 48.6863 195.765 49.436C196.68 48.9262 198.734 47.8526 199.634 47.6367C200.533 47.4208 201.238 47.3368 201.478 47.3218C201.388 48.0566 201.244 49.625 201.388 50.0208C201.973 50.1108 203.052 49.8859 203.232 49.6609C203.412 49.436 204.942 49.436 205.571 49.3011C206.075 49.1931 206.471 48.9862 206.606 48.8962C206.516 49.2561 206.579 50.0028 207.551 50.1108C208.738 50.3627 210.625 49.586 211.419 49.1661C211.989 48.9262 213.443 48.4194 214.703 48.3115C215.962 48.2035 217.417 47.1269 217.987 46.6021C218.377 46.3322 219.138 45.8464 219.066 46.0623C218.976 46.3322 218.167 48.7613 219.291 49.436C219.219 50.8395 219.111 51.3703 219.066 51.4603H170.395Z" fill="#FFCC4D"/>
</g>
</g>
<defs>
<clipPath id="clip0_130_1334">
<rect width="332.513" height="52" fill="white"/>
</clipPath>
</defs>
</svg>
