<svg width="317" height="301" viewBox="0 0 317 301" fill="none" xmlns="http://www.w3.org/2000/svg">
<g clip-path="url(#clip0_3_236)">
<path fill-rule="evenodd" clip-rule="evenodd" d="M75.5 79.5C81.5 78.5 96 77.1 106 79.5C118.5 82.5 129 87.5 153.5 124C156.5 129.5 158 131.5 159.5 132.5C160.479 133.152 174.651 134.486 184.663 138.255C189.998 140.263 195.152 140.826 195.5 141C195.574 141.037 195.819 141.125 196.206 141.265C201.072 143.024 230.41 146.901 224 168.5C219.308 184.311 201 203.833 192 209.5C194.833 219.833 212.4 245.8 223 262C215 256.5 174 255.5 173 256C172.884 256.058 172.654 256.17 172.33 256.327L172.314 256.335L172.309 256.337C169.818 257.546 161.967 261.356 158 264C153.983 266.678 150.763 266.169 147.628 265.673C147.251 265.613 146.876 265.554 146.5 265.5C145.216 265.317 143.528 264.46 141.584 263.473C138.23 261.772 134.115 259.683 130 260C124.8 260.4 117.5 263.833 114.5 265.5L106 271C103.333 272 97.9 273 97.5 269C97.1 265 94.6667 254.333 93.5 249.5L90.5 238.5C86.5 222.667 83.9 249.3 75.5 239.5C73.1 236.7 69.1667 231.667 68 230C66.2533 227.817 55.6864 206.35 55.3453 206.346C51.1682 198.673 50.0428 194.044 51 185C52.2 175.4 61.5 163.667 66 159C62.6667 150 55.9 130.4 55.5 124C55.3561 121.698 55.1294 119.354 54.9033 117.016C54.3437 111.232 53.7878 105.485 54.5 100.5C55.5 93.5 60.5 83.4999 75.5 79.5ZM114.5 97.5C102.1 80.7 83.3334 81.1667 75.5 83.5C66.5001 86.5 64 90 59.5 96.5C55.9 101.7 58 118.333 59.5 126C62 135.333 69.1 155.8 77.5 163C88 172 103 170 117 167C128.2 164.6 130.333 146.667 130 138C130 131.5 126.9 114.3 114.5 97.5ZM170 139.5C172.667 140.833 178.2 145.2 179 152C180 160.5 183 191.5 178 202.5C171.6 192.9 159.333 171.167 158 163C157.167 157.333 156 145.5 158 143.5C160.5 141 162.5 139.5 170 139.5ZM71.5 190C75.5 186.4 82.8334 190.5 85.5 192C90.3 195.2 88.1667 200.667 88.5 204.5C89.1667 214.167 84.7 236.3 81.5 239.5C73.5001 232.5 66.5 202.5 66 199.5C65.5 196.5 66.5 194.5 71.5 190Z" fill="#2D2C2B"/>
<path d="M75.5 83.5C83.3334 81.1667 102.1 80.7 114.5 97.5C126.9 114.3 130 131.5 130 138C130.333 146.667 128.2 164.6 117 167C103 170 88 172 77.5 163C69.1 155.8 62 135.333 59.5 126C58 118.333 55.9 101.7 59.5 96.5C64 90 66.5001 86.5 75.5 83.5Z" fill="#212121"/>
<path d="M170 139.5C172.667 140.833 178.2 145.2 179 152C180 160.5 183 191.5 178 202.5C171.6 192.9 159.333 171.167 158 163C157.167 157.333 156 145.5 158 143.5C160.5 141 162.5 139.5 170 139.5Z" fill="#212121"/>
<path d="M85.5 192C82.8334 190.5 75.5 186.4 71.5 190C66.5 194.5 65.5 196.5 66 199.5C66.5 202.5 73.5001 232.5 81.5 239.5C84.7 236.3 89.1667 214.167 88.5 204.5C88.1667 200.667 90.3 195.2 85.5 192Z" fill="#212121"/>
<path d="M75.5 79.5L75.4589 79.2534L75.4472 79.2553L75.4356 79.2584L75.5 79.5ZM106 79.5L105.942 79.7431L106 79.5ZM153.5 124L153.72 123.88L153.714 123.87L153.708 123.861L153.5 124ZM159.5 132.5L159.639 132.292L159.5 132.5ZM195.5 141L195.388 141.224L195.5 141ZM224 168.5L224.24 168.571L224 168.5ZM192 209.5L191.867 209.288L191.71 209.387L191.759 209.566L192 209.5ZM223 262L222.858 262.206L223.209 261.863L223 262ZM173 256L172.888 255.776H172.888L173 256ZM158 264L157.861 263.792L158 264ZM146.5 265.5L146.465 265.747L146.5 265.5ZM130 260L129.981 259.751L130 260ZM114.5 265.5L114.379 265.281L114.371 265.286L114.364 265.29L114.5 265.5ZM106 271L106.088 271.234L106.113 271.225L106.136 271.21L106 271ZM93.5 249.5L93.7432 249.441L93.7412 249.434L93.5 249.5ZM90.5 238.5L90.2576 238.561L90.2589 238.566L90.5 238.5ZM75.5 239.5L75.6899 239.337L75.5 239.5ZM68 230L68.2048 229.857L68.2003 229.85L68.1953 229.844L68 230ZM51 185L50.7519 184.969L50.7514 184.974L51 185ZM66 159L66.18 159.174L66.289 159.06L66.2345 158.913L66 159ZM55.5 124L55.2505 124.016L55.5 124ZM54.5 100.5L54.2525 100.465L54.5 100.5ZM170 139.5L170.112 139.276L170.059 139.25H170V139.5ZM179 152L178.752 152.029L179 152ZM178 202.5L177.792 202.639L178.041 203.013L178.228 202.603L178 202.5ZM158 163L157.753 163.036L157.753 163.04L158 163ZM85.5 192L85.6387 191.792L85.6308 191.787L85.6226 191.782L85.5 192ZM71.5 190L71.6673 190.186L71.5 190ZM81.5 239.5L81.3354 239.688L81.5114 239.842L81.6768 239.677L81.5 239.5ZM88.5 204.5L88.7495 204.483L88.7491 204.478L88.5 204.5ZM75.5 83.5L75.4286 83.2603L75.421 83.2628L75.5 83.5ZM130 138H129.75L129.75 138.01L130 138ZM117 167L117.052 167.244L117 167ZM77.5 163L77.3373 163.19L77.5 163ZM59.5 126L59.2547 126.048L59.2563 126.056L59.2585 126.065L59.5 126ZM59.5 96.5L59.7056 96.6423L59.5 96.5ZM184.663 138.255L184.751 138.021L184.663 138.255ZM196.206 141.265L196.291 141.03L196.206 141.265ZM147.628 265.673L147.589 265.92L147.628 265.673ZM141.584 263.473L141.471 263.696L141.584 263.473ZM54.9033 117.016L54.6544 117.04L54.9033 117.016ZM55.3453 206.346L55.1257 206.466L55.1959 206.595L55.3427 206.596L55.3453 206.346ZM172.314 256.335L172.423 256.559H172.423L172.314 256.335ZM172.33 256.327L172.221 256.102L172.33 256.327ZM75.5411 79.7466C81.5339 78.7478 95.9926 77.3553 105.942 79.7431L106.058 79.2569C96.0075 76.8447 81.4661 78.2522 75.4589 79.2534L75.5411 79.7466ZM105.942 79.7431C112.165 81.2367 117.876 83.2227 125.088 89.3776C132.311 95.5426 141.046 105.895 153.292 124.139L153.708 123.861C141.454 105.605 132.689 95.2073 125.412 88.9973C118.124 82.7772 112.335 80.7632 106.058 79.2569L105.942 79.7431ZM153.281 124.12C156.275 129.61 157.802 131.668 159.361 132.708L159.639 132.292C158.198 131.332 156.725 129.39 153.72 123.88L153.281 124.12ZM223.76 168.429C221.428 176.286 215.704 185.089 209.423 192.644C203.143 200.199 196.336 206.475 191.867 209.288L192.133 209.712C196.664 206.859 203.511 200.539 209.808 192.964C216.104 185.389 221.879 176.525 224.24 168.571L223.76 168.429ZM191.759 209.566C192.475 212.178 194.116 215.759 196.328 219.902C198.542 224.049 201.338 228.775 204.375 233.682C210.448 243.493 217.493 254.04 222.791 262.137L223.209 261.863C217.907 253.76 210.869 243.223 204.8 233.418C201.766 228.516 198.976 223.801 196.769 219.667C194.559 215.528 192.942 211.989 192.241 209.434L191.759 209.566ZM223.142 261.794C222.109 261.084 220.562 260.458 218.666 259.903C216.765 259.346 214.493 258.856 211.996 258.426C207 257.564 201.085 256.939 195.394 256.501C189.702 256.063 184.229 255.813 180.116 255.703C178.06 255.648 176.342 255.629 175.105 255.639C174.488 255.644 173.988 255.656 173.625 255.675C173.444 255.684 173.294 255.696 173.18 255.709C173.122 255.716 173.07 255.724 173.026 255.733C172.988 255.74 172.935 255.753 172.888 255.776L173.112 256.224C173.096 256.231 173.095 256.229 173.126 256.223C173.151 256.218 173.188 256.212 173.238 256.206C173.337 256.194 173.475 256.183 173.652 256.174C174.003 256.156 174.495 256.144 175.109 256.139C176.338 256.129 178.05 256.148 180.103 256.203C184.208 256.312 189.673 256.562 195.356 256.999C201.04 257.436 206.937 258.061 211.911 258.918C214.398 259.347 216.649 259.833 218.525 260.383C220.406 260.933 221.891 261.541 222.858 262.206L223.142 261.794ZM129.981 259.751C127.343 259.954 124.191 260.923 121.334 262.042C118.473 263.163 115.888 264.443 114.379 265.281L114.621 265.719C116.112 264.89 118.677 263.62 121.516 262.508C124.359 261.394 127.457 260.446 130.019 260.249L129.981 259.751ZM114.364 265.29L105.864 270.79L106.136 271.21L114.636 265.71L114.364 265.29ZM105.912 270.766C104.596 271.26 102.609 271.747 100.918 271.626C100.073 271.565 99.3263 271.354 98.7714 270.94C98.2253 270.533 97.8424 269.912 97.7488 268.975L97.2513 269.025C97.3576 270.088 97.804 270.842 98.4724 271.341C99.1321 271.833 99.9849 272.06 100.882 272.124C102.674 272.253 104.737 271.74 106.088 271.234L105.912 270.766ZM97.7488 268.975C97.3467 264.954 94.9081 254.268 93.7431 249.441L93.257 249.559C94.4253 254.399 96.8534 265.046 97.2513 269.025L97.7488 268.975ZM93.7412 249.434L90.7412 238.434L90.2589 238.566L93.2589 249.566L93.7412 249.434ZM90.7424 238.439C90.2411 236.454 89.7562 235.111 89.2675 234.273C88.7839 233.444 88.2439 233.029 87.619 233.107C87.3234 233.144 87.0456 233.29 86.7862 233.493C86.526 233.697 86.2699 233.971 86.0163 234.286C85.5102 234.914 84.9862 235.744 84.4392 236.603C83.8883 237.468 83.3103 238.368 82.6864 239.161C82.0614 239.955 81.403 240.623 80.6987 241.036C80.0017 241.444 79.2644 241.6 78.458 241.38C77.6418 241.158 76.7224 240.542 75.6899 239.337L75.3102 239.663C76.3777 240.908 77.377 241.604 78.3265 241.862C79.2857 242.124 80.1609 241.93 80.9514 241.467C81.7345 241.009 82.4387 240.284 83.0793 239.47C83.721 238.655 84.3118 237.734 84.8609 236.872C85.4139 236.004 85.9211 235.201 86.4057 234.599C86.6474 234.299 86.8764 234.058 87.0948 233.887C87.3139 233.715 87.5079 233.624 87.681 233.603C87.9937 233.564 88.3787 233.742 88.8357 234.525C89.2876 235.3 89.759 236.587 90.2577 238.561L90.7424 238.439ZM75.6899 239.337C73.2936 236.542 69.3656 231.515 68.2048 229.857L67.7952 230.143C68.9678 231.818 72.9065 236.858 75.3102 239.663L75.6899 239.337ZM51.2481 185.031C51.8411 180.287 54.4414 174.992 57.4727 170.285C60.5006 165.584 63.9402 161.496 66.18 159.174L65.8201 158.826C63.5599 161.17 60.0995 165.283 57.0523 170.015C54.0087 174.741 51.359 180.113 50.752 184.969L51.2481 185.031ZM66.2345 158.913C64.5688 154.416 62.0452 147.27 59.8884 140.45C58.8099 137.039 57.8239 133.713 57.0827 130.841C56.3403 127.964 55.8479 125.559 55.7495 123.984L55.2505 124.016C55.3521 125.641 55.8556 128.086 56.5986 130.966C57.3428 133.85 58.3318 137.186 59.4117 140.6C61.5715 147.43 64.0979 154.584 65.7656 159.087L66.2345 158.913ZM54.7475 100.535C55.735 93.6232 60.6719 83.7128 75.5645 79.7415L75.4356 79.2584C60.3281 83.287 55.2651 93.3768 54.2525 100.465L54.7475 100.535ZM169.888 139.724C172.516 141.038 177.966 145.347 178.752 152.029L179.248 151.971C178.434 145.053 172.817 140.629 170.112 139.276L169.888 139.724ZM178.752 152.029C179.251 156.275 180.25 166.142 180.5 176.319C180.625 181.407 180.562 186.569 180.157 191.142C179.752 195.721 179.004 199.686 177.772 202.397L178.228 202.603C179.496 199.814 180.248 195.779 180.655 191.186C181.063 186.587 181.125 181.405 181 176.306C180.75 166.108 179.749 156.225 179.248 151.971L178.752 152.029ZM178.208 202.361C175.014 197.57 170.351 189.744 166.321 182.096C164.306 178.272 162.451 174.496 161.017 171.168C159.581 167.835 158.575 164.969 158.247 162.96L157.753 163.04C158.092 165.114 159.119 168.028 160.558 171.366C161.999 174.71 163.86 178.499 165.879 182.329C169.916 189.99 174.587 197.83 177.792 202.639L178.208 202.361ZM158.247 162.964C157.832 160.136 157.333 155.771 157.187 151.866C157.115 149.912 157.131 148.082 157.288 146.62C157.366 145.889 157.479 145.257 157.631 144.752C157.784 144.241 157.97 143.884 158.177 143.677L157.823 143.323C157.53 143.616 157.315 144.067 157.152 144.608C156.988 145.154 156.871 145.819 156.791 146.567C156.63 148.064 156.615 149.921 156.688 151.884C156.834 155.813 157.335 160.197 157.753 163.036L158.247 162.964ZM158.177 143.677C159.42 142.433 160.516 141.463 162.216 140.795C163.924 140.124 166.263 139.75 170 139.75V139.25C166.237 139.25 163.826 139.626 162.034 140.33C160.235 141.037 159.08 142.067 157.823 143.323L158.177 143.677ZM85.6226 191.782C84.2906 191.033 81.7671 189.619 79.0688 188.847C76.382 188.079 73.4336 187.923 71.3328 189.814L71.6673 190.186C73.5665 188.477 76.2848 188.571 78.9313 189.328C81.5663 190.081 84.0428 191.467 85.3775 192.218L85.6226 191.782ZM71.3328 189.814C68.8312 192.066 67.304 193.714 66.4699 195.189C65.6248 196.685 65.4956 197.994 65.7534 199.541L66.2466 199.459C66.0044 198.006 66.1252 196.815 66.9052 195.436C67.696 194.036 69.1688 192.434 71.6673 190.186L71.3328 189.814ZM65.7534 199.541C66.006 201.057 67.8845 209.319 70.6995 218.077C72.1074 222.457 73.7517 226.967 75.5468 230.824C77.3381 234.673 79.2935 237.902 81.3354 239.688L81.6647 239.312C79.7066 237.598 77.787 234.452 76.0001 230.613C74.2172 226.783 72.5802 222.293 71.1755 217.923C68.3655 209.181 66.494 200.943 66.2466 199.459L65.7534 199.541ZM81.6768 239.677C82.1095 239.244 82.5443 238.515 82.9741 237.578C83.4068 236.636 83.8447 235.461 84.2756 234.117C85.1376 231.429 85.9773 228.051 86.6951 224.474C88.1296 217.327 89.0851 209.35 88.7494 204.483L88.2506 204.517C88.5816 209.316 87.6371 217.24 86.2049 224.376C85.4895 227.941 84.6541 231.3 83.7995 233.964C83.3721 235.297 82.9412 236.451 82.5197 237.37C82.0954 238.294 81.6906 238.956 81.3233 239.323L81.6768 239.677ZM88.7491 204.478C88.6678 203.543 88.7366 202.503 88.815 201.397C88.8929 200.299 88.9798 199.141 88.9247 198C88.8141 195.706 88.1266 193.451 85.6387 191.792L85.3614 192.208C87.6734 193.749 88.3193 195.827 88.4253 198.025C88.4786 199.13 88.3947 200.257 88.3163 201.362C88.2384 202.46 88.1656 203.54 88.251 204.522L88.7491 204.478ZM75.5714 83.7396C83.3423 81.4249 101.982 80.9615 114.299 97.6485L114.701 97.3515C102.218 80.4385 83.3245 80.9085 75.4287 83.2604L75.5714 83.7396ZM114.299 97.6485C126.666 114.404 129.75 131.551 129.75 138H130.25C130.25 131.449 127.134 114.196 114.701 97.3515L114.299 97.6485ZM129.75 138.01C129.916 142.323 129.467 148.942 127.587 154.773C125.703 160.616 122.412 165.585 116.948 166.756L117.052 167.244C122.788 166.015 126.164 160.817 128.063 154.927C129.966 149.025 130.417 142.344 130.25 137.99L129.75 138.01ZM116.948 166.756C109.951 168.255 102.726 169.499 95.9467 169.25C89.1711 169.002 82.857 167.262 77.6627 162.81L77.3373 163.19C82.6431 167.738 89.0789 169.498 95.9284 169.75C102.774 170.001 110.049 168.745 117.052 167.244L116.948 166.756ZM77.6627 162.81C73.5096 159.25 69.6532 152.381 66.5166 145.2C63.3849 138.03 60.9888 130.592 59.7415 125.935L59.2585 126.065C60.5113 130.741 62.9152 138.204 66.0584 145.4C69.1968 152.585 73.0904 159.55 77.3373 163.19L77.6627 162.81ZM59.7454 125.952C58.9971 122.128 58.0991 116.065 57.8373 110.314C57.7064 107.438 57.7349 104.646 58.0186 102.254C58.3033 99.8547 58.8414 97.8906 59.7056 96.6423L59.2945 96.3577C58.3587 97.7094 57.8093 99.7745 57.5221 102.196C57.234 104.625 57.2062 107.446 57.3378 110.336C57.601 116.118 58.503 122.206 59.2547 126.048L59.7454 125.952ZM59.7056 96.6423C61.9588 93.3876 63.6925 90.9133 65.9789 88.8741C68.2594 86.8401 71.1017 85.2297 75.5791 83.7372L75.421 83.2628C70.8984 84.7703 67.9907 86.4099 65.6461 88.5009C63.3076 90.5867 61.5413 93.1124 59.2945 96.3577L59.7056 96.6423ZM159.361 132.708C159.458 132.772 159.604 132.824 159.764 132.871C159.933 132.92 160.147 132.971 160.4 133.025C160.906 133.132 161.583 133.253 162.395 133.391C164.021 133.667 166.193 134.012 168.65 134.455C173.564 135.341 179.592 136.613 184.575 138.489L184.751 138.021C179.723 136.128 173.658 134.849 168.738 133.963C166.278 133.52 164.098 133.173 162.479 132.898C161.667 132.76 160.999 132.641 160.503 132.535C160.256 132.483 160.055 132.435 159.904 132.391C159.743 132.344 159.665 132.309 159.639 132.292L159.361 132.708ZM184.575 138.489C187.259 139.499 189.895 140.145 191.901 140.56C192.905 140.768 193.751 140.918 194.367 141.026C194.676 141.081 194.924 141.124 195.106 141.16C195.197 141.178 195.268 141.193 195.32 141.205C195.381 141.22 195.395 141.227 195.388 141.224L195.612 140.776C195.561 140.751 195.495 140.733 195.439 140.72C195.375 140.704 195.295 140.687 195.201 140.669C195.014 140.633 194.76 140.588 194.454 140.534C193.839 140.425 192.998 140.276 192.003 140.07C190.011 139.658 187.402 139.019 184.751 138.021L184.575 138.489ZM195.388 141.224C195.44 141.249 195.534 141.286 195.648 141.328C195.769 141.373 195.928 141.431 196.121 141.5L196.291 141.03C196.097 140.96 195.94 140.903 195.823 140.86C195.699 140.814 195.634 140.788 195.612 140.776L195.388 141.224ZM196.121 141.5C196.744 141.726 197.75 141.982 198.999 142.297C200.255 142.613 201.772 142.993 203.435 143.466C206.762 144.412 210.665 145.73 214.212 147.662C217.761 149.594 220.935 152.13 222.828 155.502C224.716 158.865 225.346 163.087 223.76 168.429L224.24 168.571C225.859 163.114 225.226 158.751 223.264 155.257C221.307 151.772 218.044 149.179 214.451 147.223C210.857 145.265 206.914 143.935 203.572 142.985C201.9 142.509 200.376 142.128 199.121 141.812C197.86 141.494 196.885 141.245 196.291 141.03L196.121 141.5ZM172.2 256.112C169.716 257.318 161.846 261.136 157.861 263.792L158.139 264.208C162.088 261.575 169.921 257.774 172.418 256.562L172.2 256.112ZM157.861 263.792C153.929 266.414 150.793 265.92 147.667 265.426L147.589 265.92C150.732 266.417 154.037 266.942 158.139 264.208L157.861 263.792ZM147.667 265.426C147.291 265.366 146.913 265.306 146.535 265.253L146.465 265.747C146.838 265.801 147.212 265.86 147.589 265.92L147.667 265.426ZM146.535 265.253C145.927 265.166 145.209 264.916 144.389 264.559C143.572 264.202 142.671 263.745 141.697 263.251L141.471 263.696C142.441 264.189 143.356 264.653 144.189 265.017C145.021 265.38 145.789 265.651 146.465 265.747L146.535 265.253ZM141.697 263.251C138.358 261.556 134.178 259.428 129.981 259.751L130.019 260.249C134.052 259.939 138.102 261.987 141.471 263.696L141.697 263.251ZM55.7495 123.984C55.6053 121.677 55.3782 119.329 55.1521 116.992L54.6544 117.04C54.8806 119.379 55.1069 121.718 55.2505 124.016L55.7495 123.984ZM55.1521 116.992C54.5917 111.199 54.0404 105.485 54.7475 100.535L54.2525 100.465C53.5353 105.486 54.0956 111.264 54.6544 117.04L55.1521 116.992ZM172.418 256.562L172.423 256.56L172.205 256.11L172.2 256.112L172.418 256.562ZM172.205 256.11C172.204 256.11 172.204 256.11 172.203 256.111C172.202 256.111 172.201 256.112 172.2 256.112L172.418 256.562C172.419 256.562 172.419 256.561 172.42 256.561C172.421 256.561 172.422 256.56 172.423 256.559L172.205 256.11ZM172.888 255.776C172.774 255.834 172.546 255.944 172.221 256.102L172.439 256.552C172.762 256.395 172.994 256.282 173.112 256.224L172.888 255.776ZM172.221 256.102L172.205 256.11L172.423 256.559L172.439 256.552L172.221 256.102ZM172.423 256.559C172.436 256.553 172.427 256.558 172.439 256.552L172.221 256.102C172.218 256.103 172.216 256.104 172.213 256.106C172.21 256.107 172.208 256.108 172.205 256.11L172.423 256.559ZM55.5649 206.227C53.4815 202.399 52.1686 199.348 51.4919 196.136C50.8154 192.924 50.7716 189.534 51.2486 185.026L50.7514 184.974C50.2713 189.51 50.3115 192.957 51.0027 196.239C51.6937 199.52 53.0321 202.62 55.1257 206.466L55.5649 206.227ZM68.1953 229.844C67.991 229.588 67.6441 229.031 67.1856 228.232C66.7306 227.44 66.1746 226.424 65.5542 225.266C64.3137 222.948 62.8192 220.061 61.3678 217.241C59.917 214.422 58.5089 211.669 57.4426 209.621C56.9095 208.597 56.4609 207.748 56.1345 207.154C55.9715 206.857 55.8374 206.621 55.7377 206.458C55.6884 206.377 55.6445 206.309 55.6079 206.26C55.5903 206.236 55.5693 206.209 55.5466 206.186C55.5355 206.175 55.5179 206.158 55.4948 206.143C55.4779 206.131 55.4245 206.097 55.3479 206.096L55.3427 206.596C55.2714 206.595 55.2246 206.564 55.2155 206.558C55.2002 206.547 55.1916 206.538 55.1908 206.538C55.1886 206.535 55.193 206.54 55.2054 206.556C55.2289 206.588 55.2639 206.642 55.3111 206.719C55.4046 206.872 55.5342 207.099 55.6962 207.394C56.0198 207.983 56.4663 208.829 56.9991 209.852C58.0647 211.898 59.4714 214.649 60.9233 217.47C62.3746 220.29 63.8707 223.18 65.1134 225.501C65.7347 226.662 66.2934 227.682 66.7519 228.481C67.207 229.274 67.5724 229.866 67.8048 230.156L68.1953 229.844Z" fill="black"/>
<path d="M215.398 117.969C231.422 108.17 250.089 96.781 256.88 92.6587C263.67 88.536 269.489 85.277 269.811 85.4149C270.132 85.5527 271.502 87.4296 272.854 89.5861C274.206 91.7427 275.24 93.6761 275.152 93.882C275.064 94.0888 254.536 106.779 229.533 122.083L40.1982 237.843C35.4349 240.875 31.0419 243.13 30.4366 242.855C29.8321 242.579 28.4194 240.564 27.2971 238.377L25.2574 234.399L37.2278 227.046L215.398 117.969Z" fill="#744B22"/>
<path d="M257.129 105.51C257.023 105.254 261.007 102.601 265.984 99.612L274.906 94.1248L280.708 101.444C283.429 105.27 287.838 112.497 290.507 117.508C293.175 122.519 296.528 130.224 297.958 134.631C299.388 139.038 301.196 145.926 301.976 149.939C302.756 153.95 303.495 160.875 303.618 165.328C303.742 169.781 303.388 176.411 302.831 180.061C302.274 183.712 300.672 189.88 299.272 193.767C297.122 199.732 296.655 200.488 296.279 198.61C296.034 197.387 294.878 191.017 293.711 184.455C292.544 177.895 289.936 167.038 287.913 160.33C285.892 153.622 282.17 143.783 279.642 138.466C277.114 133.148 272.976 125.719 270.446 121.956L257.129 105.51Z" fill="#F8F7EB"/>
<path d="M139.855 284.898C140.421 283.919 138.335 267.615 138.039 262C136.597 262.8 129.039 257.957 125.574 262.569C125.695 264.952 128.988 284.911 129.195 285.684C129.403 286.457 130.121 287.852 130.455 288.453C130.455 288.453 133.482 288.159 133.612 288.642C133.741 289.125 135.802 289.09 137.251 288.702C138.7 288.314 139.148 286.123 139.855 284.898Z" fill="#F2F2F2"/>
<path d="M140.348 292.531L136.544 289.927C134.998 290.341 131.927 289.439 130.101 289.065C129.779 289.151 129.065 289.446 128.782 289.936C128.428 290.549 122.598 290.04 116.578 292.688C111.763 294.807 110.668 297.033 110.369 298.493C110.231 299.911 111.808 300.385 113.561 300.744C115.751 301.192 124.574 299.346 128.084 298.923C130.615 298.618 140.84 300.164 141.676 299.422C142.346 298.829 141.713 294.408 140.348 292.531Z" fill="#F2F2F2"/>
<path d="M163.549 145.668C166.785 146.017 170.125 146.306 170.969 146.311C171.812 146.316 173.297 146.442 174.268 146.591C175.239 146.74 177.347 147.787 178.954 148.917C180.763 150.191 182.098 152.233 182.461 154.283C182.813 156.267 182.484 158.917 181.642 160.893C180.767 162.945 179.16 164.6 177.389 165.272C175.823 165.866 170.531 165.975 165.629 165.515C160.652 165.046 155.818 164.104 154.677 163.381C153.553 162.668 152.09 160.948 151.423 159.558C150.712 158.074 150.585 155.298 151.116 152.833C151.792 149.702 152.739 148.175 154.842 146.833C156.892 145.526 159.27 145.207 163.549 145.668Z" fill="#F2F2F2"/>
<path d="M93.5493 160.806C92.2565 160.56 90.966 159.327 90.5239 157.917C89.7584 155.475 89.8217 155.435 99.2352 152.485C107.176 149.996 108.797 149.767 109.208 151.076C109.477 151.935 109.505 153.653 109.269 154.893C108.913 156.769 107.745 157.491 102.322 159.19C98.7371 160.314 94.7893 161.041 93.5493 160.806Z" fill="#F2F2F2"/>
<path fill-rule="evenodd" clip-rule="evenodd" d="M71.929 105.725C72.6799 104.448 74.8078 102.228 76.6583 100.791C78.7088 99.198 82.2913 97.6455 85.8334 96.8138C89.0302 96.0629 94.4623 95.8052 97.9067 96.2395C102.407 96.8077 105.336 97.9834 108.324 100.418C112.116 103.508 112.704 104.557 115.049 112.383C116.462 117.102 117.686 123.03 117.769 125.555C117.858 128.27 117.173 130.93 116.091 132.06C115.084 133.112 112.317 134.851 109.94 135.925C106.094 137.663 105.679 138.19 106.164 140.721L106.708 143.565L97.8603 146.338C89.4449 148.976 88.9623 149.007 87.9904 146.965C87.1686 145.242 86.2114 144.989 83.1271 145.683C79.8643 146.416 79.1759 146.193 78.5484 144.19C77.984 142.39 78.4606 141.462 80.5733 140.253C82.093 139.383 84.0488 136.967 84.9195 134.883C85.8184 132.732 86.1091 129.84 85.5926 128.192L84.6829 125.29L78.8901 127.793L73.0974 130.295L71.1181 123.98C69.7701 119.679 69.3663 116.131 69.8514 112.856C70.2436 110.211 71.1781 107.002 71.929 105.725ZM105.711 118.704C107.205 118.988 108.297 120.189 108.947 122.262C109.486 123.984 109.441 126.447 108.848 127.735C108.254 129.024 106.46 130.489 104.862 130.989C103.264 131.49 101.017 131.721 99.8681 131.503C98.7187 131.285 96.7828 130.288 95.5675 129.289C94.3508 128.289 92.7366 126.584 91.9797 125.501C90.7299 123.713 90.9879 123.372 94.7735 121.803C97.0668 120.852 99.9585 119.669 101.2 119.175C102.441 118.681 104.471 118.468 105.711 118.704ZM95.8386 139.898C95.5886 139.101 94.5045 137.467 93.4284 136.269C92.3533 135.07 91.1683 134.185 90.796 134.302C90.4237 134.418 89.9557 135.821 89.7572 137.419C89.5577 139.018 89.5997 140.978 89.8497 141.775C90.1462 142.721 91.3453 142.899 93.2987 142.287C95.2521 141.675 96.1352 140.844 95.8386 139.898Z" fill="#F2F2F2"/>
<path d="M75.0865 202.137C75.2553 200.645 76.1488 198.436 77.0708 197.229C78.2683 195.664 80.5825 194.454 85.1595 193.002C88.685 191.884 93.0631 190.798 94.8873 190.588C96.7114 190.379 99.5555 190.718 101.208 191.342C103.359 192.154 104.635 193.496 105.703 196.07C106.523 198.046 107.094 200.689 106.971 201.942C106.847 203.197 105.626 205.35 104.256 206.73C102.333 208.667 100.231 209.637 95.0156 210.993C91.3023 211.959 86.723 212.871 84.8386 213.019C82.8162 213.178 80.4014 212.436 78.9444 211.207C77.5863 210.064 76.0939 208.166 75.627 206.991C75.1606 205.815 74.9172 203.631 75.0865 202.137Z" fill="#F2F2F2"/>
<path d="M167.214 270.751C166.175 270.151 159.901 265.671 158.419 264.238C159.419 262.505 166.342 260.024 166.342 260.024C170.461 263.557 175.295 263.754 176.227 266.14C177.392 269.122 174.593 270.97 172.727 272.202C170.861 273.434 168.513 271.501 167.214 270.751Z" fill="#F2F2F2"/>
<path d="M173.142 276.483C173.742 275.444 172.616 274.062 171.977 273.501C176.402 271.437 177.354 268.522 177.276 267.323L178.825 267.64C179.425 267.601 181.034 267.414 182.673 266.975C184.313 266.536 184.71 269.113 184.705 270.457L182.705 273.921C181.705 275.653 180.187 282.282 179.437 283.581C178.837 284.62 175.841 292.475 174.419 296.272C174.085 296.85 172.899 297.705 170.821 296.505C168.222 295.005 168.173 292.089 168.24 290.973C168.307 289.857 172.392 277.782 173.142 276.483Z" fill="#F2F2F2"/>
</g>
<defs>
<clipPath id="clip0_3_236">
<rect width="317" height="301" fill="white"/>
</clipPath>
</defs>
</svg>
