<svg width="317" height="301" viewBox="0 0 317 301" fill="none" xmlns="http://www.w3.org/2000/svg">
<path d="M119.382 77.099C126.215 86.9323 128.541 101.965 126.882 127C124.897 156.952 98.382 154 91.882 153.5C76.5487 151 68.082 137.1 64.882 129.5C60.882 120 62.882 86.599 67.882 77.099C72.882 67.599 75.9999 66.3299 77.382 65.562C81.882 63.062 94.772 63.562 100.272 65.562C104.672 67.162 114.215 69.9323 119.382 77.099Z" fill="#212121"/>
<path d="M79.382 184.5C77.5487 181.833 71.882 177.2 63.882 180C55.882 182.8 55.898 200.5 56.906 209L60.882 231.5C63.9347 227.431 71.1084 217.235 75.382 209C80.724 198.706 81.882 188 79.382 184.5Z" fill="#212121"/>
<path d="M139.382 142.5C141.909 142.035 146.114 142.967 149.172 145.553C153.394 149.123 153.45 153.62 154.382 159.069C156.195 169.672 150.882 186.5 150.882 186.5C150.882 186.5 147.31 199.977 146.765 201.966C143.137 196.144 134.169 183.511 133.382 170C132.743 159.027 131.382 145 139.382 142.5Z" fill="#212121"/>
<mask id="path-2-inside-1_3_234" fill="white">
<path fill-rule="evenodd" clip-rule="evenodd" d="M149.172 110.198L146.765 103.051C145.442 99.12 142.749 92.707 140.782 88.8C138.758 84.783 135.134 79.699 132.438 77.099C129.817 74.569 125.128 70.98 122.019 69.123C118.909 67.265 113.331 64.626 109.624 63.257C105.058 61.572 99.977 60.608 93.882 60.269C88.502 59.971 83.15 60.24 80.575 60.939C78.207 61.582 74.548 63.662 72.445 65.562C70.342 67.462 67.612 71.363 66.378 74.231C65.144 77.099 63.254 83.508 62.178 88.473C60.58 95.844 60.12 102.967 59.669 127.293L59.117 157.085L56.5 158.453C55.06 159.206 52.671 161.099 51.191 162.661C49.711 164.222 47.583 167.525 46.463 170C45.343 172.475 44.416 176.393 44.404 178.706C44.392 181.02 45.519 190.02 46.908 198.706C48.298 207.393 50.351 217.288 51.472 220.696C52.592 224.104 54.429 228.061 55.553 229.49C57.237 231.631 57.475 232.897 56.906 236.691C56.2939 245.388 57.6521 249.23 63.882 253.768C65.532 254.165 68.716 254.482 70.957 254.473C73.437 254.464 77.873 253.148 82.291 251.112C87.883 248.534 90.367 247.898 93.106 248.343C95.062 248.66 98.287 250.085 100.272 251.51C102.258 252.934 106.132 255.702 108.882 257.661L113.882 261.223L121.882 260.424C126.282 259.985 134.157 259.61 139.382 259.592C147.881 259.562 149.659 259.893 156.258 262.735L163.633 265.911L162.994 257.206C162.643 252.418 161.917 240.499 161.38 230.721L160.405 212.941L175.851 197.721C187.859 185.888 191.861 181.276 193.83 177C195.415 173.558 196.366 169.704 196.372 166.7C196.378 164.061 195.723 160.627 194.918 159.069C194.113 157.512 192.034 155.043 190.298 153.583C188.562 152.122 185.734 150.198 184.012 149.306C182.291 148.414 175.313 146.199 168.507 144.383C161.7 142.568 156.046 140.951 155.942 140.791C155.838 140.631 155.071 136.797 154.238 132.271L152.722 124.042L149.172 110.198ZM119.382 77.099C126.215 86.9323 128.541 101.965 126.882 127C124.897 156.952 98.382 154 91.882 153.5C76.5487 151 68.082 137.1 64.882 129.5C60.882 120 62.882 86.599 67.882 77.099C72.882 67.599 75.9999 66.3299 77.382 65.562C81.882 63.062 94.772 63.562 100.272 65.562C104.672 67.162 114.215 69.9323 119.382 77.099ZM139.382 142.5C141.909 142.035 146.114 142.967 149.172 145.553C153.394 149.123 153.45 153.62 154.382 159.069C156.195 169.672 150.882 186.5 150.882 186.5C150.882 186.5 147.31 199.977 146.765 201.966C143.137 196.144 134.169 183.511 133.382 170C132.743 159.027 131.382 145 139.382 142.5ZM63.882 180C71.882 177.2 77.5487 181.833 79.382 184.5C81.882 188 80.724 198.706 75.382 209C71.1084 217.235 63.9347 227.431 60.882 231.5L56.906 209C55.898 200.5 55.882 182.8 63.882 180Z"/>
</mask>
<path fill-rule="evenodd" clip-rule="evenodd" d="M149.172 110.198L146.765 103.051C145.442 99.12 142.749 92.707 140.782 88.8C138.758 84.783 135.134 79.699 132.438 77.099C129.817 74.569 125.128 70.98 122.019 69.123C118.909 67.265 113.331 64.626 109.624 63.257C105.058 61.572 99.977 60.608 93.882 60.269C88.502 59.971 83.15 60.24 80.575 60.939C78.207 61.582 74.548 63.662 72.445 65.562C70.342 67.462 67.612 71.363 66.378 74.231C65.144 77.099 63.254 83.508 62.178 88.473C60.58 95.844 60.12 102.967 59.669 127.293L59.117 157.085L56.5 158.453C55.06 159.206 52.671 161.099 51.191 162.661C49.711 164.222 47.583 167.525 46.463 170C45.343 172.475 44.416 176.393 44.404 178.706C44.392 181.02 45.519 190.02 46.908 198.706C48.298 207.393 50.351 217.288 51.472 220.696C52.592 224.104 54.429 228.061 55.553 229.49C57.237 231.631 57.475 232.897 56.906 236.691C56.2939 245.388 57.6521 249.23 63.882 253.768C65.532 254.165 68.716 254.482 70.957 254.473C73.437 254.464 77.873 253.148 82.291 251.112C87.883 248.534 90.367 247.898 93.106 248.343C95.062 248.66 98.287 250.085 100.272 251.51C102.258 252.934 106.132 255.702 108.882 257.661L113.882 261.223L121.882 260.424C126.282 259.985 134.157 259.61 139.382 259.592C147.881 259.562 149.659 259.893 156.258 262.735L163.633 265.911L162.994 257.206C162.643 252.418 161.917 240.499 161.38 230.721L160.405 212.941L175.851 197.721C187.859 185.888 191.861 181.276 193.83 177C195.415 173.558 196.366 169.704 196.372 166.7C196.378 164.061 195.723 160.627 194.918 159.069C194.113 157.512 192.034 155.043 190.298 153.583C188.562 152.122 185.734 150.198 184.012 149.306C182.291 148.414 175.313 146.199 168.507 144.383C161.7 142.568 156.046 140.951 155.942 140.791C155.838 140.631 155.071 136.797 154.238 132.271L152.722 124.042L149.172 110.198ZM119.382 77.099C126.215 86.9323 128.541 101.965 126.882 127C124.897 156.952 98.382 154 91.882 153.5C76.5487 151 68.082 137.1 64.882 129.5C60.882 120 62.882 86.599 67.882 77.099C72.882 67.599 75.9999 66.3299 77.382 65.562C81.882 63.062 94.772 63.562 100.272 65.562C104.672 67.162 114.215 69.9323 119.382 77.099ZM139.382 142.5C141.909 142.035 146.114 142.967 149.172 145.553C153.394 149.123 153.45 153.62 154.382 159.069C156.195 169.672 150.882 186.5 150.882 186.5C150.882 186.5 147.31 199.977 146.765 201.966C143.137 196.144 134.169 183.511 133.382 170C132.743 159.027 131.382 145 139.382 142.5ZM63.882 180C71.882 177.2 77.5487 181.833 79.382 184.5C81.882 188 80.724 198.706 75.382 209C71.1084 217.235 63.9347 227.431 60.882 231.5L56.906 209C55.898 200.5 55.882 182.8 63.882 180Z" fill="#2D2C2B"/>
<path d="M149.172 110.198L149.656 110.074C149.653 110.062 149.65 110.05 149.646 110.038L149.172 110.198ZM146.765 103.051L146.291 103.21L146.291 103.211L146.765 103.051ZM140.782 88.8L141.229 88.5752L141.229 88.575L140.782 88.8ZM132.438 77.099L132.091 77.4587L132.091 77.4589L132.438 77.099ZM122.019 69.123L121.763 69.5522L121.763 69.5523L122.019 69.123ZM109.624 63.257L109.797 62.788L109.797 62.7879L109.624 63.257ZM93.882 60.269L93.9098 59.7698L93.9097 59.7698L93.882 60.269ZM80.575 60.939L80.444 60.4565L80.444 60.4565L80.575 60.939ZM62.178 88.473L62.6667 88.5789L62.6667 88.5789L62.178 88.473ZM59.669 127.293L59.1691 127.284V127.284L59.669 127.293ZM59.117 157.085L59.3487 157.528C59.5107 157.443 59.6136 157.277 59.6169 157.094L59.117 157.085ZM56.5 158.453L56.2684 158.01L56.2683 158.01L56.5 158.453ZM51.191 162.661L51.5539 163.005L51.554 163.005L51.191 162.661ZM44.404 178.706L43.904 178.703L44.404 178.706ZM46.908 198.706L46.4143 198.785L46.4143 198.785L46.908 198.706ZM51.472 220.696L51.947 220.54L51.947 220.54L51.472 220.696ZM55.553 229.49L55.946 229.181H55.946L55.553 229.49ZM56.906 236.691L56.4116 236.617C56.4096 236.63 56.4082 236.643 56.4073 236.656L56.906 236.691ZM63.882 253.768L63.5876 254.172C63.6408 254.211 63.7011 254.239 63.7651 254.254L63.882 253.768ZM70.957 254.473L70.9552 253.973H70.955L70.957 254.473ZM82.291 251.112L82.5003 251.566L82.5004 251.566L82.291 251.112ZM93.106 248.343L93.0258 248.837L93.026 248.837L93.106 248.343ZM100.272 251.51L99.9804 251.916L99.9807 251.916L100.272 251.51ZM108.882 257.661L109.172 257.254L109.172 257.254L108.882 257.661ZM113.882 261.223L113.592 261.63C113.691 261.7 113.811 261.733 113.932 261.721L113.882 261.223ZM121.882 260.424L121.832 259.926H121.832L121.882 260.424ZM139.382 259.592L139.384 260.092H139.384L139.382 259.592ZM156.258 262.735L156.06 263.194H156.06L156.258 262.735ZM163.633 265.911L163.435 266.37C163.596 266.439 163.781 266.42 163.923 266.318C164.065 266.217 164.144 266.049 164.132 265.874L163.633 265.911ZM162.994 257.206L162.495 257.243L162.495 257.243L162.994 257.206ZM161.38 230.721L160.881 230.748L160.881 230.748L161.38 230.721ZM160.405 212.941L160.054 212.585C159.952 212.686 159.898 212.825 159.906 212.968L160.405 212.941ZM175.851 197.721L176.202 198.077L176.202 198.077L175.851 197.721ZM193.83 177L193.376 176.791V176.791L193.83 177ZM196.372 166.7L195.872 166.699V166.699L196.372 166.7ZM194.918 159.069L195.362 158.839L195.362 158.839L194.918 159.069ZM190.298 153.583L189.976 153.966L189.976 153.966L190.298 153.583ZM184.012 149.306L183.782 149.75L183.782 149.75L184.012 149.306ZM168.507 144.383L168.636 143.9L168.636 143.9L168.507 144.383ZM154.238 132.271L154.73 132.18L154.73 132.18L154.238 132.271ZM152.722 124.042L153.214 123.951C153.212 123.94 153.209 123.929 153.206 123.918L152.722 124.042ZM119.382 77.099L119.793 76.8136L119.788 76.8066L119.382 77.099ZM126.882 127L126.383 126.967L126.882 127ZM91.882 153.5L91.8016 153.993C91.8155 153.996 91.8296 153.997 91.8437 153.999L91.882 153.5ZM64.882 129.5L64.4212 129.694L64.882 129.5ZM67.882 77.099L67.4396 76.8661L67.882 77.099ZM77.382 65.562L77.1392 65.1249L77.382 65.562ZM100.272 65.562L100.443 65.0921L100.272 65.562ZM139.382 142.5L139.292 142.008C139.272 142.012 139.252 142.017 139.233 142.023L139.382 142.5ZM149.172 145.553L148.849 145.935L149.172 145.553ZM154.382 159.069L153.889 159.153L154.382 159.069ZM150.882 186.5L150.405 186.349C150.403 186.357 150.401 186.364 150.399 186.372L150.882 186.5ZM146.765 201.966L146.341 202.23C146.446 202.399 146.641 202.489 146.837 202.461C147.034 202.432 147.195 202.29 147.247 202.098L146.765 201.966ZM133.382 170L132.883 170.029L133.382 170ZM79.382 184.5L78.9699 184.783L78.9752 184.791L79.382 184.5ZM56.906 209L56.4095 209.059C56.4106 209.068 56.412 209.078 56.4137 209.087L56.906 209ZM60.882 231.5L60.3896 231.587C60.4243 231.783 60.5721 231.94 60.7659 231.986C60.9597 232.033 61.1624 231.959 61.282 231.8L60.882 231.5ZM75.382 209L74.9382 208.77L75.382 209ZM149.646 110.038L147.239 102.891L146.291 103.211L148.698 110.358L149.646 110.038ZM147.239 102.892C145.908 98.9369 143.206 92.5021 141.229 88.5752L140.335 89.0248C142.292 92.9119 144.976 99.3031 146.291 103.21L147.239 102.892ZM141.229 88.575C139.184 84.5177 135.529 79.3852 132.785 76.7391L132.091 77.4589C134.739 80.0128 138.332 85.0483 140.335 89.025L141.229 88.575ZM132.785 76.7393C130.137 74.1828 125.417 70.5705 122.275 68.6937L121.763 69.5523C124.839 71.3896 129.497 74.9552 132.091 77.4587L132.785 76.7393ZM122.275 68.6938C119.137 66.8186 113.53 64.1667 109.797 62.788L109.451 63.726C113.132 65.0854 118.681 67.7114 121.763 69.5522L122.275 68.6938ZM109.797 62.7879C105.174 61.082 100.042 60.1109 93.9098 59.7698L93.8543 60.7682C99.9117 61.1051 104.942 62.062 109.451 63.7261L109.797 62.7879ZM93.9097 59.7698C88.5192 59.4712 83.1002 59.7354 80.444 60.4565L80.706 61.4215C83.1998 60.7446 88.4848 60.4708 93.8544 60.7682L93.9097 59.7698ZM80.444 60.4565C77.9892 61.123 74.2622 63.2464 72.1098 65.191L72.7802 65.933C74.8339 64.0776 78.4248 62.041 80.706 61.4215L80.444 60.4565ZM72.1098 65.191C69.9483 67.1439 67.1782 71.1061 65.9187 74.0334L66.8373 74.4286C68.0458 71.6199 70.7358 67.7801 72.7802 65.933L72.1098 65.191ZM65.9187 74.0334C64.6666 76.9435 62.7685 83.3876 61.6894 88.3671L62.6667 88.5789C63.7395 83.6284 65.6214 77.2546 66.8373 74.4286L65.9187 74.0334ZM61.6894 88.3671C60.0791 95.7947 59.6199 102.969 59.1691 127.284L60.1689 127.302C60.6201 102.965 61.0809 95.8933 62.6667 88.5789L61.6894 88.3671ZM59.1691 127.284L58.6171 157.076L59.6169 157.094L60.1689 127.302L59.1691 127.284ZM58.8854 156.642L56.2684 158.01L56.7316 158.896L59.3487 157.528L58.8854 156.642ZM56.2683 158.01C54.7665 158.795 52.3346 160.727 50.8281 162.317L51.554 163.005C53.0075 161.471 55.3535 159.617 56.7317 158.896L56.2683 158.01ZM50.8282 162.317C49.3012 163.927 47.1447 167.281 46.0075 169.794L46.9186 170.206C48.0213 167.769 50.1208 164.517 51.5539 163.005L50.8282 162.317ZM46.0075 169.794C44.8636 172.322 43.9165 176.309 43.904 178.703L44.904 178.709C44.9156 176.477 45.8225 172.628 46.9186 170.206L46.0075 169.794ZM43.904 178.703C43.8978 179.9 44.1818 182.763 44.6345 186.379C45.0892 190.01 45.719 194.437 46.4143 198.785L47.4018 198.627C46.7081 194.289 46.0799 189.873 45.6268 186.254C45.1717 182.62 44.8982 179.826 44.904 178.709L43.904 178.703ZM46.4143 198.785C47.8042 207.471 49.8622 217.402 50.9971 220.852L51.947 220.54C50.8398 217.174 48.7918 207.315 47.4017 198.627L46.4143 198.785ZM50.997 220.852C51.5637 222.576 52.3103 224.436 53.0575 226.046C53.7992 227.644 54.5596 229.036 55.16 229.799L55.946 229.181C55.4225 228.515 54.7023 227.214 53.9646 225.625C53.2322 224.047 52.5004 222.224 51.947 220.54L50.997 220.852ZM55.16 229.799C55.9783 230.839 56.4052 231.617 56.583 232.563C56.7651 233.532 56.6954 234.724 56.4116 236.617L57.4005 236.765C57.6856 234.864 57.7815 233.526 57.5658 232.378C57.3458 231.208 56.8117 230.282 55.946 229.181L55.16 229.799ZM63.7651 254.254C65.4642 254.663 68.69 254.982 70.959 254.973L70.955 253.973C68.742 253.982 65.5998 253.667 63.999 253.282L63.7651 254.254ZM70.9588 254.973C72.2693 254.968 74.0517 254.622 76.0394 254.032C78.036 253.44 80.272 252.593 82.5003 251.566L82.0818 250.658C79.8921 251.667 77.701 252.496 75.7551 253.073C73.8004 253.653 72.1247 253.969 70.9552 253.973L70.9588 254.973ZM82.5004 251.566C88.0884 248.99 90.4493 248.418 93.0258 248.837L93.1862 247.849C90.2848 247.378 87.6776 248.078 82.0817 250.658L82.5004 251.566ZM93.026 248.837C93.9445 248.985 95.1957 249.403 96.476 249.968C97.7523 250.532 99.0229 251.229 99.9804 251.916L100.564 251.104C99.5362 250.366 98.2017 249.638 96.8803 249.054C95.5629 248.471 94.2236 248.018 93.186 247.849L93.026 248.837ZM99.9807 251.916C101.967 253.341 105.842 256.109 108.592 258.068L109.172 257.254C106.422 255.295 102.549 252.527 100.563 251.104L99.9807 251.916ZM108.592 258.068L113.592 261.63L114.172 260.816L109.172 257.254L108.592 258.068ZM113.932 261.721L121.932 260.922L121.832 259.926L113.832 260.725L113.932 261.721ZM121.932 260.922C126.313 260.484 134.172 260.11 139.384 260.092L139.38 259.092C134.142 259.11 126.251 259.486 121.832 259.926L121.932 260.922ZM139.384 260.092C143.636 260.077 146.161 260.154 148.441 260.578C150.714 261.001 152.764 261.775 156.06 263.194L156.456 262.276C153.153 260.853 151.015 260.04 148.624 259.595C146.24 259.151 143.627 259.077 139.38 259.092L139.384 260.092ZM156.06 263.194L163.435 266.37L163.831 265.452L156.456 262.276L156.06 263.194ZM164.132 265.874L163.493 257.169L162.495 257.243L163.134 265.948L164.132 265.874ZM163.493 257.169C163.142 252.386 162.416 240.471 161.879 230.694L160.881 230.748C161.418 240.527 162.144 252.45 162.495 257.243L163.493 257.169ZM161.879 230.694L160.904 212.914L159.906 212.968L160.881 230.748L161.879 230.694ZM160.756 213.297L176.202 198.077L175.5 197.365L160.054 212.585L160.756 213.297ZM176.202 198.077C188.19 186.264 192.269 181.585 194.284 177.209L193.376 176.791C191.453 180.967 187.528 185.512 175.5 197.365L176.202 198.077ZM194.284 177.209C195.892 173.718 196.866 169.793 196.872 166.701L195.872 166.699C195.866 169.615 194.938 173.398 193.376 176.791L194.284 177.209ZM196.872 166.701C196.875 165.344 196.709 163.794 196.44 162.386C196.174 160.986 195.798 159.683 195.362 158.839L194.474 159.299C194.843 160.013 195.197 161.206 195.458 162.573C195.717 163.931 195.875 165.417 195.872 166.699L196.872 166.701ZM195.362 158.839C194.519 157.209 192.392 154.691 190.62 153.2L189.976 153.966C191.676 155.395 193.707 157.815 194.474 159.299L195.362 158.839ZM190.62 153.2C188.86 151.72 186.002 149.774 184.242 148.862L183.782 149.75C185.466 150.622 188.264 152.524 189.976 153.966L190.62 153.2ZM184.242 148.862C183.336 148.393 181.117 147.603 178.318 146.714C175.499 145.82 172.046 144.81 168.636 143.9L168.378 144.866C171.774 145.772 175.213 146.778 178.015 147.668C180.836 148.563 182.967 149.327 183.782 149.75L184.242 148.862ZM168.636 143.9C165.234 142.993 162.122 142.136 159.848 141.486C158.711 141.16 157.786 140.888 157.14 140.687C156.817 140.586 156.568 140.505 156.4 140.446C156.314 140.415 156.257 140.393 156.224 140.379C156.206 140.371 156.204 140.37 156.212 140.374C156.216 140.376 156.23 140.384 156.249 140.398C156.26 140.406 156.314 140.446 156.361 140.519L155.523 141.063C155.573 141.141 155.633 141.186 155.653 141.201C155.681 141.222 155.706 141.237 155.724 141.247C155.759 141.266 155.796 141.283 155.827 141.297C155.891 141.324 155.973 141.355 156.065 141.388C156.253 141.454 156.516 141.54 156.843 141.642C157.5 141.846 158.433 142.121 159.573 142.447C161.854 143.099 164.973 143.958 168.378 144.866L168.636 143.9ZM156.361 140.519C156.379 140.545 156.389 140.567 156.392 140.574C156.396 140.583 156.398 140.589 156.399 140.59C156.399 140.592 156.397 140.587 156.393 140.573C156.385 140.546 156.373 140.504 156.358 140.442C156.327 140.321 156.287 140.146 156.237 139.921C156.139 139.473 156.008 138.841 155.854 138.07C155.545 136.529 155.146 134.442 154.73 132.18L153.746 132.362C154.163 134.626 154.564 136.719 154.873 138.266C155.028 139.04 155.16 139.679 155.261 140.136C155.311 140.364 155.354 140.551 155.388 140.687C155.405 140.755 155.422 140.815 155.436 140.864C155.444 140.888 155.452 140.915 155.462 140.941C155.468 140.956 155.488 141.009 155.523 141.063L156.361 140.519ZM154.73 132.18L153.214 123.951L152.23 124.133L153.746 132.362L154.73 132.18ZM56.4073 236.656C56.0998 241.024 56.279 244.252 57.3638 246.974C58.4541 249.711 60.4331 251.874 63.5876 254.172L64.1764 253.364C61.101 251.124 59.2859 249.097 58.2927 246.604C57.2939 244.097 57.1001 241.055 57.4048 236.726L56.4073 236.656ZM148.688 110.322L152.238 124.166L153.206 123.918L149.656 110.074L148.688 110.322ZM118.971 77.3843C125.7 87.0669 128.041 101.946 126.383 126.967L127.381 127.033C129.041 101.985 126.731 86.7977 119.793 76.8137L118.971 77.3843ZM126.383 126.967C125.892 134.38 123.886 139.715 121.086 143.552C118.287 147.388 114.668 149.759 110.897 151.202C103.329 154.099 95.1888 153.253 91.9204 153.001L91.8437 153.999C95.0752 154.247 103.443 155.126 111.254 152.136C115.172 150.637 118.961 148.16 121.894 144.142C124.827 140.123 126.88 134.596 127.381 127.033L126.383 126.967ZM91.9625 153.007C76.897 150.55 68.5268 136.868 65.3428 129.306L64.4212 129.694C67.6372 137.332 76.2004 151.45 91.8016 153.993L91.9625 153.007ZM65.3428 129.306C64.3775 127.013 63.7555 123.216 63.4591 118.608C63.1638 114.017 63.1946 108.676 63.5062 103.329C63.8178 97.9817 64.4096 92.6393 65.2335 88.0468C66.06 83.4404 67.1121 79.6353 68.3245 77.3319L67.4396 76.8661C66.1519 79.3127 65.079 83.2453 64.2493 87.8702C63.417 92.5092 62.8213 97.892 62.5079 103.27C62.1945 108.649 62.1627 114.032 62.4612 118.673C62.7586 123.296 63.3866 127.237 64.4212 129.694L65.3428 129.306ZM68.3245 77.3319C70.8102 72.6091 72.8129 69.9617 74.3449 68.4069C75.8653 66.8638 76.93 66.3851 77.6248 65.9991L77.1392 65.1249C76.4519 65.5068 75.2666 66.0466 73.6325 67.705C72.0101 69.3517 69.9539 72.0889 67.4396 76.8661L68.3245 77.3319ZM77.6248 65.9991C78.67 65.4184 80.2477 64.9916 82.1538 64.7211C84.0494 64.4522 86.2277 64.3435 88.445 64.3745C92.893 64.4366 97.4268 65.0594 100.101 66.0319L100.443 65.0921C97.6172 64.0646 92.956 63.4374 88.459 63.3745C86.2039 63.343 83.9722 63.4531 82.0133 63.731C80.0651 64.0074 78.3441 64.4556 77.1392 65.1249L77.6248 65.9991ZM100.101 66.0319C102.326 66.8408 105.768 67.9187 109.316 69.6903C112.861 71.4601 116.459 73.8995 118.976 77.3914L119.788 76.8066C117.138 73.1319 113.382 70.6027 109.763 68.7957C106.148 66.9904 102.618 65.8832 100.443 65.0921L100.101 66.0319ZM139.472 142.992C141.839 142.556 145.895 143.437 148.849 145.935L149.495 145.171C146.332 142.497 141.978 141.514 139.292 142.008L139.472 142.992ZM148.849 145.935C152.896 149.356 152.941 153.605 153.889 159.153L154.875 158.985C153.96 153.634 153.892 148.889 149.495 145.171L148.849 145.935ZM153.889 159.153C154.779 164.359 153.921 171.139 152.821 176.663C152.273 179.416 151.669 181.839 151.201 183.575C150.967 184.442 150.768 185.137 150.627 185.615C150.557 185.854 150.501 186.038 150.463 186.162C150.444 186.224 150.43 186.272 150.42 186.303C150.415 186.319 150.411 186.331 150.409 186.338C150.408 186.342 150.407 186.345 150.406 186.347C150.406 186.348 150.406 186.349 150.405 186.349C150.405 186.349 150.405 186.349 150.405 186.349C150.405 186.349 150.405 186.349 150.882 186.5C151.359 186.651 151.359 186.65 151.359 186.65C151.359 186.65 151.359 186.65 151.359 186.65C151.359 186.649 151.36 186.648 151.36 186.647C151.361 186.645 151.362 186.641 151.363 186.637C151.366 186.629 151.37 186.616 151.375 186.6C151.385 186.567 151.4 186.518 151.419 186.455C151.458 186.327 151.515 186.14 151.586 185.898C151.729 185.413 151.931 184.711 152.167 183.835C152.638 182.084 153.249 179.638 153.802 176.858C154.906 171.317 155.798 164.382 154.875 158.985L153.889 159.153ZM150.882 186.5C150.399 186.372 150.399 186.372 150.399 186.372C150.399 186.372 150.399 186.372 150.399 186.373C150.398 186.373 150.398 186.374 150.398 186.374C150.398 186.376 150.397 186.378 150.396 186.382C150.394 186.388 150.392 186.398 150.388 186.411C150.382 186.436 150.372 186.474 150.358 186.524C150.332 186.623 150.294 186.769 150.244 186.955C150.145 187.327 150.004 187.861 149.832 188.509C149.489 189.803 149.025 191.55 148.545 193.359C147.583 196.978 146.555 200.842 146.283 201.834L147.247 202.098C147.521 201.101 148.551 197.232 149.511 193.616C149.992 191.807 150.455 190.06 150.799 188.765C150.97 188.118 151.112 187.584 151.211 187.211C151.26 187.025 151.299 186.879 151.325 186.78C151.338 186.73 151.348 186.692 151.355 186.667C151.358 186.654 151.361 186.644 151.363 186.638C151.364 186.635 151.364 186.632 151.365 186.631C151.365 186.63 151.365 186.629 151.365 186.629C151.365 186.628 151.365 186.628 151.365 186.628C151.365 186.628 151.365 186.628 150.882 186.5ZM147.189 201.702C143.532 195.831 134.659 183.324 133.881 169.971L132.883 170.029C133.679 183.697 142.743 196.457 146.341 202.23L147.189 201.702ZM79.794 184.217C77.8789 181.431 71.9978 176.63 63.7168 179.528L64.0472 180.472C71.7663 177.77 77.2185 182.236 78.97 184.783L79.794 184.217ZM63.7168 179.528C61.5519 180.286 59.9708 182.039 58.8293 184.291C57.6879 186.543 56.9606 189.342 56.5215 192.289C55.643 198.183 55.9021 204.78 56.4095 209.059L57.4025 208.941C56.902 204.72 56.649 198.217 57.5106 192.436C57.9414 189.545 58.6472 186.863 59.7213 184.743C60.7952 182.624 62.2122 181.114 64.0472 180.472L63.7168 179.528ZM56.4137 209.087L60.3896 231.587L61.3744 231.413L57.3984 208.913L56.4137 209.087ZM61.282 231.8C64.34 227.724 71.5332 217.502 75.8258 209.23L74.9382 208.77C70.6837 216.968 63.5294 227.138 60.4821 231.2L61.282 231.8ZM133.881 169.971C133.56 164.46 133.065 158.265 133.639 153.128C134.217 147.956 135.846 144.129 139.531 142.977L139.233 142.023C134.918 143.371 133.228 147.807 132.646 153.017C132.06 158.261 132.565 164.567 132.883 170.029L133.881 169.971ZM75.8258 209.23C78.5211 204.037 80.1642 198.734 80.8175 194.275C81.1441 192.046 81.225 190.016 81.0606 188.309C80.8973 186.613 80.4872 185.187 79.7889 184.209L78.9752 184.791C79.5269 185.563 79.9095 186.788 80.0652 188.405C80.2199 190.012 80.1462 191.958 79.828 194.13C79.1918 198.473 77.585 203.669 74.9382 208.77L75.8258 209.23Z" fill="black" mask="url(#path-2-inside-1_3_234)"/>
<path d="M168.939 82.349C179.81 67.032 192.485 49.213 197.104 42.75C201.722 36.287 205.788 31 206.138 31C206.488 31 208.486 32.186 210.578 33.636C212.67 35.086 214.382 36.456 214.382 36.68C214.382 36.905 200.509 56.653 183.552 80.565L55.09 261.523C51.905 266.185 48.755 269.988 48.09 269.973C47.426 269.958 45.334 268.662 43.441 267.093L40 264.24L48.108 252.767L168.939 82.349Z" fill="#744B22"/>
<path d="M202.393 54.465C202.195 54.272 204.813 50.264 208.211 45.557L214.252 37L222.467 41.444C226.474 43.889 233.373 48.797 237.799 52.352C242.225 55.908 248.341 61.67 251.391 65.158C254.44 68.646 258.814 74.266 261.111 77.647C263.407 81.027 266.814 87.102 268.68 91.147C270.547 95.191 272.832 101.425 273.757 105C274.683 108.575 275.639 114.875 275.882 119C276.255 125.329 276.123 126.208 275.038 124.63C274.331 123.602 270.761 118.202 267.104 112.63C263.448 107.059 256.776 98.106 252.276 92.736C247.777 87.366 240.481 79.787 236.064 75.895C231.646 72.002 224.917 66.802 221.11 64.339L202.393 54.465Z" fill="#F2F2F2"/>
<path fill-rule="evenodd" clip-rule="evenodd" d="M84.066 77.388C81.967 78.17 79.391 79.587 78.341 80.537C77.291 81.487 75.521 84.147 74.407 86.448C73.028 89.297 72.382 92.649 72.382 96.958V103.285L78.382 102.658L84.382 102.031V104.939C84.382 106.59 83.29 109.145 81.855 110.85C80.465 112.502 77.99 114.147 76.355 114.506C74.082 115.005 73.382 115.715 73.382 117.519C73.382 119.525 73.946 119.926 77.132 120.19C80.144 120.439 80.945 120.943 81.202 122.75C81.505 124.89 81.954 125 90.385 125H99.249L99.566 122.25C99.847 119.802 100.376 119.44 104.382 118.954C106.857 118.654 109.879 117.859 111.098 117.187C112.408 116.465 113.794 114.235 114.489 111.733C115.135 109.405 115.713 103.648 115.773 98.939C115.872 91.129 115.635 90.004 113.059 86.101C111.03 83.026 108.694 81.116 104.751 79.311C101.733 77.93 96.704 76.612 93.573 76.383C90.104 76.129 86.392 76.521 84.066 77.388ZM105.448 102.035C106.729 102.721 107.382 104.129 107.382 106.206C107.382 107.931 106.637 110.165 105.727 111.171C104.817 112.177 102.762 113 101.161 113C99.56 113 97.444 112.568 96.458 112.041C95.472 111.513 93.991 110.05 93.168 108.791C92.344 107.531 91.359 105.514 90.978 104.31C90.349 102.322 90.682 102.084 94.584 101.735C96.948 101.523 99.924 101.271 101.198 101.175C102.471 101.079 104.384 101.466 105.448 102.035ZM89.221 114.547C89.86 115.948 90.382 117.748 90.382 118.547C90.382 119.495 89.339 120 87.382 120C85.425 120 84.382 119.495 84.382 118.547C84.382 117.748 84.904 115.948 85.543 114.547C86.181 113.146 87.009 112 87.382 112C87.755 112 88.583 113.146 89.221 114.547ZM80.382 133.465C80.382 134.878 81.207 136.371 82.316 136.965C83.38 137.534 87.189 138 90.781 138C96.214 138 97.486 137.675 98.347 136.066C98.916 135.002 99.382 133.427 99.382 132.566C99.382 131.255 97.837 131 89.882 131C80.451 131 80.382 131.018 80.382 133.465ZM135.382 145.554C134.557 145.732 131.234 146.17 127.998 146.527C123.721 147 121.467 147.824 119.748 149.543C117.984 151.307 117.388 153.002 117.404 156.205C117.417 158.727 118.14 161.41 119.154 162.706C120.105 163.919 121.905 165.283 123.156 165.737C124.426 166.197 129.35 166.074 134.311 165.458C139.196 164.85 144.34 163.602 145.741 162.684C147.326 161.646 148.538 159.683 148.95 157.491C149.346 155.38 149.095 152.721 148.324 150.86C147.527 148.936 145.783 147.23 143.742 146.377C141.929 145.62 139.644 145.052 138.664 145.116C137.684 145.18 136.207 145.377 135.382 145.554ZM71.492 188.337C70.178 189.098 68.506 190.796 67.778 192.11C67.049 193.425 66.437 195.535 66.417 196.8C66.398 198.064 67.049 200.389 67.865 201.966C68.74 203.659 70.686 205.27 72.615 205.898C74.412 206.484 78.991 207.397 82.791 207.928C88.128 208.674 90.441 208.584 92.96 207.532C94.754 206.782 96.707 205.261 97.302 204.15C97.896 203.04 98.382 200.38 98.382 198.24C98.382 195.453 97.718 193.725 96.042 192.15C94.755 190.941 92.258 189.538 90.493 189.032C88.728 188.526 84.268 187.851 80.583 187.533C75.799 187.12 73.198 187.35 71.492 188.337ZM83.132 250.572C81.504 251.455 80.382 252.905 80.382 254.125C80.382 255.258 82.857 263.918 85.882 273.368C88.907 282.819 91.382 290.877 91.382 291.275C91.382 291.674 87.987 292 83.837 292C77.159 292 76.009 292.282 73.837 294.455C72.487 295.805 71.382 297.565 71.382 298.367C71.382 299.279 72.784 300.045 75.132 300.415C77.195 300.74 89.78 300.917 103.099 300.809C122.623 300.651 127.419 300.346 127.846 299.234C128.137 298.476 127.859 296.875 127.229 295.678C126.598 294.48 125.695 293.245 125.22 292.934C124.742 292.619 124.776 291.06 125.296 289.434C125.812 287.82 126.744 280.714 127.367 273.642C127.99 266.57 128.36 260.657 128.191 260.502C128.021 260.346 125.549 260.449 122.699 260.73L117.515 261.242L116.762 267.871C116.347 271.517 115.98 278.436 115.945 283.247L115.882 291.995L108.632 291.997L101.382 292V288.868C101.382 287.146 98.882 278.05 95.827 268.655C92.772 259.26 89.792 250.994 89.205 250.287C88.618 249.579 87.63 249.018 87.01 249.04C86.389 249.062 84.645 249.751 83.132 250.572Z" fill="#F2F2F2"/>
</svg>
