<svg width="317" height="301" viewBox="0 0 317 301" fill="none" xmlns="http://www.w3.org/2000/svg">
<g clip-path="url(#clip0_19_389)">
<g clip-path="url(#clip1_19_389)">
<path d="M89.4111 25.2422C87.8742 27.4325 87.8928 27.2378 88.6601 31.1583C89.1463 33.5891 89.292 34.9254 89.1802 35.4771C88.9592 36.4137 88.0269 37.1615 84.5712 39.0597C81.9588 40.4948 81.8648 40.4963 81.438 38.9033C81.2246 38.1068 81.3016 37.7779 82.2093 35.9696C83.5015 33.3943 83.7555 32.1405 83.2668 31.1095C82.9052 30.3764 80.9304 28.8188 80.7535 29.1271C80.7272 29.2052 81.0355 29.7392 81.4657 30.2879C81.9179 30.8307 82.2676 31.5195 82.2727 31.8027C82.2719 32.0638 81.7638 33.3382 81.1178 34.6258C79.5581 37.6996 79.4869 38.0507 80.1187 39.9682L80.6057 41.5213L79.443 42.3783C78.7936 42.8606 77.8299 43.4033 77.2854 43.573L76.2786 43.8664L76.0381 42.7926C75.817 41.8796 75.3604 36.4767 75.3807 35.1434C75.3934 34.9265 75.3019 34.7614 75.1918 34.7909C74.9056 34.8675 74.3545 38.3588 74.1979 41.033C74.0752 43.1289 74.1319 43.5168 74.9085 45.1821C75.0415 45.5022 74.8264 45.8444 73.9677 46.691C73.0109 47.6113 72.6823 47.7942 71.7119 47.9594C71.1056 48.0744 70.2935 48.126 69.9277 48.0818C69.274 48.0198 69.2342 47.9593 68.837 46.477C68.1611 43.9547 66.7782 40.5549 66.0711 39.6772C65.4656 38.9147 64.2614 38.3836 64.0582 38.77C64.0099 38.8541 64.3961 39.4146 64.894 40.04C65.8323 41.164 65.8323 41.164 66.7097 45.055L67.5812 48.9239L68.3518 49.334C68.7651 49.5553 69.3985 49.7175 69.7465 49.6954C70.1166 49.6674 70.4604 49.7176 70.5442 49.7662C70.6738 49.8975 67.1918 53.7235 66.2274 54.5274C65.0605 55.4566 64.5947 54.7751 64.7784 52.3783C64.8961 50.6157 64.4701 49.3782 63.3573 48.3958C62.6155 47.7409 60.9837 47.111 61.0904 47.5093C61.1201 47.6199 61.5646 48.0462 62.0651 48.5049C63.2676 49.5581 63.5285 50.5316 63.1915 52.7086C62.8647 54.8355 62.9833 55.278 64.0791 55.933L64.9792 56.4743L63.6151 59.0452C61.2391 63.4759 60.3044 66.24 60.0411 69.749C59.9201 71.3228 60.0022 71.8936 60.9753 75.8776L62.0272 80.2436L63.4482 81.7599L64.8692 83.2762L64.5449 85.2365C63.5052 91.396 64.6842 97.293 67.6134 100.563C69.5382 102.727 72.3471 104.227 75.7725 104.945C80.1911 105.848 82.9263 105.4 86.3871 103.168C87.0705 102.724 87.7657 102.325 87.9418 102.278C88.228 102.201 90.1817 104.736 90.9608 106.235C91.4876 107.232 91.4503 107.621 90.5841 109.585C90.308 110.228 90.1277 110.964 90.1988 111.229C90.436 112.114 91.7223 112.6 94.7149 112.936C98.4332 113.339 98.573 113.42 98.5535 115.109C98.5375 115.753 98.6941 116.162 99.132 116.827C99.5579 117.448 99.9661 118.619 100.624 121.075L101.531 124.46L102.906 125.277C103.986 125.96 104.398 126.087 104.992 125.928C105.543 125.78 105.926 125.891 106.782 126.444L107.874 127.171L108.554 126.539C109.081 126.042 109.356 125.921 109.799 125.991C110.937 126.185 111.727 124.906 112.787 121.112C113.448 118.825 113.851 117.863 114.269 117.751C114.952 117.568 117.45 119.934 119.593 122.822C121.638 125.523 123.027 128.067 123.846 130.504L124.57 132.681L121.282 135.293C115.404 139.951 113.69 141.833 109.492 148.269C108.049 150.458 106.395 152.917 105.791 153.743C104.226 155.917 101.352 159.106 100.358 159.799C99.7566 160.197 98.0647 160.84 95.2381 161.74C89.3266 163.632 88.772 163.852 88.1073 164.718C87.037 166.096 86.9785 166.846 87.6434 170.296C87.9678 172.035 88.5395 174.609 88.9189 176.025C89.5651 178.437 89.6684 178.646 90.6507 179.758C91.2045 180.416 92.0522 181.114 92.4875 181.329C93.2124 181.657 93.5164 181.646 95.0135 181.245L96.7088 180.791L98.3694 181.793C100.84 183.265 101.959 183.653 102.95 183.387C103.632 183.204 104.038 183.309 105.238 183.912C107.656 185.185 108.857 185.266 110.798 184.32C111.928 183.78 112.044 183.772 112.973 184.069C115.126 184.796 117.165 184.392 119.596 182.721C120.258 182.283 120.799 181.924 120.843 181.913C120.975 181.877 121.81 183.408 123.845 187.392C127.662 194.859 130.153 198.341 132.917 200.114C134.372 201.052 135.371 201.259 136.714 200.899L137.309 200.74L139.055 207.433L140.779 214.133L139.419 214.782C135.323 216.757 133.552 219.128 133.247 223.099C133.193 223.777 133.091 224.54 132.984 224.758C132.895 225.043 131.827 225.637 129.638 226.627C125.541 228.507 124.432 229.302 123.256 231.254C122.337 232.757 122.202 233.22 121.718 236.432C121.509 237.769 121.382 238.087 120.679 238.632C119.784 239.345 118.933 240.925 118.762 242.133C118.229 246.046 123.072 250.558 129.297 251.949C130.374 252.183 131.425 252.494 131.605 252.635C131.868 252.826 132.06 253.367 132.264 254.569C132.61 256.563 133.514 258.265 134.536 258.822C134.95 259.043 135.681 259.131 136.553 259.04C138.712 258.817 146.176 257.173 151.747 255.68L156.855 254.312L157.229 254.828C157.444 255.102 157.71 255.742 157.846 256.251C158.254 257.683 158.932 258.806 159.607 259.123C160.142 259.359 160.462 259.321 162.1 258.74C163.765 258.175 164.036 258.126 164.307 258.433C164.606 258.756 165.799 262.064 168.079 268.899C169.457 272.988 169.446 272.683 168.379 275.482C167.565 277.55 167.331 279.32 167.693 280.67C168.049 281.997 169.713 283.804 171.653 284.968C173.028 285.785 173.411 285.896 174.578 285.844C176.738 285.716 179.27 284.421 181.05 282.521C182.39 281.095 183.544 277.3 183.129 275.751C182.578 273.694 180.887 271.609 179.034 270.683L177.778 270.047L176.738 266.959C175.504 263.234 173.951 257.438 173.963 256.604C173.965 256.082 174.101 255.974 175.008 255.66L176.069 255.305L175.042 251.999L173.999 248.722L179.495 247.392C182.507 246.656 187.87 245.361 191.411 244.483L197.875 242.893L198.453 241.529C199.249 239.656 199.044 238.098 197.479 234.723L197.163 234.073L202.47 229.307C205.376 226.679 208.145 224.064 208.598 223.468C209.572 222.259 209.802 221.178 209.428 219.784C209.108 218.589 208.247 217.753 206.438 216.814C204.853 216.006 204.789 215.857 204.469 212.196C204.27 210.044 204.27 210.044 202.974 207.498C201.066 203.812 200.648 202.691 198.299 195.069C195.516 186.092 193.747 178.432 193.978 176.212C194.151 174.482 194.928 173.065 196.472 171.607C197.114 171.009 197.714 170.255 197.83 169.892C197.951 169.551 197.896 168.38 197.744 167.283C197.313 164.529 197.406 164.172 198.817 162.656C202.24 158.964 206.319 148.647 209.869 134.772C210.343 132.842 210.941 131.022 211.168 130.724C211.389 130.404 212.165 129.864 212.894 129.503C215.169 128.395 215.614 127.589 214.899 125.978C214.714 125.553 212.953 123.559 210.97 121.529C207.25 117.688 205.983 116.131 203.217 112.058C198.121 104.578 192.205 97.2948 186.815 91.8859C183.847 88.9108 183.242 88.1482 183.467 87.7558C183.547 87.6157 185.123 86.98 186.943 86.3739C188.763 85.7677 190.306 85.1881 190.387 85.048C190.837 84.2633 188.442 82.9844 181.357 80.2349C170.897 76.1607 170.468 75.9674 162.891 71.6426C154.804 67.0036 156.354 67.6792 143.886 63.5976C139.597 62.2095 139.817 62.4116 138.434 58.7506C135.559 51.1028 132.442 45.3694 128.361 40.1789C127.308 38.8012 126.407 37.6433 126.39 37.5769C126.33 37.3557 127.213 37.2141 127.404 37.4C128.547 38.493 133.933 37.5476 135.002 36.0756C135.385 35.5697 135.357 35.5535 133.542 36.0874C131.808 36.5756 131.554 36.5962 130.11 36.2245C129.226 36.0106 128.497 35.7554 128.468 35.6448C128.438 35.5341 128.817 35.1005 129.341 34.6757L130.245 33.9117L129.016 34.1698C124.62 35.1107 122.734 35.1181 121.291 34.2242L120.614 33.8126L121.402 33.3171C122.304 32.7197 124.409 30.4483 124.819 29.6031C125.214 28.786 124.802 28.9202 123.23 30.1002C121.741 31.2344 119.651 31.8892 117.587 31.8494C116.137 31.811 111.63 31.1928 111.726 31.0247C111.758 30.9686 112.616 30.9997 113.652 31.0779L115.507 31.221L116.487 29.4171C117.595 27.389 118.822 23.9538 118.583 23.591C118.504 23.47 117.592 24.734 116.605 26.4214L114.757 29.4775L113.047 29.4376C111.57 29.383 110.693 29.5468 106.916 30.5113C102.451 31.6366 101.303 31.7545 101.815 31.0244C101.95 30.8224 103.052 30.2663 104.281 29.7472C105.495 29.256 106.755 28.5864 107.081 28.3091C107.892 27.5466 108.02 26.0893 107.484 23.6482L107.039 21.6334L106.905 23.424C106.727 25.843 106.531 26.607 105.996 26.9875C105.346 27.4698 101.508 28.9963 101.076 28.9698C100.804 28.924 100.621 28.5936 100.414 27.8193C99.969 26.1599 98.6276 24.148 97.6352 23.7025C96.8764 23.3367 96.3607 23.2615 96.4319 23.527C96.4497 23.5933 96.8341 24.0595 97.2745 24.558C97.7368 25.0507 98.3178 25.9858 98.5676 26.654C99.1469 28.1113 99.0258 29.0685 98.1087 30.0494C97.7777 30.3989 97.1748 31.3193 96.7404 32.076C96.3339 32.8489 95.8758 33.517 95.7437 33.5524C95.5896 33.5937 94.4862 34.0553 93.2787 34.5686C92.0712 35.0819 91.022 35.4816 90.9661 35.4491C90.8882 35.4225 90.8992 35.1114 90.9983 34.7765C91.1016 34.3694 90.8932 33.2396 90.2885 30.9828L89.4289 27.7747L90.1063 26.0756C90.6829 24.6168 90.8438 23.72 90.5136 23.8085C90.4475 23.8262 89.9615 24.4782 89.4111 25.2422ZM99.9404 31.3371C100.059 31.7796 99.5933 32.3312 99.0191 32.3902C98.2629 32.4743 98.1224 32.0376 98.7617 31.6055C99.5314 31.0435 99.8456 30.9831 99.9404 31.3371ZM97.965 35.5894C98.4612 36.1204 99.0972 36.7326 99.3826 36.9169C99.9093 37.2975 99.9034 37.2754 99.4952 36.1042C99.2513 35.4582 98.9455 34.7575 98.7982 34.5599C98.5772 34.2634 98.6754 34.1897 99.534 33.9596C100.701 33.6469 101.18 33.8505 102.064 35.0364L102.682 35.8432L102.466 34.5969L102.25 33.3505L103.356 33.0776C106.225 32.3328 107.584 32.5615 107.928 33.8448C108.165 34.7298 108.527 34.5852 108.707 33.4937C108.869 32.6914 108.961 32.5955 109.602 32.5188C110.408 32.4451 113.538 32.7682 113.924 32.9732C114.058 33.0322 114.051 33.8877 113.887 34.9511C113.718 35.9925 113.673 36.8819 113.779 36.9247C113.869 36.9955 114.415 36.3037 115.002 35.4114C115.589 34.519 116.167 33.7712 116.277 33.7417C116.415 33.7285 117.422 34.0515 118.547 34.4616L120.596 35.2404L119.89 36.5679C119.2 37.8673 119.096 38.2744 119.042 39.5694C119.003 40.481 119.488 40.0901 120.726 38.1934L121.9 36.4086L122.836 37.0827L123.787 37.7288L123.353 39.102C123.107 39.8557 122.937 40.5416 122.954 40.6079C123.02 40.8513 123.462 40.5667 124.151 39.7894C124.53 39.3557 124.983 39.0209 125.161 39.0681C125.934 39.3115 130.281 45.1422 132.104 48.4241C134.081 51.9258 138.249 61.6696 137.964 62.1018C137.894 62.1918 137.302 62.5398 136.633 62.8613C135.027 63.6475 133.273 65.1136 132.715 66.1166C132.174 67.0915 132.472 67.059 134.068 65.9676C135.423 65.0354 138.894 63.9868 139.024 64.4736C139.232 65.2479 138.91 67.0415 138.421 67.8601C137.933 68.6787 137.692 68.838 135.678 69.6861C133.004 70.8055 132.321 71.2495 131.255 72.5548C129.042 75.3056 128.697 79.4768 130.469 82.3929C131.627 84.3355 131.64 84.7352 130.64 87.8725C129.519 91.3505 129.132 93.5172 129.341 95.0025C129.486 95.9834 129.383 96.3905 128.543 98.0144C127.658 99.8168 127.31 101.072 127.383 102.404C127.52 104.762 124.201 108.758 118.685 112.916C115.617 115.208 115.085 115.422 113.575 114.807C112.918 114.556 112.071 114.214 111.687 114.103C111.226 113.966 110.917 113.693 110.822 113.339C110.585 112.454 109.987 111.808 109.423 111.817C109.119 111.827 107.922 112.029 106.766 112.292C105.609 112.554 103.668 112.885 102.482 113.036L100.307 113.287L103.672 112.196C114.324 108.796 119.874 105.554 122.391 101.299C123.314 99.7238 123.447 98.8108 122.985 97.085C122.191 94.1203 120.289 92.0449 117.445 91.0286C116.822 90.8162 116.275 90.5359 116.245 90.4253C116.215 90.3147 116.689 89.8796 117.284 89.4592C119.938 87.5625 122.509 84.7394 123.722 82.3986C124.732 80.4443 124.685 79.6508 123.566 78.0297L122.726 76.832L123.674 74.8231C124.202 73.7095 124.779 72.2508 124.949 71.5649C125.261 70.177 125.077 67.0249 124.524 64.8729C123.776 61.9908 123.808 61.3182 124.77 59.1869C125.238 58.1131 126.258 56.1086 126.997 54.7251L128.34 52.2545L129.888 52.2192C131.602 52.1868 132.135 51.9729 131.963 51.3313C131.827 50.8224 131.427 50.7398 129.197 50.697L127.422 50.6748L126.388 52.5406C125.82 53.5937 124.756 55.61 124.029 57.0378L122.699 59.647L121.654 58.7413C121.092 58.228 119.681 57.2781 118.507 56.5966C115.03 54.5404 111.506 54.1568 107.185 55.291C102.781 56.4709 100.09 58.757 98.1488 63.0477C96.7974 66.0183 96.7797 68.4181 98.0009 72.3592C99.1908 76.0954 99.9478 76.9834 104.516 79.7668C105.702 80.4925 106.42 81.0589 106.318 81.2049C106.237 81.3451 105.174 82.2226 103.986 83.1577L101.782 84.8864L100.641 84.7654C98.8455 84.5824 96.6243 83.162 95.3202 81.3772C94.0897 79.6913 93.6121 79.5821 94.271 81.1604C95.1263 83.2077 96.1823 84.4187 98.0487 85.4836L99.8033 86.4837L98.877 87.2536L97.9506 88.0236L95.6218 87.0825C94.3457 86.547 92.5657 85.9806 91.6943 85.8109C89.7458 85.4082 89.3131 85.6427 88.441 87.5838L87.8465 88.9761L87.0208 86.4229C86.1714 83.7812 85.2932 82.0009 84.0678 80.5981C83.1414 79.5184 80.6348 77.9136 79.0665 77.4327C75.117 76.1671 69.523 77.5711 66.1054 80.6685L65.3433 81.3469L64.6828 80.9074C63.5235 80.1035 63.5142 79.276 64.5878 77.4707C66.2949 74.5945 68.5203 72.86 71.5806 72.04C74.0244 71.3851 74.5723 71.4043 74.7739 72.1566C74.928 72.7318 74.978 72.7421 75.6749 72.4368C76.3498 72.1374 76.5276 72.1846 77.7572 72.8986C78.4897 73.3426 79.8268 74.1936 80.7448 74.8014C81.6407 75.415 82.3436 75.7483 82.2962 75.5713C82.1539 75.0403 80.0105 73.0299 78.1331 71.6596C76.6986 70.6212 76.3997 70.2981 76.1922 69.5238C75.8441 68.3128 74.844 67.1342 73.4806 66.3613L72.3467 65.7404L72.5346 63.2712C72.621 61.9201 72.6489 60.7033 72.5693 60.5823C72.3762 60.3021 71.3263 63.429 70.9038 65.463L70.599 66.9675L72.0987 67.6327C74.3732 68.6358 75.95 70.2052 74.6663 70.1698C71.7948 70.1092 70.4721 70.3688 68.1248 71.472C67.5379 71.7478 67.5582 71.6475 68.4634 70.6224C69.8124 69.0516 70.3814 68.0929 70.251 67.6062C70.1917 67.3849 69.7276 66.7978 69.1992 66.3229C67.8993 65.0824 67.6427 64.0366 68.21 62.3669C68.4826 61.5351 69.0152 60.7047 69.7096 59.9495C71.5395 58.0601 71.1288 57.6722 69.0914 59.4037C66.2098 61.8595 65.6104 64.8183 67.5386 67.1709C68.4769 68.2949 68.5455 68.7271 67.9325 69.0811C67.6259 69.2581 67.095 70.1828 66.5709 71.4852C66.1052 72.6534 65.4269 73.9971 65.0653 74.4971C64.6979 74.975 64.1686 75.9942 63.8663 76.7155C63.57 77.4588 63.2381 78.0695 63.128 78.099C62.5555 78.2523 61.3579 71.317 61.573 69.1251C61.821 66.6162 63.0233 63.3536 64.9844 59.8402L66.7745 56.6572L68.3224 56.6219C69.1743 56.6308 70.2066 56.5202 70.6029 56.414L71.3235 56.1972L70.6765 55.8963C70.331 55.7517 69.5655 55.6248 68.9956 55.6116L67.9617 55.6277L68.3258 54.9611C68.9032 53.8578 72.5232 50.0185 72.8086 50.2029C72.8865 50.2294 73.1964 50.8578 73.5301 51.5746C74.3981 53.4051 74.6954 53.0172 74.2109 50.6808L73.823 48.7928L75.846 47.1837L77.8469 45.5804L78.4355 46.0155C78.9622 46.3961 79.0553 46.6557 79.3382 48.2399C79.627 49.8461 79.6965 50.0172 79.9336 49.6691C80.241 49.2311 80.4966 46.8386 80.3128 46.1528C80.2417 45.8873 79.9749 45.5082 79.7395 45.3341C79.0892 44.8444 79.1256 44.7161 79.958 43.9477C81.3297 42.7264 81.8996 42.7397 83.4891 44.0923C83.8262 44.3814 83.8186 44.2649 83.4476 43.3209C82.92 41.9683 83.0386 41.7943 85.5874 40.2102C87.8077 38.809 88.0117 38.7781 88.2252 39.5746C88.3319 39.9728 88.6884 40.4227 89.1414 40.7044L89.8799 41.1705L89.5225 40.3652C89.1058 39.3386 89.1786 38.4654 89.7561 37.9787C90.1812 37.6276 95.5888 35.0879 96.5677 34.7781C96.9361 34.6557 97.2714 34.8504 97.965 35.5894ZM111 56.1421C114.743 56.1113 118.46 57.6527 120.724 60.2001L121.909 61.5424L118.986 67.5425L116.057 73.5205L112.834 76.0205C109.223 78.8377 108.375 79.3731 107.485 79.3981C106.191 79.4128 102.743 77.1117 100.796 74.9538C100.181 74.2414 99.9841 73.7723 99.249 71.0288C98.4487 68.042 98.4233 67.8591 98.7137 66.477C99.6137 62.086 102.03 58.9488 105.889 57.0609C106.706 56.676 109.496 56.1657 111 56.1421ZM123.236 65.5263C123.838 69.1828 123.521 72.1372 122.306 74.3835C121.562 75.7449 121.071 75.8526 119.81 74.9337C117.995 73.6179 117.977 73.5515 118.656 71.9468C119.839 69.1399 122.701 63.4407 122.859 63.5882C122.886 63.6044 123.052 64.485 123.236 65.5263ZM74.8274 78.5211C77.5838 78.328 80.1928 79.1703 82.127 80.9285C83.9095 82.5613 84.8343 84.1632 85.5931 86.9952C85.937 88.2784 86.169 89.4968 86.1005 89.6811C85.9912 90.0661 86.1233 90.0307 78.8434 90.8668C74.7864 91.3136 68.714 92.253 67.3049 92.6306C65.9399 92.9964 65.7129 92.6778 65.6586 90.2735C65.595 87.6584 66.4061 83.5521 67.2707 82.111C67.6466 81.4886 68.363 80.7275 68.9803 80.3013C70.1768 79.4827 72.8832 78.6627 74.8274 78.5211ZM145.831 65.9222C151.918 67.682 153.672 68.3266 156.899 69.9757C161.135 72.1367 163.039 73.4288 163.986 74.7637C164.407 75.3625 166.639 78.938 168.946 82.7066C171.248 86.4531 174.238 91.2719 175.593 93.4225C176.948 95.5731 178.09 97.5437 178.117 97.821C178.183 98.4198 177.419 99.0039 174.717 100.368C170.968 102.227 162.466 105.548 158.987 106.48C157.336 106.923 157.032 106.933 156.833 106.63C156.292 105.756 150.864 92.7213 148.845 87.4762C147.778 84.7268 148.341 83.1294 151.38 80.2046C153.332 78.3299 153.099 77.9892 151.068 79.7429C149.167 81.3668 147.969 83.063 147.691 84.4893C147.489 85.5867 147.539 85.8581 148.341 88.3228C149.412 91.6165 152.258 98.8926 155.263 106.055C161.584 121.103 161.84 121.793 161.301 123.835C160.85 125.497 158.883 128.988 157.142 131.21C155.449 133.347 151.757 137.182 148.705 139.968C146.294 142.155 145.775 142.508 145.638 141.999C145.603 141.866 145.066 140.303 144.476 138.54C142.635 133.081 140.259 128.88 136.615 124.616C134.175 121.76 132.396 120.055 127.64 116.042C125.472 114.204 123.539 112.54 123.336 112.31C122.981 111.954 123.11 111.73 124.848 109.676C127.572 106.456 128.327 105.044 128.917 101.874C129.515 98.8212 129.709 98.5794 132.983 96.7062C137.05 94.3596 138.134 92.5041 137.753 88.5275L137.577 86.7251L139.258 86.3933C142.151 85.8314 143.514 85.3712 144.216 84.7326C145.979 83.122 146.344 81.2222 145.484 78.0141C144.861 75.691 143.899 74.123 142.007 72.2586L140.902 71.1317L141.151 69.5948C141.308 68.7702 141.393 67.3248 141.382 66.4029C141.333 65.2539 141.407 64.7362 141.623 64.7495C141.795 64.7745 143.707 65.3056 145.831 65.9222ZM139.98 67.5135C139.976 68.2024 139.786 69.344 139.572 70.0416L139.158 71.3145L141.049 73.44C143.257 75.9549 144.093 77.5804 144.32 79.7486C144.513 81.523 144.293 82.554 143.545 83.3712C142.666 84.3181 139.278 85.0599 137.375 84.7398C135.938 84.4846 133.596 83.4048 132.495 82.4667C130.586 80.8914 130.27 77.1582 131.816 74.2068C132.639 72.6109 133.368 71.9885 135.966 70.6758C137.172 70.0681 138.365 69.3218 138.641 69.0342C139.227 68.4029 139.896 66.8483 139.766 66.3616C139.718 66.1846 139.761 66.0784 139.851 66.1492C139.934 66.1978 140 66.7967 139.98 67.5135ZM118.837 76.1431C121.331 77.9648 122.68 79.2156 122.84 79.813C123.024 80.4988 121.708 82.9856 120.267 84.6523C117.646 87.7261 114.331 89.7999 110.248 90.9414C107.898 91.5947 107.622 91.6213 106.417 91.3513C104.679 90.9398 99.7535 88.9396 99.8424 88.6549C100.004 88.1136 116.09 75.3141 116.876 75.0796C117.074 75.0265 117.957 75.5015 118.837 76.1431ZM92.8401 87.7093C96.3019 88.9159 102.105 91.4633 102.228 91.8335C102.394 92.453 101.424 92.9737 98.7662 93.7096C97.3572 94.0872 95.6695 94.658 95.0386 94.9456C92.7235 95.9927 90.6116 96.6535 90.3643 96.4352C90.2348 96.3039 89.7427 95.0841 89.2372 93.7256L88.3572 91.2343L89.0473 89.9349C89.4216 89.2181 89.8365 88.3006 89.9457 87.9157C90.077 87.5248 90.3361 87.1708 90.5342 87.1177C90.7104 87.0705 91.7494 87.3375 92.8401 87.7093ZM72.2121 93.3314C81.5761 91.8183 85.9684 91.5662 86.9694 92.4836C87.6494 93.084 88.2439 96.0074 88.0069 97.5886C87.7944 98.9972 86.7969 100.735 85.5293 101.904C84.6046 102.769 84.3302 102.89 82.2107 103.434C80.2673 103.931 79.6271 104.007 78.2138 103.841C73.7697 103.372 69.9624 101.404 68.0139 98.535C67.3211 97.5349 66.1618 94.8814 66.2829 94.5407C66.3718 94.256 65.7875 94.3652 72.2121 93.3314ZM136.233 87.9626C136.539 90.5128 136.052 92.6589 134.871 93.7106C134.185 94.3212 131.958 95.7002 131.408 95.8477C131.276 95.8831 131.089 95.625 131 95.2931C130.656 94.0099 131.084 91.026 132.207 86.7648L132.73 84.7515L134.418 85.7692L136.079 86.7708L136.233 87.9626ZM105.104 94.288C105.293 95.2571 105.463 96.4208 105.487 96.8648C105.541 97.6805 105.541 97.6805 104.39 97.9651C102.925 98.3102 102.496 98.117 102.204 96.9385C101.805 95.3617 101.988 94.459 102.912 93.5947C103.364 93.1655 103.987 92.7614 104.273 92.6847C104.801 92.5431 104.807 92.5652 105.104 94.288ZM172.051 78.1755C174.825 79.2818 179.131 80.9974 181.582 81.9532C184.054 82.9032 186.439 83.8767 186.88 84.1142L187.701 84.5346L185.197 85.2292L182.709 85.8959L180.636 88.1112C178.362 90.5464 177.442 91.3384 176.649 91.5508C176.143 91.6865 175.99 91.4667 173.921 88.0609C168.26 78.646 166.794 76.1694 166.882 76.1458C166.948 76.1281 169.271 77.0471 172.051 78.1755ZM97.823 97.8514L98.3566 99.8426L97.553 100.366C97.1101 100.651 95.6003 101.269 94.1929 101.741L91.6585 102.586L91.4052 101.112C91.2578 100.298 91.1511 99.2834 91.1765 98.8497C91.2027 98.155 91.273 98.0651 92.1096 97.8409C92.616 97.7052 93.4992 97.3025 94.0463 96.9663C94.6212 96.6462 95.5764 96.248 96.1768 96.1108L97.2895 95.8601L97.823 97.8514ZM109.708 92.8884C110.596 92.7689 111.44 92.6612 111.594 92.6199C111.815 92.561 111.937 92.9312 112.183 94.2882C112.35 95.2631 112.439 96.2116 112.342 96.3797C112.264 96.6142 111.473 96.921 109.799 97.3693L107.378 98.0183L107.01 96.03C106.491 93.2998 106.495 93.2275 107.373 93.1582C107.787 93.1184 108.841 93.0019 109.708 92.8884ZM115.329 91.7616C117.29 92.5641 118.687 93.3753 118.806 93.8178C118.865 94.0391 118.608 94.4875 118.172 94.8886C117.312 95.6409 114.118 97.6349 113.458 97.8119C113.061 97.9181 113.076 97.7957 113.541 96.8886C114.016 95.9314 114.038 95.6644 113.756 94.0802C113.465 92.3796 113.486 91.4017 113.86 91.3014C113.949 91.2778 114.616 91.4784 115.329 91.7616ZM100.872 97.3426C101.668 99.7852 101.752 99.8338 104.225 99.5507C105.207 99.4298 106.247 99.4357 106.581 99.536C106.97 99.6688 107.837 99.5552 109.318 99.1821C112.858 98.3046 110.211 99.3458 104.644 101.027C99.1874 102.679 99.2094 102.673 99.6099 100.645C99.742 99.9931 99.6996 98.8662 99.5404 98.0078C99.1059 95.6817 99.1126 95.4427 99.7088 95.3779C100.167 95.3263 100.247 95.4472 100.872 97.3426ZM89.7099 100.334C89.9038 101.586 89.6888 101.928 89.2374 101.124C88.9969 100.667 89.1645 98.9146 89.4219 99.0828C89.4998 99.1093 89.632 99.6904 89.7099 100.334ZM120.897 95.3681C121.568 96.113 121.901 97.7074 121.621 99.0393C121.014 101.882 117.306 105.128 111.776 107.653C109.95 108.498 108.278 109.041 103.743 110.256L98.0182 111.79L95.2593 111.533C93.7359 111.396 92.3048 111.163 92.0813 111.033C91.696 110.828 91.7044 110.684 92.033 109.884C92.6477 108.391 94.1406 106.829 95.7571 105.993C96.5742 105.608 99.7938 104.414 102.955 103.353C113.099 99.9949 116.818 98.287 119.357 95.8754C120.412 94.8813 120.434 94.8754 120.897 95.3681ZM97.8723 102.439C97.968 102.531 97.9494 102.726 97.8571 102.822C97.5641 103.138 93.3547 105.57 92.9144 105.688C92.6061 105.77 91.811 104.916 91.6568 104.341C91.5679 104.009 97.5632 102.166 97.8723 102.439ZM185.144 92.4286C190.797 98.0278 195.393 103.555 201.256 111.872C205.285 117.575 206.173 118.688 209.071 121.753C211.602 124.419 213.774 126.801 213.822 126.978C213.917 127.332 212.711 127.94 209.317 129.276C203.084 131.729 202.575 132.031 196.532 136.78C194.291 138.543 192.254 140.013 192 140.034C191.658 140.078 191.309 139.745 190.626 138.695C189.524 137.045 188.963 136.627 188.149 136.845C187.466 137.028 186.672 138.379 185.987 140.578C185.128 143.274 185.407 143.081 179.51 144.851L174.305 146.388L172.696 146.107C171.809 145.966 169.946 145.706 168.527 145.517C167.113 145.351 165.903 145.058 165.811 144.893C165.72 144.728 165.874 144.07 166.134 143.455C166.748 141.962 168.082 140.775 172.927 137.367C175.013 135.906 177.431 134.097 178.319 133.361C182.426 129.841 184.132 125.993 183.361 121.884C183.005 119.94 182.208 118.019 179.393 112.181C177.744 108.758 177.236 107.566 177.311 107.143C177.392 106.742 177.816 106.296 178.784 105.681C180.609 104.481 181.496 103.65 181.754 102.941C182.208 101.728 181.077 99.091 178.4 95.0893L177.245 93.3355L178.472 92.3665C179.154 91.8281 180.139 90.924 180.687 90.3267C181.219 89.7573 181.702 89.2721 181.768 89.2544C181.834 89.2367 183.347 90.6571 185.144 92.4286ZM106.887 113.801L109.127 113.177L109.281 113.752C109.548 114.748 110.401 115.467 111.582 115.649C112.176 115.751 112.705 115.965 112.753 116.142C112.8 116.319 112.578 117.161 112.239 118.01C111.922 118.854 111.351 120.596 110.992 121.901L110.349 124.255L109.839 123.586C109.13 122.614 108.672 122.665 108.101 123.791L107.598 124.732L107.184 124.155C106.797 123.594 106.676 123.58 105.641 123.857L104.54 124.152L104.249 123.329C103.993 122.639 103.869 122.529 103.273 122.594L102.583 122.661L101.731 119.569C101.274 117.865 100.736 116.208 100.537 115.905L100.195 115.333L102.41 114.882C103.639 114.624 105.638 114.159 106.887 113.801ZM122.335 113.858C123.499 114.59 127.909 118.104 127.986 118.391C128.01 118.48 126.228 119.052 124.004 119.648L119.975 120.727L118.22 118.755C117.249 117.687 116.452 116.739 116.435 116.673C116.364 116.407 120.212 113.597 120.977 113.369C121.169 113.294 121.776 113.534 122.335 113.858ZM179.682 99.9627C179.857 100.177 180.127 100.744 180.258 101.231C180.572 102.404 180.096 103.006 177.635 104.566C175.147 106.11 173.168 107.091 170.102 108.244C166.993 109.41 159.42 111.794 159.174 111.671C159.069 111.628 158.741 110.933 158.433 110.138L157.888 108.719L159.041 108.268C159.684 108.024 161.981 107.172 164.179 106.393C169.388 104.523 173.428 102.777 176.164 101.19C178.863 99.6367 179.231 99.5143 179.682 99.9627ZM131.897 121.802C135.724 125.519 140.627 132.102 141.22 134.314C141.492 135.332 141.456 135.46 140.324 137.4C138.431 140.729 133.639 145.83 128.081 150.45C123.281 154.463 121.896 155.285 116.474 157.33L113.371 158.518L112.929 159.513C112.696 160.05 111.824 161.73 111.05 163.242C108.492 168.053 108.254 169.54 109.61 171.785C110.887 173.909 111.962 174.925 114.298 176.244C117.633 178.125 118.114 178.423 118.772 179.029C120.285 180.449 119.598 181.582 116.617 182.523C114.946 183.066 114.692 183.087 113.995 182.775C112.874 182.293 110.456 180.048 107.796 176.99C105.339 174.163 104.259 172.508 103.808 170.826C103.535 169.808 103.048 169.133 102.838 169.497C102.639 169.811 103.799 173.698 104.376 174.705C104.656 175.223 106.004 176.996 107.334 178.703C108.681 180.381 109.916 181.995 110.087 182.281C110.367 182.799 110.351 182.827 109.25 183.122C107.929 183.476 107.114 183.339 105.866 182.558C103.691 181.22 102.515 179.211 101.015 174.23C100.392 172.168 99.7976 170.478 99.7095 170.502C99.6215 170.525 99.5207 171.382 99.4835 172.388C99.4184 174.611 99.9688 176.93 101.19 179.638C101.651 180.653 101.994 181.58 101.929 181.692C101.73 182.007 97.2016 179.284 96.2489 178.282C95.651 177.636 95.1598 176.772 94.6221 175.469C93.7015 173.179 93.5101 171.76 93.9521 170.503C94.3721 169.252 94.1908 169.016 93.4584 169.805C92.3127 170.99 92.3407 171.622 93.5585 175.991C94.6044 179.719 94.6578 179.918 94.2615 180.024C93.601 180.201 92.1597 179.401 91.4187 178.486C90.8132 177.723 90.7201 177.463 90.4956 175.745C90.383 174.708 89.8384 172.411 89.3142 170.631L88.3707 167.374L89.1269 166.057L89.8991 164.712L94.5666 163.461C99.1241 162.24 99.2943 162.171 100.852 161.113C103.682 159.169 105.621 156.895 109.608 150.728C114.673 142.945 115.529 142.004 123.155 135.763L126.289 133.193L125.927 131.843C125.459 130.095 124.053 126.962 122.695 124.623C122.09 123.599 121.581 122.669 121.539 122.514C121.433 122.115 122.097 121.866 126.16 120.825L129.909 119.844L131.897 121.802ZM175.768 108.694C176.527 109.677 179.777 116.347 180.799 119.014C182.058 122.304 182.289 123.784 181.859 125.701C181.099 128.94 178.624 131.595 172.233 136.011C167.256 139.455 165.945 140.636 164.74 142.833C164.167 143.864 163.079 145.53 162.312 146.542C160.459 148.96 159.939 149.929 159.656 151.688C159.303 153.893 159.864 155.284 162.539 158.836C163.684 160.379 164.627 161.786 164.608 161.981C164.565 162.348 163.64 162.857 162.319 163.211L161.394 163.459L159.667 161.242C158.014 159.124 155.923 155.724 155.639 154.662C155.431 153.887 155.017 153.927 155.065 154.721C155.107 155.848 156.317 158.25 158.375 161.351L160.28 164.232L159.575 164.42C158.474 164.715 156.575 164.584 155.388 164.119C153.495 163.394 152.422 161.855 150.716 157.427C149.294 153.706 148.836 154.374 149.963 158.578C150.643 161.028 150.788 161.392 152.187 163.531C153.574 165.625 153.689 165.879 153.442 166.277C153.222 166.692 153.078 166.683 151.795 166.386C149.929 165.938 148.177 164.771 146.505 162.848C145.246 161.407 144.743 160.498 143.203 156.951L142.988 156.415L142.858 157.162C142.67 158.398 143.136 160.312 143.94 161.638C144.333 162.315 145.494 163.83 146.528 165.047C147.941 166.708 148.345 167.335 148.182 167.52C148.052 167.65 147.305 167.945 146.556 168.146C145.279 168.488 145.063 168.475 144.403 168.035C143.363 167.413 141.185 165.008 139.236 162.401C137.473 160.051 136.395 158.229 135.659 156.363C134.309 152.907 135.95 150.404 142.17 146.58C146.426 143.969 148.266 142.646 150.961 140.288C155.062 136.747 157.383 133.872 162.241 126.286C163.188 124.799 164.865 122.429 165.962 120.973C168.221 118.044 168.623 117.344 168.716 116.37C168.854 115.124 168.684 115.193 167.625 116.876C167.018 117.869 165.892 119.214 164.847 120.158L163.106 121.762L162.821 120.7C162.661 120.103 161.953 118.253 161.242 116.571C160.526 114.865 159.991 113.396 160.055 113.284C160.136 113.144 162.598 112.295 165.513 111.371C168.449 110.442 171.412 109.435 172.115 109.152C172.812 108.846 173.801 108.486 174.324 108.323C175.198 108.065 175.304 108.107 175.768 108.694ZM142.892 138.443C143.112 139 143.498 140.438 143.73 141.657C144.153 143.677 144.146 143.916 143.752 144.117C139.093 146.456 136.435 148.425 134.811 150.733C133.755 152.25 133.124 152.537 128.522 153.77L125.748 154.514L129.799 150.962C135.609 145.872 139.588 141.699 141.379 138.872C141.841 138.131 142.273 137.541 142.333 137.501C142.421 137.478 142.656 137.913 142.892 138.443ZM208.575 133.553C206.617 141.832 202.595 153.771 200.406 157.843C199.913 158.734 198.818 160.284 197.951 161.275C197.09 162.289 196.281 163.407 196.143 163.775C195.893 164.601 195.979 166.949 196.353 168.343L196.631 169.383L195.542 170.339C193.435 172.16 192.258 174.989 192.467 177.708C192.529 178.379 193.679 183.288 195.03 188.593C197.001 196.389 197.756 199.032 198.943 202.318C200.014 205.256 200.38 206.534 200.286 206.891C200.185 207.392 200.031 207.433 196.357 208.252C192.776 209.069 192.43 209.185 191.013 210.063C188.749 211.476 186.879 212.072 185.53 211.793C184.937 211.691 182.528 210.629 180.156 209.439C175.937 207.344 175.336 207.126 172.726 206.806C171.434 206.654 171.406 206.638 170.032 204.943L168.629 203.232L169.713 200.76C170.314 199.39 170.969 197.696 171.183 196.999C171.626 195.481 171.862 192.311 171.601 191.338C171.506 190.984 171.5 190.606 171.592 190.51C171.662 190.42 172.804 190.541 174.075 190.793C177.738 191.519 178.02 191.515 178.908 190.779C182.157 188.106 190.018 175.613 190.975 171.61L191.263 170.395L189.732 168.647C186.243 164.697 182.577 162.549 176.904 161.105L175.181 160.665L173.622 154.847C172.769 151.661 172.052 148.722 172.023 148.351L171.978 147.652L173.439 147.734C176.113 147.848 184.448 145.401 186.186 143.963C186.437 143.754 186.995 142.49 187.391 141.15C187.815 139.827 188.249 138.715 188.359 138.686C188.733 138.585 189.167 139.062 189.77 140.252C190.091 140.925 190.585 141.622 190.882 141.851C191.409 142.232 191.431 142.226 192.629 141.501C193.302 141.108 195.59 139.428 197.739 137.761C203.226 133.493 205.566 132.012 208.175 131.265L209.181 130.972L208.575 133.553ZM133.48 154.22C133.616 154.374 133.641 155.79 133.586 157.346C133.394 161.737 134.307 165.144 136.183 167.036C137.152 168.01 138.081 168.306 139.683 168.209C140.871 168.152 140.977 168.194 141.299 168.867C142.28 170.857 148.183 189.716 148.733 192.651C149.16 194.861 149.081 195.356 148.314 195.752C147.985 195.935 144.944 196.915 141.517 197.952L135.302 199.855L133.953 198.959C132.302 197.908 130.345 195.8 128.956 193.611C128.387 192.72 126.906 190.01 125.674 187.614C124.414 185.2 122.278 181.457 120.911 179.262C116.713 172.49 116.449 171.945 114.939 167.014C113.647 162.807 113.588 162.586 113.803 161.627C114.204 159.954 114.371 159.696 115.48 159.257C116.463 158.875 125.957 155.999 131.026 154.57C132.841 154.036 133.321 153.978 133.48 154.22ZM164.713 148.104C166.031 149.767 167.804 153.299 168.435 155.478C169.283 158.381 169.164 158.816 164.863 167.865C160.76 176.505 159.684 179.093 159.256 181.461C158.898 183.383 159.189 184.467 161.688 190.888C165.403 200.35 166.897 203.459 168.928 206.021C169.817 207.135 170.006 207.487 169.886 207.922C169.758 208.502 168.174 209.899 166.026 211.304C165.282 211.788 164.422 212.54 164.131 212.95C163.839 213.36 163.142 215.16 162.538 216.958C161.322 220.698 160.942 221.393 159.824 221.977C158.608 222.635 158.064 222.543 157.683 221.65C156.836 219.719 152.356 205.908 150.961 200.876L149.939 197.237L150.338 196.087L150.738 194.936L149.227 189.033C148.405 185.791 147.106 181.207 146.34 178.875C145.551 176.549 144.544 173.404 144.047 171.901L143.173 169.171L144.078 169.64C144.569 169.888 145.576 170.827 146.305 171.699C147.797 173.481 149.238 174.541 150.503 174.772C152.833 175.191 161.276 171.648 162.337 169.798C162.643 169.266 162.612 169.061 162.11 167.63C161.674 166.443 161.594 165.966 161.755 165.686C161.861 165.468 162.747 164.898 163.701 164.406C164.654 163.913 165.688 163.28 165.993 163.009C166.482 162.546 166.503 162.446 166.16 161.518C165.939 160.96 164.911 159.41 163.863 158.054C162.284 156.035 161.834 155.326 161.424 154.06C160.868 152.336 160.916 151.635 161.753 149.917C162.244 148.932 163.47 147.252 163.778 147.169C163.866 147.145 164.283 147.556 164.713 148.104ZM167.856 146.977C168.678 147.137 169.551 147.401 169.786 147.575C170.161 147.83 170.49 148.88 171.83 153.88C172.713 157.177 173.508 160.497 173.616 161.251L173.773 162.632L171.236 166.987C169.502 169.941 168.6 171.772 168.39 172.658C168.089 174.091 168.129 176.617 168.52 178.077C168.763 178.985 168.763 178.985 167.88 179.387C166.552 179.98 164.217 181.744 162.544 183.426C161.723 184.238 161.027 184.899 160.983 184.911C160.785 184.964 160.576 183.479 160.635 182.467C160.792 180.148 161.808 177.599 166.096 168.767C171.393 157.887 171.49 156.841 167.794 150.267C166.97 148.78 166.155 147.41 166.03 147.206C165.661 146.712 166.119 146.66 167.856 146.977ZM112.339 164.794C113.584 168.562 114.703 171.417 115.625 173.185C116.261 174.414 116.712 175.479 116.642 175.569C116.365 175.856 114.412 174.909 113.445 174.03C111.1 171.884 110.11 170.039 110.405 168.323C110.604 167.037 111.578 164.95 112.018 164.832C112.195 164.785 112.333 164.772 112.339 164.794ZM137.111 162.045C137.975 163.331 138.984 164.721 139.351 165.12C140.231 166.118 140.229 166.284 139.37 166.514C138.38 166.78 137.108 166.172 136.515 165.193C136.03 164.35 134.695 159.633 134.872 159.325C135.033 159.045 135.344 159.412 137.111 162.045ZM158.052 165.872C158.944 165.941 159.704 166.046 159.76 166.078C159.989 166.23 160.89 168.977 160.779 169.267C160.606 169.764 157.157 171.424 153.941 172.546L151.139 173.534L149.831 172.794C148.496 172.037 147.581 171.001 147.657 170.317C147.676 170.122 148.109 169.627 148.617 169.23C149.146 168.827 149.822 168.267 150.165 167.962C150.746 167.403 150.796 167.413 151.427 167.742C151.762 167.937 152.424 168.115 152.834 168.147C153.553 168.192 153.718 168.1 154.667 167.063C155.237 166.46 155.891 165.906 156.083 165.83C156.281 165.777 157.183 165.796 158.052 165.872ZM179.869 163.63C181.01 164.012 182.548 164.644 183.285 165.015L184.618 165.678L183.175 169.361C180.905 175.067 180.482 177.101 180.548 182.016L180.584 183.998L179.052 182.773C177.043 181.177 174.692 179.886 172.388 179.128C170.303 178.477 170.06 178.187 169.742 176.209C169.336 173.638 170.048 171.716 173.685 165.738C174.421 164.521 175.073 163.256 175.106 162.938L175.168 162.376L176.467 162.645C177.188 162.784 178.723 163.226 179.869 163.63ZM188.975 170.225C189.148 170.606 189.302 171.181 189.319 171.508C189.329 172.336 187.946 175.101 185.058 180.001C182.756 183.914 182.545 184.184 182.331 183.649C181.914 182.622 181.97 178.955 182.45 176.432C182.879 174.159 184.411 169.836 185.497 167.813L185.926 167.035L187.276 168.286C188.029 168.985 188.809 169.867 188.975 170.225ZM171.996 180.656C174.27 181.042 180.019 184.885 180.387 186.257C180.535 186.81 179.928 187.802 178.624 189.1C177.663 190.093 177.873 190.084 173.822 189.059C172.35 188.671 169.748 188.206 168.018 188.006C164.488 187.6 162.595 187.23 162.247 186.896C161.678 186.361 164.977 182.821 167.364 181.423C168.71 180.635 170.271 180.383 171.996 180.656ZM166.04 189.342C167.614 189.489 169.071 189.644 169.287 189.658C169.609 189.714 169.702 189.973 169.921 191.408C170.202 193.159 170.063 195.283 169.523 197.23C169.227 198.329 168.105 200.835 167.833 201.05C167.636 201.198 166.842 199.466 164.719 194.273C162.792 189.548 162.675 189.2 162.983 189.118C163.093 189.088 164.467 189.194 166.04 189.342ZM148.205 198.342C148.392 198.6 149.278 201.113 150.175 203.932C154.551 217.533 155.884 221.539 156.148 222.085C156.406 222.608 156.364 222.715 155.394 223.496C154.832 223.955 153.352 225.3 152.118 226.508C150.879 227.694 149.713 228.718 149.515 228.771C148.547 229.03 147.472 227.397 145.808 223.124C144.058 218.708 142.549 214.133 140.456 206.939L138.564 200.404L143.231 199.153C147.855 197.914 147.899 197.902 148.205 198.342ZM141.153 216.143C141.326 216.263 141.732 216.984 142.072 217.723C142.925 219.676 145.439 226.591 145.364 226.753C145.31 226.815 144.155 226.555 142.776 226.166C141.398 225.776 139.183 225.35 137.848 225.21C135.587 224.962 134.758 224.686 134.61 224.133C134.497 223.713 134.999 221.183 135.376 220.299C136.196 218.254 140.155 215.414 141.153 216.143ZM175.171 208.712C175.894 208.945 177.484 209.681 178.684 210.284C179.89 210.909 182.228 212.061 183.873 212.83C187.671 214.587 188.914 215.439 189.169 216.391C189.483 217.563 189.215 218.323 188.077 219.624C185.747 222.288 184.568 221.939 175.422 215.901C171.98 213.622 169.714 212.474 168.428 212.344C167.531 212.253 167.647 211.984 169.078 210.984C169.75 210.496 170.748 209.731 171.288 209.278C172.535 208.209 173.395 208.073 175.171 208.712ZM167.176 213.747C168.095 213.833 169.412 214.167 170.109 214.479C172.747 215.693 178.747 219.942 180.327 221.7C180.761 222.177 181.291 223.007 181.521 223.515C182.329 225.385 181.057 226.627 178.831 226.156C177.676 225.897 174.668 224.711 170.147 222.721C168.274 221.895 166.023 220.98 165.144 220.694C164.243 220.414 163.496 220.092 163.46 219.959C163.342 219.517 165.128 213.679 165.414 213.602C165.458 213.591 166.25 213.639 167.176 213.747ZM198.721 209.326C202.143 208.622 202.193 208.633 202.614 210.203C202.803 210.911 203.029 212.369 203.109 213.462C203.19 214.555 203.276 215.67 203.303 215.947C203.384 217.04 202.45 218.31 199.832 220.695C198.384 221.984 196.271 223.783 195.142 224.679C190.114 228.635 177.479 236.17 177.259 235.351C177.23 235.241 177.564 234.463 177.985 233.568C178.961 231.575 179.09 230.735 178.634 229.031C178.313 227.836 178.316 227.67 178.698 227.686C182.245 227.802 183.99 226.125 183.237 223.316L183 222.431L184.387 222.675C185.131 222.808 186.099 222.81 186.517 222.698C188.344 222.208 191.031 218.761 190.919 217.108C190.828 216.065 190.341 215.128 189.354 214.088C188.926 213.634 188.581 213.228 188.597 213.2C188.636 213.166 189.122 212.87 189.675 212.556C190.25 212.236 191.29 211.625 192.024 211.191C192.937 210.638 193.794 210.314 194.803 210.115C195.613 209.969 197.382 209.613 198.721 209.326ZM136.878 226.608C139.081 226.729 141.947 227.384 143.958 228.197C145.673 228.875 148.013 230.122 148.072 230.343C148.096 230.431 147.52 231.274 146.801 232.201C145.676 233.641 144.825 235.221 144.129 237.114C143.988 237.555 143.878 237.585 141.789 237.718C139.889 237.847 133.677 238.089 126.237 238.328C123.103 238.433 123.103 238.433 123.296 236.247C123.659 232.142 124.945 230.422 129.134 228.446C131.854 227.148 134.74 226.469 136.878 226.608ZM165.134 222.333C165.996 222.553 166.98 222.881 167.354 223.042L168.029 223.359L167.437 223.352C166.519 223.361 162.532 222.485 162.279 222.244C161.862 221.834 163.506 221.892 165.134 222.333ZM160.314 223.98C162.411 224.058 170.121 225.621 172.664 226.481C174.974 227.261 176.678 228.251 177.136 229.077C177.901 230.437 177.337 232.295 175.387 234.881L174.409 236.162L172.772 236.482C171.135 236.802 170.587 236.783 158.16 235.845C153.873 235.523 151.001 235.724 147.632 236.626L145.535 237.165L146.636 235.376C148.301 232.606 153.009 227.455 155.89 225.26C157.237 224.212 158.354 223.889 160.314 223.98ZM132.836 239.619C138.944 239.429 144.02 239.349 144.144 239.458C144.267 239.567 144.666 240.528 145.011 241.55C145.361 242.594 146.052 244.116 146.548 244.908C147.9 247.226 147.926 247.147 146.004 247.9C145.081 248.242 142.463 249.038 140.151 249.658C134.047 251.27 131.443 251.327 127.74 249.924C124.354 248.65 121.444 246.418 120.544 244.383C120.014 243.197 120.477 240.346 121.248 240.139C121.534 240.062 126.756 239.825 132.836 239.619ZM206.213 218.44C208.267 219.502 208.564 220.964 207.127 222.819C205.353 225.096 195.021 234.268 191.454 236.717C189.225 238.263 183.428 241.287 181.35 241.986C179.838 242.509 179.656 242.534 179.423 242.194C179.298 241.99 178.505 240.969 177.647 239.966C176.352 238.393 176.169 238.062 176.38 237.792C176.52 237.612 177.534 237.08 178.593 236.63C185.686 233.686 198.407 224.8 203.43 219.328C204.064 218.612 204.728 218.008 204.86 217.972C205.015 217.931 205.638 218.143 206.213 218.44ZM151.299 237.541C154.292 237 154.79 237.009 163.387 237.74C166.456 238.009 170.049 238.208 171.393 238.204C174.235 238.154 174.728 238.235 174.871 238.766C174.924 238.965 175.695 239.992 176.581 241.011C177.452 242.058 178.149 242.986 178.079 243.076C177.805 243.552 175.821 244.25 170.339 245.719L164.284 247.341L158.799 247.127C151.455 246.842 149.886 246.622 148.939 245.643C148.15 244.811 146.73 242.417 146.013 240.712C145.222 238.814 145.626 238.563 151.299 237.541ZM195.97 235.958C196.465 236.133 197.248 237.56 197.319 238.442C197.372 238.902 197.365 239.758 197.303 240.32L197.206 241.365L190.88 242.942C187.405 243.802 181.723 245.229 178.271 246.083L172.01 247.642L173.089 251.052L174.19 254.457L171.205 255.114C169.558 255.485 166.578 256.164 164.55 256.613C162.529 257.083 160.628 257.474 160.346 257.478L159.782 257.487L158.732 253.216C158.12 250.842 157.68 248.85 157.728 248.766C157.777 248.682 158.744 248.683 159.896 248.754C163.451 248.987 166.39 248.508 172.409 246.753C180.398 244.422 186.993 241.47 192.568 237.794C192.627 237.755 192.685 237.717 192.741 237.679C195.516 235.842 195.56 235.812 195.97 235.958ZM150.718 248.581C151.952 248.345 153.587 248.192 154.344 248.202L155.7 248.242L156.323 250.565L156.939 252.866L156.235 253.055C151.737 254.236 139.129 257.117 137.717 257.305C135.52 257.562 134.887 257.4 134.254 256.36C133.634 255.364 133.413 253.574 133.837 253.128C134.212 252.767 147.432 249.177 150.718 248.581ZM171.729 256.895C171.952 257.025 175.549 267.894 176.53 271.378C176.583 271.577 176.846 271.767 177.128 271.763C177.92 271.811 179.451 272.682 180.241 273.514C181.335 274.691 181.927 277.164 181.543 278.903C181.009 281.489 179.358 282.903 175.858 283.841L173.656 284.431L172.612 283.881C171.111 283.121 169.53 281.363 169.187 280.08C168.866 278.885 169.042 277.866 169.935 275.564C170.838 273.211 170.853 273.089 170.219 270.721C169.632 268.531 166.852 260.359 166.183 258.831L165.82 258.004L168.624 257.371C170.183 257.024 171.589 256.814 171.729 256.895ZM82.4157 55.1458C82.1727 55.4718 81.3277 57.0736 80.5326 58.6857C79.7434 60.32 78.6858 62.0973 78.176 62.6607C76.988 63.9513 75.3275 64.7994 73.7753 64.907C73.1452 64.9335 72.627 65.025 72.6507 65.1135C72.8108 65.7108 75.3131 66.1549 77.4835 65.9765C78.7316 65.8791 79.172 65.7611 80.36 65.0871C81.7183 64.3438 82.3237 63.8733 88.1428 58.9942C90.916 56.6623 92.8941 55.326 94.6563 54.593C95.1889 54.3791 95.73 54.0207 95.8147 53.8083C96.0966 53.1874 94.9382 53.3555 92.4774 54.2994C89.8083 55.3466 88.9184 55.9882 83.8284 60.5059C81.7546 62.3658 79.9781 63.8378 79.8942 63.7891C79.8324 63.7345 80.0526 63.059 80.4311 62.2699C81.1923 60.6194 83.1982 55.6001 83.3565 54.87C83.5106 54.2122 83.0042 54.3478 82.4157 55.1458ZM104.069 50.2686C100.425 51.8143 97.3254 55.3955 96.6083 58.8838C96.1858 60.9178 96.5567 61.2452 97.2383 59.4738C98.4864 56.2937 100.442 53.9914 103.082 52.5725C104.731 51.6802 108.319 50.7186 110.369 50.6198C113.746 50.4503 117.968 52.1171 121.226 54.9432C123.143 56.6351 123.288 56.1218 121.455 54.1232C119.881 52.3871 115.508 49.7172 113.587 49.3307C110.49 48.6905 106.973 49.04 104.069 50.2686ZM64.3986 63.5542C63.8405 64.2017 63.1834 65.184 62.9718 65.715L62.5907 66.6708L63.2657 67.6045C64.53 69.3288 64.5139 69.3568 63.5952 70.8598C62.5901 72.4808 62.585 72.8141 63.6206 72.2758C64.486 71.8067 65.9332 69.5456 65.912 68.6739C65.917 68.3406 65.6926 67.8553 65.3937 67.5323C64.6264 66.6944 64.5841 66.1841 65.1734 64.5085C66.104 61.8167 65.9685 61.6633 64.3986 63.5542ZM112.202 65.8269C111.792 66.0555 111.394 67.9169 111.589 68.6471C111.661 68.9126 112.089 69.3669 112.536 69.6265C113.676 70.2696 114.711 69.9923 115.519 68.7799C116.294 67.6236 116.271 66.9185 115.457 66.2592C114.485 65.4523 113.16 65.262 112.202 65.8269ZM73.1239 85.2854C72.477 86.2175 72.5193 87.3444 73.2527 88.1439C73.5516 88.4669 74.0165 88.7929 74.2723 88.8666C75.855 89.2251 77.496 87.5997 77.087 86.0731C76.838 85.1438 75.9022 84.4698 74.8124 84.4535C73.6565 84.4549 73.7166 84.4151 73.1239 85.2854ZM134.509 76.6863C133.966 77.2114 133.381 77.9371 133.244 78.3058C132.287 80.7203 134.746 83.3813 137.802 83.2501C138.99 83.1926 139.188 83.1395 139.808 82.5466C140.787 81.6203 140.96 80.1512 140.323 78.306C140.038 77.5051 139.579 76.5847 139.258 76.2675C138.112 74.9857 136.18 75.1715 134.509 76.6863ZM138.041 77.1864C138.781 78.008 139.403 79.7146 139.251 80.4668C138.948 81.8046 137.373 82.1792 135.808 81.2706C134.327 80.4106 134.242 79.0345 135.566 77.6362C136.451 76.7114 137.443 76.5404 138.041 77.1864Z" fill="black"/>
<path d="M198.721 209.326C202.143 208.622 202.193 208.633 202.614 210.204C202.803 210.912 203.029 212.369 203.109 213.462C203.19 214.555 203.276 215.67 203.303 215.947C203.384 217.04 202.45 218.31 199.832 220.695C198.384 221.984 196.271 223.783 195.142 224.679C190.114 228.635 177.479 236.17 177.259 235.351C177.23 235.241 177.564 234.463 177.985 233.568C178.961 231.575 179.09 230.735 178.634 229.031C178.313 227.836 178.316 227.67 178.698 227.686C182.245 227.802 183.99 226.125 183.237 223.316L183 222.431L184.387 222.675C185.131 222.808 186.099 222.81 186.517 222.698C188.344 222.208 191.031 218.761 190.919 217.108C190.828 216.065 190.341 215.128 189.354 214.088C188.926 213.634 188.581 213.228 188.597 213.2C188.636 213.166 189.122 212.87 189.675 212.556C190.25 212.236 191.29 211.625 192.024 211.191C192.937 210.638 193.794 210.314 194.803 210.115C195.613 209.969 197.382 209.613 198.721 209.326Z" fill="black"/>
<path d="M97.823 97.8514L98.3566 99.8426L97.553 100.366C97.1101 100.651 95.6003 101.269 94.1929 101.741L91.6584 102.586L91.4052 101.112C91.2578 100.298 91.1511 99.2834 91.1765 98.8498C91.2027 98.155 91.273 98.0651 92.1096 97.8409C92.616 97.7052 93.4992 97.3026 94.0462 96.9663C94.6212 96.6462 95.5764 96.248 96.1768 96.1108L97.2895 95.8601L97.823 97.8514Z" fill="#FEFFBB"/>
<path d="M105.104 94.288C105.293 95.2571 105.463 96.4208 105.487 96.8648C105.541 97.6805 105.541 97.6805 104.39 97.9651C102.925 98.3102 102.496 98.117 102.203 96.9385C101.805 95.3617 101.987 94.459 102.912 93.5947C103.363 93.1655 103.987 92.7614 104.273 92.6847C104.801 92.5431 104.807 92.5652 105.104 94.288Z" fill="#FEFFBB"/>
<path d="M109.708 92.8883C110.596 92.7689 111.44 92.6612 111.594 92.6199C111.815 92.561 111.937 92.9312 112.183 94.2882C112.35 95.2631 112.439 96.2116 112.342 96.3797C112.264 96.6142 111.473 96.921 109.799 97.3693L107.378 98.0183L107.01 96.03C106.491 93.2998 106.495 93.2275 107.373 93.1582C107.787 93.1184 108.841 93.0019 109.708 92.8883Z" fill="#FEFFBB"/>
<path d="M97.8723 102.439C97.968 102.531 97.9493 102.726 97.857 102.822C97.5641 103.138 93.3547 105.57 92.9143 105.688C92.6061 105.77 91.8109 104.916 91.6568 104.341C91.5679 104.009 97.5632 102.166 97.8723 102.439Z" fill="#FEFFBB"/>
<path d="M106.887 113.801L109.127 113.177L109.281 113.752C109.548 114.748 110.401 115.467 111.582 115.649C112.176 115.751 112.705 115.964 112.753 116.141C112.8 116.318 112.578 117.161 112.239 118.01C111.922 118.854 111.351 120.596 110.992 121.901L110.349 124.255L109.839 123.586C109.13 122.614 108.672 122.665 108.101 123.791L107.598 124.732L107.184 124.155C106.797 123.594 106.676 123.58 105.641 123.857L104.54 124.152L104.249 123.329C103.993 122.639 103.869 122.529 103.273 122.594L102.583 122.661L101.731 119.569C101.274 117.865 100.736 116.208 100.537 115.905L100.195 115.333L102.41 114.882C103.639 114.623 105.638 114.159 106.887 113.801Z" fill="#545151"/>
<path d="M138.041 77.1864C138.781 78.008 139.403 79.7146 139.251 80.4668C138.948 81.8046 137.373 82.1792 135.808 81.2706C134.327 80.4106 134.242 79.0345 135.566 77.6362C136.451 76.7115 137.443 76.5404 138.041 77.1864Z" fill="#9FA05C"/>
<path d="M136.233 87.9626C136.539 90.5128 136.052 92.6589 134.871 93.7106C134.185 94.3212 131.958 95.7002 131.408 95.8477C131.276 95.8831 131.089 95.625 131 95.2931C130.656 94.0099 131.084 91.026 132.207 86.7648L132.73 84.7515L134.418 85.7692L136.079 86.7708L136.233 87.9626Z" fill="#9FA05C"/>
<path d="M179.682 99.9627C179.857 100.177 180.127 100.744 180.258 101.231C180.572 102.404 180.096 103.006 177.635 104.566C175.147 106.11 173.168 107.091 170.102 108.244C166.993 109.41 159.42 111.794 159.174 111.671C159.069 111.628 158.741 110.933 158.433 110.138L157.888 108.719L159.041 108.268C159.684 108.024 161.981 107.172 164.179 106.393C169.388 104.523 173.428 102.777 176.164 101.19C178.863 99.6367 179.231 99.5143 179.682 99.9627Z" fill="white"/>
<path d="M206.213 218.44C208.267 219.502 208.564 220.964 207.127 222.819C205.353 225.096 195.021 234.268 191.454 236.717C189.225 238.263 183.428 241.287 181.35 241.986C179.838 242.509 179.656 242.534 179.423 242.194C179.298 241.99 178.505 240.97 177.647 239.967C176.352 238.393 176.169 238.062 176.38 237.792C176.52 237.612 177.534 237.08 178.593 236.63C185.686 233.686 198.407 224.8 203.43 219.328C204.064 218.612 204.728 218.008 204.86 217.972C205.015 217.931 205.638 218.143 206.213 218.44Z" fill="#BABABA"/>
<path d="M151.299 237.541C154.292 237 154.79 237.009 163.387 237.74C166.456 238.009 170.049 238.208 171.393 238.204C174.235 238.154 174.728 238.235 174.871 238.766C174.924 238.965 175.695 239.992 176.581 241.011C177.452 242.058 178.149 242.986 178.079 243.076C177.805 243.552 175.821 244.25 170.339 245.719L164.284 247.341L158.799 247.127C151.455 246.842 149.886 246.622 148.939 245.643C148.15 244.811 146.73 242.417 146.013 240.712C145.222 238.814 145.626 238.563 151.299 237.541Z" fill="#BABABA"/>
<path d="M132.836 239.619C138.944 239.429 144.02 239.349 144.144 239.458C144.267 239.567 144.666 240.528 145.011 241.55C145.361 242.594 146.052 244.116 146.548 244.908C147.9 247.226 147.926 247.147 146.004 247.9C145.081 248.242 142.463 249.038 140.151 249.658C134.047 251.27 131.443 251.327 127.74 249.924C124.354 248.65 121.443 246.418 120.544 244.383C120.014 243.197 120.477 240.346 121.248 240.139C121.534 240.062 126.756 239.825 132.836 239.619Z" fill="#BABABA"/>
<path d="M175.171 208.712C175.894 208.945 177.484 209.681 178.684 210.284C179.89 210.909 182.228 212.061 183.873 212.83C187.671 214.587 188.914 215.439 189.169 216.391C189.483 217.563 189.215 218.323 188.077 219.624C185.747 222.288 184.568 221.939 175.422 215.901C171.98 213.622 169.714 212.474 168.428 212.344C167.531 212.253 167.647 211.984 169.079 210.984C169.75 210.496 170.748 209.731 171.288 209.278C172.535 208.209 173.395 208.073 175.171 208.712Z" fill="#313E4A"/>
<path d="M167.176 213.747C168.095 213.833 169.412 214.167 170.109 214.479C172.747 215.693 178.747 219.942 180.327 221.7C180.761 222.177 181.291 223.007 181.521 223.515C182.329 225.385 181.057 226.627 178.831 226.156C177.676 225.897 174.668 224.711 170.147 222.721C168.274 221.895 166.023 220.98 165.144 220.694C164.243 220.414 163.496 220.092 163.46 219.959C163.342 219.517 165.128 213.679 165.414 213.602C165.459 213.591 166.25 213.639 167.176 213.747Z" fill="#313E4A"/>
<path d="M160.314 223.98C162.411 224.058 170.121 225.621 172.664 226.481C174.974 227.261 176.678 228.251 177.136 229.077C177.901 230.437 177.337 232.295 175.387 234.881L174.409 236.162L172.772 236.482C171.135 236.802 170.588 236.783 158.16 235.845C153.873 235.523 151.001 235.724 147.632 236.626L145.535 237.165L146.636 235.376C148.301 232.606 153.009 227.455 155.89 225.26C157.237 224.212 158.354 223.889 160.314 223.98Z" fill="#313E4A"/>
<path d="M141.153 216.143C141.326 216.263 141.732 216.984 142.072 217.723C142.925 219.676 145.439 226.591 145.364 226.753C145.31 226.815 144.155 226.555 142.776 226.166C141.398 225.776 139.183 225.35 137.848 225.21C135.587 224.962 134.758 224.686 134.61 224.133C134.497 223.713 134.999 221.183 135.376 220.299C136.197 218.254 140.155 215.414 141.153 216.143Z" fill="#313E4A"/>
<path d="M136.878 226.608C139.081 226.729 141.947 227.384 143.958 228.197C145.673 228.875 148.013 230.122 148.072 230.343C148.096 230.431 147.52 231.274 146.801 232.201C145.676 233.641 144.825 235.221 144.129 237.114C143.988 237.556 143.878 237.585 141.789 237.718C139.889 237.847 133.677 238.089 126.237 238.328C123.103 238.433 123.103 238.433 123.296 236.247C123.659 232.142 124.945 230.422 129.134 228.446C131.854 227.148 134.74 226.469 136.878 226.608Z" fill="#313E4A"/>
<path d="M165.134 222.333C165.996 222.553 166.981 222.881 167.354 223.042L168.029 223.359L167.437 223.352C166.519 223.361 162.532 222.485 162.279 222.244C161.862 221.834 163.506 221.892 165.134 222.333Z" fill="#313E4A"/>
<path fill-rule="evenodd" clip-rule="evenodd" d="M111 56.1422C114.743 56.1113 118.46 57.6528 120.724 60.2001L121.909 61.5424L118.986 67.5425L116.057 73.5206L112.834 76.0206C109.223 78.8377 108.375 79.3731 107.485 79.3982C106.191 79.4129 102.743 77.1118 100.796 74.9539C100.181 74.2414 99.9841 73.7724 99.249 71.0289C98.4487 68.042 98.4233 67.8591 98.7137 66.4771C99.6137 62.0861 102.03 58.9488 105.889 57.061C106.706 56.676 109.496 56.1658 111 56.1422ZM111.589 68.6471C111.394 67.917 111.792 66.0556 112.202 65.827C113.16 65.2621 114.485 65.4524 115.457 66.2592C116.27 66.9186 116.294 67.6236 115.519 68.78C114.711 69.9924 113.676 70.2696 112.536 69.6265C112.089 69.3669 111.661 68.9126 111.589 68.6471Z" fill="#FFE8E8"/>
<path fill-rule="evenodd" clip-rule="evenodd" d="M74.8274 78.5212C77.5837 78.328 80.1928 79.1703 82.1269 80.9285C83.9095 82.5614 84.8343 84.1632 85.5931 86.9952C85.9369 88.2785 86.169 89.4968 86.1004 89.6812C85.9912 90.0661 86.1233 90.0308 78.8434 90.8669C74.7863 91.3137 68.7139 92.2531 67.3049 92.6307C65.9398 92.9964 65.7129 92.6778 65.6586 90.2736C65.595 87.6584 66.4061 83.5521 67.2706 82.1111C67.6466 81.4887 68.363 80.7276 68.9803 80.3013C70.1768 79.4827 72.8831 78.6627 74.8274 78.5212ZM73.2527 88.1439C72.5193 87.3444 72.4769 86.2176 73.1239 85.2854C73.7166 84.4152 73.6565 84.455 74.8124 84.4535C75.9022 84.4698 76.8379 85.1439 77.0869 86.0731C77.496 87.5998 75.8549 89.2251 74.2722 88.8667C74.0165 88.7929 73.5516 88.4669 73.2527 88.1439Z" fill="#FFE8E8"/>
<path d="M123.236 65.5264C123.838 69.1828 123.521 72.1372 122.306 74.3836C121.562 75.745 121.071 75.8526 119.81 74.9337C117.995 73.618 117.977 73.5516 118.656 71.9468C119.839 69.14 122.701 63.4407 122.859 63.5882C122.886 63.6044 123.052 64.485 123.236 65.5264Z" fill="#FFE8E8"/>
<path d="M72.2122 93.3313C81.5761 91.8182 85.9684 91.5661 86.9694 92.4836C87.6494 93.0839 88.2439 96.0074 88.0069 97.5885C87.7944 98.9971 86.7969 100.735 85.5293 101.904C84.6046 102.769 84.3302 102.89 82.2107 103.434C80.2673 103.931 79.6271 104.007 78.2138 103.841C73.7698 103.372 69.9625 101.404 68.0139 98.535C67.3212 97.5349 66.1618 94.8814 66.2829 94.5407C66.3718 94.256 65.7875 94.3651 72.2122 93.3313Z" fill="#D7DFF4"/>
<path d="M118.837 76.1431C121.331 77.9648 122.68 79.2156 122.84 79.813C123.024 80.4988 121.708 82.9856 120.267 84.6523C117.646 87.7261 114.331 89.7998 110.248 90.9414C107.898 91.5947 107.622 91.6213 106.417 91.3513C104.679 90.9397 99.7535 88.9395 99.8424 88.6549C100.004 88.1136 116.09 75.3141 116.876 75.0796C117.074 75.0265 117.957 75.5015 118.837 76.1431Z" fill="#D7DFF4"/>
<path d="M115.329 91.7616C117.29 92.5641 118.687 93.3753 118.806 93.8178C118.865 94.0391 118.608 94.4875 118.172 94.8886C117.312 95.6409 114.118 97.635 113.458 97.8119C113.061 97.9181 113.076 97.7957 113.541 96.8886C114.016 95.9313 114.038 95.6644 113.756 94.0802C113.465 92.3796 113.486 91.4017 113.86 91.3014C113.948 91.2778 114.616 91.4784 115.329 91.7616Z" fill="#571621"/>
<path d="M100.872 97.3426C101.668 99.7852 101.752 99.8338 104.225 99.5507C105.207 99.4298 106.247 99.4357 106.581 99.536C106.97 99.6688 107.837 99.5552 109.318 99.1821C112.858 98.3046 110.211 99.3458 104.644 101.027C99.1874 102.679 99.2094 102.673 99.6099 100.645C99.7419 99.9931 99.6996 98.8662 99.5403 98.0078C99.1058 95.6817 99.1126 95.4427 99.7088 95.3779C100.167 95.3262 100.246 95.4472 100.872 97.3426Z" fill="#571621"/>
<path d="M97.8723 102.439C97.968 102.531 97.9493 102.726 97.857 102.822C97.5641 103.138 93.3547 105.57 92.9143 105.688C92.6061 105.77 91.8109 104.916 91.6568 104.341C91.5679 104.009 97.5632 102.166 97.8723 102.439Z" fill="#571621"/>
<path d="M120.897 95.3682C121.568 96.113 121.901 97.7075 121.621 99.0394C121.014 101.882 117.306 105.128 111.776 107.653C109.95 108.498 108.278 109.041 103.743 110.256L98.0183 111.79L95.2594 111.533C93.736 111.396 92.3049 111.163 92.0813 111.033C91.696 110.828 91.7045 110.684 92.033 109.884C92.6477 108.392 94.1406 106.83 95.7571 105.993C96.5743 105.608 99.7938 104.414 102.955 103.353C113.099 99.995 116.818 98.287 119.357 95.8755C120.412 94.8814 120.434 94.8755 120.897 95.3682Z" fill="#A2060F"/>
<path d="M175.768 108.695C176.527 109.677 179.777 116.347 180.799 119.014C182.058 122.304 182.289 123.784 181.859 125.701C181.099 128.94 178.624 131.595 172.233 136.011C167.256 139.455 165.945 140.636 164.74 142.833C164.167 143.864 163.079 145.53 162.312 146.542C160.459 148.96 159.939 149.929 159.656 151.688C159.303 153.893 159.864 155.284 162.539 158.836C163.684 160.379 164.627 161.786 164.608 161.981C164.565 162.348 163.64 162.857 162.319 163.211L161.394 163.459L159.667 161.242C158.014 159.124 155.923 155.724 155.639 154.662C155.431 153.887 155.017 153.927 155.065 154.721C155.107 155.848 156.317 158.25 158.375 161.351L160.279 164.232L159.575 164.42C158.474 164.715 156.575 164.584 155.388 164.119C153.495 163.394 152.422 161.855 150.716 157.427C149.294 153.706 148.836 154.374 149.963 158.578C150.643 161.028 150.788 161.392 152.187 163.531C153.574 165.625 153.689 165.879 153.442 166.277C153.222 166.692 153.078 166.683 151.795 166.386C149.929 165.938 148.177 164.771 146.505 162.848C145.246 161.407 144.743 160.498 143.203 156.951L142.988 156.415L142.858 157.162C142.67 158.398 143.136 160.312 143.939 161.638C144.333 162.315 145.494 163.83 146.528 165.047C147.941 166.708 148.345 167.335 148.182 167.521C148.052 167.65 147.305 167.945 146.556 168.146C145.279 168.488 145.063 168.475 144.403 168.035C143.363 167.413 141.185 165.008 139.235 162.401C137.473 160.051 136.395 158.229 135.659 156.363C134.308 152.907 135.95 150.405 142.17 146.58C146.426 143.969 148.266 142.646 150.961 140.288C155.062 136.747 157.383 133.872 162.241 126.286C163.188 124.8 164.865 122.429 165.962 120.973C168.221 118.044 168.623 117.344 168.716 116.37C168.854 115.124 168.684 115.193 167.625 116.876C167.018 117.869 165.891 119.214 164.847 120.158L163.106 121.763L162.821 120.701C162.661 120.103 161.953 118.254 161.242 116.571C160.526 114.865 159.991 113.396 160.055 113.284C160.136 113.144 162.598 112.295 165.513 111.371C168.449 110.442 171.412 109.435 172.115 109.152C172.812 108.846 173.801 108.486 174.324 108.323C175.198 108.065 175.304 108.107 175.768 108.695Z" fill="#1FE4FF"/>
<path d="M131.897 121.802C135.724 125.519 140.627 132.102 141.22 134.314C141.492 135.332 141.456 135.46 140.324 137.4C138.431 140.729 133.639 145.831 128.081 150.45C123.281 154.463 121.896 155.285 116.474 157.331L113.371 158.518L112.929 159.513C112.696 160.05 111.824 161.73 111.05 163.242C108.492 168.053 108.254 169.54 109.61 171.785C110.887 173.909 111.962 174.925 114.298 176.244C117.633 178.125 118.114 178.423 118.772 179.029C120.285 180.449 119.598 181.582 116.617 182.523C114.946 183.066 114.692 183.087 113.995 182.775C112.874 182.293 110.456 180.048 107.796 176.99C105.339 174.163 104.259 172.508 103.808 170.826C103.535 169.809 103.048 169.133 102.838 169.497C102.639 169.811 103.799 173.698 104.376 174.705C104.656 175.223 106.004 176.996 107.334 178.703C108.681 180.381 109.916 181.995 110.087 182.281C110.367 182.799 110.351 182.827 109.25 183.122C107.929 183.476 107.114 183.339 105.866 182.558C103.691 181.22 102.515 179.212 101.015 174.23C100.392 172.168 99.7975 170.478 99.7095 170.502C99.6214 170.525 99.5207 171.382 99.4834 172.388C99.4183 174.611 99.9688 176.93 101.19 179.638C101.651 180.653 101.994 181.58 101.929 181.692C101.73 182.007 97.2015 179.284 96.2488 178.282C95.651 177.636 95.1598 176.772 94.622 175.469C93.7015 173.179 93.5101 171.76 93.9521 170.503C94.372 169.252 94.1908 169.016 93.4584 169.805C92.3127 170.99 92.3406 171.622 93.5585 175.991C94.6044 179.719 94.6578 179.918 94.2615 180.024C93.601 180.201 92.1597 179.402 91.4187 178.486C90.8132 177.723 90.72 177.463 90.4956 175.745C90.3829 174.708 89.8384 172.412 89.3141 170.631L88.3707 167.374L89.1268 166.057L89.8991 164.712L94.5666 163.461C99.1241 162.24 99.2943 162.171 100.852 161.113C103.681 159.169 105.621 156.895 109.608 150.728C114.672 142.945 115.529 142.004 123.155 135.763L126.289 133.193L125.927 131.843C125.459 130.095 124.053 126.962 122.694 124.623C122.09 123.599 121.581 122.669 121.539 122.514C121.433 122.115 122.097 121.866 126.16 120.825L129.909 119.844L131.897 121.802Z" fill="#1FE4FF"/>
<path d="M179.869 163.63C181.01 164.012 182.548 164.644 183.285 165.015L184.618 165.678L183.175 169.361C180.905 175.067 180.482 177.101 180.548 182.016L180.584 183.998L179.052 182.773C177.043 181.177 174.692 179.886 172.388 179.128C170.303 178.477 170.06 178.187 169.742 176.209C169.336 173.638 170.048 171.716 173.685 165.738C174.421 164.521 175.073 163.256 175.106 162.938L175.168 162.376L176.467 162.645C177.188 162.784 178.723 163.226 179.869 163.63Z" fill="#1FE4FF"/>
<path fill-rule="evenodd" clip-rule="evenodd" d="M97.9649 35.5894C98.4612 36.1204 99.0972 36.7326 99.3825 36.917C99.9093 37.2975 99.9033 37.2754 99.4951 36.1043C99.2512 35.4582 98.9455 34.7576 98.7982 34.5599C98.5771 34.2634 98.6754 34.1897 99.534 33.9596C100.701 33.647 101.18 33.8505 102.064 35.0364L102.682 35.8433L102.466 34.5969L102.25 33.3505L103.356 33.0777C106.225 32.3329 107.584 32.5616 107.928 33.8448C108.165 34.7298 108.527 34.5853 108.707 33.4938C108.869 32.6914 108.961 32.5955 109.602 32.5188C110.408 32.4451 113.538 32.7682 113.924 32.9732C114.058 33.0322 114.051 33.8877 113.887 34.9512C113.718 35.9925 113.673 36.8819 113.779 36.9247C113.869 36.9955 114.415 36.3038 115.002 35.4114C115.589 34.5191 116.167 33.7713 116.277 33.7418C116.415 33.7285 117.422 34.0515 118.546 34.4616L120.596 35.2404L119.89 36.5679C119.199 37.8674 119.096 38.2744 119.042 39.5695C119.003 40.481 119.488 40.0902 120.726 38.1934L121.9 36.4087L122.836 37.0828L123.787 37.7289L123.353 39.102C123.107 39.8557 122.937 40.5416 122.954 40.608C123.02 40.8514 123.462 40.5667 124.151 39.7894C124.53 39.3558 124.983 39.0209 125.161 39.0682C125.934 39.3115 130.281 45.1423 132.104 48.4241C134.081 51.9258 138.249 61.6696 137.964 62.1018C137.893 62.1918 137.302 62.5398 136.633 62.8614C135.027 63.6475 133.273 65.1136 132.715 66.1166C132.174 67.0915 132.472 67.0591 134.068 65.9676C135.423 65.0355 138.894 63.9868 139.024 64.4736C139.232 65.248 138.91 67.0416 138.421 67.8602C137.933 68.6788 137.692 68.838 135.678 69.6861C133.004 70.8056 132.321 71.2495 131.255 72.5548C129.042 75.3056 128.697 79.4769 130.469 82.3929C131.627 84.3355 131.64 84.7352 130.64 87.8725C129.519 91.3505 129.132 93.5172 129.341 95.0025C129.486 95.9834 129.382 96.3905 128.543 98.0144C127.658 99.8168 127.31 101.072 127.383 102.404C127.52 104.762 124.201 108.758 118.685 112.916C115.617 115.208 115.085 115.422 113.575 114.807C112.918 114.556 112.071 114.214 111.687 114.103C111.226 113.966 110.917 113.693 110.822 113.339C110.585 112.454 109.987 111.808 109.423 111.817C109.119 111.827 107.922 112.029 106.766 112.292C105.609 112.554 103.668 112.885 102.482 113.036L100.307 113.287L103.672 112.196C114.324 108.796 119.874 105.554 122.391 101.299C123.314 99.7238 123.447 98.8108 122.985 97.085C122.191 94.1203 120.289 92.045 117.445 91.0286C116.822 90.8162 116.275 90.5359 116.245 90.4253C116.215 90.3147 116.689 89.8796 117.284 89.4592C119.938 87.5625 122.509 84.7394 123.722 82.3987C124.732 80.4443 124.685 79.6508 123.566 78.0298L122.726 76.8321L123.674 74.8231C124.202 73.7096 124.778 72.2508 124.949 71.5649C125.261 70.177 125.077 67.025 124.524 64.8729C123.776 61.9908 123.808 61.3182 124.77 59.1869C125.238 58.1131 126.258 56.1087 126.997 54.7251L128.34 52.2546L129.888 52.2192C131.602 52.1868 132.135 51.973 131.963 51.3313C131.827 50.8225 131.427 50.7398 129.197 50.697L127.422 50.6748L126.388 52.5407C125.82 53.5938 124.756 55.6101 124.029 57.0378L122.699 59.647L121.654 58.7414C121.092 58.2281 119.681 57.2781 118.507 56.5967C115.03 54.5405 111.506 54.1569 107.185 55.291C102.781 56.4709 100.09 58.757 98.1487 63.0477C96.7973 66.0183 96.7796 68.4181 98.0008 72.3593C99.1907 76.0954 99.9478 76.9834 104.516 79.7668C105.702 80.4925 106.42 81.0589 106.318 81.205C106.237 81.3451 105.174 82.2227 103.986 83.1578L101.782 84.8864L100.641 84.7654C98.8455 84.5825 96.6243 83.162 95.3202 81.3772C94.0897 79.6913 93.6121 79.5821 94.271 81.1604C95.1263 83.2077 96.1823 84.4187 98.0487 85.4837L99.8033 86.4837L98.8769 87.2537L97.9505 88.0236L95.6218 87.0825C94.3457 86.547 92.5656 85.9806 91.6943 85.8109C89.7458 85.4082 89.3131 85.6427 88.4409 87.5838L87.8465 88.9762L87.0208 86.4229C86.1714 83.7812 85.2932 82.0009 84.0678 80.5982C83.1414 79.5184 80.6348 77.9136 79.0665 77.4327C75.1169 76.1671 69.523 77.5711 66.1054 80.6685L65.3433 81.347L64.6828 80.9074C63.5235 80.1035 63.5141 79.2761 64.5878 77.4707C66.2949 74.5945 68.5202 72.86 71.5805 72.04C74.0244 71.3852 74.5723 71.4044 74.7738 72.1566C74.928 72.7319 74.9779 72.7422 75.6749 72.4369C76.3497 72.1375 76.5276 72.1847 77.7572 72.8986C78.4897 73.3426 79.8268 74.1937 80.7448 74.8014C81.6407 75.415 82.3435 75.7484 82.2961 75.5714C82.1538 75.0404 80.0105 73.0299 78.1331 71.6596C76.6986 70.6212 76.3997 70.2982 76.1922 69.5238C75.8441 68.3128 74.844 67.1343 73.4806 66.3614L72.3467 65.7404L72.5346 63.2712C72.6209 61.9202 72.6488 60.7033 72.5692 60.5824C72.3762 60.3021 71.3262 63.429 70.9037 65.463L70.5989 66.9675L72.0986 67.6328C74.3732 68.6358 75.95 70.2052 74.6662 70.1698C71.7947 70.1092 70.472 70.3688 68.1247 71.472C67.5379 71.7478 67.5582 71.6476 68.4634 70.6225C69.8123 69.0516 70.3813 68.0929 70.2509 67.6062C70.1916 67.3849 69.7276 66.7978 69.1991 66.3229C67.8993 65.0824 67.6426 64.0366 68.21 62.367C68.4826 61.5351 69.0152 60.7047 69.7096 59.9495C71.5394 58.0601 71.1287 57.6722 69.0914 59.4038C66.2098 61.8595 65.6103 64.8183 67.5386 67.171C68.4769 68.295 68.5455 68.7271 67.9324 69.0811C67.6259 69.2581 67.095 70.1829 66.5708 71.4853C66.1051 72.6535 65.4269 73.9971 65.0653 74.4972C64.6978 74.975 64.1686 75.9942 63.8663 76.7155C63.57 77.4589 63.238 78.0695 63.1279 78.099C62.5555 78.2524 61.3579 71.317 61.5729 69.1252C61.821 66.6163 63.0233 63.3536 64.9844 59.8402L66.7744 56.6573L68.3224 56.6219C69.1743 56.6308 70.2065 56.5202 70.6028 56.414L71.3235 56.1972L70.6765 55.8963C70.331 55.7517 69.5655 55.6249 68.9956 55.6116L67.9616 55.6278L68.3257 54.9611C68.9032 53.8578 72.5232 50.0185 72.8086 50.2029C72.8865 50.2295 73.1964 50.8578 73.5301 51.5747C74.3981 53.4051 74.6953 53.0172 74.2109 50.6808L73.823 48.7929L75.8459 47.1837L77.8469 45.5805L78.4354 46.0156C78.9622 46.3961 79.0553 46.6558 79.3382 48.2399C79.627 49.8462 79.6965 50.0173 79.9335 49.6692C80.2409 49.2311 80.4966 46.8387 80.3128 46.1528C80.2417 45.8873 79.9749 45.5082 79.7395 45.3342C79.0891 44.8445 79.1255 44.7161 79.9579 43.9477C81.3297 42.7264 81.8996 42.7397 83.4891 44.0923C83.8261 44.3814 83.8185 44.2649 83.4476 43.3209C82.92 41.9684 83.0385 41.7943 85.5873 40.2102C87.8076 38.8091 88.0117 38.7781 88.2251 39.5746C88.3318 39.9728 88.6884 40.4227 89.1414 40.7045L89.8798 41.1706L89.5225 40.3652C89.1058 39.3386 89.1786 38.4654 89.7561 37.9787C90.1812 37.6277 95.5888 35.0879 96.5677 34.7782C96.936 34.6558 97.2714 34.8505 97.9649 35.5894ZM80.5325 58.6857C81.3276 57.0736 82.1727 55.4718 82.4157 55.1458C83.0042 54.3479 83.5106 54.2122 83.3565 54.87C83.1982 55.6002 81.1923 60.6195 80.431 62.27C80.0525 63.0591 79.8324 63.7346 79.8942 63.7892C79.978 63.8378 81.7546 62.3658 83.8283 60.5059C88.9183 55.9882 89.8083 55.3466 92.4774 54.2995C94.9382 53.3555 96.0966 53.1874 95.8146 53.8084C95.73 54.0208 95.1889 54.3792 94.6562 54.593C92.8941 55.326 90.916 56.6623 88.1428 58.9942C82.3237 63.8733 81.7182 64.3438 80.36 65.0872C79.1719 65.7612 78.7316 65.8792 77.4834 65.9765C75.3131 66.1549 72.8107 65.7109 72.6507 65.1135C72.627 65.025 73.1452 64.9336 73.7752 64.9071C75.3274 64.7994 76.988 63.9513 78.176 62.6608C78.6858 62.0973 79.7434 60.32 80.5325 58.6857ZM96.6083 58.8838C97.3254 55.3955 100.425 51.8143 104.069 50.2686C106.973 49.04 110.49 48.6905 113.587 49.3308C115.508 49.7173 119.881 52.3871 121.455 54.1232C123.288 56.1219 123.143 56.6351 121.226 54.9433C117.968 52.1171 113.746 50.4503 110.369 50.6198C108.319 50.7186 104.731 51.6802 103.082 52.5725C100.442 53.9914 98.4864 56.2938 97.2383 59.4738C96.5567 61.2453 96.1858 60.9178 96.6083 58.8838ZM62.9717 65.7151C63.1834 65.1841 63.8405 64.2017 64.3985 63.5542C65.9684 61.6633 66.1039 61.8168 65.1734 64.5086C64.5841 66.1841 64.6264 66.6945 65.3936 67.5323C65.6926 67.8553 65.917 68.3406 65.9119 68.6739C65.9331 69.5457 64.486 71.8068 63.6206 72.2758C62.585 72.8141 62.59 72.4808 63.5951 70.8598C64.5139 69.3568 64.53 69.3288 63.2656 67.6045L62.5907 66.6708L62.9717 65.7151Z" fill="#1FE4FF"/>
<path fill-rule="evenodd" clip-rule="evenodd" d="M139.98 67.5136C139.976 68.2024 139.786 69.344 139.572 70.0417L139.158 71.3146L141.049 73.4401C143.257 75.955 144.093 77.5804 144.32 79.7487C144.513 81.5231 144.293 82.5541 143.545 83.3712C142.666 84.3181 139.278 85.0599 137.375 84.7398C135.938 84.4846 133.596 83.4048 132.495 82.4667C130.586 80.8914 130.27 77.1582 131.815 74.2068C132.639 72.6109 133.368 71.9885 135.966 70.6758C137.172 70.0682 138.365 69.3218 138.641 69.0342C139.227 68.403 139.896 66.8483 139.766 66.3616C139.718 66.1846 139.761 66.0784 139.851 66.1492C139.934 66.1979 140 66.7967 139.98 67.5136ZM133.244 78.3058C133.381 77.9371 133.966 77.2114 134.509 76.6863C136.18 75.1716 138.112 74.9858 139.258 76.2676C139.579 76.5847 140.038 77.5051 140.323 78.306C140.959 80.1512 140.787 81.6203 139.808 82.5466C139.188 83.1395 138.99 83.1926 137.802 83.2501C134.746 83.3813 132.287 80.7204 133.244 78.3058Z" fill="#1FE4FF"/>
<path d="M92.8401 87.7093C96.3018 88.9159 102.105 91.4634 102.228 91.8336C102.394 92.4531 101.424 92.9737 98.7662 93.7097C97.3571 94.0872 95.6695 94.658 95.0386 94.9456C92.7235 95.9928 90.6116 96.6535 90.3643 96.4352C90.2347 96.3039 89.7427 95.0841 89.2371 93.7256L88.3572 91.2344L89.0473 89.9349C89.4216 89.2181 89.8365 88.3007 89.9457 87.9157C90.0769 87.5248 90.3361 87.1708 90.5342 87.1178C90.7103 87.0706 91.7494 87.3376 92.8401 87.7093Z" fill="#1FE4FF"/>
<path d="M133.48 154.22C133.616 154.374 133.641 155.79 133.586 157.346C133.394 161.737 134.307 165.144 136.183 167.036C137.152 168.01 138.081 168.306 139.683 168.209C140.871 168.152 140.977 168.194 141.299 168.867C142.28 170.857 148.183 189.716 148.733 192.651C149.16 194.861 149.081 195.356 148.314 195.752C147.985 195.935 144.944 196.915 141.517 197.952L135.302 199.855L133.953 198.959C132.302 197.908 130.345 195.8 128.956 193.611C128.387 192.72 126.906 190.011 125.674 187.614C124.414 185.201 122.278 181.457 120.911 179.262C116.713 172.49 116.449 171.945 114.939 167.014C113.647 162.807 113.588 162.586 113.803 161.627C114.204 159.954 114.371 159.696 115.48 159.257C116.463 158.875 125.957 155.999 131.026 154.57C132.841 154.036 133.321 153.978 133.48 154.22Z" fill="#E43D19"/>
<path d="M148.205 198.342C148.392 198.6 149.278 201.113 150.175 203.932C154.551 217.533 155.884 221.539 156.148 222.085C156.406 222.608 156.364 222.715 155.394 223.496C154.832 223.955 153.352 225.3 152.118 226.508C150.879 227.694 149.713 228.718 149.515 228.771C148.547 229.03 147.472 227.397 145.808 223.124C144.058 218.708 142.549 214.133 140.456 206.939L138.564 200.404L143.231 199.153C147.855 197.914 147.899 197.902 148.205 198.342Z" fill="#E43D19"/>
<path d="M137.111 162.045C137.975 163.331 138.984 164.721 139.351 165.12C140.231 166.118 140.229 166.284 139.37 166.514C138.38 166.78 137.108 166.172 136.515 165.193C136.03 164.35 134.695 159.633 134.872 159.325C135.033 159.045 135.344 159.412 137.111 162.045Z" fill="#E43D19"/>
<path d="M112.339 164.794C113.584 168.562 114.703 171.417 115.625 173.185C116.261 174.414 116.712 175.479 116.642 175.569C116.365 175.856 114.412 174.909 113.445 174.03C111.1 171.884 110.11 170.039 110.405 168.323C110.604 167.037 111.578 164.95 112.018 164.832C112.195 164.785 112.333 164.772 112.339 164.794Z" fill="#E43D19"/>
<path d="M150.718 248.581C151.952 248.345 153.587 248.192 154.344 248.202L155.7 248.242L156.323 250.565L156.939 252.866L156.235 253.055C151.737 254.236 139.129 257.117 137.717 257.305C135.52 257.562 134.887 257.4 134.254 256.36C133.634 255.364 133.413 253.574 133.837 253.128C134.212 252.767 147.432 249.177 150.718 248.581Z" fill="#9385B9"/>
<path d="M195.97 235.958C196.465 236.134 197.248 237.56 197.319 238.442C197.372 238.902 197.365 239.758 197.303 240.32L197.206 241.365L190.88 242.942C187.405 243.802 181.723 245.229 178.271 246.083L172.01 247.642L173.089 251.052L174.19 254.457L171.205 255.114C169.558 255.485 166.578 256.165 164.55 256.613C162.529 257.083 160.628 257.474 160.346 257.479L159.782 257.487L158.732 253.216C158.12 250.843 157.68 248.85 157.728 248.766C157.777 248.682 158.744 248.683 159.896 248.754C163.451 248.987 166.39 248.508 172.409 246.753C180.398 244.423 186.993 241.47 192.568 237.794L192.741 237.679C195.516 235.842 195.56 235.812 195.97 235.958Z" fill="#9385B9"/>
<path d="M164.713 148.104C166.031 149.767 167.804 153.299 168.435 155.478C169.283 158.381 169.164 158.816 164.863 167.865C160.76 176.505 159.684 179.093 159.256 181.461C158.898 183.383 159.189 184.467 161.688 190.887C165.403 200.35 166.897 203.459 168.928 206.021C169.817 207.135 170.006 207.487 169.886 207.922C169.758 208.502 168.174 209.899 166.026 211.304C165.282 211.788 164.422 212.54 164.131 212.95C163.839 213.36 163.142 215.16 162.538 216.958C161.322 220.698 160.942 221.393 159.824 221.977C158.608 222.635 158.064 222.543 157.683 221.65C156.836 219.719 152.357 205.908 150.961 200.876L149.939 197.237L150.338 196.087L150.738 194.936L149.227 189.033C148.406 185.791 147.106 181.207 146.34 178.875C145.551 176.549 144.544 173.404 144.047 171.901L143.173 169.171L144.078 169.64C144.569 169.888 145.576 170.827 146.305 171.699C147.797 173.481 149.238 174.541 150.503 174.772C152.833 175.191 161.276 171.648 162.337 169.798C162.643 169.266 162.612 169.061 162.11 167.63C161.674 166.443 161.594 165.966 161.755 165.686C161.861 165.468 162.747 164.898 163.701 164.406C164.654 163.913 165.688 163.28 165.993 163.009C166.482 162.546 166.503 162.446 166.16 161.518C165.939 160.96 164.911 159.41 163.863 158.054C162.284 156.035 161.834 155.326 161.424 154.06C160.868 152.336 160.916 151.635 161.753 149.917C162.245 148.932 163.47 147.252 163.778 147.169C163.866 147.145 164.283 147.556 164.713 148.104Z" fill="#F2E8E2"/>
<path d="M171.729 256.895C171.952 257.025 175.549 267.894 176.53 271.378C176.583 271.577 176.846 271.767 177.128 271.763C177.92 271.811 179.451 272.682 180.241 273.514C181.335 274.691 181.927 277.164 181.543 278.903C181.009 281.489 179.358 282.903 175.858 283.841L173.656 284.431L172.612 283.881C171.111 283.121 169.53 281.363 169.187 280.08C168.866 278.885 169.042 277.866 169.935 275.564C170.838 273.211 170.853 273.089 170.219 270.721C169.632 268.531 166.852 260.359 166.183 258.831L165.82 258.004L168.624 257.371C170.183 257.025 171.589 256.814 171.729 256.895Z" fill="url(#paint0_linear_19_389)"/>
<path d="M208.575 133.553C206.617 141.832 202.595 153.771 200.406 157.843C199.913 158.734 198.818 160.284 197.951 161.275C197.09 162.289 196.281 163.407 196.143 163.775C195.893 164.601 195.979 166.95 196.353 168.343L196.631 169.383L195.542 170.339C193.435 172.161 192.258 174.99 192.467 177.708C192.529 178.379 193.679 183.288 195.03 188.593C197.001 196.389 197.756 199.032 198.943 202.318C200.014 205.256 200.38 206.534 200.286 206.891C200.185 207.392 200.031 207.433 196.357 208.252C192.776 209.069 192.43 209.186 191.013 210.063C188.749 211.476 186.879 212.072 185.53 211.793C184.937 211.691 182.528 210.629 180.156 209.439C175.938 207.344 175.336 207.126 172.726 206.806C171.434 206.654 171.406 206.638 170.032 204.943L168.629 203.232L169.713 200.76C170.314 199.39 170.969 197.696 171.183 196.999C171.626 195.481 171.862 192.311 171.601 191.338C171.507 190.984 171.5 190.606 171.592 190.51C171.662 190.42 172.804 190.541 174.075 190.794C177.738 191.519 178.02 191.515 178.908 190.779C182.157 188.106 190.018 175.613 190.975 171.61L191.263 170.395L189.732 168.647C186.243 164.697 182.577 162.549 176.904 161.105L175.181 160.666L173.622 154.847C172.769 151.661 172.052 148.723 172.023 148.351L171.978 147.652L173.439 147.734C176.113 147.848 184.448 145.401 186.186 143.963C186.437 143.754 186.995 142.49 187.391 141.15C187.815 139.827 188.249 138.715 188.359 138.686C188.733 138.585 189.167 139.062 189.77 140.252C190.091 140.925 190.585 141.622 190.882 141.851C191.409 142.232 191.431 142.226 192.629 141.502C193.302 141.108 195.59 139.428 197.739 137.761C203.226 133.493 205.566 132.012 208.175 131.266L209.181 130.972L208.575 133.553Z" fill="#757575"/>
<path d="M188.975 170.225C189.148 170.606 189.302 171.181 189.319 171.508C189.329 172.336 187.946 175.101 185.058 180.001C182.756 183.914 182.545 184.184 182.331 183.649C181.914 182.622 181.97 178.955 182.45 176.432C182.879 174.159 184.411 169.836 185.497 167.814L185.926 167.035L187.276 168.286C188.029 168.985 188.809 169.867 188.975 170.225Z" fill="#413A3A"/>
<path d="M171.996 180.656C174.27 181.042 180.019 184.885 180.387 186.257C180.535 186.81 179.928 187.802 178.624 189.1C177.663 190.093 177.873 190.084 173.822 189.059C172.35 188.671 169.748 188.206 168.018 188.006C164.488 187.6 162.595 187.23 162.247 186.896C161.678 186.361 164.977 182.821 167.364 181.423C168.71 180.635 170.271 180.383 171.996 180.656Z" fill="#413A3A"/>
<path d="M145.831 65.9222C151.918 67.682 153.672 68.3266 156.899 69.9757C161.135 72.1367 163.039 73.4288 163.986 74.7637C164.407 75.3625 166.639 78.9379 168.946 82.7066C171.248 86.4531 174.238 91.2719 175.593 93.4225C176.948 95.573 178.09 97.5437 178.117 97.821C178.183 98.4198 177.419 99.0039 174.717 100.368C170.968 102.227 162.466 105.548 158.987 106.48C157.336 106.923 157.032 106.933 156.833 106.63C156.292 105.756 150.864 92.7212 148.845 87.4762C147.778 84.7268 148.341 83.1294 151.38 80.2046C153.332 78.3299 153.099 77.9892 151.068 79.7429C149.167 81.3668 147.969 83.063 147.691 84.4893C147.489 85.5867 147.539 85.8581 148.341 88.3228C149.412 91.6164 152.258 98.8926 155.263 106.055C161.584 121.103 161.84 121.793 161.301 123.835C160.85 125.497 158.883 128.988 157.142 131.21C155.449 133.347 151.757 137.182 148.705 139.968C146.294 142.155 145.775 142.508 145.638 141.999C145.603 141.866 145.066 140.303 144.476 138.54C142.635 133.081 140.259 128.88 136.615 124.616C134.175 121.76 132.396 120.055 127.64 116.042C125.472 114.204 123.539 112.54 123.336 112.31C122.981 111.954 123.11 111.73 124.848 109.675C127.572 106.456 128.327 105.044 128.917 101.874C129.515 98.8212 129.709 98.5793 132.983 96.7062C137.05 94.3596 138.134 92.5041 137.753 88.5275L137.577 86.7251L139.258 86.3933C142.151 85.8314 143.514 85.3712 144.216 84.7326C145.979 83.1219 146.344 81.2222 145.484 78.0141C144.861 75.6909 143.899 74.123 142.007 72.2586L140.902 71.1317L141.151 69.5947C141.308 68.7702 141.393 67.3248 141.382 66.4029C141.333 65.2539 141.407 64.7362 141.623 64.7494C141.795 64.7745 143.707 65.3056 145.831 65.9222Z" fill="#252525"/>
<path d="M172.051 78.1755C174.825 79.2818 179.131 80.9973 181.582 81.9532C184.054 82.9031 186.439 83.8767 186.88 84.1142L187.701 84.5346L185.197 85.2292L182.709 85.8958L180.636 88.1112C178.362 90.5463 177.442 91.3384 176.649 91.5508C176.143 91.6864 175.99 91.4667 173.921 88.0609C168.26 78.6459 166.794 76.1694 166.882 76.1458C166.948 76.1281 169.271 77.0471 172.051 78.1755Z" fill="#252525"/>
<path d="M185.144 92.4286C190.797 98.0278 195.393 103.555 201.256 111.872C205.285 117.575 206.173 118.688 209.071 121.753C211.602 124.419 213.774 126.801 213.822 126.978C213.917 127.332 212.711 127.939 209.317 129.276C203.084 131.728 202.575 132.031 196.532 136.78C194.291 138.543 192.254 140.013 192 140.034C191.658 140.078 191.309 139.745 190.626 138.695C189.524 137.045 188.963 136.627 188.149 136.845C187.466 137.028 186.672 138.379 185.987 140.578C185.128 143.274 185.407 143.081 179.51 144.851L174.305 146.388L172.696 146.107C171.809 145.966 169.946 145.706 168.527 145.517C167.113 145.35 165.903 145.058 165.811 144.893C165.72 144.728 165.874 144.07 166.134 143.455C166.748 141.962 168.082 140.775 172.927 137.367C175.013 135.906 177.431 134.097 178.319 133.361C182.426 129.841 184.132 125.993 183.361 121.884C183.005 119.94 182.208 118.019 179.393 112.181C177.744 108.758 177.236 107.566 177.311 107.143C177.392 106.742 177.816 106.296 178.784 105.681C180.609 104.481 181.496 103.65 181.754 102.941C182.208 101.728 181.077 99.091 178.4 95.0893L177.245 93.3355L178.472 92.3665C179.154 91.8281 180.139 90.924 180.687 90.3266C181.219 89.7573 181.702 89.2721 181.768 89.2544C181.834 89.2367 183.347 90.6571 185.144 92.4286Z" fill="#252525"/>
<path d="M122.335 113.858C123.499 114.59 127.909 118.104 127.986 118.391C128.01 118.48 126.228 119.052 124.004 119.648L119.975 120.727L118.22 118.755C117.249 117.687 116.452 116.739 116.435 116.673C116.364 116.407 120.212 113.597 120.977 113.369C121.169 113.294 121.776 113.534 122.335 113.858Z" fill="#252525"/>
<path d="M173.903 177.436C174.213 177.467 174.559 177.563 174.663 177.652C175.15 178.074 175.256 177.692 174.952 176.633C174.747 175.898 174.425 175.588 174.069 175.791C173.801 175.933 173.279 176.902 173.311 177.203C173.33 177.311 173.591 177.426 173.903 177.436Z" fill="#D50814"/>
<path d="M172.831 175.389C174.253 174.619 174.674 174.739 176.008 176.28C176.839 177.248 176.974 177.295 177.415 176.816C177.628 176.587 177.56 176.478 176.151 174.827C174.843 173.309 174.623 173.109 174.284 173.184C173.853 173.278 173.122 174.177 172.815 174.981L172.613 175.51L172.831 175.389Z" fill="#D50814"/>
<path d="M175.779 173.23C176.278 173.674 176.758 174.096 176.852 174.142C177.371 174.501 178.712 173.964 179.095 173.247C179.211 173.015 179.062 172.968 178.217 172.942C177.243 172.89 177.149 172.844 176.192 171.979C174.969 170.87 174.647 170.732 173.988 170.99C173.436 171.208 171.8 172.657 171.635 173.081C171.495 173.441 172.462 173.235 173.076 172.761C173.882 172.143 174.709 172.297 175.779 173.23Z" fill="#D50814"/>
<path d="M174.187 170.339C175.935 170.088 176.404 170.283 177.729 171.794C178.555 172.742 178.704 172.811 179.28 172.548C179.557 172.423 179.494 172.322 178.097 170.708C176.798 169.22 176.572 169.013 176.17 168.989C175.66 168.957 174.691 169.474 174.225 170.021L173.918 170.38L174.187 170.339Z" fill="#D50814"/>
<path d="M177.89 169.386C178.404 169.849 178.899 170.291 179.001 170.348C179.551 170.751 181.173 170.66 181.715 170.2C181.881 170.049 181.716 169.976 180.744 169.752C179.627 169.477 179.525 169.419 178.54 168.52C177.282 167.369 176.93 167.184 176.133 167.224C175.466 167.259 173.376 167.982 173.126 168.269C172.915 168.513 174.06 168.588 174.834 168.371C175.85 168.089 176.784 168.407 177.89 169.386Z" fill="#D50814"/>
</g>
</g>
<defs>
<linearGradient id="paint0_linear_19_389" x1="167.374" y1="265.484" x2="175.403" y2="262.863" gradientUnits="userSpaceOnUse">
<stop stop-color="#C0B9BD"/>
<stop offset="1" stop-color="#B79BAC" stop-opacity="0"/>
</linearGradient>
<clipPath id="clip0_19_389">
<rect width="317" height="301" fill="white"/>
</clipPath>
<clipPath id="clip1_19_389">
<rect width="137" height="275" fill="white" transform="translate(48.7466 35) rotate(-15)"/>
</clipPath>
</defs>
</svg>
