<svg width="317" height="301" viewBox="0 0 317 301" fill="none" xmlns="http://www.w3.org/2000/svg">
<g clip-path="url(#clip0_19_387)">
<path d="M131.804 27.0995C129.753 28.8174 129.821 28.6341 129.548 32.6197C129.388 35.0934 129.183 36.4219 128.932 36.9258C128.476 37.7733 127.382 38.2544 123.553 39.1935C120.658 39.9035 120.567 39.8807 120.567 38.2315C120.567 37.4069 120.727 37.1091 122.072 35.5974C123.986 33.4442 124.556 32.299 124.351 31.1766C124.191 30.3749 122.687 28.3592 122.436 28.6112C122.391 28.6799 122.55 29.2755 122.824 29.9168C123.12 30.5582 123.28 31.314 123.211 31.5889C123.143 31.8409 122.322 32.9403 121.365 34.0169C119.063 36.5823 118.903 36.903 119.017 38.9186L119.086 40.5449L117.741 41.0717C116.989 41.3695 115.917 41.6444 115.347 41.6673L114.299 41.6902L114.345 40.5907C114.367 39.6516 115.325 34.3146 115.689 33.0319C115.758 32.8258 115.712 32.6425 115.598 32.6425C115.302 32.6425 113.866 35.8722 113.023 38.4147C112.362 40.4075 112.316 40.7969 112.635 42.6064C112.681 42.95 112.384 43.2248 111.336 43.8204C110.173 44.4617 109.809 44.5533 108.829 44.4617C108.213 44.4159 107.415 44.2556 107.073 44.1181C106.458 43.8891 106.435 43.8204 106.435 42.2857C106.435 39.6745 105.979 36.0325 105.524 35.0018C105.136 34.1085 104.11 33.2839 103.814 33.6046C103.746 33.6733 103.974 34.3146 104.293 35.0476C104.908 36.3761 104.908 36.3761 104.749 40.3616L104.589 44.3243L105.227 44.9198C105.569 45.2405 106.139 45.5612 106.481 45.6299C106.846 45.6986 107.165 45.8361 107.233 45.9048C107.324 46.0651 102.971 48.8595 101.831 49.3864C100.463 49.9819 100.19 49.2031 100.988 46.9355C101.557 45.2634 101.466 43.9578 100.646 42.7209C100.099 41.8963 98.6855 40.8656 98.6855 41.2779C98.6855 41.3924 99.0046 41.9192 99.3693 42.4919C100.258 43.8204 100.258 44.8282 99.3693 46.8439C98.5032 48.8137 98.5032 49.2718 99.3921 50.188L100.121 50.9439L98.1385 53.0741C94.6967 56.739 93.0783 59.167 91.9159 62.4883C91.3916 63.9771 91.3232 64.5497 91.2321 68.6498L91.1181 73.1392L92.0982 74.9717L93.0783 76.8041L92.2578 78.6136C89.6593 84.2942 89.2718 90.2954 91.2549 94.2122C92.5541 96.8005 94.879 98.9765 98.0017 100.557C102.036 102.573 104.794 102.848 108.715 101.588C109.49 101.336 110.265 101.13 110.447 101.13C110.743 101.13 111.974 104.084 112.339 105.734C112.589 106.833 112.453 107.2 111.108 108.872C110.675 109.421 110.31 110.086 110.31 110.36C110.31 111.277 111.427 112.078 114.231 113.178C117.718 114.529 117.832 114.644 117.376 116.27C117.194 116.888 117.239 117.324 117.49 118.08C117.741 118.79 117.832 120.027 117.832 122.569V126.074L118.949 127.219C119.815 128.158 120.18 128.387 120.795 128.387C121.365 128.387 121.707 128.593 122.391 129.349L123.257 130.334L124.077 129.899C124.716 129.555 125.012 129.509 125.422 129.693C126.471 130.174 127.565 129.143 129.571 125.753C130.801 123.714 131.44 122.89 131.873 122.89C132.579 122.89 134.38 125.822 135.702 129.166C136.978 132.304 137.662 135.121 137.822 137.687L137.959 139.977L134.106 141.649C127.223 144.627 125.08 146.001 119.359 151.132C117.399 152.873 115.165 154.82 114.367 155.461C112.293 157.156 108.692 159.492 107.552 159.905C106.868 160.134 105.068 160.317 102.105 160.454C95.9047 160.752 95.3121 160.821 94.4459 161.485C93.0555 162.539 92.8048 163.249 92.5541 166.753C92.4173 168.517 92.3034 171.151 92.3034 172.617C92.3034 175.114 92.3489 175.343 93.01 176.672C93.3747 177.45 94.0129 178.344 94.3776 178.664C94.993 179.168 95.2893 179.237 96.8392 179.237H98.5943L99.9391 180.634C101.945 182.696 102.925 183.36 103.951 183.36C104.657 183.36 105.022 183.566 106.025 184.459C108.031 186.315 109.17 186.704 111.29 186.292C112.521 186.063 112.635 186.086 113.456 186.612C115.347 187.872 117.422 188.01 120.202 187.025C120.955 186.773 121.57 186.567 121.616 186.567C121.752 186.567 122.163 188.262 123.097 192.637C124.852 200.837 126.357 204.845 128.568 207.273C129.73 208.556 130.642 209.014 132.032 209.014H132.648L132.602 215.931L132.534 222.849L131.052 223.124C126.585 223.971 124.26 225.804 122.938 229.56C122.71 230.201 122.413 230.911 122.254 231.095C122.094 231.347 120.909 231.644 118.539 232.034C114.094 232.79 112.817 233.271 111.176 234.851C109.9 236.065 109.649 236.477 108.35 239.455C107.803 240.692 107.598 240.967 106.777 241.31C105.729 241.769 104.498 243.074 104.019 244.197C102.492 247.838 106.002 253.45 111.655 256.405C112.635 256.909 113.57 257.482 113.706 257.665C113.911 257.917 113.957 258.489 113.843 259.703C113.661 261.719 114.094 263.597 114.937 264.399C115.279 264.72 115.963 264.995 116.829 265.132C118.972 265.476 126.607 265.819 132.374 265.819H137.662L137.89 266.415C138.027 266.735 138.118 267.423 138.118 267.949C138.141 269.438 138.506 270.698 139.075 271.179C139.531 271.546 139.85 271.591 141.583 271.454C143.338 271.339 143.611 271.362 143.794 271.729C143.999 272.118 144.295 275.623 144.728 282.815C145.002 287.121 145.07 286.823 143.315 289.251C141.993 291.038 141.309 292.687 141.309 294.084C141.309 295.459 142.449 297.635 144.022 299.261C145.138 300.406 145.48 300.612 146.62 300.864C148.74 301.3 151.521 300.704 153.732 299.33C155.395 298.299 157.492 294.932 157.492 293.329C157.492 291.198 156.398 288.747 154.848 287.373L153.8 286.434L153.595 283.181C153.367 279.265 153.367 273.263 153.595 272.462C153.732 271.958 153.891 271.889 154.848 271.82L155.965 271.752L155.829 268.293L155.669 264.857L161.322 264.995C164.422 265.063 169.938 265.201 173.585 265.269L180.24 265.407L181.152 264.239C182.406 262.635 182.611 261.078 181.973 257.413L181.836 256.703L188.195 253.473C191.683 251.687 195.033 249.877 195.626 249.419C196.879 248.503 197.381 247.518 197.381 246.075C197.381 244.838 196.765 243.807 195.261 242.433C193.939 241.242 193.916 241.081 194.554 237.462C194.919 235.332 194.919 235.332 194.327 232.538C193.438 228.483 193.324 227.292 193.027 219.321C192.663 209.93 192.936 202.074 193.734 199.989C194.349 198.363 195.466 197.195 197.335 196.187C198.11 195.775 198.885 195.202 199.09 194.881C199.295 194.584 199.546 193.438 199.683 192.339C199.979 189.567 200.162 189.247 201.917 188.147C206.179 185.467 212.789 176.557 219.81 164.074C220.767 162.333 221.815 160.729 222.112 160.5C222.408 160.248 223.297 159.928 224.095 159.767C226.579 159.286 227.217 158.622 226.944 156.881C226.875 156.423 225.69 154.041 224.3 151.567C221.701 146.895 220.881 145.062 219.263 140.412C216.277 131.869 212.447 123.302 208.641 116.682C206.544 113.04 206.156 112.147 206.475 111.826C206.589 111.712 208.276 111.506 210.191 111.391C212.105 111.277 213.747 111.116 213.86 111.002C214.499 110.36 212.516 108.505 206.384 104.016C197.335 97.3731 196.971 97.0753 190.771 90.9367C184.161 84.3629 185.483 85.4165 174.496 78.2471C170.713 75.7963 170.872 76.0482 170.485 72.1543C169.687 64.0229 168.16 57.6781 165.561 51.6082C164.9 50.0048 164.33 48.6534 164.33 48.5847C164.33 48.3556 165.219 48.4472 165.356 48.6763C166.177 50.0277 171.624 50.5087 173.038 49.3635C173.539 48.9741 173.516 48.9512 171.624 48.997C169.824 49.0199 169.573 48.9741 168.274 48.2411C167.476 47.8059 166.838 47.3707 166.838 47.2562C166.838 47.1417 167.316 46.821 167.932 46.5461L169.003 46.0422L167.749 45.9735C163.259 45.7444 161.436 45.2634 160.273 44.0265L159.726 43.4539L160.615 43.179C161.641 42.8354 164.262 41.1862 164.877 40.4762C165.47 39.789 165.037 39.8119 163.214 40.5449C161.481 41.255 159.293 41.3466 157.31 40.774C155.92 40.3617 151.726 38.5979 151.862 38.4605C151.908 38.4147 152.729 38.6667 153.709 39.0103L155.464 39.6287L156.877 38.1398C158.473 36.4677 160.547 33.4672 160.41 33.0549C160.364 32.9174 159.156 33.9024 157.766 35.2767L155.19 37.7505L153.549 37.2694C152.136 36.8342 151.247 36.7655 147.349 36.7197C142.745 36.651 141.605 36.4677 142.289 35.8951C142.472 35.7348 143.68 35.4828 145.002 35.2996C146.301 35.1392 147.691 34.8186 148.079 34.6353C149.059 34.1085 149.56 32.7342 149.674 30.2375L149.765 28.176L149.173 29.871C148.375 32.1615 147.988 32.8487 147.372 33.0778C146.62 33.3755 142.517 33.8565 142.107 33.7191C141.856 33.6046 141.765 33.2381 141.765 32.4364C141.765 30.7185 140.99 28.4279 140.147 27.7408C139.508 27.1911 139.03 26.9849 139.03 27.2598C139.03 27.3285 139.281 27.8782 139.577 28.4738C139.896 29.0693 140.215 30.1229 140.283 30.833C140.466 32.3906 140.101 33.2839 138.961 33.994C138.551 34.2459 137.731 34.9789 137.115 35.5974C136.523 36.2387 135.907 36.7655 135.77 36.7655C135.611 36.7655 134.426 36.9259 133.126 37.1091C131.827 37.2923 130.71 37.4069 130.665 37.3611C130.596 37.3152 130.687 37.0175 130.87 36.7197C131.075 36.3532 131.166 35.208 131.166 32.8716V29.5503L132.26 28.0844C133.195 26.8246 133.582 26 133.24 26C133.172 26 132.534 26.5039 131.804 27.0995ZM140.397 35.7119C140.397 36.17 139.805 36.5823 139.235 36.4907C138.483 36.3761 138.46 35.918 139.189 35.666C140.078 35.3225 140.397 35.3454 140.397 35.7119ZM137.389 39.308C137.731 39.9494 138.186 40.7053 138.414 40.9572C138.825 41.4611 138.825 41.4382 138.733 40.2013C138.665 39.5142 138.551 38.7583 138.46 38.5292C138.323 38.1856 138.437 38.1398 139.326 38.1398C140.534 38.1398 140.944 38.4605 141.491 39.8348L141.879 40.774L141.993 39.5142L142.107 38.2544L143.247 38.2773C146.21 38.3002 147.463 38.8728 147.463 40.2013C147.463 41.1175 147.851 41.0717 148.307 40.0639C148.671 39.3309 148.785 39.2622 149.424 39.3538C150.221 39.4913 153.162 40.6136 153.481 40.9114C153.595 41.003 153.367 41.8276 152.934 42.8125C152.501 43.7746 152.227 44.622 152.318 44.6908C152.387 44.7824 153.093 44.2556 153.891 43.5455C154.689 42.8354 155.441 42.2628 155.555 42.2628C155.692 42.2857 156.581 42.8583 157.561 43.5455L159.339 44.8282L158.313 45.9277C157.31 47.0042 157.105 47.3707 156.717 48.6076C156.444 49.478 157.014 49.226 158.7 47.7143L160.296 46.2941L161.025 47.1875L161.778 48.0579L161.003 49.2718C160.57 49.9361 160.228 50.5545 160.228 50.6233C160.228 50.8752 160.729 50.7149 161.595 50.1423C162.074 49.8216 162.598 49.6154 162.758 49.707C163.442 50.1422 166.131 56.8994 167.043 60.5413C168.046 64.4352 169.55 74.9259 169.163 75.2695C169.071 75.3382 168.41 75.5214 167.681 75.6588C165.926 76.0024 163.852 76.9645 163.054 77.789C162.279 78.5907 162.575 78.6365 164.399 77.9952C165.949 77.4454 169.573 77.3309 169.573 77.8348C169.573 78.6365 168.798 80.2857 168.114 80.95C167.43 81.6142 167.157 81.7058 164.991 82.0036C162.119 82.393 161.345 82.645 159.977 83.6299C157.128 85.7143 155.715 89.654 156.672 92.9295C157.287 95.1055 157.196 95.4949 155.418 98.2664C153.435 101.336 152.501 103.329 152.318 104.817C152.204 105.802 151.999 106.169 150.768 107.52C149.446 109.032 148.785 110.154 148.512 111.46C148.033 113.773 143.794 116.774 137.389 119.362C133.833 120.782 133.263 120.851 131.964 119.866C131.394 119.454 130.665 118.904 130.323 118.698C129.912 118.446 129.685 118.102 129.685 117.736C129.685 116.82 129.274 116.041 128.727 115.904C128.431 115.835 127.223 115.72 126.038 115.674C124.852 115.629 122.892 115.445 121.707 115.285L119.541 114.964L123.074 114.781C134.243 114.254 140.443 112.559 143.976 109.101C145.275 107.818 145.64 106.97 145.64 105.184C145.64 102.115 144.341 99.6179 141.856 97.8999C141.309 97.5335 140.853 97.1212 140.853 97.0066C140.853 96.8921 141.423 96.5944 142.107 96.3424C145.161 95.1971 148.375 93.1356 150.153 91.1887C151.635 89.5624 151.794 88.7836 151.133 86.9283L150.632 85.554L152.068 83.859C152.865 82.9198 153.8 81.66 154.142 81.0416C154.803 79.7818 155.441 76.6896 155.464 74.4678C155.487 71.4901 155.692 70.8487 157.173 69.0392C157.903 68.123 159.407 66.4509 160.478 65.3056L162.416 63.267L163.92 63.6335C165.584 64.0458 166.154 63.9771 166.154 63.3129C166.154 62.786 165.789 62.6028 163.647 61.9843L161.937 61.5033L160.456 63.038C159.635 63.9084 158.085 65.5805 157.014 66.7715L155.054 68.9476L154.279 67.8023C153.868 67.1609 152.751 65.8782 151.794 64.9162C148.968 62.0301 145.663 60.7474 141.195 60.7245C136.636 60.7245 133.445 62.2363 130.459 65.8782C128.385 68.3978 127.747 70.7113 127.907 74.8342C128.089 78.7511 128.59 79.8047 132.283 83.6757C133.24 84.6835 133.787 85.4165 133.651 85.5311C133.537 85.6456 132.283 86.2182 130.893 86.8138L128.317 87.9132L127.246 87.5009C125.559 86.8596 123.781 84.9126 122.983 82.8511C122.231 80.9042 121.798 80.6751 122.026 82.3701C122.322 84.569 123.029 86.0121 124.556 87.5238L125.992 88.9439L124.898 89.4479L123.804 89.9518L121.798 88.44C120.704 87.5925 119.131 86.5847 118.333 86.1953C116.556 85.302 116.077 85.4165 114.732 87.0657L113.798 88.2568L113.661 85.5769C113.524 82.8053 113.137 80.8584 112.316 79.1863C111.701 77.9036 109.695 75.7046 108.304 74.8342C104.817 72.5895 99.0502 72.4979 94.9474 74.6052L94.0357 75.0633L93.5114 74.4678C92.5997 73.3912 92.8048 72.5895 94.3092 71.1236C96.7025 68.7872 99.3009 67.6878 102.469 67.6878C104.999 67.6878 105.524 67.8481 105.524 68.6269C105.524 69.2224 105.569 69.2453 106.321 69.1308C107.051 69.0163 107.21 69.1079 108.213 70.1157C108.806 70.7342 109.877 71.9024 110.606 72.7269C111.313 73.5515 111.906 74.0555 111.906 73.8722C111.906 73.3225 110.356 70.8258 108.897 69.0163C107.78 67.6419 107.575 67.2526 107.575 66.4509C107.552 65.1911 106.891 63.7938 105.774 62.6944L104.84 61.8011L105.66 59.4647C106.093 58.182 106.435 57.0139 106.39 56.8764C106.276 56.5558 104.452 59.3044 103.518 61.1597L102.834 62.5341L104.11 63.5648C106.048 65.1224 107.165 67.0464 105.934 66.6799C103.176 65.8782 101.831 65.7866 99.2781 66.2447C98.6399 66.3592 98.6855 66.2676 99.8252 65.5117C101.535 64.3436 102.332 63.5648 102.332 63.0609C102.332 62.8318 102.036 62.1447 101.649 61.5491C100.714 60.0145 100.737 58.9379 101.717 57.472C102.196 56.739 102.925 56.0748 103.791 55.525C106.048 54.1736 105.751 53.6926 103.335 54.8379C99.9164 56.4641 98.5715 59.167 99.8252 61.9385C100.441 63.267 100.395 63.7022 99.7112 63.8855C99.3693 63.9771 98.6171 64.733 97.7738 65.8553C97.0216 66.8632 96.0187 67.9855 95.54 68.3749C95.0614 68.7414 94.2864 69.5889 93.8077 70.2074C93.3291 70.8487 92.8504 71.3526 92.7364 71.3526C92.1438 71.3526 92.782 64.3436 93.557 62.2821C94.4459 59.9229 96.4518 57.0826 99.2553 54.1965L101.808 51.5853L103.313 51.9518C104.133 52.1808 105.159 52.3412 105.569 52.3412L106.321 52.3183L105.774 51.8602C105.478 51.6311 104.771 51.3104 104.224 51.1501L103.221 50.8981L103.746 50.3484C104.589 49.4322 109.079 46.6606 109.307 46.9126C109.376 46.9584 109.512 47.6456 109.649 48.4243C110.014 50.4171 110.401 50.1194 110.538 47.7372L110.652 45.8131L113.023 44.7824L115.37 43.7516L115.826 44.3243C116.236 44.8282 116.259 45.1031 116.122 46.7065C115.986 48.3327 116.008 48.516 116.328 48.2411C116.738 47.8975 117.604 45.6528 117.604 44.9427C117.604 44.6679 117.444 44.2327 117.262 44.0036C116.761 43.3623 116.829 43.2477 117.832 42.7209C119.473 41.8963 120.02 42.0567 121.205 43.7746C121.456 44.1411 121.479 44.0265 121.365 43.0187C121.205 41.5757 121.365 41.4382 124.237 40.5678C126.744 39.789 126.949 39.8119 126.949 40.6365C126.949 41.0488 127.177 41.5756 127.542 41.965L128.135 42.6064L127.998 41.736C127.861 40.6365 128.157 39.8119 128.841 39.4913C129.343 39.2622 135.223 38.2086 136.249 38.1628C136.636 38.1398 136.91 38.4147 137.389 39.308ZM144.66 62.5341C148.284 63.4732 151.475 65.9241 153.002 68.9705L153.8 70.5739L149.424 75.613L145.047 80.6293L141.286 82.2098C137.07 83.9964 136.112 84.2942 135.246 84.088C133.992 83.7673 131.257 80.6522 129.935 78.0639C129.525 77.2164 129.457 76.7125 129.457 73.8722C129.457 70.78 129.479 70.5968 130.118 69.337C132.123 65.3285 135.269 62.9234 139.486 62.0988C140.375 61.9385 143.201 62.1676 144.66 62.5341ZM154.051 74.7655C153.686 78.4533 152.615 81.2248 150.86 83.0802C149.788 84.2025 149.287 84.1796 148.307 82.9657C146.894 81.2248 146.894 81.1561 147.965 79.7818C149.834 77.3767 154.073 72.6124 154.187 72.7957C154.21 72.8186 154.142 73.7119 154.051 74.7655ZM103.928 74.7884C106.64 75.3152 108.943 76.8041 110.356 79.003C111.655 81.0416 112.134 82.8282 112.134 85.7601C112.134 87.0886 112.042 88.3255 111.928 88.4858C111.723 88.8294 111.86 88.8294 104.612 87.7529C100.577 87.1344 94.4687 86.4702 93.01 86.4702C91.5968 86.4702 91.46 86.1037 92.0298 83.7673C92.6453 81.2248 94.4915 77.4684 95.6996 76.3002C96.2238 75.7963 97.1128 75.2465 97.8194 74.9946C99.187 74.5136 102.013 74.4219 103.928 74.7884ZM175.773 80.9958C181.198 84.2713 182.725 85.3478 185.414 87.7758C188.947 90.9596 190.452 92.7004 191.021 94.2351C191.272 94.9223 192.503 98.9536 193.757 103.191C195.01 107.406 196.651 112.834 197.404 115.262C198.156 117.69 198.748 119.889 198.703 120.164C198.612 120.759 197.723 121.126 194.76 121.744C190.657 122.569 181.585 123.577 177.984 123.577C176.274 123.577 175.978 123.508 175.864 123.165C175.568 122.18 173.699 108.184 173.106 102.596C172.787 99.6637 173.744 98.2664 177.437 96.2279C179.807 94.9223 179.67 94.5329 177.254 95.701C174.998 96.7776 173.402 98.1061 172.764 99.4117C172.285 100.42 172.263 100.694 172.399 103.283C172.582 106.741 173.448 114.506 174.496 122.203C176.707 138.374 176.776 139.107 175.727 140.939C174.861 142.428 172.057 145.291 169.801 146.986C167.613 148.612 163.054 151.361 159.384 153.262C156.49 154.751 155.897 154.957 155.897 154.43C155.897 154.293 155.783 152.644 155.669 150.788C155.304 145.039 154.096 140.366 151.68 135.304C150.062 131.914 148.785 129.807 145.23 124.699C143.611 122.363 142.175 120.256 142.039 119.981C141.788 119.546 141.97 119.362 144.181 117.828C147.646 115.423 148.74 114.254 150.13 111.345C151.498 108.551 151.748 108.368 155.395 107.406C159.931 106.192 161.458 104.68 162.119 100.74L162.416 98.9536L164.125 99.0681C167.066 99.2743 168.502 99.1827 169.345 98.7475C171.465 97.648 172.308 95.9072 172.308 92.5859C172.308 90.1808 171.784 88.4171 170.439 86.1266L169.664 84.7523L170.302 83.3321C170.667 82.5762 171.123 81.2019 171.351 80.3086C171.602 79.1863 171.807 78.7053 172.012 78.774C172.171 78.8427 173.881 79.8505 175.773 80.9958ZM169.71 81.0187C169.527 81.6829 169.049 82.7366 168.661 83.355L167.932 84.4774L169.208 87.0199C170.69 90.0205 171.077 91.8071 170.735 93.9602C170.462 95.7239 169.983 96.6631 169.049 97.2586C167.955 97.9458 164.49 97.7854 162.735 96.9837C161.413 96.3653 159.43 94.7161 158.609 93.525C157.173 91.5094 157.834 87.8216 160.091 85.3707C161.299 84.0422 162.165 83.6299 165.014 83.0344C166.336 82.7595 167.681 82.3472 168.023 82.1411C168.752 81.683 169.801 80.3544 169.801 79.8505C169.801 79.6673 169.869 79.5756 169.938 79.6673C170.006 79.736 169.915 80.3315 169.71 81.0187ZM147.053 83.8819C148.991 86.2869 149.971 87.8445 149.971 88.4629C149.971 89.173 148.056 91.2345 146.233 92.4714C142.905 94.7619 139.167 95.9072 134.927 95.953C132.488 95.9759 132.215 95.9301 131.12 95.3575C129.548 94.51 125.308 91.3032 125.468 91.0512C125.764 90.5702 144.614 82.3701 145.435 82.3472C145.64 82.3472 146.369 83.0344 147.053 83.8819ZM118.949 88.3255C121.98 90.387 126.927 94.3496 126.949 94.739C126.949 95.3804 125.878 95.6323 123.12 95.6552C121.661 95.6552 119.883 95.7698 119.2 95.8843C116.692 96.2966 114.481 96.3882 114.299 96.1133C114.208 95.953 114.048 94.6474 113.911 93.2043L113.706 90.5702L114.709 89.4937C115.256 88.8981 115.895 88.1194 116.1 87.7758C116.328 87.4322 116.669 87.1573 116.875 87.1573C117.057 87.1573 117.992 87.6842 118.949 88.3255ZM97.5686 88.4171C107.005 89.3792 111.313 90.2725 112.042 91.4177C112.544 92.1736 112.362 95.1513 111.723 96.6172C111.153 97.9229 109.74 99.343 108.213 100.145C107.096 100.74 106.8 100.786 104.612 100.763C102.606 100.74 101.968 100.649 100.646 100.122C96.4746 98.5184 93.3063 95.6323 92.1666 92.3568C91.7563 91.2116 91.3232 88.3484 91.5284 88.0506C91.6879 87.7987 91.0953 87.7529 97.5686 88.4171ZM160.797 99.8011C160.433 102.344 159.407 104.291 157.994 105.001C157.173 105.413 154.666 106.169 154.096 106.169C153.959 106.169 153.845 105.871 153.845 105.527C153.845 104.199 155.031 101.427 157.219 97.6022L158.245 95.7926L159.612 97.2128L160.957 98.61L160.797 99.8011ZM129.092 97.8541C129.024 98.8391 128.887 100.007 128.796 100.442C128.636 101.244 128.636 101.244 127.451 101.221C125.946 101.175 125.582 100.878 125.604 99.6637C125.627 98.0374 126.038 97.2128 127.154 96.6172C127.701 96.3195 128.408 96.0904 128.704 96.0904C129.251 96.0904 129.251 96.1133 129.092 97.8541ZM197.928 99.6179C200.321 101.404 204.037 104.176 206.156 105.734C208.299 107.291 210.35 108.849 210.715 109.192L211.399 109.811L208.8 109.834H206.225L203.649 111.437C200.823 113.201 199.729 113.728 198.908 113.728C198.384 113.728 198.293 113.476 197.176 109.65C194.144 99.091 193.369 96.3195 193.46 96.3195C193.529 96.3195 195.535 97.8083 197.928 99.6179ZM121.137 99.4117V101.473L120.225 101.771C119.724 101.931 118.105 102.137 116.624 102.229L113.957 102.389L114.094 100.901C114.162 100.076 114.322 99.0681 114.459 98.6558C114.664 97.9916 114.755 97.9229 115.621 97.9229C116.145 97.9229 117.103 97.7625 117.718 97.5793C118.356 97.4189 119.382 97.2815 119.997 97.3044L121.137 97.3502V99.4117ZM133.901 97.6938C134.79 97.8083 135.634 97.9229 135.793 97.9229C136.021 97.9229 136.044 98.3122 135.93 99.6866C135.839 100.672 135.679 101.611 135.542 101.748C135.406 101.954 134.562 102.046 132.83 102.046H130.323L130.482 100.03C130.687 97.2586 130.71 97.1899 131.576 97.3502C131.987 97.4189 133.035 97.5793 133.901 97.6938ZM139.622 98.0603C141.309 99.343 142.449 100.488 142.449 100.946C142.449 101.175 142.084 101.542 141.56 101.817C140.534 102.321 136.933 103.42 136.249 103.42C135.839 103.42 135.884 103.306 136.568 102.55C137.275 101.748 137.366 101.496 137.503 99.8927C137.662 98.1748 137.936 97.2357 138.323 97.2357C138.414 97.2357 139.007 97.6022 139.622 98.0603ZM124.214 99.7095C124.351 102.275 124.419 102.344 126.881 102.71C127.861 102.848 128.864 103.122 129.16 103.306C129.502 103.535 130.368 103.649 131.895 103.672C135.542 103.741 132.716 104.061 126.904 104.245C121.205 104.428 121.228 104.428 122.14 102.573C122.436 101.977 122.687 100.878 122.755 100.007C122.938 97.648 123.006 97.4189 123.599 97.5106C124.055 97.5793 124.1 97.7167 124.214 99.7095ZM112.658 99.7095C112.521 100.969 112.225 101.244 111.997 100.351C111.883 99.8469 112.498 98.1977 112.703 98.4268C112.772 98.4726 112.749 99.0681 112.658 99.7095ZM144.067 102.985C144.523 103.878 144.432 105.505 143.816 106.719C142.494 109.307 138.072 111.483 132.078 112.491C130.095 112.834 128.34 112.926 123.644 112.926H117.718L115.12 111.964C113.684 111.437 112.362 110.841 112.179 110.658C111.86 110.36 111.906 110.223 112.43 109.536C119.075 108.315 135.047 115.655 142.449 103.077C143.725 102.389 143.748 102.389 144.067 102.985ZM119.997 103.855C120.066 103.97 119.997 104.153 119.883 104.222C119.519 104.451 114.823 105.711 114.367 105.711C114.048 105.711 113.501 104.68 113.501 104.084C113.501 103.741 119.769 103.512 119.997 103.855ZM206.886 116.774C210.897 123.646 213.906 130.174 217.416 139.725C219.832 146.276 220.402 147.582 222.408 151.292C224.163 154.522 225.645 157.385 225.645 157.568C225.645 157.935 224.323 158.21 220.698 158.622C214.043 159.378 213.473 159.538 206.407 162.562C203.786 163.684 201.438 164.577 201.187 164.532C200.845 164.486 200.595 164.074 200.207 162.882C199.569 161.004 199.136 160.454 198.293 160.454C197.586 160.454 196.469 161.554 195.238 163.501C193.711 165.883 194.03 165.769 187.876 165.952L182.451 166.089L180.97 165.402C180.149 165.036 178.417 164.303 177.095 163.753C175.773 163.226 174.679 162.631 174.633 162.447C174.587 162.264 174.907 161.668 175.317 161.142C176.297 159.859 177.893 159.057 183.454 157.019C185.847 156.148 188.651 155.026 189.699 154.545C194.577 152.209 197.221 148.933 197.54 144.764C197.7 142.794 197.426 140.733 196.218 134.365C195.512 130.632 195.329 129.349 195.512 128.96C195.694 128.593 196.218 128.272 197.312 127.929C199.387 127.242 200.458 126.669 200.891 126.051C201.643 124.997 201.233 122.157 199.683 117.599L199.022 115.606L200.458 114.987C201.256 114.644 202.441 114.025 203.125 113.59C203.786 113.178 204.378 112.834 204.447 112.834C204.515 112.834 205.609 114.598 206.886 116.774ZM125.764 117.163L128.089 117.14V117.736C128.089 118.767 128.727 119.683 129.821 120.164C130.368 120.416 130.824 120.759 130.824 120.943C130.824 121.126 130.391 121.882 129.844 122.615C129.32 123.348 128.317 124.882 127.633 126.051L126.402 128.158L126.083 127.379C125.65 126.257 125.194 126.188 124.351 127.127L123.621 127.906L123.371 127.242C123.143 126.6 123.029 126.555 121.958 126.555H120.818L120.75 125.684C120.681 124.951 120.59 124.814 119.997 124.722L119.314 124.608L119.291 121.401C119.291 119.637 119.2 117.896 119.086 117.553L118.903 116.911L121.16 117.049C122.413 117.118 124.465 117.186 125.764 117.163ZM140.671 121.218C141.605 122.225 144.956 126.761 144.956 127.058C144.956 127.15 143.087 127.242 140.785 127.242H136.614L135.428 124.882C134.767 123.6 134.243 122.477 134.243 122.409C134.243 122.134 138.688 120.416 139.486 120.393C139.691 120.37 140.215 120.759 140.671 121.218ZM199.66 122.638C199.774 122.89 199.888 123.508 199.888 124.012C199.888 125.226 199.273 125.684 196.492 126.555C193.688 127.402 191.523 127.837 188.264 128.158C184.958 128.479 177.026 128.822 176.821 128.639C176.73 128.57 176.593 127.814 176.502 126.967L176.343 125.455L177.573 125.318C178.257 125.249 180.696 125.02 183.021 124.837C188.537 124.379 192.891 123.737 195.945 122.913C198.954 122.111 199.341 122.088 199.66 122.638ZM147.851 131.365C150.586 135.946 153.618 143.573 153.618 145.864C153.618 146.917 153.549 147.032 151.954 148.612C149.264 151.338 143.315 155.026 136.75 158.049C131.075 160.684 129.525 161.119 123.758 161.691L120.453 162.035L119.769 162.882C119.405 163.341 118.128 164.738 116.989 165.998C113.273 169.983 112.658 171.357 113.387 173.877C114.071 176.259 114.846 177.519 116.761 179.397C119.496 182.077 119.883 182.489 120.362 183.245C121.456 185.009 120.499 185.925 117.376 186.063C115.621 186.154 115.37 186.109 114.778 185.628C113.82 184.872 112.065 182.077 110.287 178.435C108.646 175.068 108.031 173.19 108.031 171.449C108.031 170.395 107.734 169.617 107.438 169.914C107.165 170.166 107.279 174.221 107.575 175.343C107.712 175.916 108.555 177.977 109.398 179.97C110.265 181.94 111.04 183.818 111.131 184.139C111.267 184.711 111.245 184.734 110.105 184.734C108.737 184.734 107.985 184.391 106.982 183.314C105.227 181.459 104.612 179.214 104.452 174.014C104.384 171.861 104.247 170.075 104.156 170.075C104.065 170.075 103.746 170.876 103.449 171.838C102.811 173.969 102.743 176.351 103.221 179.283C103.404 180.382 103.495 181.367 103.404 181.459C103.13 181.711 99.4605 177.908 98.7995 176.694C98.3892 175.916 98.1385 174.954 97.9561 173.556C97.6598 171.105 97.8422 169.685 98.5943 168.586C99.3237 167.486 99.2098 167.212 98.298 167.784C96.8848 168.632 96.7481 169.25 96.7937 173.785C96.8392 177.656 96.8392 177.863 96.429 177.863C95.7452 177.863 94.5599 176.717 94.0812 175.641C93.6938 174.747 93.671 174.473 93.8989 172.755C94.0585 171.724 94.1268 169.365 94.0812 167.509L94.0129 164.119L95.0842 163.043L96.1782 161.943H101.01C105.729 161.943 105.911 161.92 107.689 161.302C110.926 160.157 113.387 158.462 118.835 153.537C125.741 147.33 126.813 146.643 135.793 142.588L139.486 140.916V139.519C139.486 137.709 138.939 134.319 138.232 131.708C137.913 130.563 137.662 129.532 137.662 129.372C137.662 128.96 138.369 128.891 142.563 128.937L146.438 128.96L147.851 131.365ZM193.62 130.059C194.099 131.204 195.512 138.488 195.808 141.329C196.173 144.833 196.013 146.322 195.102 148.063C193.529 150.995 190.452 152.919 183.135 155.53C177.437 157.568 175.864 158.37 174.132 160.18C173.311 161.027 171.829 162.356 170.827 163.134C168.41 164.99 167.658 165.791 166.929 167.418C166.017 169.456 166.2 170.945 167.863 175.068C168.57 176.855 169.117 178.458 169.049 178.641C168.912 178.985 167.886 179.237 166.519 179.237H165.561L164.467 176.649C163.419 174.175 162.279 170.35 162.279 169.25C162.279 168.448 161.869 168.38 161.709 169.159C161.458 170.258 162.006 172.892 163.191 176.42L164.285 179.695H163.555C162.416 179.695 160.615 179.077 159.589 178.321C157.948 177.13 157.31 175.366 156.809 170.647C156.398 166.685 155.783 167.212 155.783 171.564C155.806 174.106 155.851 174.495 156.649 176.923C157.447 179.306 157.492 179.58 157.151 179.901C156.831 180.245 156.695 180.199 155.532 179.58C153.845 178.664 152.455 177.084 151.338 174.793C150.495 173.075 150.244 172.068 149.674 168.242L149.606 167.67L149.287 168.357C148.785 169.502 148.74 171.472 149.173 172.961C149.378 173.717 150.107 175.48 150.791 176.923C151.726 178.893 151.954 179.603 151.749 179.741C151.589 179.832 150.791 179.924 150.016 179.924C148.694 179.924 148.489 179.855 147.965 179.26C147.121 178.389 145.64 175.503 144.432 172.48C143.338 169.754 142.768 167.715 142.54 165.723C142.13 162.035 144.363 160.042 151.361 157.958C156.148 156.538 158.267 155.736 161.481 154.156C166.359 151.796 169.345 149.62 176.001 143.55C177.3 142.359 179.534 140.504 180.97 139.382C183.91 137.137 184.48 136.564 184.822 135.648C185.278 134.48 185.095 134.503 183.636 135.854C182.793 136.656 181.357 137.664 180.103 138.305L178.006 139.404V138.305C178.006 137.687 177.801 135.717 177.551 133.907C177.3 132.075 177.163 130.517 177.254 130.426C177.368 130.311 179.967 130.128 183.021 129.99C186.098 129.853 189.221 129.647 189.973 129.555C190.725 129.441 191.774 129.349 192.321 129.326C193.232 129.303 193.324 129.372 193.62 130.059ZM154.165 150.285C154.233 150.88 154.233 152.369 154.142 153.606C154.028 155.667 153.959 155.896 153.526 155.988C148.421 157.042 145.344 158.256 143.178 160.065C141.765 161.256 141.081 161.371 136.317 161.371H133.445L138.278 158.989C145.207 155.576 150.13 152.575 152.592 150.307C153.23 149.712 153.8 149.254 153.868 149.231C153.959 149.231 154.073 149.712 154.165 150.285ZM218.875 162.562C214.841 170.052 207.866 180.543 204.698 183.91C203.991 184.643 202.532 185.857 201.438 186.59C200.344 187.345 199.273 188.216 199.045 188.536C198.589 189.269 198.065 191.56 198.065 193.003V194.08L196.765 194.721C194.258 195.935 192.389 198.363 191.888 201.043C191.774 201.707 191.614 206.746 191.546 212.221C191.432 220.26 191.477 223.009 191.774 226.491C192.047 229.606 192.07 230.934 191.888 231.255C191.66 231.713 191.5 231.713 187.739 231.553C184.07 231.415 183.705 231.438 182.109 231.919C179.556 232.698 177.596 232.79 176.365 232.171C175.818 231.919 173.767 230.27 171.784 228.506C168.251 225.391 167.727 225.025 165.288 224.04C164.08 223.559 164.057 223.536 163.168 221.543L162.256 219.527L163.943 217.42C164.877 216.252 165.949 214.786 166.336 214.168C167.157 212.816 168.205 209.816 168.205 208.808C168.205 208.441 168.296 208.075 168.41 208.006C168.502 207.937 169.573 208.35 170.735 208.922C174.086 210.571 174.36 210.64 175.408 210.159C179.237 208.418 190.064 198.386 192.024 194.767L192.617 193.667L191.591 191.583C189.244 186.864 186.258 183.841 181.152 180.978L179.602 180.107V174.083C179.602 170.785 179.67 167.761 179.739 167.395L179.876 166.708L181.266 167.166C183.819 167.967 192.503 167.761 194.554 166.822C194.851 166.685 195.717 165.608 196.446 164.417C197.199 163.249 197.905 162.287 198.019 162.287C198.407 162.287 198.703 162.86 198.976 164.165C199.113 164.898 199.409 165.7 199.637 165.998C200.048 166.502 200.07 166.502 201.415 166.112C202.167 165.906 204.811 164.875 207.319 163.822C213.724 161.119 216.368 160.294 219.08 160.248L220.129 160.225L218.875 162.562ZM140.99 163.089C141.081 163.272 140.739 164.646 140.283 166.135C138.961 170.327 138.961 173.854 140.283 176.168C140.967 177.359 141.788 177.885 143.361 178.206C144.523 178.458 144.614 178.527 144.751 179.26C145.184 181.436 146.005 201.18 145.777 204.158C145.617 206.403 145.412 206.861 144.569 207.044C144.204 207.136 141.013 207.296 137.434 207.411L130.938 207.64L129.867 206.426C128.545 204.983 127.2 202.44 126.425 199.966C126.106 198.958 125.377 195.958 124.807 193.324C124.214 190.667 123.12 186.498 122.368 184.024C120.066 176.397 119.952 175.801 119.769 170.647C119.61 166.25 119.61 166.021 120.066 165.15C120.886 163.638 121.114 163.432 122.299 163.295C123.348 163.18 133.263 162.86 138.528 162.791C140.42 162.745 140.899 162.814 140.99 163.089ZM172.741 165.265C173.585 167.212 174.382 171.083 174.428 173.35C174.496 176.374 174.268 176.763 167.772 184.391C161.572 191.675 159.863 193.896 158.837 196.072C157.994 197.836 157.994 198.958 158.746 205.807C159.886 215.908 160.524 219.298 161.823 222.299C162.393 223.605 162.484 223.994 162.256 224.383C161.983 224.91 160.091 225.849 157.652 226.651C156.809 226.926 155.783 227.43 155.395 227.75C155.008 228.071 153.868 229.629 152.82 231.209C150.677 234.508 150.13 235.08 148.899 235.355C147.555 235.676 147.053 235.447 146.916 234.485C146.597 232.4 145.845 217.901 145.799 212.679L145.754 208.899L146.438 207.892L147.121 206.884L147.19 200.791C147.235 197.447 147.167 192.682 147.03 190.231C146.871 187.781 146.711 184.482 146.62 182.902L146.483 180.039L147.235 180.726C147.646 181.092 148.375 182.26 148.854 183.291C149.834 185.398 150.951 186.796 152.113 187.345C154.256 188.353 163.328 187.116 164.832 185.605C165.265 185.169 165.288 184.963 165.174 183.451C165.06 182.192 165.105 181.711 165.333 181.482C165.493 181.298 166.496 180.978 167.544 180.749C168.593 180.52 169.755 180.176 170.12 179.993C170.713 179.672 170.758 179.58 170.667 178.596C170.599 178 170.006 176.236 169.345 174.656C168.342 172.297 168.091 171.495 168.023 170.166C167.932 168.357 168.16 167.693 169.413 166.25C170.143 165.425 171.761 164.119 172.08 164.119C172.171 164.119 172.468 164.623 172.741 165.265ZM176.069 164.99C176.821 165.356 177.596 165.837 177.779 166.066C178.075 166.41 178.12 167.509 178.12 172.686C178.12 176.099 178.029 179.512 177.938 180.268L177.733 181.642L174.154 185.192C171.716 187.597 170.371 189.132 169.938 189.934C169.277 191.239 168.661 193.69 168.661 195.202C168.661 196.141 168.661 196.141 167.704 196.301C166.268 196.53 163.555 197.63 161.504 198.821C160.501 199.394 159.658 199.852 159.612 199.852C159.407 199.852 159.589 198.363 159.909 197.401C160.661 195.202 162.302 193.003 168.73 185.582C176.662 176.442 177.026 175.458 175.157 168.151C174.747 166.502 174.314 164.967 174.246 164.738C174.018 164.165 174.474 164.234 176.069 164.99ZM117.832 167.83C118.06 171.793 118.402 174.839 118.835 176.786C119.131 178.137 119.291 179.283 119.2 179.351C118.858 179.558 117.217 178.137 116.51 177.038C114.8 174.358 114.322 172.319 115.051 170.739C115.575 169.548 117.057 167.784 117.513 167.784C117.695 167.784 117.832 167.807 117.832 167.83ZM142.472 171.587C142.973 173.052 143.588 174.656 143.839 175.137C144.432 176.328 144.386 176.488 143.497 176.488C142.472 176.488 141.4 175.572 141.081 174.473C140.83 173.533 140.762 168.632 141.013 168.38C141.241 168.151 141.446 168.586 142.472 171.587ZM161.709 180.703C162.553 181.001 163.259 181.298 163.305 181.344C163.487 181.55 163.647 184.436 163.464 184.688C163.168 185.124 159.407 185.834 156.011 186.086L153.048 186.315L151.976 185.261C150.882 184.184 150.267 182.948 150.518 182.306C150.586 182.123 151.133 181.756 151.726 181.505C152.341 181.253 153.139 180.886 153.549 180.68C154.256 180.291 154.301 180.313 154.826 180.794C155.099 181.069 155.692 181.413 156.079 181.55C156.763 181.779 156.945 181.734 158.131 180.978C158.837 180.543 159.612 180.176 159.817 180.153C160.023 180.153 160.889 180.405 161.709 180.703ZM183.363 184.184C184.366 184.849 185.688 185.857 186.303 186.406L187.42 187.391L185.072 190.575C181.403 195.5 180.468 197.355 179.26 202.119L178.781 204.043L177.619 202.463C176.092 200.401 174.154 198.546 172.126 197.218C170.28 196.049 170.12 195.706 170.325 193.713C170.599 191.125 171.784 189.453 176.844 184.62C177.87 183.635 178.827 182.581 178.941 182.283L179.146 181.756L180.331 182.352C180.992 182.673 182.36 183.497 183.363 184.184ZM190.452 192.911C190.52 193.324 190.52 193.919 190.452 194.24C190.247 195.042 188.195 197.355 184.138 201.341C180.901 204.524 180.628 204.731 180.559 204.158C180.423 203.058 181.425 199.531 182.542 197.218C183.545 195.133 186.144 191.354 187.716 189.682L188.332 189.04L189.312 190.598C189.859 191.468 190.383 192.522 190.452 192.911ZM171.351 198.592C173.448 199.554 178.006 204.753 178.006 206.174C178.006 206.746 177.163 207.548 175.568 208.464C174.382 209.174 174.587 209.22 170.941 207.181C169.619 206.426 167.225 205.303 165.607 204.662C162.302 203.356 160.57 202.509 160.319 202.096C159.909 201.432 164.011 198.867 166.678 198.134C168.183 197.722 169.755 197.882 171.351 198.592ZM163.35 205.441C164.832 205.99 166.2 206.517 166.405 206.586C166.701 206.723 166.724 206.998 166.564 208.441C166.382 210.205 165.698 212.221 164.672 213.961C164.103 214.946 162.37 217.077 162.051 217.214C161.823 217.306 161.504 215.427 160.797 209.861C160.159 204.799 160.136 204.433 160.456 204.433C160.57 204.433 161.869 204.891 163.35 205.441ZM143.794 209.518C143.908 209.816 144.113 212.473 144.249 215.427C144.956 229.697 145.207 233.912 145.321 234.508C145.435 235.08 145.366 235.172 144.227 235.676C143.566 235.974 141.788 236.89 140.283 237.737C138.779 238.562 137.389 239.249 137.184 239.249C136.181 239.249 135.565 237.394 135.064 232.835C134.517 228.117 134.243 223.307 134.084 215.817L133.947 209.014H138.779C143.566 209.014 143.611 209.014 143.794 209.518ZM132.374 224.887C132.511 225.048 132.716 225.849 132.853 226.651C133.172 228.758 133.81 236.088 133.696 236.225C133.628 236.271 132.579 235.722 131.348 234.989C130.118 234.256 128.089 233.271 126.835 232.79C124.716 231.965 123.986 231.484 123.986 230.911C123.986 230.476 125.126 228.163 125.718 227.407C127.04 225.643 131.599 223.925 132.374 224.887ZM167.157 226.514C167.795 226.926 169.14 228.048 170.143 228.942C171.146 229.858 173.106 231.576 174.496 232.744C177.71 235.424 178.69 236.569 178.69 237.554C178.69 238.768 178.234 239.432 176.798 240.394C173.858 242.364 172.81 241.723 165.538 233.523C162.803 230.43 160.911 228.735 159.703 228.277C158.86 227.957 159.042 227.728 160.684 227.132C161.458 226.834 162.621 226.353 163.259 226.055C164.741 225.345 165.607 225.437 167.157 226.514ZM158.131 229.308C158.997 229.629 160.182 230.293 160.775 230.774C163.008 232.629 167.704 238.287 168.775 240.394C169.071 240.967 169.368 241.906 169.459 242.456C169.755 244.471 168.205 245.342 166.177 244.311C165.128 243.761 162.53 241.837 158.678 238.745C157.082 237.462 155.145 235.996 154.37 235.493C153.572 234.989 152.934 234.485 152.934 234.347C152.934 233.889 156.17 228.713 156.467 228.713C156.512 228.713 157.264 228.964 158.131 229.308ZM189.745 233.202C193.232 233.408 193.278 233.431 193.278 235.057C193.278 235.79 193.118 237.256 192.913 238.333C192.708 239.409 192.503 240.509 192.457 240.784C192.252 241.86 191.021 242.845 187.876 244.471C186.144 245.342 183.636 246.533 182.314 247.106C176.434 249.625 162.279 253.634 162.279 252.786C162.279 252.672 162.803 252.007 163.442 251.251C164.9 249.579 165.242 248.801 165.242 247.037C165.242 245.8 165.288 245.64 165.652 245.754C169.049 246.785 171.168 245.617 171.168 242.708V241.791L172.445 242.387C173.129 242.708 174.063 242.96 174.496 242.96C176.388 242.96 179.876 240.326 180.195 238.699C180.377 237.669 180.149 236.638 179.465 235.378C179.169 234.828 178.941 234.347 178.964 234.324C179.009 234.301 179.556 234.141 180.172 233.981C180.81 233.82 181.973 233.5 182.793 233.271C183.819 232.973 184.731 232.881 185.756 232.95C186.577 233.019 188.377 233.133 189.745 233.202ZM125.536 233.889C127.633 234.576 130.232 235.951 131.964 237.256C133.445 238.356 135.383 240.165 135.383 240.394C135.383 240.486 134.608 241.15 133.673 241.86C132.215 242.96 130.984 244.265 129.821 245.914C129.571 246.304 129.457 246.304 127.405 245.892C125.536 245.525 119.473 244.151 112.225 242.456C109.17 241.746 109.17 241.746 109.923 239.684C111.336 235.813 113.023 234.485 117.581 233.66C120.544 233.11 123.508 233.202 125.536 233.889ZM153.937 237.073C154.712 237.508 155.578 238.081 155.897 238.333L156.467 238.814L155.897 238.653C155.008 238.424 151.384 236.546 151.201 236.248C150.905 235.744 152.478 236.225 153.937 237.073ZM148.854 237.417C150.86 238.035 157.903 241.54 160.136 243.028C162.165 244.38 163.555 245.777 163.783 246.693C164.171 248.205 163.145 249.854 160.592 251.847L159.316 252.832L157.652 252.717C155.988 252.603 155.464 252.442 143.702 248.32C139.645 246.899 136.819 246.35 133.331 246.35L131.166 246.327L132.693 244.884C135.018 242.639 140.899 238.882 144.249 237.508C145.822 236.844 146.985 236.821 148.854 237.417ZM118.265 245.411C124.214 246.808 129.137 248.045 129.229 248.182C129.32 248.32 129.457 249.35 129.525 250.427C129.593 251.526 129.867 253.175 130.14 254.069C130.847 256.657 130.893 256.588 128.841 256.817C127.861 256.909 125.126 257.001 122.733 257.001C116.419 256.978 113.889 256.359 110.675 254.046C107.734 251.939 105.501 249.03 105.159 246.831C104.954 245.548 106.139 242.914 106.937 242.914C107.233 242.914 112.339 244.036 118.265 245.411ZM194.623 243.945C196.332 245.502 196.241 246.991 194.372 248.411C192.07 250.152 179.716 256.336 175.636 257.779C173.083 258.696 166.701 260.116 164.513 260.253C162.917 260.368 162.735 260.345 162.598 259.955C162.53 259.726 162.028 258.535 161.458 257.344C160.615 255.489 160.524 255.122 160.797 254.916C160.98 254.779 162.097 254.527 163.236 254.367C170.849 253.359 185.437 248.068 191.705 244.082C192.503 243.555 193.301 243.143 193.438 243.143C193.597 243.143 194.144 243.509 194.623 243.945ZM136.636 248.182C139.668 248.434 140.147 248.571 148.261 251.503C151.156 252.557 154.575 253.679 155.874 254.023C158.632 254.71 159.088 254.916 159.088 255.466C159.088 255.672 159.567 256.863 160.159 258.077C160.729 259.314 161.162 260.391 161.071 260.459C160.684 260.849 158.587 261.009 152.911 261.009H146.643L141.4 259.383C134.38 257.207 132.921 256.588 132.26 255.397C131.713 254.389 130.961 251.709 130.71 249.877C130.437 247.838 130.893 247.701 136.636 248.182ZM180.195 258.215C180.628 258.512 181.015 260.093 180.856 260.963C180.787 261.421 180.559 262.246 180.354 262.773L179.99 263.758L173.471 263.643C169.892 263.574 164.034 263.483 160.478 263.414L154.028 263.3L154.187 266.873L154.37 270.446L151.315 270.309C149.629 270.24 146.574 270.125 144.5 270.034C142.426 269.965 140.489 269.851 140.215 269.782L139.668 269.644L139.759 265.247C139.782 262.796 139.873 260.757 139.942 260.688C140.01 260.62 140.944 260.872 142.039 261.238C145.412 262.383 148.375 262.681 154.643 262.544C162.963 262.36 170.097 261.215 176.434 259.108C176.501 259.085 176.566 259.063 176.631 259.042C179.786 257.985 179.837 257.968 180.195 258.215ZM133.217 258.696C134.471 258.787 136.089 259.062 136.819 259.268L138.118 259.658V262.063V264.445H137.389C132.739 264.422 119.815 263.941 118.402 263.758C116.214 263.437 115.644 263.116 115.302 261.948C114.96 260.826 115.211 259.039 115.735 258.719C116.191 258.467 129.89 258.421 133.217 258.696ZM151.361 272.164C151.543 272.347 152.204 283.777 152.25 287.396C152.25 287.602 152.455 287.854 152.729 287.923C153.481 288.175 154.734 289.412 155.281 290.42C156.034 291.84 155.965 294.382 155.145 295.963C153.959 298.322 151.999 299.261 148.375 299.261H146.096L145.23 298.459C143.976 297.337 142.905 295.23 142.905 293.901C142.905 292.664 143.338 291.725 144.797 289.732C146.278 287.694 146.324 287.579 146.324 285.128C146.324 282.861 145.754 274.248 145.503 272.599L145.366 271.706L148.238 271.82C149.834 271.889 151.247 272.049 151.361 272.164ZM117.308 54.1736C116.989 54.4256 115.758 55.7541 114.572 57.1055C113.387 58.4798 111.906 59.9228 111.267 60.3351C109.786 61.2743 107.962 61.6637 106.435 61.3659C105.82 61.2285 105.296 61.1826 105.296 61.2743C105.296 61.8927 107.598 62.9693 109.74 63.3586C110.971 63.5877 111.427 63.5877 112.749 63.2441C114.253 62.8776 114.96 62.5799 121.844 59.3731C125.126 57.8384 127.382 57.0597 129.274 56.8077C129.844 56.739 130.459 56.5329 130.596 56.3496C131.029 55.8228 129.867 55.6854 127.246 55.9602C124.396 56.2809 123.371 56.6703 117.285 59.7167C114.8 60.9765 112.703 61.9385 112.635 61.8698C112.589 61.8011 112.977 61.2056 113.547 60.5413C114.709 59.1441 117.946 54.815 118.288 54.1507C118.607 53.5552 118.083 53.5552 117.308 54.1736ZM139.486 55.0669C135.565 55.6166 131.645 58.2737 130.049 61.4575C129.115 63.3129 129.388 63.7251 130.505 62.1905C132.534 59.4418 135.018 57.7239 137.936 57.0368C139.759 56.6016 143.475 56.6016 145.48 57.0368C148.785 57.7468 152.432 60.4497 154.848 64.0229C156.262 66.1531 156.535 65.695 155.281 63.2899C154.21 61.2056 150.677 57.4949 148.922 56.6245C146.096 55.2043 142.608 54.6317 139.486 55.0669ZM97.7282 57.6323C97.0216 58.1133 96.1326 58.8921 95.7907 59.3502L95.1753 60.1748L95.5856 61.2514C96.3606 63.2441 96.3378 63.267 95.0614 64.481C93.671 65.7866 93.5798 66.1073 94.7195 65.8553C95.6768 65.6263 97.6598 63.8168 97.8649 62.9693C97.9561 62.6486 97.8649 62.1218 97.6598 61.7324C97.1356 60.7245 97.2267 60.2206 98.2296 58.7547C99.8252 56.3954 99.734 56.2122 97.7282 57.6323ZM143.315 72.2001C142.859 72.3146 141.993 74.0097 141.993 74.7655C141.993 75.0404 142.289 75.5901 142.654 75.9566C143.588 76.8728 144.66 76.8728 145.754 75.9108C146.802 74.9946 146.962 74.3074 146.346 73.4599C145.617 72.4292 144.386 71.9023 143.315 72.2001ZM100.532 80.8813C99.6656 81.6142 99.4149 82.7137 99.9164 83.6757C100.121 84.0651 100.486 84.5003 100.714 84.6377C102.15 85.3936 104.156 84.2483 104.156 82.6679C104.156 81.7059 103.427 80.8125 102.378 80.5148C101.261 80.217 101.33 80.1941 100.532 80.8813ZM162.051 88.4629C161.39 88.8294 160.638 89.3792 160.41 89.6998C158.86 91.7842 160.547 94.991 163.533 95.6552C164.695 95.9072 164.9 95.9072 165.652 95.4949C166.838 94.8535 167.385 93.4792 167.248 91.5323C167.18 90.6848 166.974 89.6769 166.747 89.2875C165.972 87.7529 164.057 87.4322 162.051 88.4629ZM165.333 89.8602C165.835 90.8451 165.994 92.6546 165.652 93.3418C165.014 94.5558 163.396 94.5099 162.119 93.2272C160.911 92.0133 161.185 90.6619 162.826 89.654C163.92 88.9898 164.923 89.0814 165.333 89.8602Z" fill="black"/>
<path d="M189.745 233.202C193.232 233.408 193.278 233.431 193.278 235.057C193.278 235.79 193.118 237.256 192.913 238.333C192.708 239.409 192.503 240.509 192.457 240.784C192.252 241.86 191.022 242.845 187.876 244.471C186.144 245.342 183.636 246.533 182.314 247.106C176.434 249.625 162.279 253.634 162.279 252.786C162.279 252.672 162.803 252.007 163.442 251.251C164.9 249.579 165.242 248.801 165.242 247.037C165.242 245.8 165.288 245.64 165.652 245.754C169.049 246.785 171.168 245.617 171.168 242.708V241.792L172.445 242.387C173.129 242.708 174.063 242.96 174.496 242.96C176.388 242.96 179.876 240.326 180.195 238.699C180.377 237.669 180.149 236.638 179.465 235.378C179.169 234.828 178.941 234.347 178.964 234.324C179.009 234.301 179.556 234.141 180.172 233.981C180.81 233.82 181.973 233.5 182.793 233.271C183.819 232.973 184.731 232.881 185.756 232.95C186.577 233.019 188.377 233.133 189.745 233.202Z" fill="black"/>
<path d="M121.137 99.4117V101.473L120.225 101.771C119.724 101.931 118.105 102.137 116.624 102.229L113.957 102.389L114.094 100.901C114.162 100.076 114.322 99.0681 114.459 98.6558C114.664 97.9916 114.755 97.9229 115.621 97.9229C116.145 97.9229 117.103 97.7625 117.718 97.5793C118.356 97.419 119.382 97.2815 119.997 97.3044L121.137 97.3502V99.4117Z" fill="#FEFFBB"/>
<path d="M129.092 97.8542C129.024 98.8391 128.887 100.007 128.796 100.442C128.636 101.244 128.636 101.244 127.451 101.221C125.946 101.175 125.582 100.878 125.605 99.6637C125.627 98.0374 126.038 97.2128 127.154 96.6173C127.702 96.3195 128.408 96.0904 128.704 96.0904C129.251 96.0904 129.251 96.1133 129.092 97.8542Z" fill="#FEFFBB"/>
<path d="M133.901 97.6938C134.79 97.8083 135.634 97.9229 135.793 97.9229C136.021 97.9229 136.044 98.3123 135.93 99.6866C135.839 100.672 135.679 101.611 135.542 101.748C135.406 101.954 134.562 102.046 132.83 102.046H130.323L130.482 100.03C130.687 97.2586 130.71 97.1899 131.576 97.3502C131.987 97.419 133.035 97.5793 133.901 97.6938Z" fill="#FEFFBB"/>
<path d="M119.997 103.855C120.066 103.97 119.997 104.153 119.883 104.222C119.519 104.451 114.823 105.711 114.367 105.711C114.048 105.711 113.501 104.68 113.501 104.084C113.501 103.741 119.769 103.512 119.997 103.855Z" fill="#FEFFBB"/>
<path d="M125.764 117.163L128.089 117.14V117.736C128.089 118.767 128.727 119.683 129.821 120.164C130.368 120.416 130.824 120.76 130.824 120.943C130.824 121.126 130.391 121.882 129.844 122.615C129.32 123.348 128.317 124.883 127.633 126.051L126.402 128.158L126.083 127.379C125.65 126.257 125.194 126.188 124.351 127.127L123.622 127.906L123.371 127.242C123.143 126.6 123.029 126.555 121.958 126.555H120.818L120.75 125.684C120.681 124.951 120.59 124.814 119.997 124.722L119.314 124.608L119.291 121.401C119.291 119.637 119.2 117.896 119.086 117.553L118.903 116.911L121.16 117.049C122.414 117.118 124.465 117.186 125.764 117.163Z" fill="#545151"/>
<path d="M165.334 89.8602C165.835 90.8451 165.995 92.6546 165.653 93.3418C165.014 94.5558 163.396 94.51 162.12 93.2273C160.912 92.0133 161.185 90.6619 162.826 89.654C163.92 88.9898 164.923 89.0814 165.334 89.8602Z" fill="#9FA05C"/>
<path d="M160.798 99.8011C160.433 102.344 159.407 104.291 157.994 105.001C157.174 105.413 154.666 106.169 154.096 106.169C153.96 106.169 153.846 105.871 153.846 105.527C153.846 104.199 155.031 101.427 157.219 97.6022L158.245 95.7926L159.612 97.2128L160.957 98.61L160.798 99.8011Z" fill="#9FA05C"/>
<path d="M199.66 122.638C199.774 122.89 199.888 123.508 199.888 124.012C199.888 125.226 199.273 125.684 196.492 126.555C193.689 127.402 191.523 127.837 188.264 128.158C184.959 128.479 177.027 128.822 176.821 128.639C176.73 128.57 176.593 127.814 176.502 126.967L176.343 125.455L177.574 125.318C178.257 125.249 180.696 125.02 183.021 124.837C188.537 124.379 192.891 123.737 195.945 122.913C198.954 122.111 199.341 122.088 199.66 122.638Z" fill="white"/>
<path d="M194.623 243.945C196.332 245.502 196.241 246.991 194.372 248.411C192.07 250.152 179.716 256.336 175.636 257.779C173.083 258.696 166.701 260.116 164.513 260.253C162.917 260.368 162.735 260.345 162.598 259.955C162.53 259.726 162.028 258.535 161.459 257.344C160.615 255.489 160.524 255.122 160.798 254.916C160.98 254.779 162.097 254.527 163.237 254.367C170.85 253.359 185.437 248.068 191.705 244.082C192.503 243.555 193.301 243.143 193.438 243.143C193.597 243.143 194.144 243.509 194.623 243.945Z" fill="#BABABA"/>
<path d="M136.637 248.182C139.668 248.434 140.147 248.571 148.261 251.503C151.156 252.557 154.575 253.679 155.874 254.023C158.632 254.71 159.088 254.916 159.088 255.466C159.088 255.672 159.567 256.863 160.159 258.077C160.729 259.314 161.162 260.391 161.071 260.459C160.684 260.849 158.587 261.009 152.911 261.009H146.643L141.4 259.383C134.38 257.207 132.921 256.588 132.26 255.397C131.713 254.389 130.961 251.71 130.71 249.877C130.437 247.838 130.893 247.701 136.637 248.182Z" fill="#BABABA"/>
<path d="M118.265 245.411C124.214 246.808 129.138 248.045 129.229 248.182C129.32 248.32 129.457 249.35 129.525 250.427C129.593 251.526 129.867 253.175 130.141 254.069C130.847 256.657 130.893 256.588 128.841 256.817C127.861 256.909 125.126 257.001 122.733 257.001C116.419 256.978 113.889 256.359 110.675 254.046C107.735 251.939 105.501 249.03 105.159 246.831C104.954 245.548 106.139 242.914 106.937 242.914C107.233 242.914 112.339 244.036 118.265 245.411Z" fill="#BABABA"/>
<path d="M167.157 226.514C167.795 226.926 169.14 228.048 170.143 228.942C171.146 229.858 173.106 231.576 174.496 232.744C177.71 235.424 178.69 236.569 178.69 237.554C178.69 238.768 178.235 239.432 176.799 240.394C173.858 242.364 172.81 241.723 165.539 233.523C162.803 230.43 160.912 228.735 159.704 228.277C158.86 227.957 159.043 227.728 160.684 227.132C161.459 226.834 162.621 226.353 163.259 226.056C164.741 225.345 165.607 225.437 167.157 226.514Z" fill="#313E4A"/>
<path d="M158.131 229.308C158.997 229.629 160.182 230.293 160.775 230.774C163.009 232.629 167.704 238.287 168.775 240.394C169.072 240.967 169.368 241.906 169.459 242.456C169.755 244.471 168.205 245.342 166.177 244.311C165.128 243.761 162.53 241.837 158.678 238.745C157.082 237.462 155.145 235.996 154.37 235.493C153.572 234.989 152.934 234.485 152.934 234.347C152.934 233.889 156.171 228.713 156.467 228.713C156.512 228.713 157.265 228.965 158.131 229.308Z" fill="#313E4A"/>
<path d="M148.854 237.417C150.86 238.035 157.903 241.54 160.137 243.028C162.165 244.38 163.556 245.777 163.784 246.693C164.171 248.205 163.145 249.854 160.592 251.847L159.316 252.832L157.652 252.717C155.988 252.603 155.464 252.443 143.703 248.32C139.645 246.899 136.819 246.35 133.332 246.35L131.166 246.327L132.693 244.884C135.018 242.639 140.899 238.883 144.25 237.508C145.822 236.844 146.985 236.821 148.854 237.417Z" fill="#313E4A"/>
<path d="M132.374 224.887C132.511 225.048 132.716 225.849 132.853 226.651C133.172 228.758 133.81 236.088 133.696 236.226C133.628 236.271 132.579 235.722 131.349 234.989C130.118 234.256 128.089 233.271 126.835 232.79C124.716 231.965 123.986 231.484 123.986 230.911C123.986 230.476 125.126 228.163 125.719 227.407C127.041 225.643 131.599 223.925 132.374 224.887Z" fill="#313E4A"/>
<path d="M125.536 233.889C127.633 234.576 130.232 235.951 131.964 237.256C133.446 238.356 135.383 240.165 135.383 240.394C135.383 240.486 134.608 241.15 133.673 241.86C132.215 242.96 130.984 244.265 129.821 245.914C129.571 246.304 129.457 246.304 127.405 245.892C125.536 245.525 119.473 244.151 112.225 242.456C109.171 241.746 109.171 241.746 109.923 239.684C111.336 235.813 113.023 234.485 117.581 233.66C120.545 233.11 123.508 233.202 125.536 233.889Z" fill="#313E4A"/>
<path d="M153.937 237.073C154.712 237.508 155.578 238.081 155.897 238.333L156.467 238.814L155.897 238.653C155.008 238.424 151.384 236.546 151.202 236.248C150.905 235.744 152.478 236.226 153.937 237.073Z" fill="#313E4A"/>
<path fill-rule="evenodd" clip-rule="evenodd" d="M144.66 62.5341C148.284 63.4732 151.475 65.9241 153.002 68.9705L153.8 70.5739L149.424 75.6131L145.047 80.6293L141.286 82.2098C137.07 83.9964 136.112 84.2942 135.246 84.088C133.992 83.7674 131.257 80.6522 129.935 78.0639C129.525 77.2164 129.457 76.7125 129.457 73.8722C129.457 70.78 129.479 70.5968 130.118 69.337C132.123 65.3285 135.269 62.9235 139.486 62.0989C140.375 61.9385 143.201 62.1676 144.66 62.5341ZM141.993 74.7656C141.993 74.0097 142.859 72.3147 143.315 72.2001C144.386 71.9024 145.617 72.4292 146.346 73.4599C146.962 74.3074 146.802 74.9946 145.754 75.9108C144.66 76.8728 143.588 76.8728 142.654 75.9566C142.289 75.5901 141.993 75.0404 141.993 74.7656Z" fill="#FFE8E8"/>
<path fill-rule="evenodd" clip-rule="evenodd" d="M103.928 74.7885C106.64 75.3153 108.943 76.8041 110.356 79.003C111.655 81.0416 112.134 82.8282 112.134 85.7601C112.134 87.0886 112.042 88.3255 111.928 88.4859C111.723 88.8294 111.86 88.8294 104.612 87.7529C100.577 87.1345 94.4687 86.4702 93.0099 86.4702C91.5967 86.4702 91.46 86.1037 92.0298 83.7674C92.6452 81.2249 94.4915 77.4684 95.6996 76.3002C96.2238 75.7963 97.1127 75.2466 97.8193 74.9946C99.1869 74.5136 102.013 74.422 103.928 74.7885ZM99.9163 83.6757C99.4149 82.7137 99.6656 81.6143 100.532 80.8813C101.33 80.1941 101.261 80.217 102.378 80.5148C103.427 80.8126 104.156 81.7059 104.156 82.6679C104.156 84.2484 102.15 85.3936 100.714 84.6378C100.486 84.5003 100.121 84.0651 99.9163 83.6757Z" fill="#FFE8E8"/>
<path d="M154.051 74.7656C153.686 78.4533 152.615 81.2249 150.86 83.0802C149.788 84.2026 149.287 84.1797 148.307 82.9657C146.893 81.2249 146.893 81.1561 147.965 79.7818C149.834 77.3768 154.073 72.6124 154.187 72.7957C154.21 72.8186 154.142 73.7119 154.051 74.7656Z" fill="#FFE8E8"/>
<path d="M97.5687 88.4171C107.005 89.3792 111.313 90.2725 112.042 91.4177C112.544 92.1736 112.362 95.1513 111.723 96.6173C111.154 97.9229 109.74 99.343 108.213 100.145C107.096 100.74 106.8 100.786 104.612 100.763C102.606 100.74 101.968 100.649 100.646 100.122C96.4746 98.5184 93.3063 95.6323 92.1667 92.3569C91.7564 91.2116 91.3233 88.3484 91.5284 88.0507C91.688 87.7987 91.0954 87.7529 97.5687 88.4171Z" fill="#D7DFF4"/>
<path d="M147.053 83.8819C148.991 86.2869 149.971 87.8445 149.971 88.463C149.971 89.173 148.056 91.2345 146.233 92.4714C142.905 94.7619 139.167 95.9072 134.927 95.953C132.488 95.9759 132.215 95.9301 131.121 95.3575C129.548 94.51 125.308 91.3032 125.468 91.0513C125.764 90.5702 144.614 82.3701 145.435 82.3472C145.64 82.3472 146.369 83.0344 147.053 83.8819Z" fill="#D7DFF4"/>
<path d="M139.622 98.0603C141.309 99.343 142.449 100.488 142.449 100.946C142.449 101.175 142.084 101.542 141.56 101.817C140.534 102.321 136.933 103.42 136.249 103.42C135.839 103.42 135.884 103.306 136.568 102.55C137.275 101.748 137.366 101.496 137.503 99.8927C137.662 98.1748 137.936 97.2357 138.323 97.2357C138.414 97.2357 139.007 97.6022 139.622 98.0603Z" fill="#571621"/>
<path d="M124.214 99.7095C124.351 102.275 124.419 102.344 126.881 102.71C127.861 102.848 128.864 103.122 129.16 103.306C129.502 103.535 130.368 103.649 131.895 103.672C135.542 103.741 132.716 104.062 126.904 104.245C121.205 104.428 121.228 104.428 122.14 102.573C122.436 101.977 122.687 100.878 122.755 100.007C122.938 97.648 123.006 97.4189 123.599 97.5106C124.055 97.5793 124.1 97.7167 124.214 99.7095Z" fill="#571621"/>
<path d="M119.997 103.855C120.066 103.97 119.997 104.153 119.883 104.222C119.519 104.451 114.823 105.711 114.367 105.711C114.048 105.711 113.501 104.68 113.501 104.084C113.501 103.741 119.769 103.512 119.997 103.855Z" fill="#571621"/>
<path d="M144.067 102.985C144.523 103.878 144.432 105.505 143.816 106.719C142.494 109.307 138.073 111.483 132.078 112.491C130.095 112.834 128.34 112.926 123.644 112.926H117.718L115.12 111.964C113.684 111.437 112.362 110.842 112.179 110.658C111.86 110.361 111.906 110.223 112.43 109.536C120.626 108.902 136.331 114.403 142.449 103.077C143.725 102.389 143.748 102.389 144.067 102.985Z" fill="#571621"/>
<path d="M193.62 130.059C194.099 131.204 195.512 138.488 195.808 141.328C196.173 144.833 196.013 146.322 195.102 148.063C193.529 150.995 190.452 152.919 183.135 155.53C177.437 157.568 175.864 158.37 174.132 160.18C173.311 161.027 171.83 162.356 170.827 163.134C168.411 164.99 167.658 165.791 166.929 167.418C166.017 169.456 166.2 170.945 167.864 175.068C168.57 176.855 169.117 178.458 169.049 178.641C168.912 178.985 167.886 179.237 166.519 179.237H165.561L164.467 176.649C163.419 174.175 162.279 170.35 162.279 169.25C162.279 168.448 161.869 168.38 161.709 169.159C161.459 170.258 162.006 172.892 163.191 176.42L164.285 179.695H163.556C162.416 179.695 160.615 179.077 159.59 178.321C157.948 177.13 157.31 175.366 156.809 170.647C156.398 166.685 155.783 167.212 155.783 171.564C155.806 174.106 155.851 174.495 156.649 176.923C157.447 179.306 157.493 179.58 157.151 179.901C156.832 180.245 156.695 180.199 155.532 179.58C153.846 178.664 152.455 177.084 151.338 174.793C150.495 173.075 150.244 172.067 149.674 168.242L149.606 167.67L149.287 168.357C148.786 169.502 148.74 171.472 149.173 172.961C149.378 173.717 150.108 175.48 150.791 176.923C151.726 178.893 151.954 179.603 151.749 179.741C151.589 179.832 150.791 179.924 150.016 179.924C148.694 179.924 148.489 179.855 147.965 179.26C147.122 178.389 145.64 175.503 144.432 172.48C143.338 169.754 142.768 167.715 142.54 165.723C142.13 162.035 144.364 160.042 151.361 157.958C156.148 156.538 158.268 155.736 161.481 154.156C166.359 151.796 169.345 149.62 176.001 143.55C177.3 142.359 179.534 140.504 180.97 139.382C183.91 137.137 184.48 136.564 184.822 135.648C185.278 134.48 185.095 134.503 183.637 135.854C182.793 136.656 181.357 137.664 180.104 138.305L178.007 139.404V138.305C178.007 137.687 177.801 135.717 177.551 133.907C177.3 132.075 177.163 130.517 177.254 130.426C177.368 130.311 179.967 130.128 183.021 129.99C186.098 129.853 189.221 129.647 189.973 129.555C190.725 129.441 191.774 129.349 192.321 129.326C193.233 129.303 193.324 129.372 193.62 130.059Z" fill="#FFE91F"/>
<path d="M147.851 131.365C150.586 135.946 153.618 143.573 153.618 145.864C153.618 146.917 153.549 147.032 151.954 148.612C149.264 151.338 143.315 155.026 136.751 158.049C131.075 160.684 129.525 161.119 123.758 161.691L120.453 162.035L119.77 162.882C119.405 163.341 118.128 164.738 116.989 165.998C113.273 169.983 112.658 171.357 113.387 173.877C114.071 176.259 114.846 177.519 116.761 179.397C119.496 182.077 119.883 182.489 120.362 183.245C121.456 185.009 120.499 185.925 117.376 186.063C115.621 186.154 115.37 186.108 114.778 185.627C113.82 184.872 112.065 182.077 110.287 178.435C108.646 175.068 108.031 173.19 108.031 171.449C108.031 170.395 107.735 169.617 107.438 169.914C107.165 170.166 107.279 174.221 107.575 175.343C107.712 175.916 108.555 177.977 109.399 179.97C110.265 181.94 111.04 183.818 111.131 184.139C111.268 184.711 111.245 184.734 110.105 184.734C108.738 184.734 107.985 184.391 106.982 183.314C105.227 181.459 104.612 179.214 104.452 174.014C104.384 171.861 104.247 170.075 104.156 170.075C104.065 170.075 103.746 170.876 103.449 171.838C102.811 173.969 102.743 176.351 103.222 179.283C103.404 180.382 103.495 181.367 103.404 181.459C103.13 181.711 99.4606 177.908 98.7996 176.694C98.3893 175.916 98.1386 174.954 97.9563 173.556C97.6599 171.105 97.8423 169.685 98.5945 168.586C99.3239 167.486 99.2099 167.212 98.2982 167.784C96.885 168.632 96.7482 169.25 96.7938 173.785C96.8394 177.656 96.8394 177.863 96.4291 177.863C95.7453 177.863 94.56 176.717 94.0814 175.641C93.6939 174.747 93.6711 174.473 93.899 172.755C94.0586 171.724 94.127 169.365 94.0814 167.509L94.013 164.119L95.0843 163.043L96.1784 161.943H101.011C105.729 161.943 105.911 161.92 107.689 161.302C110.926 160.157 113.387 158.462 118.835 153.537C125.741 147.33 126.813 146.643 135.793 142.588L139.486 140.916V139.519C139.486 137.709 138.939 134.319 138.232 131.708C137.913 130.563 137.662 129.532 137.662 129.372C137.662 128.96 138.369 128.891 142.563 128.937L146.438 128.96L147.851 131.365Z" fill="#FFE91F"/>
<path d="M183.363 184.184C184.366 184.849 185.688 185.857 186.303 186.406L187.42 187.391L185.073 190.575C181.403 195.5 180.468 197.355 179.26 202.119L178.782 204.043L177.619 202.463C176.092 200.401 174.155 198.546 172.126 197.218C170.28 196.049 170.12 195.706 170.325 193.713C170.599 191.125 171.784 189.453 176.844 184.62C177.87 183.635 178.827 182.581 178.941 182.283L179.146 181.756L180.332 182.352C180.993 182.673 182.36 183.497 183.363 184.184Z" fill="#FFE91F"/>
<path fill-rule="evenodd" clip-rule="evenodd" d="M137.389 39.308C137.731 39.9493 138.187 40.7052 138.415 40.9572C138.825 41.4611 138.825 41.4382 138.734 40.2013C138.665 39.5142 138.551 38.7583 138.46 38.5292C138.323 38.1856 138.437 38.1398 139.326 38.1398C140.534 38.1398 140.945 38.4605 141.492 39.8348L141.879 40.774L141.993 39.5142L142.107 38.2544L143.247 38.2773C146.21 38.3002 147.463 38.8728 147.463 40.2013C147.463 41.1175 147.851 41.0717 148.307 40.0639C148.672 39.3309 148.786 39.2622 149.424 39.3538C150.221 39.4913 153.162 40.6136 153.481 40.9114C153.595 41.003 153.367 41.8276 152.934 42.8125C152.501 43.7746 152.227 44.622 152.318 44.6908C152.387 44.7824 153.093 44.2556 153.891 43.5455C154.689 42.8354 155.441 42.2628 155.555 42.2628C155.692 42.2857 156.581 42.8583 157.561 43.5455L159.339 44.8282L158.313 45.9277C157.31 47.0042 157.105 47.3707 156.718 48.6076C156.444 49.478 157.014 49.226 158.701 47.7143L160.296 46.2941L161.026 47.1875L161.778 48.0579L161.003 49.2718C160.57 49.9361 160.228 50.5545 160.228 50.6233C160.228 50.8752 160.729 50.7149 161.595 50.1423C162.074 49.8216 162.598 49.6154 162.758 49.707C163.442 50.1422 166.131 56.8993 167.043 60.5413C168.046 64.4352 169.55 74.9258 169.163 75.2694C169.072 75.3381 168.411 75.5214 167.681 75.6588C165.926 76.0024 163.852 76.9644 163.054 77.789C162.279 78.5907 162.576 78.6365 164.399 77.9952C165.949 77.4454 169.573 77.3309 169.573 77.8348C169.573 78.6365 168.798 80.2857 168.114 80.95C167.43 81.6142 167.157 81.7058 164.992 82.0036C162.12 82.393 161.345 82.645 159.977 83.6299C157.128 85.7143 155.715 89.654 156.672 92.9295C157.287 95.1055 157.196 95.4949 155.418 98.2664C153.435 101.336 152.501 103.329 152.318 104.817C152.205 105.802 151.999 106.169 150.769 107.52C149.447 109.032 148.786 110.154 148.512 111.46C148.033 113.773 143.794 116.774 137.389 119.362C133.833 120.782 133.263 120.851 131.964 119.866C131.394 119.454 130.665 118.904 130.323 118.698C129.913 118.446 129.685 118.102 129.685 117.736C129.685 116.82 129.274 116.041 128.727 115.904C128.431 115.835 127.223 115.72 126.038 115.674C124.852 115.629 122.892 115.445 121.707 115.285L119.542 114.964L123.075 114.781C134.243 114.254 140.443 112.559 143.976 109.101C145.275 107.818 145.64 106.97 145.64 105.184C145.64 102.115 144.341 99.6178 141.856 97.8999C141.309 97.5335 140.853 97.1211 140.853 97.0066C140.853 96.8921 141.423 96.5943 142.107 96.3424C145.161 95.1971 148.375 93.1356 150.153 91.1887C151.635 89.5624 151.794 88.7836 151.133 86.9283L150.632 85.5539L152.068 83.8589C152.866 82.9198 153.8 81.66 154.142 81.0416C154.803 79.7818 155.441 76.6896 155.464 74.4677C155.487 71.49 155.692 70.8487 157.173 69.0392C157.903 68.123 159.407 66.4509 160.479 65.3056L162.416 63.267L163.92 63.6335C165.584 64.0458 166.154 63.9771 166.154 63.3128C166.154 62.786 165.789 62.6028 163.647 61.9843L161.937 61.5033L160.456 63.038C159.635 63.9084 158.085 65.5805 157.014 66.7715L155.054 68.9476L154.279 67.8023C153.868 67.1609 152.752 65.8782 151.794 64.9162C148.968 62.0301 145.663 60.7474 141.195 60.7245C136.637 60.7245 133.446 62.2363 130.46 65.8782C128.385 68.3978 127.747 70.7113 127.907 74.8342C128.089 78.751 128.591 79.8047 132.283 83.6757C133.24 84.6835 133.787 85.4165 133.651 85.531C133.537 85.6456 132.283 86.2182 130.893 86.8137L128.317 87.9132L127.246 87.5009C125.559 86.8595 123.781 84.9126 122.983 82.8511C122.231 80.9041 121.798 80.6751 122.026 82.3701C122.322 84.569 123.029 86.0121 124.556 87.5238L125.992 88.9439L124.898 89.4479L123.804 89.9518L121.798 88.44C120.704 87.5925 119.131 86.5847 118.334 86.1953C116.556 85.302 116.077 85.4165 114.732 87.0657L113.798 88.2568L113.661 85.5768C113.524 82.8053 113.137 80.8583 112.316 79.1862C111.701 77.9035 109.695 75.7046 108.304 74.8342C104.817 72.5895 99.0503 72.4979 94.9475 74.6052L94.0358 75.0633L93.5116 74.4677C92.5998 73.3912 92.805 72.5895 94.3093 71.1236C96.7026 68.7872 99.3011 67.6878 102.469 67.6878C104.999 67.6878 105.524 67.8481 105.524 68.6269C105.524 69.2224 105.569 69.2453 106.321 69.1308C107.051 69.0163 107.21 69.1079 108.213 70.1157C108.806 70.7342 109.877 71.9024 110.607 72.7269C111.313 73.5515 111.906 74.0555 111.906 73.8722C111.906 73.3225 110.356 70.8258 108.897 69.0163C107.78 67.6419 107.575 67.2526 107.575 66.4509C107.552 65.1911 106.891 63.7938 105.774 62.6944L104.84 61.8011L105.66 59.4647C106.093 58.182 106.435 57.0139 106.39 56.8764C106.276 56.5558 104.452 59.3044 103.518 61.1597L102.834 62.5341L104.11 63.5648C106.048 65.1224 107.165 67.0464 105.934 66.6799C103.176 65.8782 101.831 65.7866 99.2783 66.2447C98.6401 66.3592 98.6856 66.2676 99.8253 65.5117C101.535 64.3436 102.333 63.5648 102.333 63.0609C102.333 62.8318 102.036 62.1446 101.649 61.5491C100.714 60.0144 100.737 58.9379 101.717 57.472C102.196 56.739 102.925 56.0747 103.791 55.525C106.048 54.1736 105.752 53.6926 103.335 54.8379C99.9165 56.4641 98.5717 59.167 99.8253 61.9385C100.441 63.267 100.395 63.7022 99.7114 63.8855C99.3695 63.9771 98.6173 64.733 97.7739 65.8553C97.0217 66.8632 96.0188 67.9855 95.5402 68.3749C95.0615 68.7414 94.2865 69.5889 93.8079 70.2074C93.3292 70.8487 92.8505 71.3526 92.7366 71.3526C92.1439 71.3526 92.7822 64.3436 93.5571 62.2821C94.4461 59.9229 96.4519 57.0826 99.2555 54.1965L101.808 51.5853L103.313 51.9518C104.133 52.1808 105.159 52.3412 105.569 52.3412L106.321 52.3183L105.774 51.8602C105.478 51.6311 104.771 51.3104 104.224 51.1501L103.222 50.8981L103.746 50.3484C104.589 49.4322 109.079 46.6606 109.307 46.9126C109.376 46.9584 109.513 47.6456 109.649 48.4243C110.014 50.4171 110.401 50.1193 110.538 47.7372L110.652 45.8131L113.023 44.7824L115.37 43.7516L115.826 44.3243C116.237 44.8282 116.259 45.1031 116.123 46.7065C115.986 48.3327 116.009 48.516 116.328 48.2411C116.738 47.8975 117.604 45.6528 117.604 44.9427C117.604 44.6679 117.445 44.2327 117.262 44.0036C116.761 43.3623 116.829 43.2477 117.832 42.7209C119.473 41.8963 120.02 42.0566 121.206 43.7746C121.456 44.141 121.479 44.0265 121.365 43.0187C121.206 41.5757 121.365 41.4382 124.237 40.5678C126.744 39.789 126.949 39.8119 126.949 40.6365C126.949 41.0488 127.177 41.5756 127.542 41.965L128.135 42.6064L127.998 41.736C127.861 40.6365 128.157 39.8119 128.841 39.4913C129.343 39.2622 135.223 38.2085 136.249 38.1627C136.637 38.1398 136.91 38.4147 137.389 39.308ZM114.573 57.1055C115.758 55.7541 116.989 54.4256 117.308 54.1736C118.083 53.5552 118.607 53.5552 118.288 54.1507C117.946 54.815 114.709 59.1441 113.547 60.5413C112.977 61.2055 112.59 61.8011 112.635 61.8698C112.704 61.9385 114.801 60.9765 117.285 59.7167C123.371 56.6703 124.397 56.2809 127.246 55.9602C129.867 55.6854 131.029 55.8228 130.596 56.3496C130.46 56.5329 129.844 56.739 129.274 56.8077C127.383 57.0597 125.126 57.8384 121.844 59.3731C114.96 62.5798 114.254 62.8776 112.749 63.2441C111.427 63.5877 110.971 63.5877 109.74 63.3586C107.598 62.9693 105.296 61.8927 105.296 61.2743C105.296 61.1826 105.82 61.2285 106.435 61.3659C107.963 61.6637 109.786 61.2743 111.268 60.3351C111.906 59.9228 113.387 58.4798 114.573 57.1055ZM130.049 61.4575C131.645 58.2737 135.565 55.6166 139.486 55.0669C142.608 54.6317 146.096 55.2043 148.922 56.6245C150.677 57.4949 154.21 61.2056 155.282 63.2899C156.535 65.695 156.262 66.1531 154.849 64.0229C152.432 60.4497 148.786 57.7468 145.48 57.0368C143.475 56.6016 139.759 56.6016 137.936 57.0368C135.018 57.7239 132.534 59.4418 130.505 62.1905C129.388 63.7251 129.115 63.3128 130.049 61.4575ZM95.7909 59.3502C96.1328 58.8921 97.0217 58.1133 97.7283 57.6323C99.7341 56.2122 99.8253 56.3954 98.2298 58.7547C97.2269 60.2206 97.1357 60.7245 97.6599 61.7324C97.8651 62.1218 97.9563 62.6486 97.8651 62.9693C97.6599 63.8168 95.6769 65.6263 94.7196 65.8553C93.5799 66.1073 93.6711 65.7866 95.0615 64.481C96.3379 63.267 96.3607 63.2441 95.5857 61.2514L95.1755 60.1748L95.7909 59.3502Z" fill="#FFE91F"/>
<path fill-rule="evenodd" clip-rule="evenodd" d="M169.71 81.0187C169.527 81.6829 169.049 82.7366 168.661 83.355L167.932 84.4774L169.208 87.0199C170.69 90.0205 171.077 91.8071 170.736 93.9602C170.462 95.7239 169.983 96.6631 169.049 97.2586C167.955 97.9458 164.49 97.7854 162.735 96.9837C161.413 96.3653 159.43 94.7161 158.609 93.525C157.173 91.5093 157.834 87.8216 160.091 85.3707C161.299 84.0422 162.165 83.6299 165.014 83.0344C166.336 82.7595 167.681 82.3472 168.023 82.141C168.753 81.6829 169.801 80.3544 169.801 79.8505C169.801 79.6673 169.869 79.5756 169.938 79.6673C170.006 79.736 169.915 80.3315 169.71 81.0187ZM160.41 89.6998C160.638 89.3791 161.39 88.8294 162.051 88.4629C164.057 87.4322 165.972 87.7529 166.747 89.2875C166.975 89.6769 167.18 90.6848 167.248 91.5322C167.385 93.4792 166.838 94.8535 165.653 95.4949C164.9 95.9072 164.695 95.9072 163.533 95.6552C160.547 94.991 158.86 91.7842 160.41 89.6998Z" fill="#FFE91F"/>
<path d="M118.949 88.3255C121.98 90.387 126.927 94.3496 126.949 94.739C126.949 95.3803 125.878 95.6323 123.12 95.6552C121.661 95.6552 119.883 95.7697 119.2 95.8843C116.692 96.2966 114.481 96.3882 114.299 96.1133C114.208 95.953 114.048 94.6474 113.912 93.2043L113.706 90.5702L114.709 89.4937C115.256 88.8981 115.895 88.1193 116.1 87.7758C116.328 87.4322 116.67 87.1573 116.875 87.1573C117.057 87.1573 117.992 87.6842 118.949 88.3255Z" fill="#FFE91F"/>
<path d="M140.99 163.089C141.081 163.272 140.739 164.646 140.284 166.135C138.962 170.327 138.962 173.854 140.284 176.168C140.967 177.359 141.788 177.886 143.361 178.206C144.523 178.458 144.614 178.527 144.751 179.26C145.184 181.436 146.005 201.18 145.777 204.158C145.617 206.403 145.412 206.861 144.569 207.044C144.204 207.136 141.013 207.296 137.434 207.411L130.938 207.64L129.867 206.426C128.545 204.983 127.2 202.44 126.425 199.966C126.106 198.958 125.377 195.958 124.807 193.324C124.214 190.667 123.12 186.498 122.368 184.024C120.066 176.397 119.952 175.801 119.77 170.647C119.61 166.25 119.61 166.021 120.066 165.15C120.886 163.638 121.114 163.432 122.3 163.295C123.348 163.18 133.263 162.86 138.529 162.791C140.42 162.745 140.899 162.814 140.99 163.089Z" fill="#E43D19"/>
<path d="M143.794 209.518C143.908 209.816 144.113 212.473 144.25 215.427C144.956 229.697 145.207 233.912 145.321 234.508C145.435 235.08 145.367 235.172 144.227 235.676C143.566 235.974 141.788 236.89 140.284 237.737C138.779 238.562 137.389 239.249 137.184 239.249C136.181 239.249 135.565 237.394 135.064 232.836C134.517 228.117 134.243 223.307 134.084 215.817L133.947 209.014H138.779C143.566 209.014 143.611 209.014 143.794 209.518Z" fill="#E43D19"/>
<path d="M142.472 171.587C142.973 173.052 143.589 174.656 143.839 175.137C144.432 176.328 144.386 176.488 143.497 176.488C142.472 176.488 141.4 175.572 141.081 174.473C140.831 173.533 140.762 168.632 141.013 168.38C141.241 168.151 141.446 168.586 142.472 171.587Z" fill="#E43D19"/>
<path d="M117.832 167.83C118.06 171.793 118.402 174.839 118.835 176.786C119.131 178.137 119.291 179.283 119.2 179.351C118.858 179.558 117.217 178.137 116.51 177.038C114.801 174.358 114.322 172.32 115.051 170.739C115.576 169.548 117.057 167.784 117.513 167.784C117.695 167.784 117.832 167.807 117.832 167.83Z" fill="#E43D19"/>
<path d="M133.218 258.696C134.471 258.787 136.089 259.062 136.819 259.268L138.118 259.658V262.063V264.445H137.389C132.739 264.422 119.815 263.941 118.402 263.758C116.214 263.437 115.644 263.116 115.302 261.948C114.96 260.826 115.211 259.039 115.735 258.719C116.191 258.467 129.89 258.421 133.218 258.696Z" fill="#9385B9"/>
<path d="M180.195 258.215C180.628 258.512 181.015 260.093 180.856 260.963C180.787 261.421 180.559 262.246 180.354 262.773L179.99 263.758L173.471 263.643C169.892 263.574 164.034 263.483 160.478 263.414L154.028 263.3L154.187 266.873L154.37 270.446L151.315 270.309C149.629 270.24 146.574 270.125 144.5 270.034C142.426 269.965 140.489 269.851 140.215 269.782L139.668 269.644L139.759 265.247C139.782 262.796 139.873 260.757 139.942 260.688C140.01 260.62 140.944 260.872 142.039 261.238C145.412 262.383 148.375 262.681 154.643 262.544C162.963 262.36 170.097 261.215 176.434 259.108L176.631 259.042C179.786 257.985 179.837 257.968 180.195 258.215Z" fill="#9385B9"/>
<path d="M172.741 165.265C173.585 167.212 174.382 171.083 174.428 173.35C174.496 176.374 174.268 176.763 167.772 184.391C161.573 191.675 159.863 193.896 158.837 196.072C157.994 197.836 157.994 198.958 158.746 205.807C159.886 215.908 160.524 219.298 161.823 222.299C162.393 223.605 162.484 223.994 162.256 224.383C161.983 224.91 160.091 225.849 157.652 226.651C156.809 226.926 155.783 227.43 155.396 227.75C155.008 228.071 153.868 229.629 152.82 231.209C150.677 234.508 150.13 235.08 148.899 235.355C147.555 235.676 147.053 235.447 146.916 234.485C146.597 232.4 145.845 217.901 145.799 212.679L145.754 208.899L146.438 207.892L147.122 206.884L147.19 200.791C147.235 197.447 147.167 192.682 147.03 190.232C146.871 187.781 146.711 184.482 146.62 182.902L146.483 180.039L147.235 180.726C147.646 181.092 148.375 182.26 148.854 183.291C149.834 185.398 150.951 186.796 152.113 187.345C154.256 188.353 163.328 187.116 164.832 185.605C165.265 185.169 165.288 184.963 165.174 183.452C165.06 182.192 165.105 181.711 165.333 181.482C165.493 181.298 166.496 180.978 167.544 180.749C168.593 180.52 169.755 180.176 170.12 179.993C170.713 179.672 170.758 179.581 170.667 178.596C170.599 178 170.006 176.236 169.345 174.656C168.342 172.297 168.091 171.495 168.023 170.166C167.932 168.357 168.16 167.693 169.413 166.25C170.143 165.425 171.761 164.119 172.08 164.119C172.171 164.119 172.468 164.623 172.741 165.265Z" fill="#F2E8E2"/>
<path d="M151.361 272.164C151.543 272.347 152.204 283.777 152.25 287.396C152.25 287.602 152.455 287.854 152.729 287.923C153.481 288.175 154.735 289.412 155.282 290.42C156.034 291.84 155.965 294.382 155.145 295.963C153.96 298.322 151.999 299.261 148.375 299.261H146.096L145.23 298.459C143.976 297.337 142.905 295.23 142.905 293.901C142.905 292.664 143.338 291.725 144.797 289.732C146.278 287.694 146.324 287.579 146.324 285.129C146.324 282.861 145.754 274.248 145.503 272.599L145.366 271.706L148.238 271.821C149.834 271.889 151.247 272.05 151.361 272.164Z" fill="url(#paint0_linear_19_387)"/>
<path d="M218.875 162.562C214.841 170.052 207.866 180.543 204.698 183.91C203.991 184.643 202.532 185.857 201.438 186.59C200.344 187.345 199.273 188.216 199.045 188.537C198.589 189.269 198.065 191.56 198.065 193.003V194.08L196.766 194.721C194.258 195.935 192.389 198.363 191.888 201.043C191.774 201.707 191.614 206.746 191.546 212.221C191.432 220.26 191.477 223.009 191.774 226.491C192.047 229.606 192.07 230.934 191.888 231.255C191.66 231.713 191.5 231.713 187.739 231.553C184.07 231.415 183.705 231.438 182.109 231.919C179.557 232.698 177.596 232.79 176.365 232.171C175.818 231.919 173.767 230.27 171.784 228.506C168.251 225.391 167.727 225.025 165.288 224.04C164.08 223.559 164.057 223.536 163.168 221.543L162.256 219.527L163.943 217.42C164.878 216.252 165.949 214.786 166.336 214.168C167.157 212.816 168.205 209.816 168.205 208.808C168.205 208.441 168.297 208.075 168.411 208.006C168.502 207.937 169.573 208.35 170.735 208.922C174.086 210.571 174.36 210.64 175.408 210.159C179.237 208.418 190.064 198.386 192.025 194.767L192.617 193.667L191.591 191.583C189.244 186.864 186.258 183.841 181.152 180.978L179.602 180.107V174.083C179.602 170.785 179.67 167.761 179.739 167.395L179.876 166.708L181.266 167.166C183.819 167.967 192.503 167.761 194.555 166.822C194.851 166.685 195.717 165.608 196.446 164.417C197.199 163.249 197.905 162.287 198.019 162.287C198.407 162.287 198.703 162.86 198.976 164.165C199.113 164.898 199.41 165.7 199.637 165.998C200.048 166.502 200.071 166.502 201.415 166.112C202.168 165.906 204.812 164.875 207.319 163.822C213.724 161.119 216.368 160.294 219.08 160.248L220.129 160.225L218.875 162.562Z" fill="#757575"/>
<path d="M190.452 192.911C190.52 193.324 190.52 193.919 190.452 194.24C190.247 195.042 188.195 197.355 184.138 201.341C180.901 204.524 180.628 204.731 180.559 204.158C180.423 203.058 181.426 199.531 182.542 197.218C183.545 195.133 186.144 191.354 187.716 189.682L188.332 189.04L189.312 190.598C189.859 191.468 190.383 192.522 190.452 192.911Z" fill="#413A3A"/>
<path d="M171.351 198.592C173.448 199.554 178.007 204.753 178.007 206.174C178.007 206.746 177.163 207.548 175.568 208.464C174.382 209.174 174.588 209.22 170.941 207.181C169.619 206.426 167.225 205.303 165.607 204.662C162.302 203.356 160.57 202.509 160.319 202.096C159.909 201.432 164.011 198.867 166.678 198.134C168.183 197.722 169.755 197.882 171.351 198.592Z" fill="#413A3A"/>
<path d="M175.773 80.9958C181.198 84.2713 182.725 85.3478 185.414 87.7758C188.947 90.9596 190.452 92.7004 191.021 94.2351C191.272 94.9223 192.503 98.9536 193.757 103.191C195.01 107.406 196.651 112.834 197.404 115.262C198.156 117.69 198.748 119.889 198.703 120.164C198.612 120.76 197.723 121.126 194.76 121.744C190.657 122.569 181.585 123.577 177.984 123.577C176.274 123.577 175.978 123.508 175.864 123.165C175.568 122.18 173.699 108.184 173.106 102.596C172.787 99.6637 173.744 98.2665 177.437 96.2279C179.807 94.9223 179.67 94.5329 177.254 95.701C174.998 96.7776 173.402 98.1061 172.764 99.4117C172.285 100.42 172.263 100.694 172.399 103.283C172.582 106.741 173.448 114.506 174.496 122.203C176.707 138.374 176.776 139.107 175.727 140.939C174.861 142.428 172.057 145.291 169.801 146.986C167.613 148.612 163.054 151.361 159.384 153.262C156.489 154.751 155.897 154.957 155.897 154.43C155.897 154.293 155.783 152.644 155.669 150.788C155.304 145.039 154.096 140.366 151.68 135.304C150.062 131.914 148.785 129.807 145.23 124.699C143.611 122.363 142.175 120.256 142.038 119.981C141.788 119.546 141.97 119.362 144.181 117.828C147.646 115.423 148.74 114.254 150.13 111.345C151.498 108.551 151.748 108.368 155.395 107.406C159.931 106.192 161.458 104.68 162.119 100.74L162.416 98.9536L164.125 99.0681C167.066 99.2743 168.502 99.1827 169.345 98.7475C171.465 97.648 172.308 95.9072 172.308 92.5859C172.308 90.1809 171.784 88.4171 170.439 86.1266L169.664 84.7523L170.302 83.3321C170.667 82.5763 171.123 81.2019 171.351 80.3086C171.602 79.1863 171.807 78.7053 172.012 78.774C172.171 78.8427 173.881 79.8505 175.773 80.9958Z" fill="#252525"/>
<path d="M197.928 99.6179C200.321 101.404 204.037 104.176 206.156 105.734C208.299 107.291 210.35 108.849 210.715 109.192L211.399 109.811L208.8 109.834H206.225L203.649 111.437C200.823 113.201 199.729 113.728 198.908 113.728C198.384 113.728 198.293 113.476 197.176 109.65C194.144 99.091 193.369 96.3195 193.46 96.3195C193.529 96.3195 195.535 97.8083 197.928 99.6179Z" fill="#252525"/>
<path d="M206.886 116.774C210.897 123.646 213.906 130.174 217.416 139.725C219.832 146.276 220.402 147.582 222.408 151.292C224.163 154.522 225.645 157.385 225.645 157.568C225.645 157.935 224.323 158.21 220.698 158.622C214.043 159.378 213.473 159.538 206.407 162.562C203.786 163.684 201.438 164.577 201.187 164.532C200.845 164.486 200.595 164.074 200.207 162.882C199.569 161.004 199.136 160.455 198.293 160.455C197.586 160.455 196.469 161.554 195.238 163.501C193.711 165.883 194.03 165.769 187.876 165.952L182.451 166.089L180.97 165.402C180.149 165.036 178.417 164.303 177.095 163.753C175.773 163.226 174.679 162.631 174.633 162.447C174.587 162.264 174.907 161.668 175.317 161.142C176.297 159.859 177.892 159.057 183.454 157.019C185.847 156.148 188.651 155.026 189.699 154.545C194.577 152.209 197.221 148.933 197.54 144.764C197.7 142.794 197.426 140.733 196.218 134.365C195.512 130.632 195.329 129.349 195.512 128.96C195.694 128.593 196.218 128.272 197.312 127.929C199.387 127.242 200.458 126.669 200.891 126.051C201.643 124.997 201.233 122.157 199.683 117.599L199.022 115.606L200.458 114.987C201.256 114.644 202.441 114.025 203.125 113.59C203.786 113.178 204.378 112.834 204.447 112.834C204.515 112.834 205.609 114.598 206.886 116.774Z" fill="#252525"/>
<path d="M140.671 121.218C141.605 122.225 144.956 126.761 144.956 127.058C144.956 127.15 143.087 127.242 140.785 127.242H136.614L135.428 124.882C134.767 123.6 134.243 122.477 134.243 122.409C134.243 122.134 138.688 120.416 139.486 120.393C139.691 120.37 140.215 120.76 140.671 121.218Z" fill="#252525"/>
<path d="M144 103C144 102.6 142.667 101.167 142 100.5C142 101 138.712 101.373 136 103C134.017 104.19 127.37 103.492 122.796 102.402C121.604 103.379 120.62 103.897 120 104L114 105.5V107.75L112 110L124.5 112L138 109.5C140 107.5 144 103.4 144 103Z" fill="#571621"/>
<path d="M173.626 196.584C173.917 196.694 174.227 196.877 174.304 196.99C174.665 197.523 174.867 197.182 174.848 196.08C174.84 195.317 174.609 194.934 174.212 195.038C173.917 195.106 173.162 195.907 173.114 196.206C173.105 196.315 173.328 196.494 173.626 196.584Z" fill="#9B3636"/>
<path d="M173.121 194.329C174.693 193.953 175.069 194.178 175.958 196.012C176.511 197.163 176.629 197.243 177.179 196.894C177.444 196.728 177.407 196.605 176.473 194.646C175.603 192.841 175.442 192.591 175.095 192.576C174.654 192.555 173.716 193.234 173.211 193.931L172.879 194.39L173.121 194.329Z" fill="#9B3636"/>
<path d="M176.527 193.008C176.894 193.565 177.248 194.097 177.327 194.166C177.736 194.647 179.169 194.475 179.725 193.882C179.897 193.688 179.766 193.603 178.957 193.36C178.029 193.058 177.95 192.989 177.249 191.906C176.355 190.518 176.08 190.301 175.376 190.379C174.787 190.448 172.832 191.424 172.562 191.79C172.334 192.102 173.322 192.153 174.037 191.854C174.975 191.466 175.735 191.829 176.527 193.008Z" fill="#9B3636"/>
<path d="M175.737 189.802C177.49 190.013 177.893 190.322 178.782 192.125C179.334 193.254 179.461 193.36 180.085 193.254C180.385 193.205 180.35 193.091 179.419 191.171C178.549 189.398 178.384 189.139 178.002 189.012C177.518 188.849 176.448 189.098 175.856 189.505L175.467 189.773L175.737 189.802Z" fill="#9B3636"/>
<path d="M179.561 189.84C179.937 190.421 180.302 190.975 180.385 191.057C180.812 191.588 182.402 191.921 183.045 191.617C183.244 191.514 183.103 191.401 182.223 190.933C181.215 190.378 181.132 190.295 180.412 189.172C179.496 187.735 179.203 187.465 178.423 187.297C177.769 187.159 175.564 187.316 175.248 187.529C174.981 187.709 176.068 188.078 176.872 188.069C177.926 188.059 178.746 188.609 179.561 189.84Z" fill="#9B3636"/>
</g>
<defs>
<linearGradient id="paint0_linear_19_387" x1="144.932" y1="279.333" x2="153.366" y2="278.88" gradientUnits="userSpaceOnUse">
<stop stop-color="#C0B9BD"/>
<stop offset="1" stop-color="#B79BAC" stop-opacity="0"/>
</linearGradient>
<clipPath id="clip0_19_387">
<rect width="137" height="275" fill="white" transform="translate(90 26)"/>
</clipPath>
</defs>
</svg>
