<svg width="317" height="301" viewBox="0 0 317 301" fill="none" xmlns="http://www.w3.org/2000/svg">
<g clip-path="url(#clip0_19_390)">
<g clip-path="url(#clip1_19_390)">
<path d="M83.411 12.6565C81.8741 14.8468 81.8928 14.6521 82.6601 18.5726C83.1462 21.0034 83.2919 22.3397 83.1802 22.8914C82.9592 23.828 82.0269 24.5758 78.5711 26.474C75.9588 27.9091 75.8648 27.9106 75.4379 26.3176C75.2245 25.5211 75.3016 25.1922 76.2093 23.3839C77.5014 20.8086 77.7554 19.5548 77.2668 18.5238C76.9052 17.7907 74.9304 16.2331 74.7534 16.5414C74.7272 16.6195 75.0354 17.1535 75.4656 17.7022C75.9178 18.245 76.2676 18.9338 76.2727 19.217C76.2718 19.4781 75.7638 20.7525 75.1177 22.0401C73.558 25.1139 73.4869 25.465 74.1187 27.3825L74.6056 28.9356L73.443 29.7926C72.7935 30.2749 71.8299 30.8177 71.2854 30.9873L70.2785 31.2807L70.038 30.2069C69.8169 29.2939 69.3603 23.8911 69.3806 22.5577C69.3933 22.3408 69.3019 22.1757 69.1918 22.2052C68.9056 22.2819 68.3544 25.7731 68.1978 28.4473C68.0751 30.5432 68.1319 30.9311 68.9084 32.5964C69.0414 32.9165 68.8263 33.2587 67.9677 34.1053C67.0108 35.0257 66.6823 35.2085 65.7118 35.3737C65.1055 35.4887 64.2934 35.5403 63.9276 35.4961C63.2739 35.4341 63.2341 35.3736 62.8369 33.8913C62.1611 31.369 60.7781 27.9692 60.071 27.0915C59.4655 26.329 58.2613 25.7979 58.0581 26.1844C58.0099 26.2684 58.396 26.8289 58.894 27.4544C59.8323 28.5783 59.8323 28.5783 60.7097 32.4693L61.5812 36.3382L62.3518 36.7483C62.765 36.9696 63.3984 37.1318 63.7465 37.1097C64.1165 37.0817 64.4603 37.1319 64.5442 37.1805C64.6737 37.3118 61.1918 41.1378 60.2273 41.9417C59.0604 42.8709 58.5947 42.1894 58.7784 39.7926C58.896 38.03 58.47 36.7925 57.3573 35.8101C56.6155 35.1552 54.9836 34.5253 55.0904 34.9236C55.12 35.0342 55.5646 35.4605 56.0651 35.9192C57.2676 36.9724 57.5284 37.9459 57.1914 40.1229C56.8647 42.2498 56.9832 42.6923 58.079 43.3473L58.9792 43.8886L57.6151 46.4595C55.2391 50.8902 54.3043 53.6544 54.041 57.1633C53.92 58.7371 54.0022 59.308 54.9753 63.2919L56.0271 67.6579L57.4481 69.1742L58.8691 70.6905L58.5449 72.6508C57.5052 78.8103 58.6841 84.7073 61.6133 87.9774C63.5382 90.1412 66.3471 91.6413 69.7724 92.3598C74.1911 93.2626 76.9262 92.8142 80.3871 90.5827C81.0704 90.1387 81.7656 89.739 81.9418 89.6918C82.228 89.6151 84.1816 92.1507 84.9607 93.6493C85.4875 94.6464 85.4502 95.0358 84.584 96.999C84.308 97.642 84.1276 98.378 84.1988 98.6435C84.4359 99.5285 85.7222 100.014 88.7148 100.35C92.4332 100.753 92.5729 100.834 92.5535 102.523C92.5374 103.168 92.6941 103.576 93.1319 104.241C93.5579 104.862 93.9661 106.033 94.6241 108.489L95.5311 111.874L96.9064 112.692C97.9861 113.375 98.3976 113.501 98.9921 113.342C99.5425 113.195 99.9261 113.305 100.782 113.858L101.874 114.586L102.554 113.953C103.081 113.456 103.356 113.335 103.799 113.406C104.937 113.599 105.727 112.32 106.787 108.526C107.448 106.239 107.851 105.277 108.269 105.165C108.952 104.982 111.45 107.348 113.593 110.236C115.638 112.937 117.027 115.481 117.845 117.918L118.57 120.095L115.282 122.707C109.404 127.365 107.69 129.247 103.492 135.684C102.049 137.873 100.395 140.331 99.7907 141.157C98.2258 143.331 95.3519 146.52 94.3578 147.213C93.7565 147.612 92.0647 148.255 89.238 149.154C83.3266 151.047 82.7719 151.266 82.1072 152.132C81.0369 153.51 80.9785 154.261 81.6433 157.711C81.9677 159.45 82.5394 162.023 82.9188 163.439C83.565 165.851 83.6683 166.061 84.6507 167.173C85.2045 167.831 86.0522 168.528 86.4874 168.744C87.2123 169.071 87.5163 169.061 89.0134 168.66L90.7087 168.205L92.3693 169.207C94.8404 170.679 95.959 171.067 96.9497 170.801C97.6323 170.619 98.0379 170.723 99.2378 171.327C101.655 172.6 102.857 172.681 104.798 171.734C105.928 171.194 106.044 171.187 106.973 171.483C109.126 172.21 111.165 171.806 113.596 170.135C114.258 169.697 114.799 169.339 114.843 169.327C114.975 169.292 115.81 170.823 117.845 174.807C121.662 182.273 124.153 185.756 126.917 187.529C128.372 188.467 129.371 188.673 130.714 188.313L131.309 188.154L133.055 194.848L134.779 201.547L133.419 202.196C129.323 204.171 127.552 206.543 127.247 210.513C127.193 211.192 127.091 211.954 126.984 212.173C126.895 212.457 125.827 213.052 123.638 214.041C119.541 215.922 118.432 216.717 117.256 218.668C116.337 220.171 116.202 220.634 115.717 223.847C115.509 225.183 115.382 225.502 114.679 226.046C113.784 226.76 112.933 228.339 112.761 229.547C112.229 233.461 117.072 237.973 123.297 239.364C124.374 239.597 125.425 239.908 125.604 240.05C125.868 240.24 126.06 240.781 126.264 241.983C126.61 243.978 127.514 245.68 128.536 246.236C128.95 246.457 129.681 246.546 130.553 246.454C132.712 246.232 140.176 244.587 145.747 243.095L150.855 241.726L151.229 242.242C151.444 242.517 151.71 243.157 151.846 243.666C152.254 245.098 152.932 246.22 153.607 246.537C154.142 246.773 154.462 246.735 156.1 246.154C157.765 245.589 158.036 245.54 158.307 245.847C158.605 246.17 159.799 249.479 162.079 256.314C163.457 260.402 163.446 260.097 162.379 262.897C161.565 264.965 161.331 266.735 161.693 268.084C162.048 269.412 163.713 271.219 165.653 272.382C167.028 273.2 167.411 273.31 168.577 273.259C170.738 273.13 173.27 271.835 175.049 269.936C176.39 268.509 177.544 264.714 177.129 263.165C176.578 261.108 174.887 259.024 173.034 258.097L171.778 257.462L170.738 254.373C169.504 250.649 167.951 244.852 167.963 244.018C167.965 243.496 168.101 243.389 169.008 243.075L170.069 242.719L169.042 239.414L167.999 236.136L173.494 234.806C176.507 234.07 181.87 232.775 185.411 231.898L191.875 230.308L192.453 228.943C193.249 227.07 193.044 225.513 191.479 222.138L191.163 221.487L196.47 216.722C199.376 214.093 202.144 211.478 202.598 210.882C203.572 209.673 203.802 208.592 203.428 207.198C203.108 206.003 202.247 205.167 200.438 204.229C198.853 203.42 198.789 203.271 198.469 199.611C198.27 197.459 198.27 197.459 196.974 194.913C195.066 191.227 194.648 190.106 192.299 182.483C189.516 173.506 187.746 165.846 187.978 163.627C188.151 161.896 188.928 160.479 190.472 159.022C191.114 158.423 191.714 157.669 191.829 157.306C191.951 156.966 191.896 155.795 191.744 154.697C191.313 151.943 191.406 151.586 192.817 150.07C196.24 146.378 200.319 136.061 203.869 122.186C204.343 120.257 204.941 118.436 205.168 118.139C205.389 117.818 206.165 117.279 206.894 116.917C209.169 115.81 209.614 115.003 208.899 113.392C208.714 112.967 206.953 110.973 204.969 108.944C201.25 105.103 199.983 103.545 197.217 99.4724C192.121 91.9927 186.205 84.7091 180.815 79.3002C177.847 76.3251 177.241 75.5625 177.467 75.1701C177.547 75.03 179.123 74.3943 180.943 73.7882C182.763 73.182 184.306 72.6024 184.387 72.4623C184.837 71.6776 182.442 70.3987 175.357 67.6492C164.897 63.575 164.468 63.3817 156.891 59.0569C148.804 54.4179 150.354 55.0935 137.886 51.0119C133.597 49.6238 133.817 49.8259 132.434 46.1649C129.559 38.5171 126.442 32.7837 122.361 27.5932C121.308 26.2155 120.407 25.0576 120.39 24.9912C120.33 24.77 121.213 24.6284 121.404 24.8143C122.546 25.9073 127.933 24.9619 129.002 23.4899C129.385 22.984 129.357 22.9678 127.542 23.5017C125.808 23.9899 125.554 24.0105 124.11 23.6388C123.226 23.4249 122.497 23.1697 122.468 23.0591C122.438 22.9485 122.817 22.5148 123.341 22.09L124.245 21.326L123.016 21.5841C118.62 22.525 116.734 22.5324 115.291 21.6385L114.614 21.2269L115.402 20.7314C116.304 20.134 118.409 17.8626 118.819 17.0174C119.214 16.2003 118.802 16.3345 117.23 17.5145C115.74 18.6487 113.651 19.3035 111.587 19.2637C110.137 19.2253 105.63 18.6071 105.726 18.439C105.758 18.3829 106.616 18.414 107.652 18.4922L109.507 18.6353L110.487 16.8314C111.595 14.8033 112.822 11.3681 112.583 11.0053C112.504 10.8843 111.592 12.1484 110.604 13.8357L108.757 16.8918L107.047 16.8519C105.569 16.7973 104.693 16.9611 100.916 17.9256C96.4512 19.0509 95.3029 19.1688 95.8152 18.4387C95.9498 18.2367 97.0515 17.6806 98.281 17.1615C99.4945 16.6703 100.755 16.0007 101.081 15.7234C101.892 14.9609 102.02 13.5036 101.484 11.0625L101.039 9.04766L100.905 10.8383C100.727 13.2573 100.531 14.0213 99.9957 14.4018C99.3462 14.8841 95.5077 16.4106 95.0758 16.3841C94.804 16.3383 94.6211 16.0079 94.4136 15.2336C93.969 13.5742 92.6276 11.5623 91.6351 11.1168C90.8764 10.751 90.3607 10.6758 90.4318 10.9413C90.4496 11.0077 90.8341 11.4738 91.2744 11.9723C91.7368 12.465 92.3177 13.4001 92.5675 14.0683C93.1468 15.5256 93.0257 16.4828 92.1087 17.4637C91.7776 17.8132 91.1747 18.7336 90.7403 19.4903C90.3339 20.2632 89.8758 20.9313 89.7437 20.9667C89.5896 21.008 88.4862 21.4696 87.2787 21.9829C86.0711 22.4962 85.022 22.8959 84.9661 22.8634C84.8882 22.8369 84.8992 22.5257 84.9982 22.1908C85.1015 21.7837 84.8932 20.6539 84.2885 18.3972L83.4289 15.189L84.1063 13.4899C84.6829 12.0311 84.8438 11.1344 84.5135 11.2228C84.4474 11.2405 83.9614 11.8925 83.411 12.6565ZM93.9404 18.7514C94.0589 19.1939 93.5932 19.7455 93.0191 19.8045C92.2629 19.8886 92.1223 19.4519 92.7616 19.0198C93.5313 18.4578 93.8455 18.3974 93.9404 18.7514ZM91.9649 23.0037C92.4612 23.5347 93.0971 24.1469 93.3825 24.3312C93.9092 24.7118 93.9033 24.6897 93.4951 23.5185C93.2512 22.8725 92.9455 22.1718 92.7981 21.9742C92.5771 21.6777 92.6753 21.604 93.534 21.3739C94.7009 21.0612 95.1802 21.2648 96.0643 22.4507L96.6816 23.2575L96.4656 22.0112L96.2497 20.7648L97.3564 20.4919C100.225 19.7471 101.584 19.9758 101.928 21.2591C102.165 22.1441 102.527 21.9995 102.707 20.9081C102.869 20.1057 102.961 20.0098 103.602 19.9331C104.408 19.8594 107.538 20.1825 107.924 20.3875C108.057 20.4465 108.051 21.302 107.887 22.3655C107.718 23.4068 107.673 24.2962 107.779 24.339C107.869 24.4098 108.415 23.718 109.002 22.8257C109.589 21.9333 110.167 21.1855 110.277 21.156C110.415 21.1428 111.422 21.4658 112.546 21.8759L114.596 22.6547L113.89 23.9822C113.199 25.2816 113.096 25.6887 113.042 26.9837C113.003 27.8953 113.488 27.5045 114.726 25.6077L115.9 23.8229L116.836 24.497L117.787 25.1431L117.353 26.5163C117.107 27.27 116.936 27.9559 116.954 28.0222C117.019 28.2656 117.462 27.981 118.151 27.2037C118.53 26.77 118.983 26.4352 119.161 26.4824C119.934 26.7258 124.281 32.5565 126.104 35.8384C128.081 39.3401 132.249 49.0839 131.964 49.5161C131.893 49.6061 131.302 49.9541 130.633 50.2757C129.027 51.0618 127.273 52.5279 126.715 53.5309C126.174 54.5058 126.472 54.4733 128.068 53.3819C129.423 52.4497 132.894 51.4011 133.024 51.8879C133.231 52.6622 132.91 54.4558 132.421 55.2744C131.933 56.093 131.692 56.2523 129.678 57.1004C127.004 58.2198 126.321 58.6638 125.255 59.9691C123.042 62.7199 122.697 66.8911 124.469 69.8072C125.627 71.7498 125.64 72.1495 124.64 75.2868C123.519 78.7648 123.132 80.9315 123.341 82.4168C123.486 83.3977 123.382 83.8048 122.543 85.4287C121.658 87.2311 121.31 88.4863 121.383 89.8182C121.52 92.1767 118.201 96.1724 112.684 100.33C109.617 102.622 109.085 102.836 107.575 102.221C106.918 101.97 106.071 101.628 105.687 101.517C105.226 101.38 104.917 101.107 104.822 100.753C104.585 99.8683 103.987 99.2222 103.423 99.2311C103.119 99.2414 101.922 99.4434 100.766 99.706C99.609 99.9685 97.6681 100.299 96.4817 100.451L94.3071 100.701L97.6723 99.61C108.324 96.2105 113.874 92.9686 116.391 88.7133C117.314 87.1381 117.447 86.2251 116.985 84.4993C116.19 81.5346 114.289 79.4592 111.445 78.4429C110.822 78.2305 110.275 77.9502 110.245 77.8396C110.215 77.729 110.689 77.2939 111.284 76.8735C113.938 74.9768 116.509 72.1537 117.722 69.8129C118.732 67.8586 118.685 67.0651 117.566 65.444L116.726 64.2463L117.674 62.2374C118.202 61.1238 118.778 59.6651 118.949 58.9792C119.261 57.5913 119.077 54.4392 118.524 52.2872C117.776 49.4051 117.808 48.7325 118.77 46.6012C119.238 45.5274 120.258 43.5229 120.997 42.1394L122.34 39.6688L123.888 39.6335C125.602 39.6011 126.135 39.3872 125.963 38.7456C125.827 38.2367 125.427 38.1541 123.197 38.1113L121.421 38.0891L120.388 39.9549C119.82 41.0081 118.756 43.0243 118.029 44.4521L116.699 47.0613L115.654 46.1556C115.092 45.6423 113.681 44.6924 112.507 44.0109C109.03 41.9547 105.506 41.5711 101.185 42.7053C96.7814 43.8852 94.0903 46.1713 92.1487 50.462C90.7973 53.4326 90.7796 55.8324 92.0008 59.7736C93.1907 63.5097 93.9478 64.3977 98.5164 67.1811C99.7019 67.9068 100.42 68.4732 100.318 68.6192C100.237 68.7594 99.1744 69.6369 97.9855 70.5721L95.7822 72.3007L94.6407 72.1797C92.8455 71.9968 90.6243 70.5763 89.3201 68.7915C88.0897 67.1056 87.6121 66.9964 88.2709 68.5747C89.1263 70.622 90.1823 71.833 92.0487 72.8979L93.8033 73.898L92.8769 74.6679L91.9505 75.4379L89.6218 74.4968C88.3456 73.9613 86.5656 73.3949 85.6943 73.2252C83.7457 72.8225 83.313 73.057 82.4409 74.9981L81.8465 76.3904L81.0208 73.8372C80.1713 71.1955 79.2931 69.4152 78.0678 68.0124C77.1413 66.9327 74.6347 65.3279 73.0664 64.847C69.1169 63.5814 63.523 64.9854 60.1054 68.0828L59.3433 68.7612L58.6827 68.3217C57.5234 67.5178 57.5141 66.6903 58.5878 64.885C60.2948 62.0088 62.5202 60.2743 65.5805 59.4543C68.0244 58.7994 68.5723 58.8186 68.7738 59.5709C68.928 60.1461 68.9779 60.1564 69.6748 59.8511C70.3497 59.5517 70.5276 59.599 71.7571 60.3129C72.4896 60.7569 73.8268 61.608 74.7447 62.2157C75.6407 62.8293 76.3435 63.1626 76.2961 62.9856C76.1538 62.4547 74.0105 60.4442 72.1331 59.0739C70.6986 58.0355 70.3996 57.7124 70.1921 56.9381C69.8441 55.7271 68.8439 54.5486 67.4806 53.7756L66.3467 53.1547L66.5346 50.6855C66.6209 49.3344 66.6488 48.1176 66.5692 47.9966C66.3761 47.7164 65.3262 50.8433 64.9037 52.8773L64.5989 54.3818L66.0986 55.047C68.3732 56.0501 69.95 57.6195 68.6662 57.5841C65.7947 57.5235 64.472 57.7831 62.1247 58.8863C61.5379 59.1621 61.5582 59.0618 62.4634 58.0367C63.8123 56.4659 64.3813 55.5072 64.2509 55.0205C64.1916 54.7992 63.7275 54.2121 63.1991 53.7372C61.8992 52.4967 61.6426 51.4509 62.2099 49.7812C62.4826 48.9494 63.0152 48.119 63.7095 47.3638C65.5394 45.4744 65.1287 45.0865 63.0914 46.818C60.2098 49.2738 59.6103 52.2326 61.5386 54.5853C62.4769 55.7092 62.5455 56.1414 61.9324 56.4954C61.6259 56.6724 61.0949 57.5971 60.5708 58.8995C60.1051 60.0677 59.4269 61.4114 59.0653 61.9114C58.6978 62.3893 58.1686 63.4085 57.8663 64.1298C57.5699 64.8731 57.238 65.4838 57.1279 65.5133C56.5555 65.6667 55.3579 58.7313 55.5729 56.5395C55.8209 54.0305 57.0233 50.7679 58.9844 47.2545L60.7744 44.0715L62.3224 44.0362C63.1743 44.0451 64.2065 43.9345 64.6028 43.8283L65.3234 43.6115L64.6765 43.3106C64.331 43.166 63.5654 43.0392 62.9955 43.0259L61.9616 43.042L62.3257 42.3754C62.9032 41.2721 66.5231 37.4328 66.8085 37.6172C66.8864 37.6437 67.1964 38.2721 67.53 38.9889C68.3981 40.8194 68.6953 40.4315 68.2109 38.0951L67.823 36.2071L69.8459 34.598L71.8469 32.9947L72.4354 33.4299C72.9621 33.8104 73.0553 34.07 73.3382 35.6542C73.627 37.2604 73.6964 37.4315 73.9335 37.0834C74.2409 36.6454 74.4965 34.2529 74.3128 33.5671C74.2416 33.3016 73.9749 32.9225 73.7395 32.7484C73.0891 32.2587 73.1255 32.1304 73.9579 31.362C75.3297 30.1407 75.8996 30.154 77.4891 31.5066C77.8261 31.7957 77.8185 31.6792 77.4476 30.7352C76.92 29.3826 77.0385 29.2086 79.5873 27.6245C81.8076 26.2233 82.0117 26.1924 82.2251 26.9889C82.3318 27.3871 82.6883 27.837 83.1414 28.1187L83.8798 28.5848L83.5224 27.7795C83.1058 26.7529 83.1786 25.8797 83.7561 25.393C84.1812 25.042 89.5888 22.5022 90.5677 22.1924C90.936 22.07 91.2714 22.2647 91.9649 23.0037ZM105 43.5565C108.743 43.5256 112.46 45.067 114.724 47.6144L115.909 48.9567L112.986 54.9568L110.057 60.9348L106.834 63.4348C103.223 66.252 102.375 66.7874 101.485 66.8124C100.191 66.8271 96.7431 64.5261 94.7962 62.3681C94.1806 61.6557 93.9841 61.1866 93.249 58.4431C92.4486 55.4563 92.4232 55.2734 92.7136 53.8913C93.6137 49.5003 96.0295 46.3631 99.8891 44.4752C100.706 44.0903 103.496 43.58 105 43.5565ZM117.236 52.9406C117.838 56.5971 117.521 59.5515 116.306 61.7978C115.562 63.1592 115.071 63.2669 113.81 62.348C111.995 61.0322 111.977 60.9658 112.656 59.3611C113.839 56.5542 116.701 50.855 116.858 51.0025C116.886 51.0187 117.052 51.8993 117.236 52.9406ZM68.8274 65.9354C71.5837 65.7423 74.1928 66.5846 76.1269 68.3428C77.9095 69.9756 78.8342 71.5775 79.5931 74.4095C79.9369 75.6927 80.169 76.9111 80.1004 77.0954C79.9912 77.4804 80.1233 77.445 72.8433 78.2811C68.7863 78.7279 62.7139 79.6674 61.3048 80.0449C59.9398 80.4107 59.7128 80.0921 59.6586 77.6878C59.595 75.0727 60.4061 70.9664 61.2706 69.5253C61.6466 68.9029 62.3629 68.1418 62.9803 67.7156C64.1768 66.897 66.8831 66.077 68.8274 65.9354ZM139.831 53.3365C145.918 55.0963 147.672 55.7409 150.899 57.39C155.135 59.551 157.039 60.8431 157.986 62.178C158.406 62.7769 160.639 66.3523 162.946 70.1209C165.248 73.8674 168.238 78.6863 169.593 80.8368C170.948 82.9874 172.09 84.958 172.117 85.2353C172.183 85.8341 171.419 86.4182 168.717 87.7825C164.968 89.6409 156.466 92.9623 152.987 93.8944C151.336 94.3368 151.032 94.3472 150.833 94.0448C150.292 93.1701 144.864 80.1356 142.845 74.8905C141.778 72.1411 142.341 70.5437 145.38 67.6189C147.332 65.7442 147.099 65.4035 145.068 67.1572C143.167 68.7811 141.969 70.4773 141.691 71.9036C141.489 73.001 141.538 73.2724 142.34 75.7371C143.412 79.0308 146.258 86.3069 149.263 93.4695C155.584 108.517 155.84 109.208 155.301 111.249C154.85 112.911 152.883 116.403 151.142 118.624C149.449 120.761 145.757 124.596 142.705 127.382C140.294 129.569 139.775 129.922 139.638 129.413C139.603 129.28 139.066 127.717 138.476 125.954C136.635 120.495 134.259 116.294 130.615 112.03C128.175 109.175 126.396 107.469 121.64 103.456C119.472 101.618 117.539 99.9542 117.336 99.7241C116.981 99.3686 117.11 99.1444 118.848 97.0898C121.572 93.87 122.327 92.4585 122.917 89.2887C123.515 86.2355 123.709 85.9937 126.983 84.1205C131.05 81.7739 132.134 79.9184 131.753 75.9418L131.577 74.1394L133.258 73.8076C136.151 73.2457 137.514 72.7855 138.216 72.1469C139.979 70.5363 140.343 68.6365 139.484 65.4284C138.861 63.1053 137.899 61.5373 136.007 59.6729L134.902 58.546L135.151 57.0091C135.308 56.1845 135.393 54.7391 135.382 53.8172C135.333 52.6682 135.407 52.1505 135.623 52.1638C135.795 52.1889 137.707 52.7199 139.831 53.3365ZM133.98 54.9278C133.976 55.6167 133.786 56.7583 133.572 57.456L133.158 58.7288L135.049 60.8543C137.257 63.3692 138.093 64.9947 138.32 67.1629C138.513 68.9373 138.293 69.9684 137.545 70.7855C136.666 71.7324 133.278 72.4742 131.375 72.1541C129.938 71.8989 127.596 70.8191 126.495 69.881C124.586 68.3057 124.27 64.5725 125.815 61.6211C126.639 60.0252 127.368 59.4028 129.966 58.0901C131.172 57.4824 132.364 56.7361 132.641 56.4485C133.227 55.8172 133.896 54.2626 133.766 53.7759C133.718 53.5989 133.761 53.4927 133.851 53.5635C133.934 53.6121 134 54.211 133.98 54.9278ZM112.837 63.5574C115.33 65.3791 116.68 66.6299 116.84 67.2273C117.024 67.9131 115.708 70.3999 114.267 72.0666C111.645 75.1404 108.331 77.2142 104.248 78.3557C101.898 79.009 101.622 79.0356 100.417 78.7656C98.6785 78.3541 93.7534 76.3539 93.8423 76.0692C94.004 75.5279 110.089 62.7284 110.876 62.4939C111.074 62.4408 111.957 62.9158 112.837 63.5574ZM86.8401 75.1236C90.3018 76.3302 96.1051 78.8776 96.2279 79.2479C96.3938 79.8674 95.4243 80.388 92.7662 81.1239C91.3571 81.5015 89.6694 82.0723 89.0386 82.3599C86.7235 83.4071 84.6116 84.0678 84.3643 83.8495C84.2347 83.7182 83.7427 82.4984 83.2371 81.1399L82.3572 78.6487L83.0473 77.3492C83.4216 76.6324 83.8365 75.7149 83.9457 75.33C84.0769 74.9391 84.336 74.5851 84.5342 74.532C84.7103 74.4848 85.7494 74.7518 86.8401 75.1236ZM66.2121 80.7457C75.576 79.2326 79.9684 78.9805 80.9693 79.8979C81.6493 80.4983 82.2439 83.4217 82.0068 85.0029C81.7943 86.4115 80.7968 88.149 79.5292 89.3186C78.6045 90.1829 78.3302 90.3039 76.2106 90.8481C74.2672 91.3451 73.627 91.4218 72.2137 91.2551C67.7697 90.7859 63.9624 88.8182 62.0138 85.9493C61.3211 84.9492 60.1617 82.2957 60.2828 81.955C60.3717 81.6703 59.7874 81.7795 66.2121 80.7457ZM130.233 75.3769C130.539 77.9271 130.052 80.0732 128.871 81.1249C128.185 81.7355 125.958 83.1145 125.408 83.262C125.276 83.2974 125.089 83.0393 125 82.7074C124.656 81.4242 125.084 78.4403 126.207 74.1791L126.73 72.1658L128.418 73.1836L130.079 74.1851L130.233 75.3769ZM99.1037 81.7023C99.2925 82.6714 99.4628 83.8351 99.4874 84.2791C99.5407 85.0948 99.5407 85.0948 98.3899 85.3794C96.925 85.7245 96.4956 85.5313 96.2035 84.3528C95.8046 82.776 95.9874 81.8733 96.9121 81.009C97.3635 80.5798 97.9867 80.1757 98.2729 80.099C98.8013 79.9574 98.8072 79.9795 99.1037 81.7023ZM166.051 65.5898C168.825 66.6962 173.131 68.4117 175.582 69.3675C178.054 70.3175 180.439 71.291 180.88 71.5285L181.701 71.9489L179.197 72.6435L176.709 73.3102L174.636 75.5255C172.362 77.9607 171.442 78.7527 170.649 78.9651C170.143 79.1008 169.99 78.881 167.921 75.4752C162.26 66.0603 160.794 63.5837 160.882 63.5601C160.948 63.5424 163.271 64.4614 166.051 65.5898ZM91.823 85.2657L92.3565 87.2569L91.5529 87.7805C91.1101 88.0652 89.6002 88.6831 88.1928 89.1551L85.6584 90.0002L85.4051 88.5267C85.2578 87.7125 85.151 86.6977 85.1764 86.2641C85.2027 85.5693 85.2729 85.4794 86.1096 85.2552C86.616 85.1195 87.4992 84.7169 88.0462 84.3806C88.6212 84.0605 89.5763 83.6623 90.1767 83.5251L91.2894 83.2744L91.823 85.2657ZM103.708 80.3027C104.596 80.1832 105.44 80.0756 105.594 80.0343C105.815 79.9753 105.937 80.3455 106.183 81.7025C106.35 82.6774 106.439 83.6259 106.342 83.794C106.263 84.0285 105.473 84.3353 103.799 84.7837L101.377 85.4326L101.01 83.4443C100.491 80.7141 100.495 80.6418 101.373 80.5725C101.787 80.5327 102.841 80.4162 103.708 80.3027ZM109.329 79.1759C111.29 79.9784 112.687 80.7896 112.806 81.2321C112.865 81.4534 112.608 81.9018 112.172 82.3029C111.312 83.0552 108.118 85.0493 107.458 85.2262C107.061 85.3324 107.076 85.21 107.54 84.3029C108.015 83.3457 108.038 83.0787 107.755 81.4945C107.465 79.7939 107.486 78.816 107.86 78.7157C107.948 78.6921 108.616 78.8927 109.329 79.1759ZM94.8723 84.7569C95.6684 87.1995 95.7522 87.2481 98.2249 86.965C99.2072 86.8441 100.247 86.85 100.581 86.9503C100.97 87.0831 101.836 86.9695 103.318 86.5964C106.858 85.7189 104.211 86.7601 98.6441 88.4415C93.1873 90.0933 93.2093 90.0874 93.6098 88.0593C93.7419 87.4074 93.6995 86.2805 93.5403 85.4221C93.1058 83.096 93.1126 82.8571 93.7087 82.7922C94.1668 82.7406 94.2464 82.8615 94.8723 84.7569ZM83.7098 87.7479C83.9038 89.0001 83.6887 89.3423 83.2373 88.5384C82.9968 88.0812 83.1644 86.3289 83.4219 86.4971C83.4998 86.5236 83.6319 87.1048 83.7098 87.7479ZM114.897 82.7824C115.568 83.5273 115.901 85.1217 115.621 86.4536C115.014 89.2959 111.306 92.5423 105.776 95.0673C103.95 95.9124 102.278 96.4552 97.7425 97.6704L92.0182 99.2043L89.2593 98.9475C87.7359 98.8103 86.3048 98.5772 86.0812 98.4474C85.6959 98.2424 85.7044 98.0979 86.0329 97.2984C86.6476 95.8058 88.1405 94.2438 89.757 93.4075C90.5742 93.0226 93.7937 91.8279 96.9548 90.7675C107.099 87.4092 110.818 85.7013 113.357 83.2897C114.412 82.2956 114.434 82.2897 114.897 82.7824ZM91.8722 89.8529C91.9679 89.9458 91.9493 90.1405 91.857 90.2364C91.564 90.552 87.3546 92.9841 86.9143 93.1021C86.6061 93.1847 85.8109 92.3307 85.6568 91.7554C85.5678 91.4236 91.5631 89.58 91.8722 89.8529ZM179.144 79.8429C184.797 85.4421 189.393 90.969 195.255 99.2865C199.285 104.989 200.173 106.103 203.071 109.168C205.602 111.833 207.774 114.215 207.822 114.392C207.917 114.746 206.711 115.354 203.317 116.69C197.084 119.143 196.575 119.445 190.532 124.194C188.291 125.957 186.254 127.428 186 127.448C185.658 127.492 185.309 127.159 184.626 126.109C183.524 124.46 182.963 124.041 182.149 124.259C181.466 124.442 180.672 125.793 179.987 127.992C179.128 130.689 179.407 130.495 173.51 132.265L168.305 133.802L166.696 133.522C165.809 133.38 163.946 133.12 162.527 132.932C161.113 132.765 159.902 132.473 159.811 132.308C159.72 132.142 159.874 131.485 160.134 130.869C160.748 129.377 162.082 128.189 166.926 124.781C169.013 123.321 171.43 121.511 172.319 120.775C176.426 117.256 178.132 113.408 177.361 109.298C177.005 107.354 176.208 105.434 173.393 99.5957C171.744 96.1723 171.236 94.9805 171.311 94.5571C171.392 94.1559 171.816 93.7105 172.784 93.0955C174.609 91.8949 175.496 91.0645 175.754 90.355C176.208 89.1426 175.077 86.5053 172.4 82.5036L171.245 80.7498L172.472 79.7808C173.154 79.2424 174.139 78.3383 174.687 77.741C175.219 77.1716 175.702 76.6864 175.768 76.6687C175.834 76.651 177.347 78.0714 179.144 79.8429ZM100.887 101.215L103.127 100.591L103.281 101.166C103.548 102.162 104.401 102.882 105.582 103.063C106.176 103.165 106.705 103.379 106.753 103.556C106.8 103.733 106.577 104.575 106.239 105.425C105.922 106.268 105.351 108.01 104.992 109.316L104.349 111.67L103.839 111C103.13 110.028 102.672 110.08 102.101 111.205L101.598 112.146L101.184 111.569C100.797 111.009 100.675 110.994 99.6407 111.271L98.5398 111.566L98.2485 110.743C97.9927 110.053 97.8691 109.944 97.273 110.009L96.5828 110.075L95.7308 106.983C95.2743 105.28 94.7357 103.622 94.5367 103.319L94.1946 102.747L96.4098 102.296C97.6385 102.038 99.6378 101.573 100.887 101.215ZM116.335 101.273C117.499 102.004 121.909 105.518 121.986 105.806C122.01 105.894 120.228 106.466 118.004 107.062L113.975 108.142L112.22 106.17C111.249 105.102 110.452 104.153 110.435 104.087C110.363 103.821 114.212 101.012 114.977 100.783C115.169 100.708 115.776 100.948 116.335 101.273ZM173.682 87.377C173.857 87.5909 174.127 88.1587 174.258 88.6455C174.572 89.8181 174.096 90.4199 171.635 91.9804C169.147 93.5246 167.168 94.5054 164.102 95.6588C160.993 96.8239 153.42 99.2088 153.174 99.0849C153.069 99.0421 152.741 98.3474 152.433 97.5524L151.888 96.1334L153.041 95.6821C153.684 95.4387 155.981 94.5862 158.179 93.8075C163.388 91.9374 167.427 90.1911 170.164 88.6041C172.863 87.051 173.231 86.9286 173.682 87.377ZM125.897 109.216C129.724 112.933 134.627 119.516 135.219 121.728C135.492 122.746 135.456 122.874 134.324 124.814C132.431 128.143 127.639 133.245 122.081 137.864C117.281 141.878 115.896 142.699 110.474 144.745L107.371 145.932L106.929 146.928C106.696 147.465 105.824 149.145 105.05 150.656C102.492 155.468 102.254 156.954 103.61 159.199C104.887 161.323 105.962 162.34 108.298 163.658C111.633 165.539 112.114 165.837 112.772 166.443C114.285 167.864 113.598 168.997 110.617 169.937C108.946 170.48 108.692 170.501 107.995 170.19C106.874 169.707 104.456 167.462 101.796 164.405C99.3391 161.577 98.2586 159.922 97.808 158.241C97.5353 157.223 97.0475 156.547 96.8384 156.912C96.6394 157.226 97.7988 161.112 98.3755 162.12C98.6558 162.637 100.004 164.41 101.334 166.117C102.681 167.796 103.916 169.409 104.087 169.695C104.367 170.213 104.351 170.241 103.25 170.536C101.929 170.89 101.113 170.753 99.8661 169.973C97.6906 168.635 96.5152 166.626 95.0154 161.645C94.392 159.583 93.7975 157.892 93.7095 157.916C93.6214 157.94 93.5207 158.797 93.4834 159.802C93.4183 162.025 93.9688 164.344 95.19 167.052C95.6507 168.067 95.9936 168.995 95.9293 169.107C95.7303 169.421 91.2015 166.698 90.2488 165.696C89.651 165.05 89.1598 164.186 88.622 162.884C87.7015 160.593 87.51 159.174 87.952 157.917C88.372 156.667 88.1908 156.43 87.4583 157.22C86.3126 158.404 86.3406 159.037 87.5585 163.406C88.6044 167.133 88.6577 167.332 88.2614 167.438C87.6009 167.615 86.1596 166.816 85.4187 165.9C84.8132 165.137 84.72 164.878 84.4956 163.159C84.3829 162.122 83.8383 159.826 83.3141 158.045L82.3706 154.789L83.1268 153.472L83.899 152.126L88.5666 150.876C93.124 149.655 93.2943 149.585 94.8515 148.528C97.6815 146.584 99.6206 144.309 103.608 138.143C108.672 130.359 109.529 129.418 117.155 123.178L120.289 120.607L119.927 119.257C119.459 117.509 118.053 114.377 116.694 112.037C116.09 111.014 115.581 110.083 115.539 109.928C115.433 109.53 116.097 109.28 120.16 108.239L123.909 107.258L125.897 109.216ZM169.768 96.1088C170.527 97.0911 173.777 103.761 174.799 106.428C176.058 109.719 176.289 111.198 175.859 113.115C175.099 116.355 172.624 119.009 166.233 123.425C161.256 126.869 159.945 128.051 158.74 130.247C158.166 131.278 157.079 132.945 156.312 133.956C154.458 136.374 153.939 137.343 153.656 139.103C153.303 141.308 153.864 142.699 156.539 146.25C157.683 147.793 158.627 149.2 158.608 149.395C158.565 149.762 157.64 150.271 156.319 150.625L155.394 150.873L153.667 148.656C152.014 146.538 149.923 143.138 149.639 142.076C149.431 141.302 149.017 141.342 149.065 142.135C149.107 143.262 150.317 145.665 152.375 148.765L154.279 151.646L153.575 151.835C152.474 152.13 150.575 151.998 149.388 151.534C147.495 150.808 146.422 149.269 144.716 144.842C143.294 141.12 142.836 141.788 143.963 145.992C144.643 148.442 144.788 148.806 146.187 150.945C147.574 153.04 147.689 153.293 147.442 153.692C147.222 154.106 147.078 154.097 145.795 153.801C143.929 153.352 142.177 152.185 140.505 150.262C139.246 148.821 138.743 147.912 137.203 144.365L136.988 143.83L136.858 144.576C136.67 145.812 137.136 147.726 137.939 149.052C138.333 149.729 139.494 151.244 140.528 152.461C141.941 154.122 142.345 154.749 142.182 154.935C142.052 155.065 141.305 155.36 140.556 155.56C139.279 155.902 139.063 155.889 138.403 155.449C137.363 154.827 135.185 152.423 133.235 149.815C131.473 147.465 130.395 145.644 129.659 143.778C128.308 140.322 129.95 137.819 136.17 133.994C140.426 131.384 142.266 130.061 144.961 127.702C149.062 124.161 151.383 121.286 156.241 113.701C157.188 112.214 158.865 109.844 159.962 108.388C162.221 105.459 162.623 104.758 162.716 103.784C162.854 102.538 162.684 102.607 161.625 104.29C161.018 105.283 159.891 106.628 158.847 107.572L157.106 109.177L156.821 108.115C156.661 107.517 155.953 105.668 155.242 103.985C154.526 102.28 153.991 100.811 154.055 100.699C154.136 100.558 156.598 99.7089 159.513 98.7856C162.449 97.8564 165.412 96.8491 166.115 96.5659C166.812 96.2606 167.801 95.9008 168.324 95.7371C169.198 95.479 169.304 95.5217 169.768 96.1088ZM136.892 125.857C137.112 126.414 137.498 127.853 137.73 129.071C138.153 131.092 138.146 131.331 137.752 131.531C133.093 133.87 130.435 135.839 128.811 138.148C127.755 139.664 127.124 139.952 122.522 141.184L119.748 141.928L123.799 138.376C129.609 133.286 133.588 129.114 135.379 126.286C135.841 125.546 136.273 124.956 136.333 124.916C136.421 124.892 136.656 125.327 136.892 125.857ZM202.575 120.968C200.617 129.247 196.595 141.185 194.406 145.257C193.913 146.148 192.818 147.698 191.951 148.69C191.09 149.703 190.28 150.821 190.143 151.19C189.893 152.016 189.979 154.364 190.353 155.758L190.631 156.797L189.542 157.753C187.435 159.575 186.258 162.404 186.467 165.122C186.529 165.793 187.679 170.702 189.03 176.008C191 183.803 191.756 186.446 192.943 189.732C194.014 192.671 194.38 193.948 194.286 194.305C194.185 194.806 194.031 194.848 190.356 195.666C186.776 196.483 186.43 196.6 185.013 197.477C182.749 198.89 180.879 199.486 179.53 199.207C178.937 199.106 176.528 198.044 174.156 196.853C169.937 194.759 169.336 194.54 166.725 194.22C165.434 194.068 165.406 194.052 164.032 192.357L162.629 190.646L163.713 188.174C164.314 186.804 164.969 185.111 165.183 184.413C165.626 182.895 165.862 179.725 165.601 178.752C165.506 178.398 165.5 178.02 165.592 177.924C165.662 177.835 166.804 177.955 168.075 178.208C171.738 178.934 172.02 178.929 172.908 178.193C176.157 175.521 184.018 163.028 184.975 159.025L185.263 157.809L183.732 156.061C180.243 152.111 176.577 149.964 170.904 148.519L169.181 148.08L167.622 142.261C166.769 139.075 166.052 136.137 166.023 135.765L165.978 135.066L167.439 135.149C170.112 135.262 178.447 132.815 180.186 131.377C180.437 131.168 180.995 129.904 181.391 128.565C181.815 127.242 182.249 126.129 182.359 126.1C182.733 126 183.167 126.476 183.769 127.666C184.091 128.339 184.585 129.037 184.882 129.265C185.409 129.646 185.431 129.64 186.629 128.916C187.302 128.522 189.59 126.842 191.739 125.175C197.226 120.907 199.566 119.426 202.174 118.68L203.181 118.386L202.575 120.968ZM127.48 141.634C127.616 141.788 127.641 143.204 127.586 144.76C127.394 149.151 128.307 152.558 130.183 154.451C131.152 155.424 132.081 155.721 133.683 155.623C134.871 155.566 134.977 155.609 135.298 156.281C136.28 158.271 142.183 177.13 142.733 180.066C143.16 182.275 143.081 182.771 142.313 183.166C141.985 183.349 138.944 184.33 135.517 185.366L129.302 187.269L127.953 186.374C126.302 185.322 124.345 183.214 122.956 181.025C122.387 180.134 120.906 177.425 119.674 175.028C118.414 172.615 116.278 168.871 114.911 166.676C110.713 159.905 110.449 159.359 108.939 154.428C107.647 150.221 107.587 150 107.803 149.041C108.204 147.369 108.371 147.111 109.48 146.671C110.463 146.289 119.957 143.413 125.025 141.984C126.841 141.45 127.321 141.393 127.48 141.634ZM158.713 135.519C160.031 137.181 161.804 140.714 162.435 142.892C163.283 145.795 163.164 146.23 158.863 155.279C154.76 163.919 153.684 166.508 153.256 168.875C152.898 170.797 153.189 171.881 155.688 178.302C159.403 187.764 160.897 190.873 162.928 193.435C163.817 194.549 164.006 194.901 163.886 195.337C163.758 195.916 162.174 197.313 160.026 198.719C159.282 199.202 158.422 199.955 158.131 200.365C157.839 200.775 157.142 202.574 156.538 204.372C155.322 208.113 154.942 208.807 153.824 209.391C152.608 210.049 152.064 209.958 151.683 209.064C150.836 207.133 146.356 193.323 144.961 188.29L143.939 184.651L144.338 183.501L144.738 182.35L143.227 176.447C142.405 173.205 141.106 168.621 140.34 166.289C139.551 163.963 138.544 160.818 138.046 159.315L137.173 156.585L138.078 157.054C138.569 157.302 139.576 158.242 140.305 159.113C141.797 160.895 143.237 161.956 144.503 162.186C146.833 162.605 155.276 159.062 156.337 157.213C156.643 156.68 156.612 156.475 156.11 155.044C155.674 153.857 155.594 153.381 155.755 153.1C155.861 152.882 156.747 152.313 157.701 151.82C158.654 151.327 159.688 150.695 159.993 150.423C160.482 149.96 160.503 149.86 160.16 148.932C159.939 148.375 158.91 146.824 157.863 145.469C156.284 143.449 155.834 142.74 155.424 141.474C154.868 139.75 154.916 139.05 155.753 137.331C156.244 136.346 157.47 134.666 157.778 134.583C157.866 134.56 158.283 134.97 158.713 135.519ZM161.856 134.392C162.678 134.551 163.551 134.815 163.786 134.989C164.161 135.244 164.49 136.295 165.83 141.295C166.713 144.591 167.508 147.912 167.616 148.665L167.773 150.046L165.236 154.401C163.502 157.356 162.6 159.186 162.39 160.073C162.089 161.505 162.129 164.032 162.52 165.492C162.763 166.399 162.763 166.399 161.88 166.802C160.552 167.394 158.217 169.158 156.544 170.84C155.723 171.653 155.027 172.313 154.983 172.325C154.785 172.378 154.576 170.893 154.635 169.881C154.792 167.562 155.808 165.014 160.096 156.182C165.393 145.301 165.49 144.255 161.794 137.681C160.97 136.194 160.155 134.824 160.03 134.62C159.661 134.126 160.119 134.075 161.856 134.392ZM106.339 152.208C107.584 155.977 108.703 158.831 109.625 160.599C110.261 161.828 110.712 162.893 110.641 162.983C110.365 163.271 108.412 162.324 107.445 161.444C105.1 159.298 104.11 157.453 104.405 155.738C104.603 154.452 105.578 152.364 106.018 152.246C106.195 152.199 106.333 152.186 106.339 152.208ZM131.111 149.459C131.975 150.746 132.984 152.135 133.351 152.535C134.231 153.532 134.229 153.699 133.37 153.929C132.379 154.194 131.108 153.586 130.515 152.607C130.03 151.765 128.695 147.048 128.872 146.739C129.033 146.459 129.343 146.826 131.111 149.459ZM152.052 153.286C152.944 153.355 153.704 153.46 153.76 153.493C153.989 153.644 154.89 156.391 154.779 156.681C154.606 157.179 151.157 158.838 147.941 159.96L145.139 160.948L143.831 160.208C142.496 159.451 141.581 158.416 141.657 157.731C141.676 157.537 142.109 157.041 142.617 156.644C143.146 156.242 143.822 155.681 144.165 155.376C144.746 154.817 144.796 154.827 145.427 155.156C145.762 155.351 146.424 155.529 146.834 155.562C147.553 155.606 147.718 155.515 148.667 154.478C149.237 153.874 149.891 153.32 150.083 153.245C150.281 153.192 151.183 153.211 152.052 153.286ZM173.869 151.045C175.01 151.427 176.548 152.058 177.285 152.43L178.618 153.092L177.175 156.775C174.905 162.482 174.482 164.516 174.548 169.43L174.584 171.413L173.052 170.187C171.043 168.591 168.692 167.3 166.388 166.542C164.303 165.892 164.06 165.601 163.742 163.623C163.336 161.052 164.048 159.13 167.685 153.152C168.421 151.935 169.073 150.67 169.106 150.353L169.168 149.791L170.467 150.059C171.188 150.198 172.723 150.64 173.869 151.045ZM182.975 157.639C183.148 158.02 183.302 158.595 183.319 158.923C183.328 159.75 181.946 162.516 179.058 167.416C176.756 171.329 176.545 171.599 176.331 171.063C175.914 170.037 175.97 166.37 176.45 163.846C176.879 161.573 178.411 157.25 179.497 155.228L179.926 154.449L181.276 155.7C182.029 156.399 182.808 157.281 182.975 157.639ZM165.996 168.07C168.27 168.457 174.019 172.299 174.387 173.671C174.535 174.224 173.928 175.217 172.624 176.515C171.663 177.507 171.873 177.498 167.822 176.473C166.35 176.085 163.748 175.621 162.018 175.42C158.488 175.014 156.595 174.644 156.246 174.311C155.678 173.775 158.977 170.235 161.364 168.837C162.71 168.049 164.271 167.797 165.996 168.07ZM160.04 176.756C161.614 176.904 163.071 177.059 163.287 177.072C163.609 177.128 163.702 177.388 163.921 178.823C164.202 180.574 164.063 182.697 163.523 184.644C163.227 185.743 162.105 188.249 161.832 188.465C161.636 188.612 160.842 186.88 158.719 181.687C156.792 176.963 156.675 176.614 156.983 176.532C157.093 176.502 158.467 176.609 160.04 176.756ZM142.205 185.756C142.392 186.014 143.278 188.528 144.175 191.346C148.551 204.947 149.884 208.953 150.148 209.499C150.406 210.023 150.364 210.129 149.394 210.911C148.832 211.369 147.352 212.714 146.118 213.922C144.879 215.108 143.713 216.132 143.515 216.185C142.547 216.445 141.472 214.812 139.808 210.539C138.058 206.122 136.549 201.547 134.456 194.353L132.564 187.818L137.231 186.567C141.855 185.328 141.899 185.316 142.205 185.756ZM135.153 203.557C135.326 203.677 135.732 204.398 136.072 205.137C136.925 207.09 139.439 214.005 139.364 214.167C139.31 214.229 138.155 213.969 136.776 213.58C135.398 213.191 133.183 212.764 131.848 212.624C129.587 212.376 128.758 212.1 128.61 211.547C128.497 211.127 128.999 208.597 129.376 207.714C130.196 205.668 134.155 202.829 135.153 203.557ZM169.171 196.126C169.894 196.359 171.484 197.095 172.684 197.698C173.89 198.324 176.228 199.476 177.873 200.244C181.671 202.001 182.914 202.854 183.169 203.805C183.483 204.978 183.215 205.737 182.077 207.038C179.746 209.702 178.568 209.354 169.422 203.315C165.98 201.036 163.714 199.888 162.428 199.759C161.531 199.667 161.647 199.399 163.078 198.399C163.75 197.91 164.748 197.145 165.288 196.692C166.535 195.623 167.395 195.487 169.171 196.126ZM161.176 201.161C162.095 201.247 163.412 201.582 164.109 201.893C166.747 203.107 172.747 207.356 174.327 209.115C174.761 209.591 175.291 210.422 175.521 210.929C176.329 212.799 175.057 214.041 172.831 213.571C171.676 213.311 168.668 212.125 164.147 210.135C162.273 209.309 160.023 208.395 159.144 208.108C158.243 207.828 157.496 207.507 157.46 207.374C157.342 206.931 159.128 201.093 159.414 201.017C159.458 201.005 160.25 201.054 161.176 201.161ZM192.721 196.74C196.143 196.037 196.193 196.047 196.614 197.618C196.803 198.326 197.029 199.783 197.109 200.876C197.19 201.969 197.276 203.084 197.303 203.361C197.384 204.454 196.45 205.724 193.832 208.109C192.384 209.398 190.271 211.198 189.142 212.093C184.114 216.049 171.479 223.584 171.259 222.766C171.23 222.655 171.564 221.878 171.985 220.982C172.961 218.99 173.09 218.149 172.634 216.445C172.313 215.251 172.316 215.084 172.698 215.1C176.245 215.217 177.99 213.54 177.237 210.73L177 209.845L178.387 210.09C179.131 210.223 180.099 210.224 180.517 210.112C182.344 209.622 185.031 206.175 184.919 204.522C184.828 203.479 184.341 202.542 183.354 201.503C182.926 201.048 182.581 200.643 182.597 200.615C182.635 200.581 183.122 200.284 183.675 199.97C184.25 199.65 185.29 199.039 186.023 198.606C186.937 198.053 187.794 197.728 188.803 197.529C189.613 197.383 191.382 197.028 192.721 196.74ZM130.878 214.022C133.081 214.143 135.947 214.798 137.958 215.611C139.673 216.29 142.013 217.536 142.072 217.757C142.096 217.846 141.519 218.688 140.801 219.616C139.676 221.055 138.825 222.635 138.129 224.529C137.988 224.97 137.878 224.999 135.789 225.132C133.889 225.262 127.677 225.503 120.237 225.742C117.103 225.847 117.103 225.847 117.296 223.661C117.659 219.556 118.944 217.836 123.134 215.86C125.854 214.562 128.74 213.884 130.878 214.022ZM159.134 209.747C159.996 209.967 160.98 210.296 161.354 210.457L162.029 210.774L161.437 210.766C160.519 210.775 156.532 209.899 156.279 209.658C155.862 209.248 157.506 209.306 159.134 209.747ZM154.314 211.394C156.411 211.473 164.121 213.035 166.664 213.895C168.974 214.675 170.678 215.665 171.136 216.491C171.901 217.851 171.337 219.709 169.387 222.295L168.409 223.577L166.772 223.897C165.135 224.217 164.587 224.198 152.16 223.259C147.873 222.938 145.001 223.138 141.632 224.041L139.535 224.579L140.636 222.79C142.301 220.02 147.009 214.869 149.89 212.675C151.237 211.626 152.354 211.303 154.314 211.394ZM126.836 227.033C132.944 226.843 138.02 226.763 138.144 226.873C138.267 226.982 138.666 227.942 139.011 228.964C139.361 230.008 140.052 231.531 140.548 232.323C141.9 234.64 141.926 234.562 140.004 235.314C139.081 235.656 136.463 236.452 134.151 237.072C128.047 238.684 125.443 238.741 121.74 237.339C118.354 236.064 115.443 233.832 114.544 231.797C114.014 230.611 114.477 227.76 115.248 227.553C115.534 227.477 120.756 227.239 126.836 227.033ZM200.213 205.854C202.267 206.916 202.564 208.378 201.127 210.233C199.353 212.511 189.021 221.682 185.454 224.132C183.225 225.677 177.428 228.701 175.35 229.4C173.838 229.924 173.656 229.949 173.423 229.608C173.298 229.405 172.505 228.384 171.646 227.381C170.352 225.807 170.169 225.477 170.38 225.207C170.52 225.027 171.534 224.494 172.593 224.044C179.686 221.101 192.407 212.214 197.43 206.742C198.064 206.027 198.728 205.422 198.86 205.387C199.014 205.345 199.638 205.558 200.213 205.854ZM145.299 224.955C148.292 224.414 148.79 224.423 157.387 225.155C160.456 225.423 164.049 225.622 165.393 225.618C168.235 225.568 168.728 225.649 168.871 226.18C168.924 226.379 169.695 227.406 170.581 228.425C171.452 229.472 172.149 230.4 172.078 230.49C171.805 230.966 169.821 231.664 164.339 233.133L158.284 234.755L152.799 234.541C145.455 234.256 143.886 234.037 142.939 233.057C142.15 232.225 140.73 229.831 140.013 228.126C139.221 226.228 139.626 225.977 145.299 224.955ZM189.969 223.372C190.465 223.548 191.248 224.974 191.319 225.856C191.372 226.316 191.365 227.172 191.303 227.734L191.206 228.78L184.88 230.356C181.405 231.216 175.723 232.644 172.271 233.498L166.01 235.056L167.089 238.467L168.19 241.871L165.204 242.529C163.557 242.899 160.578 243.579 158.55 244.027C156.529 244.498 154.628 244.888 154.346 244.893L153.782 244.902L152.732 240.63C152.12 238.257 151.68 236.264 151.728 236.18C151.777 236.096 152.744 236.097 153.896 236.168C157.451 236.401 160.39 235.922 166.409 234.167C174.398 231.837 180.993 228.884 186.568 225.209C186.627 225.169 186.685 225.131 186.741 225.094C189.516 223.256 189.56 223.226 189.969 223.372ZM144.718 235.995C145.952 235.759 147.587 235.606 148.344 235.616L149.7 235.656L150.323 237.979L150.939 240.28L150.235 240.469C145.737 241.651 133.129 244.531 131.717 244.72C129.52 244.976 128.887 244.814 128.254 243.774C127.633 242.778 127.413 240.988 127.837 240.542C128.212 240.181 141.432 236.591 144.718 235.995ZM165.729 244.309C165.952 244.439 169.549 255.308 170.53 258.792C170.583 258.991 170.846 259.181 171.128 259.177C171.92 259.226 173.451 260.096 174.24 260.928C175.335 262.105 175.927 264.578 175.543 266.317C175.009 268.903 173.358 270.318 169.858 271.256L167.656 271.845L166.612 271.295C165.111 270.536 163.53 268.777 163.187 267.494C162.866 266.299 163.042 265.28 163.935 262.978C164.838 260.625 164.853 260.503 164.218 258.135C163.632 255.945 160.852 247.774 160.183 246.246L159.82 245.418L162.624 244.785C164.182 244.439 165.589 244.228 165.729 244.309ZM76.4157 42.5601C76.1727 42.8861 75.3276 44.4879 74.5325 46.1C73.7433 47.7343 72.6857 49.5116 72.176 50.075C70.988 51.3656 69.3274 52.2137 67.7752 52.3213C67.1452 52.3479 66.6269 52.4393 66.6507 52.5278C66.8107 53.1252 69.313 53.5692 71.4834 53.3908C72.7316 53.2934 73.1719 53.1755 74.36 52.5014C75.7182 51.7581 76.3237 51.2876 82.1427 46.4085C84.9159 44.0766 86.894 42.7403 88.6562 42.0073C89.1888 41.7934 89.7299 41.435 89.8146 41.2226C90.0966 40.6017 88.9382 40.7698 86.4774 41.7137C83.8083 42.7609 82.9183 43.4025 77.8283 47.9202C75.7546 49.7801 73.978 51.2521 73.8942 51.2034C73.8324 51.1489 74.0525 50.4733 74.431 49.6842C75.1922 48.0337 77.1981 43.0144 77.3565 42.2843C77.5106 41.6265 77.0042 41.7622 76.4157 42.5601ZM98.0691 37.6829C94.4246 39.2286 91.3254 42.8098 90.6082 46.2981C90.1858 48.3321 90.5567 48.6595 91.2383 46.8881C92.4864 43.7081 94.4416 41.4057 97.0818 39.9868C98.7305 39.0945 102.319 38.1329 104.369 38.0341C107.746 37.8646 111.968 39.5314 115.226 42.3576C117.143 44.0494 117.288 43.5361 115.455 41.5375C113.881 39.8014 109.508 37.1315 107.587 36.745C104.49 36.1048 100.973 36.4543 98.0691 37.6829ZM58.3985 50.9685C57.8405 51.616 57.1834 52.5983 56.9717 53.1293L56.5907 54.0851L57.2656 55.0188C58.5299 56.7431 58.5139 56.7711 57.5951 58.2741C56.59 59.8951 56.5849 60.2284 57.6206 59.6901C58.486 59.221 59.9331 56.9599 59.9119 56.0882C59.917 55.7549 59.6926 55.2696 59.3936 54.9466C58.6264 54.1087 58.584 53.5984 59.1734 51.9228C60.1039 49.231 59.9684 49.0776 58.3985 50.9685ZM106.202 53.2412C105.792 53.4698 105.394 55.3313 105.589 56.0614C105.661 56.3269 106.089 56.7812 106.536 57.0408C107.676 57.6839 108.711 57.4066 109.519 56.1942C110.294 55.0379 110.27 54.3328 109.457 53.6735C108.485 52.8666 107.16 52.6763 106.202 53.2412ZM67.1238 72.6997C66.4769 73.6318 66.5193 74.7587 67.2526 75.5582C67.5516 75.8812 68.0165 76.2072 68.2722 76.2809C69.8549 76.6394 71.496 75.014 71.0869 73.4874C70.8379 72.5582 69.9022 71.8841 68.8123 71.8678C67.6564 71.8692 67.7166 71.8294 67.1238 72.6997ZM128.509 64.1006C127.966 64.6257 127.381 65.3514 127.244 65.7201C126.286 68.1346 128.746 70.7956 131.802 70.6644C132.99 70.6069 133.188 70.5538 133.808 69.9609C134.787 69.0346 134.959 67.5655 134.323 65.7203C134.038 64.9194 133.579 63.999 133.258 63.6818C132.112 62.4 130.18 62.5859 128.509 64.1006ZM132.041 64.6007C132.781 65.4223 133.403 67.1289 133.251 67.8811C132.948 69.2189 131.373 69.5935 129.808 68.6849C128.327 67.8249 128.242 66.4488 129.566 65.0505C130.451 64.1257 131.443 63.9547 132.041 64.6007Z" fill="black"/>
<path d="M192.721 196.74C196.143 196.037 196.193 196.047 196.614 197.618C196.803 198.326 197.029 199.783 197.109 200.876C197.19 201.969 197.276 203.084 197.303 203.361C197.384 204.454 196.45 205.724 193.832 208.109C192.384 209.398 190.271 211.198 189.142 212.093C184.114 216.049 171.479 223.584 171.259 222.766C171.23 222.655 171.564 221.878 171.985 220.982C172.961 218.99 173.09 218.149 172.634 216.445C172.313 215.251 172.316 215.084 172.698 215.1C176.245 215.217 177.99 213.54 177.237 210.73L177 209.845L178.387 210.09C179.131 210.223 180.099 210.224 180.517 210.112C182.344 209.622 185.031 206.175 184.919 204.522C184.828 203.479 184.341 202.542 183.354 201.503C182.926 201.048 182.581 200.643 182.597 200.615C182.636 200.581 183.122 200.284 183.675 199.97C184.25 199.65 185.29 199.039 186.024 198.606C186.937 198.053 187.794 197.728 188.803 197.529C189.613 197.383 191.382 197.028 192.721 196.74Z" fill="black"/>
<path d="M91.8229 85.2657L92.3565 87.2569L91.5529 87.7805C91.11 88.0652 89.6002 88.6831 88.1928 89.1551L85.6584 90.0002L85.4051 88.5267C85.2577 87.7125 85.151 86.6977 85.1764 86.2641C85.2026 85.5693 85.2729 85.4794 86.1096 85.2552C86.6159 85.1195 87.4991 84.7169 88.0462 84.3806C88.6211 84.0605 89.5763 83.6623 90.1767 83.5251L91.2894 83.2744L91.8229 85.2657Z" fill="#FEFFBB"/>
<path d="M99.1037 81.7023C99.2925 82.6714 99.4628 83.8351 99.4873 84.2791C99.5407 85.0948 99.5407 85.0948 98.3899 85.3794C96.925 85.7245 96.4956 85.5313 96.2034 84.3528C95.8045 82.776 95.9874 81.8733 96.9121 81.009C97.3634 80.5798 97.9867 80.1757 98.2729 80.099C98.8013 79.9574 98.8072 79.9795 99.1037 81.7023Z" fill="#FEFFBB"/>
<path d="M103.708 80.3027C104.596 80.1832 105.44 80.0756 105.594 80.0343C105.815 79.9753 105.937 80.3455 106.183 81.7025C106.35 82.6774 106.439 83.6259 106.342 83.794C106.263 84.0285 105.473 84.3353 103.799 84.7837L101.377 85.4326L101.01 83.4443C100.491 80.7141 100.495 80.6418 101.373 80.5725C101.787 80.5327 102.841 80.4162 103.708 80.3027Z" fill="#FEFFBB"/>
<path d="M91.8722 89.8529C91.9679 89.9458 91.9493 90.1405 91.857 90.2364C91.564 90.552 87.3546 92.9841 86.9143 93.1021C86.606 93.1847 85.8109 92.3307 85.6567 91.7554C85.5678 91.4236 91.5631 89.58 91.8722 89.8529Z" fill="#FEFFBB"/>
<path d="M100.887 101.215L103.127 100.591L103.281 101.166C103.548 102.162 104.401 102.882 105.582 103.063C106.176 103.165 106.705 103.379 106.753 103.556C106.8 103.733 106.578 104.575 106.239 105.425C105.922 106.268 105.351 108.01 104.992 109.316L104.349 111.67L103.839 111C103.13 110.028 102.672 110.08 102.101 111.205L101.598 112.146L101.184 111.569C100.797 111.009 100.676 110.994 99.6407 111.271L98.5399 111.566L98.2486 110.743C97.9928 110.053 97.8692 109.944 97.273 110.009L96.5829 110.075L95.7309 106.983C95.2744 105.28 94.7358 103.622 94.5368 103.319L94.1947 102.747L96.4099 102.296C97.6386 102.038 99.6379 101.573 100.887 101.215Z" fill="#545151"/>
<path d="M132.041 64.6007C132.78 65.4223 133.403 67.1289 133.251 67.8811C132.948 69.2189 131.373 69.5935 129.808 68.6849C128.327 67.825 128.242 66.4488 129.566 65.0506C130.451 64.1258 131.443 63.9547 132.041 64.6007Z" fill="#9FA05C"/>
<path d="M130.233 75.3769C130.539 77.9271 130.052 80.0732 128.87 81.1249C128.185 81.7355 125.958 83.1145 125.408 83.262C125.276 83.2974 125.089 83.0393 125 82.7074C124.656 81.4242 125.083 78.4403 126.207 74.1791L126.729 72.1658L128.418 73.1835L130.079 74.1851L130.233 75.3769Z" fill="#9FA05C"/>
<path d="M173.682 87.377C173.857 87.5909 174.127 88.1587 174.258 88.6455C174.572 89.8181 174.096 90.4199 171.635 91.9803C169.147 93.5246 167.168 94.5054 164.102 95.6588C160.993 96.8239 153.42 99.2088 153.174 99.0849C153.069 99.0421 152.741 98.3474 152.433 97.5523L151.888 96.1334L153.041 95.6821C153.684 95.4387 155.981 94.5862 158.179 93.8075C163.388 91.9373 167.428 90.1911 170.164 88.6041C172.863 87.051 173.231 86.9286 173.682 87.377Z" fill="white"/>
<path d="M200.213 205.854C202.267 206.916 202.564 208.378 201.127 210.233C199.354 212.511 189.021 221.682 185.454 224.132C183.225 225.678 177.428 228.701 175.35 229.4C173.838 229.924 173.656 229.949 173.423 229.608C173.298 229.405 172.505 228.384 171.647 227.381C170.352 225.807 170.169 225.477 170.38 225.207C170.52 225.027 171.534 224.494 172.593 224.044C179.686 221.101 192.407 212.214 197.43 206.742C198.064 206.027 198.728 205.422 198.86 205.387C199.015 205.345 199.638 205.558 200.213 205.854Z" fill="#BABABA"/>
<path d="M145.299 224.955C148.292 224.414 148.79 224.423 157.387 225.155C160.456 225.423 164.049 225.622 165.393 225.618C168.235 225.568 168.728 225.649 168.871 226.18C168.924 226.379 169.695 227.406 170.581 228.425C171.452 229.472 172.149 230.4 172.079 230.49C171.805 230.966 169.821 231.664 164.339 233.133L158.284 234.755L152.799 234.541C145.455 234.256 143.886 234.037 142.939 233.057C142.15 232.225 140.73 229.831 140.013 228.126C139.222 226.228 139.626 225.977 145.299 224.955Z" fill="#BABABA"/>
<path d="M126.836 227.033C132.944 226.843 138.02 226.763 138.144 226.873C138.267 226.982 138.666 227.942 139.011 228.964C139.361 230.008 140.052 231.531 140.548 232.323C141.9 234.64 141.927 234.562 140.004 235.314C139.081 235.656 136.463 236.453 134.151 237.072C128.047 238.684 125.443 238.741 121.74 237.339C118.354 236.064 115.444 233.832 114.544 231.797C114.014 230.611 114.477 227.76 115.248 227.553C115.534 227.477 120.756 227.239 126.836 227.033Z" fill="#BABABA"/>
<path d="M169.171 196.126C169.894 196.359 171.484 197.095 172.684 197.698C173.89 198.324 176.228 199.476 177.873 200.244C181.671 202.001 182.914 202.854 183.169 203.805C183.483 204.978 183.215 205.737 182.077 207.038C179.747 209.702 178.568 209.354 169.422 203.315C165.98 201.036 163.714 199.888 162.428 199.759C161.531 199.667 161.647 199.399 163.079 198.399C163.75 197.91 164.748 197.145 165.288 196.692C166.535 195.623 167.395 195.487 169.171 196.126Z" fill="#313E4A"/>
<path d="M161.176 201.161C162.095 201.247 163.412 201.582 164.109 201.893C166.747 203.107 172.747 207.356 174.327 209.115C174.761 209.591 175.291 210.422 175.521 210.929C176.329 212.799 175.057 214.041 172.831 213.571C171.676 213.311 168.668 212.125 164.147 210.135C162.274 209.309 160.023 208.395 159.144 208.108C158.243 207.828 157.496 207.507 157.46 207.374C157.342 206.931 159.128 201.093 159.414 201.017C159.459 201.005 160.25 201.054 161.176 201.161Z" fill="#313E4A"/>
<path d="M154.314 211.395C156.411 211.473 164.121 213.035 166.664 213.895C168.974 214.675 170.678 215.665 171.136 216.491C171.901 217.851 171.337 219.709 169.387 222.295L168.409 223.577L166.772 223.897C165.135 224.217 164.588 224.198 152.16 223.259C147.873 222.938 145.001 223.138 141.632 224.041L139.535 224.579L140.636 222.79C142.301 220.02 147.009 214.869 149.89 212.675C151.237 211.626 152.354 211.303 154.314 211.395Z" fill="#313E4A"/>
<path d="M135.153 203.557C135.326 203.677 135.732 204.398 136.072 205.137C136.925 207.09 139.439 214.005 139.364 214.167C139.31 214.229 138.155 213.969 136.776 213.58C135.398 213.191 133.183 212.764 131.848 212.624C129.587 212.376 128.758 212.1 128.61 211.547C128.497 211.127 128.999 208.597 129.376 207.714C130.197 205.668 134.155 202.829 135.153 203.557Z" fill="#313E4A"/>
<path d="M130.878 214.022C133.081 214.143 135.947 214.798 137.958 215.611C139.673 216.29 142.013 217.536 142.072 217.757C142.096 217.846 141.52 218.688 140.801 219.616C139.676 221.055 138.825 222.635 138.129 224.529C137.988 224.97 137.878 224.999 135.789 225.132C133.889 225.262 127.677 225.503 120.237 225.742C117.103 225.847 117.103 225.847 117.296 223.661C117.659 219.556 118.945 217.836 123.134 215.86C125.854 214.562 128.74 213.884 130.878 214.022Z" fill="#313E4A"/>
<path d="M159.134 209.747C159.996 209.967 160.981 210.296 161.354 210.457L162.029 210.774L161.437 210.766C160.519 210.775 156.532 209.899 156.279 209.658C155.862 209.248 157.506 209.306 159.134 209.747Z" fill="#313E4A"/>
<path fill-rule="evenodd" clip-rule="evenodd" d="M105 43.5565C108.743 43.5256 112.46 45.0671 114.724 47.6144L115.909 48.9567L112.986 54.9569L110.057 60.9349L106.834 63.4349C103.223 66.252 102.375 66.7874 101.485 66.8125C100.191 66.8272 96.7431 64.5261 94.7962 62.3682C94.1806 61.6557 93.9841 61.1867 93.249 58.4432C92.4487 55.4563 92.4233 55.2734 92.7137 53.8914C93.6137 49.5004 96.0295 46.3632 99.8892 44.4753C100.706 44.0903 103.496 43.5801 105 43.5565ZM105.589 56.0614C105.394 55.3313 105.792 53.4699 106.202 53.2413C107.16 52.6764 108.485 52.8667 109.457 53.6735C110.27 54.3329 110.294 55.0379 109.519 56.1943C108.711 57.4067 107.676 57.684 106.536 57.0408C106.089 56.7812 105.661 56.3269 105.589 56.0614Z" fill="#FFE8E8"/>
<path fill-rule="evenodd" clip-rule="evenodd" d="M68.8274 65.9355C71.5837 65.7423 74.1928 66.5846 76.1269 68.3428C77.9095 69.9757 78.8343 71.5775 79.5931 74.4095C79.9369 75.6928 80.169 76.9111 80.1004 77.0955C79.9912 77.4804 80.1233 77.4451 72.8434 78.2812C68.7863 78.728 62.7139 79.6674 61.3049 80.045C59.9398 80.4107 59.7129 80.0921 59.6586 77.6879C59.595 75.0728 60.4061 70.9664 61.2706 69.5254C61.6466 68.903 62.363 68.1419 62.9803 67.7156C64.1768 66.897 66.8831 66.077 68.8274 65.9355ZM67.2527 75.5582C66.5193 74.7588 66.4769 73.6319 67.1239 72.6997C67.7166 71.8295 67.6565 71.8693 68.8124 71.8679C69.9022 71.8841 70.8379 72.5582 71.0869 73.4874C71.496 75.0141 69.8549 76.6394 68.2722 76.281C68.0165 76.2072 67.5516 75.8812 67.2527 75.5582Z" fill="#FFE8E8"/>
<path d="M117.236 52.9407C117.838 56.5972 117.521 59.5515 116.306 61.7979C115.562 63.1593 115.071 63.2669 113.81 62.348C111.995 61.0323 111.977 60.9659 112.656 59.3611C113.839 56.5543 116.701 50.855 116.859 51.0025C116.886 51.0187 117.052 51.8993 117.236 52.9407Z" fill="#FFE8E8"/>
<path d="M66.2122 80.7456C75.5761 79.2326 79.9684 78.9805 80.9694 79.8979C81.6494 80.4983 82.2439 83.4217 82.0069 85.0028C81.7944 86.4114 80.7969 88.149 79.5293 89.3186C78.6046 90.1829 78.3302 90.3038 76.2107 90.8481C74.2673 91.3451 73.6271 91.4218 72.2138 91.255C67.7698 90.7859 63.9625 88.8182 62.0139 85.9493C61.3212 84.9492 60.1618 82.2957 60.2829 81.955C60.3718 81.6703 59.7875 81.7794 66.2122 80.7456Z" fill="#D7DFF4"/>
<path d="M112.837 63.5574C115.331 65.3791 116.68 66.6299 116.84 67.2273C117.024 67.9131 115.708 70.3999 114.267 72.0666C111.646 75.1404 108.331 77.2141 104.248 78.3557C101.898 79.009 101.622 79.0356 100.417 78.7656C98.6785 78.3541 93.7535 76.3539 93.8424 76.0692C94.0041 75.5279 110.09 62.7284 110.876 62.4939C111.074 62.4408 111.957 62.9158 112.837 63.5574Z" fill="#D7DFF4"/>
<path d="M109.329 79.1759C111.29 79.9784 112.687 80.7896 112.806 81.2321C112.865 81.4534 112.608 81.9018 112.172 82.3029C111.312 83.0552 108.118 85.0493 107.457 85.2262C107.061 85.3324 107.076 85.21 107.54 84.3029C108.015 83.3457 108.038 83.0787 107.755 81.4945C107.465 79.7939 107.486 78.816 107.86 78.7157C107.948 78.6921 108.616 78.8927 109.329 79.1759Z" fill="#571621"/>
<path d="M94.8723 84.7569C95.6683 87.1995 95.7522 87.2481 98.2248 86.965C99.2071 86.8441 100.247 86.85 100.581 86.9503C100.97 87.0831 101.836 86.9695 103.318 86.5964C106.858 85.7189 104.211 86.7601 98.6441 88.4415C93.1873 90.0933 93.2093 90.0874 93.6098 88.0593C93.7419 87.4074 93.6995 86.2805 93.5403 85.4221C93.1058 83.096 93.1125 82.857 93.7087 82.7922C94.1668 82.7406 94.2464 82.8615 94.8723 84.7569Z" fill="#571621"/>
<path d="M91.8722 89.8529C91.9679 89.9458 91.9493 90.1405 91.857 90.2364C91.564 90.552 87.3546 92.9841 86.9143 93.1021C86.606 93.1847 85.8109 92.3307 85.6567 91.7554C85.5678 91.4236 91.5631 89.58 91.8722 89.8529Z" fill="#571621"/>
<path d="M114.897 82.7825C115.568 83.5273 115.901 85.1218 115.621 86.4537C115.014 89.296 111.306 92.5423 105.776 95.0674C103.95 95.9125 102.278 96.4552 97.7427 97.6705L92.0183 99.2043L89.2594 98.9476C87.736 98.8104 86.3049 98.5773 86.0814 98.4475C85.6961 98.2425 85.7045 98.0979 86.033 97.2985C86.6478 95.8058 88.1406 94.2439 89.7572 93.4076C90.5743 93.0226 93.7938 91.828 96.9549 90.7675C107.099 87.4093 110.818 85.7013 113.357 83.2898C114.412 82.2957 114.434 82.2898 114.897 82.7825Z" fill="#A2060F"/>
<path d="M169.768 96.1088C170.527 97.0912 173.777 103.761 174.799 106.428C176.058 109.719 176.289 111.198 175.859 113.116C175.099 116.355 172.624 119.009 166.233 123.425C161.256 126.869 159.945 128.051 158.74 130.247C158.167 131.278 157.079 132.945 156.312 133.957C154.459 136.374 153.939 137.343 153.656 139.103C153.303 141.308 153.864 142.699 156.539 146.25C157.684 147.793 158.627 149.201 158.608 149.395C158.565 149.762 157.64 150.271 156.319 150.625L155.394 150.873L153.667 148.656C152.014 146.538 149.923 143.138 149.639 142.076C149.431 141.302 149.017 141.342 149.065 142.135C149.107 143.262 150.317 145.665 152.375 148.765L154.279 151.646L153.575 151.835C152.474 152.13 150.575 151.998 149.388 151.534C147.495 150.808 146.422 149.27 144.716 144.842C143.294 141.12 142.836 141.788 143.963 145.992C144.643 148.442 144.788 148.806 146.187 150.945C147.574 153.04 147.689 153.293 147.442 153.692C147.222 154.106 147.078 154.097 145.795 153.801C143.929 153.352 142.177 152.185 140.505 150.262C139.246 148.821 138.743 147.912 137.203 144.365L136.988 143.83L136.858 144.576C136.67 145.812 137.136 147.726 137.939 149.052C138.333 149.73 139.494 151.244 140.528 152.461C141.941 154.122 142.345 154.749 142.182 154.935C142.052 155.065 141.305 155.36 140.556 155.56C139.279 155.902 139.063 155.889 138.403 155.449C137.363 154.827 135.185 152.423 133.235 149.815C131.473 147.465 130.395 145.644 129.659 143.778C128.308 140.322 129.95 137.819 136.17 133.994C140.426 131.384 142.266 130.061 144.961 127.702C149.062 124.161 151.383 121.286 156.241 113.701C157.188 112.214 158.865 109.844 159.962 108.388C162.221 105.459 162.623 104.758 162.716 103.784C162.854 102.538 162.684 102.607 161.625 104.29C161.018 105.283 159.891 106.628 158.847 107.572L157.106 109.177L156.821 108.115C156.661 107.517 155.953 105.668 155.242 103.985C154.526 102.28 153.991 100.811 154.055 100.699C154.136 100.558 156.598 99.7089 159.513 98.7856C162.449 97.8565 165.412 96.8491 166.115 96.566C166.812 96.2607 167.801 95.9008 168.324 95.7371C169.198 95.479 169.304 95.5218 169.768 96.1088Z" fill="#FFE91F"/>
<path d="M125.897 109.216C129.724 112.933 134.627 119.516 135.22 121.728C135.492 122.746 135.456 122.874 134.324 124.814C132.431 128.143 127.639 133.245 122.081 137.864C117.281 141.878 115.896 142.699 110.474 144.745L107.371 145.932L106.929 146.928C106.696 147.465 105.824 149.145 105.05 150.656C102.492 155.468 102.254 156.955 103.61 159.199C104.887 161.323 105.962 162.34 108.298 163.658C111.633 165.539 112.114 165.837 112.772 166.443C114.285 167.864 113.598 168.997 110.617 169.938C108.946 170.48 108.692 170.501 107.995 170.19C106.874 169.707 104.456 167.462 101.796 164.405C99.3392 161.577 98.2586 159.922 97.808 158.241C97.5353 157.223 97.0475 156.547 96.8384 156.912C96.6394 157.226 97.7988 161.112 98.3755 162.12C98.6558 162.638 100.004 164.41 101.334 166.117C102.681 167.796 103.916 169.409 104.087 169.695C104.367 170.213 104.351 170.241 103.25 170.536C101.929 170.89 101.114 170.753 99.8661 169.973C97.6907 168.635 96.5152 166.626 95.0154 161.645C94.3921 159.583 93.7975 157.892 93.7095 157.916C93.6214 157.94 93.5207 158.797 93.4834 159.802C93.4183 162.025 93.9688 164.344 95.19 167.052C95.6507 168.067 95.9937 168.995 95.9293 169.107C95.7303 169.421 91.2015 166.698 90.2488 165.696C89.651 165.05 89.1598 164.186 88.622 162.884C87.7015 160.593 87.5101 159.174 87.9521 157.917C88.372 156.667 88.1908 156.431 87.4584 157.22C86.3127 158.404 86.3406 159.037 87.5585 163.406C88.6044 167.133 88.6578 167.332 88.2615 167.438C87.601 167.615 86.1597 166.816 85.4187 165.9C84.8132 165.137 84.72 164.878 84.4956 163.159C84.3829 162.122 83.8384 159.826 83.3141 158.046L82.3707 154.789L83.1268 153.472L83.8991 152.126L88.5666 150.876C93.1241 149.655 93.2943 149.585 94.8515 148.528C97.6815 146.584 99.6206 144.309 103.608 138.143C108.672 130.359 109.529 129.418 117.155 123.178L120.289 120.607L119.927 119.257C119.459 117.51 118.053 114.377 116.694 112.037C116.09 111.014 115.581 110.083 115.539 109.928C115.433 109.53 116.097 109.28 120.16 108.239L123.909 107.258L125.897 109.216Z" fill="#FFE91F"/>
<path d="M173.869 151.045C175.01 151.427 176.548 152.058 177.285 152.43L178.618 153.092L177.175 156.775C174.905 162.482 174.482 164.516 174.548 169.43L174.584 171.413L173.052 170.187C171.043 168.591 168.692 167.3 166.388 166.542C164.303 165.892 164.06 165.601 163.742 163.623C163.336 161.052 164.048 159.13 167.685 153.152C168.421 151.935 169.073 150.67 169.106 150.353L169.168 149.791L170.467 150.059C171.188 150.198 172.723 150.64 173.869 151.045Z" fill="#FFE91F"/>
<path fill-rule="evenodd" clip-rule="evenodd" d="M91.9649 23.0037C92.4612 23.5347 93.0972 24.1469 93.3825 24.3313C93.9093 24.7118 93.9033 24.6897 93.4951 23.5186C93.2512 22.8725 92.9455 22.1719 92.7982 21.9742C92.5771 21.6778 92.6754 21.604 93.534 21.3739C94.7009 21.0613 95.1802 21.2648 96.0643 22.4507L96.6816 23.2576L96.4657 22.0112L96.2497 20.7648L97.3565 20.492C100.225 19.7472 101.584 19.9759 101.928 21.2591C102.165 22.1441 102.527 21.9996 102.707 20.9081C102.869 20.1057 102.961 20.0098 103.602 19.9332C104.408 19.8594 107.538 20.1825 107.924 20.3875C108.058 20.4465 108.051 21.302 107.887 22.3655C107.718 23.4068 107.673 24.2962 107.779 24.339C107.869 24.4098 108.415 23.7181 109.002 22.8257C109.589 21.9334 110.167 21.1856 110.277 21.1561C110.415 21.1428 111.422 21.4658 112.546 21.8759L114.596 22.6547L113.89 23.9822C113.199 25.2817 113.096 25.6887 113.042 26.9838C113.003 27.8953 113.488 27.5045 114.726 25.6077L115.9 23.823L116.836 24.4971L117.787 25.1432L117.353 26.5163C117.107 27.27 116.937 27.9559 116.954 28.0223C117.02 28.2657 117.462 27.981 118.151 27.2037C118.53 26.7701 118.983 26.4353 119.161 26.4825C119.934 26.7259 124.281 32.5566 126.104 35.8385C128.081 39.3401 132.249 49.0839 131.964 49.5161C131.893 49.6061 131.302 49.9542 130.633 50.2757C129.027 51.0618 127.273 52.5279 126.715 53.5309C126.174 54.5058 126.472 54.4734 128.068 53.3819C129.423 52.4498 132.894 51.4011 133.024 51.8879C133.232 52.6623 132.91 54.4559 132.421 55.2745C131.933 56.0931 131.692 56.2524 129.678 57.1004C127.004 58.2199 126.321 58.6638 125.255 59.9691C123.042 62.7199 122.697 66.8912 124.469 69.8072C125.627 71.7498 125.64 72.1495 124.64 75.2868C123.519 78.7648 123.132 80.9315 123.341 82.4168C123.486 83.3977 123.382 83.8048 122.543 85.4287C121.658 87.2311 121.31 88.4863 121.383 89.8183C121.52 92.1768 118.201 96.1724 112.685 100.33C109.617 102.622 109.085 102.836 107.575 102.221C106.918 101.97 106.071 101.628 105.687 101.517C105.226 101.38 104.917 101.107 104.822 100.753C104.585 99.8683 103.987 99.2223 103.423 99.2311C103.119 99.2414 101.922 99.4435 100.766 99.706C99.609 99.9685 97.6681 100.299 96.4818 100.451L94.3072 100.701L97.6723 99.61C108.324 96.2105 113.874 92.9686 116.391 88.7134C117.314 87.1381 117.447 86.2251 116.985 84.4994C116.191 81.5346 114.289 79.4593 111.445 78.4429C110.822 78.2305 110.275 77.9503 110.245 77.8396C110.215 77.729 110.689 77.2939 111.284 76.8736C113.938 74.9768 116.509 72.1537 117.722 69.813C118.732 67.8587 118.685 67.0651 117.566 65.4441L116.726 64.2464L117.674 62.2375C118.202 61.1239 118.778 59.6651 118.949 58.9792C119.261 57.5913 119.077 54.4393 118.524 52.2873C117.776 49.4051 117.808 48.7325 118.77 46.6012C119.238 45.5274 120.258 43.523 120.997 42.1394L122.34 39.6689L123.888 39.6335C125.602 39.6011 126.135 39.3873 125.963 38.7456C125.827 38.2368 125.427 38.1541 123.197 38.1113L121.422 38.0892L120.388 39.955C119.82 41.0081 118.756 43.0244 118.029 44.4521L116.699 47.0613L115.654 46.1557C115.092 45.6424 113.681 44.6925 112.507 44.011C109.03 41.9548 105.506 41.5712 101.185 42.7053C96.7814 43.8852 94.0903 46.1714 92.1487 50.462C90.7973 53.4326 90.7796 55.8324 92.0008 59.7736C93.1907 63.5097 93.9478 64.3977 98.5164 67.1811C99.7019 67.9068 100.42 68.4732 100.318 68.6193C100.237 68.7594 99.1744 69.637 97.9856 70.5721L95.7822 72.3007L94.6407 72.1797C92.8455 71.9968 90.6243 70.5763 89.3202 68.7915C88.0897 67.1056 87.6121 66.9965 88.271 68.5747C89.1263 70.622 90.1823 71.833 92.0487 72.898L93.8033 73.8981L92.8769 74.668L91.9505 75.4379L89.6218 74.4968C88.3457 73.9613 86.5656 73.3949 85.6943 73.2252C83.7458 72.8225 83.3131 73.0571 82.4409 74.9981L81.8465 76.3905L81.0208 73.8372C80.1714 71.1955 79.2932 69.4152 78.0678 68.0125C77.1414 66.9328 74.6348 65.3279 73.0665 64.847C69.1169 63.5814 63.523 64.9854 60.1054 68.0828L59.3433 68.7613L58.6828 68.3217C57.5235 67.5178 57.5141 66.6904 58.5878 64.885C60.2949 62.0088 62.5202 60.2743 65.5805 59.4543C68.0244 58.7995 68.5723 58.8187 68.7738 59.5709C68.928 60.1462 68.9779 60.1565 69.6749 59.8512C70.3497 59.5518 70.5276 59.599 71.7572 60.3129C72.4897 60.7569 73.8268 61.608 74.7448 62.2157C75.6407 62.8293 76.3435 63.1627 76.2961 62.9857C76.1538 62.4547 74.0105 60.4442 72.1331 59.0739C70.6986 58.0355 70.3997 57.7125 70.1922 56.9381C69.8441 55.7271 68.844 54.5486 67.4806 53.7757L66.3467 53.1547L66.5346 50.6856C66.6209 49.3345 66.6488 48.1176 66.5692 47.9967C66.3762 47.7164 65.3262 50.8434 64.9037 52.8773L64.5989 54.3818L66.0986 55.0471C68.3732 56.0501 69.95 57.6195 68.6662 57.5841C65.7947 57.5236 64.472 57.7831 62.1247 58.8863C61.5379 59.1621 61.5582 59.0619 62.4634 58.0368C63.8123 56.4659 64.3813 55.5072 64.2509 55.0205C64.1916 54.7992 63.7276 54.2122 63.1991 53.7372C61.8993 52.4967 61.6426 51.451 62.21 49.7813C62.4826 48.9494 63.0152 48.119 63.7096 47.3638C65.5394 45.4744 65.1287 45.0865 63.0914 46.8181C60.2098 49.2739 59.6103 52.2327 61.5386 54.5853C62.4769 55.7093 62.5455 56.1414 61.9324 56.4954C61.6259 56.6724 61.095 57.5972 60.5708 58.8996C60.1051 60.0678 59.4269 61.4115 59.0653 61.9115C58.6978 62.3893 58.1686 63.4085 57.8663 64.1298C57.57 64.8732 57.238 65.4838 57.1279 65.5133C56.5555 65.6667 55.3579 58.7313 55.5729 56.5395C55.821 54.0306 57.0233 50.7679 58.9844 47.2545L60.7744 44.0716L62.3224 44.0362C63.1743 44.0451 64.2065 43.9345 64.6028 43.8283L65.3235 43.6115L64.6765 43.3106C64.331 43.166 63.5655 43.0392 62.9956 43.0259L61.9616 43.0421L62.3257 42.3754C62.9032 41.2721 66.5232 37.4329 66.8086 37.6172C66.8865 37.6438 67.1964 38.2721 67.5301 38.989C68.3981 40.8195 68.6953 40.4315 68.2109 38.0952L67.823 36.2072L69.8459 34.598L71.8469 32.9948L72.4354 33.4299C72.9622 33.8105 73.0553 34.0701 73.3382 35.6542C73.627 37.2605 73.6965 37.4316 73.9335 37.0835C74.2409 36.6454 74.4966 34.253 74.3128 33.5671C74.2417 33.3016 73.9749 32.9225 73.7395 32.7485C73.0891 32.2588 73.1255 32.1304 73.9579 31.362C75.3297 30.1408 75.8996 30.154 77.4891 31.5066C77.8261 31.7958 77.8185 31.6792 77.4476 30.7352C76.92 29.3827 77.0385 29.2086 79.5873 27.6245C81.8076 26.2234 82.0117 26.1924 82.2251 26.9889C82.3318 27.3871 82.6884 27.837 83.1414 28.1188L83.8798 28.5849L83.5225 27.7795C83.1058 26.7529 83.1786 25.8797 83.7561 25.393C84.1812 25.042 89.5888 22.5022 90.5677 22.1925C90.936 22.0701 91.2714 22.2648 91.9649 23.0037ZM74.5325 46.1001C75.3276 44.4879 76.1727 42.8861 76.4157 42.5601C77.0042 41.7622 77.5106 41.6265 77.3565 42.2844C77.1982 43.0145 75.1923 48.0338 74.431 49.6843C74.0525 50.4734 73.8324 51.1489 73.8942 51.2035C73.978 51.2521 75.7546 49.7801 77.8283 47.9202C82.9183 43.4025 83.8083 42.7609 86.4774 41.7138C88.9382 40.7698 90.0966 40.6017 89.8146 41.2227C89.73 41.4351 89.1889 41.7935 88.6562 42.0073C86.8941 42.7404 84.916 44.0766 82.1428 46.4085C76.3237 51.2876 75.7182 51.7581 74.36 52.5015C73.1719 53.1755 72.7316 53.2935 71.4834 53.3908C69.3131 53.5692 66.8107 53.1252 66.6507 52.5278C66.627 52.4393 67.1452 52.3479 67.7752 52.3214C69.3274 52.2137 70.988 51.3657 72.176 50.0751C72.6858 49.5116 73.7434 47.7343 74.5325 46.1001ZM90.6083 46.2981C91.3254 42.8098 94.4246 39.2286 98.0692 37.6829C100.973 36.4544 104.49 36.1049 107.587 36.7451C109.508 37.1316 113.881 39.8014 115.455 41.5375C117.288 43.5362 117.143 44.0494 115.226 42.3576C111.968 39.5314 107.746 37.8646 104.369 38.0341C102.319 38.1329 98.7306 39.0945 97.0819 39.9868C94.4416 41.4057 92.4864 43.7081 91.2383 46.8881C90.5567 48.6596 90.1858 48.3321 90.6083 46.2981ZM56.9717 53.1294C57.1834 52.5984 57.8405 51.616 58.3985 50.9685C59.9684 49.0777 60.1039 49.2311 59.1734 51.9229C58.5841 53.5985 58.6264 54.1088 59.3936 54.9466C59.6926 55.2696 59.917 55.7549 59.9119 56.0883C59.9331 56.96 58.486 59.2211 57.6206 59.6901C56.585 60.2284 56.59 59.8951 57.5951 58.2741C58.5139 56.7711 58.53 56.7431 57.2656 55.0188L56.5907 54.0851L56.9717 53.1294Z" fill="#FFE91F"/>
<path fill-rule="evenodd" clip-rule="evenodd" d="M133.98 54.9279C133.976 55.6167 133.786 56.7583 133.572 57.456L133.158 58.7289L135.049 60.8544C137.257 63.3693 138.093 64.9947 138.32 67.163C138.513 68.9374 138.293 69.9684 137.545 70.7855C136.666 71.7324 133.278 72.4742 131.375 72.1541C129.938 71.8989 127.596 70.8192 126.495 69.881C124.586 68.3057 124.27 64.5725 125.815 61.6211C126.639 60.0252 127.368 59.4028 129.966 58.0901C131.172 57.4825 132.365 56.7362 132.641 56.4485C133.227 55.8173 133.896 54.2626 133.766 53.7759C133.718 53.5989 133.761 53.4927 133.851 53.5635C133.934 53.6122 134 54.211 133.98 54.9279ZM127.244 65.7202C127.381 65.3514 127.966 64.6257 128.509 64.1006C130.18 62.5859 132.112 62.4001 133.258 63.6819C133.579 63.999 134.038 64.9194 134.323 65.7203C134.959 67.5655 134.787 69.0346 133.808 69.9609C133.188 70.5538 132.99 70.6069 131.802 70.6644C128.746 70.7956 126.287 68.1347 127.244 65.7202Z" fill="#FFE91F"/>
<path d="M86.8401 75.1236C90.3018 76.3302 96.1051 78.8777 96.2279 79.2479C96.3939 79.8674 95.4243 80.388 92.7662 81.124C91.3571 81.5015 89.6695 82.0723 89.0386 82.3599C86.7235 83.4071 84.6116 84.0678 84.3643 83.8495C84.2347 83.7182 83.7427 82.4984 83.2371 81.1399L82.3572 78.6487L83.0473 77.3492C83.4216 76.6324 83.8365 75.715 83.9457 75.33C84.0769 74.9391 84.3361 74.5852 84.5342 74.5321C84.7103 74.4849 85.7494 74.7519 86.8401 75.1236Z" fill="#FFE91F"/>
<path d="M127.48 141.635C127.616 141.788 127.641 143.204 127.586 144.76C127.394 149.151 128.307 152.558 130.183 154.451C131.152 155.424 132.081 155.721 133.683 155.623C134.871 155.566 134.977 155.609 135.299 156.281C136.28 158.271 142.183 177.13 142.734 180.066C143.16 182.275 143.081 182.771 142.314 183.166C141.985 183.349 138.944 184.33 135.517 185.367L129.302 187.269L127.953 186.374C126.302 185.322 124.345 183.214 122.956 181.025C122.387 180.134 120.906 177.425 119.674 175.028C118.414 172.615 116.278 168.871 114.911 166.676C110.714 159.905 110.449 159.359 108.939 154.428C107.647 150.221 107.588 150 107.803 149.041C108.204 147.369 108.371 147.111 109.48 146.671C110.463 146.289 119.958 143.413 125.026 141.984C126.841 141.45 127.321 141.393 127.48 141.635Z" fill="#E43D19"/>
<path d="M142.205 185.756C142.392 186.014 143.278 188.528 144.175 191.346C148.551 204.947 149.884 208.953 150.148 209.499C150.407 210.023 150.364 210.129 149.394 210.911C148.832 211.369 147.352 212.714 146.118 213.922C144.879 215.108 143.714 216.132 143.515 216.185C142.547 216.445 141.472 214.812 139.808 210.539C138.058 206.123 136.549 201.547 134.456 194.354L132.564 187.818L137.231 186.567C141.855 185.328 141.899 185.317 142.205 185.756Z" fill="#E43D19"/>
<path d="M131.111 149.459C131.975 150.746 132.984 152.135 133.351 152.535C134.232 153.532 134.229 153.699 133.37 153.929C132.38 154.194 131.108 153.586 130.515 152.607C130.03 151.765 128.695 147.048 128.872 146.739C129.033 146.459 129.344 146.827 131.111 149.459Z" fill="#E43D19"/>
<path d="M106.339 152.208C107.584 155.977 108.703 158.831 109.625 160.599C110.261 161.828 110.712 162.893 110.642 162.983C110.365 163.271 108.412 162.324 107.445 161.445C105.1 159.298 104.11 157.453 104.406 155.738C104.604 154.452 105.578 152.364 106.019 152.246C106.195 152.199 106.333 152.186 106.339 152.208Z" fill="#E43D19"/>
<path d="M144.718 235.996C145.952 235.76 147.587 235.606 148.345 235.617L149.7 235.656L150.323 237.98L150.939 240.281L150.235 240.469C145.737 241.651 133.129 244.531 131.717 244.72C129.52 244.976 128.887 244.814 128.254 243.774C127.634 242.779 127.413 240.988 127.837 240.542C128.212 240.181 141.432 236.591 144.718 235.996Z" fill="#9385B9"/>
<path d="M189.97 223.372C190.465 223.548 191.248 224.974 191.32 225.856C191.372 226.316 191.365 227.172 191.304 227.734L191.206 228.78L184.88 230.356C181.405 231.216 175.723 232.644 172.271 233.498L166.011 235.057L167.09 238.467L168.19 241.871L165.205 242.529C163.558 242.899 160.578 243.579 158.551 244.027C156.529 244.498 154.628 244.888 154.346 244.893L153.782 244.902L152.732 240.63C152.12 238.257 151.68 236.264 151.728 236.18C151.777 236.096 152.745 236.098 153.896 236.168C157.451 236.401 160.39 235.922 166.409 234.167C174.398 231.837 180.993 228.884 186.568 225.209L186.741 225.094C189.516 223.256 189.561 223.226 189.97 223.372Z" fill="#9385B9"/>
<path d="M158.713 135.519C160.031 137.181 161.804 140.714 162.435 142.892C163.283 145.795 163.164 146.23 158.863 155.279C154.76 163.919 153.684 166.508 153.256 168.875C152.898 170.797 153.189 171.881 155.688 178.302C159.403 187.764 160.897 190.873 162.928 193.435C163.817 194.549 164.006 194.901 163.886 195.337C163.758 195.916 162.174 197.313 160.026 198.719C159.282 199.202 158.422 199.955 158.131 200.365C157.839 200.775 157.142 202.574 156.538 204.372C155.322 208.113 154.942 208.807 153.824 209.391C152.608 210.049 152.064 209.958 151.683 209.064C150.836 207.133 146.357 193.323 144.961 188.29L143.939 184.651L144.338 183.501L144.738 182.35L143.227 176.447C142.406 173.205 141.106 168.621 140.34 166.289C139.551 163.963 138.544 160.818 138.047 159.315L137.173 156.585L138.078 157.054C138.569 157.302 139.576 158.242 140.305 159.113C141.797 160.895 143.238 161.956 144.503 162.186C146.833 162.605 155.276 159.062 156.337 157.213C156.643 156.68 156.612 156.475 156.11 155.044C155.674 153.857 155.594 153.381 155.755 153.1C155.861 152.882 156.747 152.313 157.701 151.82C158.654 151.327 159.688 150.695 159.993 150.423C160.482 149.96 160.503 149.86 160.16 148.932C159.939 148.375 158.911 146.824 157.863 145.469C156.284 143.449 155.834 142.74 155.424 141.474C154.868 139.75 154.916 139.05 155.753 137.331C156.245 136.346 157.47 134.666 157.778 134.583C157.866 134.56 158.283 134.97 158.713 135.519Z" fill="#F2E8E2"/>
<path d="M165.729 244.309C165.952 244.439 169.549 255.308 170.53 258.792C170.583 258.991 170.846 259.181 171.128 259.177C171.92 259.226 173.451 260.096 174.24 260.928C175.335 262.105 175.927 264.579 175.543 266.318C175.009 268.903 173.358 270.318 169.858 271.256L167.656 271.846L166.612 271.295C165.111 270.536 163.53 268.778 163.186 267.494C162.866 266.3 163.042 265.28 163.935 262.978C164.838 260.625 164.853 260.503 164.218 258.136C163.632 255.945 160.852 247.774 160.183 246.246L159.82 245.418L162.623 244.785C164.182 244.439 165.589 244.228 165.729 244.309Z" fill="url(#paint0_linear_19_390)"/>
<path d="M202.575 120.968C200.617 129.247 196.595 141.185 194.406 145.257C193.913 146.148 192.818 147.698 191.951 148.69C191.09 149.703 190.28 150.821 190.143 151.19C189.893 152.016 189.979 154.364 190.353 155.758L190.631 156.798L189.542 157.753C187.435 159.575 186.258 162.404 186.467 165.122C186.529 165.793 187.679 170.702 189.03 176.008C191 183.803 191.756 186.446 192.943 189.733C194.014 192.671 194.38 193.948 194.286 194.305C194.185 194.806 194.031 194.848 190.356 195.666C186.776 196.483 186.43 196.6 185.013 197.477C182.749 198.89 180.879 199.486 179.53 199.207C178.937 199.106 176.528 198.044 174.156 196.853C169.937 194.759 169.336 194.54 166.725 194.22C165.434 194.068 165.406 194.052 164.032 192.357L162.629 190.646L163.713 188.174C164.314 186.804 164.969 185.111 165.183 184.413C165.626 182.895 165.862 179.726 165.601 178.752C165.506 178.398 165.5 178.02 165.592 177.925C165.662 177.835 166.804 177.956 168.075 178.208C171.738 178.934 172.02 178.929 172.908 178.193C176.157 175.521 184.018 163.028 184.975 159.025L185.262 157.809L183.732 156.061C180.243 152.111 176.577 149.964 170.904 148.519L169.181 148.08L167.622 142.261C166.769 139.075 166.052 136.137 166.023 135.765L165.977 135.066L167.439 135.149C170.112 135.262 178.447 132.816 180.186 131.377C180.437 131.168 180.995 129.904 181.391 128.565C181.815 127.242 182.249 126.13 182.359 126.1C182.733 126 183.167 126.476 183.769 127.666C184.091 128.339 184.585 129.037 184.882 129.265C185.409 129.646 185.431 129.64 186.629 128.916C187.302 128.522 189.59 126.842 191.739 125.175C197.226 120.907 199.566 119.426 202.174 118.68L203.181 118.386L202.575 120.968Z" fill="#757575"/>
<path d="M182.975 157.64C183.148 158.02 183.302 158.595 183.319 158.923C183.329 159.75 181.946 162.516 179.058 167.416C176.756 171.329 176.545 171.599 176.331 171.063C175.914 170.037 175.97 166.37 176.45 163.846C176.879 161.573 178.411 157.25 179.498 155.228L179.926 154.449L181.276 155.7C182.029 156.399 182.809 157.281 182.975 157.64Z" fill="#413A3A"/>
<path d="M165.996 168.07C168.27 168.457 174.019 172.299 174.387 173.671C174.535 174.224 173.928 175.217 172.624 176.515C171.663 177.507 171.873 177.498 167.822 176.473C166.35 176.085 163.748 175.621 162.018 175.42C158.488 175.014 156.595 174.644 156.247 174.311C155.678 173.775 158.977 170.235 161.364 168.837C162.71 168.049 164.271 167.797 165.996 168.07Z" fill="#413A3A"/>
<path d="M139.831 53.3365C145.918 55.0963 147.672 55.7409 150.899 57.39C155.135 59.551 157.039 60.8431 157.986 62.178C158.406 62.7768 160.639 66.3522 162.946 70.1209C165.248 73.8674 168.238 78.6862 169.593 80.8368C170.948 82.9874 172.09 84.958 172.117 85.2353C172.183 85.8341 171.419 86.4182 168.717 87.7825C164.968 89.6408 156.466 92.9623 152.987 93.8944C151.336 94.3368 151.032 94.3472 150.833 94.0448C150.292 93.1701 144.864 80.1356 142.845 74.8905C141.778 72.1411 142.341 70.5437 145.38 67.6189C147.332 65.7442 147.099 65.4035 145.068 67.1572C143.167 68.7811 141.969 70.4773 141.691 71.9036C141.489 73.001 141.538 73.2724 142.34 75.7371C143.412 79.0308 146.258 86.3069 149.263 93.4695C155.584 108.517 155.84 109.208 155.301 111.249C154.85 112.911 152.883 116.403 151.142 118.624C149.449 120.761 145.757 124.596 142.705 127.382C140.294 129.569 139.775 129.922 139.638 129.413C139.603 129.28 139.066 127.717 138.476 125.954C136.635 120.495 134.259 116.294 130.615 112.03C128.174 109.175 126.396 107.469 121.64 103.456C119.472 101.618 117.539 99.9542 117.336 99.7241C116.981 99.3686 117.11 99.1444 118.848 97.0898C121.572 93.87 122.327 92.4585 122.917 89.2887C123.515 86.2355 123.709 85.9936 126.983 84.1205C131.05 81.7739 132.134 79.9184 131.753 75.9418L131.577 74.1394L133.258 73.8076C136.151 73.2457 137.514 72.7855 138.216 72.1469C139.979 70.5362 140.343 68.6365 139.484 65.4284C138.861 63.1053 137.898 61.5373 136.007 59.6729L134.902 58.546L135.151 57.009C135.308 56.1845 135.393 54.7391 135.382 53.8172C135.333 52.6682 135.407 52.1505 135.623 52.1638C135.795 52.1888 137.707 52.7199 139.831 53.3365Z" fill="#252525"/>
<path d="M166.051 65.5898C168.825 66.6961 173.131 68.4117 175.582 69.3675C178.054 70.3175 180.439 71.291 180.88 71.5285L181.701 71.9489L179.197 72.6435L176.709 73.3102L174.636 75.5255C172.362 77.9607 171.442 78.7527 170.649 78.9651C170.143 79.1007 169.99 78.881 167.921 75.4752C162.26 66.0602 160.794 63.5837 160.882 63.5601C160.948 63.5424 163.271 64.4614 166.051 65.5898Z" fill="#252525"/>
<path d="M179.144 79.8429C184.797 85.4421 189.393 90.969 195.255 99.2865C199.285 104.989 200.173 106.103 203.071 109.168C205.602 111.833 207.774 114.215 207.822 114.392C207.917 114.746 206.711 115.354 203.317 116.69C197.084 119.143 196.575 119.445 190.532 124.194C188.291 125.957 186.254 127.427 186 127.448C185.658 127.492 185.309 127.159 184.626 126.109C183.524 124.46 182.963 124.041 182.149 124.259C181.466 124.442 180.672 125.793 179.987 127.992C179.128 130.688 179.407 130.495 173.51 132.265L168.305 133.802L166.696 133.522C165.809 133.38 163.946 133.12 162.527 132.932C161.113 132.765 159.902 132.473 159.811 132.308C159.72 132.142 159.874 131.484 160.134 130.869C160.748 129.377 162.082 128.189 166.926 124.781C169.013 123.321 171.43 121.511 172.319 120.775C176.426 117.256 178.132 113.408 177.361 109.298C177.005 107.354 176.208 105.434 173.393 99.5957C171.744 96.1722 171.236 94.9804 171.311 94.5571C171.392 94.1559 171.816 93.7105 172.784 93.0954C174.609 91.8949 175.496 91.0645 175.754 90.355C176.208 89.1426 175.077 86.5053 172.4 82.5036L171.245 80.7498L172.472 79.7808C173.154 79.2424 174.139 78.3383 174.687 77.7409C175.219 77.1716 175.702 76.6864 175.768 76.6687C175.834 76.651 177.347 78.0714 179.144 79.8429Z" fill="#252525"/>
<path d="M116.335 101.273C117.499 102.004 121.909 105.518 121.986 105.806C122.01 105.894 120.228 106.466 118.004 107.062L113.975 108.142L112.22 106.17C111.249 105.102 110.452 104.153 110.435 104.087C110.363 103.821 114.212 101.012 114.977 100.783C115.169 100.708 115.776 100.948 116.335 101.273Z" fill="#252525"/>
<path d="M167.903 164.908C168.213 164.939 168.559 165.036 168.663 165.124C169.15 165.547 169.256 165.164 168.952 164.105C168.747 163.37 168.425 163.06 168.069 163.264C167.801 163.405 167.279 164.375 167.311 164.676C167.33 164.783 167.591 164.898 167.903 164.908Z" fill="#9B3636"/>
<path d="M166.831 162.861C168.253 162.091 168.674 162.211 170.008 163.752C170.839 164.721 170.974 164.768 171.415 164.288C171.628 164.059 171.56 163.95 170.151 162.3C168.843 160.781 168.623 160.581 168.284 160.657C167.853 160.75 167.122 161.649 166.815 162.454L166.613 162.983L166.831 162.861Z" fill="#9B3636"/>
<path d="M169.779 160.703C170.278 161.147 170.758 161.569 170.852 161.614C171.371 161.973 172.712 161.436 173.095 160.72C173.211 160.488 173.062 160.44 172.217 160.414C171.243 160.363 171.149 160.317 170.192 159.452C168.969 158.343 168.647 158.204 167.988 158.462C167.436 158.681 165.8 160.13 165.635 160.553C165.495 160.913 166.462 160.707 167.076 160.233C167.882 159.616 168.709 159.77 169.779 160.703Z" fill="#9B3636"/>
<path d="M168.187 157.812C169.935 157.561 170.404 157.755 171.729 159.266C172.555 160.215 172.704 160.284 173.28 160.02C173.557 159.895 173.494 159.794 172.097 158.181C170.798 156.693 170.572 156.485 170.17 156.461C169.66 156.43 168.691 156.947 168.225 157.493L167.918 157.853L168.187 157.812Z" fill="#9B3636"/>
<path d="M171.89 156.858C172.404 157.321 172.899 157.763 173.001 157.821C173.551 158.223 175.173 158.133 175.715 157.672C175.881 157.521 175.715 157.449 174.744 157.225C173.627 156.949 173.525 156.891 172.54 155.992C171.282 154.841 170.93 154.657 170.133 154.696C169.466 154.732 167.376 155.455 167.126 155.742C166.915 155.985 168.06 156.06 168.834 155.843C169.85 155.561 170.784 155.88 171.89 156.858Z" fill="#9B3636"/>
</g>
</g>
<defs>
<linearGradient id="paint0_linear_19_390" x1="161.374" y1="252.898" x2="169.403" y2="250.277" gradientUnits="userSpaceOnUse">
<stop stop-color="#C0B9BD"/>
<stop offset="1" stop-color="#B79BAC" stop-opacity="0"/>
</linearGradient>
<clipPath id="clip0_19_390">
<rect width="317" height="301" fill="white"/>
</clipPath>
<clipPath id="clip1_19_390">
<rect width="137" height="275" fill="white" transform="translate(42.7466 22.4143) rotate(-15)"/>
</clipPath>
</defs>
</svg>
