<svg width="317" height="301" viewBox="0 0 317 301" fill="none" xmlns="http://www.w3.org/2000/svg">
<g clip-path="url(#clip0_19_388)">
<path d="M103.883 23.8912C102.108 25.8942 102.149 25.7028 102.469 29.6849C102.678 32.155 102.672 33.4992 102.499 34.0347C102.174 34.9404 101.163 35.5783 97.5151 37.0746C94.7575 38.2059 94.664 38.1968 94.4195 36.5658C94.2973 35.7503 94.411 35.4322 95.5169 33.7378C97.0912 31.3247 97.485 30.1076 97.1158 29.028C96.8392 28.2588 95.0527 26.4884 94.8421 26.7747C94.8072 26.8495 95.0532 27.4148 95.4188 28.0085C95.8069 28.5988 96.0767 29.3227 96.0498 29.6047C96.0195 29.864 95.371 31.0729 94.5838 32.2795C92.6873 35.1578 92.5771 35.4986 92.9885 37.4751L93.2972 39.0732L92.0453 39.7936C91.3456 40.1996 90.3269 40.6302 89.7667 40.7373L88.7332 40.9153L88.6153 39.8212C88.4987 38.8891 88.6544 33.4692 88.825 32.1466C88.862 31.9326 88.7898 31.7582 88.6771 31.7751C88.384 31.819 87.4426 35.2258 86.9854 37.8652C86.6271 39.9339 86.6397 40.3258 87.2235 42.068C87.3195 42.4011 87.0672 42.7168 86.1185 43.4612C85.064 44.2677 84.7169 44.4124 83.734 44.467C83.1186 44.513 82.3059 44.4726 81.9474 44.3874C81.3048 44.2521 81.2721 44.1875 81.0446 42.6698C80.6576 40.0874 79.667 36.5533 79.0634 35.6015C78.5477 34.7755 77.4112 34.112 77.1656 34.473C77.1082 34.5511 77.4287 35.1516 77.8529 35.8292C78.6584 37.0518 78.6584 37.0518 79.0914 41.017L79.5209 44.9595L80.2403 45.4539C80.626 45.7204 81.2371 45.953 81.5854 45.9703C81.9562 45.9842 82.2922 46.0728 82.37 46.1307C82.4839 46.2757 78.5926 49.6845 77.5436 50.3745C76.2794 51.1661 75.8935 50.4365 76.3463 48.0757C76.6621 46.3376 76.3784 45.0599 75.3835 43.9583C74.7203 43.2239 73.17 42.414 73.2311 42.8217C73.2481 42.935 73.6417 43.4087 74.0873 43.921C75.1633 45.103 75.3127 46.0998 74.7323 48.2249C74.1677 50.3014 74.2356 50.7544 75.2505 51.5288L76.0839 52.1682L74.4385 54.5688C71.5779 58.7033 70.3373 61.3443 69.6799 64.8012C69.3822 66.3513 69.3994 66.9278 69.9169 70.9961L70.4696 75.4528L71.7105 77.1197L72.9514 78.7867L72.4081 80.6978C70.6803 86.7007 71.1866 92.6931 73.7282 96.2727C75.3967 98.6399 78.0185 100.447 81.3409 101.547C85.6296 102.943 88.3978 102.806 92.0883 100.979C92.8174 100.615 93.5532 100.296 93.7336 100.269C94.0266 100.225 95.6818 102.965 96.2869 104.542C96.6978 105.592 96.6169 105.975 95.5347 107.828C95.1879 108.436 94.9257 109.147 94.9665 109.418C95.1023 110.324 96.3256 110.952 99.2612 111.624C102.91 112.443 103.04 112.54 102.83 114.215C102.742 114.854 102.851 115.278 103.211 115.988C103.564 116.653 103.838 117.863 104.215 120.377L104.734 123.843L106.008 124.81C107.004 125.61 107.399 125.783 108.007 125.692C108.571 125.607 108.94 125.76 109.728 126.407L110.731 127.252L111.477 126.7C112.058 126.266 112.344 126.177 112.777 126.297C113.885 126.617 114.814 125.436 116.296 121.786C117.211 119.588 117.72 118.677 118.148 118.613C118.847 118.509 121.062 121.141 122.865 124.252C124.593 127.167 125.686 129.852 126.224 132.365L126.699 134.61L123.137 136.835C116.771 140.8 114.856 142.476 109.958 148.398C108.278 150.411 106.357 152.667 105.664 153.42C103.863 155.403 100.648 158.248 99.5822 158.824C98.9399 159.152 97.1863 159.6 94.2762 160.175C88.189 161.389 87.6131 161.544 86.855 162.33C85.6361 163.578 85.4934 164.317 85.7649 167.82C85.891 169.585 86.1688 172.207 86.386 173.656C86.7561 176.126 86.8351 176.345 87.6857 177.561C88.1618 178.277 88.9254 179.066 89.3336 179.329C90.0169 179.736 90.3201 179.76 91.853 179.531L93.5887 179.271L95.1257 180.453C97.4149 182.194 98.4827 182.706 99.497 182.554C100.196 182.449 100.587 182.599 101.711 183.334C103.97 184.871 105.155 185.088 107.19 184.366C108.373 183.957 108.489 183.963 109.379 184.362C111.437 185.327 113.508 185.156 116.112 183.77C116.819 183.409 117.397 183.114 117.442 183.107C117.577 183.087 118.234 184.702 119.807 188.89C122.758 196.74 124.84 200.481 127.386 202.555C128.726 203.651 129.696 203.969 131.071 203.763L131.679 203.671L132.659 210.519L133.617 217.37L132.193 217.862C127.9 219.362 125.872 221.519 125.122 225.43C124.991 226.098 124.804 226.844 124.673 227.049C124.553 227.322 123.425 227.792 121.138 228.528C116.854 229.935 115.663 230.599 114.275 232.406C113.192 233.795 113.005 234.24 112.162 237.378C111.804 238.682 111.642 238.984 110.881 239.446C109.912 240.054 108.889 241.528 108.582 242.709C107.611 246.537 111.914 251.566 117.943 253.651C118.987 254.004 119.996 254.431 120.158 254.592C120.398 254.811 120.528 255.371 120.595 256.588C120.714 258.609 121.421 260.402 122.373 261.07C122.759 261.336 123.476 261.507 124.353 261.514C126.523 261.537 134.125 260.745 139.828 259.89L145.058 259.106L145.372 259.661C145.554 259.958 145.746 260.624 145.824 261.145C146.068 262.614 146.615 263.806 147.25 264.197C147.755 264.492 148.077 264.49 149.77 264.097C151.489 263.724 151.763 263.706 151.997 264.042C152.258 264.396 153.071 267.818 154.565 274.867C155.474 279.085 155.497 278.78 154.121 281.442C153.079 283.404 152.647 285.137 152.854 286.519C153.058 287.878 154.507 289.861 156.304 291.236C157.578 292.203 157.947 292.356 159.111 292.437C161.272 292.553 163.934 291.552 165.917 289.865C167.409 288.599 168.984 284.958 168.746 283.372C168.431 281.266 166.985 279.004 165.249 277.875L164.073 277.101L163.388 273.915C162.582 270.075 161.692 264.14 161.799 263.314C161.86 262.795 162.007 262.704 162.944 262.494L164.038 262.26L163.39 258.86L162.723 255.486L168.334 254.784C171.41 254.392 176.885 253.711 180.502 253.238L187.105 252.388L187.833 251.097C188.835 249.326 188.807 247.755 187.633 244.225L187.392 243.543L193.203 239.407C196.387 237.123 199.432 234.837 199.95 234.296C201.054 233.204 201.404 232.156 201.191 230.728C201.007 229.505 200.246 228.577 198.554 227.441C197.07 226.459 197.024 226.304 197.119 222.63C197.164 220.469 197.164 220.469 196.164 217.794C194.684 213.916 194.394 212.755 192.92 204.916C191.167 195.682 190.273 187.872 190.753 185.692C191.121 183.993 192.052 182.672 193.751 181.398C194.457 180.876 195.138 180.195 195.293 179.847C195.452 179.522 195.53 178.352 195.503 177.245C195.385 174.46 195.518 174.116 197.09 172.768C200.909 169.486 206.125 159.695 211.218 146.309C211.906 144.445 212.706 142.704 212.965 142.434C213.22 142.141 214.052 141.692 214.817 141.415C217.203 140.571 217.736 139.819 217.207 138.138C217.072 137.695 215.546 135.515 213.805 133.275C210.542 129.039 209.459 127.348 207.17 122.99C202.95 114.983 197.894 107.079 193.148 101.096C190.534 97.8053 190.019 96.9793 190.287 96.6149C190.383 96.4847 192.02 96.0309 193.897 95.6338C195.773 95.2368 197.372 94.835 197.468 94.7048C198.004 93.976 195.768 92.435 189.039 88.9039C179.105 83.676 178.701 83.4355 171.66 78.2836C164.148 72.7621 165.612 73.6082 153.684 68.1463C149.579 66.2833 149.774 66.5088 148.814 62.7154C146.819 54.792 144.369 48.7437 140.899 43.1259C140.008 41.6382 139.244 40.3862 139.234 40.3182C139.2 40.0917 140.093 40.0505 140.262 40.2568C141.274 41.4717 146.732 41.1399 147.96 39.7979C148.398 39.3385 148.373 39.3192 146.508 39.6449C144.731 39.9344 144.476 39.9263 143.083 39.394C142.229 39.0818 141.534 38.746 141.517 38.6328C141.5 38.5195 141.926 38.1314 142.493 37.7684L143.478 37.1112L142.228 37.2291C137.754 37.6681 135.879 37.4627 134.546 36.4117L133.92 35.9265L134.758 35.5229C135.722 35.0311 138.07 33.0116 138.573 32.2182C139.057 31.4508 138.632 31.5376 136.938 32.5328C135.33 33.4917 133.179 33.9067 131.133 33.6343C129.697 33.4326 125.288 32.31 125.403 32.1538C125.441 32.1018 126.29 32.2293 127.31 32.4238L129.138 32.7753L130.315 31.0934C131.645 29.2033 133.251 25.9285 133.055 25.541C132.99 25.4118 131.941 26.5649 130.77 28.1302L128.589 30.9584L126.895 30.7259C125.433 30.5049 124.543 30.5688 120.682 31.1012C116.118 31.7156 114.964 31.7033 115.555 31.0357C115.712 30.8501 116.869 30.4218 118.15 30.0447C119.411 29.6935 120.738 29.1703 121.094 28.9317C121.985 28.2654 122.278 26.8319 122.02 24.3459L121.805 22.2937L121.47 24.0578C121.021 26.4413 120.739 27.1783 120.165 27.4961C119.465 27.902 115.479 28.9858 115.053 28.9107C114.788 28.8346 114.643 28.4857 114.524 27.6929C114.27 25.9939 113.164 23.8435 112.228 23.289C111.515 22.8399 111.011 22.707 111.052 22.9788C111.062 23.0468 111.392 23.5533 111.773 24.0983C112.177 24.64 112.649 25.6347 112.821 26.3268C113.233 27.8401 113.004 28.7776 111.983 29.6487C111.614 29.9587 110.911 30.8052 110.394 31.5081C109.903 32.2302 109.373 32.8424 109.238 32.8626C109.08 32.8863 107.931 33.2206 106.674 33.5943C105.416 33.9681 104.328 34.2469 104.276 34.2084C104.202 34.1732 104.248 33.8652 104.384 33.5437C104.533 33.1509 104.453 32.0047 104.107 29.6942L103.615 26.4096L104.479 24.7977C105.217 23.4133 105.478 22.5404 105.14 22.591C105.072 22.6012 104.516 23.1941 103.883 23.8912ZM113.657 31.1349C113.725 31.5879 113.2 32.0835 112.623 32.0773C111.862 32.0756 111.772 31.6259 112.456 31.2686C113.284 30.797 113.603 30.7724 113.657 31.1349ZM111.215 35.1372C111.648 35.7208 112.211 36.4008 112.474 36.6162C112.954 37.0537 112.951 37.0311 112.677 35.8213C112.508 35.1519 112.283 34.4212 112.159 34.2082C111.973 33.8887 112.079 33.8265 112.958 33.6948C114.152 33.5157 114.606 33.7721 115.35 35.0501L115.873 35.9214L115.799 34.6587L115.725 33.3959L116.855 33.2496C119.789 32.8331 121.114 33.2136 121.311 34.5274C121.446 35.4335 121.823 35.3308 122.124 34.2665C122.376 33.4876 122.479 33.4027 123.124 33.3987C123.933 33.4164 127.007 34.0906 127.367 34.3378C127.493 34.4115 127.39 35.2608 127.108 36.299C126.822 37.3146 126.677 38.1933 126.777 38.2477C126.859 38.3282 127.479 37.7024 128.163 36.882C128.847 36.0615 129.506 35.3837 129.618 35.3668C129.757 35.3692 130.721 35.8038 131.792 36.3381L133.741 37.3431L132.889 38.5824C132.057 39.7957 131.908 40.1886 131.708 41.4692C131.567 42.3706 132.093 42.0369 133.537 40.2919L134.905 38.6509L135.758 39.4263L136.631 40.1756L136.045 41.491C135.715 42.2121 135.468 42.8744 135.479 42.9424C135.516 43.1916 135.988 42.9587 136.76 42.264C137.186 41.8759 137.674 41.5943 137.845 41.6613C138.586 41.9903 142.247 48.2742 143.689 51.7408C145.258 55.443 148.3 65.5948 147.968 65.992C147.888 66.0735 147.261 66.3527 146.56 66.5967C144.876 67.1966 142.967 68.4555 142.3 69.3892C141.653 70.2969 141.952 70.2983 143.661 69.3937C145.112 68.6204 148.679 67.9699 148.754 68.4683C148.873 69.2611 148.351 71.007 147.773 71.7652C147.195 72.5235 146.938 72.6546 144.841 73.2701C142.058 74.0808 141.329 74.4449 140.123 75.6216C137.614 78.1053 136.8 82.211 138.233 85.3084C139.164 87.3691 139.131 87.7677 137.784 90.7722C136.278 94.1015 135.649 96.2108 135.689 97.7102C135.722 98.7012 135.574 99.094 134.557 100.613C133.474 102.304 132.986 103.512 132.909 104.844C132.779 107.202 129.031 110.798 123.08 114.307C119.774 116.239 119.221 116.391 117.79 115.61C117.165 115.286 116.362 114.851 115.994 114.698C115.551 114.509 115.274 114.203 115.22 113.841C115.084 112.935 114.563 112.225 114.002 112.171C113.698 112.146 112.487 112.212 111.308 112.343C110.129 112.473 108.163 112.582 106.967 112.599L104.778 112.603L108.245 111.898C119.212 109.722 125.092 107.127 128.074 103.183C129.168 101.722 129.404 100.829 129.139 99.0625C128.684 96.0271 127.029 93.7505 124.317 92.4198C123.722 92.1385 123.21 91.7983 123.193 91.685C123.176 91.5718 123.695 91.1929 124.334 90.8423C127.185 89.257 130.058 86.7419 131.528 84.553C132.752 82.7251 132.794 81.9312 131.865 80.1944L131.166 78.9096L132.335 77.0204C132.985 75.9735 133.722 74.5891 133.968 73.9268C134.435 72.5829 134.608 69.4303 134.302 67.2296C133.883 64.2814 133.991 63.6167 135.188 61.6076C135.773 60.5934 137.013 58.7168 137.903 57.4254L139.517 55.1222L141.059 55.2617C142.765 55.4228 143.319 55.2704 143.22 54.6134C143.142 54.0924 142.754 53.9653 140.544 53.6712L138.782 53.4489L137.544 55.1862C136.862 56.1686 135.577 58.0519 134.694 59.3887L133.078 61.8312L132.141 60.8134C131.641 60.24 130.346 59.137 129.257 58.3275C126.034 55.8922 122.575 55.1135 118.154 55.753C113.645 56.4287 110.713 58.3967 108.3 62.441C106.622 65.2402 106.334 67.6227 107.103 71.6764C107.864 75.523 108.516 76.4907 112.741 79.7716C113.838 80.6264 114.487 81.2702 114.369 81.4038C114.273 81.5339 113.118 82.286 111.832 83.0811L109.447 84.5501L108.327 84.3012C106.564 83.9169 104.517 82.255 103.422 80.3345C102.39 78.5205 101.928 78.3582 102.404 80.0007C103.023 82.1314 103.936 83.4538 105.67 84.7225L107.301 85.9141L106.294 86.5746L105.286 87.2351L103.078 86.0374C101.871 85.3614 100.166 84.5978 99.3195 84.3309C97.4288 83.711 96.9724 83.8952 95.8869 85.7255L95.1392 87.0419L94.6068 84.4119C94.0607 81.6912 93.3889 79.8232 92.3296 78.2912C91.5309 77.1139 89.2213 75.2365 87.7172 74.5818C83.9357 72.8788 78.2191 73.6429 74.4739 76.335L73.6401 76.9232L73.0334 76.4119C71.9722 75.4824 72.0562 74.6592 73.3267 72.9864C75.3473 70.3212 77.7541 68.8487 80.8874 68.3791C83.3895 68.0041 83.9317 68.085 84.0471 68.8552C84.1354 69.4442 84.1839 69.46 84.9108 69.2353C85.6151 69.0139 85.7865 69.0809 86.9277 69.9289C87.6055 70.4527 88.8381 71.4492 89.6816 72.1566C90.5026 72.8673 91.1634 73.2779 91.1362 73.0966C91.0548 72.553 89.1519 70.3136 87.441 68.7403C86.1328 67.5467 85.8722 67.192 85.7534 66.3991C85.5441 65.1566 84.6833 63.8728 83.4158 62.951L82.3592 62.2061L82.8244 59.774C83.0626 58.4412 83.2276 57.2353 83.1621 57.1061C83.0019 56.8059 81.6059 59.7944 80.9567 61.7678L80.4842 63.2283L81.8993 64.0585C84.0462 65.3117 85.4359 67.0489 84.1643 66.8689C81.318 66.4849 79.9744 66.5936 77.5177 67.425C76.9035 67.6329 76.935 67.5355 77.95 66.619C79.4675 65.2104 80.141 64.322 80.0663 63.8236C80.0324 63.5971 79.6375 62.9614 79.166 62.4299C78.0144 61.0507 77.8773 59.9827 78.6293 58.3877C78.9941 57.5918 79.617 56.8268 80.3921 56.1548C82.4234 54.4838 82.0591 54.0521 79.8394 55.5428C76.6992 57.6579 75.7698 60.5302 77.4204 63.0853C78.2259 64.3079 78.2454 64.7451 77.5963 65.0276C77.2717 65.1689 76.6399 66.0279 75.9722 67.2629C75.3777 68.3711 74.5522 69.6297 74.1366 70.0857C73.7175 70.5191 73.0767 71.4721 72.695 72.1547C72.3167 72.8599 71.918 73.4292 71.8053 73.4461C71.2192 73.5339 70.8115 66.5077 71.2724 64.3541C71.8018 61.8892 73.3645 58.783 75.7094 55.5132L77.847 52.5525L79.3891 52.692C80.2345 52.7969 81.2727 52.8034 81.6784 52.7426L82.4189 52.6085L81.81 52.2365C81.483 52.0539 80.7367 51.8415 80.1719 51.764L79.1427 51.6634L79.5797 51.0421C80.278 50.011 84.3079 46.6045 84.5706 46.8199C84.6451 46.8551 84.8822 47.5144 85.1328 48.2643C85.7889 50.181 86.1279 49.8291 85.9101 47.453L85.7376 45.5333L87.9292 44.1626L90.0982 42.7952L90.6339 43.294C91.1144 43.7315 91.1776 44 91.28 45.6059C91.3858 47.2345 91.4355 47.4124 91.7104 47.0932C92.0652 46.6926 92.5891 44.3443 92.4838 43.6421C92.4431 43.3703 92.2208 42.9635 92.0065 42.764C91.4155 42.2041 91.4662 42.0807 92.3799 41.411C93.8807 40.3523 94.4455 40.4298 95.8723 41.9531C96.1745 42.2783 96.1801 42.1617 95.918 41.1819C95.5464 39.7784 95.6838 39.6189 98.395 38.3324C100.759 37.1906 100.965 37.1829 101.088 37.9983C101.149 38.4061 101.452 38.8933 101.871 39.2243L102.552 39.7708L102.288 38.9302C101.989 37.8632 102.16 37.0038 102.789 36.5853C103.251 36.2845 108.91 34.3708 109.918 34.1735C110.298 34.0934 110.609 34.3247 111.215 35.1372ZM121.848 57.029C125.571 57.4206 129.09 59.3715 131.052 62.1579L132.079 63.6253L128.498 69.2575L124.913 74.867L121.428 76.9874C117.523 79.3793 116.62 79.8157 115.733 79.7402C114.446 79.6089 111.279 76.9335 109.588 74.5697C109.057 73.7924 108.914 73.3042 108.493 70.4953C108.035 67.4372 108.03 67.2527 108.475 65.9122C109.864 61.6507 112.619 58.806 116.667 57.3655C117.522 57.0752 120.351 56.8828 121.848 57.029ZM132.948 67.7335C133.134 71.4346 132.485 74.3343 131.025 76.4293C130.132 77.6981 129.632 77.7497 128.483 76.6944C126.827 75.1823 126.817 75.1143 127.673 73.5964C129.165 70.9409 132.652 65.6008 132.791 65.7651C132.817 65.7844 132.882 66.678 132.948 67.7335ZM83.3825 75.1852C86.143 75.3041 88.6404 76.4353 90.3639 78.4005C91.9509 80.224 92.6891 81.9199 93.1236 84.8194C93.3205 86.1333 93.4137 87.37 93.3248 87.5455C93.1728 87.9157 93.308 87.8954 85.9802 87.9051C81.8987 87.8914 75.7591 88.1399 74.3164 88.3561C72.9189 88.5656 72.7293 88.2234 72.9465 85.8284C73.1783 83.2228 74.4474 79.2341 75.469 77.8998C75.9128 77.3237 76.7104 76.6483 77.3719 76.2944C78.6531 75.616 81.4346 75.1065 83.3825 75.1852ZM155.354 70.6754C161.204 73.1107 162.874 73.949 165.894 75.9515C169.86 78.5765 171.605 80.0751 172.396 81.5084C172.746 82.1508 174.561 85.9552 176.429 89.9601C178.293 93.9423 180.721 99.0676 181.825 101.357C182.928 103.647 183.84 105.734 183.836 106.012C183.834 106.615 183.009 107.109 180.17 108.16C176.235 109.583 167.413 111.925 163.851 112.458C162.161 112.712 161.858 112.688 161.694 112.365C161.255 111.435 157.332 97.8712 155.918 92.4319C155.168 89.5797 155.907 88.056 159.257 85.4926C161.408 83.8501 161.215 83.4853 158.998 84.9986C156.926 86.3978 155.545 87.9481 155.108 89.3339C154.784 90.4015 154.802 90.6767 155.321 93.2162C156.014 96.6097 158.021 104.16 160.199 111.616C164.782 127.281 164.959 127.996 164.193 129.963C163.557 131.564 161.209 134.811 159.229 136.822C157.306 138.755 153.205 142.149 149.857 144.573C147.215 146.474 146.66 146.766 146.582 146.245C146.561 146.109 146.204 144.495 145.816 142.677C144.604 137.045 142.716 132.603 139.577 127.955C137.474 124.842 135.899 122.948 131.625 118.423C129.679 116.352 127.946 114.481 127.77 114.23C127.458 113.836 127.611 113.628 129.57 111.783C132.64 108.891 133.549 107.573 134.493 104.49C135.431 101.524 135.652 101.306 139.116 99.8139C143.422 97.941 144.708 96.2196 144.778 92.2254L144.806 90.4146L146.514 90.2745C149.452 90.0425 150.859 89.7391 151.628 89.1837C153.561 87.7822 154.137 85.9356 153.645 82.651C153.289 80.2725 152.509 78.606 150.839 76.5401L149.869 75.2958L150.29 73.7967C150.539 72.9952 150.786 71.5685 150.879 70.6512C150.96 69.5041 151.092 68.998 151.305 69.0356C151.473 69.0799 153.313 69.8232 155.354 70.6754ZM149.361 71.5967C149.279 72.2807 148.962 73.3936 148.67 74.0627L148.115 75.2807L149.755 77.606C151.665 80.3538 152.313 82.0633 152.294 84.2433C152.284 86.028 151.95 87.0277 151.114 87.7552C150.134 88.597 146.684 88.9519 144.83 88.4192C143.43 88.0035 141.225 86.6665 140.237 85.6102C138.518 83.8296 138.625 80.0846 140.494 77.3263C141.491 75.8334 142.287 75.2973 145.016 74.2861C146.283 73.8183 147.552 73.2112 147.859 72.9567C148.513 72.3955 149.353 70.9263 149.278 70.4279C149.251 70.2467 149.305 70.1459 149.386 70.2264C149.464 70.2842 149.462 70.8867 149.361 71.5967ZM127.379 77.7863C129.652 79.8777 130.852 81.2728 130.943 81.8844C131.049 82.5866 129.461 84.9091 127.841 86.4026C124.889 89.1611 121.362 90.8477 117.176 91.5214C114.767 91.9055 114.49 91.9008 113.323 91.4966C111.642 90.8916 106.974 88.3486 107.095 88.0758C107.316 87.5562 124.743 76.6527 125.551 76.5085C125.754 76.4781 126.577 77.0495 127.379 77.7863ZM100.244 86.3464C103.547 87.9358 109.026 91.1215 109.107 91.5033C109.202 92.1375 108.179 92.5455 105.455 92.9769C104.013 93.1931 102.271 93.5699 101.612 93.7845C99.1936 94.5639 97.0207 94.9822 96.7996 94.7374C96.6857 94.5923 96.3344 93.3248 95.9852 91.918L95.3919 89.3433L96.2242 88.13C96.6769 87.46 97.1927 86.5952 97.3446 86.225C97.5191 85.8515 97.8165 85.529 98.0194 85.4985C98.1997 85.4715 99.202 85.854 100.244 86.3464ZM79.1133 89.6059C88.5882 89.1587 92.9809 89.4036 93.872 90.4281C94.48 91.1013 94.741 94.0731 94.3271 95.6175C93.9571 96.9931 92.77 98.607 91.3785 99.6262C90.3622 100.381 90.076 100.47 87.9086 100.772C85.9215 101.046 85.2768 101.05 83.8913 100.725C79.5285 99.7578 75.9675 97.3731 74.3549 94.3028C73.7794 93.2309 72.9267 90.4636 73.0855 90.1387C73.2059 89.8659 72.6131 89.9084 79.1133 89.6059ZM143.331 91.4926C143.347 94.061 142.621 96.1385 141.329 97.0502C140.579 97.5796 138.211 98.6987 137.648 98.7832C137.512 98.8034 137.356 98.5259 137.305 98.1861C137.108 96.8722 137.869 93.9556 139.466 89.8484L140.212 87.9068L141.775 89.1085L143.312 90.291L143.331 91.4926ZM111.687 94.2664C111.765 95.2506 111.803 96.4261 111.778 96.8701C111.739 97.6865 111.739 97.6865 110.563 97.8396C109.069 98.0172 108.664 97.7768 108.506 96.5728C108.288 94.9611 108.571 94.0848 109.588 93.3303C110.085 92.9548 110.749 92.6235 111.043 92.5796C111.584 92.4985 111.587 92.5212 111.687 94.2664ZM180.024 85.8081C182.656 87.2202 186.741 89.4105 189.068 90.6367C191.418 91.8595 193.678 93.0958 194.089 93.3815L194.857 93.8918L192.291 94.2995L189.744 94.6813L187.434 96.6487C184.9 98.8118 183.896 99.495 183.085 99.6166C182.566 99.6943 182.439 99.4587 180.767 95.8413C176.204 85.8478 175.027 83.2218 175.117 83.2083C175.185 83.1981 177.389 84.3732 180.024 85.8081ZM104.051 96.9858L104.357 99.0245L103.499 99.4541C103.027 99.687 101.457 100.131 100.005 100.441L97.3917 100.995L97.3063 99.5021C97.2517 98.6765 97.2601 97.6562 97.3342 97.2281C97.4386 96.5408 97.5186 96.4593 98.3752 96.331C98.8937 96.2533 99.8167 95.9528 100.398 95.6804C101.006 95.4272 102 95.1393 102.612 95.0707L103.745 94.9471L104.051 96.9858ZM116.42 93.395C117.316 93.3765 118.167 93.3648 118.325 93.3411C118.55 93.3074 118.63 93.6891 118.721 95.0651C118.777 96.0527 118.758 97.0051 118.644 97.1612C118.539 97.3854 117.718 97.601 116.005 97.8578L113.526 98.2294L113.385 96.2123C113.177 93.441 113.189 93.3696 114.069 93.3998C114.485 93.407 115.546 93.4101 116.42 93.395ZM122.132 92.9095C123.99 93.928 125.287 94.8917 125.355 95.3448C125.389 95.5713 125.082 95.9878 124.605 96.3373C123.665 96.9877 120.266 98.6088 119.59 98.7101C119.184 98.7709 119.213 98.6509 119.777 97.8021C120.357 96.9045 120.41 96.6418 120.307 95.0359C120.21 93.3133 120.342 92.344 120.725 92.2866C120.815 92.2731 121.455 92.5477 122.132 92.9095ZM107.138 96.8242C107.654 99.341 107.732 99.3988 110.22 99.3964C111.21 99.3871 112.243 99.5102 112.563 99.6475C112.935 99.8234 113.808 99.8083 115.322 99.6046C118.939 99.132 116.191 99.8681 110.47 100.911C104.862 101.937 104.885 101.933 105.511 99.9632C105.716 99.3303 105.801 98.2058 105.74 97.3349C105.57 94.9747 105.604 94.738 106.204 94.7408C106.665 94.7412 106.73 94.8704 107.138 96.8242ZM95.7096 98.537C95.7611 99.8032 95.5088 100.119 95.151 99.2693C94.9636 98.7878 95.3277 97.0656 95.5646 97.2618C95.639 97.2969 95.7047 97.8893 95.7096 98.537ZM127.257 97.121C127.841 97.9368 127.992 99.5587 127.563 100.85C126.639 103.606 122.589 106.414 116.809 108.299C114.899 108.932 113.177 109.283 108.534 109.979L102.673 110.857L99.9604 110.291C98.4622 109.983 97.0665 109.59 96.859 109.436C96.4993 109.189 96.524 109.046 96.9406 108.289C97.7198 106.875 99.3793 105.491 101.08 104.843C101.935 104.552 105.269 103.728 108.529 103.031C118.987 100.839 122.875 99.5611 125.671 97.4514C126.831 96.5827 126.854 96.5793 127.257 97.121ZM103.582 101.549C103.667 101.652 103.627 101.844 103.524 101.929C103.197 102.209 98.7405 104.151 98.2897 104.219C97.9741 104.266 97.2803 103.328 97.1921 102.739C97.1412 102.399 103.306 101.243 103.582 101.549ZM191.426 101.447C196.412 107.648 200.355 113.658 205.242 122.584C208.602 128.704 209.359 129.911 211.893 133.283C214.107 136.217 215.997 138.829 216.024 139.01C216.078 139.373 214.812 139.841 211.289 140.786C204.819 142.52 204.279 142.763 197.739 146.8C195.313 148.299 193.124 149.53 192.869 149.522C192.524 149.527 192.215 149.157 191.655 148.036C190.746 146.273 190.236 145.794 189.402 145.919C188.703 146.023 187.762 147.276 186.833 149.384C185.676 151.966 185.974 151.806 179.915 152.899L174.571 153.839L173.004 153.379C172.138 153.138 170.316 152.67 168.927 152.322C167.542 151.997 166.371 151.571 166.299 151.396C166.227 151.222 166.454 150.585 166.782 150.004C167.561 148.59 169.02 147.561 174.218 144.72C176.456 143.505 179.062 141.979 180.028 141.348C184.505 138.315 186.635 134.683 186.332 130.513C186.198 128.542 185.622 126.543 183.484 120.425C182.232 116.837 181.861 115.596 181.984 115.184C182.11 114.794 182.581 114.4 183.612 113.898C185.561 112.911 186.536 112.186 186.872 111.51C187.46 110.356 186.633 107.608 184.425 103.33L183.476 101.457L184.804 100.633C185.542 100.175 186.623 99.3875 187.235 98.8557C187.827 98.35 188.362 97.9224 188.43 97.9123C188.498 97.9021 189.841 99.4842 191.426 101.447ZM111.258 113.856L113.554 113.488L113.642 114.077C113.795 115.097 114.562 115.908 115.715 116.222C116.293 116.39 116.795 116.662 116.822 116.843C116.85 117.024 116.533 117.836 116.101 118.642C115.691 119.445 114.927 121.111 114.424 122.368L113.519 124.634L113.088 123.911C112.493 122.865 112.032 122.865 111.337 123.919L110.731 124.797L110.385 124.177C110.064 123.577 109.945 123.548 108.885 123.707L107.758 123.876L107.562 123.026C107.385 122.311 107.275 122.188 106.675 122.186L105.982 122.174L105.484 119.006C105.223 117.261 104.875 115.553 104.711 115.231L104.436 114.623L106.688 114.425C107.938 114.307 109.977 114.071 111.258 113.856ZM126.601 115.656C127.675 116.514 131.661 120.502 131.705 120.797C131.718 120.887 129.883 121.255 127.607 121.596L123.482 122.215L121.96 120.057C121.116 118.886 120.431 117.854 120.421 117.786C120.38 117.514 124.521 115.157 125.307 115.016C125.506 114.963 126.082 115.27 126.601 115.656ZM185.149 108.317C185.299 108.549 185.504 109.144 185.578 109.642C185.758 110.843 185.218 111.387 182.597 112.66C179.95 113.914 177.873 114.665 174.697 115.465C171.476 116.272 163.682 117.788 163.452 117.637C163.352 117.583 163.104 116.855 162.889 116.031L162.507 114.559L163.704 114.241C164.37 114.072 166.748 113.484 169.02 112.958C174.407 111.687 178.617 110.408 181.516 109.139C184.372 107.901 184.752 107.821 185.149 108.317ZM135.206 124.626C138.59 128.752 142.718 135.845 143.058 138.111C143.214 139.153 143.163 139.276 141.82 141.076C139.564 144.17 134.227 148.699 128.183 152.662C122.961 156.108 121.492 156.768 115.874 158.189L112.656 159.019L112.106 159.958C111.813 160.465 110.758 162.036 109.817 163.451C106.734 167.943 106.329 169.394 107.424 171.777C108.453 174.032 109.406 175.163 111.578 176.737C114.68 178.981 115.125 179.332 115.71 180.008C117.053 181.59 116.242 182.638 113.175 183.237C111.453 183.588 111.198 183.58 110.54 183.192C109.482 182.586 107.332 180.083 105.034 176.745C102.912 173.658 102.025 171.892 101.767 170.17C101.61 169.128 101.202 168.402 100.953 168.74C100.72 169.03 101.434 173.023 101.893 174.089C102.113 174.635 103.253 176.548 104.382 178.394C105.531 180.214 106.575 181.956 106.713 182.26C106.933 182.806 106.914 182.832 105.787 183.001C104.434 183.204 103.64 182.975 102.488 182.059C100.478 180.485 99.5363 178.356 98.6078 173.238C98.2211 171.118 97.821 169.372 97.7308 169.385C97.6407 169.399 97.4439 170.239 97.2935 171.234C96.978 173.435 97.2635 175.801 98.1714 178.63C98.5147 179.69 98.7508 180.651 98.6743 180.755C98.4411 181.045 94.2483 177.828 93.4147 176.726C92.8935 176.016 92.503 175.102 92.1155 173.747C91.4592 171.367 91.4291 169.936 92.01 168.737C92.5684 167.542 92.4149 167.287 91.5981 167.988C90.3262 169.036 90.2826 169.668 90.9999 174.146C91.6187 177.968 91.6493 178.172 91.2435 178.232C90.5673 178.334 89.2253 177.377 88.5924 176.383C88.0768 175.557 88.0135 175.289 87.9843 173.556C87.9893 172.513 87.7073 170.17 87.3872 168.341L86.8171 164.999L87.717 163.776L88.6361 162.526L93.4149 161.81C98.081 161.111 98.2579 161.061 99.9245 160.186C102.956 158.573 105.139 156.532 109.797 150.855C115.707 143.692 116.664 142.854 124.945 137.513L128.349 135.312L128.142 133.931C127.873 132.141 126.83 128.87 125.744 126.392C125.259 125.307 124.858 124.324 124.834 124.166C124.773 123.758 125.462 123.585 129.616 123.009L133.452 122.457L135.206 124.626ZM180.276 116.552C180.919 117.613 183.396 124.607 184.11 127.372C184.99 130.784 185.053 132.28 184.409 134.137C183.289 137.269 180.531 139.628 173.682 143.295C168.349 146.156 166.912 147.182 165.467 149.228C164.781 150.188 163.513 151.721 162.636 152.64C160.522 154.833 159.897 155.737 159.417 157.454C158.817 159.605 159.218 161.05 161.475 164.881C162.438 166.543 163.217 168.048 163.177 168.239C163.092 168.599 162.115 169 160.763 169.203L159.816 169.345L158.35 166.947C156.947 164.656 155.253 161.042 155.09 159.955C154.971 159.162 154.555 159.155 154.513 159.949C154.428 161.073 155.359 163.597 157.054 166.91L158.622 169.987L157.9 170.095C156.773 170.264 154.901 169.919 153.774 169.324C151.975 168.389 151.082 166.74 149.887 162.148C148.894 158.29 148.363 158.902 149.008 163.206C149.408 165.717 149.51 166.095 150.659 168.378C151.801 170.616 151.887 170.881 151.597 171.248C151.332 171.636 151.19 171.611 149.949 171.171C148.145 170.515 146.535 169.158 145.091 167.058C144.003 165.485 143.605 164.525 142.475 160.827L142.322 160.27L142.109 160.997C141.782 162.204 142.029 164.159 142.678 165.567C142.993 166.284 143.976 167.92 144.866 169.246C146.082 171.056 146.413 171.724 146.23 171.891C146.086 172.005 145.311 172.214 144.544 172.329C143.237 172.524 143.024 172.487 142.417 171.976C141.454 171.24 139.561 168.605 137.918 165.794C136.432 163.261 135.567 161.329 135.046 159.392C134.094 155.806 136.007 153.504 142.619 150.406C147.142 148.292 149.119 147.185 152.064 145.145C156.538 142.089 159.168 139.495 164.851 132.505C165.959 131.135 167.893 128.969 169.147 127.646C171.722 124.99 172.201 124.34 172.403 123.383C172.681 122.16 172.504 122.21 171.261 123.762C170.546 124.68 169.275 125.89 168.131 126.71L166.22 128.108L166.057 127.021C165.965 126.409 165.47 124.491 164.954 122.739C164.435 120.964 164.069 119.444 164.145 119.34C164.241 119.209 166.784 118.643 169.784 118.055C172.806 117.463 175.864 116.796 176.594 116.594C177.321 116.369 178.345 116.123 178.882 116.019C179.781 115.861 179.881 115.916 180.276 116.552ZM144.254 142.402C144.41 142.98 144.631 144.453 144.724 145.69C144.917 147.745 144.883 147.982 144.468 148.137C139.575 149.935 136.712 151.592 134.839 153.702C133.617 155.09 132.958 155.304 128.247 156.011L125.407 156.436L129.833 153.364C136.179 148.962 140.604 145.265 142.702 142.657C143.245 141.974 143.741 141.436 143.805 141.403C143.895 141.39 144.079 141.849 144.254 142.402ZM210.069 144.952C207.19 152.957 201.847 164.366 199.213 168.165C198.622 168.995 197.36 170.412 196.386 171.299C195.416 172.209 194.486 173.228 194.308 173.579C193.966 174.371 193.787 176.714 194.001 178.142L194.16 179.206L192.97 180.033C190.671 181.605 189.182 184.283 189.084 187.008C189.069 187.682 189.658 192.689 190.402 198.113C191.481 206.081 191.934 208.792 192.743 212.192C193.475 215.232 193.694 216.542 193.561 216.887C193.404 217.373 193.246 217.397 189.503 217.796C185.853 218.204 185.496 218.281 183.99 218.993C181.58 220.141 179.655 220.522 178.346 220.093C177.768 219.925 175.495 218.598 173.272 217.148C169.317 214.591 168.744 214.306 166.186 213.694C164.92 213.397 164.894 213.378 163.72 211.539L162.519 209.68L163.875 207.346C164.626 206.053 165.468 204.444 165.76 203.775C166.371 202.317 166.963 199.194 166.814 198.197C166.759 197.835 166.795 197.459 166.898 197.374C166.978 197.293 168.098 197.542 169.333 197.936C172.891 199.07 173.172 199.097 174.137 198.466C177.666 196.177 186.886 184.651 188.289 180.781L188.712 179.606L187.388 177.697C184.367 173.378 180.966 170.831 175.492 168.756L173.831 168.125L172.938 162.167C172.449 158.905 172.068 155.905 172.082 155.532L172.115 154.833L173.558 155.079C176.202 155.494 184.759 154.003 186.649 152.77C186.922 152.59 187.619 151.397 188.163 150.111C188.734 148.844 189.29 147.788 189.403 147.771C189.786 147.714 190.164 148.236 190.628 149.487C190.872 150.192 191.284 150.941 191.553 151.201C192.034 151.639 192.056 151.635 193.329 151.051C194.042 150.736 196.504 149.324 198.827 147.911C204.761 144.288 207.254 143.081 209.929 142.634L210.963 142.456L210.069 144.952ZM133.123 157.017C133.24 157.185 133.106 158.594 132.875 160.134C132.189 164.476 132.712 167.964 134.362 170.056C135.215 171.133 136.105 171.532 137.708 171.616C138.895 171.693 138.995 171.747 139.239 172.452C139.99 174.54 143.728 193.945 143.944 196.923C144.118 199.167 143.983 199.65 143.177 199.956C142.83 200.101 139.697 200.733 136.175 201.376L129.785 202.566L128.546 201.524C127.024 200.293 125.317 197.978 124.184 195.646C123.719 194.697 122.553 191.837 121.599 189.317C120.62 186.777 118.92 182.816 117.809 180.481C114.402 173.279 114.201 172.707 113.257 167.637C112.447 163.312 112.413 163.085 112.735 162.157C113.322 160.54 113.517 160.303 114.669 159.991C115.689 159.722 125.447 157.936 130.644 157.087C132.508 156.762 132.992 156.759 133.123 157.017ZM164.846 154.463C165.968 156.263 167.331 159.973 167.712 162.209C168.228 165.189 168.06 165.608 162.766 174.114C157.715 182.236 156.353 184.687 155.661 186.991C155.089 188.86 155.255 189.97 157.014 196.632C159.638 206.453 160.772 209.711 162.502 212.485C163.259 213.692 163.407 214.064 163.239 214.483C163.046 215.044 161.315 216.253 159.022 217.408C158.228 217.805 157.289 218.455 156.953 218.829C156.617 219.204 155.721 220.913 154.918 222.632C153.288 226.211 152.832 226.859 151.656 227.313C150.373 227.829 149.843 227.677 149.566 226.746C148.941 224.732 146.048 210.504 145.229 205.346L144.624 201.616L145.151 200.518L145.677 199.419L144.842 193.384C144.391 190.07 143.618 185.368 143.119 182.965C142.598 180.565 141.951 177.326 141.627 175.777L141.067 172.965L141.913 173.534C142.373 173.835 143.268 174.882 143.894 175.831C145.175 177.77 146.487 178.986 147.718 179.357C149.987 180.036 158.775 177.468 160.038 175.75C160.402 175.256 160.394 175.049 160.057 173.57C159.758 172.341 159.732 171.859 159.923 171.599C160.054 171.394 160.998 170.928 162.001 170.546C163.004 170.164 164.103 169.652 164.436 169.417C164.975 169.012 165.006 168.914 164.77 167.954C164.614 167.375 163.767 165.719 162.879 164.254C161.537 162.069 161.171 161.313 160.906 160.01C160.548 158.234 160.675 157.543 161.701 155.93C162.3 155.007 163.707 153.475 164.022 153.428C164.112 153.415 164.48 153.869 164.846 154.463ZM168.096 153.698C168.894 153.949 169.732 154.31 169.946 154.509C170.29 154.805 170.498 155.885 171.265 161.005C171.771 164.38 172.187 167.769 172.209 168.53L172.21 169.919L169.197 173.961C167.141 176.701 166.039 178.418 165.729 179.275C165.269 180.664 165.024 183.179 165.248 184.674C165.387 185.603 165.387 185.603 164.464 185.903C163.078 186.343 160.558 187.832 158.706 189.314C157.799 190.029 157.033 190.607 156.988 190.614C156.785 190.644 156.745 189.145 156.918 188.146C157.336 185.86 158.633 183.442 163.89 175.15C170.38 164.936 170.594 163.908 167.663 156.959C167.013 155.389 166.357 153.935 166.255 153.719C165.945 153.186 166.406 153.187 168.096 153.698ZM110.923 165.138C111.736 169.023 112.526 171.985 113.242 173.847C113.736 175.139 114.063 176.248 113.983 176.33C113.676 176.584 111.842 175.423 110.98 174.441C108.893 172.044 108.117 170.098 108.604 168.427C108.946 167.172 110.15 165.208 110.601 165.14C110.781 165.113 110.92 165.116 110.923 165.138ZM135.847 165.201C136.561 166.577 137.407 168.071 137.726 168.51C138.489 169.6 138.467 169.765 137.588 169.897C136.574 170.049 135.379 169.302 134.9 168.262C134.513 167.37 133.719 162.533 133.929 162.246C134.121 161.986 134.388 162.386 135.847 165.201ZM156.224 171.366C157.102 171.535 157.845 171.725 157.897 171.763C158.108 171.94 158.693 174.771 158.55 175.047C158.322 175.521 154.707 176.781 151.386 177.534L148.49 178.199L147.274 177.316C146.032 176.414 145.241 175.282 145.393 174.61C145.434 174.419 145.921 173.975 146.469 173.638C147.041 173.298 147.775 172.817 148.15 172.552C148.791 172.063 148.84 172.079 149.43 172.477C149.741 172.708 150.378 172.96 150.782 173.038C151.492 173.163 151.665 173.091 152.725 172.168C153.36 171.633 154.072 171.155 154.271 171.102C154.474 171.072 155.368 171.193 156.224 171.366ZM178.154 171.599C179.245 172.108 180.701 172.908 181.391 173.361L182.642 174.169L180.792 177.666C177.893 183.08 177.244 185.054 176.755 189.944L176.567 191.918L175.183 190.527C173.367 188.715 171.176 187.167 168.973 186.154C166.974 185.272 166.765 184.956 166.673 182.955C166.56 180.355 167.484 178.526 171.772 172.996C172.64 171.87 173.431 170.686 173.499 170.375L173.624 169.823L174.885 170.237C175.586 170.456 177.061 171.068 178.154 171.599ZM186.458 179.179C186.587 179.577 186.675 180.166 186.655 180.493C186.571 181.316 184.885 183.908 181.464 188.451C178.734 192.08 178.495 192.324 178.342 191.768C178.044 190.701 178.513 187.064 179.275 184.61C179.957 182.4 181.967 178.277 183.275 176.391L183.788 175.665L184.988 177.06C185.658 177.84 186.333 178.804 186.458 179.179ZM168.41 187.628C170.627 188.269 175.906 192.735 176.116 194.14C176.201 194.706 175.486 195.624 174.044 196.766C172.977 197.644 173.186 197.659 169.278 196.184C167.858 195.632 165.325 194.877 163.629 194.482C160.167 193.681 158.329 193.1 158.02 192.729C157.515 192.133 161.193 188.988 163.721 187.868C165.148 187.237 166.727 187.162 168.41 187.628ZM161.513 195.587C163.06 195.911 164.491 196.229 164.704 196.267C165.017 196.359 165.08 196.627 165.136 198.078C165.217 199.849 164.84 201.944 164.084 203.818C163.666 204.876 162.269 207.24 161.973 207.423C161.762 207.547 161.168 205.737 159.644 200.337C158.262 195.426 158.185 195.067 158.501 195.019C158.614 195.002 159.967 195.263 161.513 195.587ZM142.777 202.518C142.934 202.795 143.53 205.393 144.104 208.294C146.917 222.302 147.79 226.433 147.991 227.005C148.189 227.555 148.135 227.655 147.082 228.323C146.473 228.715 144.85 229.885 143.488 230.946C142.122 231.984 140.849 232.87 140.646 232.9C139.655 233.049 138.771 231.305 137.599 226.872C136.359 222.286 135.376 217.57 134.108 210.186L132.964 203.479L137.743 202.763C142.477 202.053 142.522 202.046 142.777 202.518ZM133.761 219.41C133.92 219.548 134.242 220.311 134.496 221.083C135.124 223.12 136.842 230.274 136.749 230.427C136.689 230.482 135.57 230.094 134.244 229.552C132.918 229.009 130.766 228.336 129.455 228.046C127.237 227.545 126.444 227.177 126.359 226.611C126.295 226.18 127.079 223.724 127.553 222.888C128.599 220.948 132.852 218.573 133.761 219.41ZM168.401 215.863C169.093 216.176 170.59 217.087 171.714 217.822C172.841 218.579 175.035 219.987 176.583 220.937C180.158 223.111 181.297 224.098 181.443 225.072C181.623 226.273 181.271 226.997 179.993 228.161C177.378 230.545 176.246 230.066 167.839 223.034C164.676 220.382 162.554 218.986 161.291 218.712C160.41 218.52 160.556 218.266 162.091 217.434C162.813 217.025 163.891 216.377 164.479 215.988C165.838 215.066 166.709 215.028 168.401 215.863ZM159.889 219.964C160.793 220.153 162.063 220.634 162.721 221.022C165.205 222.526 170.687 227.425 172.059 229.35C172.437 229.873 172.869 230.758 173.041 231.288C173.632 233.237 172.229 234.328 170.07 233.609C168.951 233.221 166.096 231.703 161.828 229.216C160.06 228.184 157.927 227.021 157.086 226.638C156.222 226.258 155.517 225.854 155.496 225.718C155.428 225.265 157.862 219.666 158.155 219.622C158.2 219.615 158.981 219.753 159.889 219.964ZM191.731 219.13C195.211 218.817 195.259 218.832 195.5 220.441C195.609 221.166 195.668 222.639 195.625 223.734C195.582 224.829 195.542 225.947 195.537 226.225C195.494 227.321 194.423 228.477 191.553 230.552C189.969 231.669 187.666 233.219 186.443 233.981C181.001 237.344 167.597 243.406 167.471 242.568C167.454 242.455 167.874 241.72 168.393 240.878C169.588 239.008 169.811 238.188 169.549 236.443C169.366 235.22 169.387 235.055 169.765 235.114C173.277 235.63 175.2 234.16 174.769 231.284L174.633 230.378L175.983 230.777C176.707 230.993 177.669 231.104 178.097 231.04C179.968 230.759 183.026 227.637 183.101 225.982C183.129 224.935 182.75 223.95 181.887 222.805C181.513 222.305 181.216 221.864 181.235 221.837C181.277 221.808 181.794 221.568 182.379 221.319C182.986 221.065 184.089 220.576 184.866 220.228C185.836 219.781 186.724 219.556 187.749 219.472C188.571 219.418 190.368 219.264 191.731 219.13ZM128.333 229.326C130.509 229.695 133.282 230.669 135.189 231.703C136.817 232.571 139.001 234.073 139.035 234.3C139.049 234.39 138.381 235.162 137.562 236.003C136.282 237.306 135.259 238.78 134.353 240.583C134.163 241.006 134.05 241.022 131.961 240.919C130.058 240.833 123.858 240.373 116.439 239.771C113.313 239.521 113.313 239.521 113.751 237.371C114.575 233.333 116.046 231.77 120.432 230.278C123.281 229.296 126.225 228.947 128.333 229.326ZM156.892 228.265C157.723 228.581 158.664 229.019 159.017 229.221L159.652 229.612L159.065 229.538C158.152 229.443 154.289 228.123 154.065 227.855C153.697 227.401 155.324 227.643 156.892 228.265ZM151.916 229.358C153.991 229.673 161.476 232.095 163.906 233.236C166.112 234.272 167.695 235.447 168.056 236.32C168.663 237.757 167.893 239.54 165.664 241.889L164.548 243.053L162.885 243.186C161.222 243.319 160.68 243.239 148.438 240.904C144.215 240.101 141.338 239.977 137.889 240.493L135.744 240.792L137.041 239.138C139.007 236.574 144.266 231.987 147.376 230.131C148.833 229.241 149.979 229.046 151.916 229.358ZM122.85 241.798C128.941 242.298 133.993 242.791 134.103 242.914C134.214 243.036 134.502 244.035 134.729 245.09C134.96 246.167 135.475 247.757 135.878 248.6C136.96 251.055 136.995 250.981 135 251.511C134.044 251.747 131.353 252.243 128.986 252.598C122.739 253.511 120.145 253.274 116.624 251.463C113.403 249.814 110.763 247.269 110.099 245.145C109.706 243.907 110.488 241.126 111.277 241.008C111.57 240.964 116.786 241.317 122.85 241.798ZM198.147 229.031C200.069 230.318 200.199 231.803 198.561 233.485C196.543 235.548 185.242 243.495 181.421 245.527C179.032 246.811 172.931 249.162 170.787 249.622C169.226 249.972 169.042 249.976 168.849 249.611C168.748 249.395 168.075 248.291 167.335 247.198C166.226 245.488 166.082 245.139 166.322 244.894C166.482 244.732 167.549 244.317 168.652 243.989C176.032 241.864 189.674 234.469 195.282 229.599C195.993 228.96 196.721 228.434 196.856 228.413C197.014 228.39 197.609 228.671 198.147 229.031ZM141.429 241.816C144.465 241.616 144.959 241.681 153.418 243.377C156.437 243.99 159.984 244.594 161.32 244.741C164.15 245.012 164.631 245.148 164.713 245.692C164.743 245.895 165.393 247.002 166.159 248.115C166.906 249.254 167.494 250.254 167.414 250.336C167.088 250.778 165.038 251.248 159.425 252.089L153.226 253.018L147.801 252.187C140.535 251.075 139.001 250.68 138.171 249.6C137.48 248.684 136.339 246.145 135.82 244.37C135.247 242.395 135.678 242.191 141.429 241.816ZM185.993 245.281C186.466 245.512 187.083 247.017 187.055 247.902C187.055 248.365 186.952 249.214 186.827 249.766L186.612 250.794L180.148 251.647C176.599 252.109 170.792 252.887 167.266 253.346L160.869 254.189L161.557 257.699L162.267 261.206L159.226 261.522C157.547 261.704 154.51 262.044 152.445 262.261C150.384 262.5 148.451 262.674 148.17 262.647L147.609 262.592L147.047 258.229C146.706 255.802 146.494 253.772 146.552 253.694C146.609 253.616 147.571 253.727 148.707 253.927C152.213 254.56 155.187 254.415 161.366 253.35C169.566 251.936 176.452 249.746 182.406 246.722C182.469 246.69 182.531 246.659 182.592 246.628C185.556 245.115 185.603 245.09 185.993 245.281ZM139.606 252.72C140.86 252.625 142.501 252.657 143.253 252.752L144.595 252.945L144.952 255.323L145.305 257.679L144.584 257.787C139.982 258.454 127.129 259.894 125.705 259.922C123.493 259.929 122.882 259.697 122.371 258.592C121.866 257.533 121.849 255.729 122.32 255.334C122.734 255.017 136.275 252.941 139.606 252.72ZM159.546 263.35C159.753 263.505 162.101 274.71 162.683 278.282C162.713 278.486 162.953 278.705 163.234 278.733C164.015 278.87 165.438 279.908 166.129 280.823C167.083 282.116 167.392 284.641 166.815 286.325C165.993 288.834 164.193 290.054 160.609 290.591L158.355 290.929L157.38 290.264C155.973 289.34 154.602 287.415 154.405 286.101C154.221 284.878 154.51 283.885 155.658 281.698C156.821 279.462 156.849 279.342 156.486 276.918C156.15 274.676 154.31 266.243 153.817 264.649L153.549 263.786L156.407 263.473C157.995 263.305 159.416 263.254 159.546 263.35ZM93.559 52.8149C93.2807 53.1114 92.2604 54.6077 91.2885 56.1198C90.32 57.6547 89.0687 59.3013 88.4987 59.8037C87.1726 60.952 85.427 61.6074 83.8726 61.5393C83.2436 61.4946 82.7184 61.5269 82.7319 61.6176C82.8236 62.2292 85.2599 62.9526 87.4365 63.0201C88.6877 63.0642 89.1385 62.9967 90.395 62.4609C91.8284 61.8755 92.4831 61.4763 98.8154 57.2847C101.834 55.2805 103.95 54.1759 105.784 53.6463C106.337 53.4939 106.915 53.1988 107.023 52.9973C107.373 52.4121 106.203 52.4485 103.652 53.1089C100.882 53.8483 99.9251 54.3854 94.358 58.3002C92.0877 59.9143 90.1564 61.1765 90.0786 61.1187C90.0233 61.0575 90.3183 60.4111 90.7834 59.6697C91.7259 58.1156 94.2852 53.3546 94.5248 52.647C94.7522 52.0108 94.2337 52.0885 93.559 52.8149ZM115.624 50.4112C111.829 51.536 108.345 54.7447 107.239 58.1299C106.59 60.1033 106.922 60.4704 107.799 58.7872C109.398 55.7682 111.6 53.7011 114.383 52.5891C116.122 51.8884 119.797 51.3377 121.845 51.4708C125.219 51.6832 129.226 53.8156 132.145 56.9913C133.858 58.8885 134.061 58.395 132.464 56.2023C131.096 54.2997 127.052 51.1536 125.187 50.553C122.182 49.5674 118.648 49.518 115.624 50.4112ZM74.7083 59.1374C74.0808 59.7179 73.3171 60.6198 73.0469 61.1235L72.5605 62.0302L73.1258 63.0341C74.1876 64.89 74.1684 64.916 73.086 66.3058C71.9045 67.803 71.8619 68.1337 72.9516 67.7156C73.8644 67.3472 75.5573 65.2637 75.6346 64.3952C75.6772 64.0645 75.509 63.557 75.2484 63.2023C74.5806 62.2833 74.596 61.7715 75.3706 60.1731C76.5988 57.6034 76.4815 57.4357 74.7083 59.1374ZM121.951 66.7877C121.517 66.9685 120.912 68.7732 121.024 69.5207C121.064 69.7925 121.439 70.2922 121.854 70.6006C122.914 71.3682 123.973 71.2094 124.913 70.0959C125.814 69.0344 125.87 68.3311 125.136 67.5842C124.261 66.673 122.966 66.3344 121.951 66.7877ZM80.9268 81.7141C80.1789 82.5673 80.0939 83.6918 80.7324 84.5689C80.993 84.9235 81.4181 85.2999 81.6639 85.402C83.1961 85.9367 85.01 84.5068 84.7757 82.9438C84.6332 81.9924 83.7794 81.2171 82.6984 81.078C81.5497 80.949 81.6139 80.9163 80.9268 81.7141ZM142.89 80.0939C142.291 80.5543 141.629 81.2094 141.451 81.5603C140.227 83.8514 142.37 86.7728 145.422 86.9871C146.609 87.064 146.811 87.0336 147.494 86.5144C148.571 85.7044 148.909 84.2642 148.485 82.359C148.292 81.531 147.939 80.5647 147.656 80.2134C146.662 78.8105 144.721 78.7772 142.89 80.0939ZM146.343 80.9892C146.985 81.8889 147.411 83.6548 147.175 84.385C146.724 85.6802 145.117 85.8748 143.664 84.7954C142.29 83.7739 142.36 82.3969 143.833 81.1569C144.817 80.3378 145.822 80.2798 146.343 80.9892Z" fill="black"/>
<path d="M191.731 219.13C195.211 218.817 195.259 218.832 195.5 220.441C195.609 221.166 195.668 222.639 195.625 223.734C195.582 224.829 195.542 225.947 195.537 226.225C195.494 227.321 194.423 228.477 191.553 230.552C189.969 231.669 187.666 233.219 186.443 233.981C181.001 237.344 167.597 243.406 167.471 242.568C167.454 242.455 167.874 241.72 168.393 240.878C169.588 239.008 169.811 238.188 169.549 236.443C169.366 235.22 169.387 235.055 169.765 235.114C173.277 235.63 175.2 234.16 174.769 231.284L174.633 230.378L175.983 230.777C176.707 230.993 177.669 231.104 178.097 231.04C179.968 230.759 183.026 227.637 183.101 225.982C183.129 224.935 182.75 223.95 181.887 222.805C181.513 222.305 181.216 221.864 181.235 221.837C181.277 221.808 181.794 221.568 182.379 221.319C182.986 221.065 184.089 220.576 184.866 220.228C185.836 219.781 186.724 219.556 187.749 219.472C188.571 219.418 190.368 219.264 191.731 219.13Z" fill="black"/>
<path d="M104.051 96.9858L104.356 99.0245L103.499 99.4542C103.027 99.6871 101.457 100.131 100.005 100.441L97.3917 100.995L97.3062 99.5021C97.2517 98.6765 97.2601 97.6562 97.3342 97.2282C97.4386 96.5408 97.5186 96.4594 98.3752 96.331C98.8937 96.2533 99.8166 95.9528 100.398 95.6804C101.006 95.4272 102 95.1393 102.612 95.0707L103.745 94.9471L104.051 96.9858Z" fill="#FEFFBB"/>
<path d="M111.687 94.2664C111.765 95.2506 111.803 96.4262 111.778 96.8701C111.739 97.6865 111.739 97.6866 110.563 97.8396C109.069 98.0172 108.664 97.7768 108.506 96.5729C108.288 94.9612 108.571 94.0849 109.588 93.3304C110.085 92.9548 110.749 92.6235 111.043 92.5796C111.584 92.4985 111.587 92.5212 111.687 94.2664Z" fill="#FEFFBB"/>
<path d="M116.42 93.395C117.316 93.3765 118.167 93.3648 118.325 93.3412C118.55 93.3074 118.63 93.6891 118.721 95.0651C118.777 96.0527 118.758 97.0051 118.644 97.1613C118.539 97.3854 117.718 97.601 116.005 97.8578L113.526 98.2294L113.385 96.2123C113.177 93.441 113.189 93.3696 114.069 93.3998C114.485 93.407 115.546 93.4101 116.42 93.395Z" fill="#FEFFBB"/>
<path d="M103.582 101.549C103.667 101.652 103.627 101.844 103.524 101.929C103.197 102.209 98.7405 104.151 98.2897 104.219C97.9741 104.266 97.2803 103.328 97.1921 102.739C97.1411 102.399 103.306 101.243 103.582 101.549Z" fill="#FEFFBB"/>
<path d="M111.258 113.856L113.554 113.488L113.642 114.077C113.795 115.097 114.562 115.908 115.715 116.222C116.294 116.39 116.795 116.662 116.822 116.843C116.85 117.024 116.533 117.836 116.101 118.642C115.691 119.445 114.927 121.111 114.424 122.368L113.519 124.634L113.088 123.911C112.493 122.865 112.032 122.865 111.337 123.919L110.731 124.797L110.385 124.177C110.064 123.577 109.945 123.548 108.885 123.707L107.758 123.876L107.562 123.026C107.385 122.311 107.275 122.188 106.675 122.186L105.982 122.174L105.484 119.006C105.223 117.261 104.875 115.553 104.711 115.231L104.436 114.623L106.688 114.425C107.938 114.307 109.977 114.071 111.258 113.856Z" fill="#545151"/>
<path d="M146.343 80.9892C146.985 81.8889 147.411 83.6548 147.175 84.3851C146.724 85.6803 145.117 85.8748 143.664 84.7955C142.29 83.7739 142.36 82.3969 143.833 81.157C144.817 80.3379 145.822 80.2798 146.343 80.9892Z" fill="#9FA05C"/>
<path d="M143.331 91.4926C143.347 94.0611 142.621 96.1386 141.329 97.0502C140.579 97.5796 138.211 98.6988 137.648 98.7832C137.512 98.8035 137.356 98.5259 137.305 98.1861C137.108 96.8723 137.869 93.9557 139.466 89.8484L140.212 87.9068L141.775 89.1086L143.312 90.291L143.331 91.4926Z" fill="#9FA05C"/>
<path d="M185.149 108.317C185.299 108.549 185.504 109.144 185.578 109.642C185.758 110.843 185.218 111.387 182.597 112.66C179.95 113.914 177.873 114.665 174.697 115.465C171.476 116.272 163.682 117.788 163.452 117.637C163.352 117.583 163.104 116.855 162.889 116.031L162.507 114.559L163.704 114.241C164.37 114.072 166.748 113.484 169.02 112.958C174.407 111.687 178.617 110.408 181.516 109.139C184.372 107.901 184.752 107.821 185.149 108.317Z" fill="white"/>
<path d="M198.147 229.031C200.069 230.318 200.199 231.804 198.561 233.485C196.543 235.548 185.242 243.495 181.421 245.527C179.032 246.811 172.931 249.162 170.787 249.622C169.226 249.972 169.042 249.976 168.849 249.611C168.748 249.395 168.075 248.291 167.335 247.198C166.226 245.488 166.082 245.139 166.322 244.895C166.482 244.732 167.549 244.317 168.652 243.989C176.032 241.864 189.674 234.47 195.282 229.599C195.993 228.96 196.721 228.434 196.856 228.413C197.014 228.39 197.609 228.671 198.147 229.031Z" fill="#BABABA"/>
<path d="M141.429 241.816C144.465 241.616 144.959 241.681 153.418 243.377C156.437 243.99 159.985 244.594 161.32 244.741C164.15 245.012 164.631 245.148 164.713 245.692C164.743 245.896 165.393 247.002 166.159 248.115C166.906 249.254 167.494 250.254 167.414 250.336C167.088 250.778 165.038 251.248 159.425 252.089L153.226 253.018L147.801 252.187C140.535 251.075 139.001 250.68 138.171 249.6C137.48 248.684 136.339 246.146 135.82 244.37C135.247 242.395 135.678 242.191 141.429 241.816Z" fill="#BABABA"/>
<path d="M122.85 241.798C128.941 242.298 133.993 242.791 134.103 242.914C134.214 243.036 134.502 244.035 134.729 245.09C134.96 246.167 135.475 247.757 135.878 248.6C136.96 251.055 136.995 250.981 135 251.511C134.044 251.747 131.353 252.243 128.986 252.598C122.739 253.511 120.145 253.274 116.624 251.463C113.403 249.815 110.763 247.269 110.099 245.145C109.706 243.907 110.488 241.126 111.277 241.008C111.57 240.964 116.786 241.317 122.85 241.798Z" fill="#BABABA"/>
<path d="M168.401 215.863C169.093 216.176 170.59 217.087 171.714 217.822C172.841 218.579 175.035 219.987 176.583 220.937C180.158 223.111 181.297 224.098 181.443 225.072C181.623 226.273 181.271 226.997 179.993 228.161C177.378 230.545 176.246 230.066 167.839 223.035C164.676 220.382 162.554 218.986 161.291 218.712C160.41 218.52 160.556 218.266 162.091 217.434C162.813 217.025 163.891 216.377 164.479 215.988C165.838 215.066 166.709 215.028 168.401 215.863Z" fill="#313E4A"/>
<path d="M159.889 219.964C160.793 220.153 162.063 220.634 162.721 221.022C165.205 222.526 170.687 227.425 172.059 229.35C172.437 229.873 172.869 230.758 173.041 231.288C173.632 233.237 172.229 234.328 170.07 233.609C168.951 233.221 166.096 231.703 161.828 229.216C160.06 228.184 157.927 227.021 157.086 226.638C156.222 226.258 155.517 225.854 155.496 225.718C155.428 225.265 157.862 219.666 158.155 219.622C158.2 219.615 158.981 219.753 159.889 219.964Z" fill="#313E4A"/>
<path d="M151.916 229.358C153.991 229.673 161.476 232.095 163.906 233.236C166.112 234.272 167.695 235.447 168.056 236.32C168.663 237.757 167.893 239.54 165.664 241.89L164.548 243.053L162.885 243.186C161.222 243.319 160.68 243.239 148.438 240.904C144.215 240.101 141.338 239.977 137.889 240.493L135.744 240.792L137.041 239.138C139.007 236.574 144.266 231.987 147.376 230.131C148.833 229.241 149.979 229.046 151.916 229.358Z" fill="#313E4A"/>
<path d="M133.761 219.41C133.92 219.548 134.242 220.311 134.496 221.083C135.124 223.12 136.842 230.274 136.749 230.427C136.689 230.482 135.57 230.094 134.244 229.552C132.918 229.009 130.766 228.336 129.455 228.046C127.237 227.545 126.444 227.177 126.359 226.611C126.295 226.18 127.079 223.724 127.553 222.888C128.599 220.948 132.852 218.574 133.761 219.41Z" fill="#313E4A"/>
<path d="M128.333 229.326C130.509 229.695 133.282 230.669 135.189 231.703C136.817 232.571 139.001 234.073 139.035 234.3C139.049 234.39 138.381 235.162 137.562 236.003C136.282 237.306 135.259 238.78 134.353 240.583C134.163 241.006 134.05 241.022 131.961 240.919C130.058 240.833 123.858 240.373 116.439 239.771C113.313 239.521 113.313 239.521 113.751 237.371C114.575 233.333 116.046 231.77 120.432 230.278C123.281 229.296 126.225 228.947 128.333 229.326Z" fill="#313E4A"/>
<path d="M156.892 228.265C157.723 228.581 158.664 229.019 159.017 229.221L159.652 229.612L159.065 229.538C158.152 229.443 154.289 228.123 154.065 227.855C153.697 227.401 155.324 227.643 156.892 228.265Z" fill="#313E4A"/>
<path fill-rule="evenodd" clip-rule="evenodd" d="M121.848 57.0291C125.571 57.4207 129.09 59.3715 131.052 62.1579L132.079 63.6253L128.498 69.2575L124.913 74.867L121.428 76.9875C117.523 79.3793 116.62 79.8157 115.733 79.7402C114.446 79.6089 111.279 76.9336 109.588 74.5698C109.057 73.7925 108.914 73.3042 108.493 70.4954C108.035 67.4373 108.03 67.2527 108.475 65.9122C109.864 61.6508 112.619 58.806 116.667 57.3656C117.522 57.0752 120.351 56.8828 121.848 57.0291ZM121.024 69.5207C120.912 68.7732 121.517 66.9685 121.951 66.7877C122.966 66.3344 124.261 66.673 125.136 67.5843C125.87 68.3312 125.814 69.0344 124.913 70.0959C123.973 71.2095 122.914 71.3682 121.854 70.6007C121.439 70.2923 121.064 69.7925 121.024 69.5207Z" fill="#FFE8E8"/>
<path fill-rule="evenodd" clip-rule="evenodd" d="M83.3825 75.1852C86.143 75.3042 88.6404 76.4354 90.3639 78.4005C91.9509 80.224 92.6891 81.92 93.1237 84.8195C93.3206 86.1333 93.4137 87.3701 93.3248 87.5455C93.1728 87.9157 93.3081 87.8954 85.9803 87.9051C81.8988 87.8915 75.7591 88.1399 74.3165 88.3561C72.9189 88.5656 72.7293 88.2234 72.9466 85.8284C73.1784 83.2228 74.4475 79.2342 75.469 77.8998C75.9128 77.3238 76.7104 76.6484 77.3719 76.2945C78.6531 75.6161 81.4347 75.1065 83.3825 75.1852ZM80.7324 84.5689C80.0939 83.6918 80.1789 82.5674 80.9268 81.7141C81.614 80.9163 81.5497 80.9491 82.6984 81.078C83.7794 81.2171 84.6332 81.9924 84.7758 82.9438C85.01 84.5068 83.1961 85.9368 81.664 85.4021C81.4182 85.2999 80.993 84.9236 80.7324 84.5689Z" fill="#FFE8E8"/>
<path d="M132.948 67.7336C133.134 71.4347 132.485 74.3344 131.025 76.4293C130.132 77.6981 129.632 77.7498 128.483 76.6945C126.827 75.1823 126.817 75.1144 127.673 73.5964C129.165 70.9409 132.652 65.6009 132.791 65.7652C132.817 65.7845 132.882 66.678 132.948 67.7336Z" fill="#FFE8E8"/>
<path d="M79.1134 89.6059C88.5882 89.1587 92.981 89.4036 93.872 90.4282C94.48 91.1014 94.741 94.0732 94.3271 95.6175C93.9571 96.9932 92.77 98.6071 91.3785 99.6263C90.3622 100.381 90.076 100.47 87.9086 100.772C85.9215 101.046 85.2768 101.05 83.8913 100.725C79.5285 99.7578 75.9675 97.3732 74.3549 94.3028C73.7794 93.231 72.9268 90.4637 73.0855 90.1388C73.206 89.8659 72.6131 89.9085 79.1134 89.6059Z" fill="#D7DFF4"/>
<path d="M127.379 77.7864C129.652 79.8777 130.852 81.2728 130.943 81.8844C131.049 82.5867 129.461 84.9091 127.841 86.4026C124.889 89.1611 121.362 90.8478 117.176 91.5215C114.767 91.9056 114.49 91.9008 113.323 91.4967C111.642 90.8916 106.974 88.3487 107.095 88.0759C107.316 87.5562 124.743 76.6528 125.551 76.5085C125.754 76.4781 126.577 77.0496 127.379 77.7864Z" fill="#D7DFF4"/>
<path d="M122.132 92.9095C123.99 93.928 125.287 94.8917 125.355 95.3448C125.389 95.5713 125.082 95.9878 124.605 96.3373C123.665 96.9877 120.266 98.6088 119.59 98.7102C119.184 98.771 119.213 98.651 119.777 97.8021C120.357 96.9045 120.41 96.6418 120.307 95.0359C120.21 93.3133 120.342 92.344 120.725 92.2866C120.815 92.2731 121.455 92.5477 122.132 92.9095Z" fill="#571621"/>
<path d="M107.138 96.8242C107.654 99.341 107.731 99.3989 110.22 99.3964C111.21 99.3871 112.243 99.5103 112.563 99.6476C112.935 99.8234 113.808 99.8083 115.322 99.6046C118.939 99.132 116.191 99.8681 110.47 100.911C104.862 101.937 104.885 101.933 105.511 99.9632C105.716 99.3303 105.801 98.2059 105.74 97.3349C105.57 94.9747 105.604 94.7381 106.204 94.7408C106.665 94.7412 106.73 94.8704 107.138 96.8242Z" fill="#571621"/>
<path d="M103.582 101.549C103.667 101.652 103.627 101.844 103.524 101.929C103.197 102.209 98.7405 104.151 98.2897 104.219C97.9741 104.266 97.2803 103.328 97.1921 102.739C97.1411 102.399 103.306 101.243 103.582 101.549Z" fill="#571621"/>
<path d="M127.257 97.121C127.841 97.9369 127.992 99.5587 127.563 100.851C126.639 103.606 122.589 106.414 116.809 108.299C114.899 108.932 113.177 109.283 108.534 109.979L102.673 110.858L99.9604 110.291C98.4622 109.983 97.0665 109.59 96.859 109.436C96.4993 109.189 96.524 109.046 96.9406 108.289C97.7198 106.875 99.3793 105.491 101.08 104.843C101.935 104.552 105.269 103.728 108.529 103.031C118.987 100.839 122.875 99.5612 125.671 97.4515C126.831 96.5827 126.854 96.5793 127.257 97.121Z" fill="#A2060F"/>
<path d="M180.276 116.552C180.919 117.613 183.396 124.607 184.11 127.372C184.99 130.784 185.053 132.28 184.409 134.137C183.289 137.269 180.531 139.628 173.682 143.295C168.349 146.156 166.912 147.182 165.467 149.228C164.781 150.188 163.513 151.721 162.636 152.64C160.522 154.833 159.897 155.737 159.417 157.454C158.817 159.605 159.218 161.05 161.475 164.881C162.438 166.543 163.217 168.048 163.177 168.239C163.092 168.599 162.115 169 160.763 169.203L159.816 169.345L158.35 166.947C156.947 164.656 155.253 161.042 155.09 159.955C154.971 159.162 154.555 159.155 154.513 159.949C154.428 161.073 155.359 163.597 157.054 166.91L158.622 169.987L157.9 170.095C156.773 170.264 154.901 169.92 153.774 169.324C151.975 168.389 151.082 166.74 149.887 162.148C148.894 158.29 148.363 158.902 149.008 163.206C149.408 165.717 149.51 166.095 150.659 168.378C151.801 170.616 151.887 170.881 151.597 171.249C151.332 171.636 151.19 171.611 149.949 171.171C148.145 170.515 146.535 169.158 145.091 167.059C144.003 165.485 143.605 164.525 142.475 160.827L142.322 160.27L142.109 160.997C141.782 162.204 142.029 164.159 142.678 165.567C142.993 166.284 143.976 167.921 144.866 169.246C146.082 171.056 146.413 171.724 146.23 171.891C146.086 172.005 145.311 172.214 144.544 172.329C143.237 172.525 143.024 172.487 142.417 171.976C141.454 171.24 139.561 168.605 137.918 165.794C136.432 163.261 135.567 161.329 135.046 159.392C134.094 155.806 136.007 153.504 142.619 150.406C147.142 148.292 149.119 147.185 152.064 145.145C156.538 142.089 159.168 139.495 164.851 132.505C165.959 131.135 167.893 128.969 169.147 127.646C171.722 124.99 172.201 124.34 172.403 123.383C172.681 122.16 172.504 122.21 171.261 123.762C170.546 124.68 169.275 125.89 168.131 126.71L166.22 128.108L166.057 127.021C165.965 126.409 165.47 124.491 164.954 122.739C164.435 120.964 164.069 119.444 164.145 119.34C164.241 119.21 166.784 118.643 169.784 118.055C172.806 117.463 175.864 116.796 176.594 116.594C177.321 116.369 178.345 116.123 178.882 116.019C179.781 115.862 179.881 115.916 180.276 116.552Z" fill="#1FE4FF"/>
<path d="M135.206 124.627C138.59 128.752 142.718 135.846 143.058 138.111C143.214 139.153 143.163 139.276 141.82 141.076C139.564 144.17 134.227 148.699 128.183 152.662C122.961 156.108 121.492 156.768 115.874 158.189L112.656 159.019L112.106 159.958C111.813 160.465 110.758 162.036 109.817 163.451C106.734 167.943 106.329 169.394 107.424 171.777C108.453 174.032 109.406 175.163 111.578 176.737C114.68 178.982 115.125 179.332 115.71 180.008C117.053 181.591 116.242 182.639 113.175 183.237C111.453 183.588 111.198 183.58 110.54 183.192C109.482 182.586 107.332 180.083 105.034 176.745C102.912 173.658 102.025 171.892 101.767 170.17C101.61 169.128 101.202 168.402 100.953 168.74C100.72 169.03 101.434 173.023 101.893 174.089C102.113 174.635 103.253 176.548 104.382 178.394C105.531 180.214 106.575 181.957 106.713 182.26C106.933 182.806 106.914 182.832 105.787 183.001C104.434 183.204 103.64 182.976 102.488 182.059C100.478 180.485 99.5362 178.356 98.6078 173.238C98.221 171.118 97.821 169.372 97.7308 169.385C97.6407 169.399 97.4439 170.239 97.2934 171.234C96.978 173.436 97.2635 175.802 98.1714 178.63C98.5147 179.69 98.7508 180.651 98.6742 180.755C98.4411 181.045 94.2483 177.828 93.4147 176.726C92.8935 176.016 92.503 175.102 92.1155 173.747C91.4592 171.368 91.4291 169.936 92.01 168.737C92.5684 167.542 92.4149 167.287 91.5981 167.988C90.3262 169.036 90.2826 169.668 90.9999 174.146C91.6187 177.968 91.6492 178.172 91.2435 178.232C90.5672 178.334 89.2253 177.377 88.5924 176.383C88.0768 175.557 88.0135 175.289 87.9843 173.556C87.9893 172.513 87.7073 170.17 87.3872 168.342L86.8171 164.999L87.717 163.776L88.636 162.526L93.4149 161.81C98.081 161.111 98.2579 161.061 99.9245 160.186C102.956 158.573 105.139 156.532 109.796 150.855C115.707 143.692 116.664 142.854 124.945 137.513L128.349 135.312L128.141 133.931C127.873 132.141 126.83 128.87 125.744 126.392C125.259 125.307 124.858 124.324 124.834 124.166C124.773 123.758 125.462 123.585 129.616 123.009L133.452 122.457L135.206 124.627Z" fill="#1FE4FF"/>
<path d="M178.154 171.599C179.245 172.108 180.701 172.908 181.391 173.361L182.642 174.169L180.792 177.666C177.893 183.08 177.244 185.054 176.755 189.944L176.567 191.918L175.183 190.527C173.367 188.715 171.176 187.167 168.973 186.154C166.974 185.273 166.765 184.956 166.673 182.955C166.56 180.355 167.484 178.526 171.772 172.996C172.64 171.87 173.431 170.686 173.499 170.375L173.624 169.823L174.885 170.237C175.586 170.456 177.061 171.069 178.154 171.599Z" fill="#1FE4FF"/>
<path fill-rule="evenodd" clip-rule="evenodd" d="M111.215 35.1373C111.648 35.7209 112.211 36.4009 112.474 36.6162C112.954 37.0538 112.951 37.0311 112.677 35.8214C112.508 35.152 112.283 34.4213 112.159 34.2083C111.973 33.8888 112.079 33.8266 112.958 33.6949C114.152 33.5158 114.606 33.7721 115.35 35.0502L115.873 35.9215L115.799 34.6587L115.725 33.396L116.855 33.2497C119.789 32.8332 121.114 33.2137 121.311 34.5275C121.446 35.4336 121.823 35.3309 122.124 34.2666C122.376 33.4877 122.479 33.4028 123.124 33.3988C123.933 33.4165 127.007 34.0907 127.367 34.3378C127.493 34.4116 127.39 35.2608 127.108 36.2991C126.822 37.3147 126.677 38.1933 126.777 38.2478C126.859 38.3283 127.479 37.7025 128.163 36.8821C128.847 36.0616 129.506 35.3838 129.618 35.3669C129.757 35.3693 130.721 35.8038 131.792 36.3381L133.741 37.3432L132.889 38.5825C132.057 39.7958 131.908 40.1886 131.708 41.4693C131.567 42.3706 132.093 42.037 133.537 40.292L134.905 38.651L135.758 39.4264L136.631 40.1757L136.045 41.4911C135.715 42.2122 135.468 42.8745 135.479 42.9425C135.516 43.1916 135.988 42.9588 136.76 42.2641C137.186 41.876 137.674 41.5944 137.845 41.6614C138.586 41.9904 142.247 48.2742 143.689 51.7408C145.258 55.4431 148.3 65.5949 147.968 65.9921C147.888 66.0736 147.261 66.3528 146.56 66.5968C144.876 67.1967 142.967 68.4555 142.3 69.3893C141.653 70.297 141.952 70.2984 143.661 69.3938C145.112 68.6204 148.679 67.97 148.754 68.4684C148.873 69.2612 148.351 71.007 147.773 71.7653C147.195 72.5236 146.938 72.6547 144.841 73.2702C142.058 74.0809 141.329 74.4449 140.123 75.6217C137.614 78.1054 136.8 82.211 138.233 85.3084C139.164 87.3692 139.131 87.7678 137.784 90.7722C136.278 94.1016 135.649 96.2108 135.689 97.7103C135.722 98.7012 135.574 99.0941 134.557 100.613C133.474 102.304 132.986 103.512 132.909 104.844C132.779 107.202 129.031 110.798 123.08 114.307C119.774 116.239 119.221 116.391 117.79 115.61C117.165 115.286 116.362 114.851 115.994 114.698C115.551 114.509 115.274 114.203 115.22 113.841C115.084 112.935 114.563 112.225 114.002 112.171C113.698 112.147 112.487 112.212 111.308 112.343C110.129 112.473 108.163 112.582 106.967 112.6L104.778 112.603L108.245 111.898C119.212 109.722 125.092 107.127 128.074 103.183C129.168 101.722 129.404 100.829 129.139 99.0626C128.684 96.0272 127.029 93.7506 124.317 92.4199C123.722 92.1386 123.21 91.7984 123.193 91.6851C123.176 91.5719 123.695 91.1929 124.334 90.8424C127.185 89.2571 130.058 86.742 131.528 84.5531C132.752 82.7251 132.794 81.9313 131.865 80.1944L131.166 78.9096L132.335 77.0205C132.985 75.9735 133.722 74.5891 133.968 73.9268C134.435 72.583 134.608 69.4303 134.302 67.2297C133.883 64.2815 133.991 63.6168 135.188 61.6077C135.773 60.5935 137.013 58.7169 137.903 57.4255L139.517 55.1222L141.059 55.2617C142.765 55.4229 143.319 55.2704 143.22 54.6135C143.142 54.0925 142.754 53.9653 140.544 53.6713L138.782 53.449L137.544 55.1863C136.862 56.1687 135.577 58.052 134.694 59.3887L133.078 61.8313L132.141 60.8135C131.641 60.24 130.346 59.1371 129.257 58.3275C126.034 55.8923 122.575 55.1136 118.154 55.7531C113.645 56.4287 110.713 58.3968 108.3 62.4411C106.622 65.2403 106.334 67.6227 107.103 71.6765C107.864 75.523 108.516 76.4907 112.741 79.7717C113.838 80.6265 114.487 81.2703 114.369 81.4038C114.273 81.534 113.118 82.2861 111.832 83.0812L109.447 84.5502L108.327 84.3013C106.564 83.917 104.517 82.255 103.422 80.3346C102.39 78.5206 101.928 78.3583 102.404 80.0008C103.023 82.1315 103.936 83.4539 105.67 84.7226L107.301 85.9142L106.294 86.5747L105.286 87.2352L103.078 86.0374C101.871 85.3615 100.166 84.5978 99.3194 84.331C97.4288 83.7111 96.9724 83.8953 95.8869 85.7256L95.1392 87.042L94.6067 84.4119C94.0607 81.6913 93.3889 79.8233 92.3296 78.2913C91.5309 77.1139 89.2213 75.2366 87.7172 74.5819C83.9357 72.8789 78.219 73.643 74.4739 76.3351L73.6401 76.9233L73.0334 76.412C71.9722 75.4825 72.0562 74.6592 73.3267 72.9865C75.3473 70.3213 77.7541 68.8488 80.8874 68.3792C83.3895 68.0042 83.9317 68.0851 84.0471 68.8553C84.1354 69.4442 84.1839 69.4601 84.9108 69.2354C85.6151 69.014 85.7865 69.081 86.9277 69.929C87.6054 70.4528 88.8381 71.4493 89.6816 72.1567C90.5026 72.8674 91.1634 73.2779 91.1362 73.0967C91.0547 72.5531 89.1519 70.3137 87.441 68.7403C86.1328 67.5467 85.8722 67.1921 85.7533 66.3992C85.5441 65.1567 84.6833 63.8729 83.4158 62.9511L82.3592 62.2062L82.8244 59.774C83.0626 58.4413 83.2276 57.2354 83.1621 57.1062C83.0019 56.806 81.6059 59.7945 80.9567 61.7679L80.4842 63.2284L81.8993 64.0585C84.0462 65.3117 85.4359 67.049 84.1643 66.869C81.3179 66.4849 79.9744 66.5936 77.5176 67.4251C76.9034 67.6329 76.935 67.5356 77.95 66.6191C79.4675 65.2105 80.141 64.3221 80.0663 63.8237C80.0324 63.5972 79.6375 62.9615 79.166 62.43C78.0143 61.0508 77.8773 59.9828 78.6293 58.3877C78.9941 57.5919 79.6169 56.8269 80.3921 56.1549C82.4234 54.4839 82.059 54.0521 79.8394 55.5429C76.6992 57.6579 75.7698 60.5302 77.4204 63.0854C78.2259 64.308 78.2453 64.7451 77.5963 65.0277C77.2717 65.169 76.6399 66.028 75.9722 67.263C75.3777 68.3712 74.5522 69.6298 74.1365 70.0858C73.7175 70.5192 73.0767 71.4722 72.695 72.1548C72.3167 72.86 71.918 73.4293 71.8053 73.4461C71.2192 73.534 70.8115 66.5078 71.2724 64.3542C71.8018 61.8892 73.3645 58.783 75.7094 55.5133L77.847 52.5526L79.3891 52.692C80.2345 52.7969 81.2727 52.8035 81.6784 52.7427L82.4189 52.6085L81.81 52.2366C81.483 52.054 80.7367 51.8416 80.1719 51.7641L79.1427 51.6635L79.5797 51.0422C80.278 50.0111 84.3079 46.6046 84.5706 46.82C84.645 46.8552 84.8821 47.5145 85.1328 48.2644C85.7888 50.1811 86.1279 49.8292 85.9101 47.4531L85.7376 45.5334L87.9292 44.1627L90.0982 42.7953L90.6339 43.2941C91.1143 43.7316 91.1776 44.0001 91.28 45.606C91.3858 47.2346 91.4355 47.4124 91.7104 47.0933C92.0652 46.6927 92.5891 44.3444 92.4838 43.6422C92.4431 43.3703 92.2208 42.9636 92.0065 42.7641C91.4155 42.2042 91.4662 42.0808 92.3799 41.4111C93.8807 40.3524 94.4455 40.4299 95.8722 41.9531C96.1745 42.2784 96.1801 42.1618 95.918 41.182C95.5463 39.7785 95.6838 39.6189 98.395 38.3325C100.759 37.1907 100.965 37.1829 101.088 37.9984C101.149 38.4062 101.452 38.8934 101.871 39.2244L102.552 39.7708L102.288 38.9303C101.989 37.8633 102.16 37.0039 102.789 36.5854C103.251 36.2846 108.91 34.3709 109.918 34.1736C110.298 34.0935 110.609 34.3248 111.215 35.1373ZM91.2885 56.1199C92.2604 54.6078 93.2807 53.1115 93.5589 52.815C94.2337 52.0885 94.7521 52.0108 94.5248 52.6471C94.2852 53.3547 91.7259 58.1157 90.7834 59.6698C90.3183 60.4112 90.0233 61.0576 90.0786 61.1188C90.1564 61.1766 92.0877 59.9144 94.358 58.3002C99.9251 54.3855 100.882 53.8484 103.652 53.1089C106.203 52.4486 107.373 52.4122 107.023 52.9974C106.915 53.1989 106.337 53.494 105.784 53.6464C103.95 54.176 101.834 55.2806 98.8154 57.2848C92.4831 61.4764 91.8284 61.8756 90.395 62.461C89.1385 62.9967 88.6877 63.0643 87.4365 63.0202C85.2599 62.9527 82.8236 62.2293 82.7319 61.6176C82.7183 61.527 83.2436 61.4946 83.8726 61.5393C85.427 61.6075 87.1726 60.9521 88.4986 59.8038C89.0687 59.3014 90.32 57.6547 91.2885 56.1199ZM107.239 58.13C108.345 54.7448 111.829 51.5361 115.624 50.4113C118.648 49.5181 122.182 49.5675 125.187 50.553C127.052 51.1537 131.096 54.2998 132.464 56.2024C134.061 58.395 133.858 58.8886 132.145 56.9914C129.226 53.8157 125.219 51.6833 121.845 51.4709C119.797 51.3378 116.122 51.8885 114.383 52.5892C111.6 53.7012 109.398 55.7683 107.799 58.7873C106.922 60.4705 106.59 60.1033 107.239 58.13ZM73.0469 61.1236C73.3171 60.6199 74.0808 59.7179 74.7083 59.1375C76.4815 57.4358 76.5988 57.6035 75.3706 60.1732C74.596 61.7716 74.5805 62.2834 75.2484 63.2024C75.509 63.5571 75.6772 64.0646 75.6346 64.3953C75.5573 65.2638 73.8644 67.3473 72.9516 67.7157C71.8619 68.1338 71.9045 67.8031 73.086 66.3058C74.1684 64.9161 74.1876 64.8901 73.1258 63.0342L72.5605 62.0303L73.0469 61.1236Z" fill="#1FE4FF"/>
<path fill-rule="evenodd" clip-rule="evenodd" d="M149.361 71.5968C149.279 72.2807 148.962 73.3937 148.67 74.0627L148.115 75.2808L149.755 77.606C151.665 80.3539 152.313 82.0633 152.294 84.2433C152.284 86.0281 151.95 87.0278 151.114 87.7553C150.134 88.597 146.684 88.952 144.83 88.4193C143.43 88.0036 141.225 86.6665 140.237 85.6102C138.518 83.8296 138.625 80.0846 140.493 77.3264C141.491 75.8335 142.287 75.2974 145.016 74.2861C146.283 73.8184 147.552 73.2113 147.859 72.9567C148.513 72.3956 149.353 70.9263 149.278 70.428C149.251 70.2468 149.305 70.146 149.386 70.2265C149.464 70.2843 149.462 70.8868 149.361 71.5968ZM141.451 81.5604C141.629 81.2095 142.291 80.5543 142.89 80.0939C144.721 78.7773 146.662 78.8106 147.656 80.2135C147.939 80.5648 148.292 81.5311 148.485 82.3591C148.909 84.2643 148.571 85.7045 147.494 86.5144C146.811 87.0337 146.609 87.0641 145.422 86.9872C142.37 86.7728 140.227 83.8515 141.451 81.5604Z" fill="#1FE4FF"/>
<path d="M100.244 86.3465C103.547 87.9359 109.026 91.1216 109.106 91.5033C109.202 92.1376 108.179 92.5456 105.455 92.977C104.013 93.1932 102.271 93.57 101.612 93.7846C99.1936 94.564 97.0207 94.9823 96.7996 94.7375C96.6857 94.5924 96.3343 93.3249 95.9852 91.918L95.3919 89.3434L96.2242 88.1301C96.6769 87.4601 97.1927 86.5953 97.3446 86.2251C97.5191 85.8515 97.8165 85.529 98.0194 85.4986C98.1997 85.4716 99.202 85.8541 100.244 86.3465Z" fill="#1FE4FF"/>
<path d="M133.123 157.017C133.24 157.185 133.106 158.594 132.875 160.134C132.189 164.476 132.712 167.964 134.362 170.056C135.215 171.133 136.105 171.532 137.708 171.616C138.895 171.693 138.995 171.747 139.239 172.452C139.99 174.54 143.728 193.945 143.944 196.923C144.118 199.167 143.983 199.65 143.177 199.956C142.83 200.101 139.697 200.733 136.175 201.376L129.785 202.566L128.546 201.524C127.024 200.293 125.317 197.978 124.184 195.646C123.719 194.697 122.553 191.837 121.599 189.317C120.62 186.777 118.92 182.816 117.809 180.481C114.402 173.279 114.201 172.707 113.257 167.637C112.447 163.312 112.413 163.085 112.735 162.157C113.322 160.54 113.517 160.303 114.669 159.991C115.689 159.722 125.447 157.936 130.644 157.087C132.508 156.762 132.992 156.759 133.123 157.017Z" fill="#E43D19"/>
<path d="M142.777 202.518C142.934 202.795 143.53 205.393 144.104 208.294C146.917 222.302 147.79 226.433 147.991 227.005C148.189 227.555 148.135 227.655 147.082 228.323C146.473 228.715 144.85 229.885 143.488 230.946C142.122 231.984 140.849 232.87 140.646 232.9C139.655 233.049 138.771 231.305 137.599 226.872C136.359 222.286 135.376 217.57 134.108 210.186L132.964 203.479L137.743 202.763C142.477 202.053 142.522 202.046 142.777 202.518Z" fill="#E43D19"/>
<path d="M135.847 165.201C136.561 166.577 137.407 168.071 137.726 168.51C138.489 169.6 138.467 169.765 137.588 169.897C136.574 170.049 135.379 169.302 134.9 168.262C134.513 167.37 133.719 162.533 133.929 162.246C134.121 161.986 134.388 162.386 135.847 165.201Z" fill="#E43D19"/>
<path d="M110.923 165.138C111.736 169.023 112.526 171.985 113.242 173.847C113.736 175.139 114.063 176.248 113.983 176.33C113.676 176.584 111.842 175.423 110.98 174.441C108.893 172.044 108.117 170.098 108.604 168.427C108.946 167.172 110.15 165.208 110.601 165.14C110.781 165.113 110.92 165.116 110.923 165.138Z" fill="#E43D19"/>
<path d="M139.606 252.72C140.86 252.625 142.501 252.657 143.253 252.753L144.595 252.945L144.952 255.324L145.305 257.679L144.584 257.788C139.982 258.454 127.129 259.894 125.705 259.922C123.493 259.929 122.882 259.697 122.371 258.592C121.866 257.533 121.849 255.729 122.32 255.334C122.734 255.017 136.275 252.941 139.606 252.72Z" fill="#9385B9"/>
<path d="M185.993 245.282C186.466 245.512 187.083 247.017 187.055 247.902C187.055 248.365 186.952 249.214 186.827 249.766L186.612 250.794L180.148 251.647C176.599 252.109 170.792 252.887 167.266 253.346L160.869 254.189L161.557 257.699L162.267 261.206L159.226 261.522C157.547 261.704 154.51 262.044 152.445 262.261C150.384 262.5 148.451 262.674 148.17 262.647L147.609 262.592L147.047 258.229C146.706 255.802 146.494 253.772 146.552 253.694C146.609 253.616 147.571 253.727 148.707 253.927C152.213 254.56 155.187 254.415 161.366 253.35C169.566 251.936 176.452 249.746 182.406 246.722L182.592 246.628C185.556 245.115 185.603 245.09 185.993 245.282Z" fill="#9385B9"/>
<path d="M164.846 154.463C165.968 156.263 167.331 159.973 167.712 162.209C168.228 165.189 168.06 165.608 162.766 174.114C157.715 182.236 156.353 184.687 155.661 186.991C155.089 188.86 155.255 189.97 157.014 196.632C159.638 206.453 160.772 209.711 162.502 212.485C163.259 213.692 163.407 214.064 163.239 214.483C163.046 215.044 161.315 216.253 159.022 217.408C158.228 217.804 157.289 218.455 156.953 218.829C156.617 219.204 155.721 220.913 154.918 222.632C153.288 226.211 152.832 226.859 151.656 227.313C150.373 227.829 149.843 227.677 149.566 226.746C148.941 224.732 146.048 210.504 145.229 205.346L144.624 201.616L145.151 200.518L145.677 199.419L144.842 193.384C144.391 190.07 143.618 185.368 143.119 182.965C142.598 180.565 141.951 177.326 141.627 175.777L141.067 172.965L141.913 173.534C142.373 173.835 143.268 174.882 143.894 175.831C145.175 177.77 146.487 178.986 147.718 179.357C149.987 180.036 158.775 177.468 160.038 175.75C160.402 175.256 160.394 175.049 160.057 173.57C159.758 172.341 159.732 171.859 159.923 171.599C160.054 171.394 160.998 170.928 162.001 170.546C163.004 170.164 164.103 169.652 164.436 169.417C164.975 169.012 165.006 168.914 164.77 167.954C164.614 167.375 163.767 165.719 162.879 164.254C161.537 162.069 161.171 161.313 160.906 160.01C160.548 158.234 160.675 157.543 161.701 155.93C162.3 155.007 163.707 153.475 164.022 153.428C164.112 153.415 164.48 153.869 164.846 154.463Z" fill="#F2E8E2"/>
<path d="M159.546 263.351C159.753 263.505 162.101 274.71 162.683 278.283C162.713 278.486 162.953 278.705 163.234 278.733C164.015 278.87 165.438 279.908 166.129 280.823C167.083 282.116 167.392 284.641 166.815 286.325C165.993 288.834 164.193 290.054 160.609 290.591L158.355 290.929L157.38 290.264C155.973 289.34 154.602 287.415 154.405 286.101C154.221 284.878 154.51 283.885 155.658 281.698C156.821 279.462 156.849 279.342 156.486 276.918C156.15 274.676 154.31 266.243 153.817 264.649L153.549 263.786L156.407 263.474C157.995 263.305 159.416 263.254 159.546 263.351Z" fill="url(#paint0_linear_19_388)"/>
<path d="M210.069 144.952C207.19 152.957 201.847 164.366 199.213 168.165C198.622 168.995 197.36 170.412 196.386 171.299C195.416 172.209 194.486 173.228 194.308 173.579C193.966 174.372 193.787 176.714 194.001 178.142L194.16 179.206L192.97 180.033C190.671 181.605 189.182 184.283 189.084 187.008C189.069 187.682 189.658 192.689 190.402 198.113C191.481 206.081 191.934 208.793 192.743 212.192C193.475 215.232 193.694 216.542 193.561 216.887C193.404 217.373 193.246 217.397 189.503 217.796C185.853 218.204 185.496 218.281 183.99 218.993C181.58 220.141 179.655 220.523 178.346 220.093C177.768 219.925 175.495 218.598 173.272 217.148C169.317 214.591 168.744 214.306 166.186 213.694C164.92 213.397 164.894 213.378 163.72 211.539L162.519 209.68L163.875 207.346C164.626 206.053 165.468 204.444 165.76 203.775C166.371 202.317 166.963 199.194 166.814 198.197C166.759 197.835 166.795 197.459 166.898 197.374C166.978 197.293 168.098 197.542 169.333 197.936C172.891 199.07 173.172 199.097 174.137 198.466C177.666 196.177 186.886 184.651 188.289 180.781L188.712 179.606L187.388 177.697C184.367 173.378 180.966 170.831 175.492 168.756L173.831 168.125L172.938 162.167C172.449 158.905 172.068 155.905 172.082 155.532L172.115 154.833L173.558 155.08C176.201 155.494 184.759 154.003 186.649 152.77C186.922 152.59 187.619 151.397 188.163 150.111C188.734 148.845 189.29 147.788 189.403 147.771C189.786 147.714 190.164 148.236 190.628 149.487C190.872 150.192 191.284 150.941 191.553 151.201C192.034 151.639 192.056 151.635 193.329 151.051C194.042 150.736 196.504 149.324 198.827 147.911C204.761 144.289 207.254 143.081 209.929 142.634L210.963 142.456L210.069 144.952Z" fill="#757575"/>
<path d="M186.458 179.179C186.587 179.577 186.675 180.166 186.655 180.493C186.571 181.316 184.885 183.908 181.464 188.451C178.735 192.08 178.495 192.324 178.342 191.768C178.044 190.701 178.513 187.064 179.275 184.61C179.957 182.4 181.967 178.277 183.275 176.391L183.788 175.665L184.988 177.06C185.658 177.84 186.333 178.804 186.458 179.179Z" fill="#413A3A"/>
<path d="M168.41 187.628C170.627 188.269 175.906 192.735 176.116 194.14C176.201 194.706 175.486 195.624 174.044 196.766C172.977 197.644 173.186 197.659 169.278 196.184C167.858 195.632 165.325 194.877 163.629 194.482C160.167 193.681 158.329 193.1 158.02 192.729C157.515 192.133 161.193 188.988 163.721 187.868C165.148 187.237 166.727 187.162 168.41 187.628Z" fill="#413A3A"/>
<path d="M155.354 70.6755C161.204 73.1107 162.874 73.949 165.894 75.9515C169.86 78.5766 171.605 80.0752 172.396 81.5084C172.746 82.1508 174.561 85.9552 176.429 89.9601C178.293 93.9423 180.721 99.0677 181.825 101.357C182.928 103.647 183.84 105.734 183.836 106.012C183.834 106.615 183.009 107.109 180.17 108.16C176.235 109.583 167.413 111.925 163.851 112.459C162.161 112.712 161.858 112.688 161.694 112.365C161.255 111.435 157.332 97.8713 155.918 92.4319C155.168 89.5797 155.907 88.056 159.257 85.4927C161.408 83.8501 161.215 83.4853 158.998 84.9987C156.926 86.3978 155.545 87.9481 155.108 89.3339C154.784 90.4016 154.802 90.6768 155.321 93.2162C156.014 96.6097 158.021 104.16 160.199 111.616C164.782 127.281 164.959 127.996 164.193 129.963C163.557 131.564 161.209 134.811 159.229 136.822C157.306 138.755 153.205 142.149 149.857 144.573C147.215 146.474 146.66 146.766 146.582 146.245C146.561 146.109 146.204 144.495 145.816 142.677C144.604 137.045 142.716 132.603 139.577 127.955C137.474 124.842 135.899 122.948 131.625 118.423C129.679 116.352 127.946 114.481 127.77 114.23C127.458 113.837 127.611 113.628 129.57 111.783C132.64 108.891 133.549 107.573 134.493 104.49C135.431 101.524 135.652 101.306 139.116 99.8139C143.422 97.941 144.708 96.2196 144.778 92.2254L144.806 90.4146L146.514 90.2745C149.452 90.0426 150.859 89.7391 151.628 89.1837C153.561 87.7822 154.137 85.9357 153.645 82.6511C153.289 80.2726 152.509 78.606 150.839 76.5401L149.869 75.2958L150.29 73.7968C150.539 72.9952 150.786 71.5685 150.879 70.6513C150.96 69.5042 151.092 68.998 151.305 69.0356C151.473 69.0799 153.313 69.8232 155.354 70.6755Z" fill="#252525"/>
<path d="M180.024 85.8081C182.656 87.2202 186.741 89.4105 189.068 90.6367C191.418 91.8595 193.678 93.0958 194.089 93.3815L194.857 93.8918L192.291 94.2996L189.744 94.6813L187.434 96.6487C184.9 98.8119 183.896 99.495 183.085 99.6167C182.566 99.6944 182.439 99.4587 180.767 95.8413C176.204 85.8479 175.027 83.2218 175.117 83.2083C175.185 83.1982 177.389 84.3733 180.024 85.8081Z" fill="#252525"/>
<path d="M191.426 101.447C196.412 107.648 200.355 113.658 205.242 122.584C208.602 128.704 209.359 129.911 211.893 133.283C214.107 136.217 215.997 138.829 216.024 139.011C216.078 139.373 214.812 139.841 211.289 140.786C204.819 142.52 204.279 142.763 197.739 146.8C195.313 148.299 193.124 149.53 192.869 149.522C192.524 149.527 192.215 149.157 191.655 148.036C190.746 146.273 190.236 145.794 189.402 145.919C188.703 146.023 187.762 147.276 186.833 149.384C185.676 151.966 185.974 151.806 179.915 152.899L174.571 153.839L173.004 153.379C172.138 153.138 170.316 152.67 168.927 152.323C167.542 151.997 166.371 151.571 166.299 151.396C166.227 151.222 166.454 150.585 166.782 150.004C167.561 148.59 169.02 147.561 174.218 144.72C176.456 143.505 179.062 141.979 180.028 141.348C184.505 138.315 186.635 134.683 186.332 130.513C186.198 128.542 185.622 126.543 183.484 120.425C182.232 116.837 181.861 115.596 181.984 115.184C182.11 114.794 182.581 114.4 183.612 113.898C185.561 112.911 186.536 112.186 186.872 111.51C187.46 110.356 186.633 107.608 184.425 103.33L183.476 101.457L184.804 100.633C185.542 100.175 186.623 99.3875 187.235 98.8558C187.827 98.35 188.362 97.9224 188.43 97.9123C188.498 97.9022 189.841 99.4842 191.426 101.447Z" fill="#252525"/>
<path d="M126.601 115.656C127.675 116.514 131.661 120.502 131.705 120.797C131.718 120.888 129.883 121.255 127.607 121.596L123.482 122.215L121.96 120.057C121.116 118.887 120.431 117.854 120.421 117.786C120.38 117.514 124.521 115.157 125.307 115.016C125.506 114.963 126.082 115.27 126.601 115.656Z" fill="#252525"/>
<path d="M169.626 184.584C169.917 184.694 170.227 184.877 170.304 184.99C170.665 185.523 170.867 185.182 170.848 184.08C170.84 183.317 170.609 182.934 170.212 183.038C169.917 183.106 169.162 183.907 169.115 184.206C169.105 184.315 169.328 184.494 169.626 184.584Z" fill="#D50814"/>
<path d="M169.121 182.329C170.693 181.953 171.069 182.178 171.958 184.012C172.511 185.163 172.629 185.243 173.179 184.894C173.444 184.728 173.407 184.605 172.473 182.646C171.603 180.841 171.442 180.591 171.095 180.576C170.655 180.555 169.716 181.234 169.211 181.931L168.879 182.39L169.121 182.329Z" fill="#D50814"/>
<path d="M172.527 181.008C172.894 181.565 173.248 182.097 173.327 182.166C173.736 182.647 175.17 182.475 175.725 181.882C175.897 181.688 175.766 181.603 174.957 181.36C174.029 181.058 173.95 180.989 173.249 179.906C172.355 178.518 172.08 178.301 171.376 178.379C170.787 178.448 168.832 179.424 168.563 179.79C168.334 180.102 169.322 180.153 170.037 179.854C170.975 179.466 171.735 179.829 172.527 181.008Z" fill="#D50814"/>
<path d="M171.737 177.802C173.49 178.013 173.893 178.322 174.783 180.125C175.334 181.254 175.461 181.36 176.085 181.254C176.385 181.205 176.35 181.091 175.419 179.171C174.549 177.398 174.385 177.139 174.003 177.012C173.518 176.849 172.448 177.098 171.856 177.505L171.467 177.773L171.737 177.802Z" fill="#D50814"/>
<path d="M175.561 177.84C175.938 178.421 176.302 178.975 176.385 179.057C176.812 179.588 178.402 179.921 179.045 179.617C179.244 179.514 179.103 179.401 178.223 178.933C177.215 178.378 177.132 178.295 176.413 177.172C175.496 175.735 175.203 175.465 174.423 175.297C173.77 175.159 171.564 175.316 171.249 175.529C170.981 175.709 172.068 176.078 172.872 176.069C173.926 176.059 174.746 176.609 175.561 177.84Z" fill="#D50814"/>
</g>
<defs>
<linearGradient id="paint0_linear_19_388" x1="154.25" y1="271.394" x2="162.524" y2="269.695" gradientUnits="userSpaceOnUse">
<stop stop-color="#C0B9BD"/>
<stop offset="1" stop-color="#B79BAC" stop-opacity="0"/>
</linearGradient>
<clipPath id="clip0_19_388">
<rect width="137" height="275" fill="white" transform="translate(62.377 29) rotate(-8.52356)"/>
</clipPath>
</defs>
</svg>
