<svg width="317" height="301" viewBox="0 0 317 301" fill="none" xmlns="http://www.w3.org/2000/svg">
<g clip-path="url(#clip0_19_390)">
<g clip-path="url(#clip1_19_390)">
<path d="M83.6645 11.7004C82.1276 13.8907 82.1462 13.696 82.9136 17.6166C83.3997 20.0473 83.5454 21.3837 83.4336 21.9353C83.2126 22.8719 82.2803 23.6197 78.8246 25.5179C76.2123 26.953 76.1183 26.9545 75.6914 25.3615C75.478 24.565 75.555 24.2361 76.4628 22.4278C77.7549 19.8525 78.0089 18.5988 77.5203 17.5677C77.1587 16.8347 75.1839 15.277 75.0069 15.5853C74.9806 15.6635 75.2889 16.1974 75.7191 16.7461C76.1713 17.2889 76.521 17.9778 76.5261 18.2609C76.5253 18.522 76.0173 19.7964 75.3712 21.084C73.8115 24.1579 73.7404 24.5089 74.3721 26.4264L74.8591 27.9796L73.6965 28.8365C73.047 29.3188 72.0833 29.8616 71.5388 30.0312L70.532 30.3247L70.2915 29.2509C70.0704 28.3379 69.6138 22.935 69.6341 21.6016C69.6468 21.3848 69.5553 21.2196 69.4453 21.2491C69.159 21.3258 68.6079 24.817 68.4513 27.4912C68.3286 29.5871 68.3853 29.9751 69.1619 31.6403C69.2949 31.9604 69.0798 32.3026 68.2212 33.1492C67.2643 34.0696 66.9357 34.2524 65.9653 34.4176C65.359 34.5327 64.5469 34.5843 64.1811 34.54C63.5274 34.478 63.4876 34.4176 63.0904 32.9352C62.4145 30.413 61.0316 27.0131 60.3245 26.1355C59.719 25.3729 58.5148 24.8418 58.3116 25.2283C58.2633 25.3124 58.6495 25.8729 59.1474 26.4983C60.0857 27.6222 60.0857 27.6222 60.9631 31.5132L61.8346 35.3822L62.6052 35.7922C63.0185 36.0135 63.6519 36.1757 63.9999 36.1536C64.37 36.1256 64.7138 36.1758 64.7976 36.2245C64.9272 36.3557 61.4452 40.1817 60.4808 40.9855C59.3139 41.9147 58.8481 41.2333 59.0318 38.8365C59.1495 37.0739 58.7235 35.8364 57.6108 34.854C56.8689 34.1991 55.2371 33.5692 55.3438 33.9675C55.3735 34.0781 55.8181 34.5044 56.3185 34.9631C57.521 36.0163 57.7819 36.9898 57.4449 39.1668C57.1181 41.2937 57.2367 41.7362 58.3325 42.3911L59.2326 42.9324L57.8685 45.5033C55.4925 49.9341 54.5577 52.6981 54.2945 56.2071C54.1734 57.7809 54.2556 58.3517 55.2287 62.3357L56.2806 66.7017L57.7016 68.218L59.1226 69.7343L58.7983 71.6946C57.7586 77.8541 58.9376 83.751 61.8668 87.0212C63.7916 89.185 66.6005 90.6851 70.0259 91.4035C74.4445 92.3063 77.1797 91.858 80.6405 89.6265C81.3238 89.1825 82.0191 88.7828 82.1952 88.7356C82.4814 88.6589 84.4351 91.1945 85.2142 92.6931C85.7409 93.6902 85.7037 94.0796 84.8375 96.0427C84.5614 96.6858 84.3811 97.4218 84.4522 97.6873C84.6894 98.5723 85.9757 99.0577 88.9683 99.394C92.6866 99.7968 92.8263 99.8779 92.8069 101.567C92.7908 102.211 92.9475 102.62 93.3853 103.285C93.8113 103.906 94.2195 105.077 94.8775 107.533L95.7846 110.918L97.1598 111.735C98.2395 112.418 98.6511 112.545 99.2455 112.386C99.7959 112.238 100.18 112.349 101.036 112.902L102.127 113.629L102.807 112.997C103.335 112.5 103.609 112.379 104.053 112.449C105.19 112.643 105.98 111.364 107.04 107.57C107.701 105.283 108.105 104.321 108.523 104.209C109.205 104.026 111.704 106.392 113.846 109.28C115.891 111.981 117.281 114.525 118.099 116.962L118.824 119.139L115.536 121.751C109.657 126.409 107.944 128.291 103.745 134.728C102.302 136.916 100.649 139.375 100.044 140.201C98.4793 142.375 95.6053 145.564 94.6112 146.257C94.01 146.656 92.3181 147.299 89.4915 148.198C83.58 150.09 83.0254 150.31 82.3606 151.176C81.2903 152.554 81.2319 153.304 81.8968 156.754C82.2212 158.493 82.7928 161.067 83.1723 162.483C83.8184 164.895 83.9218 165.104 84.9041 166.217C85.4579 166.874 86.3056 167.572 86.7409 167.787C87.4657 168.115 87.7697 168.105 89.2669 167.703L90.9622 167.249L92.6228 168.251C95.0938 169.723 96.2124 170.111 97.2032 169.845C97.8857 169.662 98.2913 169.767 99.4913 170.37C101.909 171.643 103.111 171.725 105.051 170.778C106.181 170.238 106.297 170.23 107.226 170.527C109.379 171.254 111.419 170.85 113.85 169.179C114.511 168.741 115.052 168.383 115.096 168.371C115.228 168.335 116.063 169.866 118.098 173.85C121.916 181.317 124.406 184.799 127.17 186.572C128.625 187.51 129.625 187.717 130.968 187.357L131.562 187.198L133.308 193.891L135.033 200.591L133.673 201.24C129.577 203.215 127.805 205.586 127.501 209.557C127.446 210.236 127.344 210.998 127.237 211.216C127.148 211.501 126.081 212.095 123.892 213.085C119.794 214.966 118.686 215.761 117.509 217.712C116.591 219.215 116.455 219.678 115.971 222.891C115.763 224.227 115.636 224.545 114.932 225.09C114.038 225.804 113.187 227.383 113.015 228.591C112.482 232.504 117.325 237.016 123.55 238.408C124.627 238.641 125.678 238.952 125.858 239.093C126.121 239.284 126.314 239.825 126.518 241.027C126.863 243.021 127.768 244.724 128.79 245.28C129.203 245.501 129.935 245.589 130.807 245.498C132.965 245.275 140.43 243.631 146 242.138L151.108 240.77L151.482 241.286C151.697 241.56 151.963 242.2 152.1 242.709C152.507 244.142 153.185 245.264 153.86 245.581C154.395 245.817 154.716 245.779 156.353 245.198C158.019 244.633 158.289 244.584 158.56 244.891C158.859 245.214 160.052 248.522 162.332 255.358C163.711 259.446 166.7 268.141 165.633 270.94C164.818 273.008 164.585 274.778 164.946 276.128C165.302 277.455 166.966 279.262 168.906 280.426C170.281 281.243 170.665 281.354 171.831 281.302C173.991 281.174 176.523 279.879 178.303 277.979C179.643 276.553 180.797 272.758 180.382 271.209C179.831 269.152 178.14 267.067 176.287 266.141L175.031 265.505L170.991 253.417C169.757 249.692 168.204 243.896 168.217 243.062C168.219 242.54 168.355 242.432 169.262 242.118L170.323 241.763L169.296 238.457L168.252 235.18L173.748 233.85C176.76 233.114 182.124 231.819 185.664 230.941L192.128 229.351L192.707 227.987C193.503 226.114 193.298 224.556 191.733 221.182L191.417 220.531L196.724 215.766C199.63 213.137 202.398 210.522 202.852 209.926C203.826 208.717 204.055 207.636 203.682 206.242C203.361 205.047 202.5 204.211 200.691 203.273C199.106 202.464 199.043 202.315 198.722 198.654C198.523 196.502 198.523 196.502 197.228 193.956C195.32 190.27 194.901 189.149 192.552 181.527C189.769 172.55 188 164.89 188.231 162.67C188.405 160.94 189.181 159.523 190.726 158.066C191.367 157.467 191.968 156.713 192.083 156.35C192.204 156.009 192.15 154.838 191.997 153.741C191.566 150.987 191.659 150.63 193.07 149.114C196.494 145.422 200.572 135.105 204.122 121.23C204.597 119.3 205.194 117.48 205.421 117.182C205.642 116.862 206.418 116.322 207.147 115.961C209.422 114.853 209.867 114.047 209.152 112.436C208.968 112.011 207.206 110.017 205.223 107.987C201.504 104.146 200.237 102.589 197.47 98.5162C192.375 91.0365 186.459 83.7529 181.069 78.344C178.1 75.3688 177.495 74.6063 177.72 74.2139C177.801 74.0738 179.376 73.4381 181.196 72.832C183.016 72.2258 184.56 71.6462 184.64 71.5061C185.091 70.7214 182.695 69.4425 175.611 66.693C165.151 62.6188 164.721 62.4255 157.144 58.1007C149.058 53.4617 150.607 54.1373 138.14 50.0557C133.851 48.6676 134.07 48.8697 132.688 45.2087C129.813 37.5609 126.695 31.8276 122.615 26.637C121.561 25.2593 120.661 24.1015 120.643 24.0351C120.584 23.8139 121.466 23.6723 121.658 23.8581C122.8 24.9511 128.186 24.0058 129.255 22.5338C129.639 22.0279 129.611 22.0117 127.795 22.5456C126.062 23.0337 125.808 23.0544 124.363 22.6827C123.48 22.4688 122.751 22.2136 122.721 22.103C122.691 21.9923 123.071 21.5587 123.594 21.1339L124.498 20.3699L123.27 20.628C118.873 21.5689 116.987 21.5763 115.544 20.6824L114.868 20.2708L115.655 19.7753C116.557 19.1779 118.662 16.9065 119.073 16.0614C119.467 15.2442 119.055 15.3784 117.483 16.5584C115.994 17.6926 113.904 18.3475 111.84 18.3076C110.391 18.2692 105.883 17.6511 105.98 17.4829C106.012 17.4269 106.87 17.4579 107.905 17.5361L109.761 17.6792L110.74 15.8753C111.849 13.8472 113.076 10.4121 112.837 10.0492C112.757 9.92826 111.845 11.1923 110.858 12.8796L109.01 15.9358L107.301 15.8959C105.823 15.8412 104.947 16.005 101.17 16.9695C96.7046 18.0948 95.5564 18.2128 96.0687 17.4827C96.2033 17.2806 97.305 16.7245 98.5345 16.2054C99.748 15.7142 101.008 15.0446 101.335 14.7674C102.145 14.0048 102.274 12.5475 101.738 10.1064L101.292 8.09158L101.159 9.88222C100.981 12.3012 100.784 13.0652 100.249 13.4458C99.5997 13.9281 95.7612 15.4545 95.3293 15.428C95.0575 15.3822 94.8746 15.0519 94.6671 14.2775C94.2225 12.6181 92.8811 10.6062 91.8886 10.1607C91.1298 9.79492 90.6141 9.7197 90.6853 9.9852C90.7031 10.0516 91.0875 10.5177 91.5279 11.0162C91.9903 11.5089 92.5712 12.444 92.821 13.1122C93.4003 14.5695 93.2792 15.5268 92.3622 16.5076C92.0311 16.8572 91.4282 17.7776 90.9938 18.5342C90.5874 19.3071 90.1293 19.9752 89.9972 20.0106C89.843 20.0519 88.7397 20.5136 87.5321 21.0268C86.3246 21.5401 85.2754 21.9398 85.2195 21.9073C85.1416 21.8808 85.1526 21.5696 85.2517 21.2348C85.355 20.8277 85.1467 19.6978 84.542 17.4411L83.6823 14.233L84.3597 12.5338C84.9364 11.0751 85.0972 10.1783 84.767 10.2668C84.7009 10.2845 84.2149 10.9364 83.6645 11.7004ZM94.1938 17.7953C94.3124 18.2378 93.8467 18.7895 93.2726 18.8484C92.5164 18.9325 92.3758 18.4959 93.0151 18.0637C93.7848 17.5018 94.099 17.4413 94.1938 17.7953ZM92.2184 22.0476C92.7146 22.5786 93.3506 23.1908 93.636 23.3752C94.1627 23.7557 94.1568 23.7336 93.7486 22.5624C93.5047 21.9164 93.199 21.2157 93.0516 21.0181C92.8306 20.7216 92.9288 20.6479 93.7875 20.4178C94.9543 20.1051 95.4336 20.3087 96.3177 21.4946L96.9351 22.3015L96.7191 21.0551L96.5031 19.8087L97.6099 19.5359C100.478 18.7911 101.837 19.0198 102.181 20.303C102.418 21.188 102.781 21.0435 102.96 19.952C103.123 19.1496 103.215 19.0537 103.855 18.977C104.661 18.9033 107.792 19.2264 108.177 19.4314C108.311 19.4904 108.304 20.3459 108.141 21.4094C107.971 22.4507 107.927 23.3401 108.032 23.3829C108.122 23.4537 108.668 22.7619 109.255 21.8696C109.842 20.9773 110.42 20.2295 110.53 20.2C110.669 20.1867 111.675 20.5097 112.8 20.9198L114.849 21.6986L114.143 23.0261C113.453 24.3255 113.35 24.7326 113.295 26.0276C113.257 26.9391 113.742 26.5483 114.98 24.6516L116.153 22.8668L117.089 23.5409L118.041 24.187L117.607 25.5601C117.36 26.3138 117.19 26.9997 117.208 27.0661C117.273 27.3095 117.716 27.0248 118.404 26.2475C118.784 25.8139 119.237 25.4791 119.414 25.5263C120.188 25.7697 124.534 31.6003 126.358 34.8822C128.334 38.3839 132.503 48.1277 132.217 48.5599C132.147 48.6499 131.556 48.9979 130.887 49.3194C129.28 50.1056 127.526 51.5717 126.969 52.5746C126.428 53.5496 126.726 53.5171 128.321 52.4257C129.676 51.4935 133.147 50.4449 133.277 50.9317C133.485 51.706 133.163 53.4996 132.675 54.3182C132.186 55.1368 131.946 55.2961 129.931 56.1442C127.258 57.2636 126.574 57.7076 125.508 59.0129C123.296 61.7637 122.95 65.9349 124.723 68.851C125.88 70.7936 125.893 71.1933 124.893 74.3306C123.772 77.8086 123.385 79.9753 123.594 81.4606C123.739 82.4415 123.636 82.8486 122.797 84.4725C121.911 86.2749 121.563 87.5301 121.637 88.862C121.773 91.2205 118.455 95.2161 112.938 99.374C109.871 101.666 109.338 101.88 107.828 101.265C107.171 101.014 106.324 100.672 105.941 100.561C105.479 100.424 105.17 100.151 105.075 99.7971C104.838 98.9121 104.24 98.266 103.676 98.2749C103.372 98.2852 102.176 98.4872 101.019 98.7497C99.8624 99.0123 97.9215 99.3426 96.7352 99.4945L94.5606 99.7452L97.9258 98.6538C108.578 95.2542 114.127 92.0124 116.645 87.7571C117.568 86.1819 117.701 85.2689 117.238 83.5431C116.444 80.5784 114.543 78.503 111.698 77.4867C111.075 77.2743 110.528 76.994 110.498 76.8834C110.469 76.7728 110.942 76.3377 111.537 75.9173C114.191 74.0206 116.762 71.1975 117.975 68.8567C118.986 66.9024 118.938 66.1089 117.819 64.4878L116.979 63.2901L117.928 61.2812C118.455 60.1676 119.032 58.7089 119.202 58.023C119.515 56.6351 119.331 53.483 118.778 51.331C118.029 48.4489 118.061 47.7763 119.024 45.645C119.491 44.5712 120.512 42.5667 121.25 41.1832L122.594 38.7126L124.142 38.6773C125.856 38.6449 126.388 38.431 126.216 37.7894C126.08 37.2805 125.68 37.1979 123.451 37.1551L121.675 37.1329L120.641 38.9987C120.074 40.0518 119.009 42.0681 118.283 43.4959L116.953 46.1051L115.908 45.1994C115.345 44.6861 113.934 43.7362 112.761 43.0547C109.284 40.9985 105.759 40.6149 101.438 41.7491C97.0348 42.929 94.3437 45.2151 92.4021 49.5058C91.0507 52.4764 91.033 54.8762 92.2543 58.8173C93.4441 62.5535 94.2012 63.4415 98.7698 66.2249C99.9554 66.9506 100.673 67.517 100.571 67.663C100.491 67.8031 99.4279 68.6807 98.239 69.6158L96.0357 71.3445L94.8942 71.2235C93.0989 71.0405 90.8777 69.6201 89.5736 67.8353C88.3431 66.1494 87.8655 66.0402 88.5244 67.6185C89.3797 69.6658 90.4357 70.8768 92.3021 71.9417L94.0567 72.9418L93.1303 73.7117L92.204 74.4816L89.8752 73.5406C88.5991 73.0051 86.8191 72.4387 85.9477 72.269C83.9992 71.8663 83.5665 72.1008 82.6943 74.0419L82.0999 75.4342L81.2742 72.881C80.4248 70.2393 79.5466 68.459 78.3212 67.0562C77.3948 65.9765 74.8882 64.3717 73.3199 63.8908C69.3703 62.6252 63.7764 64.0292 60.3588 67.1266L59.5967 67.805L58.9362 67.3655C57.7769 66.5616 57.7675 65.7341 58.8412 63.9288C60.5483 61.0526 62.7736 59.3181 65.834 58.4981C68.2778 57.8432 68.8257 57.8624 69.0273 58.6147C69.1814 59.1899 69.2314 59.2002 69.9283 58.8949C70.6032 58.5955 70.781 58.6427 72.0106 59.3567C72.7431 59.8007 74.0802 60.6517 74.9982 61.2595C75.8941 61.8731 76.597 62.2064 76.5495 62.0294C76.4073 61.4984 74.2639 59.488 72.3865 58.1177C70.952 57.0793 70.6531 56.7562 70.4456 55.9819C70.0975 54.7709 69.0974 53.5923 67.734 52.8194L66.6001 52.1984L66.788 49.7293C66.8744 48.3782 66.9023 47.1614 66.8227 47.0404C66.6296 46.7602 65.5796 49.8871 65.1571 51.9211L64.8524 53.4256L66.3521 54.0908C68.6266 55.0939 70.2034 56.6633 68.9197 56.6279C66.0481 56.5673 64.7254 56.8269 62.3781 57.9301C61.7913 58.2059 61.8116 58.1056 62.7168 57.0805C64.0657 55.5097 64.6348 54.551 64.5043 54.0642C64.4451 53.843 63.981 53.2559 63.4526 52.781C62.1527 51.5405 61.8961 50.4947 62.4634 48.825C62.736 47.9932 63.2686 47.1628 63.963 46.4076C65.7929 44.5182 65.3822 44.1303 63.3448 45.8618C60.4632 48.3176 59.8638 51.2764 61.792 53.629C62.7303 54.753 62.7989 55.1852 62.1858 55.5392C61.8793 55.7162 61.3484 56.6409 60.8242 57.9433C60.3585 59.1115 59.6803 60.4552 59.3187 60.9552C58.9512 61.4331 58.422 62.4523 58.1197 63.1736C57.8234 63.9169 57.4914 64.5276 57.3814 64.5571C56.8089 64.7104 55.6113 57.7751 55.8263 55.5832C56.0744 53.0743 57.2767 49.8117 59.2378 46.2983L61.0279 43.1154L62.5758 43.08C63.4277 43.0889 64.46 42.9783 64.8563 42.8721L65.5769 42.6553L64.9299 42.3544C64.5844 42.2098 63.8189 42.083 63.249 42.0697L62.215 42.0859L62.5792 41.4192C63.1566 40.3159 66.7766 36.4767 67.062 36.6611C67.1399 36.6876 67.4498 37.316 67.7835 38.0328C68.6515 39.8633 68.9488 39.4754 68.4643 37.139L68.0764 35.2511L70.0994 33.6419L72.1003 32.0386L72.6889 32.4738C73.2156 32.8543 73.3088 33.1139 73.5916 34.6981C73.8805 36.3043 73.9499 36.4754 74.187 36.1273C74.4944 35.6892 74.75 33.2969 74.5662 32.611C74.4951 32.3455 74.2284 31.9664 73.9929 31.7924C73.3426 31.3027 73.379 31.1743 74.2114 30.4059C75.5832 29.1847 76.1531 29.1979 77.7425 30.5505C78.0796 30.8396 78.072 30.7231 77.701 29.7791C77.1734 28.4266 77.292 28.2525 79.8408 26.6684C82.0611 25.2673 82.2652 25.2363 82.4786 26.0328C82.5853 26.431 82.9418 26.8809 83.3949 27.1626L84.1333 27.6288L83.7759 26.8234C83.3592 25.7968 83.432 24.9236 84.0095 24.4369C84.4346 24.0859 89.8422 21.5461 90.8211 21.2364C91.1895 21.114 91.5248 21.3087 92.2184 22.0476ZM105.253 42.6002C108.997 42.5694 112.713 44.1108 114.977 46.6582L116.163 48.0004L113.24 54.0006L110.311 59.9786L107.087 62.4786C103.476 65.2958 102.629 65.8312 101.739 65.8562C100.445 65.8709 96.9965 63.5698 95.0496 61.4119C94.434 60.6995 94.2375 60.2304 93.5024 57.4869C92.7021 54.5001 92.6767 54.3172 92.9671 52.9351C93.8671 48.5441 96.2829 45.4069 100.143 43.519C100.96 43.1341 103.749 42.6238 105.253 42.6002ZM117.49 51.9844C118.092 55.6409 117.774 58.5953 116.559 60.8416C115.815 62.203 115.325 62.3107 114.064 61.3918C112.248 60.076 112.23 60.0096 112.909 58.4049C114.092 55.598 116.954 49.8988 117.112 50.0463C117.14 50.0625 117.305 50.9431 117.49 51.9844ZM69.0808 64.9792C71.8372 64.7861 74.4462 65.6284 76.3803 67.3866C78.1629 69.0194 79.0877 70.6213 79.8465 73.4533C80.1904 74.7365 80.4224 75.9549 80.3538 76.1392C80.2446 76.5242 80.3767 76.4888 73.0968 77.3249C69.0397 77.7717 62.9673 78.7111 61.5583 79.0887C60.1932 79.4545 59.9663 79.1359 59.912 76.7316C59.8484 74.1165 60.6595 70.0102 61.5241 68.5691C61.9 67.9467 62.6164 67.1856 63.2337 66.7594C64.4302 65.9408 67.1366 65.1208 69.0808 64.9792ZM140.084 52.3803C146.172 54.1401 147.926 54.7847 151.152 56.4338C155.389 58.5948 157.292 59.8869 158.24 61.2218C158.66 61.8206 160.892 65.3961 163.2 69.1647C165.502 72.9112 168.492 77.73 169.847 79.8806C171.202 82.0312 172.343 84.0018 172.37 84.2791C172.436 84.8779 171.673 85.462 168.971 86.8263C165.221 88.6846 156.719 92.0061 153.24 92.9382C151.589 93.3806 151.285 93.391 151.086 93.0886C150.545 92.2139 145.118 79.1794 143.099 73.9343C142.032 71.1849 142.595 69.5875 145.634 66.6627C147.585 64.788 147.353 64.4473 145.321 66.201C143.42 67.8249 142.223 69.5211 141.944 70.9474C141.743 72.0448 141.792 72.3162 142.594 74.7809C143.665 78.0746 146.512 85.3507 149.516 92.5133C155.837 107.561 156.093 108.252 155.555 110.293C155.103 111.955 153.136 115.446 151.395 117.668C149.703 119.805 146.011 123.64 142.958 126.426C140.547 128.613 140.028 128.966 139.892 128.457C139.856 128.324 139.319 126.761 138.729 124.998C136.889 119.539 134.512 115.338 130.869 111.074C128.428 108.218 126.65 106.513 121.893 102.5C119.725 100.662 117.793 98.998 117.589 98.7679C117.235 98.4124 117.363 98.1882 119.102 96.1336C121.826 92.9138 122.58 91.5023 123.17 88.3325C123.768 85.2793 123.963 85.0375 127.237 83.1643C131.304 80.8177 132.387 78.9622 132.006 74.9856L131.83 73.1832L133.511 72.8514C136.405 72.2895 137.768 71.8293 138.47 71.1907C140.233 69.5801 140.597 67.6803 139.737 64.4722C139.115 62.1491 138.152 60.5811 136.26 58.7167L135.156 57.5898L135.405 56.0529C135.561 55.2283 135.646 53.7829 135.635 52.861C135.587 51.712 135.66 51.1943 135.876 51.2076C136.048 51.2326 137.96 51.7637 140.084 52.3803ZM134.234 53.9716C134.229 54.6604 134.04 55.8021 133.825 56.4997L133.411 57.7726L135.302 59.8981C137.51 62.413 138.347 64.0385 138.574 66.2067C138.766 67.9811 138.547 69.0121 137.798 69.8293C136.919 70.7762 133.531 71.518 131.629 71.1979C130.191 70.9427 127.849 69.8629 126.748 68.9248C124.84 67.3495 124.524 63.6163 126.069 60.6649C126.892 59.069 127.622 58.4466 130.22 57.1339C131.426 56.5262 132.618 55.7799 132.895 55.4923C133.481 54.861 134.15 53.3064 134.019 52.8197C133.972 52.6427 134.014 52.5365 134.104 52.6073C134.188 52.6559 134.254 53.2548 134.234 53.9716ZM113.09 62.6012C115.584 64.4229 116.934 65.6737 117.094 66.2711C117.278 66.9569 115.962 69.4437 114.521 71.1104C111.899 74.1842 108.585 76.2579 104.501 77.3995C102.151 78.0528 101.875 78.0794 100.67 77.8094C98.9319 77.3979 94.0068 75.3977 94.0957 75.113C94.2575 74.5717 110.343 61.7722 111.13 61.5377C111.328 61.4846 112.21 61.9596 113.09 62.6012ZM87.0935 74.1674C90.5553 75.374 96.3585 77.9214 96.4813 78.2916C96.6473 78.9111 95.6777 79.4318 93.0196 80.1677C91.6106 80.5453 89.9229 81.1161 89.292 81.4037C86.9769 82.4508 84.865 83.1116 84.6177 82.8933C84.4882 82.762 83.9961 81.5422 83.4905 80.1837L82.6106 77.6924L83.3007 76.393C83.675 75.6762 84.0899 74.7587 84.1991 74.3738C84.3304 73.9829 84.5895 73.6289 84.7876 73.5758C84.9638 73.5286 86.0028 73.7956 87.0935 74.1674ZM66.4655 79.7895C75.8294 78.2764 80.2218 78.0243 81.2228 78.9417C81.9028 79.5421 82.4973 82.4655 82.2603 84.0467C82.0477 85.4553 81.0503 87.1928 79.7826 88.3624C78.858 89.2267 78.5836 89.3477 76.4641 89.8919C74.5207 90.3889 73.8805 90.4656 72.4672 90.2989C68.0231 89.8297 64.2158 87.862 62.2672 84.9931C61.5745 83.993 60.4152 81.3395 60.5362 80.9988C60.6251 80.7141 60.0409 80.8233 66.4655 79.7895ZM130.486 74.4207C130.792 76.9709 130.305 79.117 129.124 80.1687C128.438 80.7793 126.212 82.1583 125.661 82.3058C125.529 82.3412 125.342 82.0831 125.253 81.7512C124.909 80.468 125.337 77.4841 126.461 73.2229L126.983 71.2096L128.672 72.2273L130.332 73.2289L130.486 74.4207ZM99.3571 80.7461C99.546 81.7152 99.7162 82.8789 99.7408 83.3229C99.7942 84.1386 99.7942 84.1386 98.6434 84.4232C97.1784 84.7683 96.7491 84.5751 96.4569 83.3966C96.058 81.8198 96.2409 80.9171 97.1656 80.0528C97.6169 79.6236 98.2401 79.2194 98.5264 79.1428C99.0548 79.0012 99.0607 79.0233 99.3571 80.7461ZM166.304 64.6336C169.078 65.7399 173.384 67.4555 175.835 68.4113C178.308 69.3613 180.692 70.3348 181.134 70.5723L181.954 70.9927L179.45 71.6873L176.962 72.354L174.889 74.5693C172.616 77.0045 171.695 77.7965 170.903 78.0089C170.396 78.1446 170.243 77.9248 168.174 74.519C162.513 65.1041 161.047 62.6275 161.135 62.6039C161.201 62.5862 163.524 63.5052 166.304 64.6336ZM92.0764 84.3094L92.61 86.3007L91.8064 86.8243C91.3635 87.1089 89.8537 87.7269 88.4463 88.1989L85.9118 89.044L85.6586 87.5705C85.5112 86.7563 85.4045 85.7415 85.4299 85.3078C85.4561 84.6131 85.5264 84.5232 86.363 84.299C86.8694 84.1633 87.7526 83.7606 88.2996 83.4244C88.8746 83.1043 89.8298 82.7061 90.4302 82.5689L91.5429 82.3182L92.0764 84.3094ZM103.961 79.3464C104.849 79.227 105.694 79.1193 105.848 79.078C106.068 79.0191 106.191 79.3893 106.436 80.7463C106.603 81.7212 106.692 82.6696 106.596 82.8378C106.517 83.0723 105.726 83.3791 104.053 83.8274L101.631 84.4764L101.263 82.4881C100.744 79.7579 100.748 79.6856 101.627 79.6163C102.041 79.5765 103.095 79.46 103.961 79.3464ZM109.582 78.2197C111.543 79.0221 112.941 79.8334 113.059 80.2759C113.119 80.4972 112.861 80.9455 112.426 81.3467C111.566 82.099 108.371 84.093 107.711 84.27C107.315 84.3762 107.329 84.2538 107.794 83.3467C108.269 82.3895 108.292 82.1225 108.009 80.5383C107.718 78.8377 107.74 77.8598 108.114 77.7595C108.202 77.7359 108.869 77.9365 109.582 78.2197ZM95.1257 83.8007C95.9218 86.2433 96.0057 86.2919 98.4783 86.0088C99.4606 85.8879 100.5 85.8938 100.834 85.9941C101.224 86.1269 102.09 86.0133 103.571 85.6402C107.111 84.7627 104.464 85.8039 98.8975 87.4853C93.4408 89.1371 93.4628 89.1312 93.8633 87.1031C93.9953 86.4512 93.953 85.3243 93.7937 84.4659C93.3593 82.1398 93.366 81.9008 93.9622 81.836C94.4203 81.7843 94.4999 81.9053 95.1257 83.8007ZM83.9633 86.7916C84.1572 88.0439 83.9421 88.3861 83.4908 87.5822C83.2503 87.125 83.4179 85.3727 83.6753 85.5409C83.7532 85.5674 83.8853 86.1485 83.9633 86.7916ZM115.15 81.8262C115.822 82.5711 116.154 84.1655 115.874 85.4974C115.267 88.3397 111.559 91.5861 106.03 94.1111C104.203 94.9562 102.531 95.4989 97.996 96.7142L92.2716 98.248L89.5127 97.9913C87.9893 97.8541 86.5582 97.621 86.3347 97.4912C85.9494 97.2862 85.9578 97.1416 86.2864 96.3422C86.9011 94.8495 88.394 93.2876 90.0105 92.4513C90.8276 92.0664 94.0471 90.8717 97.2082 89.8113C107.352 86.453 111.071 84.7451 113.611 82.3335C114.666 81.3394 114.688 81.3335 115.15 81.8262ZM92.1257 88.8967C92.2214 88.9896 92.2027 89.1843 92.1104 89.2801C91.8175 89.5958 87.6081 92.0279 87.1677 92.1459C86.8595 92.2285 86.0643 91.3745 85.9102 90.7992C85.8213 90.4673 91.8166 88.6238 92.1257 88.8967ZM179.397 78.8867C185.05 84.4859 189.646 90.0128 195.509 98.3303C199.538 104.033 200.427 105.146 203.324 108.211C205.856 110.877 208.028 113.259 208.075 113.436C208.17 113.79 206.964 114.398 203.57 115.734C197.337 118.187 196.828 118.489 190.785 123.238C188.544 125.001 186.507 126.471 186.253 126.492C185.911 126.536 185.562 126.203 184.88 125.153C183.777 123.504 183.217 123.085 182.402 123.303C181.72 123.486 180.925 124.837 180.24 127.036C179.382 129.732 179.66 129.539 173.763 131.309L168.559 132.846L166.95 132.565C166.062 132.424 164.199 132.164 162.78 131.975C161.367 131.809 160.156 131.517 160.064 131.351C159.973 131.186 160.127 130.528 160.387 129.913C161.002 128.421 162.335 127.233 167.18 123.825C169.266 122.365 171.684 120.555 172.572 119.819C176.679 116.3 178.385 112.451 177.615 108.342C177.259 106.398 176.461 104.478 173.646 98.6395C171.997 95.216 171.489 94.0242 171.565 93.6009C171.646 93.1997 172.069 92.7543 173.037 92.1393C174.863 90.9387 175.749 90.1083 176.008 89.3988C176.461 88.1864 175.33 85.5491 172.653 81.5474L171.499 79.7936L172.726 78.8246C173.408 78.2862 174.392 77.3821 174.94 76.7848C175.472 76.2154 175.955 75.7302 176.022 75.7125C176.088 75.6948 177.601 77.1152 179.397 78.8867ZM101.14 100.259L103.38 99.6348L103.534 100.21C103.801 101.206 104.655 101.925 105.836 102.107C106.429 102.209 106.959 102.423 107.006 102.6C107.054 102.777 106.831 103.619 106.492 104.468C106.176 105.312 105.604 107.054 105.246 108.359L104.602 110.713L104.093 110.044C103.384 109.072 102.926 109.123 102.354 110.249L101.851 111.19L101.437 110.613C101.051 110.053 100.929 110.038 99.8941 110.315L98.7933 110.61L98.5019 109.787C98.2462 109.097 98.1225 108.988 97.5264 109.052L96.8363 109.119L95.9843 106.027C95.5278 104.324 94.9892 102.666 94.7902 102.363L94.448 101.791L96.6632 101.34C97.892 101.082 99.8912 100.617 101.14 100.259ZM116.589 100.317C117.752 101.048 122.162 104.562 122.239 104.849C122.263 104.938 120.481 105.51 118.258 106.106L114.229 107.186L112.473 105.213C111.503 104.146 110.706 103.197 110.688 103.131C110.617 102.865 114.466 100.055 115.23 99.8269C115.422 99.7516 116.03 99.9921 116.589 100.317ZM173.935 86.4208C174.111 86.6347 174.381 87.2025 174.511 87.6893C174.825 88.8619 174.35 89.4637 171.889 91.0241C169.4 92.5684 167.421 93.5492 164.356 94.7026C161.246 95.8677 153.673 98.2526 153.428 98.1287C153.322 98.0859 152.994 97.3912 152.687 96.5961L152.141 95.1772L153.295 94.7259C153.937 94.4825 156.234 93.63 158.432 92.8513C163.642 90.9811 167.681 89.2349 170.418 87.6479C173.116 86.0948 173.485 85.9724 173.935 86.4208ZM126.15 108.26C129.978 111.977 134.88 118.56 135.473 120.772C135.746 121.79 135.709 121.918 134.577 123.858C132.685 127.187 127.893 132.289 122.334 136.908C117.534 140.921 116.15 141.743 110.728 143.789L107.624 144.976L107.183 145.971C106.949 146.508 106.078 148.188 105.303 149.7C102.746 154.511 102.507 155.998 103.864 158.243C105.141 160.367 106.215 161.384 108.551 162.702C111.887 164.583 112.368 164.881 113.026 165.487C114.539 166.908 113.851 168.04 110.871 168.981C109.199 169.524 108.945 169.545 108.248 169.233C107.128 168.751 104.709 166.506 102.049 163.448C99.5926 160.621 98.512 158.966 98.0614 157.284C97.7887 156.267 97.301 155.591 97.0918 155.955C96.8928 156.27 98.0522 160.156 98.6289 161.164C98.9092 161.681 100.257 163.454 101.588 165.161C102.934 166.839 104.169 168.453 104.34 168.739C104.62 169.257 104.604 169.285 103.503 169.58C102.182 169.934 101.367 169.797 100.12 169.016C97.9441 167.679 96.7686 165.67 95.2688 160.689C94.6455 158.626 94.051 156.936 93.9629 156.96C93.8748 156.983 93.7741 157.84 93.7369 158.846C93.6717 161.069 94.2222 163.388 95.4434 166.096C95.9041 167.111 96.2471 168.038 96.1827 168.15C95.9837 168.465 91.455 165.742 90.5023 164.74C89.9044 164.094 89.4132 163.23 88.8755 161.927C87.9549 159.637 87.7635 158.218 88.2055 156.961C88.6255 155.71 88.4442 155.474 87.7118 156.263C86.5661 157.448 86.594 158.081 87.8119 162.449C88.8578 166.177 88.9112 166.376 88.5149 166.482C87.8544 166.659 86.4131 165.86 85.6721 164.944C85.0666 164.181 84.9735 163.921 84.749 162.203C84.6363 161.166 84.0918 158.87 83.5675 157.089L82.6241 153.832L83.3802 152.515L84.1525 151.17L88.82 149.92C93.3775 148.698 93.5477 148.629 95.1049 147.572C97.9349 145.628 99.874 143.353 103.861 137.186C108.926 129.403 109.783 128.462 117.408 122.222L120.542 119.651L120.18 118.301C119.712 116.553 118.306 113.42 116.948 111.081C116.343 110.057 115.834 109.127 115.793 108.972C115.686 108.574 116.351 108.324 120.414 107.283L124.163 106.302L126.15 108.26ZM170.022 95.1526C170.78 96.1349 174.031 102.805 175.052 105.472C176.311 108.762 176.543 110.242 176.112 112.159C175.352 115.398 172.878 118.053 166.486 122.469C161.51 125.913 160.198 127.095 158.993 129.291C158.42 130.322 157.333 131.988 156.566 133C154.712 135.418 154.193 136.387 153.909 138.146C153.556 140.352 154.118 141.742 156.792 145.294C157.937 146.837 158.88 148.244 158.862 148.439C158.819 148.806 157.893 149.315 156.572 149.669L155.647 149.917L153.921 147.7C152.268 145.582 150.177 142.182 149.892 141.12C149.685 140.346 149.271 140.385 149.318 141.179C149.36 142.306 150.571 144.709 152.628 147.809L154.533 150.69L153.828 150.878C152.728 151.173 150.828 151.042 149.642 150.577C147.748 149.852 146.675 148.313 144.97 143.885C143.548 140.164 143.09 140.832 144.216 145.036C144.896 147.486 145.041 147.85 146.44 149.989C147.827 152.083 147.942 152.337 147.695 152.735C147.476 153.15 147.332 153.141 146.049 152.844C144.182 152.396 142.43 151.229 140.759 149.306C139.5 147.865 138.996 146.956 137.456 143.409L137.242 142.873L137.111 143.62C136.923 144.856 137.389 146.77 138.193 148.096C138.587 148.773 139.748 150.288 140.782 151.505C142.194 153.166 142.598 153.793 142.436 153.979C142.305 154.108 141.558 154.403 140.81 154.604C139.533 154.946 139.317 154.933 138.656 154.493C137.616 153.871 135.438 151.467 133.489 148.859C131.727 146.509 130.649 144.687 129.913 142.821C128.562 139.366 130.204 136.863 136.423 133.038C140.679 130.428 142.519 129.104 145.215 126.746C149.316 123.205 151.637 120.33 156.495 112.744C157.441 111.258 159.119 108.887 160.215 107.432C162.474 104.502 162.877 103.802 162.97 102.828C163.108 101.582 162.938 101.651 161.878 103.334C161.271 104.327 160.145 105.672 159.1 106.616L157.359 108.221L157.074 107.159C156.914 106.561 156.206 104.712 155.496 103.029C154.779 101.324 154.244 99.8544 154.309 99.7423C154.389 99.6022 156.851 98.7527 159.766 97.8294C162.703 96.9002 165.666 95.8929 166.369 95.6097C167.066 95.3044 168.055 94.9446 168.577 94.7809C169.452 94.5228 169.558 94.5655 170.022 95.1526ZM137.145 124.901C137.366 125.458 137.751 126.896 137.983 128.115C138.407 130.135 138.4 130.374 138.005 130.575C133.346 132.914 130.688 134.883 129.065 137.191C128.008 138.708 127.377 138.995 122.776 140.228L120.002 140.972L124.053 137.42C129.862 132.33 133.841 128.157 135.632 125.33C136.095 124.589 136.526 123.999 136.587 123.96C136.675 123.936 136.909 124.371 137.145 124.901ZM202.829 120.011C200.87 128.29 196.848 140.229 194.659 144.301C194.167 145.192 193.072 146.742 192.205 147.733C191.343 148.747 190.534 149.865 190.397 150.233C190.146 151.059 190.233 153.408 190.606 154.801L190.885 155.841L189.796 156.797C187.688 158.619 186.511 161.448 186.72 164.166C186.782 164.837 187.932 169.746 189.283 175.051C191.254 182.847 192.009 185.49 193.197 188.776C194.267 191.714 194.633 192.992 194.54 193.349C194.438 193.85 194.284 193.891 190.61 194.71C187.03 195.527 186.683 195.644 185.267 196.521C183.002 197.934 181.133 198.53 179.784 198.251C179.19 198.149 176.782 197.087 174.41 195.897C170.191 193.802 169.59 193.584 166.979 193.264C165.688 193.112 165.66 193.096 164.285 191.401L162.883 189.69L163.967 187.218C164.567 185.848 165.222 184.154 165.437 183.457C165.879 181.939 166.116 178.769 165.855 177.796C165.76 177.442 165.753 177.064 165.845 176.968C165.916 176.878 167.057 176.999 168.328 177.252C171.992 177.977 172.273 177.973 173.162 177.237C176.41 174.564 184.271 162.071 185.228 158.068L185.516 156.853L183.986 155.105C180.497 151.155 176.83 149.007 171.157 147.563L169.435 147.124L167.876 141.305C167.022 138.119 166.306 135.181 166.277 134.809L166.231 134.11L167.693 134.192C170.366 134.306 178.701 131.859 180.439 130.421C180.69 130.212 181.248 128.948 181.644 127.608C182.068 126.285 182.502 125.173 182.612 125.144C182.986 125.043 183.421 125.52 184.023 126.71C184.345 127.383 184.838 128.08 185.136 128.309C185.662 128.69 185.684 128.684 186.883 127.96C187.556 127.566 189.843 125.886 191.992 124.219C197.479 119.951 199.82 118.47 202.428 117.724L203.435 117.43L202.829 120.011ZM127.734 140.678C127.869 140.832 127.895 142.248 127.84 143.804C127.648 148.195 128.561 151.602 130.436 153.494C131.405 154.468 132.334 154.764 133.936 154.667C135.124 154.61 135.23 154.652 135.552 155.325C136.533 157.315 142.436 176.174 142.987 179.109C143.414 181.319 143.334 181.814 142.567 182.21C142.238 182.393 139.197 183.373 135.771 184.41L129.555 186.313L128.206 185.417C126.556 184.366 124.599 182.258 123.21 180.069C122.641 179.178 121.159 176.469 119.927 174.072C118.667 171.659 116.531 167.915 115.165 165.72C110.967 158.948 110.703 158.403 109.193 153.472C107.9 149.265 107.841 149.044 108.056 148.085C108.457 146.413 108.624 146.154 109.733 145.715C110.717 145.333 120.211 142.457 125.279 141.028C127.094 140.494 127.575 140.436 127.734 140.678ZM158.966 134.562C160.285 136.225 162.057 139.757 162.688 141.936C163.537 144.839 163.417 145.274 159.117 154.323C155.013 162.963 153.937 165.552 153.51 167.919C153.152 169.841 153.442 170.925 155.941 177.346C159.656 186.808 161.15 189.917 163.182 192.479C164.07 193.593 164.259 193.945 164.14 194.38C164.012 194.96 162.427 196.357 160.279 197.762C159.536 198.246 158.675 198.998 158.384 199.408C158.093 199.818 157.395 201.618 156.791 203.416C155.575 207.156 155.195 207.851 154.077 208.435C152.862 209.093 152.318 209.002 151.937 208.108C151.089 206.177 146.61 192.367 145.214 187.334L144.192 183.695L144.592 182.545L144.991 181.394L143.48 175.491C142.659 172.249 141.36 167.665 140.593 165.333C139.805 163.007 138.797 159.862 138.3 158.359L137.427 155.629L138.331 156.098C138.822 156.346 139.829 157.285 140.558 158.157C142.05 159.939 143.491 161 144.756 161.23C147.086 161.649 155.529 158.106 156.591 156.256C156.897 155.724 156.865 155.519 156.364 154.088C155.928 152.901 155.847 152.424 156.008 152.144C156.115 151.926 157.001 151.356 157.954 150.864C158.907 150.371 159.941 149.738 160.246 149.467C160.736 149.004 160.756 148.904 160.413 147.976C160.193 147.418 159.164 145.868 158.116 144.513C156.537 142.493 156.087 141.784 155.677 140.518C155.121 138.794 155.169 138.093 156.007 136.375C156.498 135.39 157.723 133.71 158.031 133.627C158.119 133.604 158.536 134.014 158.966 134.562ZM162.11 133.436C162.931 133.595 163.804 133.859 164.039 134.033C164.415 134.288 164.743 135.338 166.083 140.339C166.966 143.635 167.762 146.955 167.869 147.709L168.027 149.09L165.489 153.445C163.756 156.4 162.854 158.23 162.643 159.116C162.342 160.549 162.382 163.075 162.774 164.536C163.017 165.443 163.017 165.443 162.133 165.845C160.806 166.438 158.47 168.202 156.797 169.884C155.977 170.696 155.28 171.357 155.236 171.369C155.038 171.422 154.829 169.937 154.888 168.925C155.046 166.606 156.062 164.057 160.35 155.225C165.646 144.345 165.744 143.299 162.047 136.725C161.224 135.238 160.408 133.868 160.283 133.664C159.915 133.17 160.373 133.118 162.11 133.436ZM106.592 151.252C107.838 155.021 108.956 157.875 109.879 159.643C110.515 160.872 110.965 161.937 110.895 162.027C110.618 162.314 108.665 161.367 107.698 160.488C105.353 158.342 104.363 156.497 104.659 154.781C104.857 153.495 105.832 151.408 106.272 151.29C106.448 151.243 106.586 151.23 106.592 151.252ZM131.364 148.503C132.228 149.789 133.237 151.179 133.604 151.579C134.485 152.576 134.482 152.742 133.624 152.972C132.633 153.238 131.361 152.63 130.768 151.651C130.283 150.809 128.948 146.092 129.125 145.783C129.286 145.503 129.597 145.87 131.364 148.503ZM152.306 152.33C153.198 152.399 153.957 152.504 154.013 152.536C154.243 152.688 155.144 155.435 155.033 155.725C154.859 156.222 151.41 157.882 148.195 159.004L145.392 159.992L144.084 159.252C142.749 158.495 141.834 157.46 141.911 156.775C141.929 156.58 142.363 156.085 142.87 155.688C143.399 155.285 144.075 154.725 144.418 154.42C145 153.861 145.05 153.871 145.681 154.2C146.016 154.395 146.677 154.573 147.087 154.606C147.807 154.65 147.971 154.558 148.92 153.522C149.49 152.918 150.144 152.364 150.336 152.288C150.534 152.235 151.436 152.255 152.306 152.33ZM174.123 150.088C175.264 150.47 176.801 151.102 177.538 151.473L178.872 152.136L177.428 155.819C175.158 161.525 174.736 163.559 174.802 168.474L174.837 170.456L173.305 169.231C171.297 167.635 168.945 166.344 166.642 165.586C164.556 164.935 164.313 164.645 163.995 162.667C163.59 160.096 164.302 158.174 167.939 152.196C168.675 150.979 169.327 149.714 169.36 149.397L169.421 148.835L170.72 149.103C171.442 149.242 172.976 149.684 174.123 150.088ZM183.229 156.683C183.402 157.064 183.556 157.639 183.573 157.967C183.582 158.794 182.199 161.56 179.312 166.459C177.009 170.372 176.799 170.642 176.584 170.107C176.168 169.08 176.223 165.414 176.703 162.89C177.133 160.617 178.664 156.294 179.751 154.272L180.179 153.493L181.529 154.744C182.283 155.443 183.062 156.325 183.229 156.683ZM166.249 167.114C168.523 167.5 174.273 171.343 174.64 172.715C174.788 173.268 174.181 174.26 172.877 175.558C171.916 176.551 172.126 176.542 168.076 175.517C166.603 175.129 164.001 174.664 162.272 174.464C158.741 174.058 156.849 173.688 156.5 173.354C155.932 172.819 159.231 169.279 161.617 167.881C162.963 167.093 164.524 166.841 166.249 167.114ZM160.294 175.8C161.867 175.947 163.324 176.102 163.54 176.116C163.862 176.172 163.955 176.431 164.175 177.866C164.455 179.617 164.316 181.741 163.776 183.688C163.48 184.787 162.359 187.293 162.086 187.508C161.889 187.656 161.095 185.924 158.972 180.731C157.045 176.006 156.928 175.658 157.237 175.576C157.347 175.546 158.72 175.652 160.294 175.8ZM142.459 184.8C142.646 185.058 143.532 187.571 144.428 190.39C148.804 203.991 150.137 207.997 150.402 208.543C150.66 209.066 150.617 209.173 149.647 209.954C149.086 210.413 147.605 211.758 146.372 212.966C145.132 214.152 143.967 215.176 143.769 215.229C142.8 215.488 141.725 213.855 140.061 209.582C138.312 205.166 136.802 200.591 134.71 193.397L132.817 186.862L137.484 185.611C142.108 184.372 142.152 184.36 142.459 184.8ZM135.406 202.601C135.58 202.721 135.985 203.442 136.325 204.181C137.179 206.134 139.692 213.049 139.618 213.211C139.563 213.273 138.408 213.013 137.03 212.624C135.651 212.234 133.437 211.808 132.101 211.668C129.84 211.42 129.011 211.144 128.863 210.591C128.75 210.171 129.253 207.641 129.629 206.758C130.45 204.712 134.409 201.873 135.406 202.601ZM169.425 195.17C170.148 195.403 171.737 196.139 172.937 196.742C174.143 197.367 176.481 198.52 178.126 199.288C181.924 201.045 183.168 201.897 183.422 202.849C183.737 204.021 183.468 204.781 182.33 206.082C180 208.746 178.821 208.398 169.675 202.359C166.233 200.08 163.967 198.932 162.682 198.802C161.784 198.711 161.901 198.442 163.332 197.442C164.003 196.954 165.002 196.189 165.541 195.736C166.788 194.667 167.649 194.531 169.425 195.17ZM161.429 200.205C162.349 200.291 163.666 200.625 164.363 200.937C167 202.151 173 206.4 174.58 208.158C175.015 208.635 175.544 209.465 175.774 209.973C176.582 211.843 175.31 213.085 173.084 212.614C171.929 212.355 168.921 211.169 164.4 209.179C162.527 208.353 160.276 207.438 159.397 207.152C158.496 206.872 157.749 206.55 157.714 206.418C157.595 205.975 159.382 200.137 159.668 200.06C159.712 200.049 160.504 200.097 161.429 200.205ZM192.974 195.784C196.396 195.08 196.446 195.091 196.867 196.662C197.057 197.37 197.282 198.827 197.362 199.92C197.443 201.013 197.529 202.128 197.556 202.405C197.637 203.498 196.703 204.768 194.086 207.153C192.638 208.442 190.524 210.242 189.395 211.137C184.367 215.093 171.732 222.628 171.513 221.809C171.483 221.699 171.818 220.921 172.238 220.026C173.215 218.033 173.343 217.193 172.887 215.489C172.567 214.294 172.569 214.128 172.951 214.144C176.499 214.261 178.244 212.584 177.491 209.774L177.254 208.889L178.641 209.134C179.384 209.266 180.352 209.268 180.77 209.156C182.598 208.666 185.285 205.219 185.172 203.566C185.081 202.523 184.594 201.586 183.608 200.546C183.179 200.092 182.835 199.686 182.851 199.658C182.889 199.624 183.376 199.328 183.929 199.014C184.504 198.694 185.544 198.083 186.277 197.65C187.191 197.096 188.048 196.772 189.056 196.573C189.866 196.427 191.635 196.071 192.974 195.784ZM131.131 213.066C133.334 213.187 136.2 213.842 138.211 214.655C139.927 215.333 142.267 216.58 142.326 216.801C142.35 216.89 141.773 217.732 141.054 218.659C139.929 220.099 139.078 221.679 138.382 223.573C138.241 224.014 138.131 224.043 136.043 224.176C134.143 224.306 127.93 224.547 120.49 224.786C117.356 224.891 117.356 224.891 117.549 222.705C117.913 218.6 119.198 216.88 123.388 214.904C126.108 213.606 128.994 212.927 131.131 213.066ZM159.388 208.791C160.249 209.011 161.234 209.34 161.607 209.5L162.282 209.818L161.69 209.81C160.772 209.819 156.786 208.943 156.532 208.702C156.116 208.292 157.759 208.35 159.388 208.791ZM154.567 210.438C156.665 210.517 164.375 212.079 166.918 212.939C169.227 213.719 170.932 214.709 171.389 215.535C172.155 216.895 171.591 218.753 169.64 221.339L168.662 222.621L167.026 222.941C165.389 223.261 164.841 223.241 152.413 222.303C148.127 221.981 145.254 222.182 141.886 223.084L139.788 223.623L140.89 221.834C142.555 219.064 147.263 213.913 150.143 211.718C151.491 210.67 152.608 210.347 154.567 210.438ZM127.09 226.077C133.198 225.887 138.273 225.807 138.397 225.916C138.521 226.025 138.919 226.986 139.264 228.008C139.615 229.052 140.306 230.574 140.801 231.366C142.154 233.684 142.18 233.605 140.258 234.358C139.335 234.7 136.716 235.496 134.405 236.116C128.3 237.728 125.696 237.785 121.993 236.382C118.607 235.108 115.697 232.876 114.798 230.841C114.267 229.655 114.73 226.804 115.501 226.597C115.787 226.52 121.01 226.283 127.09 226.077ZM200.466 204.898C202.521 205.96 202.818 207.422 201.38 209.277C199.607 211.555 189.274 220.726 185.707 223.176C183.478 224.721 177.681 227.745 175.603 228.444C174.092 228.968 173.909 228.993 173.677 228.652C173.551 228.448 172.759 227.428 171.9 226.425C170.605 224.851 170.422 224.52 170.633 224.25C170.774 224.07 171.787 223.538 172.847 223.088C179.939 220.144 192.661 211.258 197.684 205.786C198.318 205.07 198.982 204.466 199.114 204.43C199.268 204.389 199.891 204.601 200.466 204.898ZM145.552 223.999C148.546 223.458 149.044 223.467 157.641 224.198C160.709 224.467 164.302 224.666 165.646 224.662C168.488 224.612 168.982 224.693 169.124 225.224C169.177 225.423 169.948 226.45 170.835 227.469C171.705 228.516 172.402 229.444 172.332 229.534C172.058 230.01 170.074 230.708 164.592 232.177L158.538 233.799L153.053 233.585C145.708 233.3 144.139 233.08 143.193 232.101C142.403 231.269 140.983 228.875 140.267 227.17C139.475 225.272 139.88 225.021 145.552 223.999ZM190.223 222.416C190.718 222.592 191.502 224.018 191.573 224.9C191.625 225.36 191.619 226.216 191.557 226.778L191.459 227.823L185.133 229.4C181.659 230.26 175.977 231.687 172.524 232.541L166.264 234.1L167.343 237.51L168.444 240.915L165.458 241.572C163.811 241.943 160.831 242.623 158.804 243.071C156.782 243.541 154.881 243.932 154.599 243.937L154.035 243.945L152.985 239.674C152.373 237.301 151.933 235.308 151.982 235.224C152.03 235.14 152.998 235.141 154.15 235.212C157.704 235.445 160.644 234.966 166.663 233.211C174.651 230.881 181.246 227.928 186.821 224.252C186.88 224.213 186.938 224.175 186.995 224.138C189.769 222.3 189.814 222.27 190.223 222.416ZM144.971 235.039C146.206 234.803 147.84 234.65 148.598 234.66L149.954 234.7L150.576 237.023L151.193 239.324L150.488 239.513C145.991 240.694 133.383 243.575 131.97 243.763C129.774 244.02 129.14 243.858 128.508 242.818C127.887 241.822 127.667 240.032 128.09 239.586C128.465 239.225 141.685 235.635 144.971 235.039ZM165.982 243.353C166.206 243.483 172.802 263.352 173.783 266.836C173.837 267.035 174.1 267.225 174.382 267.221C175.174 267.269 176.705 268.14 177.494 268.972C178.588 270.149 179.18 272.622 178.796 274.361C178.262 276.947 176.612 278.361 173.111 279.299L170.91 279.889L169.865 279.339C168.364 278.579 166.784 276.821 166.44 275.538C166.12 274.343 166.295 273.324 167.188 271.022C168.092 268.669 168.106 268.547 167.472 266.179C166.885 263.989 161.106 246.817 160.436 245.289L160.073 244.462L162.877 243.829C164.436 243.483 165.842 243.272 165.982 243.353ZM76.6691 41.6039C76.4261 41.9299 75.581 43.5317 74.7859 45.1438C73.9968 46.7781 72.9392 48.5554 72.4294 49.1188C71.2414 50.4094 69.5808 51.2575 68.0286 51.3651C67.3986 51.3916 66.8804 51.4831 66.9041 51.5716C67.0642 52.1689 69.5665 52.613 71.7368 52.4346C72.985 52.3372 73.4254 52.2192 74.6134 51.5452C75.9716 50.8019 76.5771 50.3314 82.3962 45.4523C85.1694 43.1204 87.1475 41.7841 88.9097 41.0511C89.4423 40.8372 89.9834 40.4788 90.0681 40.2664C90.35 39.6455 89.1916 39.8136 86.7308 40.7575C84.0617 41.8047 83.1718 42.4463 78.0818 46.964C76.008 48.8239 74.2315 50.2959 74.1476 50.2472C74.0858 50.1926 74.306 49.5171 74.6844 48.728C75.4457 47.0775 77.4516 42.0582 77.6099 41.3281C77.764 40.6703 77.2576 40.8059 76.6691 41.6039ZM98.3226 36.7267C94.678 38.2724 91.5788 41.8536 90.8617 45.3419C90.4392 47.3759 90.8101 47.7033 91.4917 45.9319C92.7398 42.7518 94.695 40.4495 97.3353 39.0306C98.984 38.1383 102.573 37.1767 104.623 37.0779C107.999 36.9084 112.221 38.5752 115.48 41.4013C117.396 43.0932 117.542 42.5799 115.708 40.5813C114.134 38.8452 109.761 36.1753 107.841 35.7888C104.743 35.1486 101.226 35.4981 98.3226 36.7267ZM58.6519 50.0123C58.0939 50.6598 57.4368 51.6421 57.2251 52.1731L56.8441 53.1289L57.519 54.0626C58.7834 55.7869 58.7673 55.8149 57.8486 57.3179C56.8435 58.9389 56.8384 59.2722 57.874 58.7339C58.7394 58.2648 60.1865 56.0037 60.1653 55.132C60.1704 54.7987 59.946 54.3134 59.6471 53.9903C58.8798 53.1525 58.8375 52.6422 59.4268 50.9666C60.3573 48.2748 60.2218 48.1214 58.6519 50.0123ZM128.763 63.1444C128.219 63.6695 127.635 64.3952 127.498 64.7639C126.54 67.1784 128.999 69.8394 132.055 69.7082C133.243 69.6507 133.441 69.5976 134.061 69.0047C135.04 68.0784 135.213 66.6093 134.577 64.7641C134.291 63.9632 133.832 63.0428 133.512 62.7256C132.366 61.4438 130.433 61.6296 128.763 63.1444ZM132.295 63.6445C133.034 64.4661 133.656 66.1727 133.504 66.9249C133.202 68.2627 131.627 68.6373 130.062 67.7287C128.581 66.8687 128.495 65.4926 129.82 64.0943C130.704 63.1695 131.697 62.9984 132.295 63.6445Z" fill="black"/>
<path d="M192.974 195.784C196.396 195.08 196.446 195.091 196.867 196.662C197.057 197.37 197.282 198.827 197.362 199.92C197.443 201.013 197.529 202.128 197.556 202.405C197.637 203.498 196.703 204.768 194.086 207.153C192.638 208.442 190.524 210.242 189.395 211.137C184.367 215.093 171.732 222.628 171.513 221.809C171.483 221.699 171.818 220.921 172.238 220.026C173.215 218.033 173.343 217.193 172.887 215.489C172.567 214.294 172.569 214.128 172.951 214.144C176.498 214.261 178.244 212.584 177.491 209.774L177.254 208.889L178.641 209.134C179.384 209.266 180.352 209.268 180.77 209.156C182.598 208.666 185.285 205.219 185.172 203.566C185.081 202.523 184.594 201.586 183.608 200.546C183.179 200.092 182.835 199.686 182.851 199.658C182.889 199.625 183.376 199.328 183.929 199.014C184.504 198.694 185.544 198.083 186.277 197.65C187.191 197.097 188.047 196.772 189.056 196.573C189.866 196.427 191.635 196.072 192.974 195.784Z" fill="black"/>
<path d="M92.0764 84.3095L92.61 86.3007L91.8064 86.8243C91.3635 87.109 89.8537 87.727 88.4463 88.1989L85.9118 89.044L85.6586 87.5705C85.5112 86.7563 85.4045 85.7415 85.4299 85.3079C85.4561 84.6132 85.5264 84.5232 86.363 84.299C86.8694 84.1633 87.7526 83.7607 88.2996 83.4244C88.8746 83.1043 89.8298 82.7061 90.4302 82.569L91.5429 82.3182L92.0764 84.3095Z" fill="#FEFFBB"/>
<path d="M99.3571 80.7461C99.546 81.7152 99.7162 82.879 99.7408 83.3229C99.7942 84.1386 99.7942 84.1386 98.6434 84.4232C97.1784 84.7683 96.7491 84.5751 96.4569 83.3966C96.058 81.8198 96.2409 80.9171 97.1656 80.0528C97.6169 79.6236 98.2401 79.2195 98.5264 79.1428C99.0548 79.0012 99.0607 79.0233 99.3571 80.7461Z" fill="#FEFFBB"/>
<path d="M103.961 79.3465C104.849 79.227 105.694 79.1194 105.848 79.0781C106.068 79.0191 106.191 79.3893 106.436 80.7463C106.603 81.7213 106.692 82.6697 106.596 82.8378C106.517 83.0723 105.726 83.3791 104.053 83.8275L101.631 84.4764L101.263 82.4881C100.744 79.7579 100.748 79.6856 101.627 79.6163C102.041 79.5765 103.095 79.46 103.961 79.3465Z" fill="#FEFFBB"/>
<path d="M92.1257 88.8967C92.2214 88.9896 92.2028 89.1843 92.1105 89.2802C91.8175 89.5958 87.6081 92.028 87.1678 92.1459C86.8595 92.2285 86.0643 91.3745 85.9102 90.7993C85.8213 90.4674 91.8166 88.6238 92.1257 88.8967Z" fill="#FEFFBB"/>
<path d="M101.14 100.259L103.38 99.6348L103.534 100.21C103.801 101.206 104.655 101.925 105.836 102.107C106.429 102.209 106.959 102.423 107.006 102.6C107.054 102.777 106.831 103.619 106.492 104.468C106.176 105.312 105.604 107.054 105.246 108.359L104.602 110.713L104.093 110.044C103.384 109.072 102.926 109.123 102.354 110.249L101.851 111.19L101.437 110.613C101.051 110.053 100.929 110.038 99.8941 110.315L98.7932 110.61L98.5019 109.787C98.2462 109.097 98.1225 108.988 97.5264 109.052L96.8362 109.119L95.9842 106.027C95.5278 104.324 94.9891 102.666 94.7901 102.363L94.448 101.791L96.6632 101.34C97.8919 101.082 99.8912 100.617 101.14 100.259Z" fill="#545151"/>
<path d="M132.295 63.6447C133.034 64.4663 133.656 66.1728 133.504 66.9251C133.202 68.2629 131.627 68.6375 130.062 67.7289C128.581 66.8689 128.495 65.4927 129.82 64.0945C130.704 63.1697 131.697 62.9986 132.295 63.6447Z" fill="#DCC70D"/>
<path d="M130.486 74.4208C130.792 76.9711 130.305 79.1172 129.124 80.1688C128.438 80.7794 126.212 82.1585 125.661 82.306C125.529 82.3414 125.342 82.0832 125.253 81.7514C124.909 80.4681 125.337 77.4842 126.461 73.223L126.983 71.2097L128.672 72.2275L130.332 73.229L130.486 74.4208Z" fill="#DCC70D"/>
<path d="M173.935 86.4209C174.111 86.6348 174.381 87.2027 174.511 87.6894C174.825 88.862 174.35 89.4638 171.889 91.0243C169.4 92.5685 167.421 93.5493 164.356 94.7027C161.246 95.8679 153.673 98.2527 153.428 98.1288C153.322 98.086 152.994 97.3913 152.687 96.5963L152.141 95.1773L153.295 94.726C153.938 94.4827 156.234 93.6302 158.432 92.8514C163.642 90.9813 167.681 89.235 170.418 87.648C173.117 86.0949 173.485 85.9725 173.935 86.4209Z" fill="white"/>
<path d="M200.466 204.898C202.521 205.96 202.818 207.422 201.38 209.277C199.607 211.555 189.274 220.726 185.707 223.176C183.478 224.721 177.681 227.745 175.603 228.444C174.092 228.968 173.909 228.993 173.677 228.652C173.551 228.448 172.759 227.428 171.9 226.425C170.605 224.851 170.422 224.521 170.633 224.251C170.774 224.071 171.787 223.538 172.847 223.088C179.939 220.144 192.661 211.258 197.684 205.786C198.318 205.071 198.982 204.466 199.114 204.431C199.268 204.389 199.891 204.602 200.466 204.898Z" fill="#BABABA"/>
<path d="M145.552 223.999C148.546 223.458 149.044 223.467 157.641 224.199C160.709 224.467 164.302 224.666 165.646 224.662C168.488 224.612 168.982 224.693 169.124 225.224C169.177 225.423 169.948 226.45 170.835 227.469C171.705 228.516 172.402 229.444 172.332 229.534C172.058 230.01 170.074 230.708 164.592 232.177L158.538 233.799L153.053 233.585C145.709 233.3 144.139 233.081 143.193 232.101C142.403 231.269 140.983 228.875 140.267 227.17C139.475 225.272 139.88 225.021 145.552 223.999Z" fill="#BABABA"/>
<path d="M127.09 226.077C133.198 225.887 138.273 225.807 138.397 225.916C138.521 226.026 138.919 226.986 139.264 228.008C139.615 229.052 140.306 230.575 140.801 231.367C142.154 233.684 142.18 233.606 140.258 234.358C139.335 234.7 136.716 235.496 134.405 236.116C128.3 237.728 125.696 237.785 121.993 236.383C118.607 235.108 115.697 232.876 114.798 230.841C114.267 229.655 114.731 226.804 115.501 226.597C115.787 226.521 121.01 226.283 127.09 226.077Z" fill="#BABABA"/>
<path d="M169.425 195.17C170.148 195.403 171.737 196.139 172.937 196.742C174.143 197.368 176.481 198.52 178.126 199.288C181.924 201.045 183.168 201.898 183.423 202.849C183.737 204.022 183.468 204.781 182.33 206.082C180 208.746 178.821 208.398 169.675 202.359C166.233 200.08 163.967 198.932 162.682 198.803C161.784 198.711 161.901 198.443 163.332 197.443C164.003 196.954 165.002 196.189 165.541 195.736C166.788 194.667 167.649 194.531 169.425 195.17Z" fill="#313E4A"/>
<path d="M161.429 200.205C162.349 200.291 163.666 200.626 164.363 200.937C167 202.151 173 206.4 174.58 208.159C175.015 208.635 175.544 209.466 175.774 209.973C176.582 211.843 175.31 213.085 173.084 212.615C171.929 212.355 168.921 211.169 164.4 209.179C162.527 208.353 160.276 207.438 159.397 207.152C158.496 206.872 157.749 206.55 157.714 206.418C157.595 205.975 159.382 200.137 159.668 200.061C159.712 200.049 160.504 200.098 161.429 200.205Z" fill="#313E4A"/>
<path d="M154.567 210.438C156.665 210.517 164.375 212.079 166.918 212.939C169.227 213.719 170.932 214.709 171.389 215.535C172.155 216.895 171.591 218.753 169.641 221.339L168.663 222.621L167.026 222.941C165.389 223.261 164.841 223.242 152.413 222.303C148.127 221.981 145.254 222.182 141.886 223.085L139.788 223.623L140.89 221.834C142.555 219.064 147.263 213.913 150.143 211.719C151.491 210.67 152.608 210.347 154.567 210.438Z" fill="#313E4A"/>
<path d="M135.406 202.601C135.58 202.721 135.985 203.442 136.325 204.181C137.179 206.134 139.692 213.049 139.618 213.211C139.563 213.273 138.408 213.013 137.03 212.624C135.651 212.234 133.437 211.808 132.101 211.668C129.84 211.42 129.011 211.144 128.863 210.591C128.751 210.171 129.253 207.641 129.629 206.758C130.45 204.712 134.409 201.873 135.406 202.601Z" fill="#313E4A"/>
<path d="M131.131 213.066C133.334 213.187 136.2 213.842 138.211 214.655C139.927 215.334 142.267 216.58 142.326 216.801C142.35 216.89 141.773 217.732 141.054 218.66C139.93 220.099 139.079 221.679 138.383 223.573C138.241 224.014 138.131 224.043 136.043 224.176C134.143 224.306 127.93 224.547 120.49 224.786C117.356 224.891 117.356 224.891 117.549 222.705C117.913 218.6 119.198 216.88 123.388 214.904C126.108 213.606 128.994 212.928 131.131 213.066Z" fill="#313E4A"/>
<path d="M159.388 208.791C160.249 209.011 161.234 209.34 161.607 209.501L162.282 209.818L161.69 209.81C160.772 209.819 156.786 208.943 156.532 208.702C156.116 208.292 157.759 208.35 159.388 208.791Z" fill="#313E4A"/>
<path fill-rule="evenodd" clip-rule="evenodd" d="M105.253 42.6004C108.997 42.5696 112.713 44.111 114.977 46.6584L116.163 48.0006L113.24 54.0008L110.311 59.9788L107.087 62.4788C103.476 65.296 102.629 65.8314 101.739 65.8564C100.445 65.8711 96.9965 63.5701 95.0497 61.4121C94.434 60.6997 94.2375 60.2306 93.5024 57.4871C92.7021 54.5003 92.6767 54.3174 92.9671 52.9353C93.8671 48.5443 96.2829 45.4071 100.143 43.5192C100.96 43.1343 103.749 42.624 105.253 42.6004ZM105.843 55.1054C105.647 54.3752 106.045 52.5138 106.456 52.2852C107.414 51.7203 108.739 51.9106 109.71 52.7175C110.524 53.3768 110.548 54.0818 109.772 55.2382C108.964 56.4506 107.929 56.7279 106.79 56.0848C106.342 55.8252 105.914 55.3709 105.843 55.1054Z" fill="#FFE8E8"/>
<path fill-rule="evenodd" clip-rule="evenodd" d="M69.0808 64.9794C71.8372 64.7863 74.4462 65.6286 76.3804 67.3868C78.1629 69.0196 79.0877 70.6215 79.8465 73.4535C80.1904 74.7367 80.4224 75.9551 80.3538 76.1394C80.2446 76.5244 80.3767 76.489 73.0968 77.3251C69.0397 77.7719 62.9673 78.7113 61.5583 79.0889C60.1932 79.4547 59.9663 79.1361 59.912 76.7318C59.8484 74.1167 60.6595 70.0104 61.5241 68.5693C61.9 67.9469 62.6164 67.1858 63.2337 66.7596C64.4302 65.941 67.1366 65.121 69.0808 64.9794ZM67.5061 74.6022C66.7727 73.8027 66.7303 72.6758 67.3773 71.7437C67.97 70.8734 67.9099 70.9132 69.0658 70.9118C70.1556 70.928 71.0914 71.6021 71.3403 72.5314C71.7494 74.058 70.1083 75.6834 68.5257 75.3249C68.2699 75.2512 67.805 74.9252 67.5061 74.6022Z" fill="#FFE8E8"/>
<path d="M117.49 51.9846C118.092 55.6411 117.774 58.5955 116.559 60.8418C115.815 62.2032 115.325 62.3109 114.064 61.3919C112.248 60.0762 112.23 60.0098 112.91 58.4051C114.092 55.5982 116.954 49.899 117.112 50.0465C117.14 50.0627 117.305 50.9433 117.49 51.9846Z" fill="#FFE8E8"/>
<path d="M106.456 52.2852C106.045 52.5138 105.647 54.3752 105.843 55.1054C105.914 55.3709 106.342 55.8252 106.79 56.0848C107.929 56.7279 108.964 56.4506 109.772 55.2382C110.548 54.0818 110.524 53.3768 109.71 52.7175C108.739 51.9106 107.414 51.7203 106.456 52.2852Z" fill="#FFE8E8"/>
<path d="M67.3773 71.7437C66.7303 72.6758 66.7727 73.8027 67.5061 74.6022C67.805 74.9252 68.2699 75.2512 68.5257 75.3249C70.1083 75.6834 71.7494 74.058 71.3403 72.5314C71.0914 71.6021 70.1556 70.928 69.0658 70.9118C67.9099 70.9132 67.97 70.8734 67.3773 71.7437Z" fill="#FFE8E8"/>
<path d="M66.4656 79.7896C75.8295 78.2765 80.2218 78.0244 81.2228 78.9419C81.9028 79.5422 82.4974 82.4656 82.2603 84.0468C82.0478 85.4554 81.0503 87.1929 79.7827 88.3625C78.858 89.2268 78.5836 89.3478 76.4641 89.892C74.5207 90.389 73.8805 90.4657 72.4672 90.299C68.0232 89.8298 64.2159 87.8621 62.2673 84.9932C61.5746 83.9932 60.4152 81.3396 60.5363 80.9989C60.6252 80.7143 60.0409 80.8234 66.4656 79.7896Z" fill="#D7DFF4" fill-opacity="0.6"/>
<path d="M113.09 62.6014C115.584 64.423 116.934 65.6738 117.094 66.2712C117.278 66.9571 115.962 69.4439 114.521 71.1106C111.899 74.1844 108.585 76.2581 104.501 77.3996C102.152 78.053 101.875 78.0795 100.67 77.8096C98.932 77.398 94.0069 75.3978 94.0958 75.1131C94.2575 74.5718 110.343 61.7723 111.13 61.5378C111.328 61.4847 112.21 61.9597 113.09 62.6014Z" fill="#D7DFF4" fill-opacity="0.6"/>
<path d="M109.582 78.2199C111.543 79.0223 112.941 79.8336 113.059 80.2761C113.119 80.4973 112.861 80.9457 112.426 81.3469C111.566 82.0991 108.371 84.0932 107.711 84.2702C107.315 84.3764 107.329 84.254 107.794 83.3468C108.269 82.3896 108.292 82.1226 108.009 80.5385C107.718 78.8378 107.74 77.8599 108.114 77.7596C108.202 77.736 108.869 77.9366 109.582 78.2199Z" fill="#6B0415"/>
<path d="M95.1257 83.8008C95.9218 86.2434 96.0057 86.2921 98.4783 86.009C99.4606 85.888 100.5 85.894 100.834 85.9943C101.224 86.127 102.09 86.0135 103.571 85.6403C107.111 84.7628 104.464 85.8041 98.8975 87.4854C93.4408 89.1373 93.4628 89.1314 93.8633 87.1033C93.9954 86.4513 93.953 85.3245 93.7937 84.466C93.3593 82.1399 93.366 81.901 93.9622 81.8361C94.4203 81.7845 94.4999 81.9054 95.1257 83.8008Z" fill="#6B0415"/>
<path d="M92.1257 88.8968C92.2214 88.9897 92.2028 89.1844 92.1105 89.2803C91.8175 89.5959 87.6081 92.0281 87.1678 92.1461C86.8595 92.2287 86.0643 91.3746 85.9102 90.7994C85.8213 90.4675 91.8166 88.6239 92.1257 88.8968Z" fill="#6B0415"/>
<path d="M115.15 81.8264C115.822 82.5713 116.154 84.1658 115.874 85.4977C115.267 88.3399 111.559 91.5863 106.03 94.1113C104.203 94.9564 102.531 95.4992 97.996 96.7144L92.2717 98.2483L89.5128 97.9915C87.9894 97.8543 86.5583 97.6213 86.3347 97.4915C85.9494 97.2864 85.9579 97.1419 86.2864 96.3424C86.9011 94.8498 88.394 93.2878 90.0105 92.4515C90.8277 92.0666 94.0472 90.8719 97.2083 89.8115C107.352 86.4532 111.071 84.7453 113.611 82.3338C114.666 81.3396 114.688 81.3337 115.15 81.8264Z" fill="#A2060F"/>
<path d="M170.022 95.1528C170.78 96.1351 174.031 102.805 175.052 105.472C176.311 108.763 176.543 110.242 176.112 112.159C175.352 115.398 172.878 118.053 166.486 122.469C161.51 125.913 160.198 127.095 158.993 129.291C158.42 130.322 157.333 131.989 156.566 133C154.712 135.418 154.193 136.387 153.909 138.147C153.556 140.352 154.118 141.743 156.792 145.294C157.937 146.837 158.88 148.244 158.862 148.439C158.819 148.806 157.893 149.315 156.572 149.669L155.647 149.917L153.921 147.7C152.268 145.582 150.177 142.182 149.892 141.12C149.685 140.346 149.271 140.385 149.318 141.179C149.36 142.306 150.571 144.709 152.628 147.809L154.533 150.69L153.828 150.879C152.728 151.174 150.828 151.042 149.642 150.578C147.748 149.852 146.675 148.313 144.97 143.886C143.548 140.164 143.09 140.832 144.216 145.036C144.896 147.486 145.041 147.85 146.44 149.989C147.827 152.084 147.942 152.337 147.695 152.735C147.476 153.15 147.332 153.141 146.049 152.845C144.182 152.396 142.43 151.229 140.759 149.306C139.5 147.865 138.996 146.956 137.456 143.409L137.242 142.873L137.111 143.62C136.923 144.856 137.389 146.77 138.193 148.096C138.587 148.773 139.748 150.288 140.782 151.505C142.194 153.166 142.598 153.793 142.436 153.979C142.305 154.109 141.558 154.404 140.81 154.604C139.533 154.946 139.317 154.933 138.656 154.493C137.616 153.871 135.438 151.467 133.489 148.859C131.727 146.509 130.649 144.688 129.913 142.822C128.562 139.366 130.204 136.863 136.423 133.038C140.679 130.428 142.519 129.105 145.215 126.746C149.316 123.205 151.637 120.33 156.495 112.745C157.441 111.258 159.119 108.888 160.215 107.432C162.474 104.502 162.877 103.802 162.97 102.828C163.108 101.582 162.938 101.651 161.878 103.334C161.271 104.327 160.145 105.672 159.1 106.616L157.359 108.221L157.074 107.159C156.914 106.561 156.206 104.712 155.496 103.029C154.779 101.324 154.244 99.8546 154.309 99.7425C154.389 99.6024 156.851 98.7528 159.766 97.8296C162.703 96.9004 165.666 95.8931 166.369 95.6099C167.066 95.3046 168.055 94.9447 168.577 94.781C169.452 94.5229 169.558 94.5657 170.022 95.1528Z" fill="#FFEC3D"/>
<path d="M126.15 108.26C129.978 111.977 134.88 118.56 135.473 120.772C135.746 121.79 135.709 121.918 134.577 123.858C132.685 127.187 127.893 132.289 122.334 136.908C117.534 140.922 116.15 141.743 110.728 143.789L107.624 144.976L107.183 145.972C106.949 146.509 106.078 148.189 105.303 149.7C102.746 154.512 102.507 155.998 103.864 158.243C105.141 160.367 106.215 161.384 108.551 162.702C111.887 164.583 112.368 164.881 113.026 165.487C114.539 166.908 113.851 168.041 110.871 168.981C109.199 169.524 108.945 169.545 108.248 169.234C107.128 168.751 104.709 166.506 102.049 163.449C99.5926 160.621 98.512 158.966 98.0614 157.285C97.7887 156.267 97.301 155.591 97.0918 155.956C96.8928 156.27 98.0522 160.156 98.6289 161.164C98.9092 161.681 100.257 163.454 101.588 165.161C102.934 166.84 104.169 168.453 104.34 168.739C104.62 169.257 104.604 169.285 103.503 169.58C102.182 169.934 101.367 169.797 100.12 169.017C97.9441 167.679 96.7686 165.67 95.2688 160.689C94.6455 158.627 94.051 156.936 93.9629 156.96C93.8748 156.984 93.7741 157.84 93.7369 158.846C93.6717 161.069 94.2222 163.388 95.4434 166.096C95.9041 167.111 96.2471 168.039 96.1827 168.151C95.9837 168.465 91.455 165.742 90.5023 164.74C89.9044 164.094 89.4132 163.23 88.8755 161.928C87.9549 159.637 87.7635 158.218 88.2055 156.961C88.6255 155.71 88.4442 155.474 87.7118 156.264C86.5661 157.448 86.594 158.081 87.8119 162.45C88.8578 166.177 88.9112 166.376 88.5149 166.482C87.8544 166.659 86.4131 165.86 85.6721 164.944C85.0666 164.181 84.9735 163.922 84.749 162.203C84.6363 161.166 84.0918 158.87 83.5675 157.089L82.6241 153.833L83.3802 152.516L84.1525 151.17L88.82 149.92C93.3775 148.699 93.5477 148.629 95.1049 147.572C97.9349 145.628 99.874 143.353 103.861 137.187C108.926 129.403 109.783 128.462 117.408 122.222L120.542 119.651L120.18 118.301C119.712 116.553 118.306 113.421 116.948 111.081C116.343 110.058 115.834 109.127 115.793 108.972C115.686 108.574 116.351 108.324 120.414 107.283L124.163 106.302L126.15 108.26Z" fill="#FFEC3D"/>
<path d="M174.123 150.089C175.264 150.471 176.801 151.102 177.538 151.474L178.872 152.136L177.428 155.819C175.158 161.526 174.736 163.56 174.802 168.474L174.837 170.457L173.305 169.231C171.297 167.635 168.945 166.344 166.642 165.586C164.556 164.935 164.313 164.645 163.995 162.667C163.59 160.096 164.302 158.174 167.939 152.196C168.675 150.979 169.327 149.714 169.36 149.397L169.421 148.835L170.72 149.103C171.442 149.242 172.976 149.684 174.123 150.089Z" fill="#FFEC3D"/>
<path fill-rule="evenodd" clip-rule="evenodd" d="M92.2184 22.0477C92.7146 22.5787 93.3506 23.1908 93.6359 23.3752C94.1627 23.7558 94.1567 23.7337 93.7485 22.5625C93.5046 21.9165 93.1989 21.2158 93.0516 21.0182C92.8305 20.7217 92.9288 20.648 93.7874 20.4179C94.9543 20.1052 95.4336 20.3088 96.3177 21.4947L96.9351 22.3015L96.7191 21.0552L96.5031 19.8088L97.6099 19.5359C100.478 18.7911 101.837 19.0198 102.181 20.3031C102.418 21.1881 102.781 21.0435 102.96 19.952C103.123 19.1496 103.215 19.0538 103.855 18.9771C104.661 18.9034 107.792 19.2264 108.177 19.4315C108.311 19.4905 108.304 20.346 108.141 21.4094C107.971 22.4508 107.927 23.3402 108.032 23.383C108.122 23.4538 108.668 22.762 109.255 21.8697C109.842 20.9773 110.42 20.2295 110.53 20.2C110.668 20.1867 111.675 20.5098 112.8 20.9199L114.849 21.6987L114.143 23.0262C113.453 24.3256 113.35 24.7327 113.295 26.0277C113.257 26.9393 113.742 26.5484 114.98 24.6516L116.153 22.8669L117.089 23.541L118.041 24.1871L117.607 25.5603C117.36 26.314 117.19 26.9999 117.208 27.0662C117.273 27.3096 117.716 27.025 118.404 26.2477C118.784 25.814 119.237 25.4792 119.414 25.5264C120.188 25.7698 124.534 31.6005 126.358 34.8824C128.334 38.3841 132.503 48.1279 132.217 48.56C132.147 48.65 131.556 48.9981 130.887 49.3196C129.28 50.1057 127.526 51.5718 126.969 52.5748C126.428 53.5498 126.726 53.5173 128.321 52.4259C129.676 51.4937 133.147 50.4451 133.277 50.9318C133.485 51.7062 133.163 53.4998 132.675 54.3184C132.186 55.137 131.946 55.2963 129.931 56.1444C127.258 57.2638 126.574 57.7077 125.508 59.0131C123.296 61.7639 122.95 65.9351 124.723 68.8512C125.88 70.7938 125.893 71.1935 124.893 74.3308C123.772 77.8087 123.385 79.9755 123.594 81.4608C123.739 82.4417 123.636 82.8487 122.797 84.4727C121.911 86.2751 121.563 87.5303 121.637 88.8622C121.773 91.2207 118.455 95.2163 112.938 99.3742C109.871 101.666 109.338 101.88 107.828 101.265C107.171 101.014 106.324 100.672 105.941 100.561C105.479 100.424 105.17 100.151 105.075 99.7973C104.838 98.9123 104.24 98.2662 103.676 98.275C103.372 98.2854 102.176 98.4874 101.019 98.7499C99.8624 99.0124 97.9215 99.3428 96.7352 99.4947L94.5606 99.7454L97.9258 98.654C108.578 95.2544 114.127 92.0126 116.645 87.7573C117.568 86.182 117.701 85.269 117.238 83.5433C116.444 80.5786 114.543 78.5032 111.698 77.4869C111.075 77.2745 110.528 76.9942 110.498 76.8836C110.469 76.773 110.942 76.3379 111.537 75.9175C114.191 74.0207 116.762 71.1977 117.975 68.8569C118.986 66.9026 118.938 66.109 117.819 64.488L116.979 63.2903L117.928 61.2814C118.455 60.1678 119.032 58.7091 119.202 58.0232C119.515 56.6352 119.331 53.4832 118.778 51.3312C118.029 48.4491 118.061 47.7765 119.024 45.6452C119.491 44.5714 120.512 42.5669 121.25 41.1834L122.594 38.7128L124.142 38.6775C125.856 38.6451 126.388 38.4312 126.216 37.7896C126.08 37.2807 125.68 37.1981 123.451 37.1553L121.675 37.1331L120.641 38.9989C120.074 40.052 119.009 42.0683 118.283 43.4961L116.953 46.1053L115.908 45.1996C115.345 44.6863 113.935 43.7364 112.761 43.0549C109.284 40.9987 105.759 40.6151 101.438 41.7493C97.0348 42.9291 94.3437 45.2153 92.4022 49.506C91.0508 52.4765 91.033 54.8763 92.2543 58.8175C93.4441 62.5537 94.2012 63.4416 98.7698 66.225C99.9554 66.9508 100.673 67.5172 100.571 67.6632C100.491 67.8033 99.4279 68.6809 98.239 69.616L96.0357 71.3446L94.8942 71.2237C93.0989 71.0407 90.8777 69.6203 89.5736 67.8355C88.3431 66.1496 87.8655 66.0404 88.5244 67.6186C89.3797 69.6659 90.4357 70.8769 92.3021 71.9419L94.0567 72.942L93.1303 73.7119L92.204 74.4818L89.8752 73.5407C88.5991 73.0053 86.8191 72.4388 85.9477 72.2692C83.9992 71.8665 83.5665 72.101 82.6943 74.0421L82.0999 75.4344L81.2742 72.8812C80.4248 70.2395 79.5466 68.4591 78.3212 67.0564C77.3948 65.9767 74.8882 64.3719 73.3199 63.891C69.3704 62.6253 63.7764 64.0294 60.3588 67.1267L59.5967 67.8052L58.9362 67.3657C57.7769 66.5618 57.7675 65.7343 58.8412 63.929C60.5483 61.0528 62.7736 59.3183 65.834 58.4983C68.2778 57.8434 68.8257 57.8626 69.0273 58.6149C69.1814 59.1901 69.2314 59.2004 69.9283 58.8951C70.6032 58.5957 70.781 58.6429 72.0106 59.3568C72.7431 59.8008 74.0802 60.6519 74.9982 61.2597C75.8941 61.8733 76.597 62.2066 76.5495 62.0296C76.4073 61.4986 74.2639 59.4882 72.3865 58.1179C70.952 57.0794 70.6531 56.7564 70.4456 55.982C70.0975 54.7711 69.0974 53.5925 67.734 52.8196L66.6001 52.1986L66.788 49.7295C66.8744 48.3784 66.9023 47.1616 66.8227 47.0406C66.6296 46.7604 65.5796 49.8873 65.1572 51.9213L64.8524 53.4258L66.3521 54.091C68.6266 55.0941 70.2034 56.6635 68.9197 56.628C66.0481 56.5675 64.7254 56.8271 62.3781 57.9303C61.7913 58.2061 61.8116 58.1058 62.7168 57.0807C64.0657 55.5099 64.6348 54.5512 64.5043 54.0644C64.4451 53.8432 63.981 53.2561 63.4526 52.7811C62.1527 51.5406 61.8961 50.4949 62.4634 48.8252C62.736 47.9934 63.2686 47.1629 63.963 46.4078C65.7929 44.5184 65.3822 44.1305 63.3448 45.862C60.4632 48.3178 59.8638 51.2766 61.792 53.6292C62.7303 54.7532 62.7989 55.1854 62.1858 55.5393C61.8793 55.7163 61.3484 56.6411 60.8243 57.9435C60.3585 59.1117 59.6803 60.4554 59.3187 60.9554C58.9512 61.4333 58.422 62.4525 58.1197 63.1737C57.8234 63.9171 57.4914 64.5278 57.3814 64.5573C56.8089 64.7106 55.6113 57.7753 55.8263 55.5834C56.0744 53.0745 57.2767 49.8119 59.2378 46.2985L61.0279 43.1155L62.5758 43.0802C63.4277 43.0891 64.4599 42.9784 64.8562 42.8723L65.5769 42.6555L64.9299 42.3546C64.5844 42.21 63.8189 42.0831 63.249 42.0699L62.215 42.086L62.5791 41.4194C63.1566 40.3161 66.7766 36.4768 67.062 36.6612C67.1399 36.6877 67.4498 37.3161 67.7835 38.0329C68.6515 39.8634 68.9487 39.4755 68.4643 37.1391L68.0764 35.2511L70.0994 33.642L72.1003 32.0387L72.6888 32.4738C73.2156 32.8544 73.3087 33.114 73.5916 34.6981C73.8804 36.3044 73.9499 36.4755 74.187 36.1274C74.4943 35.6894 74.75 33.2969 74.5662 32.6111C74.4951 32.3456 74.2283 31.9665 73.9929 31.7924C73.3425 31.3027 73.379 31.1744 74.2113 30.4059C75.5831 29.1847 76.153 29.198 77.7425 30.5506C78.0795 30.8397 78.0719 30.7232 77.701 29.7792C77.1734 28.4266 77.2919 28.2526 79.8408 26.6685C82.061 25.2673 82.2651 25.2364 82.4785 26.0328C82.5853 26.4311 82.9418 26.881 83.3948 27.1627L84.1333 27.6288L83.7759 26.8235C83.3592 25.7969 83.432 24.9237 84.0095 24.437C84.4346 24.0859 89.8422 21.5461 90.8211 21.2364C91.1895 21.114 91.5248 21.3087 92.2184 22.0477ZM74.7859 45.144C75.581 43.5319 76.4261 41.9301 76.6691 41.6041C77.2576 40.8061 77.764 40.6705 77.6099 41.3283C77.4516 42.0584 75.4457 47.0777 74.6844 48.7282C74.306 49.5173 74.0858 50.1928 74.1476 50.2474C74.2315 50.2961 76.008 48.8241 78.0818 46.9642C83.1718 42.4465 84.0617 41.8049 86.7308 40.7577C89.1916 39.8138 90.35 39.6457 90.0681 40.2666C89.9834 40.479 89.4423 40.8374 88.9097 41.0513C87.1475 41.7843 85.1694 43.1206 82.3962 45.4524C76.5771 50.3315 75.9717 50.802 74.6134 51.5454C73.4254 52.2194 72.985 52.3374 71.7368 52.4348C69.5665 52.6132 67.0642 52.1691 66.9041 51.5718C66.8804 51.4833 67.3986 51.3918 68.0287 51.3653C69.5808 51.2577 71.2414 50.4096 72.4294 49.119C72.9392 48.5556 73.9968 46.7783 74.7859 45.144ZM90.8617 45.3421C91.5788 41.8537 94.678 38.2726 98.3226 36.7269C101.226 35.4983 104.743 35.1488 107.841 35.789C109.761 36.1755 114.134 38.8454 115.708 40.5815C117.542 42.5801 117.396 43.0934 115.48 41.4015C112.221 38.5754 107.999 36.9085 104.623 37.0781C102.573 37.1769 98.984 38.1384 97.3353 39.0308C94.695 40.4496 92.7398 42.752 91.4917 45.9321C90.8101 47.7035 90.4392 47.3761 90.8617 45.3421ZM57.2251 52.1733C57.4368 51.6423 58.0939 50.66 58.6519 50.0125C60.2219 48.1216 60.3574 48.275 59.4268 50.9668C58.8375 52.6424 58.8798 53.1527 59.6471 53.9905C59.946 54.3136 60.1704 54.7989 60.1653 55.1322C60.1865 56.0039 58.7394 58.265 57.874 58.734C56.8384 59.2724 56.8435 58.939 57.8486 57.3181C58.7673 55.8151 58.7834 55.7871 57.5191 54.0628L56.8441 53.1291L57.2251 52.1733Z" fill="#FFEC3D"/>
<path fill-rule="evenodd" clip-rule="evenodd" d="M134.234 53.9718C134.229 54.6606 134.04 55.8023 133.826 56.4999L133.411 57.7728L135.302 59.8983C137.51 62.4132 138.347 64.0387 138.574 66.2069C138.766 67.9813 138.547 69.0123 137.798 69.8294C136.919 70.7764 133.531 71.5182 131.629 71.1981C130.191 70.9429 127.849 69.8631 126.748 68.925C124.84 67.3497 124.524 63.6165 126.069 60.6651C126.892 59.0692 127.622 58.4467 130.22 57.1341C131.426 56.5264 132.618 55.7801 132.895 55.4925C133.481 54.8612 134.15 53.3066 134.019 52.8198C133.972 52.6428 134.014 52.5366 134.104 52.6074C134.188 52.6561 134.254 53.255 134.234 53.9718ZM127.498 64.7641C127.635 64.3954 128.219 63.6697 128.763 63.1446C130.433 61.6298 132.366 61.444 133.512 62.7258C133.832 63.0429 134.291 63.9634 134.577 64.7643C135.213 66.6095 135.04 68.0786 134.061 69.0048C133.441 69.5978 133.243 69.6509 132.055 69.7083C128.999 69.8395 126.54 67.1786 127.498 64.7641Z" fill="#FFEC3D"/>
<path d="M87.0935 74.1675C90.5553 75.3742 96.3585 77.9216 96.4813 78.2918C96.6473 78.9113 95.6777 79.432 93.0196 80.1679C91.6106 80.5455 89.9229 81.1163 89.292 81.4039C86.9769 82.451 84.865 83.1118 84.6177 82.8935C84.4882 82.7622 83.9961 81.5424 83.4905 80.1839L82.6106 77.6926L83.3007 76.3932C83.675 75.6764 84.0899 74.7589 84.1991 74.374C84.3304 73.9831 84.5895 73.6291 84.7876 73.576C84.9638 73.5288 86.0028 73.7958 87.0935 74.1675Z" fill="#FFEC3D"/>
<path d="M127.734 140.678C127.869 140.832 127.895 142.248 127.84 143.804C127.648 148.195 128.561 151.602 130.436 153.495C131.405 154.468 132.334 154.765 133.936 154.667C135.124 154.61 135.23 154.653 135.552 155.325C136.533 157.315 142.436 176.174 142.987 179.11C143.414 181.319 143.334 181.815 142.567 182.21C142.238 182.393 139.198 183.374 135.771 184.41L129.555 186.313L128.206 185.418C126.556 184.366 124.599 182.258 123.21 180.069C122.641 179.178 121.16 176.469 119.927 174.072C118.667 171.659 116.531 167.915 115.165 165.72C110.967 158.949 110.703 158.403 109.193 153.472C107.9 149.265 107.841 149.044 108.056 148.085C108.457 146.413 108.624 146.155 109.733 145.715C110.717 145.333 120.211 142.457 125.279 141.028C127.094 140.494 127.575 140.437 127.734 140.678Z" fill="url(#paint0_linear_19_390)"/>
<path d="M142.459 184.8C142.646 185.058 143.532 187.572 144.428 190.39C148.804 203.991 150.137 207.997 150.402 208.543C150.66 209.067 150.618 209.173 149.647 209.955C149.086 210.413 147.606 211.758 146.372 212.966C145.132 214.152 143.967 215.176 143.769 215.229C142.8 215.489 141.725 213.856 140.061 209.583C138.312 205.166 136.802 200.591 134.71 193.397L132.817 186.862L137.485 185.611C142.108 184.372 142.152 184.36 142.459 184.8Z" fill="url(#paint1_linear_19_390)"/>
<path d="M131.364 148.503C132.228 149.79 133.238 151.179 133.604 151.579C134.485 152.576 134.482 152.743 133.624 152.973C132.633 153.238 131.361 152.63 130.768 151.651C130.283 150.809 128.948 146.092 129.125 145.783C129.286 145.503 129.597 145.87 131.364 148.503Z" fill="url(#paint2_linear_19_390)"/>
<path d="M106.592 151.252C107.838 155.021 108.956 157.875 109.879 159.643C110.515 160.872 110.965 161.937 110.895 162.027C110.618 162.315 108.665 161.368 107.698 160.488C105.353 158.342 104.363 156.497 104.659 154.782C104.857 153.495 105.832 151.408 106.272 151.29C106.448 151.243 106.586 151.23 106.592 151.252Z" fill="url(#paint3_linear_19_390)"/>
<path d="M144.971 235.039C146.206 234.804 147.84 234.65 148.598 234.661L149.954 234.7L150.576 237.023L151.193 239.324L150.488 239.513C145.991 240.695 133.383 243.575 131.97 243.764C129.774 244.02 129.14 243.858 128.508 242.818C127.887 241.822 127.667 240.032 128.09 239.586C128.465 239.225 141.685 235.635 144.971 235.039Z" fill="url(#paint4_linear_19_390)"/>
<path d="M190.223 222.416C190.718 222.592 191.502 224.018 191.573 224.9C191.625 225.36 191.619 226.216 191.557 226.778L191.459 227.824L185.133 229.4C181.659 230.26 175.977 231.688 172.524 232.542L166.264 234.1L167.343 237.511L168.444 240.915L165.458 241.573C163.811 241.943 160.831 242.623 158.804 243.071C156.783 243.542 154.881 243.932 154.599 243.937L154.035 243.946L152.985 239.674C152.373 237.301 151.933 235.308 151.982 235.224C152.03 235.14 152.998 235.141 154.15 235.212C157.704 235.445 160.644 234.966 166.663 233.211C174.651 230.881 181.246 227.928 186.821 224.253L186.995 224.138C189.769 222.3 189.814 222.27 190.223 222.416Z" fill="url(#paint5_linear_19_390)"/>
<path d="M158.966 134.563C160.285 136.225 162.057 139.757 162.688 141.936C163.537 144.839 163.417 145.274 159.117 154.323C155.014 162.963 153.937 165.552 153.51 167.919C153.152 169.841 153.442 170.925 155.941 177.346C159.656 186.808 161.15 189.917 163.182 192.479C164.07 193.593 164.259 193.945 164.14 194.38C164.012 194.96 162.428 196.357 160.279 197.763C159.536 198.246 158.675 198.999 158.384 199.409C158.093 199.819 157.395 201.618 156.791 203.416C155.576 207.157 155.195 207.851 154.078 208.435C152.862 209.093 152.318 209.002 151.937 208.108C151.089 206.177 146.61 192.367 145.214 187.334L144.192 183.695L144.592 182.545L144.991 181.394L143.48 175.491C142.659 172.249 141.36 167.665 140.593 165.333C139.805 163.007 138.797 159.862 138.3 158.359L137.427 155.629L138.331 156.098C138.822 156.346 139.829 157.286 140.558 158.157C142.051 159.939 143.491 161 144.756 161.23C147.087 161.649 155.529 158.106 156.591 156.256C156.897 155.724 156.865 155.519 156.364 154.088C155.928 152.901 155.847 152.424 156.008 152.144C156.115 151.926 157.001 151.357 157.954 150.864C158.908 150.371 159.941 149.739 160.246 149.467C160.736 149.004 160.756 148.904 160.413 147.976C160.193 147.418 159.164 145.868 158.116 144.513C156.537 142.493 156.087 141.784 155.678 140.518C155.121 138.794 155.169 138.094 156.007 136.375C156.498 135.39 157.723 133.71 158.031 133.627C158.119 133.604 158.536 134.014 158.966 134.563Z" fill="#F2E8E2"/>
<path d="M165.982 243.353C166.206 243.483 169.802 254.352 170.783 257.836C170.837 258.035 174.1 267.225 174.382 267.221C175.174 267.27 176.705 268.14 177.494 268.972C178.588 270.149 179.18 272.622 178.797 274.361C178.262 276.947 176.612 278.361 173.111 279.299L170.91 279.889L169.865 279.339C168.364 278.58 166.784 276.821 166.44 275.538C166.12 274.343 166.295 273.324 167.188 271.022C168.092 268.669 165.106 259.547 164.472 257.179C163.885 254.989 161.106 246.818 160.437 245.289L160.073 244.462L162.877 243.829C164.436 243.483 165.842 243.272 165.982 243.353Z" fill="url(#paint6_linear_19_390)"/>
<path d="M202.829 120.012C200.87 128.291 196.848 140.229 194.659 144.301C194.167 145.192 193.072 146.742 192.205 147.734C191.343 148.747 190.534 149.865 190.397 150.234C190.146 151.06 190.233 153.408 190.606 154.802L190.885 155.842L189.796 156.797C187.688 158.619 186.511 161.448 186.72 164.166C186.782 164.837 187.932 169.746 189.283 175.052C191.254 182.847 192.009 185.49 193.197 188.776C194.267 191.715 194.633 192.992 194.54 193.349C194.438 193.85 194.284 193.892 190.61 194.71C187.03 195.527 186.683 195.644 185.267 196.521C183.002 197.934 181.133 198.53 179.784 198.251C179.19 198.15 176.782 197.088 174.41 195.897C170.191 193.803 169.59 193.584 166.979 193.264C165.688 193.112 165.66 193.096 164.285 191.401L162.883 189.69L163.967 187.218C164.567 185.848 165.222 184.155 165.437 183.457C165.879 181.939 166.116 178.769 165.855 177.796C165.76 177.442 165.753 177.064 165.845 176.969C165.916 176.879 167.057 177 168.328 177.252C171.992 177.978 172.274 177.973 173.162 177.237C176.41 174.565 184.271 162.072 185.228 158.069L185.516 156.853L183.986 155.105C180.497 151.155 176.83 149.008 171.157 147.563L169.435 147.124L167.876 141.305C167.022 138.119 166.306 135.181 166.277 134.809L166.231 134.11L167.693 134.193C170.366 134.306 178.701 131.859 180.439 130.421C180.69 130.212 181.248 128.948 181.644 127.609C182.069 126.286 182.502 125.173 182.612 125.144C182.986 125.044 183.421 125.52 184.023 126.71C184.345 127.383 184.838 128.081 185.136 128.309C185.662 128.69 185.684 128.684 186.883 127.96C187.556 127.566 189.843 125.886 191.992 124.219C197.479 119.951 199.82 118.47 202.428 117.724L203.435 117.43L202.829 120.012Z" fill="#757575"/>
<path d="M183.229 156.683C183.402 157.064 183.556 157.639 183.573 157.967C183.582 158.794 182.199 161.56 179.312 166.46C177.009 170.373 176.799 170.643 176.584 170.107C176.168 169.08 176.223 165.414 176.703 162.89C177.133 160.617 178.664 156.294 179.751 154.272L180.179 153.493L181.529 154.744C182.283 155.443 183.062 156.325 183.229 156.683Z" fill="#413A3A"/>
<path d="M166.249 167.114C168.524 167.501 174.273 171.343 174.64 172.715C174.788 173.268 174.181 174.261 172.877 175.559C171.916 176.551 172.126 176.542 168.076 175.517C166.603 175.129 164.001 174.664 162.272 174.464C158.741 174.058 156.849 173.688 156.5 173.354C155.932 172.819 159.231 169.279 161.617 167.881C162.963 167.093 164.524 166.841 166.249 167.114Z" fill="#413A3A"/>
<path d="M140.084 52.3804C146.172 54.1402 147.926 54.7848 151.152 56.434C155.389 58.5949 157.292 59.887 158.24 61.2219C158.66 61.8208 160.892 65.3962 163.2 69.1648C165.502 72.9113 168.492 77.7302 169.847 79.8807C171.202 82.0313 172.343 84.0019 172.37 84.2792C172.436 84.878 171.673 85.4621 168.971 86.8264C165.221 88.6848 156.719 92.0062 153.241 92.9383C151.589 93.3808 151.285 93.3911 151.086 93.0887C150.545 92.214 145.118 79.1795 143.099 73.9344C142.032 71.185 142.595 69.5876 145.634 66.6628C147.586 64.7882 147.353 64.4474 145.321 66.2011C143.42 67.825 142.223 69.5212 141.944 70.9475C141.743 72.0449 141.792 72.3163 142.594 74.781C143.665 78.0747 146.512 85.3508 149.516 92.5134C155.837 107.561 156.093 108.252 155.555 110.293C155.103 111.955 153.136 115.447 151.395 117.668C149.703 119.805 146.011 123.64 142.958 126.426C140.547 128.613 140.028 128.966 139.892 128.457C139.856 128.324 139.319 126.761 138.729 124.998C136.889 119.539 134.512 115.338 130.869 111.074C128.428 108.219 126.65 106.513 121.893 102.5C119.725 100.662 117.793 98.9981 117.589 98.768C117.235 98.4125 117.363 98.1883 119.102 96.1337C121.826 92.9139 122.58 91.5024 123.17 88.3327C123.768 85.2795 123.963 85.0376 127.237 83.1644C131.304 80.8179 132.388 78.9623 132.006 74.9858L131.83 73.1834L133.511 72.8515C136.405 72.2896 137.768 71.8295 138.47 71.1908C140.233 69.5802 140.597 67.6804 139.737 64.4723C139.115 62.1492 138.152 60.5813 136.26 58.7168L135.156 57.5899L135.405 56.053C135.561 55.2285 135.646 53.783 135.635 52.8611C135.587 51.7121 135.66 51.1944 135.876 51.2077C136.048 51.2328 137.96 51.7638 140.084 52.3804Z" fill="#252525"/>
<path d="M166.304 64.6338C169.078 65.7401 173.384 67.4556 175.835 68.4114C178.308 69.3614 180.692 70.3349 181.134 70.5724L181.954 70.9928L179.45 71.6875L176.962 72.3541L174.889 74.5695C172.616 77.0046 171.695 77.7966 170.903 78.009C170.396 78.1447 170.243 77.9249 168.174 74.5191C162.513 65.1042 161.047 62.6277 161.135 62.6041C161.201 62.5864 163.524 63.5053 166.304 64.6338Z" fill="#252525"/>
<path d="M179.397 78.8869C185.05 84.486 189.646 90.0129 195.509 98.3305C199.538 104.033 200.427 105.146 203.324 108.212C205.856 110.877 208.028 113.259 208.075 113.436C208.17 113.79 206.964 114.398 203.57 115.734C197.337 118.187 196.828 118.489 190.785 123.238C188.544 125.001 186.507 126.471 186.253 126.492C185.911 126.536 185.562 126.203 184.88 125.153C183.777 123.504 183.217 123.085 182.402 123.303C181.72 123.486 180.925 124.837 180.24 127.036C179.382 129.732 179.66 129.539 173.763 131.309L168.559 132.846L166.95 132.566C166.062 132.424 164.199 132.164 162.78 131.975C161.367 131.809 160.156 131.517 160.064 131.351C159.973 131.186 160.127 130.528 160.387 129.913C161.002 128.421 162.335 127.233 167.18 123.825C169.266 122.365 171.684 120.555 172.572 119.819C176.679 116.3 178.385 112.452 177.615 108.342C177.259 106.398 176.461 104.478 173.646 98.6397C171.997 95.2162 171.489 94.0244 171.565 93.6011C171.646 93.1999 172.069 92.7544 173.037 92.1394C174.863 90.9388 175.749 90.1084 176.008 89.399C176.461 88.1865 175.33 85.5492 172.653 81.5475L171.499 79.7938L172.726 78.8247C173.408 78.2864 174.392 77.3822 174.94 76.7849C175.472 76.2156 175.956 75.7303 176.022 75.7126C176.088 75.6949 177.601 77.1154 179.397 78.8869Z" fill="#252525"/>
<path d="M116.589 100.317C117.752 101.048 122.162 104.562 122.239 104.849C122.263 104.938 120.481 105.51 118.258 106.106L114.229 107.186L112.473 105.214C111.503 104.146 110.706 103.197 110.688 103.131C110.617 102.865 114.466 100.056 115.23 99.827C115.422 99.7518 116.03 99.9922 116.589 100.317Z" fill="#252525"/>
<path d="M168.156 163.952C168.466 163.983 168.812 164.079 168.916 164.168C169.403 164.591 169.51 164.208 169.206 163.149C169.001 162.414 168.679 162.104 168.322 162.308C168.054 162.449 167.533 163.419 167.564 163.72C167.583 163.827 167.845 163.942 168.156 163.952Z" fill="#D50814"/>
<path d="M167.085 161.905C168.506 161.135 168.927 161.255 170.261 162.796C171.093 163.764 171.228 163.812 171.669 163.332C171.881 163.103 171.814 162.994 170.405 161.344C169.097 159.825 168.877 159.625 168.538 159.701C168.107 159.794 167.376 160.693 167.069 161.497L166.867 162.027L167.085 161.905Z" fill="#D50814"/>
<path d="M170.033 159.747C170.532 160.191 171.011 160.613 171.105 160.658C171.624 161.017 172.965 160.48 173.348 159.764C173.464 159.532 173.315 159.484 172.471 159.458C171.496 159.407 171.403 159.361 170.445 158.496C169.222 157.386 168.9 157.248 168.241 157.506C167.689 157.725 166.054 159.174 165.888 159.597C165.748 159.957 166.715 159.751 167.329 159.277C168.135 158.66 168.962 158.814 170.033 159.747Z" fill="#D50814"/>
<path d="M168.44 156.855C170.188 156.605 170.657 156.799 171.983 158.31C172.808 159.258 172.958 159.327 173.533 159.064C173.81 158.939 173.747 158.838 172.351 157.224C171.052 155.736 170.826 155.529 170.424 155.505C169.913 155.474 168.945 155.99 168.478 156.537L168.172 156.897L168.44 156.855Z" fill="#D50814"/>
<path d="M172.143 155.902C172.657 156.365 173.153 156.807 173.254 156.865C173.804 157.267 175.426 157.177 175.968 156.716C176.134 156.565 175.969 156.493 174.998 156.268C173.88 155.993 173.779 155.935 172.793 155.036C171.536 153.885 171.183 153.7 170.386 153.74C169.719 153.776 167.63 154.499 167.38 154.785C167.168 155.029 168.313 155.104 169.088 154.887C170.104 154.605 171.037 154.924 172.143 155.902Z" fill="#D50814"/>
<path d="M61.5753 74.6851C60.8652 73.7096 60.9597 72.459 61.7916 71.51C62.5558 70.6226 62.4843 70.6591 63.7619 70.8025C64.9642 70.9572 65.9137 71.8195 66.0723 72.8777C66.3328 74.616 64.3154 76.2064 62.6114 75.6117C62.338 75.4981 61.8651 75.0795 61.5753 74.6851Z" fill="black"/>
<path d="M100.841 55.6617C100.722 54.8687 101.365 52.9543 101.825 52.7624C102.902 52.2816 104.276 52.6408 105.203 53.6075C105.982 54.3998 105.923 55.1458 104.967 56.2719C103.97 57.4532 102.846 57.6217 101.722 56.8074C101.282 56.4802 100.884 55.9501 100.841 55.6617Z" fill="black"/>
</g>
</g>
<defs>
<linearGradient id="paint0_linear_19_390" x1="169.562" y1="270.447" x2="134.238" y2="138.614" gradientUnits="userSpaceOnUse">
<stop stop-color="#93C4FF"/>
<stop offset="0.3125" stop-color="#93C4FF"/>
<stop offset="0.770833" stop-color="#0063D7"/>
<stop offset="1" stop-color="#0063D7"/>
</linearGradient>
<linearGradient id="paint1_linear_19_390" x1="169.562" y1="270.447" x2="134.238" y2="138.614" gradientUnits="userSpaceOnUse">
<stop stop-color="#93C4FF"/>
<stop offset="0.3125" stop-color="#93C4FF"/>
<stop offset="0.770833" stop-color="#0063D7"/>
<stop offset="1" stop-color="#0063D7"/>
</linearGradient>
<linearGradient id="paint2_linear_19_390" x1="169.562" y1="270.447" x2="134.238" y2="138.614" gradientUnits="userSpaceOnUse">
<stop stop-color="#93C4FF"/>
<stop offset="0.3125" stop-color="#93C4FF"/>
<stop offset="0.770833" stop-color="#0063D7"/>
<stop offset="1" stop-color="#0063D7"/>
</linearGradient>
<linearGradient id="paint3_linear_19_390" x1="169.562" y1="270.447" x2="134.238" y2="138.614" gradientUnits="userSpaceOnUse">
<stop stop-color="#93C4FF"/>
<stop offset="0.3125" stop-color="#93C4FF"/>
<stop offset="0.770833" stop-color="#0063D7"/>
<stop offset="1" stop-color="#0063D7"/>
</linearGradient>
<linearGradient id="paint4_linear_19_390" x1="162.309" y1="242.559" x2="159.11" y2="230.618" gradientUnits="userSpaceOnUse">
<stop stop-color="#E5E5E5"/>
<stop offset="1" stop-color="#ACB2B8"/>
</linearGradient>
<linearGradient id="paint5_linear_19_390" x1="162.309" y1="242.559" x2="159.11" y2="230.618" gradientUnits="userSpaceOnUse">
<stop stop-color="#E5E5E5"/>
<stop offset="1" stop-color="#ACB2B8"/>
</linearGradient>
<linearGradient id="paint6_linear_19_390" x1="161.628" y1="251.942" x2="169.657" y2="249.321" gradientUnits="userSpaceOnUse">
<stop stop-color="#B9BEC0"/>
<stop offset="1" stop-color="#E5E5E5"/>
</linearGradient>
<clipPath id="clip0_19_390">
<rect width="317" height="301" fill="white"/>
</clipPath>
<clipPath id="clip1_19_390">
<rect width="137" height="285.368" fill="white" transform="translate(43 21.4583) rotate(-15)"/>
</clipPath>
</defs>
</svg>
