<svg width="317" height="301" viewBox="0 0 317 301" fill="none" xmlns="http://www.w3.org/2000/svg">
<g clip-path="url(#clip0_19_391)">
<path d="M100.167 22.4617C98.3887 24.4608 98.4296 24.2696 98.7412 28.2523C98.9447 30.7229 98.9358 32.0671 98.7614 32.6022C98.4342 33.5072 97.4221 34.1429 93.7711 35.6313C91.0111 36.7565 90.9175 36.7472 90.6766 35.1157C90.5562 34.3 90.6705 33.9821 91.7801 32.2901C93.3597 29.8804 93.7561 28.6642 93.3893 27.5838C93.1143 26.814 91.3317 25.0397 91.1204 25.3256C91.0854 25.4002 91.3302 25.9661 91.6945 26.5606C92.0813 27.1518 92.3495 27.8763 92.322 28.1582C92.2912 28.4174 91.64 29.6249 90.8502 30.8298C88.9475 33.7039 88.8365 34.0445 89.2437 36.0219L89.5489 37.6207L88.2954 38.3384C87.5948 38.7428 86.5752 39.1712 86.0148 39.2771L84.9809 39.4529L84.8654 38.3585C84.7508 37.4262 84.9183 32.0066 85.0917 30.6844C85.1292 30.4705 85.0573 30.2959 84.9446 30.3125C84.6515 30.3558 83.7026 33.7606 83.2397 36.399C82.8769 38.4669 82.8886 38.8588 83.4686 40.6023C83.5639 40.9356 83.3109 41.2508 82.3607 41.9931C81.3044 42.7973 80.957 42.9412 79.974 42.9937C79.3585 43.0383 78.5458 42.9962 78.1875 42.9102C77.5452 42.7735 77.5127 42.7089 77.2885 41.1907C76.9071 38.6075 75.9241 35.0712 75.3226 34.1181C74.8088 33.2909 73.6736 32.625 73.4273 32.9855C73.3697 33.0635 73.6889 33.6647 74.1116 34.3432C74.9145 35.5675 74.9145 35.5675 75.3388 39.5336L75.7598 43.4771L76.4782 43.973C76.8632 44.2403 77.4738 44.4743 77.8221 44.4923C78.1929 44.507 78.5286 44.5964 78.6063 44.6544C78.7199 44.7997 74.8213 48.2001 73.7708 48.8877C72.5048 49.6766 72.1205 48.9461 72.5785 46.5863C72.898 44.8489 72.6171 43.5706 71.6246 42.4669C70.963 41.731 69.4144 40.9177 69.4746 41.3256C69.4914 41.4389 69.884 41.9135 70.3284 42.4267C71.4019 43.6111 71.5491 44.6081 70.9641 46.732C70.395 48.8073 70.4619 49.2605 71.4751 50.037L72.3071 50.6783L70.6565 53.0753C67.7869 57.2036 66.5406 59.8419 65.8758 63.2973C65.5746 64.8468 65.5906 65.4233 66.0993 69.4927L66.6423 73.9506L67.8796 75.6202L69.1168 77.2898L68.5694 79.1998C66.8285 85.199 67.3218 91.1924 69.8557 94.7776C71.519 97.1483 74.1369 98.9614 77.4569 100.069C81.7425 101.474 84.5111 101.343 88.2055 99.5237C88.9353 99.1612 89.6719 98.8441 89.8523 98.8175C90.1454 98.7742 91.7946 101.518 92.3963 103.096C92.805 104.147 92.7232 104.529 91.637 106.38C91.2889 106.987 91.0251 107.697 91.0653 107.969C91.1991 108.876 92.4211 109.506 95.3552 110.184C99.0026 111.011 99.1321 111.108 98.9187 112.783C98.8286 113.422 98.9373 113.846 99.2957 114.557C99.6475 115.223 99.9183 116.433 100.29 118.948L100.802 122.415L102.074 123.385C103.068 124.188 103.462 124.361 104.071 124.271C104.635 124.188 105.003 124.342 105.79 124.99L106.791 125.837L107.539 125.287C108.12 124.854 108.406 124.765 108.839 124.887C109.947 125.209 110.878 124.03 112.367 120.383C113.287 118.187 113.798 117.278 114.227 117.215C114.926 117.111 117.135 119.749 118.932 122.864C120.653 125.782 121.741 128.469 122.273 130.984L122.743 133.23L119.177 135.447C112.802 139.398 110.883 141.07 105.973 146.982C104.288 148.99 102.362 151.243 101.667 151.994C99.8624 153.973 96.6409 156.811 95.5737 157.385C94.9307 157.712 93.1761 158.156 90.2648 158.725C84.175 159.925 83.5987 160.079 82.8389 160.863C81.6173 162.108 81.473 162.847 81.7369 166.351C81.8592 168.116 82.1312 170.738 82.3453 172.189C82.71 174.658 82.7886 174.878 83.6365 176.096C84.1111 176.813 84.8729 177.604 85.2806 177.868C85.963 178.276 86.2662 178.301 87.7995 178.075L89.5357 177.818L91.0702 179.004C93.3556 180.751 94.4223 181.264 95.437 181.115C96.136 181.011 96.5269 181.162 97.6495 181.899C99.9048 183.442 101.089 183.661 103.126 182.943C104.31 182.537 104.426 182.543 105.315 182.944C107.371 183.914 109.443 183.747 112.05 182.366C112.757 182.007 113.336 181.713 113.381 181.707C113.516 181.687 114.17 183.304 115.733 187.495C118.667 195.351 120.741 199.097 123.283 201.176C124.62 202.275 125.589 202.595 126.964 202.392L127.573 202.302L128.539 209.152L129.481 216.005L128.056 216.493C123.76 217.984 121.728 220.137 120.969 224.046C120.837 224.714 120.647 225.459 120.516 225.664C120.395 225.937 119.266 226.404 116.978 227.136C112.691 228.533 111.499 229.195 110.106 230.998C109.021 232.386 108.833 232.83 107.983 235.966C107.622 237.269 107.459 237.571 106.698 238.031C105.727 238.637 104.7 240.109 104.391 241.289C103.412 245.115 107.704 250.154 113.728 252.251C114.771 252.606 115.779 253.036 115.941 253.198C116.181 253.417 116.31 253.977 116.374 255.195C116.489 257.215 117.191 259.01 118.143 259.68C118.528 259.947 119.244 260.119 120.121 260.129C122.291 260.156 129.895 259.38 135.6 258.538L140.831 257.765L141.144 258.321C141.326 258.619 141.517 259.285 141.594 259.806C141.834 261.276 142.378 262.469 143.012 262.861C143.517 263.157 143.839 263.156 145.533 262.767C147.252 262.397 147.526 262.38 147.76 262.716C148.02 263.071 148.825 266.495 150.304 273.547C151.204 277.767 151.228 277.462 149.846 280.121C148.799 282.081 148.364 283.813 148.568 285.195C148.769 286.554 150.214 288.541 152.007 289.92C153.28 290.89 153.648 291.044 154.812 291.126C156.973 291.247 159.637 290.252 161.623 288.569C163.119 287.307 164.701 283.669 164.467 282.083C164.156 279.976 162.716 277.711 160.982 276.578L159.807 275.802L159.129 272.614C158.332 268.773 157.455 262.836 157.563 262.01C157.625 261.491 157.773 261.4 158.71 261.192L159.805 260.961L159.164 257.559L158.505 254.184L164.117 253.494C167.193 253.109 172.67 252.439 176.288 251.975L182.893 251.138L183.624 249.85C184.63 248.08 184.605 246.509 183.439 242.977L183.2 242.295L189.019 238.171C192.208 235.894 195.258 233.614 195.778 233.075C196.884 231.985 197.236 230.937 197.026 229.51C196.845 228.286 196.086 227.356 194.397 226.217C192.915 225.231 192.869 225.076 192.972 221.403C193.021 219.242 193.021 219.242 192.027 216.564C190.555 212.683 190.268 211.522 188.811 203.679C187.078 194.442 186.201 186.63 186.686 184.451C187.057 182.752 187.992 181.434 189.693 180.164C190.4 179.643 191.083 178.963 191.239 178.616C191.398 178.291 191.479 177.122 191.454 176.014C191.342 173.229 191.476 172.885 193.051 171.541C196.877 168.267 202.114 158.487 207.236 145.112C207.929 143.25 208.732 141.511 208.992 141.241C209.248 140.948 210.08 140.501 210.846 140.226C213.234 139.387 213.768 138.637 213.243 136.955C213.109 136.512 211.588 134.328 209.851 132.084C206.598 127.841 205.519 126.148 203.239 121.784C199.037 113.769 193.997 105.853 189.265 99.8605C186.658 96.5639 186.144 95.7368 186.413 95.3729C186.509 95.243 188.148 94.7927 190.025 94.3997C191.903 94.0067 193.503 93.6084 193.599 93.4785C194.136 92.7508 191.904 91.205 185.182 87.6593C175.26 82.4097 174.856 82.1684 167.826 77.0012C160.326 71.4634 161.788 72.3127 149.872 66.8249C145.771 64.953 145.966 65.179 145.014 61.3834C143.037 53.4557 140.599 47.4021 137.142 41.7768C136.254 40.2872 135.493 39.0335 135.483 38.9655C135.449 38.7389 136.342 38.6997 136.511 38.9063C137.52 40.1234 142.98 39.8035 144.21 38.4641C144.649 38.0056 144.624 37.9863 142.759 38.308C140.981 38.5937 140.726 38.585 139.334 38.0496C138.481 37.7356 137.786 37.3983 137.769 37.285C137.752 37.1717 138.179 36.7845 138.748 36.4227L139.734 35.7677L138.484 35.8829C134.008 36.3122 132.134 36.1027 130.803 35.0488L130.178 34.5622L131.018 34.1605C131.982 33.6708 134.334 31.6564 134.84 30.864C135.325 30.0977 134.9 30.1836 133.204 31.1751C131.594 32.1306 129.442 32.5408 127.397 32.264C125.961 32.0592 121.555 30.927 121.67 30.7711C121.708 30.7191 122.557 30.8485 123.577 31.0452L125.403 31.4007L126.584 29.7214C127.918 27.8342 129.532 24.5628 129.336 24.1749C129.271 24.0456 128.22 25.1964 127.045 26.7591L124.858 29.5825L123.164 29.3464C121.703 29.1223 120.813 29.1842 116.951 29.7082C112.386 30.3127 111.232 30.2979 111.824 29.6315C111.981 29.4463 113.14 29.0205 114.421 28.6462C115.683 28.2978 117.011 27.7775 117.368 27.5396C118.261 26.8752 118.556 25.4424 118.304 22.9559L118.093 20.9032L117.754 22.6665C117.3 25.049 117.017 25.7854 116.441 26.1019C115.741 26.5064 111.752 27.5815 111.326 27.5055C111.061 27.4288 110.918 27.0796 110.801 26.2865C110.55 24.587 109.448 22.4342 108.514 21.8776C107.802 21.427 107.298 21.293 107.339 21.5649C107.349 21.6329 107.677 22.1401 108.057 22.686C108.46 23.2285 108.929 24.2242 109.101 24.9167C109.509 26.4309 109.278 27.3679 108.255 28.2368C107.886 28.546 107.181 29.391 106.662 30.0927C106.17 30.8138 105.638 31.4248 105.503 31.4448C105.345 31.4681 104.196 31.7998 102.937 32.1709C101.679 32.5419 100.59 32.8184 100.539 32.7797C100.464 32.7444 100.511 32.4365 100.648 32.1153C100.797 31.7228 100.72 30.5765 100.379 28.2652L99.8938 24.9795L100.762 23.3695C101.503 21.9867 101.765 21.1144 101.427 21.1643C101.36 21.1743 100.802 21.766 100.167 22.4617ZM109.926 29.7266C109.993 30.1798 109.467 30.6742 108.89 30.6668C108.129 30.6634 108.04 30.2135 108.724 29.8577C109.554 29.388 109.873 29.364 109.926 29.7266ZM107.475 33.7236C107.907 34.3082 108.468 34.9894 108.731 35.2053C109.21 35.6439 109.207 35.6212 108.936 34.4109C108.768 33.7411 108.545 33.01 108.421 32.7967C108.236 32.4768 108.342 32.4148 109.221 32.285C110.416 32.1085 110.869 32.3658 111.611 33.6455L112.131 34.518L112.06 33.255L111.989 31.9921L113.119 31.8483C116.054 31.4381 117.378 31.8215 117.572 33.1358C117.706 34.0422 118.083 33.9403 118.386 32.8766C118.64 32.0983 118.743 32.0136 119.387 32.011C120.197 32.0305 123.27 32.7113 123.629 32.9593C123.755 33.0333 123.65 33.8823 123.365 34.9199C123.077 35.9349 122.931 36.8133 123.031 36.8679C123.112 36.9486 123.734 36.3242 124.419 35.5052C125.105 34.6862 125.765 34.0099 125.878 33.9932C126.017 33.9959 126.98 34.4326 128.05 34.9692L129.996 35.9784L129.142 37.2159C128.307 38.4274 128.157 38.8199 127.955 40.1001C127.811 41.0012 128.338 40.6687 129.786 38.9268L131.157 37.2888L132.009 38.066L132.88 38.8172L132.291 40.1314C131.96 40.8518 131.712 41.5135 131.722 41.5815C131.759 41.8307 132.231 41.5989 133.004 40.9059C133.431 40.5187 133.92 40.2382 134.091 40.3055C134.831 40.6362 138.479 46.928 139.913 50.3977C141.474 54.1033 144.494 64.2617 144.161 64.6582C144.081 64.7395 143.454 65.0173 142.752 65.2598C141.066 65.8561 139.155 67.1108 138.486 68.0431C137.836 68.9494 138.136 68.9514 139.846 68.0506C141.299 67.2803 144.868 66.6377 144.942 67.1362C145.059 67.9293 144.533 69.674 143.953 70.431C143.374 71.188 143.117 71.3186 141.018 71.9294C138.234 72.7342 137.504 73.0966 136.295 74.2708C133.781 76.749 132.958 80.8528 134.384 83.9534C135.31 86.0161 135.277 86.4147 133.923 89.4162C132.41 92.7422 131.776 94.8501 131.813 96.3497C131.844 97.3407 131.695 97.7332 130.675 99.2499C129.588 100.939 129.098 102.145 129.018 103.477C128.882 105.836 125.126 109.423 119.168 112.919C115.858 114.844 115.304 114.995 113.875 114.21C113.251 113.886 112.449 113.448 112.081 113.294C111.638 113.105 111.363 112.798 111.309 112.436C111.175 111.529 110.656 110.819 110.094 110.763C109.791 110.738 108.579 110.801 107.4 110.929C106.221 111.057 104.255 111.162 103.059 111.176L100.87 111.176L104.338 110.478C115.31 108.326 121.196 105.743 124.186 101.806C125.284 100.347 125.521 99.4552 125.26 97.6877C124.812 94.6513 123.162 92.3712 120.453 91.0346C119.858 90.7519 119.347 90.4107 119.33 90.2974C119.314 90.1841 119.834 89.8063 120.473 89.4571C123.328 87.878 126.206 85.3692 127.68 83.1834C128.909 81.3582 128.953 80.5644 128.028 78.8255L127.331 77.5392L128.504 75.6526C129.156 74.6071 129.896 73.2243 130.144 72.5625C130.614 71.2197 130.794 68.0674 130.492 65.8661C130.08 62.917 130.189 62.2526 131.39 60.246C131.978 59.2331 133.222 57.3592 134.114 56.0697L135.733 53.77L137.275 53.9129C138.981 54.0777 139.535 53.9265 139.438 53.2693C139.361 52.7482 138.974 52.6201 136.764 52.3213L135.002 52.0951L133.761 53.8297C133.076 54.8107 131.787 56.6912 130.901 58.026L129.28 60.465L128.346 59.4452C127.846 58.8707 126.554 57.7649 125.466 56.953C122.249 54.5107 118.792 53.7245 114.369 54.3544C109.859 55.0203 106.923 56.982 104.501 61.021C102.817 63.8165 102.524 66.1984 103.284 70.2538C104.036 74.102 104.686 75.0711 108.905 78.3612C109.999 79.2184 110.647 79.8637 110.529 79.9969C110.433 80.1269 109.276 80.8765 107.988 81.6687L105.6 83.1326L104.48 82.8812C102.718 82.4931 100.675 80.8267 99.5843 78.9039C98.5558 77.0877 98.0939 76.9243 98.567 78.5679C99.1813 80.6999 100.091 82.0243 101.823 83.2967L103.451 84.4919L102.442 85.1502L101.433 85.8085L99.2281 84.606C98.022 83.9274 96.3189 83.1601 95.4728 82.8914C93.5835 82.2673 93.1267 82.4506 92.0372 84.2785L91.2867 85.5933L90.7599 82.9621C90.2198 80.2402 89.5521 78.3708 88.4961 76.8365C87.6999 75.6574 85.3944 73.7751 83.8918 73.1171C80.1139 71.4058 74.3957 72.1575 70.6447 74.8415L69.8096 75.4279L69.204 74.9153C68.1448 73.9835 68.2306 73.1604 69.5047 71.4905C71.5311 68.8296 73.9411 67.3624 77.0754 66.8996C79.5783 66.53 80.1204 66.6121 80.2341 67.3825C80.3211 67.9717 80.3695 67.9876 81.0969 67.7645C81.8018 67.5446 81.973 67.612 83.1124 68.4625C83.789 68.9878 85.0194 69.9869 85.8614 70.6961C86.6809 71.4087 87.3407 71.8206 87.314 71.6393C87.2337 71.0955 85.3357 68.852 83.6282 67.275C82.3226 66.0785 82.0628 65.7233 81.9457 64.9302C81.7391 63.6872 80.8811 62.4015 79.6156 61.477L78.5606 60.7298L79.0311 58.2986C79.2722 56.9664 79.4398 55.7609 79.3746 55.6316C79.215 55.331 77.8126 58.3165 77.1591 60.2884L76.6834 61.7479L78.0967 62.5811C80.2408 63.839 81.6268 65.5793 80.3556 65.3965C77.5101 65.0063 76.1663 65.112 73.7078 65.9381C73.0931 66.1447 73.1248 66.0474 74.1419 65.1331C75.6624 63.7278 76.3379 62.8408 76.2643 62.3423C76.2308 62.1157 75.8373 61.4792 75.367 60.9466C74.2183 59.5649 74.0836 58.4966 74.8391 56.9032C75.2055 56.1082 75.8301 55.3445 76.6066 54.6742C78.6416 53.0077 78.2782 52.5751 76.0553 54.061C72.9105 56.1692 71.9749 59.0395 73.6199 61.5982C74.4228 62.8226 74.4413 63.2598 73.7916 63.5409C73.4667 63.6815 72.833 64.5391 72.1627 65.7727C71.5657 66.8796 70.7375 68.1364 70.3209 68.5915C69.9009 69.024 69.258 69.9756 68.8748 70.6573C68.495 71.3617 68.0951 71.9301 67.9823 71.9468C67.396 72.0333 67.0036 65.0063 67.4692 62.8537C68.004 60.3899 69.5734 57.2871 71.9254 54.0225L74.0694 51.0664L75.6112 51.2092C76.4564 51.3159 77.4945 51.3247 77.9004 51.2648L78.6412 51.1323L78.0331 50.759C77.7065 50.5757 76.9606 50.3616 76.396 50.2829L75.3671 50.1801L75.8054 49.5598C76.5059 48.5302 80.5432 45.1325 80.8055 45.3484C80.8798 45.3838 81.1155 46.0436 81.3645 46.794C82.0164 48.7121 82.3562 48.361 82.1436 45.9844L81.9753 44.0643L84.1698 42.6984L86.3418 41.3358L86.8764 41.8357C87.3559 42.2743 87.4186 42.5429 87.5175 44.149C87.6198 45.7778 87.6691 45.9558 87.9446 45.6372C88.3003 45.2374 88.8293 42.8902 88.7256 42.1878C88.6854 41.9159 88.464 41.5086 88.2502 41.3087C87.6604 40.7475 87.7113 40.6242 88.6265 39.9565C90.1296 38.9011 90.6942 38.9798 92.1177 40.5061C92.4192 40.8321 92.4251 40.7154 92.1651 39.7351C91.7965 38.3308 91.9342 38.1715 94.6483 36.891C97.0149 35.7543 97.2212 35.747 97.3416 36.5628C97.4019 36.9706 97.7043 37.4585 98.1219 37.7904L98.8019 38.3383L98.5395 37.4972C98.2436 36.4295 98.4163 35.5706 99.0459 35.1534C99.5085 34.8536 105.172 32.9523 106.18 32.7571C106.56 32.6779 106.871 32.9098 107.475 33.7236ZM118.061 55.6385C121.783 56.0382 125.298 57.9967 127.254 60.7873L128.277 62.257L124.684 67.8814L121.087 73.4831L117.597 75.5959C113.687 77.9793 112.783 78.4137 111.896 78.3363C110.609 78.2022 107.448 75.52 105.762 73.1525C105.233 72.3741 105.092 71.8855 104.677 69.0757C104.225 66.0167 104.221 65.8321 104.668 64.4926C106.067 60.2341 108.827 57.3954 112.878 55.9637C113.734 55.6753 116.564 55.489 118.061 55.6385ZM129.137 66.3671C129.315 70.0686 128.66 72.9669 127.195 75.0587C126.299 76.3255 125.8 76.3761 124.653 75.3183C123.001 73.8025 122.991 73.7346 123.85 72.2185C125.347 69.5662 128.845 64.2337 128.985 64.3984C129.011 64.4177 129.074 65.3114 129.137 66.3671ZM79.5557 73.711C82.316 73.836 84.8109 74.9726 86.5301 76.9415C88.1132 78.7685 88.8477 80.466 89.2759 83.3664C89.47 84.6807 89.5604 85.9176 89.4711 86.0929C89.3183 86.4628 89.4536 86.4428 82.1258 86.4365C78.0443 86.414 71.9042 86.6492 70.4611 86.8622C69.063 87.0687 68.8742 86.7261 69.0967 84.3315C69.3341 81.7264 70.6119 77.7406 71.6364 76.4085C72.0814 75.8334 72.8805 75.1597 73.5427 74.8072C74.8254 74.1316 77.6081 73.6281 79.5557 73.711ZM151.537 69.3576C157.382 71.8056 159.05 72.6475 162.065 74.6566C166.025 77.2902 167.768 78.7926 168.556 80.2276C168.904 80.8708 170.711 84.6791 172.57 88.688C174.425 92.6743 176.842 97.8049 177.941 100.097C179.039 102.389 179.947 104.478 179.942 104.756C179.939 105.359 179.113 105.851 176.272 106.896C172.333 108.311 163.506 110.633 159.944 111.159C158.252 111.409 157.949 111.384 157.786 111.061C157.349 110.13 153.456 96.5577 152.053 91.1153C151.309 88.2614 152.052 86.7394 155.408 84.1833C157.562 82.5454 157.37 82.1802 155.15 83.6888C153.075 85.0834 151.691 86.6307 151.25 88.0155C150.924 89.0824 150.941 89.3577 151.455 91.8983C152.14 95.2933 154.131 102.848 156.293 110.309C160.842 125.984 161.017 126.699 160.247 128.665C159.608 130.264 157.253 133.506 155.268 135.513C153.341 137.441 149.232 140.826 145.88 143.243C143.233 145.139 142.677 145.429 142.6 144.908C142.58 144.772 142.227 143.157 141.843 141.338C140.642 135.704 138.765 131.258 135.635 126.603C133.539 123.486 131.968 121.587 127.705 117.054C125.762 114.979 124.034 113.104 123.859 112.852C123.547 112.458 123.701 112.25 125.664 110.409C128.74 107.524 129.652 106.208 130.602 103.127C131.547 100.163 131.768 99.9451 135.235 98.4607C139.545 96.5972 140.835 94.8786 140.914 90.8846L140.946 89.0739L142.654 88.9374C145.593 88.7119 147 88.4115 147.771 87.8578C149.707 86.4605 150.287 84.6152 149.802 81.3295C149.451 78.9502 148.675 77.282 147.01 75.2125L146.042 73.9661L146.466 72.468C146.716 71.6669 146.967 70.2408 147.062 69.3237C147.146 68.1768 147.278 67.671 147.491 67.709C147.659 67.7537 149.498 68.501 151.537 69.3576ZM145.542 70.2659C145.459 70.9497 145.139 72.0619 144.846 72.7303L144.288 73.9472L145.922 76.276C147.826 79.028 148.471 80.7389 148.447 82.9188C148.434 84.7036 148.098 85.7025 147.26 86.4282C146.278 87.2678 142.827 87.6152 140.974 87.0785C139.576 86.6598 137.373 85.318 136.387 84.2595C134.672 82.4752 134.788 78.7304 136.662 75.9762C137.663 74.4855 138.46 73.9511 141.191 72.9458C142.459 72.4808 143.729 71.8765 144.037 71.6226C144.692 71.0629 145.535 69.5955 145.461 69.097C145.435 68.9157 145.489 68.815 145.57 68.8957C145.648 68.9537 145.644 69.5562 145.542 70.2659ZM123.546 76.4078C125.814 78.504 127.012 79.9017 127.102 80.5135C127.206 81.216 125.613 83.535 123.989 85.025C121.032 87.7771 117.501 89.4561 113.314 90.1206C110.904 90.4995 110.627 90.4942 109.461 90.0875C107.781 89.4788 103.119 86.9257 103.24 86.6531C103.463 86.134 120.913 75.2685 121.721 75.1259C121.924 75.096 122.746 75.6692 123.546 76.4078ZM96.3928 84.9089C99.6929 86.5054 105.165 89.7031 105.244 90.085C105.338 90.7194 104.315 91.1252 101.59 91.5507C100.147 91.7638 98.4046 92.1367 97.7449 92.3499C95.3247 93.124 93.1509 93.5376 92.9303 93.2923C92.8167 93.147 92.4682 91.8787 92.1221 90.4712L91.5344 87.8953L92.3693 86.6838C92.8235 86.0147 93.3411 85.151 93.4938 84.7812C93.6691 84.408 93.9672 84.0861 94.1702 84.0562C94.3506 84.0295 95.352 84.4142 96.3928 84.9089ZM75.2553 88.1224C84.731 87.6958 89.1233 87.9503 90.0121 88.9767C90.6186 89.6512 90.8731 92.6236 90.4559 94.1671C90.0829 95.5419 88.8923 97.1532 87.4986 98.1694C86.4807 98.9217 86.1943 99.0103 84.0262 99.3072C82.0386 99.5776 81.3938 99.5802 80.009 99.2521C75.6484 98.2752 72.0925 95.8828 70.4866 92.809C69.9135 91.7359 69.0668 88.9667 69.2263 88.6422C69.3473 88.3696 68.7543 88.4108 75.2553 88.1224ZM139.469 90.1486C139.479 92.7171 138.749 94.793 137.455 95.7019C136.703 96.2296 134.333 97.3436 133.769 97.4269C133.634 97.4468 133.478 97.1689 133.428 96.829C133.234 95.5148 134.001 92.5998 135.607 88.496L136.358 86.5561L137.918 87.7612L139.453 88.947L139.469 90.1486ZM107.819 92.8537C107.895 93.8381 107.93 95.0137 107.904 95.4575C107.863 96.2739 107.863 96.2739 106.687 96.4244C105.192 96.5988 104.788 96.3575 104.633 95.1532C104.418 93.5411 104.704 92.6654 105.722 91.9131C106.219 91.5386 106.885 91.2088 107.178 91.1655C107.719 91.0856 107.722 91.1083 107.819 92.8537ZM176.174 84.5438C178.803 85.9617 182.883 88.1608 185.208 89.3921C187.555 90.62 189.812 91.8612 190.223 92.1478L190.989 92.6597L188.422 93.0619L185.874 93.4382L183.56 95.4006C181.022 97.5582 180.017 98.2392 179.205 98.359C178.686 98.4356 178.559 98.1997 176.895 94.5786C172.354 84.5753 171.183 81.9467 171.273 81.9334C171.34 81.9234 173.542 83.1033 176.174 84.5438ZM100.177 95.5565L100.478 97.5959L99.6194 98.0236C99.1468 98.2555 97.5759 98.6958 96.1236 99.0029L93.5088 99.551L93.4266 98.0582C93.3738 97.2324 93.3845 96.2121 93.4595 95.7843C93.5655 95.0972 93.6456 95.0159 94.5025 94.8893C95.0211 94.8128 95.9447 94.5143 96.5268 94.2431C97.1347 93.9913 98.1294 93.7055 98.7415 93.6383L99.8757 93.5172L100.177 95.5565ZM112.553 91.9926C113.449 91.9761 114.3 91.9662 114.458 91.9429C114.684 91.9096 114.763 92.2915 114.851 93.6677C114.905 94.6554 114.884 95.6077 114.769 95.7637C114.664 95.9876 113.843 96.2014 112.129 96.4544L109.649 96.8207L109.512 94.8033C109.31 92.0315 109.323 91.9602 110.203 91.9923C110.619 92.0004 111.68 92.0058 112.553 91.9926ZM118.267 91.5195C120.123 92.5421 121.417 93.5086 121.484 93.9618C121.518 94.1884 121.21 94.6042 120.732 94.9527C119.791 95.601 116.389 97.2147 115.712 97.3146C115.306 97.3745 115.335 97.2546 115.901 96.4069C116.483 95.5106 116.536 95.248 116.437 93.6419C116.344 91.9191 116.477 90.9501 116.861 90.8935C116.951 90.8802 117.591 91.1562 118.267 91.5195ZM103.264 95.4016C103.774 97.9195 103.852 97.9775 106.341 97.9805C107.331 97.9733 108.363 98.0987 108.683 98.2367C109.054 98.4134 109.928 98.4002 111.442 98.1998C115.06 97.7351 112.311 98.4651 106.588 99.4954C100.977 100.509 101 100.506 101.631 98.5371C101.837 97.9046 101.924 96.7804 101.865 95.9093C101.701 93.5487 101.735 93.3121 102.334 93.3162C102.795 93.3176 102.861 93.4469 103.264 95.4016ZM91.8321 97.0896C91.8808 98.3559 91.6278 98.6711 91.2718 97.8207C91.0855 97.3388 91.4534 95.6174 91.6898 95.814C91.7641 95.8494 91.8286 96.4418 91.8321 97.0896ZM123.383 95.7421C123.964 96.5592 124.112 98.1814 123.68 99.4723C122.75 102.226 118.694 105.024 112.911 106.897C110.999 107.527 109.276 107.874 104.631 108.56L98.7684 109.425L96.0573 108.853C94.5598 108.542 93.165 108.146 92.9578 107.991C92.5986 107.743 92.6236 107.6 93.0419 106.844C93.8241 105.432 95.4867 104.052 97.1886 103.407C98.0446 103.118 101.38 102.302 104.642 101.612C115.105 99.4418 118.995 98.1727 121.795 96.0691C122.958 95.2029 122.98 95.1996 123.383 95.7421ZM99.6984 100.119C99.7828 100.222 99.7419 100.414 99.6392 100.498C99.3119 100.778 94.8508 102.71 94.3998 102.777C94.0841 102.823 93.3924 101.884 93.3054 101.294C93.2552 100.955 99.4227 99.8124 99.6984 100.119ZM187.542 100.208C192.514 106.419 196.444 112.438 201.312 121.374C204.659 127.502 205.413 128.71 207.94 132.088C210.148 135.027 212.032 137.643 212.058 137.824C212.112 138.187 210.844 138.652 207.319 139.589C200.845 141.309 200.305 141.551 193.756 145.574C191.327 147.067 189.135 148.294 188.88 148.285C188.536 148.29 188.227 147.919 187.67 146.797C186.764 145.032 186.256 144.552 185.421 144.675C184.722 144.778 183.778 146.029 182.845 148.135C181.682 150.714 181.981 150.554 175.919 151.635L170.573 152.563L169.007 152.1C168.141 151.857 166.321 151.385 164.933 151.034C163.548 150.706 162.378 150.277 162.307 150.102C162.235 149.927 162.463 149.292 162.792 148.711C163.575 147.298 165.036 146.272 170.24 143.443C172.481 142.233 175.09 140.713 176.057 140.084C180.541 137.06 182.679 133.433 182.385 129.263C182.255 127.291 181.684 125.291 179.558 119.168C178.314 115.578 177.946 114.336 178.07 113.924C178.197 113.535 178.669 113.141 179.701 112.641C181.652 111.658 182.628 110.935 182.967 110.26C183.557 109.108 182.736 106.358 180.537 102.075L179.592 100.2L180.922 99.3789C181.661 98.9225 182.743 98.1376 183.356 97.6071C183.95 97.1027 184.486 96.6763 184.554 96.6663C184.621 96.6563 185.961 98.2413 187.542 100.208ZM107.347 112.442L109.644 112.08L109.731 112.669C109.881 113.688 110.647 114.502 111.799 114.818C112.377 114.987 112.878 115.26 112.905 115.442C112.932 115.623 112.614 116.434 112.18 117.239C111.768 118.041 111 119.705 110.494 120.961L109.584 123.225L109.155 122.502C108.563 121.454 108.102 121.453 107.404 122.505L106.797 123.382L106.452 122.762C106.132 122.161 106.013 122.132 104.953 122.288L103.826 122.455L103.631 121.604C103.456 120.889 103.346 120.766 102.746 120.762L102.053 120.749L101.562 117.579C101.305 115.835 100.96 114.126 100.797 113.803L100.523 113.195L102.776 113.001C104.026 112.886 106.065 112.654 107.347 112.442ZM122.686 114.275C123.758 115.136 127.735 119.133 127.779 119.428C127.792 119.518 125.956 119.882 123.679 120.218L119.553 120.827L118.035 118.667C117.194 117.494 116.512 116.46 116.502 116.392C116.461 116.121 120.607 113.772 121.393 113.633C121.593 113.58 122.168 113.889 122.686 114.275ZM181.25 107.064C181.4 107.296 181.603 107.892 181.677 108.39C181.854 109.591 181.312 110.134 178.688 111.401C176.038 112.649 173.96 113.396 170.782 114.189C167.559 114.989 159.763 116.488 159.533 116.337C159.433 116.282 159.187 115.554 158.973 114.729L158.594 113.257L159.792 112.941C160.458 112.773 162.838 112.19 165.111 111.67C170.501 110.411 174.714 109.14 177.615 107.878C180.474 106.646 180.854 106.567 181.25 107.064ZM131.271 123.265C134.646 127.397 138.76 134.5 139.094 136.766C139.248 137.808 139.197 137.932 137.85 139.728C135.587 142.818 130.24 147.335 124.188 151.285C118.958 154.72 117.488 155.377 111.867 156.785L108.648 157.608L108.095 158.546C107.801 159.053 106.742 160.621 105.799 162.034C102.706 166.52 102.297 167.969 103.387 170.355C104.412 172.612 105.362 173.745 107.531 175.323C110.628 177.575 111.072 177.926 111.655 178.604C112.995 180.189 112.182 181.235 109.113 181.828C107.39 182.175 107.135 182.166 106.479 181.777C105.421 181.169 103.277 178.66 100.986 175.317C98.8709 172.226 97.9877 170.458 97.7334 168.736C97.5795 167.693 97.1727 166.966 96.923 167.304C96.6892 167.593 97.3942 171.587 97.8512 172.654C98.0702 173.201 99.2056 175.117 100.331 176.965C101.476 178.788 102.517 180.532 102.654 180.836C102.873 181.383 102.853 181.409 101.726 181.575C100.373 181.775 99.5787 181.545 98.4293 180.627C96.422 179.047 95.4853 176.917 94.568 171.796C94.1858 169.676 93.7896 167.929 93.6994 167.942C93.6092 167.955 93.4106 168.795 93.258 169.79C92.9378 171.991 93.2181 174.357 94.1199 177.188C94.4609 178.249 94.6949 179.21 94.6181 179.314C94.3843 179.603 90.1986 176.378 89.3673 175.273C88.8477 174.563 88.4591 173.648 88.0746 172.292C87.4235 169.911 87.3965 168.479 87.98 167.282C88.541 166.087 88.3881 165.832 87.5697 166.532C86.2955 167.577 86.2505 168.208 86.9581 172.688C87.5686 176.511 87.5987 176.715 87.1929 176.775C86.5164 176.875 85.1766 175.915 84.5458 174.92C84.032 174.093 83.9693 173.824 83.9438 172.091C83.9511 171.048 83.6742 168.705 83.358 166.876L82.7952 163.532L83.6978 162.311L84.6195 161.063L89.3999 160.357C94.0675 159.668 94.2446 159.619 95.9131 158.747C98.9477 157.142 101.135 155.105 105.805 149.438C111.731 142.288 112.69 141.452 120.982 136.129L124.391 133.936L124.187 132.554C123.923 130.763 122.886 127.49 121.806 125.01C121.323 123.923 120.924 122.94 120.901 122.782C120.841 122.374 121.53 122.203 125.685 121.635L129.522 121.092L131.271 123.265ZM176.359 115.288C177 116.351 179.462 123.35 180.17 126.117C181.042 129.53 181.102 131.027 180.454 132.882C179.327 136.012 176.564 138.365 169.707 142.017C164.367 144.866 162.929 145.889 161.479 147.932C160.791 148.89 159.52 150.421 158.641 151.338C156.522 153.526 155.895 154.429 155.411 156.144C154.807 158.294 155.205 159.741 157.453 163.576C158.413 165.241 159.188 166.747 159.147 166.938C159.062 167.298 158.084 167.697 156.732 167.897L155.784 168.037L154.324 165.636C152.925 163.342 151.239 159.724 151.079 158.636C150.962 157.843 150.546 157.835 150.502 158.629C150.414 159.753 151.34 162.279 153.028 165.596L154.589 168.676L153.867 168.783C152.74 168.949 150.868 168.6 149.743 168.003C147.945 167.064 147.056 165.412 145.871 160.818C144.886 156.958 144.354 157.569 144.99 161.874C145.384 164.386 145.486 164.764 146.63 167.05C147.767 169.29 147.852 169.555 147.561 169.922C147.295 170.309 147.153 170.283 145.913 169.841C144.111 169.181 142.504 167.821 141.065 165.718C139.98 164.142 139.584 163.181 138.462 159.481L138.311 158.924L138.095 159.65C137.767 160.857 138.009 162.812 138.655 164.222C138.968 164.939 139.948 166.578 140.835 167.905C142.047 169.718 142.376 170.387 142.193 170.553C142.049 170.667 141.273 170.874 140.506 170.987C139.199 171.18 138.986 171.142 138.38 170.63C137.419 169.892 135.531 167.253 133.895 164.438C132.414 161.902 131.553 159.968 131.036 158.03C130.092 154.442 132.01 152.144 138.628 149.06C143.156 146.956 145.136 145.853 148.085 143.82C152.565 140.774 155.202 138.185 160.899 131.208C162.011 129.84 163.949 127.678 165.206 126.358C167.787 123.708 168.267 123.058 168.471 122.102C168.752 120.88 168.575 120.929 167.329 122.479C166.612 123.395 165.338 124.602 164.192 125.42L162.278 126.814L162.117 125.726C162.027 125.114 161.536 123.195 161.024 121.442C160.508 119.666 160.146 118.145 160.222 118.041C160.318 117.911 162.862 117.35 165.864 116.768C168.888 116.183 171.947 115.523 172.677 115.322C173.405 115.099 174.429 114.855 174.967 114.752C175.865 114.597 175.965 114.651 176.359 115.288ZM140.281 141.059C140.436 141.639 140.653 143.112 140.744 144.348C140.932 146.404 140.898 146.641 140.483 146.795C135.586 148.583 132.719 150.234 130.841 152.34C129.617 153.725 128.957 153.938 124.245 154.634L121.403 155.053L125.836 151.991C132.192 147.602 136.624 143.915 138.728 141.312C139.273 140.629 139.77 140.093 139.834 140.06C139.924 140.047 140.107 140.506 140.281 141.059ZM206.091 143.753C203.194 151.752 197.826 163.149 195.183 166.943C194.592 167.771 193.326 169.185 192.35 170.07C191.378 170.978 190.446 171.995 190.267 172.346C189.923 173.137 189.739 175.48 189.95 176.907L190.107 177.972L188.916 178.797C186.613 180.364 185.118 183.039 185.014 185.763C184.998 186.437 185.576 191.445 186.308 196.871C187.37 204.841 187.816 207.554 188.618 210.955C189.344 213.997 189.56 215.308 189.427 215.651C189.268 216.138 189.11 216.161 185.366 216.552C181.716 216.952 181.358 217.028 179.85 217.737C177.438 218.88 175.513 219.257 174.205 218.825C173.627 218.656 171.356 217.324 169.137 215.869C165.187 213.303 164.615 213.017 162.058 212.399C160.793 212.1 160.767 212.08 159.596 210.239L158.4 208.378L159.761 206.047C160.515 204.755 161.36 203.148 161.653 202.479C162.268 201.023 162.867 197.901 162.719 196.904C162.666 196.542 162.703 196.166 162.805 196.081C162.885 196 164.005 196.251 165.239 196.648C168.795 197.79 169.075 197.818 170.042 197.189C173.576 194.907 182.822 183.401 184.232 179.535L184.658 178.36L183.339 176.448C180.327 172.123 176.931 169.568 171.462 167.481L169.802 166.847L168.922 160.887C168.44 157.624 168.066 154.623 168.08 154.251L168.115 153.551L169.557 153.801C172.2 154.221 180.761 152.749 182.653 151.52C182.926 151.341 183.626 150.149 184.174 148.865C184.747 147.599 185.306 146.544 185.418 146.527C185.802 146.471 186.178 146.994 186.64 148.246C186.882 148.951 187.292 149.701 187.561 149.962C188.041 150.401 188.063 150.397 189.337 149.816C190.051 149.502 192.516 148.096 194.842 146.687C200.784 143.078 203.279 141.876 205.956 141.434L206.99 141.259L206.091 143.753ZM129.118 155.651C129.235 155.819 129.097 157.228 128.864 158.768C128.168 163.107 128.684 166.597 130.329 168.693C131.18 169.771 132.069 170.172 133.671 170.26C134.858 170.339 134.958 170.394 135.201 171.099C135.947 173.188 139.643 192.601 139.852 195.58C140.022 197.824 139.886 198.307 139.079 198.612C138.731 198.756 135.598 199.381 132.074 200.017L125.681 201.192L124.444 200.147C122.926 198.913 121.224 196.594 120.096 194.26C119.633 193.31 118.473 190.448 117.525 187.925C116.55 185.383 114.859 181.419 113.754 179.082C110.362 171.872 110.162 171.3 109.229 166.228C108.429 161.901 108.395 161.674 108.719 160.746C109.31 159.131 109.506 158.894 110.658 158.585C111.679 158.318 121.44 156.553 126.639 155.716C128.504 155.394 128.988 155.392 129.118 155.651ZM160.846 153.165C161.965 154.968 163.32 158.681 163.696 160.918C164.205 163.899 164.037 164.318 158.724 172.812C153.655 180.923 152.288 183.371 151.592 185.674C151.015 187.542 151.179 188.652 152.923 195.317C155.526 205.144 156.653 208.404 158.376 211.183C159.131 212.391 159.278 212.763 159.109 213.182C158.916 213.743 157.181 214.948 154.886 216.098C154.091 216.493 153.15 217.141 152.814 217.515C152.477 217.889 151.577 219.596 150.771 221.313C149.133 224.889 148.676 225.535 147.498 225.987C146.215 226.5 145.685 226.347 145.409 225.415C144.789 223.4 141.927 209.166 141.119 204.006L140.522 200.274L141.051 199.177L141.581 198.08L140.758 192.043C140.315 188.728 139.551 184.025 139.058 181.62C138.542 179.219 137.903 175.979 137.582 174.429L137.028 171.616L137.873 172.186C138.332 172.489 139.224 173.538 139.848 174.488C141.126 176.429 142.435 177.648 143.665 178.023C145.932 178.707 154.726 176.158 155.993 174.443C156.358 173.949 156.35 173.742 156.017 172.263C155.72 171.033 155.695 170.55 155.887 170.291C156.018 170.086 156.963 169.622 157.967 169.243C158.971 168.863 160.071 168.353 160.405 168.119C160.944 167.715 160.976 167.617 160.742 166.656C160.587 166.077 159.743 164.419 158.858 162.952C157.522 160.765 157.157 160.008 156.895 158.704C156.54 156.927 156.669 156.237 157.698 154.626C158.299 153.704 159.71 152.176 160.025 152.129C160.115 152.116 160.482 152.571 160.846 153.165ZM164.098 152.407C164.896 152.66 165.733 153.023 165.947 153.223C166.29 153.519 166.496 154.6 167.252 159.721C167.751 163.098 168.159 166.487 168.179 167.248L168.177 168.638L165.155 172.673C163.094 175.409 161.988 177.123 161.676 177.979C161.213 179.368 160.962 181.882 161.183 183.378C161.32 184.307 161.32 184.307 160.397 184.605C159.009 185.042 156.487 186.525 154.631 188.003C153.723 188.716 152.955 189.293 152.91 189.299C152.707 189.329 152.67 187.83 152.845 186.831C153.268 184.546 154.571 182.131 159.846 173.851C166.358 163.651 166.575 162.623 163.658 155.668C163.011 154.096 162.359 152.641 162.258 152.425C161.949 151.891 162.41 151.893 164.098 152.407ZM106.901 163.724C107.705 167.611 108.488 170.574 109.201 172.437C109.692 173.731 110.017 174.841 109.937 174.922C109.629 175.176 107.798 174.011 106.938 173.026C104.855 170.625 104.084 168.678 104.575 167.008C104.919 165.753 106.128 163.792 106.578 163.725C106.759 163.698 106.898 163.701 106.901 163.724ZM131.825 163.841C132.535 165.218 133.378 166.714 133.696 167.153C134.457 168.245 134.435 168.41 133.556 168.54C132.541 168.69 131.347 167.94 130.871 166.899C130.486 166.007 129.702 161.168 129.913 160.882C130.105 160.622 130.372 161.022 131.825 163.841ZM152.188 170.05C153.066 170.221 153.808 170.412 153.86 170.451C154.07 170.628 154.65 173.46 154.506 173.736C154.277 174.21 150.66 175.462 147.337 176.207L144.439 176.866L143.225 175.98C141.986 175.075 141.196 173.942 141.351 173.27C141.391 173.079 141.879 172.637 142.428 172.301C143.001 171.962 143.736 171.483 144.112 171.219C144.754 170.73 144.803 170.746 145.391 171.146C145.702 171.378 146.339 171.631 146.742 171.71C147.452 171.837 147.626 171.765 148.688 170.844C149.323 170.31 150.036 169.835 150.236 169.782C150.439 169.752 151.333 169.875 152.188 170.05ZM174.118 170.331C175.207 170.842 176.662 171.645 177.351 172.099L178.6 172.911L176.742 176.403C173.831 181.811 173.178 183.783 172.679 188.673L172.486 190.646L171.105 189.252C169.294 187.436 167.106 185.884 164.905 184.866C162.908 183.98 162.7 183.663 162.612 181.662C162.504 179.061 163.433 177.234 167.732 171.714C168.603 170.589 169.396 169.407 169.466 169.096L169.592 168.545L170.851 168.961C171.552 169.182 173.025 169.798 174.118 170.331ZM182.405 177.929C182.533 178.327 182.62 178.916 182.599 179.243C182.513 180.066 180.822 182.654 177.39 187.19C174.654 190.812 174.413 191.056 174.262 190.5C173.966 189.432 174.443 185.796 175.21 183.344C175.897 181.136 177.916 177.017 179.228 175.133L179.743 174.409L180.94 175.807C181.608 176.588 182.281 177.554 182.405 177.929ZM164.339 186.338C166.554 186.984 171.823 191.462 172.031 192.867C172.114 193.433 171.397 194.349 169.953 195.489C168.884 196.364 169.093 196.38 165.188 194.896C163.77 194.341 161.238 193.58 159.543 193.182C156.083 192.373 154.245 191.788 153.937 191.417C153.434 190.82 157.118 187.682 159.65 186.568C161.078 185.94 162.657 185.869 164.339 186.338ZM157.425 194.282C158.971 194.61 160.401 194.931 160.614 194.969C160.927 195.062 160.989 195.33 161.042 196.781C161.12 198.553 160.738 200.647 159.977 202.519C159.557 203.576 158.155 205.937 157.859 206.119C157.647 206.243 157.057 204.432 155.545 199.029C154.174 194.114 154.098 193.755 154.414 193.708C154.527 193.691 155.879 193.955 157.425 194.282ZM138.673 201.172C138.83 201.45 139.421 204.049 139.987 206.952C142.771 220.966 143.635 225.098 143.834 225.671C144.031 226.221 143.976 226.321 142.923 226.986C142.312 227.378 140.687 228.544 139.323 229.602C137.955 230.637 136.68 231.52 136.477 231.55C135.485 231.697 134.605 229.951 133.443 225.515C132.213 220.927 131.239 216.208 129.988 208.822L128.859 202.112L133.639 201.406C138.374 200.707 138.419 200.7 138.673 201.172ZM129.621 218.045C129.78 218.184 130.1 218.947 130.352 219.72C130.976 221.758 132.678 228.916 132.585 229.068C132.524 229.124 131.407 228.733 130.082 228.188C128.757 227.642 126.607 226.964 125.296 226.672C123.079 226.165 122.287 225.796 122.203 225.23C122.14 224.799 122.929 222.344 123.405 221.51C124.455 219.572 128.714 217.206 129.621 218.045ZM164.268 214.573C164.96 214.888 166.454 215.802 167.577 216.539C168.703 217.299 170.893 218.712 172.439 219.665C176.01 221.846 177.147 222.836 177.291 223.811C177.468 225.011 177.114 225.735 175.834 226.897C173.213 229.275 172.082 228.794 163.691 221.743C160.534 219.084 158.415 217.683 157.153 217.407C156.271 217.213 156.418 216.959 157.955 216.131C158.678 215.723 159.758 215.077 160.346 214.689C161.708 213.77 162.578 213.735 164.268 214.573ZM155.747 218.656C156.651 218.847 157.921 219.331 158.577 219.72C161.058 221.229 166.529 226.14 167.897 228.069C168.274 228.592 168.704 229.478 168.875 230.008C169.462 231.959 168.056 233.046 165.898 232.323C164.781 231.932 161.929 230.408 157.667 227.912C155.901 226.876 153.77 225.709 152.93 225.324C152.067 224.942 151.362 224.536 151.342 224.4C151.275 223.947 153.721 218.353 154.014 218.31C154.059 218.303 154.84 218.443 155.747 218.656ZM187.591 217.89C191.071 217.585 191.12 217.601 191.357 219.21C191.465 219.935 191.521 221.408 191.475 222.503C191.429 223.598 191.387 224.716 191.382 224.995C191.336 226.09 190.263 227.244 187.388 229.312C185.802 230.426 183.495 231.971 182.271 232.73C176.822 236.082 163.404 242.115 163.281 241.276C163.264 241.163 163.685 240.429 164.206 239.588C165.405 237.721 165.63 236.901 165.372 235.156C165.191 233.932 165.213 233.767 165.591 233.827C169.101 234.351 171.027 232.885 170.602 230.008L170.469 229.101L171.818 229.504C172.542 229.721 173.503 229.834 173.931 229.771C175.803 229.494 178.868 226.379 178.946 224.724C178.976 223.677 178.6 222.691 177.74 221.545C177.366 221.044 177.07 220.602 177.09 220.576C177.131 220.546 177.649 220.308 178.235 220.059C178.843 219.807 179.946 219.32 180.724 218.974C181.695 218.529 182.584 218.306 183.609 218.224C184.43 218.172 186.228 218.022 187.591 217.89ZM124.171 227.949C126.346 228.323 129.118 229.303 131.022 230.341C132.648 231.212 134.829 232.72 134.863 232.946C134.876 233.037 134.207 233.807 133.386 234.646C132.103 235.947 131.076 237.418 130.167 239.219C129.976 239.641 129.863 239.658 127.774 239.55C125.871 239.46 119.672 238.986 112.254 238.368C109.129 238.112 109.129 238.112 109.572 235.963C110.405 231.927 111.879 230.366 116.268 228.884C119.119 227.908 122.064 227.566 124.171 227.949ZM152.732 226.95C153.563 227.268 154.503 227.708 154.856 227.91L155.49 228.303L154.903 228.228C153.99 228.131 150.13 226.802 149.906 226.534C149.539 226.079 151.166 226.325 152.732 226.95ZM147.754 228.033C149.829 228.352 157.308 230.79 159.736 231.936C161.94 232.977 163.519 234.156 163.879 235.029C164.483 236.468 163.709 238.249 161.475 240.594L160.356 241.755L158.693 241.884C157.03 242.014 156.488 241.932 144.251 239.571C140.03 238.759 137.153 238.628 133.703 239.137L131.558 239.431L132.858 237.78C134.83 235.22 140.099 230.645 143.213 228.796C144.672 227.909 145.818 227.717 147.754 228.033ZM118.661 240.409C124.751 240.922 129.802 241.427 129.912 241.549C130.022 241.672 130.308 242.672 130.533 243.727C130.761 244.804 131.273 246.396 131.674 247.24C132.751 249.697 132.786 249.622 130.79 250.149C129.834 250.382 127.141 250.873 124.774 251.222C118.524 252.122 115.931 251.88 112.414 250.06C109.197 248.405 106.562 245.854 105.903 243.728C105.513 242.489 106.301 239.71 107.09 239.594C107.383 239.55 112.598 239.915 118.661 240.409ZM193.986 227.805C195.905 229.097 196.032 230.583 194.39 232.261C192.367 234.319 181.049 242.242 177.224 244.265C174.832 245.544 168.726 247.882 166.581 248.337C165.019 248.684 164.836 248.687 164.643 248.322C164.542 248.106 163.872 247.001 163.135 245.906C162.029 244.193 161.886 243.844 162.126 243.6C162.286 243.438 163.354 243.025 164.458 242.7C171.843 240.591 185.501 233.226 191.12 228.367C191.832 227.73 192.561 227.205 192.696 227.185C192.854 227.162 193.449 227.445 193.986 227.805ZM137.241 240.467C140.276 240.274 140.77 240.34 149.226 242.055C152.243 242.675 155.789 243.285 157.125 243.436C159.954 243.712 160.435 243.85 160.515 244.394C160.545 244.598 161.193 245.706 161.956 246.82C162.701 247.961 163.286 248.963 163.206 249.044C162.88 249.486 160.829 249.951 155.214 250.78L149.013 251.695L143.589 250.852C136.326 249.725 134.793 249.326 133.965 248.244C133.277 247.327 132.141 244.786 131.625 243.01C131.057 241.033 131.488 240.83 137.241 240.467ZM181.797 244.03C182.269 244.261 182.883 245.768 182.852 246.652C182.852 247.116 182.747 247.965 182.621 248.516L182.404 249.543L175.938 250.382C172.388 250.837 166.579 251.602 163.052 252.053L156.654 252.882L157.333 256.394L158.036 259.902L154.994 260.212C153.315 260.391 150.277 260.724 148.212 260.936C146.15 261.171 144.216 261.341 143.936 261.313L143.374 261.257L142.822 256.893C142.487 254.465 142.279 252.435 142.337 252.357C142.394 252.279 143.356 252.392 144.492 252.594C147.996 253.235 150.971 253.096 157.152 252.045C165.356 250.648 172.246 248.473 178.207 245.463C178.27 245.431 178.332 245.4 178.392 245.369C181.359 243.862 181.407 243.838 181.797 244.03ZM135.394 251.368C136.647 251.275 138.289 251.311 139.04 251.408L140.382 251.603L140.734 253.983L141.082 256.339L140.36 256.446C135.757 257.102 122.901 258.514 121.476 258.539C119.265 258.542 118.654 258.308 118.146 257.202C117.643 256.142 117.63 254.338 118.102 253.944C118.516 253.628 132.062 251.582 135.394 251.368ZM155.31 262.041C155.517 262.196 157.841 273.407 158.414 276.98C158.445 277.184 158.684 277.403 158.965 277.431C159.746 277.571 161.167 278.611 161.855 279.528C162.807 280.823 163.11 283.349 162.529 285.032C161.701 287.539 159.899 288.754 156.314 289.284L154.059 289.617L153.085 288.95C151.681 288.023 150.314 286.095 150.12 284.781C149.939 283.557 150.23 282.565 151.382 280.38C152.55 278.147 152.578 278.027 152.22 275.602C151.889 273.359 150.068 264.922 149.579 263.327L149.313 262.464L152.171 262.157C153.759 261.992 155.181 261.945 155.31 262.041ZM89.7808 51.3629C89.5019 51.6588 88.4783 53.1529 87.5031 54.6629C86.5313 56.1956 85.2764 57.8396 84.7053 58.3407C83.3768 59.4861 81.6298 60.1377 80.0755 60.0662C79.4466 60.0201 78.9213 60.0514 78.9346 60.142C79.025 60.7538 81.4597 61.4826 83.6361 61.5548C84.8872 61.6016 85.3382 61.535 86.5959 61.002C88.0306 60.4198 88.6861 60.022 95.0275 55.8441C98.0503 53.8465 100.169 52.7465 102.004 52.2209C102.557 52.0697 103.136 51.7759 103.245 51.5746C103.596 50.9902 102.426 51.024 99.873 51.6788C97.1013 52.4122 96.1435 52.9472 90.5679 56.8499C88.2941 58.4591 86.3601 59.7171 86.2824 59.6591C86.2273 59.5978 86.5236 58.9521 86.9903 58.2117C87.9362 56.6597 90.5058 51.9042 90.747 51.1971C90.9757 50.5614 90.4571 50.6379 89.7808 51.3629ZM111.851 49.0072C108.053 50.1237 104.563 53.3249 103.45 56.7076C102.796 58.6796 103.127 59.0475 104.008 57.3661C105.613 54.3507 107.82 52.2883 110.606 51.1823C112.346 50.4855 116.022 49.9428 118.069 50.0803C121.443 50.3 125.445 52.4411 128.357 55.6231C130.067 57.5241 130.27 57.031 128.679 54.8348C127.315 52.9292 123.277 49.7744 121.414 49.1697C118.411 48.1776 114.877 48.1205 111.851 49.0072ZM70.9164 57.6445C70.2877 58.2235 69.522 59.1238 69.2507 59.627L68.7623 60.5326L69.3255 61.5377C70.3832 63.3959 70.364 63.4219 69.2786 64.8093C68.0938 66.304 68.0505 66.6345 69.1411 66.2188C70.0547 65.8524 71.7521 63.7726 71.8313 62.9042C71.8746 62.5737 71.7075 62.0658 71.4477 61.7106C70.7818 60.7901 70.7984 60.2783 71.5765 58.6816C72.8103 56.1146 72.6933 55.9466 70.9164 57.6445ZM139.053 78.749C138.452 79.2081 137.789 79.8618 137.61 80.2123C136.381 82.5007 138.518 85.4267 141.569 85.6477C142.756 85.7272 142.959 85.6972 143.643 85.1795C144.722 84.3719 145.062 82.9324 144.642 81.0263C144.451 80.1979 144.101 79.2308 143.818 78.8789C142.828 77.4739 140.887 77.4363 139.053 78.749ZM142.504 79.6518C143.144 80.5529 143.566 82.3197 143.328 83.0495C142.874 84.3436 141.266 84.5347 139.816 83.4522C138.444 82.4277 138.517 81.0508 139.993 79.8141C140.979 78.9971 141.984 78.9413 142.504 79.6518Z" fill="black"/>
<path d="M187.591 217.89C191.071 217.585 191.12 217.601 191.357 219.21C191.465 219.935 191.521 221.408 191.475 222.503C191.429 223.598 191.387 224.716 191.382 224.995C191.336 226.09 190.263 227.244 187.388 229.312C185.802 230.426 183.495 231.971 182.271 232.73C176.822 236.082 163.404 242.115 163.281 241.276C163.264 241.163 163.685 240.429 164.206 239.588C165.405 237.721 165.63 236.901 165.372 235.156C165.191 233.932 165.213 233.767 165.591 233.827C169.101 234.351 171.027 232.885 170.603 230.008L170.469 229.101L171.818 229.504C172.542 229.721 173.503 229.834 173.931 229.771C175.803 229.494 178.868 226.379 178.946 224.724C178.976 223.677 178.6 222.691 177.74 221.545C177.366 221.044 177.071 220.602 177.09 220.576C177.131 220.546 177.649 220.308 178.235 220.059C178.843 219.807 179.946 219.32 180.724 218.974C181.695 218.529 182.584 218.306 183.609 218.224C184.43 218.172 186.228 218.022 187.591 217.89Z" fill="black"/>
<path d="M100.177 95.5566L100.478 97.5959L99.6194 98.0237C99.1468 98.2555 97.5759 98.6959 96.1236 99.0029L93.5088 99.5511L93.4266 98.0582C93.3738 97.2325 93.3845 96.2122 93.4595 95.7843C93.5655 95.0972 93.6456 95.0159 94.5025 94.8894C95.0211 94.8128 95.9447 94.5144 96.5268 94.2432C97.1347 93.9914 98.1294 93.7056 98.7415 93.6383L99.8757 93.5172L100.177 95.5566Z" fill="#FEFFBB"/>
<path d="M107.819 92.8538C107.895 93.8381 107.93 95.0137 107.904 95.4576C107.863 96.274 107.863 96.274 106.687 96.4245C105.192 96.5989 104.788 96.3576 104.633 95.1533C104.418 93.5411 104.704 92.6654 105.722 91.9131C106.219 91.5386 106.885 91.2088 107.178 91.1656C107.719 91.0857 107.722 91.1083 107.819 92.8538Z" fill="#FEFFBB"/>
<path d="M112.553 91.9926C113.449 91.9761 114.3 91.9662 114.458 91.9429C114.684 91.9096 114.763 92.2915 114.851 93.6677C114.905 94.6554 114.884 95.6078 114.769 95.7637C114.664 95.9876 113.843 96.2014 112.129 96.4545L109.649 96.8207L109.512 94.8033C109.31 92.0316 109.323 91.9602 110.203 91.9923C110.619 92.0004 111.68 92.0059 112.553 91.9926Z" fill="#FEFFBB"/>
<path d="M99.6984 100.119C99.7828 100.222 99.7419 100.414 99.6392 100.498C99.3119 100.778 94.8508 102.71 94.3998 102.777C94.0841 102.823 93.3924 101.884 93.3054 101.294C93.2552 100.955 99.4227 99.8124 99.6984 100.119Z" fill="#FEFFBB"/>
<path d="M107.347 112.442L109.644 112.08L109.731 112.669C109.881 113.689 110.647 114.502 111.799 114.818C112.377 114.987 112.878 115.26 112.905 115.442C112.932 115.623 112.614 116.434 112.18 117.239C111.768 118.041 111 119.705 110.494 120.961L109.584 123.225L109.155 122.502C108.563 121.455 108.102 121.453 107.404 122.505L106.797 123.382L106.452 122.762C106.132 122.161 106.013 122.132 104.953 122.288L103.826 122.455L103.631 121.604C103.456 120.889 103.346 120.766 102.746 120.762L102.053 120.749L101.562 117.58C101.305 115.835 100.96 114.126 100.797 113.803L100.523 113.195L102.776 113.001C104.026 112.886 106.065 112.654 107.347 112.442Z" fill="#545151"/>
<path d="M142.504 79.6519C143.144 80.5531 143.566 82.3199 143.328 83.0496C142.874 84.3438 141.266 84.5349 139.816 83.4524C138.444 82.4279 138.517 81.051 139.993 79.8142C140.979 78.9973 141.984 78.9414 142.504 79.6519Z" fill="#DCC70D"/>
<path d="M139.469 90.1488C139.479 92.7173 138.749 94.7932 137.455 95.702C136.703 96.2298 134.333 97.3438 133.77 97.427C133.634 97.447 133.478 97.169 133.428 96.8292C133.234 95.5149 134.001 92.5999 135.607 88.4962L136.358 86.5562L137.918 87.7614L139.453 88.9472L139.469 90.1488Z" fill="#DCC70D"/>
<path d="M181.25 107.064C181.4 107.296 181.603 107.892 181.677 108.39C181.854 109.591 181.312 110.134 178.688 111.401C176.038 112.649 173.96 113.396 170.782 114.19C167.559 114.99 159.763 116.488 159.533 116.337C159.433 116.282 159.187 115.554 158.973 114.729L158.594 113.257L159.792 112.941C160.458 112.773 162.838 112.19 165.111 111.67C170.501 110.411 174.714 109.14 177.615 107.878C180.474 106.646 180.854 106.567 181.25 107.064Z" fill="white"/>
<path d="M193.986 227.805C195.905 229.097 196.032 230.583 194.39 232.261C192.367 234.319 181.049 242.242 177.224 244.265C174.832 245.544 168.726 247.882 166.581 248.337C165.019 248.684 164.836 248.688 164.643 248.322C164.542 248.106 163.872 247.001 163.135 245.906C162.029 244.193 161.886 243.844 162.126 243.6C162.286 243.438 163.354 243.025 164.458 242.7C171.843 240.591 185.501 233.226 191.12 228.367C191.832 227.73 192.561 227.205 192.696 227.185C192.854 227.162 193.449 227.445 193.986 227.805Z" fill="#BABABA"/>
<path d="M137.241 240.467C140.276 240.274 140.77 240.34 149.226 242.055C152.243 242.675 155.79 243.285 157.125 243.436C159.954 243.713 160.435 243.85 160.515 244.394C160.545 244.598 161.193 245.706 161.956 246.82C162.701 247.961 163.286 248.963 163.206 249.044C162.88 249.486 160.829 249.951 155.214 250.78L149.013 251.695L143.589 250.852C136.326 249.725 134.793 249.326 133.965 248.244C133.277 247.327 132.141 244.786 131.625 243.01C131.057 241.033 131.488 240.83 137.241 240.467Z" fill="#BABABA"/>
<path d="M118.661 240.409C124.751 240.922 129.802 241.427 129.912 241.549C130.022 241.672 130.308 242.672 130.533 243.727C130.761 244.804 131.273 246.396 131.674 247.24C132.751 249.697 132.786 249.622 130.79 250.149C129.834 250.382 127.141 250.873 124.774 251.222C118.524 252.122 115.931 251.88 112.414 250.06C109.197 248.405 106.563 245.854 105.903 243.728C105.513 242.489 106.301 239.71 107.09 239.594C107.383 239.55 112.598 239.915 118.661 240.409Z" fill="#BABABA"/>
<path d="M164.268 214.573C164.96 214.888 166.454 215.802 167.577 216.539C168.703 217.299 170.893 218.712 172.439 219.665C176.01 221.846 177.147 222.836 177.291 223.811C177.468 225.011 177.114 225.735 175.834 226.897C173.213 229.275 172.082 228.794 163.691 221.743C160.534 219.084 158.415 217.683 157.153 217.407C156.271 217.213 156.418 216.959 157.955 216.131C158.678 215.723 159.758 215.077 160.346 214.689C161.708 213.77 162.578 213.735 164.268 214.573Z" fill="#313E4A"/>
<path d="M155.747 218.656C156.651 218.847 157.921 219.331 158.577 219.72C161.058 221.229 166.529 226.14 167.897 228.069C168.274 228.592 168.704 229.478 168.875 230.008C169.462 231.959 168.056 233.046 165.898 232.323C164.781 231.932 161.929 230.408 157.667 227.912C155.901 226.876 153.77 225.709 152.93 225.324C152.067 224.942 151.362 224.536 151.342 224.4C151.275 223.947 153.721 218.353 154.014 218.31C154.059 218.303 154.84 218.443 155.747 218.656Z" fill="#313E4A"/>
<path d="M147.754 228.033C149.829 228.352 157.308 230.79 159.736 231.936C161.94 232.977 163.519 234.156 163.879 235.029C164.483 236.468 163.709 238.249 161.475 240.594L160.356 241.755L158.693 241.884C157.03 242.014 156.488 241.932 144.251 239.571C140.03 238.759 137.153 238.628 133.703 239.137L131.558 239.431L132.858 237.78C134.83 235.22 140.099 230.645 143.213 228.796C144.672 227.909 145.818 227.717 147.754 228.033Z" fill="#313E4A"/>
<path d="M129.621 218.045C129.78 218.184 130.1 218.947 130.352 219.72C130.976 221.758 132.678 228.916 132.585 229.068C132.524 229.124 131.407 228.733 130.082 228.188C128.757 227.642 126.607 226.964 125.296 226.672C123.079 226.165 122.287 225.796 122.203 225.23C122.14 224.799 122.929 222.344 123.405 221.51C124.455 219.572 128.714 217.206 129.621 218.045Z" fill="#313E4A"/>
<path d="M124.171 227.949C126.346 228.323 129.118 229.303 131.022 230.341C132.648 231.212 134.829 232.72 134.863 232.946C134.876 233.037 134.207 233.807 133.386 234.646C132.103 235.947 131.076 237.418 130.167 239.219C129.976 239.641 129.863 239.658 127.774 239.55C125.871 239.46 119.672 238.986 112.254 238.368C109.129 238.112 109.129 238.112 109.572 235.963C110.405 231.927 111.879 230.366 116.268 228.884C119.119 227.908 122.064 227.566 124.171 227.949Z" fill="#313E4A"/>
<path d="M152.732 226.95C153.563 227.268 154.503 227.708 154.856 227.91L155.49 228.303L154.903 228.228C153.99 228.131 150.13 226.802 149.906 226.534C149.539 226.079 151.166 226.325 152.732 226.95Z" fill="#313E4A"/>
<path fill-rule="evenodd" clip-rule="evenodd" d="M118.061 55.6385C121.783 56.0382 125.298 57.9967 127.254 60.7873L128.277 62.257L124.684 67.8814L121.087 73.4831L117.597 75.5959C113.687 77.9793 112.783 78.4137 111.896 78.3363C110.609 78.2022 107.448 75.52 105.762 73.1525C105.233 72.3741 105.092 71.8855 104.677 69.0757C104.225 66.0167 104.221 65.8321 104.668 64.4926C106.067 60.2341 108.827 57.3954 112.879 55.9637C113.735 55.6753 116.564 55.489 118.061 55.6385ZM117.209 68.1283C117.099 67.3806 117.708 65.5772 118.142 65.3973C119.159 64.9463 120.453 65.2877 121.325 66.2008C122.058 66.9493 122 67.6524 121.097 68.712C120.155 69.8235 119.095 69.98 118.037 69.2101C117.623 68.9008 117.249 68.4002 117.209 68.1283Z" fill="#FFE8E8"/>
<path fill-rule="evenodd" clip-rule="evenodd" d="M79.5557 73.711C82.316 73.836 84.8109 74.9726 86.5301 76.9415C88.1132 78.7685 88.8477 80.466 89.2759 83.3665C89.47 84.6807 89.5605 85.9176 89.4711 86.0929C89.3184 86.4628 89.4537 86.4428 82.1259 86.4365C78.0444 86.414 71.9043 86.6492 70.4611 86.8622C69.0631 87.0687 68.8743 86.7261 69.0967 84.3316C69.3342 81.7264 70.6119 77.7406 71.6364 76.4085C72.0814 75.8334 72.8805 75.1597 73.5427 74.8072C74.8254 74.1316 77.6081 73.6281 79.5557 73.711ZM76.8853 83.089C76.2487 82.2105 76.3361 81.0862 77.0859 80.2346C77.7747 79.4383 77.7104 79.4709 78.8588 79.6023C79.9396 79.7438 80.7916 80.521 80.9322 81.4727C81.163 83.0362 79.346 84.4622 77.815 83.9241C77.5694 83.8215 77.1451 83.4442 76.8853 83.089Z" fill="#FFE8E8"/>
<path d="M129.137 66.3671C129.315 70.0686 128.66 72.9669 127.195 75.0587C126.299 76.3255 125.8 76.3761 124.653 75.3183C123.001 73.8025 122.991 73.7346 123.85 72.2185C125.347 69.5662 128.846 64.2337 128.985 64.3984C129.011 64.4177 129.074 65.3114 129.137 66.3671Z" fill="#FFE8E8"/>
<path d="M118.142 65.3973C117.708 65.5772 117.099 67.3806 117.209 68.1283C117.249 68.4002 117.623 68.9008 118.037 69.2101C119.095 69.98 120.155 69.8235 121.097 68.712C122 67.6524 122.058 66.9493 121.325 66.2008C120.453 65.2877 119.159 64.9463 118.142 65.3973Z" fill="#FFE8E8"/>
<path d="M77.0859 80.2346C76.3361 81.0862 76.2487 82.2105 76.8853 83.089C77.1451 83.4442 77.5694 83.8215 77.815 83.9241C79.346 84.4622 81.163 83.0362 80.9322 81.4727C80.7916 80.521 79.9396 79.7438 78.8588 79.6023C77.7104 79.4709 77.7747 79.4383 77.0859 80.2346Z" fill="#FFE8E8"/>
<path d="M118.267 91.5195C120.123 92.5421 121.417 93.5086 121.484 93.9618C121.518 94.1884 121.21 94.6042 120.732 94.9527C119.791 95.6011 116.389 97.2148 115.712 97.3146C115.306 97.3746 115.335 97.2546 115.901 96.407C116.483 95.5107 116.536 95.2481 116.437 93.6419C116.344 91.9192 116.477 90.9501 116.861 90.8935C116.951 90.8802 117.591 91.1562 118.267 91.5195Z" fill="#6B0415"/>
<path d="M103.264 95.4017C103.774 97.9196 103.852 97.9776 106.341 97.9806C107.331 97.9734 108.363 98.0988 108.683 98.2368C109.054 98.4134 109.928 98.4002 111.442 98.1998C115.06 97.7351 112.311 98.4652 106.588 99.4954C100.977 100.509 101 100.506 101.631 98.5371C101.837 97.9047 101.924 96.7804 101.865 95.9093C101.701 93.5488 101.735 93.3122 102.334 93.3162C102.795 93.3176 102.861 93.4469 103.264 95.4017Z" fill="#6B0415"/>
<path d="M99.6984 100.119C99.7828 100.222 99.7419 100.414 99.6392 100.498C99.3119 100.778 94.8508 102.71 94.3998 102.777C94.0841 102.823 93.3924 101.884 93.3054 101.294C93.2552 100.955 99.4227 99.8124 99.6984 100.119Z" fill="#6B0415"/>
<path d="M123.383 95.7423C123.964 96.5594 124.112 98.1816 123.68 99.4724C122.75 102.226 118.694 105.025 112.911 106.897C110.999 107.527 109.276 107.874 104.631 108.56L98.7684 109.425L96.0573 108.853C94.5598 108.542 93.165 108.146 92.9578 107.991C92.5986 107.743 92.6237 107.6 93.0419 106.844C93.8241 105.432 95.4867 104.052 97.1886 103.407C98.0446 103.119 101.38 102.302 104.642 101.612C115.105 99.442 118.995 98.1729 121.795 96.0693C122.958 95.203 122.98 95.1997 123.383 95.7423Z" fill="#A2060F"/>
<path d="M176.359 115.288C177 116.351 179.462 123.35 180.17 126.117C181.042 129.531 181.102 131.027 180.454 132.882C179.327 136.012 176.564 138.365 169.707 142.017C164.367 144.866 162.929 145.889 161.479 147.932C160.791 148.89 159.52 150.421 158.641 151.338C156.522 153.526 155.895 154.429 155.411 156.145C154.807 158.295 155.205 159.741 157.453 163.576C158.413 165.241 159.188 166.747 159.147 166.938C159.062 167.298 158.084 167.697 156.732 167.897L155.784 168.037L154.324 165.636C152.925 163.342 151.239 159.724 151.079 158.637C150.962 157.844 150.546 157.835 150.502 158.629C150.414 159.753 151.34 162.279 153.028 165.596L154.589 168.676L153.867 168.783C152.74 168.949 150.868 168.601 149.743 168.003C147.945 167.064 147.056 165.413 145.871 160.818C144.886 156.958 144.354 157.569 144.99 161.874C145.384 164.386 145.486 164.765 146.63 167.05C147.767 169.29 147.852 169.555 147.561 169.922C147.295 170.309 147.153 170.284 145.913 169.842C144.111 169.182 142.504 167.821 141.065 165.718C139.98 164.142 139.584 163.182 138.462 159.481L138.311 158.924L138.095 159.651C137.767 160.857 138.009 162.812 138.655 164.222C138.968 164.94 139.948 166.578 140.835 167.906C142.047 169.718 142.376 170.387 142.193 170.553C142.049 170.667 141.273 170.874 140.506 170.987C139.199 171.18 138.986 171.142 138.38 170.63C137.419 169.892 135.531 167.253 133.895 164.439C132.414 161.902 131.553 159.968 131.036 158.03C130.092 154.442 132.01 152.144 138.628 149.06C143.156 146.956 145.136 145.853 148.085 143.82C152.565 140.774 155.202 138.185 160.899 131.208C162.011 129.84 163.949 127.678 165.206 126.358C167.787 123.708 168.267 123.058 168.471 122.102C168.752 120.88 168.575 120.929 167.329 122.479C166.612 123.395 165.338 124.602 164.192 125.42L162.278 126.814L162.117 125.726C162.027 125.114 161.536 123.196 161.024 121.442C160.508 119.666 160.146 118.145 160.222 118.041C160.318 117.911 162.862 117.35 165.864 116.768C168.888 116.183 171.947 115.523 172.677 115.322C173.405 115.099 174.429 114.855 174.967 114.753C175.865 114.597 175.965 114.651 176.359 115.288Z" fill="#FFEC3D"/>
<path d="M131.271 123.265C134.646 127.397 138.76 134.5 139.094 136.766C139.248 137.809 139.197 137.932 137.85 139.728C135.587 142.818 130.24 147.335 124.188 151.285C118.958 154.72 117.488 155.377 111.867 156.786L108.648 157.608L108.095 158.546C107.801 159.053 106.742 160.622 105.799 162.034C102.706 166.52 102.297 167.969 103.387 170.355C104.412 172.612 105.362 173.745 107.531 175.324C110.628 177.575 111.072 177.927 111.655 178.604C112.995 180.189 112.182 181.236 109.113 181.828C107.39 182.175 107.135 182.166 106.479 181.777C105.421 181.169 103.277 178.661 100.986 175.317C98.8709 172.226 97.9877 170.458 97.7334 168.736C97.5795 167.693 97.1727 166.966 96.923 167.304C96.6892 167.593 97.3942 171.588 97.8512 172.655C98.0702 173.201 99.2056 175.117 100.331 176.965C101.476 178.788 102.517 180.533 102.654 180.837C102.873 181.383 102.853 181.409 101.726 181.575C100.373 181.775 99.5787 181.545 98.4293 180.627C96.422 179.048 95.4853 176.917 94.568 171.796C94.1858 169.676 93.7896 167.929 93.6994 167.942C93.6092 167.956 93.4106 168.795 93.258 169.79C92.9378 171.991 93.2181 174.357 94.1199 177.188C94.4608 178.249 94.6949 179.21 94.6181 179.314C94.3843 179.603 90.1985 176.378 89.3673 175.273C88.8477 174.563 88.4591 173.648 88.0746 172.292C87.4235 169.911 87.3965 168.479 87.98 167.282C88.5409 166.088 88.3881 165.832 87.5697 166.532C86.2955 167.577 86.2505 168.209 86.9581 172.688C87.5686 176.511 87.5987 176.715 87.1928 176.775C86.5164 176.875 85.1766 175.915 84.5458 174.92C84.032 174.093 83.9693 173.824 83.9438 172.092C83.9511 171.049 83.6741 168.705 83.358 166.876L82.7952 163.532L83.6978 162.311L84.6195 161.063L89.3999 160.357C94.0675 159.668 94.2446 159.619 95.9131 158.748C98.9477 157.142 101.135 155.105 105.805 149.438C111.731 142.288 112.69 141.452 120.982 136.129L124.391 133.936L124.187 132.554C123.923 130.764 122.886 127.49 121.806 125.01C121.323 123.923 120.924 122.94 120.901 122.782C120.841 122.374 121.53 122.203 125.685 121.635L129.522 121.092L131.271 123.265Z" fill="#FFEC3D"/>
<path d="M174.118 170.331C175.207 170.842 176.662 171.646 177.351 172.1L178.6 172.911L176.742 176.403C173.831 181.811 173.178 183.783 172.679 188.673L172.486 190.646L171.105 189.253C169.294 187.436 167.106 185.884 164.905 184.866C162.908 183.98 162.7 183.663 162.612 181.662C162.504 179.061 163.433 177.234 167.732 171.714C168.603 170.59 169.396 169.407 169.466 169.096L169.592 168.545L170.851 168.961C171.552 169.182 173.025 169.798 174.118 170.331Z" fill="#FFEC3D"/>
<path fill-rule="evenodd" clip-rule="evenodd" d="M107.475 33.7238C107.907 34.3083 108.468 34.9895 108.731 35.2055C109.21 35.6441 109.207 35.6214 108.936 34.4111C108.768 33.7413 108.545 33.0102 108.421 32.7969C108.236 32.477 108.342 32.415 109.221 32.2852C110.416 32.1087 110.869 32.366 111.611 33.6457L112.131 34.5181L112.06 33.2552L111.989 31.9923L113.119 31.8485C116.054 31.4383 117.378 31.8217 117.572 33.136C117.706 34.0424 118.083 33.9404 118.386 32.8768C118.64 32.0984 118.743 32.0138 119.387 32.0112C120.197 32.0307 123.27 32.7115 123.629 32.9594C123.755 33.0334 123.65 33.8825 123.365 34.9201C123.077 35.9351 122.931 36.8134 123.031 36.8681C123.112 36.9487 123.734 36.3244 124.419 35.5054C125.105 34.6864 125.765 34.0101 125.878 33.9934C126.017 33.9961 126.98 34.4327 128.05 34.9694L129.996 35.9786L129.142 37.2161C128.307 38.4276 128.157 38.8201 127.955 40.1003C127.811 41.0014 128.338 40.6689 129.786 38.927L131.157 37.289L132.009 38.0662L132.88 38.8174L132.291 40.1315C131.96 40.8519 131.712 41.5137 131.722 41.5817C131.759 41.8309 132.231 41.5991 133.004 40.9061C133.431 40.5189 133.92 40.2384 134.091 40.3057C134.831 40.6364 138.479 46.9281 139.913 50.3979C141.474 54.1035 144.494 64.2619 144.161 64.6584C144.081 64.7397 143.454 65.0175 142.752 65.26C141.066 65.8563 139.155 67.111 138.486 68.0432C137.836 68.9495 138.136 68.9516 139.846 68.0507C141.299 67.2805 144.868 66.6378 144.942 67.1363C145.059 67.9294 144.533 69.6742 143.953 70.4312C143.374 71.1882 143.117 71.3188 141.018 71.9296C138.234 72.7343 137.504 73.0968 136.295 74.2709C133.781 76.7491 132.958 80.853 134.384 83.9535C135.31 86.0163 135.277 86.4148 133.923 89.4163C132.41 92.7424 131.776 94.8503 131.813 96.3498C131.844 97.3408 131.695 97.7334 130.675 99.2501C129.588 100.939 129.098 102.146 129.018 103.477C128.882 105.836 125.126 109.423 119.168 112.919C115.858 114.844 115.304 114.995 113.875 114.21C113.251 113.886 112.449 113.448 112.081 113.294C111.638 113.105 111.363 112.798 111.309 112.436C111.175 111.53 110.656 110.819 110.094 110.763C109.791 110.738 108.579 110.801 107.4 110.929C106.221 111.057 104.255 111.162 103.059 111.177L100.87 111.176L104.338 110.478C115.31 108.326 121.196 105.743 124.186 101.806C125.284 100.347 125.521 99.4553 125.26 97.6879C124.812 94.6515 123.162 92.3713 120.453 91.0348C119.858 90.7521 119.347 90.4108 119.33 90.2975C119.314 90.1842 119.834 89.8064 120.473 89.4573C123.328 87.8782 126.206 85.3694 127.68 83.1836C128.909 81.3583 128.953 80.5646 128.028 78.8257L127.331 77.5394L128.504 75.6528C129.156 74.6072 129.896 73.2244 130.144 72.5627C130.614 71.2198 130.794 68.0676 130.492 65.8663C130.08 62.9172 130.189 62.2527 131.39 60.2462C131.978 59.2333 133.222 57.3594 134.114 56.0699L135.733 53.7702L137.275 53.913C138.981 54.0779 139.535 53.9266 139.438 53.2695C139.361 52.7483 138.974 52.6203 136.764 52.3215L135.002 52.0953L133.761 53.8299C133.076 54.8109 131.787 56.6914 130.901 58.0262L129.28 60.4652L128.346 59.4454C127.846 58.8709 126.554 57.7651 125.466 56.9532C122.249 54.5109 118.792 53.7247 114.369 54.3546C109.859 55.0205 106.923 56.9821 104.501 61.0212C102.817 63.8167 102.524 66.1986 103.284 70.254C104.036 74.1022 104.686 75.0713 108.905 78.3614C109.999 79.2186 110.647 79.8638 110.529 79.9971C110.433 80.127 109.276 80.8766 107.988 81.6689L105.6 83.1328L104.48 82.8814C102.718 82.4933 100.675 80.8269 99.5843 78.9041C98.5558 77.0878 98.0939 76.9245 98.567 78.568C99.1813 80.7001 100.091 82.0244 101.823 83.2969L103.451 84.4921L102.442 85.1504L101.433 85.8087L99.2281 84.6062C98.022 83.9276 96.3189 83.1602 95.4728 82.8916C93.5835 82.2675 93.1267 82.4507 92.0372 84.2787L91.2867 85.5935L90.7599 82.9623C90.2198 80.2404 89.5521 78.3709 88.4961 76.8366C87.6999 75.6576 85.3944 73.7752 83.8918 73.1173C80.1139 71.406 74.3956 72.1577 70.6446 74.8417L69.8096 75.428L69.204 74.9155C68.1448 73.9836 68.2306 73.1606 69.5047 71.4906C71.5311 68.8298 73.9411 67.3625 77.0754 66.8998C79.5783 66.5302 80.1204 66.6122 80.2341 67.3827C80.3211 67.9718 80.3695 67.9878 81.0969 67.7647C81.8018 67.5448 81.973 67.6122 83.1124 68.4627C83.789 68.9879 85.0194 69.9871 85.8614 70.6963C86.6809 71.4089 87.3407 71.8208 87.314 71.6395C87.2337 71.0957 85.3357 68.8522 83.6282 67.2751C82.3226 66.0787 82.0628 65.7235 81.9457 64.9304C81.7391 63.6874 80.8811 62.4017 79.6156 61.4772L78.5606 60.73L79.0311 58.2988C79.2722 56.9666 79.4398 55.761 79.3746 55.6317C79.215 55.3312 77.8126 58.3167 77.1591 60.2886L76.6834 61.7481L78.0967 62.5813C80.2408 63.8392 81.6268 65.5794 80.3556 65.3967C77.5101 65.0064 76.1663 65.1122 73.7078 65.9383C73.0931 66.1448 73.1248 66.0475 74.1419 65.1333C75.6624 63.728 76.3379 62.841 76.2643 62.3425C76.2308 62.1159 75.8373 61.4794 75.367 60.9468C74.2183 59.5651 74.0836 58.4968 74.8391 56.9034C75.2055 56.1084 75.8301 55.3447 76.6066 54.6744C78.6416 53.0078 78.2782 52.5753 76.0553 54.0612C72.9105 56.1694 71.9749 59.0397 73.6199 61.5984C74.4228 62.8228 74.4413 63.26 73.7916 63.5411C73.4667 63.6817 72.833 64.5393 72.1627 65.7728C71.5657 66.8797 70.7375 68.1366 70.3209 68.5917C69.9009 69.0242 69.258 69.9758 68.8748 70.6575C68.495 71.3619 68.0951 71.9303 67.9823 71.947C67.396 72.0335 67.0036 65.0064 67.4692 62.8539C68.004 60.3901 69.5734 57.2873 71.9254 54.0226L74.0694 51.0665L75.6112 51.2094C76.4564 51.3161 77.4945 51.3249 77.9004 51.265L78.6412 51.1325L78.0331 50.7592C77.7065 50.5758 76.9606 50.3618 76.396 50.2831L75.3671 50.1803L75.8054 49.5599C76.5059 48.5304 80.5432 45.1327 80.8055 45.3486C80.8798 45.3839 81.1155 46.0438 81.3645 46.7942C82.0164 48.7123 82.3562 48.3612 82.1436 45.9846L81.9753 44.0645L84.1698 42.6986L86.3418 41.336L86.8764 41.8359C87.3559 42.2744 87.4186 42.543 87.5175 44.1492C87.6198 45.778 87.6691 45.956 87.9446 45.6374C88.3003 45.2376 88.8293 42.8904 88.7256 42.188C88.6854 41.9161 88.464 41.5088 88.2502 41.3089C87.6604 40.7476 87.7113 40.6244 88.6265 39.9567C90.1296 38.9012 90.6942 38.9799 92.1177 40.5063C92.4192 40.8322 92.4251 40.7156 92.1651 39.7352C91.7965 38.331 91.9342 38.1717 94.6483 36.8911C97.0149 35.7545 97.2212 35.7472 97.3416 36.5629C97.4018 36.9708 97.7043 37.4587 98.1219 37.7906L98.8019 38.3385L98.5395 37.4974C98.2436 36.4297 98.4163 35.5707 99.0459 35.1536C99.5085 34.8538 105.172 32.9524 106.18 32.7573C106.56 32.678 106.871 32.91 107.475 33.7238ZM87.5031 54.6631C88.4783 53.153 89.5019 51.659 89.7808 51.3631C90.4571 50.6381 90.9757 50.5615 90.747 51.1973C90.5058 51.9044 87.9362 56.6598 86.9903 58.2119C86.5236 58.9522 86.2273 59.598 86.2824 59.6593C86.3601 59.7173 88.294 58.4593 90.5679 56.8501C96.1434 52.9474 97.1013 52.4124 99.873 51.679C102.426 51.0242 103.596 50.9904 103.245 51.5748C103.136 51.776 102.557 52.0699 102.004 52.2211C100.169 52.7467 98.0503 53.8467 95.0275 55.8443C88.6861 60.0221 88.0306 60.4199 86.5959 61.0022C85.3382 61.5352 84.8872 61.6018 83.6361 61.555C81.4597 61.4828 79.025 60.754 78.9346 60.1422C78.9213 60.0516 79.4466 60.0203 80.0755 60.0664C81.6298 60.1379 83.3768 59.4863 84.7053 58.3409C85.2764 57.8398 86.5313 56.1958 87.5031 54.6631ZM103.45 56.7078C104.563 53.325 108.053 50.1239 111.851 49.0074C114.877 48.1207 118.411 48.1778 121.414 49.1699C123.277 49.7746 127.315 52.9294 128.679 54.835C130.27 57.0311 130.067 57.5243 128.357 55.6233C125.445 52.4413 121.443 50.3002 118.069 50.0805C116.022 49.9429 112.346 50.4856 110.606 51.1825C107.82 52.2885 105.613 54.3508 104.008 57.3663C103.127 59.0477 102.796 58.6797 103.45 56.7078ZM69.2507 59.6271C69.522 59.124 70.2877 58.2237 70.9164 57.6447C72.6933 55.9468 72.8103 56.1147 71.5765 58.6817C70.7984 60.2785 70.7818 60.7903 71.4477 61.7107C71.7075 62.066 71.8746 62.5738 71.8313 62.9044C71.7521 63.7728 70.0547 65.8525 69.1411 66.219C68.0505 66.6347 68.0938 66.3041 69.2786 64.8094C70.364 63.422 70.3832 63.3961 69.3255 61.5379L68.7623 60.5328L69.2507 59.6271Z" fill="#FFEC3D"/>
<path fill-rule="evenodd" clip-rule="evenodd" d="M145.542 70.2661C145.459 70.9498 145.139 72.0621 144.846 72.7305L144.288 73.9474L145.922 76.2762C147.826 79.0282 148.471 80.739 148.447 82.919C148.434 84.7037 148.098 85.7027 147.26 86.4284C146.278 87.268 142.827 87.6154 140.974 87.0787C139.576 86.66 137.373 85.3181 136.387 84.2597C134.672 82.4754 134.788 78.7306 136.662 75.9764C137.663 74.4857 138.46 73.9513 141.191 72.946C142.459 72.481 143.729 71.8766 144.037 71.6228C144.692 71.063 145.535 69.5956 145.461 69.0971C145.435 68.9158 145.489 68.8152 145.57 68.8959C145.648 68.9538 145.644 69.5563 145.542 70.2661ZM137.61 80.2125C137.789 79.862 138.452 79.2083 139.053 78.7491C140.887 77.4365 142.828 77.474 143.818 78.879C144.101 79.231 144.451 80.198 144.642 81.0265C145.062 82.9326 144.722 84.372 143.643 85.1796C142.959 85.6974 142.756 85.7273 141.569 85.6479C138.518 85.4269 136.381 82.5009 137.61 80.2125Z" fill="#FFEC3D"/>
<path d="M96.3928 84.909C99.6929 86.5056 105.165 89.7032 105.244 90.0851C105.338 90.7196 104.315 91.1253 101.59 91.5509C100.147 91.7639 98.4046 92.1369 97.7449 92.3501C95.3247 93.1242 93.1509 93.5378 92.9303 93.2925C92.8167 93.1472 92.4682 91.8789 92.1221 90.4713L91.5344 87.8954L92.3693 86.6839C92.8235 86.0149 93.3411 85.1512 93.4938 84.7814C93.6691 84.4082 93.9672 84.0863 94.1702 84.0563C94.3506 84.0297 95.352 84.4144 96.3928 84.909Z" fill="#FFEC3D"/>
<path d="M129.118 155.651C129.235 155.819 129.097 157.228 128.864 158.768C128.168 163.108 128.684 166.597 130.329 168.693C131.18 169.771 132.069 170.172 133.671 170.26C134.858 170.339 134.958 170.394 135.201 171.099C135.947 173.189 139.643 192.601 139.852 195.58C140.022 197.824 139.886 198.308 139.079 198.612C138.731 198.756 135.598 199.381 132.074 200.017L125.681 201.192L124.444 200.148C122.926 198.913 121.224 196.594 120.096 194.26C119.633 193.31 118.473 190.448 117.525 187.925C116.55 185.383 114.859 181.419 113.754 179.082C110.362 171.872 110.162 171.3 109.229 166.228C108.429 161.901 108.395 161.674 108.719 160.746C109.31 159.131 109.506 158.894 110.658 158.585C111.679 158.318 121.44 156.553 126.639 155.716C128.504 155.394 128.988 155.392 129.118 155.651Z" fill="url(#paint0_linear_19_391)"/>
<path d="M138.673 201.172C138.83 201.45 139.421 204.049 139.987 206.952C142.771 220.966 143.635 225.099 143.834 225.671C144.031 226.221 143.976 226.322 142.923 226.987C142.312 227.378 140.687 228.544 139.323 229.602C137.955 230.637 136.68 231.52 136.477 231.55C135.485 231.697 134.605 229.951 133.443 225.515C132.213 220.927 131.239 216.209 129.988 208.822L128.859 202.112L133.639 201.406C138.374 200.707 138.419 200.701 138.673 201.172Z" fill="url(#paint1_linear_19_391)"/>
<path d="M131.825 163.841C132.535 165.218 133.378 166.714 133.696 167.154C134.457 168.245 134.435 168.411 133.556 168.54C132.541 168.69 131.347 167.94 130.871 166.899C130.486 166.007 129.702 161.168 129.913 160.882C130.105 160.622 130.372 161.023 131.825 163.841Z" fill="url(#paint2_linear_19_391)"/>
<path d="M106.901 163.724C107.705 167.611 108.488 170.575 109.201 172.437C109.692 173.731 110.017 174.841 109.937 174.922C109.629 175.176 107.798 174.011 106.938 173.026C104.855 170.625 104.084 168.678 104.575 167.008C104.919 165.753 106.128 163.792 106.578 163.725C106.759 163.699 106.898 163.701 106.901 163.724Z" fill="url(#paint3_linear_19_391)"/>
<path d="M135.394 251.368C136.647 251.275 138.289 251.311 139.04 251.408L140.382 251.604L140.734 253.983L141.082 256.339L140.36 256.446C135.757 257.102 122.901 258.514 121.476 258.54C119.265 258.542 118.654 258.308 118.146 257.202C117.643 256.142 117.63 254.338 118.102 253.944C118.516 253.628 132.062 251.582 135.394 251.368Z" fill="url(#paint4_linear_19_391)"/>
<path d="M181.797 244.03C182.269 244.261 182.883 245.768 182.852 246.653C182.852 247.116 182.747 247.965 182.621 248.516L182.404 249.544L175.938 250.382C172.388 250.837 166.579 251.602 163.052 252.054L156.654 252.883L157.333 256.394L158.036 259.902L154.994 260.213C153.315 260.391 150.277 260.724 148.212 260.936C146.15 261.171 144.216 261.341 143.936 261.313L143.374 261.257L142.822 256.893C142.487 254.465 142.279 252.435 142.337 252.357C142.394 252.279 143.356 252.392 144.492 252.594C147.996 253.235 150.971 253.096 157.152 252.045C165.356 250.648 172.246 248.473 178.207 245.463L178.392 245.369C181.359 243.862 181.407 243.838 181.797 244.03Z" fill="url(#paint5_linear_19_391)"/>
<path d="M160.847 153.166C161.965 154.969 163.32 158.681 163.696 160.918C164.205 163.899 164.037 164.318 158.725 172.812C153.655 180.924 152.289 183.371 151.592 185.674C151.015 187.542 151.179 188.652 152.923 195.317C155.526 205.144 156.653 208.404 158.376 211.183C159.131 212.391 159.278 212.763 159.109 213.182C158.916 213.743 157.181 214.948 154.886 216.098C154.092 216.493 153.15 217.141 152.814 217.515C152.477 217.889 151.577 219.596 150.771 221.313C149.133 224.889 148.676 225.535 147.498 225.987C146.215 226.5 145.685 226.347 145.409 225.415C144.789 223.4 141.927 209.166 141.119 204.006L140.522 200.274L141.051 199.177L141.581 198.08L140.758 192.043C140.315 188.728 139.551 184.025 139.058 181.62C138.542 179.219 137.903 175.979 137.582 174.429L137.028 171.617L137.873 172.186C138.332 172.489 139.224 173.538 139.848 174.488C141.126 176.429 142.435 177.649 143.665 178.023C145.932 178.707 154.726 176.158 155.993 174.443C156.358 173.949 156.35 173.742 156.017 172.263C155.72 171.033 155.695 170.551 155.887 170.291C156.018 170.086 156.963 169.622 157.967 169.243C158.971 168.863 160.071 168.353 160.405 168.119C160.944 167.715 160.976 167.618 160.742 166.657C160.587 166.077 159.743 164.419 158.858 162.952C157.522 160.765 157.157 160.008 156.895 158.704C156.54 156.927 156.669 156.237 157.698 154.626C158.299 153.704 159.71 152.176 160.025 152.129C160.116 152.116 160.482 152.571 160.847 153.166Z" fill="#F2E8E2"/>
<path d="M155.31 262.041C155.517 262.196 157.841 273.407 158.414 276.98C158.445 277.184 158.684 277.403 158.965 277.432C159.746 277.571 161.167 278.611 161.855 279.529C162.807 280.824 163.11 283.349 162.529 285.032C161.702 287.539 159.899 288.755 156.314 289.284L154.059 289.617L153.085 288.95C151.681 288.023 150.314 286.095 150.12 284.781C149.939 283.557 150.23 282.565 151.382 280.38C152.55 278.147 152.578 278.027 152.22 275.603C151.889 273.359 150.068 264.922 149.579 263.328L149.313 262.464L152.171 262.158C153.759 261.993 155.181 261.945 155.31 262.041Z" fill="url(#paint6_linear_19_391)"/>
<path d="M206.091 143.753C203.194 151.752 197.826 163.149 195.183 166.943C194.592 167.771 193.326 169.185 192.35 170.07C191.379 170.978 190.446 171.995 190.267 172.346C189.923 173.137 189.739 175.48 189.95 176.908L190.107 177.973L188.916 178.797C186.613 180.364 185.118 183.039 185.014 185.763C184.998 186.437 185.576 191.446 186.308 196.871C187.37 204.841 187.816 207.554 188.618 210.955C189.344 213.997 189.56 215.308 189.427 215.651C189.268 216.138 189.11 216.161 185.366 216.552C181.716 216.952 181.358 217.028 179.85 217.737C177.438 218.88 175.513 219.257 174.205 218.825C173.627 218.656 171.356 217.324 169.137 215.869C165.187 213.303 164.615 213.017 162.058 212.399C160.793 212.1 160.767 212.08 159.596 210.239L158.4 208.378L159.761 206.047C160.515 204.755 161.36 203.148 161.653 202.48C162.268 201.023 162.867 197.901 162.719 196.904C162.666 196.542 162.703 196.166 162.805 196.081C162.885 196 164.006 196.251 165.239 196.648C168.795 197.79 169.075 197.818 170.042 197.189C173.576 194.908 182.822 183.401 184.232 179.535L184.658 178.36L183.339 176.448C180.327 172.123 176.931 169.568 171.462 167.482L169.802 166.847L168.922 160.887C168.44 157.624 168.066 154.623 168.08 154.251L168.115 153.551L169.557 153.801C172.2 154.221 180.761 152.749 182.653 151.52C182.926 151.341 183.626 150.149 184.174 148.865C184.747 147.599 185.306 146.544 185.418 146.528C185.802 146.471 186.178 146.994 186.64 148.246C186.882 148.951 187.292 149.701 187.561 149.962C188.041 150.401 188.063 150.397 189.337 149.816C190.051 149.502 192.516 148.096 194.842 146.687C200.784 143.078 203.279 141.876 205.956 141.434L206.99 141.259L206.091 143.753Z" fill="#757575"/>
<path d="M182.405 177.929C182.533 178.327 182.62 178.916 182.599 179.243C182.514 180.066 180.822 182.654 177.39 187.19C174.654 190.812 174.413 191.056 174.262 190.5C173.966 189.432 174.443 185.796 175.21 183.344C175.897 181.136 177.916 177.017 179.228 175.133L179.743 174.409L180.94 175.807C181.608 176.588 182.281 177.554 182.405 177.929Z" fill="#413A3A"/>
<path d="M164.339 186.338C166.554 186.984 171.823 191.462 172.031 192.867C172.114 193.433 171.397 194.349 169.953 195.489C168.884 196.364 169.093 196.38 165.188 194.896C163.77 194.341 161.238 193.58 159.543 193.182C156.083 192.373 154.246 191.788 153.937 191.417C153.434 190.82 157.118 187.682 159.65 186.568C161.078 185.94 162.657 185.869 164.339 186.338Z" fill="#413A3A"/>
<path d="M151.537 69.3576C157.382 71.8056 159.05 72.6475 162.065 74.6566C166.025 77.2902 167.768 78.7926 168.556 80.2276C168.904 80.8707 170.711 84.6791 172.57 88.688C174.426 92.6743 176.842 97.8049 177.941 100.097C179.039 102.389 179.947 104.478 179.942 104.756C179.939 105.359 179.113 105.851 176.272 106.896C172.334 108.311 163.506 110.633 159.944 111.159C158.252 111.409 157.949 111.384 157.786 111.061C157.349 110.13 153.456 96.5576 152.053 91.1152C151.309 88.2614 152.052 86.7393 155.408 84.1833C157.562 82.5454 157.37 82.1802 155.15 83.6887C153.075 85.0833 151.691 86.6307 151.25 88.0155C150.924 89.0824 150.941 89.3577 151.455 91.8982C152.14 95.2932 154.131 102.848 156.293 110.309C160.842 125.984 161.017 126.699 160.247 128.665C159.608 130.264 157.253 133.506 155.268 135.512C153.341 137.441 149.232 140.826 145.88 143.243C143.233 145.138 142.677 145.429 142.6 144.908C142.58 144.772 142.227 143.157 141.843 141.338C140.642 135.704 138.765 131.258 135.635 126.603C133.539 123.486 131.968 121.587 127.705 117.054C125.762 114.979 124.034 113.104 123.859 112.852C123.547 112.458 123.701 112.25 125.664 110.409C128.74 107.524 129.652 106.208 130.602 103.127C131.547 100.163 131.768 99.9451 135.235 98.4607C139.545 96.5972 140.835 94.8786 140.914 90.8846L140.946 89.0738L142.654 88.9374C145.593 88.7119 147 88.4115 147.771 87.8578C149.707 86.4605 150.287 84.6151 149.802 81.3295C149.451 78.9502 148.675 77.282 147.01 75.2124L146.042 73.9661L146.466 72.4679C146.716 71.6669 146.967 70.2407 147.062 69.3237C147.146 68.1768 147.279 67.6709 147.491 67.709C147.659 67.7536 149.498 68.501 151.537 69.3576Z" fill="#252525"/>
<path d="M176.174 84.5438C178.803 85.9617 182.883 88.1608 185.208 89.392C187.555 90.6199 189.812 91.8612 190.223 92.1478L190.989 92.6597L188.422 93.0619L185.874 93.4381L183.56 95.4005C181.022 97.5582 180.017 98.2391 179.205 98.359C178.686 98.4356 178.559 98.1996 176.896 94.5786C172.354 84.5753 171.183 81.9467 171.273 81.9333C171.34 81.9234 173.542 83.1033 176.174 84.5438Z" fill="#252525"/>
<path d="M187.542 100.207C192.514 106.419 196.444 112.438 201.312 121.374C204.659 127.502 205.413 128.71 207.94 132.088C210.148 135.027 212.032 137.643 212.058 137.824C212.112 138.187 210.844 138.652 207.319 139.589C200.845 141.309 200.305 141.551 193.756 145.574C191.327 147.067 189.135 148.294 188.88 148.285C188.536 148.29 188.227 147.919 187.67 146.797C186.764 145.032 186.256 144.551 185.421 144.675C184.722 144.778 183.778 146.029 182.845 148.135C181.682 150.714 181.981 150.554 175.919 151.635L170.573 152.563L169.007 152.1C168.141 151.857 166.321 151.385 164.933 151.034C163.548 150.706 162.378 150.277 162.307 150.102C162.235 149.927 162.463 149.292 162.792 148.71C163.575 147.298 165.036 146.272 170.24 143.443C172.481 142.232 175.09 140.713 176.057 140.084C180.541 137.06 182.679 133.433 182.385 129.263C182.255 127.291 181.684 125.291 179.559 119.168C178.314 115.578 177.946 114.336 178.07 113.924C178.197 113.535 178.669 113.141 179.701 112.641C181.652 111.658 182.628 110.935 182.967 110.26C183.557 109.108 182.736 106.358 180.537 102.075L179.592 100.2L180.922 99.3789C181.661 98.9225 182.743 98.1375 183.356 97.6071C183.95 97.1027 184.486 96.6762 184.554 96.6662C184.621 96.6563 185.961 98.2412 187.542 100.207Z" fill="#252525"/>
<path d="M122.686 114.275C123.758 115.136 127.735 119.133 127.779 119.428C127.792 119.518 125.956 119.882 123.679 120.218L119.553 120.827L118.035 118.667C117.194 117.494 116.512 116.46 116.502 116.392C116.461 116.121 120.607 113.772 121.393 113.633C121.593 113.58 122.168 113.889 122.686 114.275Z" fill="#252525"/>
<path d="M167.903 182.908C168.213 182.939 168.559 183.036 168.663 183.125C169.15 183.547 169.256 183.165 168.952 182.105C168.747 181.371 168.425 181.061 168.069 181.264C167.801 181.406 167.279 182.375 167.311 182.676C167.33 182.784 167.591 182.899 167.903 182.908Z" fill="#D50814"/>
<path d="M166.831 180.861C168.253 180.091 168.674 180.211 170.008 181.752C170.839 182.721 170.974 182.768 171.415 182.289C171.628 182.06 171.56 181.95 170.151 180.3C168.843 178.781 168.623 178.582 168.284 178.657C167.853 178.751 167.122 179.649 166.815 180.454L166.613 180.983L166.831 180.861Z" fill="#D50814"/>
<path d="M169.779 178.703C170.278 179.147 170.758 179.569 170.852 179.615C171.371 179.974 172.712 179.437 173.095 178.72C173.211 178.488 173.062 178.441 172.217 178.414C171.243 178.363 171.149 178.317 170.192 177.452C168.969 176.343 168.647 176.204 167.988 176.462C167.436 176.681 165.8 178.13 165.635 178.553C165.495 178.913 166.462 178.707 167.076 178.234C167.882 177.616 168.709 177.77 169.779 178.703Z" fill="#D50814"/>
<path d="M168.187 175.812C169.935 175.561 170.404 175.755 171.729 177.266C172.555 178.215 172.704 178.284 173.28 178.02C173.557 177.895 173.494 177.794 172.097 176.181C170.798 174.693 170.572 174.485 170.17 174.461C169.66 174.43 168.691 174.947 168.225 175.493L167.918 175.853L168.187 175.812Z" fill="#D50814"/>
<path d="M171.89 174.858C172.404 175.321 172.899 175.763 173.001 175.821C173.551 176.223 175.173 176.133 175.715 175.672C175.881 175.521 175.716 175.449 174.744 175.225C173.627 174.949 173.525 174.891 172.54 173.992C171.282 172.841 170.93 172.657 170.133 172.696C169.466 172.732 167.376 173.455 167.126 173.742C166.915 173.985 168.06 174.06 168.834 173.843C169.85 173.561 170.784 173.88 171.89 174.858Z" fill="#D50814"/>
<path d="M73.5998 88.9556C72.7476 87.785 72.8611 86.2843 73.8593 85.1455C74.7763 84.0807 74.6906 84.1245 76.2237 84.2965C77.6665 84.4822 78.8059 85.517 78.9962 86.7867C79.3089 88.8728 76.8879 90.7812 74.8431 90.0676C74.515 89.9313 73.9476 89.429 73.5998 88.9556Z" fill="black"/>
<path d="M112.79 72.8118C112.647 71.8602 113.418 69.5628 113.97 69.3326C115.263 68.7556 116.912 69.1866 118.025 70.3466C118.959 71.2975 118.888 72.1927 117.741 73.544C116.545 74.9616 115.196 75.1637 113.847 74.1866C113.319 73.794 112.842 73.1578 112.79 72.8118Z" fill="black"/>
<path d="M75.2553 88.1225C84.731 87.6959 89.1233 87.9504 90.0121 88.9768C90.6186 89.6513 90.8731 92.6237 90.4559 94.1672C90.0829 95.542 88.8923 97.1533 87.4986 98.1695C86.4807 98.9218 86.1943 99.0104 84.0262 99.3073C82.0386 99.5777 81.3938 99.5802 80.009 99.2522C75.6484 98.2753 72.0925 95.8829 70.4866 92.8091C69.9135 91.736 69.0668 88.9668 69.2263 88.6423C69.3473 88.3697 68.7543 88.4109 75.2553 88.1225Z" fill="#D7DFF4" fill-opacity="0.6"/>
<path d="M123.546 76.4079C125.814 78.5041 127.012 79.9018 127.102 80.5136C127.206 81.2161 125.613 83.5351 123.989 85.0251C121.032 87.7772 117.501 89.4562 113.314 90.1207C110.904 90.4996 110.627 90.4943 109.461 90.0876C107.781 89.4789 103.119 86.9258 103.24 86.6532C103.463 86.1341 120.913 75.2686 121.721 75.126C121.924 75.0961 122.746 75.6693 123.546 76.4079Z" fill="#D7DFF4" fill-opacity="0.6"/>
</g>
<defs>
<linearGradient id="paint0_linear_19_391" x1="155.752" y1="289.367" x2="135.816" y2="154.348" gradientUnits="userSpaceOnUse">
<stop stop-color="#93C4FF"/>
<stop offset="0.3125" stop-color="#93C4FF"/>
<stop offset="0.770833" stop-color="#0063D7"/>
<stop offset="1" stop-color="#0063D7"/>
</linearGradient>
<linearGradient id="paint1_linear_19_391" x1="155.752" y1="289.367" x2="135.816" y2="154.348" gradientUnits="userSpaceOnUse">
<stop stop-color="#93C4FF"/>
<stop offset="0.3125" stop-color="#93C4FF"/>
<stop offset="0.770833" stop-color="#0063D7"/>
<stop offset="1" stop-color="#0063D7"/>
</linearGradient>
<linearGradient id="paint2_linear_19_391" x1="155.752" y1="289.367" x2="135.816" y2="154.348" gradientUnits="userSpaceOnUse">
<stop stop-color="#93C4FF"/>
<stop offset="0.3125" stop-color="#93C4FF"/>
<stop offset="0.770833" stop-color="#0063D7"/>
<stop offset="1" stop-color="#0063D7"/>
</linearGradient>
<linearGradient id="paint3_linear_19_391" x1="155.752" y1="289.367" x2="135.816" y2="154.348" gradientUnits="userSpaceOnUse">
<stop stop-color="#93C4FF"/>
<stop offset="0.3125" stop-color="#93C4FF"/>
<stop offset="0.770833" stop-color="#0063D7"/>
<stop offset="1" stop-color="#0063D7"/>
</linearGradient>
<linearGradient id="paint4_linear_19_391" x1="151.753" y1="260.83" x2="149.947" y2="248.601" gradientUnits="userSpaceOnUse">
<stop stop-color="#E5E5E5"/>
<stop offset="1" stop-color="#ACB2B8"/>
</linearGradient>
<linearGradient id="paint5_linear_19_391" x1="151.753" y1="260.83" x2="149.947" y2="248.601" gradientUnits="userSpaceOnUse">
<stop stop-color="#E5E5E5"/>
<stop offset="1" stop-color="#ACB2B8"/>
</linearGradient>
<linearGradient id="paint6_linear_19_391" x1="149.15" y1="268.226" x2="157.385" y2="266.395" gradientUnits="userSpaceOnUse">
<stop stop-color="#B9BEC0"/>
<stop offset="1" stop-color="#E5E5E5"/>
</linearGradient>
<clipPath id="clip0_19_391">
<rect width="137" height="275" fill="white" transform="translate(58.6506 27.4803) rotate(-8.39908)"/>
</clipPath>
</defs>
</svg>
