<svg width="90" height="108" fill="none" xmlns="http://www.w3.org/2000/svg"><path d="M45.032 68.832c.225 1.703.225 1.703 1.022 2.298 1.025.78 2.334.995 3.713.627 1.1-.29 1.136-.318 1.42-1.6.076-.352.244-.661.345-.682.121-.025.826.736 1.593 1.696 1.583 1.95 1.941 2.973 1.503 4.223-.287.86-1.722 2.083-2.044 1.75-.11-.126-.377-.809-.588-1.524-.486-1.544-1.135-2.339-2.165-2.632-.65-.183-1.086-.156-2.502.24-.942.237-2.033.672-2.425.922l-.701.481.558 2.1.58 2.094-4.005.824c-2.185.45-4.123.765-4.286.693-.178-.048-.534-.754-.802-1.542-.775-2.329-1.372-2.67-3.78-2.174-.99.204-1.552.447-2.153.907-.866.706-1.045 1.27-1.213 3.834-.049.685-.163 1.257-.264 1.278-.202.041-.167-.915.071-1.702.088-.292.054-1.276-.073-2.198l-.245-1.7 1.007-.334a23.567 23.567 0 0 1 1.977-.533c1.275-.263 2.595-.914 2.892-1.418.172-.288.16-1.066-.047-2.478l-.279-2.072.659-.283c.351-.136.756-.22.87-.18.113.04.542.69.951 1.45.41.758.978 1.674 1.264 2.037l.542.69 1.574-.346c.85-.175 1.937-.525 2.417-.75 1.111-.546 1.33-1.328 1.04-3.651l-.208-1.728.79-.163.768-.158.224 1.704ZM26.485 74.19c.174.534.314 1.01.282 1.06-.012.044-.674-.2-1.461-.543-.764-.328-1.345-.693-1.28-.79.132-.175 1.486-.665 1.923-.692.126-.005.363.431.536.965Z" fill="#A9270B"/><path d="M45.032 68.832c.225 1.703.225 1.703 1.022 2.298 1.025.78 2.334.995 3.713.627 1.1-.29 1.136-.318 1.42-1.6.076-.352.244-.661.345-.682.121-.025.826.736 1.593 1.696 1.583 1.95 1.941 2.973 1.503 4.223-.287.86-1.722 2.083-2.044 1.75-.11-.126-.377-.809-.588-1.524-.486-1.544-1.135-2.339-2.165-2.632-.65-.183-1.086-.156-2.502.24-.942.237-2.033.672-2.425.922l-.701.481.558 2.1.58 2.094-4.005.824c-2.185.45-4.123.765-4.286.693-.178-.048-.534-.754-.802-1.542-.775-2.329-1.372-2.67-3.78-2.174-.99.204-1.552.447-2.153.907-.866.706-1.045 1.27-1.213 3.834-.049.685-.163 1.257-.264 1.278-.202.041-.167-.915.071-1.702.088-.292.054-1.276-.073-2.198l-.245-1.7 1.007-.334a23.567 23.567 0 0 1 1.977-.533c1.275-.263 2.595-.914 2.892-1.418.172-.288.16-1.066-.047-2.478l-.279-2.072.659-.283c.351-.136.756-.22.87-.18.113.04.542.69.951 1.45.41.758.978 1.674 1.264 2.037l.542.69 1.574-.346c.85-.175 1.937-.525 2.417-.75 1.111-.546 1.33-1.328 1.04-3.651l-.208-1.728.79-.163.768-.158.224 1.704ZM26.485 74.19c.174.534.314 1.01.282 1.06-.012.044-.674-.2-1.461-.543-.764-.328-1.345-.693-1.28-.79.132-.175 1.486-.665 1.923-.692.126-.005.363.431.536.965Z" stroke="#000"/><path d="M38.861 77.901c.67-.798 3.096-2.73 7.445-4.079 2.198-.681 6.557-2.317 7.94-1.567 1.353.735 2.252 2.691.892 3.927-1.36 1.236-1.87 1.859-3.417 2.283l-.084.022c-4.647 1.273-6.992 1.915-11.6 2.175-1.145.065-2.937.073-2.937.073l1.761-2.834Z" fill="#711602"/><path d="M32.778 72.599c.15.728.231 1.428.147 1.53-.065.097-1.112.44-2.317.73l-2.204.56-.27-1.315-.271-1.315 1.713-.69c.937-.362 1.984-.704 2.308-.77l.615-.085.28 1.355ZM41.972 69.02c.085.825.078 1.712-.034 1.988-.195.483-1.031.929-2.326 1.196-.627.129-.68.076-1.346-1.115-1.052-1.933-1.054-2.144.07-2.523.514-.169 1.06-.387 1.217-.44.153-.074.731-.235 1.273-.368l.987-.224.159 1.485ZM48.355 67.662c.597.236 1.12.529 1.21.658.254.411.19 1.33-.14 1.778-.26.37-.442.408-1.127.36-1.289-.115-1.712-.534-1.768-1.724-.027-.543-.03-1.07.01-1.183.12-.34.804-.292 1.815.111ZM49.706 74.531c.634.418 1.211 2.091 1.001 2.914-.15.6-.207.633-1.728.925-.914.168-1.708.204-1.92.1-.45-.244-.961-2.521-.673-3.065.336-.723 2.637-1.323 3.32-.874ZM34.09 78.042c.51.232 1.539 2.972 1.22 3.27-.124.11-1.09.54-2.16.972-1.403.563-2.026.712-2.22.583-.196-.128-.255-.622-.242-1.784.007-1.71.146-2.16.78-2.564.572-.392 2.158-.677 2.621-.477Z" fill="#BFD4E0"/><path fill-rule="evenodd" clip-rule="evenodd" d="m76.847 52.75.347-.872c.854-2.2.712-5.86-.404-10.458-.7-2.929-1.77-5.385-3.096-8.07-1.215-2.499-2.001-4.406-3.775-6.56-2.206-2.623-4.784-5.107-7.436-7.133-2.692-2.073-5.25-3.744-8.64-4.588-4.066-.98-9.413-1.097-13.487.142l-5.635 1.814c-9.044 2.77-12.896 4.237-16.266 6.196-3.464 2.02-5.09 3.642-8.336 8.358-1.17 2.119-2.32 4.15-3.195 6.392-.946 2.472-2.036 5.985-2.18 7.027-.17 1.321.307 3.436 1.014 4.408.318.42 1.096 1.23 1.74 1.793.638.543 1.176 1.107 1.205 1.248.65 3.157 4.285 14.824 4.097 16.613-.063 1.13.37 2.622.94 3.137.982.873 2.792 1.576 6.516 2.559 5.46 1.427 6.695 2.205 6.987 4.443.17 1.335-.123 2.576-1.19 4.968-.409.885-.735 1.859-.738 2.154-.055 1.572 1.967 3.306 4.473 3.802.811.149 1.542.42 1.64.59.082.194.34.73.594 1.248 1.082 2.18 3.473 2.426 10.119 1.015 2.268-.492 4.526-.933 6.817-1.298 4.5-3.683 8.939-7.42 12.767-11.821 1.93-2.64 4.121-4.913 5.901-7.688 1.084-1.7 2.204-3.532 2.468-4.092 2.43-5.352-.798-9.589 1.657-11.304.48-.331 1.303-.838 1.812-1.133.528-.298 1.065-.662 1.206-.796l2.078-2.094ZM59.456 19.395c-4.37-2.895-8.008-3.77-13.74-3.348-3.074.232-3.923.407-8.799 1.918-9.97 3.086-14.496 4.756-17.48 6.445-3.435 1.952-6.442 5.059-8.535 8.82-1.375 2.434-3.269 7.062-4.15 10.048-.58 1.995-.62 2.32-.373 3.513.316 1.537.965 2.436 2.698 3.787l1.107.868S14.564 62.447 16 69c-1.5.192-1.711.328-1.534 1.192.192.93.278 1.04 1.229 1.56.548.31 1.648.736 2.447.93l1.448.377 3.13-.666c3.455-.733 6.592-1.78 10.859-3.585 6.69-2.833 11.299-3.698 14.67-2.79 1.233.358 4.05 2.16 5.377 3.49 1.271 1.255 2.452 3.1 2.669 4.151.159.874-.18 2.399-.755 3.192-.245.345-.821.928-1.273 1.295-.798.628-.996.69-9.49 2.544-7.221 1.593-8.928 2.007-10.12 2.569-.791.353-2.27.847-3.282 1.055-1.695.37-1.885.368-2.657 0l-.82-.4-.453.873c-.6 1.177-.642 1.692-.128 2.45.54.775 1.356 1.155 3.115 1.404 1.435.21 1.556.185 4.72-.93 2.321-.815 4.901-1.494 4.603-1.2-.141.134-1.562 1.017-3.164 1.937-1.578.936-3.027 1.888-3.212 2.116-.527.615-.07 1.195 1.285 1.633l1.177.39 6.452-1.329 6.452-1.328 2.185-1.779c7.688-6.284 15.85-15.998 18.22-21.693.698-1.725.817-2.888.501-5.648-.31-2.74-.2-4.049.395-4.635.21-.212 1.065-.768 1.913-1.258 2.656-1.538 3.577-2.698 4.198-5.313.26-1.192.258-1.614-.173-4.013-.59-3.378-1.892-7.959-2.955-10.354-2.88-6.512-7.353-11.747-13.573-15.842ZM41.938 71.007c.112-.276.12-1.162.034-1.988l-.159-1.485-.986.224c-.542.133-1.12.294-1.274.368-.158.053-.703.27-1.217.44-1.123.379-1.122.59-.07 2.523.667 1.191.72 1.243 1.347 1.114 1.294-.266 2.13-.712 2.325-1.196Zm4.116.123c-.797-.595-.797-.595-1.022-2.299l-.224-1.703-.769.158-.788.162.208 1.729c.289 2.322.07 3.105-1.04 3.65-.48.226-1.568.576-2.418.751l-1.573.345-.543-.69c-.286-.362-.854-1.278-1.263-2.037-.41-.76-.838-1.409-.952-1.449-.114-.04-.518.044-.87.18l-.658.283.279 2.072c.206 1.412.219 2.19.046 2.478-.296.504-1.617 1.155-2.891 1.417a23.58 23.58 0 0 0-1.978.534l-1.006.334.244 1.7c.127.922.161 1.906.074 2.198-.239.787-.274 1.743-.072 1.701.101-.02.216-.592.264-1.277.168-2.564.347-3.128 1.214-3.834.6-.46 1.162-.703 2.153-.907 2.407-.496 3.005-.155 3.78 2.173.267.788.623 1.495.802 1.543.162.072 2.1-.243 4.285-.693l4.005-.825-.58-2.094-.558-2.099.702-.482c.391-.249 1.482-.684 2.425-.92 1.415-.397 1.852-.424 2.501-.242 1.03.294 1.68 1.088 2.166 2.632.21.716.478 1.399.588 1.524.322.334 1.756-.889 2.043-1.75.438-1.249.08-2.272-1.502-4.223-.767-.959-1.472-1.72-1.594-1.695-.1.02-.269.33-.344.682-.284 1.281-.32 1.31-1.42 1.6-1.38.368-2.689.153-3.714-.627Zm3.512-2.81c-.09-.13-.614-.422-1.211-.658-1.01-.403-1.696-.452-1.815-.11-.04.113-.037.64-.01 1.182.056 1.19.48 1.609 1.768 1.723.685.049.867.011 1.128-.359.33-.447.393-1.367.14-1.778Zm-16.641 5.809c.084-.102.003-.802-.147-1.53l-.279-1.355-.615.084c-.323.067-1.37.409-2.308.77l-1.713.69.27 1.315.271 1.315 2.204-.56c1.206-.29 2.253-.632 2.317-.73Zm-6.158 1.12c.032-.049-.108-.526-.282-1.06-.173-.533-.41-.969-.535-.964-.438.027-1.792.516-1.924.691-.065.098.517.463 1.28.79.788.345 1.45.588 1.461.543Zm23.94 2.196c.21-.823-.366-2.496-1-2.914-.684-.45-2.985.15-3.32.873-.29.545.222 2.822.673 3.066.211.104 1.005.067 1.92-.1 1.52-.292 1.577-.325 1.727-.925Zm-15.396 3.866c.318-.297-.71-3.037-1.222-3.269-.463-.2-2.049.085-2.621.477-.634.404-.773.855-.78 2.564-.013 1.162.046 1.656.241 1.784.196.129.818-.02 2.22-.583 1.071-.432 2.037-.863 2.162-.973Z" fill="#000"/><path d="M26.838 33.006c-.428.383-1.293 1.3-1.896 2.056-1.412 1.745-2.573 2.66-4.234 3.296-.816.337-1.284.623-1.251.785.1.485 3.565.931 5.942.8 1.79-.115 2.843-.627 6.332-3.138 1.707-1.237 3.8-2.638 4.632-3.104 1.776-.998 1.776-.998 1.338-1.182-.187-.088-.964.03-1.744.233-1.157.322-1.839.694-4.054 2.226-1.452 1.037-3.211 2.116-3.93 2.411-1.94.822-3.687 1.35-3.874 1.156-.082-.088.187-.523.582-.963.861-.936 3.556-4.948 3.502-5.211-.063-.304-.507-.107-1.345.635Z" fill="#000"/><path d="M26.837 33.006c-.427.383-1.292 1.3-1.895 2.056-1.412 1.745-2.573 2.66-4.234 3.296-.816.337-1.284.623-1.251.785.1.486 3.565.931 5.942.8 1.79-.115 2.843-.627 6.332-3.138 1.706-1.237 3.8-2.638 4.632-3.104 1.776-.998 1.776-.998 1.338-1.182-.187-.088-.964.03-1.744.233-1.157.322-1.84.694-4.054 2.226-1.452 1.037-3.212 2.116-3.93 2.412-1.94.82-3.687 1.349-3.874 1.156-.082-.089.187-.524.581-.963.862-.937 3.556-4.95 3.502-5.212-.062-.304-.506-.107-1.345.635Z" fill="#000"/><path fill-rule="evenodd" clip-rule="evenodd" d="M45.715 16.047c5.732-.421 9.37.453 13.74 3.348 6.22 4.095 10.693 9.33 13.574 15.842 1.062 2.395 2.364 6.976 2.955 10.355.43 2.398.433 2.82.172 4.012-.62 2.615-1.541 3.775-4.198 5.313-.847.49-1.703 1.046-1.912 1.258-.596.587-.706 1.895-.395 4.635.316 2.76.197 3.923-.502 5.648-2.37 5.696-10.531 15.409-18.219 21.693l-2.185 1.779-6.452 1.328-6.452 1.329-1.177-.39c-1.355-.438-1.812-1.019-1.285-1.633.185-.228 1.633-1.18 3.212-2.116 1.602-.92 3.023-1.803 3.164-1.938.298-.293-2.282.386-4.602 1.201-3.165 1.115-3.287 1.14-4.721.93-1.76-.25-2.576-.63-3.115-1.404-.514-.758-.473-1.273.128-2.45l.453-.874.82.4c.772.369.962.372 2.657.002 1.011-.209 2.49-.703 3.282-1.056 1.192-.561 2.899-.976 10.119-2.569 8.494-1.854 8.693-1.916 9.49-2.544.452-.367 1.028-.95 1.273-1.295.575-.793.914-2.318.756-3.192-.217-1.052-1.398-2.896-2.669-4.152-1.328-1.329-4.145-3.13-5.378-3.488-3.37-.908-7.979-.044-14.67 2.789-4.266 1.806-7.403 2.852-10.857 3.585l-3.131.666-1.448-.377c-.8-.194-1.9-.62-2.448-.93-.95-.52-1.036-.63-1.228-1.56-1.281-6.222-4.282-18.745-4.282-18.745l-1.107-.869c-1.733-1.35-2.382-2.25-2.699-3.787-.245-1.194-.207-1.518.373-3.513.882-2.986 2.775-7.614 4.15-10.047 2.093-3.762 5.101-6.87 8.536-8.82 2.984-1.69 7.51-3.36 17.48-6.446 4.876-1.51 5.725-1.685 8.798-1.918ZM24.941 35.062c.604-.757 1.47-1.673 1.896-2.056.838-.742 1.283-.939 1.345-.635.055.263-2.64 4.275-3.502 5.212-.394.44-.663.874-.581.963.187.193 1.934-.335 3.873-1.156.72-.296 2.479-1.375 3.931-2.412 2.215-1.532 2.897-1.904 4.054-2.226.78-.203 1.557-.321 1.744-.233.438.184.438.184-1.338 1.182-.832.466-2.926 1.867-4.632 3.104-3.489 2.51-4.543 3.023-6.332 3.139-2.377.13-5.842-.316-5.942-.8-.034-.163.435-.449 1.25-.786 1.662-.637 2.823-1.55 4.235-3.296Z" fill="#FED90F"/><path d="M31.298 61.519c-.115.466-.155.475-.343.176-.307-.464-.185-1.1.18-.86.196.129.238.331.163.684Z" fill="#A9270B"/><path d="M34.221 55.752c-.356.621-.283 1.386.167 2.242.524 1.01.96.878.999-.269.021-.51.14-.956.241-.977.316-.107 1.74 1.792 1.89 2.52.246 1.194-.494 1.493-1.637.654-.569-.41-1.042-.355-.95.09.09.445 2.111 1.758 2.556 1.666 1.092-.225 1.957-3.502 1.257-4.75-.912-1.561-3.873-2.322-4.523-1.176Z" fill="#000"/><path fill-rule="evenodd" clip-rule="evenodd" d="M29.361 60c-1.134 1.35.823 4.3 2.353 3.541.517-.253.57-1.023.195-2.843l-.33-1.598-.89.183c-.586.12-1.022.358-1.328.716Zm1.594 1.695c.188.299.228.29.343-.176.075-.353.033-.555-.162-.683-.366-.241-.488.395-.181.86Z" fill="#000"/><path fill-rule="evenodd" clip-rule="evenodd" d="M44.051 24.067c-1.21 1.126-1.405 2.844-.94 5.078.408 1.351 2.281 1.265 3.514 1.701 1.279.27 5.264 1.178 9.445 2.348 4.877 1.364 10.333 3.576 11.511 3.86 1.236.186 2.021.14 2.826-.694 1.831-1.88 1.235-5.18-.936-6.224-3.949-2.138-17.738-6.41-21.909-7.181-1.38-.219-2.844.5-3.51 1.112Zm23.544 6.491c-4.4-1.93-16.088-5.657-19.88-6.076-.772-.122-1.893.528-2.119.602-.957.313-1.727 2.59-1.087 3.602.54.888 3.497 1.025 14.41 4.297 7.864 2.377 8.865 2.994 9.787 2.692.66-.216.823-.368 1.153-1.067.422-.947.438-1.957.014-2.607-.192-.292-1.012-.93-2.278-1.443Z" fill="#392E04"/><path fill-rule="evenodd" clip-rule="evenodd" d="M47.716 24.482c3.59.46 14.747 3.663 19.839 5.874 1.265.513 2.127 1.353 2.319 1.645.424.65.408 1.66-.014 2.607-.249.778-.586.878-1.098 1.03-.082.024-.167.05-.258.079-.56.183-1.076.011-3.166-.688-1.345-.449-3.34-1.116-6.419-2.046-4.908-1.472-8.207-2.31-10.4-2.866-2.683-.681-3.712-.943-4.01-1.431-.639-1.013-.315-3.409 1.005-4.007.226-.074 1.026-.236 2.202-.197Zm4.842 5.077a.256.256 0 0 1-.16.325.256.256 0 0 1-.321-.167.256.256 0 0 1 .16-.325.256.256 0 0 1 .321.167Zm.802.01a.256.256 0 0 0 .16-.324.256.256 0 0 0-.32-.168.256.256 0 0 0-.16.325.256.256 0 0 0 .32.168Zm.482.66a.256.256 0 0 1-.16.326.256.256 0 0 1-.32-.168.256.256 0 0 1 .16-.325.256.256 0 0 1 .32.168Zm.48-.974a.256.256 0 0 0 .16-.325.256.256 0 0 0-.321-.168.256.256 0 0 0-.16.325.256.256 0 0 0 .32.168Zm.482.66a.256.256 0 0 1-.16.325.256.256 0 0 1-.32-.168.256.256 0 0 1 .16-.325.256.256 0 0 1 .32.168Zm-2.728-1.016a.256.256 0 0 0 .16-.325.256.256 0 0 0-.321-.167.256.256 0 0 0-.16.325.256.256 0 0 0 .321.167Zm1.122-.64a.256.256 0 0 1-.16.326.256.256 0 0 1-.321-.168.256.256 0 0 1 .16-.325.256.256 0 0 1 .32.168Zm.802.01a.256.256 0 0 0 .16-.324.256.256 0 0 0-.321-.168.256.256 0 0 0-.16.325.256.256 0 0 0 .32.168Zm-1.124-.994a.256.256 0 0 1-.16.325.256.256 0 0 1-.321-.168.256.256 0 0 1 .16-.325.256.256 0 0 1 .32.168Zm2.086.68a.256.256 0 0 0 .16-.325.256.256 0 0 0-.32-.167.256.256 0 0 0-.16.325.256.256 0 0 0 .32.167Zm.482.66a.256.256 0 0 1-.16.325.256.256 0 0 1-.32-.167.256.256 0 0 1 .16-.325.256.256 0 0 1 .32.167Zm.802.01a.256.256 0 0 0 .16-.324.256.256 0 0 0-.32-.168.256.256 0 0 0-.16.325.256.256 0 0 0 .32.168Zm-.48.975a.256.256 0 0 1-.16.325.256.256 0 0 1-.32-.168.256.256 0 0 1 .16-.325.256.256 0 0 1 .32.168Zm.163 1.31a.256.256 0 0 0 .16-.325.256.256 0 0 0-.321-.167.256.256 0 0 0-.16.325.256.256 0 0 0 .32.167Zm.8-1.625a.256.256 0 0 1-.16.325.256.256 0 0 1-.322-.167.256.256 0 0 1 .16-.325.256.256 0 0 1 .321.168Zm.802.01a.256.256 0 0 0 .16-.324.256.256 0 0 0-.321-.168.256.256 0 0 0-.16.325.256.256 0 0 0 .32.168Zm1.122-.639a.256.256 0 0 1-.16.325.256.256 0 0 1-.321-.168.256.256 0 0 1 .16-.325.256.256 0 0 1 .32.168Zm.162 1.31a.256.256 0 0 0 .16-.325.256.256 0 0 0-.321-.167.256.256 0 0 0-.16.324.256.256 0 0 0 .321.168Zm1.122-.64a.256.256 0 0 1-.16.325.256.256 0 0 1-.32-.167.256.256 0 0 1 .16-.325.256.256 0 0 1 .32.167Zm-2.728-1.015a.256.256 0 0 0 .16-.325.256.256 0 0 0-.321-.168.256.256 0 0 0-.16.325.256.256 0 0 0 .32.168Zm-.158 1.96a.256.256 0 0 1-.16.324.256.256 0 0 1-.321-.167.256.256 0 0 1 .16-.325.256.256 0 0 1 .321.167Zm.802.01a.256.256 0 0 0 .16-.325.256.256 0 0 0-.32-.168.256.256 0 0 0-.16.325.256.256 0 0 0 .32.168Zm.482.66a.256.256 0 0 1-.16.325.256.256 0 0 1-.32-.168.256.256 0 0 1 .16-.325.256.256 0 0 1 .32.168Zm.803.01a.256.256 0 0 0 .16-.325.256.256 0 0 0-.322-.168.256.256 0 0 0-.16.325.256.256 0 0 0 .322.168Zm1.121-.64a.256.256 0 0 1-.16.325.256.256 0 0 1-.32-.168.256.256 0 0 1 .16-.324.256.256 0 0 1 .32.167Zm.803.01a.256.256 0 0 0 .16-.325.256.256 0 0 0-.322-.167.256.256 0 0 0-.16.325.256.256 0 0 0 .322.167Zm-1.442 1.29a.256.256 0 0 1-.16.325.256.256 0 0 1-.322-.168.256.256 0 0 1 .16-.325.256.256 0 0 1 .322.168Zm.802.01a.256.256 0 0 0 .16-.325.256.256 0 0 0-.321-.168.256.256 0 0 0-.16.325.256.256 0 0 0 .32.168Zm.482.66a.256.256 0 0 1-.16.325.256.256 0 0 1-.321-.168.256.256 0 0 1 .16-.325.256.256 0 0 1 .32.168Zm.48-.975a.256.256 0 0 0 .16-.325.256.256 0 0 0-.321-.167.256.256 0 0 0-.16.325.256.256 0 0 0 .321.167Zm-4.011-.05a.256.256 0 0 1-.16.324.256.256 0 0 1-.321-.167.256.256 0 0 1 .16-.325.256.256 0 0 1 .321.167Zm-5.62-3.341a.256.256 0 0 0 .16-.325.256.256 0 0 0-.32-.168.256.256 0 0 0-.16.325.256.256 0 0 0 .32.168Z" fill="#A69558"/><path d="M27.823 14.004c-.66-3.495-.682-3.321.848-5.265.547-.678 1.03-1.256 1.095-1.272.32-.077.147.72-.44 2.017l-.69 1.51.764 2.86c.537 2.013.715 3.02.607 3.382-.103.298-.228 1.419-.153 1.443.053.029 1.61-.348 2.787-.8 1.177-.452 2.891-.806 2.613-1.134-.086-.1-.053-1.202.356-1.888.435-.672 1.037-1.49 1.364-1.799.906-.87 1.043-1.721.513-3.021-.227-.596-.769-1.432-1.206-1.872-.414-.446-.776-.863-.792-.922-.063-.237.433-.168 1.159.161.95.401 2.203 2.199 2.599 3.678.184.69.354.986.615 1.028.417.025 4.157-1.317 4.794-1.744.525-.336.73-1.016.953-3.169l.166-1.594.389 1.796c.467 2.177.312 3.474-.486 4.15-.322.245-1.553.835-2.735 1.267-1.199.457-2.383 1.848-2.518 2.027-.51.648 1.282.506 5.62-.476 3.668-.842 3.946-1.843 5.372-1.788l1.651.043 1.849-2.713c.988-1.498 1.895-2.62 1.97-2.511.223.324-1.033 3.377-2.146 5.178l-.663 1.114-2.11.353c-1-.075-2.072.599-2.072.599-.097.149 4.624.873 6.024.914 1.993.044 3.858-1.338 5.32-2.342 1.543-1.044 1.945-1.161 1.546-.435-.414.75-2.494 2.764-3.378 3.292l-1.882 1.321c1.035-.29 2.714.482 3.79.485 1.947.007 3.36-.616 5.43-1.014l1.193-.224-.89.676c-.514.376-2.619.87-2.593.97.027.098 1.222.644 2.07.838 1.389.337 2.868-.105 4.552-.532 1.765-.467 1.792-.453 1.41-.004-3.364 1.372-4.215 1.336-7.366 1.146-.181-.167-4.369-1.002-3.92-.357 0 0 1.676.96 2.666 2.192l2.782 3.499c1.168 1.182 2.197 2.425 2.908 3.657l-2.908-3.657c-2.357-2.386-5.283-4.525-7.325-5.831-5.575-4.32-11.647-4.49-18.16-2.969-7.478 1.657-15.883 4.31-22.197 7.906-6.514 3.709-9.845 8.641-13.04 16.343l.751-2.488-1.134-.704c-1.045-.588-1.15-.982-.79-2.875.37-1.937.138-2.805-1.002-3.748-.474-.41-.895-.792-.921-.89-.095-.356 1.469.212 2.172.799 1.054.88 1.44 1.983 1.29 3.552-.227 2.133.167 2.54 1.314 1.718.3-.789 2.94-4.948 2.817-5.065-.825-.451-1.768-.298-2.597-.716l-.736-.369-.762-3.449c-.767-3.468-.767-3.468-1.65-4.473-.468-.56-.83-1.06-.78-1.135.203-.343 1.356.135 1.925.817.665.785 1.93 3.818 2.53 6.067.354 1.322.391 1.376 1.021 1.434.353.04 1.222.403 1.81.303.94-.143.732-.828 1.676-1.643 1.614-1.429.602-2.801.786-4.918.206-2.38.81-5.487 1.089-5.554.107-.026.192.122.175.315-.047 1.187.282 6 .477 6.814l.21.957.854-.863c.53-.149 1.471-.628 2.109-1.055l1.182-.555-.355-.981c-.57-1.71-.494-2.023 1.076-4.753.65-1.143 1.168-2.276 1.174-2.508.001-.253-.322-.868-.748-1.353-.404-.49-.691-.967-.664-1.037.177-.274 2.053 1.122 2.387 1.777.45.92.18 2.035-1.122 4.323-.915 1.606-.996 1.898-.806 2.608.38 1.42.47 1.42 3.023.154 3.378-1.675 4.047-1.352 4.28-2.185.12-.49.253-2.666-.166-4.833Z" fill="#000"/><path d="M38.945 19.823c-.255-.13-.837-.585-1.295-.984-.64-.555-1.062-1.296-1.365-1.166-.806.333-8.154 2.832-8.488 3.155-.454.447-.125 1.738.301 2.553l.36.636-.658-.326c-.403-.197-.737-.54-.856-.86-.238-.641-2.116-1.723-3.893-.392-2.042 1.508-1.684 1.78-1.14 2.855.382.75.397.845.09.633-1.441-.991-2.74-1.843-3.812-.727-.649.7-.224.927.361 1.28.212.125.465.417.544.63.205.552.162 2.546-.067 2.932-.175.306-.247.17-.607-1.133-.353-1.285-.45-1.491-.924-1.764l-.814-.676-1.417 1.237-1.714 1.934 1.035 2.253c.578 1.89.355 2.233-.511.791-.334-.565-1.617-1.701-1.685-1.717-.255-.13-2.19 3.36-2.599 4.315l-.462.62 1.522-.017c.483-.034 1.14.01 1.442.103l.57.197-.595.236c-.327.119-1.192.291-1.914.351l-1.307.151-1.519 3.915c.44-6.723 4.721-12.882 11.835-17.273 10.116-4.89 19.505-7.887 27.744-7.718a.373.373 0 0 1 .047-.013c.322-.06 1.264.024 2.198.142 7.511.714 13.98 4.307 19.06 11.824-1.779-2.564-6.214-6.114-6.886-6.253-.153-.026-.512.287-.802.674-.526.696-.88.966-.953.77-.02-.053.074-.633.228-1.274l.269-1.168-.852-.458-.84-.482-.864 1.565c-.91 1.663-1.293 2.024-1.326 1.269-.047-1.073.01-1.417.5-2.544l.503-1.151-1.957-1.29c-.98-.25-2.016-.193-2.132-.172-.091.033-.2 1.261-.631 2.044-.432.783-.845 1.396-.926 1.345-.092-.027-.118-.764-.05-1.637.061-.89 0-2.65-.118-2.688-.178-.073-1.196-.245-2.223-.375a30.259 30.259 0 0 0-2.245-.128c-.468.166-.152 1.178-.23 1.832-.072.915-1.023-.068-1.287-.78-.384-1.031-.943-1.238-3.316-.397l-1.119.354.558 1.374.273 1.012-.58-.617c-.834-.91-1.581-1.605-2.546-1.255-.71.258-.787.327-.579.554.139.151.448.705.7 1.22.43.934.437.951-.036.679Z" fill="#000"/><path fill-rule="evenodd" clip-rule="evenodd" d="M32.484 92.032c.42.518.865 1.523 1.623 3.644l1.045 2.923 1.273.623c1.003.525 1.376.607 1.889.424.475-.17.822-.1 1.618.327l1.016.563.555-.607c.43-.477.664-.604 1.06-.573 1.019.088 1.624-1.098 2.287-4.524.42-2.067.706-2.945 1.067-3.074 1.18-.72.58-1.965-.164-3.333 0 0-2.08.072-2.533-.506-.32-.408.089-2.383.089-2.383L31.065 89.44c.277.949.798 1.798 1.419 2.593Zm8.562-3.943-1.933.713c-1.077.406-2.809.96-3.875 1.277l-1.924.558.344.48c.197.253.792 1.678 1.318 3.15l.975 2.668.605-.109c.522-.1.639-.012.914.579l.317.706.95-.34c.894-.32 1.003-.315 1.384.152l.408.48.376-.868c.424-1.035.824-1.114 1.52-.306l.499.554.398-2.125c.223-1.178.602-2.757.82-3.525.238-.774.374-1.534.32-1.687-.055-.153-.538-.304-1.07-.35-1.055-.076-1.86-.65-2.168-1.51l-.178-.497Z" fill="#000"/><path d="m39.113 88.802 1.933-.713.178.497c.307.86 1.113 1.434 2.169 1.51.531.046 1.014.197 1.069.35.054.153-.082.913-.32 1.687a48.333 48.333 0 0 0-.82 3.525l-.398 2.125-.499-.554c-.696-.808-1.096-.729-1.52.306l-.376.867-.408-.48c-.381-.466-.49-.47-1.384-.151l-.95.34-.317-.706c-.275-.591-.392-.679-.914-.579l-.605.109-.975-2.669c-.526-1.471-1.12-2.896-1.318-3.149l-.344-.48 1.924-.558c1.066-.317 2.798-.871 3.875-1.277Z" fill="#000"/><path d="m38.958 88.078 2.23-.821.204.573c.355.992 1.284 1.654 2.502 1.74.613.055 1.17.229 1.233.405.063.176-.094 1.052-.368 1.946-.252.885-.69 2.707-.946 4.066l-.46 2.45-.575-.639c-.803-.93-1.265-.84-1.753.353l-.435 1-.47-.552c-.44-.539-.565-.544-1.595-.176l-1.097.392-.365-.814c-.318-.681-.453-.782-1.055-.667l-.697.125-1.125-3.078c-.607-1.697-1.293-3.34-1.52-3.632l-.397-.554 2.219-.644c1.23-.365 3.228-1.004 4.47-1.473Z" fill="#6A390C"/><path fill-rule="evenodd" clip-rule="evenodd" d="M43.51 38.678c-3.737 1.599-5.864 4.508-6.032 8.257-.063 1.4.513 4.04 1.223 5.552.762 1.613 1.644 2.643 3.018 3.508 3.099 1.96 7.113 1.787 10.736-.441 3.525-2.161 5.025-5.483 4.434-9.746-.409-2.913-1.68-5.06-3.724-6.312-2.133-1.299-4.181-1.722-7.07-1.43-.873.1-1.608.172-1.62.19 0 0-.437.202-.965.422Zm10.701 3.185c-1.13-1.457-3.608-2.653-5.75-2.754-1.243-.078-4.62.633-5.72 1.178-2.269 1.137-3.811 3.56-4.055 6.4-.103 1.2.446 4.1 1.01 5.292.59 1.234 1.76 2.587 2.79 3.172 1.687.992 3.621 1.247 5.9.778 2.597-.55 4.645-1.833 6.098-3.838 1.276-1.778 1.581-3.005 1.322-5.502-.185-1.907-.783-3.65-1.595-4.726Z" fill="#000"/><path d="M54.28 41.767c-1.128-1.458-3.607-2.653-5.748-2.755-1.244-.078-4.621.633-5.721 1.179-2.27 1.136-3.811 3.559-4.055 6.399-.104 1.201.446 4.101 1.01 5.292.589 1.234 1.76 2.587 2.79 3.172 1.687.992 3.621 1.248 5.9.778 2.597-.55 4.645-1.833 6.098-3.838 1.276-1.778 1.581-3.004 1.322-5.502-.185-1.907-.783-3.649-1.595-4.725Z" fill="#FFE8E8"/><path d="M45.71 46.454c-.5.741-.536.876-.4 1.534.081.398.252.84.382 1.005.57.68 2.609.515 3.226-.282.289-.378.315-.559.17-1.262-.195-.949-.599-1.44-1.461-1.756-.863-.317-1.29-.149-1.916.761Z" fill="#000"/><path fill-rule="evenodd" clip-rule="evenodd" d="M23.48 64.553c1.144-.869 2.39-2.783 2.725-4.138 1.229-4.892-1.667-9.904-6.448-11.136-1.28-.333-1.502-.324-3.443.02-1.598.291-2.338.5-3.302.977L11.8 50.9l-1.309.884c.026.125-.178.764-.453 1.416-1 2.293-1.03 2.69-.367 5.908.589 2.86.589 2.86 1.382 3.814.425.527 1.3 1.428 1.94 2.004 2.693 2.422 7.773 1.765 10.488-.371Zm.108-11.145c-1.186-1.507-2.415-2.409-3.791-2.759-1.022-.255-1.319-.25-3.457.135-2.152.406-2.417.479-3.297 1.089-1.24.851-1.968 1.933-2.325 3.46-.255 1.114-.246 1.336.203 3.516.467 2.27.504 2.356 1.293 3.385 1.623 2.088 4.17 3.054 6.948 2.613 2.764-.42 4.596-1.748 5.507-3.93.568-1.402.601-2.508.145-4.724-.32-1.555-.414-1.74-1.226-2.785Z" fill="#000"/><path fill-rule="evenodd" clip-rule="evenodd" d="M19.638 50.618c1.377.35 2.606 1.252 3.792 2.76.811 1.043.905 1.229 1.226 2.784.456 2.216.423 3.322-.145 4.725-.911 2.18-2.743 3.508-5.508 3.928-2.778.442-5.325-.524-6.947-2.612-.79-1.03-.826-1.115-1.294-3.385-.449-2.18-.457-2.402-.202-3.517.356-1.527 1.083-2.608 2.324-3.46.88-.61 1.145-.683 3.297-1.089 2.139-.384 2.436-.39 3.457-.134Z" fill="#FFE8E8"/><path d="M14.293 56.693c-.81.95-.186 2.442 1.097 2.7 1.085.205 1.874-.219 2.108-1.161.165-.649.139-.774-.19-1.284-.212-.31-.601-.659-.867-.772-.652-.275-1.7-.022-2.148.517Z" fill="#000"/><path d="M42.011 64.424c.406.503 1.459 1.637 2.323 2.5 1.36 1.39 3 3.68 2.807 3.945-.047.04-1.365-1.01-2.974-2.319-2.015-1.674-3.374-2.632-4.48-3.207-.847-.433-1.536-.85-1.49-.891.104-.15 1.931-.751 2.525-.84.491-.077.623.011 1.29.812ZM42.748 70.242l.138 1.572-1.99-1.884a647.22 647.22 0 0 0-3.255-3.08c-.701-.657-1.292-1.26-1.302-1.345-.02-.17.599-.763.82-.79.068-.008 1.046.651 2.16 1.45l.586.422c1.826 1.317 2.417 1.743 2.643 2.312.108.272.134.576.172 1.025l.001.011.027.306ZM49.27 63.168c1.449.706 2.163.896 7.237 2.011 4.931 1.08 4.946 1.2.081.82-2.806-.215-5.087-.648-7.19-1.327-.715-.225-1.87-.6-2.616-.842l-.008-.003-.106-.034-1.347-.425.746.6c.422.347 1.76 1.136 2.974 1.75 2.432 1.26 3.56 2.022 4.458 3.02 1.037 1.152.713 1.33-1.234.649-2.468-.842-6.003-2.8-8.793-4.88l-1.422-1.055 3.096-.39 3.115-.377 1.008.483ZM54.877 62.405c1.997-.05 3.843-.066 4.122-.048.454.049.474.064.22.25-.68.514-9.699.496-9.758.003-.006-.051.402-.1.904-.092.294-.004 1.168-.027 2.254-.055h.016c.694-.019 1.473-.039 2.242-.058Z" fill="#6A390C"/><path fill-rule="evenodd" clip-rule="evenodd" d="M55.26 68.162c-.331-.496-1.246-.886-1.217-.924.03-.038 1.07-.008 2.306.067 3.604.24 5.826.196 6.596-.156.756-.316.998-.743.711-1.26-.204-.408-.911-.685-3.206-1.237-1.298-.31-1.77-.633-1.054-.72.153-.018.694-.55 1.205-1.181.727-1.35-.633-1.755-1.403-1.788l-5.6.146c-5.416.066-12.58.947-15.25 1.874-2.038.712-2.972 1.274-3.057 1.854-.047.472.158 1.45.44 2.072l3.199 2.895c.06.047.635.595 1.375 1.3l.012.011.002.002.6.571c1.015.966 2.042 1.896 2.267 2.041.204.146.308.22.4.207.095-.013.178-.118.345-.331.267-.36.3-.658.216-1.788l-.096-1.37 1.36.976c.74.55 1.706 1.107 2.122 1.264l.792.267.274-.448c.348-.56.327-.73-.37-2.356l-.58-1.363.498.25c1.078.55 7.4 3.821 7.48 1.17a4.37 4.37 0 0 0-.002-.88l-.061-.51s-.147-.42-.304-.655Zm-10.926-1.238c-.864-.863-1.917-1.997-2.323-2.5-.666-.8-.798-.889-1.29-.812-.593.089-2.42.69-2.523.84-.047.04.642.458 1.49.891 1.105.575 2.464 1.533 4.48 3.207 1.608 1.309 2.926 2.359 2.973 2.319.193-.265-1.448-2.555-2.807-3.945Zm12.173-1.745c-5.074-1.115-5.788-1.305-7.238-2.01l-1.008-.484-3.115.376-3.096.39 1.422 1.056c2.79 2.08 6.325 4.038 8.793 4.88 1.947.68 2.271.503 1.234-.65-.898-.997-2.026-1.759-4.458-3.02-1.214-.613-2.552-1.402-2.974-1.748l-.746-.6 1.347.424.106.034.008.003c.745.242 1.9.617 2.617.842 2.102.68 4.383 1.112 7.19 1.326 4.864.38 4.85.262-.082-.819Zm2.492-2.822c-.279-.018-2.125-.003-4.122.048l-2.242.057h-.016c-1.086.03-1.96.052-2.254.056-.502-.009-.91.04-.904.092.06.493 9.077.51 9.758-.003.254-.186.234-.201-.22-.25Zm-16.113 9.457-.138-1.572-.027-.307v-.01c-.039-.45-.064-.754-.173-1.026-.226-.57-.817-.995-2.643-2.312l-.585-.422c-1.115-.799-2.093-1.458-2.161-1.45-.221.027-.84.62-.82.79.01.085.6.688 1.302 1.346a647.22 647.22 0 0 1 3.256 3.079l1.989 1.884Z" fill="#000"/><path d="M33.566 66.289c.16.032.295.154.306.24-.528 1.913-1.676 5.868-2.045 6.372.08-.97.13-1.414.143-1.515.038-1.835-.083-3.271-.287-3.246-.086.01-.497 1.752-.934 3.86-.856 4.214-1.195 5.55-1.45 5.58-.103.013-.275-1.123-.468-3.017-.282-2.902-.268-3.076.081-4.621.518-2.152.82-2.932 1.24-3.172.406-.222 2.987-.585 3.414-.481ZM22.218 70.145c.041.34-1.1 1.756-1.73 2.126-.759.437-2.462.918-2.088.58.185-.178 3.557-2.726 3.766-2.855.017-.002.04.047.052.149ZM25.327 68.716c.041.34-1.715 3.109-2.57 4.04-1.431 1.59-2.34 2.494-2.434 2.436-.038-.03.394-.738.985-1.57.573-.829 1.332-2.129 1.707-2.882.4-.843.855-1.503 1.173-1.73.574-.398 1.11-.532 1.14-.294ZM28.47 67.56c.034.29-1.54 4.555-2.176 5.876-.608 1.264-1.767 2.82-2.912 3.926-1.27 1.207-1.519 1.15-.694-.175 1.128-1.812 3.252-7.111 3.291-8.221.017-.434.15-.761.357-.907.862-.587 2.086-.89 2.133-.499Z" fill="#6A390C"/><path fill-rule="evenodd" clip-rule="evenodd" d="M18.663 71.023c-.047.04-.79.475-1.646.958-2.105 1.17-2.198 1.25-2.141 1.727.074.612.624.736 2.647.613l1.8-.114-.6.608c-.34.335-1.394 1.187-2.363 1.892-.951.702-1.805 1.357-1.863 1.45-.076.079.246.316.72.518.674.299.974.349 1.594.188.79-.182 3.043-1.542 4.138-2.486.359-.32.83-.704 1.055-.852l.398-.273-.308.452c-.16.244-.779 1.13-1.37 1.961-1.168 1.626-1.414 2.157-1.212 2.547.18.341.654.267 2.169-.348 1.58-.64 2.462-1.35 4.204-3.374l1.364-1.58.345 1.857c.339 1.808.362 1.857.867 2.037 1.05.392 1.576.035 2.38-1.6l.526-1.082 3.87-9.154c-.059-.2-.222-.699-.359-1.114-.335-1.065-.711-1.175-2.91-.789-3.097.53-7.127 2.052-10.605 4.009l-1.586.882-1.114 1.067Zm15.209-4.495c-.01-.085-.146-.207-.306-.24-.427-.103-3.008.26-3.413.482-.42.24-.723 1.02-1.24 3.172-.35 1.545-.364 1.719-.082 4.621.193 1.894.365 3.03.467 3.018.256-.031.595-1.367 1.451-5.581.437-2.108.848-3.85.934-3.86.204-.025.325 1.411.288 3.246-.015.101-.064.546-.144 1.515.369-.504 1.517-4.459 2.045-6.373Zm-7.578 6.907c.635-1.32 2.21-5.586 2.175-5.875-.047-.392-1.271-.088-2.133.5-.207.145-.34.472-.357.906-.039 1.11-2.163 6.41-3.291 8.22-.825 1.326-.576 1.383.694.176 1.145-1.105 2.304-2.661 2.912-3.926Zm-3.536-.678c.855-.932 2.61-3.7 2.57-4.04-.03-.24-.566-.105-1.14.292-.318.228-.774.888-1.173 1.73a28.345 28.345 0 0 1-1.707 2.884c-.59.83-1.023 1.54-.985 1.57.093.057 1.003-.847 2.435-2.436Zm-2.27-.486c.63-.37 1.771-1.786 1.73-2.126-.012-.102-.035-.151-.052-.15-.21.13-3.58 2.678-3.767 2.856-.373.338 1.33-.143 2.09-.58Z" fill="#000"/></svg>