<svg width="317" height="301" fill="none" xmlns="http://www.w3.org/2000/svg"><g clip-path="url('#clip0_19_389')"><g clip-path="url('#clip1_19_389')"><path d="M89.411 25.242c-1.537 2.19-1.518 1.996-.75 5.916.485 2.431.631 3.767.52 4.32-.222.936-1.154 1.683-4.61 3.582-2.612 1.435-2.706 1.436-3.133-.157-.213-.796-.136-1.125.771-2.933 1.292-2.576 1.546-3.83 1.058-4.86-.362-.734-2.337-2.291-2.513-1.983-.027.078.281.612.712 1.16.452.544.802 1.233.807 1.516-.001.26-.51 1.535-1.155 2.823-1.56 3.074-1.631 3.425-1 5.342l.488 1.553-1.163.857c-.65.483-1.613 1.025-2.158 1.195l-1.006.293-.24-1.073c-.222-.913-.679-6.316-.658-7.65.012-.217-.08-.382-.19-.352-.285.077-.837 3.568-.993 6.242-.123 2.096-.066 2.484.71 4.15.133.32-.082.661-.94 1.508-.957.92-1.286 1.103-2.256 1.268-.606.115-1.419.167-1.784.123-.654-.062-.694-.123-1.091-1.605-.676-2.522-2.059-5.922-2.766-6.8-.605-.762-1.81-1.293-2.013-.907-.048.084.338.645.836 1.27.938 1.124.938 1.124 1.816 5.015l.871 3.869.77.41c.414.221 1.047.383 1.395.361.37-.028.714.023.798.071.13.132-3.352 3.958-4.317 4.761-1.166.93-1.632.248-1.449-2.149.118-1.762-.308-3-1.42-3.982-.742-.655-2.374-1.285-2.268-.887.03.11.475.537.975.996 1.203 1.053 1.464 2.027 1.127 4.204-.327 2.127-.209 2.569.887 3.224l.9.541-1.364 2.571c-2.376 4.43-3.31 7.195-3.574 10.704-.12 1.574-.039 2.145.934 6.129l1.052 4.366 1.421 1.516 1.421 1.516-.324 1.96c-1.04 6.16.14 12.057 3.068 15.327 1.925 2.164 4.734 3.664 8.16 4.382 4.418.903 7.153.455 10.614-1.777.683-.444 1.379-.843 1.555-.89.286-.077 2.24 2.458 3.019 3.957.527.997.49 1.386-.377 3.35-.276.643-.456 1.379-.385 1.644.237.885 1.523 1.371 4.516 1.707 3.718.403 3.858.484 3.838 2.173-.016.644.141 1.053.579 1.718.426.621.834 1.792 1.492 4.248l.907 3.385 1.375.817c1.08.683 1.492.81 2.086.651.551-.148.934-.037 1.79.516l1.092.727.68-.632c.527-.497.802-.618 1.245-.548 1.138.194 1.928-1.085 2.988-4.879.661-2.287 1.064-3.249 1.482-3.361.683-.183 3.181 2.183 5.324 5.071 2.045 2.701 3.434 5.245 4.253 7.682l.724 2.177-3.288 2.612c-5.878 4.658-7.592 6.54-11.79 12.976-1.443 2.189-3.097 4.648-3.701 5.474-1.565 2.174-4.439 5.363-5.433 6.056-.601.398-2.293 1.041-5.12 1.941-5.911 1.892-6.466 2.112-7.13 2.978-1.071 1.378-1.13 2.128-.465 5.578.325 1.739.897 4.313 1.276 5.729.646 2.412.75 2.621 1.732 3.733.553.658 1.401 1.356 1.837 1.571.724.328 1.028.317 2.525-.084l1.696-.454 1.66 1.002c2.471 1.472 3.59 1.86 4.581 1.594.682-.183 1.088-.078 2.288.525 2.418 1.273 3.619 1.354 5.56.408 1.13-.54 1.246-.548 2.175-.251 2.153.727 4.192.323 6.623-1.348.662-.438 1.203-.797 1.247-.808.132-.036.967 1.495 3.002 5.479 3.817 7.467 6.308 10.949 9.072 12.722 1.455.938 2.454 1.145 3.797.785l.595-.159 1.746 6.693 1.724 6.7-1.36.649c-4.096 1.975-5.867 4.346-6.172 8.317-.054.678-.156 1.441-.263 1.659-.089.285-1.157.879-3.346 1.869-4.097 1.88-5.206 2.675-6.382 4.627-.919 1.503-1.054 1.966-1.538 5.178-.209 1.337-.336 1.655-1.039 2.2-.895.713-1.746 2.293-1.917 3.501-.533 3.913 4.31 8.425 10.535 9.816 1.077.234 2.128.545 2.308.686.263.191.455.732.659 1.934.346 1.994 1.25 3.696 2.272 4.253.414.221 1.145.309 2.017.218 2.159-.223 9.623-1.867 15.194-3.36l5.108-1.368.374.516c.215.274.481.914.617 1.423.408 1.432 1.086 2.555 1.761 2.872.535.236.855.198 2.493-.383 1.665-.565 1.936-.614 2.207-.307.299.323 1.492 3.631 3.772 10.466 1.378 4.089 1.367 3.784.3 6.583-.814 2.068-1.048 3.838-.686 5.188.356 1.327 2.02 3.134 3.96 4.298 1.375.817 1.758.928 2.925.876 2.16-.128 4.692-1.423 6.472-3.323 1.34-1.426 2.494-5.221 2.079-6.77-.551-2.057-2.242-4.142-4.095-5.068l-1.256-.636-1.04-3.088c-1.234-3.725-2.787-9.521-2.775-10.355.002-.522.138-.63 1.045-.944l1.061-.355-1.027-3.306-1.043-3.277 5.496-1.33c3.012-.736 8.375-2.031 11.916-2.909l6.464-1.59.578-1.364c.796-1.873.591-3.431-.974-6.806l-.316-.65 5.307-4.766c2.906-2.628 5.675-5.243 6.128-5.839.974-1.209 1.204-2.29.83-3.684-.32-1.195-1.181-2.031-2.99-2.97-1.585-.808-1.649-.957-1.969-4.618-.199-2.152-.199-2.152-1.495-4.698-1.908-3.686-2.326-4.807-4.675-12.429-2.783-8.977-4.552-16.637-4.321-18.857.173-1.73.95-3.147 2.494-4.605.642-.598 1.242-1.352 1.358-1.715.121-.341.066-1.512-.086-2.609-.431-2.754-.338-3.111 1.073-4.627 3.423-3.692 7.502-14.009 11.052-27.884.474-1.93 1.072-3.75 1.299-4.048.221-.32.997-.86 1.726-1.221 2.275-1.108 2.72-1.914 2.005-3.525-.185-.425-1.946-2.419-3.929-4.449-3.72-3.841-4.987-5.398-7.753-9.471-5.096-7.48-11.012-14.763-16.402-20.172-2.968-2.975-3.573-3.738-3.348-4.13.08-.14 1.656-.776 3.476-1.382 1.82-.606 3.363-1.186 3.444-1.326.45-.785-1.945-2.064-9.03-4.813-10.46-4.074-10.889-4.268-18.466-8.592-8.087-4.64-6.537-3.964-19.005-8.045-4.289-1.389-4.069-1.186-5.452-4.847-2.875-7.648-5.992-13.382-10.073-18.572-1.053-1.378-1.954-2.536-1.971-2.602-.06-.221.823-.363 1.014-.177 1.143 1.093 6.529.148 7.598-1.324.383-.506.355-.523-1.46.011-1.734.489-1.988.51-3.432.137-.884-.213-1.613-.469-1.642-.58-.03-.11.349-.544.873-.968l.904-.764-1.229.258c-4.396.94-6.282.948-7.725.054l-.677-.411.788-.496c.902-.597 3.007-2.869 3.417-3.714.395-.817-.017-.683-1.589.497-1.489 1.134-3.579 1.79-5.643 1.75-1.45-.039-5.957-.657-5.861-.825.032-.056.89-.025 1.926.053l1.855.143.98-1.804c1.108-2.028 2.335-5.463 2.096-5.826-.079-.121-.991 1.143-1.978 2.83l-1.848 3.056-1.71-.04c-1.477-.054-2.354.11-6.131 1.074-4.465 1.126-5.613 1.244-5.101.513.135-.202 1.237-.758 2.466-1.277 1.214-.491 2.474-1.16 2.8-1.438.811-.762.939-2.22.403-4.66l-.445-2.016-.134 1.791c-.178 2.419-.374 3.183-.909 3.564-.65.482-4.488 2.008-4.92 1.982-.272-.046-.455-.376-.662-1.15-.445-1.66-1.786-3.672-2.779-4.117-.759-.366-1.274-.441-1.203-.176.018.066.402.532.843 1.031.462.493 1.043 1.428 1.293 2.096.579 1.457.458 2.415-.46 3.395-.33.35-.933 1.27-1.368 2.027-.406.773-.864 1.441-.996 1.476-.154.042-1.258.503-2.465 1.017-1.208.513-2.257.913-2.313.88-.078-.026-.067-.338.032-.672.104-.408-.105-1.537-.71-3.794l-.86-3.208.678-1.7c.577-1.458.738-2.355.408-2.267-.066.018-.552.67-1.103 1.434Zm10.53 6.095c.118.443-.348.994-.922 1.053-.756.084-.897-.352-.257-.785.77-.561 1.084-.622 1.178-.268Zm-1.976 4.252c.496.531 1.132 1.144 1.418 1.328.526.38.52.358.112-.813-.244-.646-.55-1.346-.697-1.544-.22-.297-.123-.37.736-.6 1.167-.313 1.646-.11 2.53 1.076l.618.807-.216-1.246-.216-1.247 1.106-.272c2.869-.745 4.228-.517 4.572.767.237.885.599.74.779-.351.162-.803.254-.898.895-.975.806-.074 3.936.25 4.322.454.134.06.127.915-.037 1.978-.169 1.041-.214 1.93-.108 1.974.09.07.636-.621 1.223-1.514.587-.892 1.165-1.64 1.275-1.67.138-.013 1.145.31 2.27.72l2.049.78-.706 1.327c-.69 1.3-.794 1.706-.848 3.001-.039.912.446.521 1.684-1.376l1.174-1.784.936.674.951.646-.434 1.373c-.246.754-.416 1.44-.399 1.506.066.243.508-.041 1.197-.819.379-.433.832-.768 1.01-.72.773.242 5.12 6.073 6.943 9.355 1.977 3.502 6.145 13.246 5.86 13.678-.07.09-.662.438-1.331.76-1.606.785-3.36 2.252-3.918 3.255-.541.974-.243.942 1.353-.15 1.355-.932 4.826-1.98 4.956-1.493.208.774-.114 2.567-.603 3.386-.488.819-.729.978-2.743 1.826-2.674 1.12-3.357 1.563-4.423 2.869-2.213 2.75-2.558 6.922-.786 9.838 1.158 1.942 1.171 2.342.171 5.48-1.121 3.477-1.508 5.644-1.299 7.13.145.98.042 1.388-.798 3.011-.885 1.803-1.233 3.058-1.16 4.39.137 2.358-3.182 6.354-8.698 10.512-3.068 2.292-3.6 2.506-5.11 1.891-.657-.251-1.504-.593-1.888-.704-.461-.137-.77-.41-.865-.764-.237-.885-.835-1.531-1.399-1.522-.304.01-1.501.212-2.657.475a55.145 55.145 0 0 1-4.284.744l-2.175.251 3.365-1.091c10.652-3.4 16.202-6.642 18.719-10.897.923-1.575 1.056-2.488.594-4.214-.794-2.965-2.696-5.04-5.54-6.056-.623-.213-1.17-.493-1.2-.604-.03-.11.444-.545 1.039-.966 2.654-1.897 5.225-4.72 6.438-7.06 1.01-1.955.963-2.748-.156-4.37l-.84-1.197.948-2.009c.528-1.113 1.105-2.572 1.275-3.258.312-1.388.128-4.54-.425-6.692-.748-2.882-.716-3.555.246-5.686.468-1.074 1.488-3.078 2.227-4.462l1.343-2.47 1.548-.036c1.714-.032 2.247-.246 2.075-.888-.136-.509-.536-.591-2.766-.634l-1.775-.022-1.034 1.866a257.61 257.61 0 0 0-2.359 4.497l-1.33 2.609-1.045-.906c-.562-.513-1.973-1.463-3.147-2.144-3.477-2.057-7.001-2.44-11.322-1.306-4.404 1.18-7.095 3.466-9.036 7.757-1.352 2.97-1.37 5.37-.148 9.311 1.19 3.736 1.947 4.624 6.515 7.408 1.186.726 1.904 1.292 1.802 1.438-.081.14-1.144 1.018-2.332 1.953l-2.204 1.728-1.141-.12c-1.796-.184-4.017-1.604-5.32-3.389-1.231-1.686-1.709-1.795-1.05-.217.855 2.048 1.911 3.259 3.778 4.324l1.754 1-.926.77-.926.77-2.33-.942c-1.275-.535-3.055-1.101-3.927-1.271-1.948-.403-2.38-.168-3.253 1.773l-.594 1.392-.826-2.553c-.85-2.642-1.728-4.422-2.953-5.825-.927-1.08-3.433-2.684-5.001-3.165-3.95-1.266-9.544.138-12.962 3.235l-.762.679-.66-.44c-1.16-.803-1.169-1.631-.095-3.436 1.707-2.877 3.932-4.611 6.993-5.431 2.443-.655 2.991-.636 3.193.117.154.575.204.585.9.28.676-.3.854-.252 2.083.462.733.444 2.07 1.295 2.988 1.902.896.614 1.599.947 1.551.77-.142-.53-2.286-2.541-4.163-3.911-1.434-1.039-1.733-1.362-1.94-2.136-.349-1.211-1.349-2.39-2.712-3.163l-1.134-.62.188-2.47c.086-1.35.114-2.568.034-2.689-.193-.28-1.243 2.847-1.665 4.881l-.305 1.505 1.5.665c2.274 1.003 3.851 2.572 2.567 2.537-2.871-.06-4.194.199-6.541 1.302-.587.276-.567.175.338-.85 1.35-1.57 1.918-2.53 1.788-3.016-.06-.221-.523-.808-1.052-1.283-1.3-1.24-1.556-2.286-.989-3.956.273-.832.805-1.662 1.5-2.417 1.83-1.89 1.419-2.278-.619-.546-2.881 2.455-3.48 5.414-1.552 7.767.938 1.124 1.007 1.556.394 1.91-.307.177-.838 1.102-1.362 2.404-.466 1.168-1.144 2.512-1.506 3.012-.367.478-.896 1.497-1.199 2.219-.296.743-.628 1.354-.738 1.383-.572.153-1.77-6.782-1.555-8.974.248-2.509 1.45-5.771 3.411-9.285l1.79-3.183 1.548-.035c.852.009 1.885-.102 2.28-.208l.721-.217-.646-.3c-.346-.145-1.112-.272-1.681-.285l-1.034.016.364-.667c.577-1.103 4.197-4.942 4.483-4.758.078.026.387.655.721 1.372.868 1.83 1.165 1.442.68-.894l-.387-1.888 2.023-1.61 2-1.603.59.436c.526.38.62.64.902 2.224.289 1.606.359 1.777.596 1.43.307-.439.563-2.831.379-3.517-.071-.266-.338-.645-.573-.819-.65-.49-.614-.618.218-1.386 1.372-1.222 1.942-1.208 3.531.144.337.29.33.173-.041-.771-.528-1.353-.41-1.527 2.14-3.11 2.22-1.402 2.424-1.433 2.637-.636.107.398.463.848.916 1.13l.739.465-.358-.805c-.416-1.026-.343-1.9.234-2.386.425-.351 5.833-2.891 6.812-3.2.368-.123.703.071 1.397.81ZM111 56.142c3.743-.03 7.46 1.51 9.724 4.058l1.185 1.342-2.923 6-2.929 5.978-3.223 2.5c-3.611 2.818-4.459 3.353-5.349 3.378-1.294.015-4.742-2.286-6.689-4.444-.615-.713-.812-1.182-1.547-3.925-.8-2.987-.826-3.17-.535-4.552.9-4.391 3.316-7.528 7.175-9.416.817-.385 3.607-.895 5.111-.919Zm12.236 9.384c.602 3.657.285 6.611-.93 8.858-.744 1.36-1.235 1.469-2.496.55-1.815-1.316-1.833-1.382-1.154-2.987 1.183-2.807 4.045-8.506 4.203-8.359.027.016.193.897.377 1.938ZM74.827 78.521c2.757-.193 5.366.65 7.3 2.407 1.782 1.633 2.707 3.235 3.466 6.067.344 1.283.576 2.502.507 2.686-.109.385.023.35-7.257 1.186-4.057.447-10.129 1.386-11.538 1.764-1.365.365-1.592.047-1.646-2.358-.064-2.615.747-6.72 1.612-8.162.376-.622 1.092-1.383 1.71-1.81 1.196-.818 3.902-1.638 5.846-1.78Zm71.004-12.599c6.087 1.76 7.841 2.405 11.068 4.054 4.236 2.16 6.14 3.453 7.087 4.788.421.599 2.653 4.174 4.96 7.943a1435.36 1435.36 0 0 0 6.647 10.716c1.355 2.15 2.497 4.12 2.524 4.398.066.599-.698 1.183-3.4 2.547-3.749 1.859-12.251 5.18-15.73 6.112-1.651.443-1.955.453-2.154.15-.541-.874-5.969-13.909-7.988-19.154-1.067-2.75-.504-4.347 2.535-7.271 1.952-1.875 1.719-2.216-.312-.462-1.901 1.624-3.099 3.32-3.377 4.746-.202 1.098-.152 1.37.65 3.834 1.071 3.294 3.917 10.57 6.922 17.732 6.321 15.048 6.577 15.738 6.038 17.78-.451 1.662-2.418 5.153-4.159 7.375-1.693 2.137-5.385 5.972-8.437 8.758-2.411 2.187-2.93 2.54-3.067 2.031-.035-.133-.572-1.696-1.162-3.459-1.841-5.459-4.217-9.66-7.861-13.924-2.44-2.856-4.219-4.561-8.975-8.574-2.168-1.838-4.101-3.502-4.304-3.732-.355-.356-.226-.58 1.512-2.634 2.724-3.22 3.479-4.632 4.069-7.802.598-3.053.792-3.295 4.066-5.168 4.067-2.346 5.151-4.202 4.77-8.178l-.176-1.803 1.681-.332c2.893-.562 4.256-1.022 4.958-1.66 1.763-1.611 2.128-3.51 1.268-6.719-.623-2.323-1.585-3.891-3.477-5.755l-1.105-1.127.249-1.537c.157-.825.242-2.27.231-3.192-.049-1.15.025-1.667.241-1.654.172.026 2.084.557 4.208 1.173Zm-5.851 1.591c-.004.69-.194 1.831-.408 2.529l-.414 1.272 1.891 2.126c2.208 2.515 3.044 4.14 3.271 6.309.193 1.774-.027 2.805-.775 3.622-.879.947-4.267 1.689-6.17 1.369-1.437-.255-3.779-1.335-4.88-2.273-1.909-1.576-2.225-5.309-.679-8.26.823-1.596 1.552-2.218 4.15-3.531 1.206-.608 2.399-1.354 2.675-1.642.586-.631 1.255-2.186 1.125-2.672-.048-.177-.005-.284.085-.213.083.049.149.648.129 1.364Zm-21.143 8.63c2.494 1.822 3.843 3.073 4.003 3.67.184.686-1.132 3.173-2.573 4.84-2.621 3.073-5.936 5.147-10.019 6.288-2.35.654-2.626.68-3.831.41-1.738-.411-6.663-2.411-6.575-2.696.162-.541 16.248-13.34 17.034-13.575.198-.053 1.081.421 1.961 1.063ZM92.84 87.71c3.462 1.207 9.265 3.754 9.388 4.124.166.62-.804 1.14-3.462 1.877-1.409.377-3.097.948-3.727 1.236-2.316 1.047-4.427 1.707-4.675 1.49-.13-.132-.621-1.352-1.127-2.71l-.88-2.492.69-1.3c.375-.716.79-1.633.899-2.018.131-.391.39-.745.588-.798.176-.047 1.215.22 2.306.591Zm-20.628 5.622c9.364-1.513 13.756-1.765 14.757-.847.68.6 1.275 3.523 1.038 5.105-.213 1.408-1.21 3.146-2.478 4.315-.924.865-1.199.986-3.318 1.53-1.944.497-2.584.573-3.997.407-4.444-.469-8.252-2.437-10.2-5.306-.693-1-1.852-3.654-1.731-3.994.089-.285-.496-.176 5.93-1.21Zm64.021-5.368c.306 2.55-.181 4.696-1.362 5.748-.686.61-2.913 1.99-3.463 2.137-.132.035-.319-.223-.408-.555-.344-1.283.084-4.267 1.207-8.528l.523-2.014 1.688 1.018 1.661 1.002.154 1.192Zm-31.129 6.325c.189.97.359 2.133.383 2.577.054.816.054.816-1.097 1.1-1.465.345-1.894.152-2.186-1.026-.399-1.577-.216-2.48.708-3.344.452-.43 1.075-.834 1.361-.91.528-.142.534-.12.831 1.603Zm66.947-16.112c2.774 1.106 7.08 2.821 9.531 3.777 2.472.95 4.857 1.924 5.298 2.161l.821.42-2.504.695-2.488.667-2.073 2.215c-2.274 2.435-3.194 3.227-3.987 3.44-.506.135-.659-.084-2.728-3.49-5.661-9.415-7.127-11.892-7.039-11.915.066-.018 2.389.901 5.169 2.03ZM97.823 97.85l.534 1.992-.804.523c-.443.285-1.953.903-3.36 1.375l-2.534.845-.254-1.474c-.147-.814-.254-1.829-.228-2.262.026-.695.096-.785.933-1.01.506-.135 1.39-.538 1.936-.874.575-.32 1.53-.718 2.13-.855l1.114-.25.533 1.99Zm11.885-4.963c.888-.12 1.732-.227 1.886-.268.221-.059.343.311.589 1.668.167.975.256 1.924.159 2.092-.078.234-.869.541-2.543.99l-2.421.648-.368-1.988c-.519-2.73-.515-2.802.363-2.872a84.95 84.95 0 0 0 2.335-.27Zm5.621-1.126c1.961.802 3.358 1.613 3.477 2.056.059.221-.198.67-.634 1.07-.86.753-4.054 2.747-4.714 2.924-.397.106-.382-.016.083-.923.475-.958.497-1.225.215-2.809-.291-1.7-.27-2.678.104-2.779.089-.023.756.177 1.469.46Zm-14.457 5.58c.796 2.443.88 2.492 3.353 2.209.982-.121 2.022-.115 2.356-.015.389.133 1.256.02 2.737-.354 3.54-.877.893.164-4.674 1.845-5.457 1.652-5.435 1.646-5.034-.382.132-.652.09-1.779-.07-2.637-.434-2.326-.427-2.565.169-2.63.458-.052.538.07 1.163 1.965Zm-11.162 2.992c.194 1.252-.021 1.594-.473.79-.24-.457-.072-2.21.185-2.041.078.026.21.607.288 1.251Zm31.187-4.966c.671.745 1.004 2.34.724 3.671-.607 2.843-4.315 6.089-9.845 8.614-1.826.845-3.498 1.388-8.033 2.603l-5.725 1.534-2.759-.257c-1.523-.137-2.954-.37-3.178-.5-.385-.205-.377-.349-.048-1.149.615-1.493 2.108-3.055 3.724-3.891.817-.385 4.037-1.579 7.198-2.64 10.144-3.358 13.863-5.066 16.402-7.478 1.055-.994 1.077-1 1.54-.507Zm-23.025 7.071c.096.092.077.287-.015.383-.293.316-4.502 2.748-4.943 2.866-.308.082-1.103-.772-1.257-1.347-.09-.332 5.906-2.175 6.215-1.902Zm87.272-10.01c5.653 5.599 10.249 11.126 16.112 19.443 4.029 5.703 4.917 6.816 7.815 9.881 2.531 2.666 4.703 5.048 4.751 5.225.095.354-1.111.962-4.505 2.298-6.233 2.453-6.742 2.755-12.785 7.504-2.241 1.763-4.278 3.233-4.532 3.254-.342.044-.691-.289-1.374-1.339-1.102-1.65-1.663-2.068-2.477-1.85-.683.183-1.477 1.534-2.162 3.733-.859 2.696-.58 2.503-6.477 4.273l-5.205 1.537-1.609-.281c-.887-.141-2.75-.401-4.169-.59-1.414-.166-2.624-.459-2.716-.624-.091-.165.063-.823.323-1.438.614-1.493 1.948-2.68 6.793-6.088 2.086-1.461 4.504-3.27 5.392-4.006 4.107-3.52 5.813-7.368 5.042-11.477-.356-1.944-1.153-3.865-3.968-9.703-1.649-3.423-2.157-4.615-2.082-5.038.081-.401.505-.847 1.473-1.462 1.825-1.2 2.712-2.031 2.97-2.74.454-1.213-.677-3.85-3.354-7.852l-1.155-1.754 1.227-.968a22.558 22.558 0 0 0 2.215-2.04c.532-.57 1.015-1.055 1.081-1.073.066-.017 1.579 1.403 3.376 3.175ZM106.887 113.8l2.24-.624.154.575c.267.996 1.12 1.715 2.301 1.897.594.102 1.123.316 1.171.493.047.177-.175 1.019-.514 1.868a54.903 54.903 0 0 0-1.247 3.891l-.643 2.354-.51-.669c-.709-.972-1.167-.921-1.738.205l-.503.941-.414-.577c-.387-.561-.508-.575-1.543-.298l-1.101.295-.291-.823c-.256-.69-.38-.8-.976-.735l-.69.067-.852-3.092c-.457-1.704-.995-3.361-1.194-3.664l-.342-.572 2.215-.451c1.229-.258 3.228-.723 4.477-1.081Zm15.448.057c1.164.732 5.574 4.246 5.651 4.533.024.089-1.758.661-3.982 1.257l-4.029 1.079-1.755-1.972c-.971-1.068-1.768-2.016-1.785-2.082-.071-.266 3.777-3.076 4.542-3.304.192-.075.799.165 1.358.489Zm57.347-13.895c.175.214.445.781.576 1.268.314 1.173-.162 1.775-2.623 3.335-2.488 1.544-4.467 2.525-7.533 3.678-3.109 1.166-10.682 3.55-10.928 3.427-.105-.043-.433-.738-.741-1.533l-.545-1.419 1.153-.451c.643-.244 2.94-1.096 5.138-1.875 5.209-1.87 9.249-3.616 11.985-5.203 2.699-1.553 3.067-1.676 3.518-1.227Zm-47.785 21.839c3.827 3.717 8.73 10.3 9.323 12.512.272 1.018.236 1.146-.896 3.086-1.893 3.329-6.685 8.43-12.243 13.05-4.8 4.013-6.185 4.835-11.607 6.88l-3.103 1.188-.442.995c-.233.537-1.105 2.217-1.879 3.729-2.558 4.811-2.796 6.298-1.44 8.543 1.277 2.124 2.352 3.14 4.688 4.459 3.335 1.881 3.816 2.179 4.474 2.785 1.513 1.42.826 2.553-2.155 3.494-1.671.543-1.925.564-2.622.252-1.121-.482-3.539-2.727-6.199-5.785-2.457-2.827-3.537-4.482-3.988-6.164-.273-1.018-.76-1.693-.97-1.329-.199.314.961 4.201 1.538 5.208.28.518 1.628 2.291 2.958 3.998 1.347 1.678 2.582 3.292 2.753 3.578.28.518.264.546-.837.841-1.321.354-2.136.217-3.384-.564-2.175-1.338-3.351-3.347-4.851-8.328-.623-2.062-1.217-3.752-1.305-3.728-.088.023-.19.88-.226 1.886-.066 2.223.485 4.542 1.706 7.25.461 1.015.804 1.942.739 2.054-.199.315-4.727-2.408-5.68-3.41-.598-.646-1.09-1.51-1.627-2.813-.92-2.29-1.112-3.709-.67-4.966.42-1.251.239-1.487-.494-.698-1.145 1.185-1.117 1.817.1 6.186 1.046 3.728 1.1 3.927.703 4.033-.66.177-2.101-.623-2.842-1.538-.606-.763-.699-1.023-.923-2.741-.113-1.037-.658-3.334-1.182-5.114l-.943-3.257.756-1.317.772-1.345 4.668-1.251c4.557-1.221 4.727-1.29 6.285-2.348 2.83-1.944 4.769-4.218 8.756-10.385 5.065-7.783 5.921-8.724 13.547-14.965l3.134-2.57-.362-1.35c-.468-1.748-1.874-4.881-3.232-7.22-.605-1.024-1.114-1.954-1.156-2.109-.106-.399.558-.648 4.621-1.689l3.749-.981 1.988 1.958Zm43.871-13.108c.759.983 4.009 7.653 5.031 10.32 1.259 3.29 1.49 4.77 1.06 6.687-.76 3.239-3.235 5.894-9.626 10.31-4.977 3.444-6.288 4.625-7.493 6.822-.573 1.031-1.661 2.697-2.428 3.709-1.853 2.418-2.373 3.387-2.656 5.146-.353 2.205.208 3.596 2.883 7.148 1.145 1.543 2.088 2.95 2.069 3.145-.043.367-.968.876-2.289 1.23l-.925.248-1.727-2.217c-1.653-2.118-3.744-5.518-4.028-6.58-.208-.775-.622-.735-.574.059.042 1.127 1.252 3.529 3.31 6.63l1.905 2.881-.705.188c-1.101.295-3 .164-4.187-.301-1.893-.725-2.966-2.264-4.672-6.692-1.422-3.721-1.88-3.053-.753 1.151.68 2.45.825 2.814 2.224 4.953 1.387 2.094 1.502 2.348 1.255 2.746-.22.415-.364.406-1.647.109-1.866-.448-3.618-1.615-5.29-3.538-1.259-1.441-1.762-2.35-3.302-5.897l-.215-.536-.13.747c-.188 1.236.278 3.15 1.082 4.476.393.677 1.554 2.192 2.588 3.409 1.413 1.661 1.817 2.288 1.654 2.473-.13.13-.877.425-1.626.626-1.277.342-1.493.329-2.153-.111-1.04-.622-3.218-3.027-5.167-5.634-1.763-2.35-2.841-4.172-3.577-6.038-1.35-3.456.291-5.959 6.511-9.783 4.256-2.611 6.096-3.934 8.791-6.292 4.101-3.541 6.422-6.416 11.28-14.002.947-1.487 2.624-3.857 3.721-5.313 2.259-2.929 2.661-3.629 2.754-4.603.138-1.246-.032-1.177-1.091.506-.607.993-1.733 2.338-2.778 3.282l-1.741 1.604-.285-1.062c-.16-.597-.868-2.447-1.579-4.129-.716-1.706-1.251-3.175-1.187-3.287.081-.14 2.543-.989 5.458-1.913 2.936-.929 5.899-1.936 6.602-2.219a25.405 25.405 0 0 1 2.209-.829c.874-.258.98-.216 1.444.371Zm-32.876 29.749c.22.557.606 1.995.838 3.214.423 2.02.416 2.259.022 2.46-4.659 2.339-7.317 4.308-8.941 6.616-1.056 1.517-1.687 1.804-6.289 3.037l-2.774.744 4.051-3.552c5.81-5.09 9.789-9.263 11.58-12.09.462-.741.894-1.331.954-1.371.088-.023.323.412.559.942Zm65.683-4.89c-1.958 8.279-5.98 20.218-8.169 24.29-.493.891-1.588 2.441-2.455 3.432-.861 1.014-1.67 2.132-1.808 2.5-.25.826-.164 3.174.21 4.568l.278 1.04-1.089.956c-2.107 1.821-3.284 4.65-3.075 7.369.062.671 1.212 5.58 2.563 10.885 1.971 7.796 2.726 10.439 3.913 13.725 1.071 2.938 1.437 4.216 1.343 4.573-.101.501-.255.542-3.929 1.361-3.581.817-3.927.933-5.344 1.811-2.264 1.413-4.134 2.009-5.483 1.73-.593-.102-3.002-1.164-5.374-2.354-4.219-2.095-4.82-2.313-7.43-2.633-1.292-.152-1.32-.168-2.694-1.863l-1.403-1.711 1.084-2.472c.601-1.37 1.256-3.064 1.47-3.761.443-1.518.679-4.688.418-5.661-.095-.354-.101-.732-.009-.828.07-.09 1.212.031 2.483.283 3.663.726 3.945.722 4.833-.014 3.249-2.673 11.11-15.166 12.067-19.169l.288-1.215-1.531-1.748c-3.489-3.95-7.155-6.098-12.828-7.542l-1.723-.44-1.559-5.818c-.853-3.186-1.57-6.125-1.599-6.496l-.045-.699 1.461.082c2.674.114 11.009-2.333 12.747-3.771.251-.209.809-1.473 1.205-2.813.424-1.323.858-2.435.968-2.464.374-.101.808.376 1.411 1.566.321.673.815 1.37 1.112 1.599.527.381.549.375 1.747-.35.673-.393 2.961-2.073 5.11-3.74 5.487-4.268 7.827-5.749 10.436-6.496l1.006-.293-.606 2.581ZM133.48 154.22c.136.154.161 1.57.106 3.126-.192 4.391.721 7.798 2.597 9.69.969.974 1.898 1.27 3.5 1.173 1.188-.057 1.294-.015 1.616.658.981 1.99 6.884 20.849 7.434 23.784.427 2.21.348 2.705-.419 3.101-.329.183-3.37 1.163-6.797 2.2l-6.215 1.903-1.349-.896c-1.651-1.051-3.608-3.159-4.997-5.348-.569-.891-2.05-3.601-3.282-5.997-1.26-2.414-3.396-6.157-4.763-8.352-4.198-6.772-4.462-7.317-5.972-12.248-1.292-4.207-1.351-4.428-1.136-5.387.401-1.673.568-1.931 1.677-2.37.983-.382 10.477-3.258 15.546-4.687 1.815-.534 2.295-.592 2.454-.35Zm31.233-6.116c1.318 1.663 3.091 5.195 3.722 7.374.848 2.903.729 3.338-3.572 12.387-4.103 8.64-5.179 11.228-5.607 13.596-.358 1.922-.067 3.006 2.432 9.427 3.715 9.462 5.209 12.571 7.24 15.133.889 1.114 1.078 1.466.958 1.901-.128.58-1.712 1.977-3.86 3.382-.744.484-1.604 1.236-1.895 1.646-.292.41-.989 2.21-1.593 4.008-1.216 3.74-1.596 4.435-2.714 5.019-1.216.658-1.76.566-2.141-.327-.847-1.931-5.327-15.742-6.722-20.774l-1.022-3.639.399-1.15.4-1.151-1.511-5.903c-.822-3.242-2.121-7.826-2.887-10.158-.789-2.326-1.796-5.471-2.293-6.974l-.874-2.73.905.469c.491.248 1.498 1.187 2.227 2.059 1.492 1.782 2.933 2.842 4.198 3.073 2.33.419 10.773-3.124 11.834-4.974.306-.532.275-.737-.227-2.168-.436-1.187-.516-1.664-.355-1.944.106-.218.992-.788 1.946-1.28.953-.493 1.987-1.126 2.292-1.397.489-.463.51-.563.167-1.491-.221-.558-1.249-2.108-2.297-3.464-1.579-2.019-2.029-2.728-2.439-3.994-.556-1.724-.508-2.425.329-4.143.491-.985 1.717-2.665 2.025-2.748.088-.024.505.387.935.935Zm3.143-1.127c.822.16 1.695.424 1.93.598.375.255.704 1.305 2.044 6.305.883 3.297 1.678 6.617 1.786 7.371l.157 1.381-2.537 4.355c-1.734 2.954-2.636 4.785-2.846 5.671-.301 1.433-.261 3.959.13 5.419.243.908.243.908-.64 1.31-1.328.593-3.663 2.357-5.336 4.039-.821.812-1.517 1.473-1.561 1.485-.198.053-.407-1.432-.348-2.444.157-2.319 1.173-4.868 5.461-13.7 5.297-10.88 5.394-11.926 1.698-18.5a107.518 107.518 0 0 0-1.764-3.061c-.369-.494.089-.546 1.826-.229Zm-55.517 17.817c1.245 3.768 2.364 6.623 3.286 8.391.636 1.229 1.087 2.294 1.017 2.384-.277.287-2.23-.66-3.197-1.539-2.345-2.146-3.335-3.991-3.04-5.707.199-1.286 1.173-3.373 1.613-3.491.177-.047.315-.06.321-.038Zm24.772-2.749c.864 1.286 1.873 2.676 2.24 3.075.88.998.878 1.164.019 1.394-.99.266-2.262-.342-2.855-1.321-.485-.843-1.82-5.56-1.643-5.868.161-.28.472.087 2.239 2.72Zm20.941 3.827c.892.069 1.652.174 1.708.206.229.152 1.13 2.899 1.019 3.189-.173.497-3.622 2.157-6.838 3.279l-2.802.988-1.308-.74c-1.335-.757-2.25-1.793-2.174-2.477.019-.195.452-.69.96-1.087a31.56 31.56 0 0 0 1.548-1.268c.581-.559.631-.549 1.262-.22.335.195.997.373 1.407.405.719.045.884-.047 1.833-1.084.57-.603 1.224-1.157 1.416-1.233.198-.053 1.1-.034 1.969.042Zm21.817-2.242c1.141.382 2.679 1.014 3.416 1.385l1.333.663-1.443 3.683c-2.27 5.706-2.693 7.74-2.627 12.655l.036 1.982-1.532-1.225c-2.009-1.596-4.36-2.887-6.664-3.645-2.085-.651-2.328-.941-2.646-2.919-.406-2.571.306-4.493 3.943-10.471.736-1.217 1.388-2.482 1.421-2.8l.062-.562 1.299.269c.721.139 2.256.581 3.402.985Zm9.106 6.595c.173.381.327.956.344 1.283.01.828-1.373 3.593-4.261 8.493-2.302 3.913-2.513 4.183-2.727 3.648-.417-1.027-.361-4.694.119-7.217.429-2.273 1.961-6.596 3.047-8.619l.429-.778 1.35 1.251c.753.699 1.533 1.581 1.699 1.939Zm-16.979 10.431c2.274.386 8.023 4.229 8.391 5.601.148.553-.459 1.545-1.763 2.843-.961.993-.751.984-4.802-.041-1.472-.388-4.074-.853-5.804-1.053-3.53-.406-5.423-.776-5.771-1.11-.569-.535 2.73-4.075 5.117-5.473 1.346-.788 2.907-1.04 4.632-.767Zm-5.956 8.686c1.574.147 3.031.302 3.247.316.322.056.415.315.634 1.75.281 1.751.142 3.875-.398 5.822-.296 1.099-1.418 3.605-1.69 3.82-.197.148-.991-1.584-3.114-6.777-1.927-4.725-2.044-5.073-1.736-5.155.11-.03 1.484.076 3.057.224Zm-17.835 9c.187.258 1.073 2.771 1.97 5.59 4.376 13.601 5.709 17.607 5.973 18.153.258.523.216.63-.754 1.411-.562.459-2.042 1.804-3.276 3.012-1.239 1.186-2.405 2.21-2.603 2.263-.968.259-2.043-1.374-3.707-5.647-1.75-4.416-3.259-8.991-5.352-16.185l-1.892-6.535 4.667-1.251c4.624-1.239 4.668-1.251 4.974-.811Zm-7.052 17.801c.173.12.579.841.919 1.58.853 1.953 3.367 8.868 3.292 9.03-.054.062-1.209-.198-2.588-.587-1.378-.39-3.593-.816-4.928-.956-2.261-.248-3.09-.524-3.238-1.077-.113-.42.389-2.95.766-3.834.82-2.045 4.779-4.885 5.777-4.156Zm34.018-7.431c.723.233 2.313.969 3.513 1.572 1.206.625 3.544 1.777 5.189 2.546 3.798 1.757 5.041 2.609 5.296 3.561.314 1.172.046 1.932-1.092 3.233-2.33 2.664-3.509 2.315-12.655-3.723-3.442-2.279-5.708-3.427-6.994-3.557-.897-.091-.781-.36.65-1.36a49.018 49.018 0 0 0 2.21-1.706c1.247-1.069 2.107-1.205 3.883-.566Zm-7.995 5.035c.919.086 2.236.42 2.933.732 2.638 1.214 8.638 5.463 10.218 7.221.434.477.964 1.307 1.194 1.815.808 1.87-.464 3.112-2.69 2.641-1.155-.259-4.163-1.445-8.684-3.435-1.873-.826-4.124-1.741-5.003-2.027-.901-.28-1.648-.602-1.684-.735-.118-.442 1.668-6.28 1.954-6.357.044-.011.836.037 1.762.145Zm31.545-4.421c3.422-.704 3.472-.693 3.893.877.189.708.415 2.166.495 3.259.081 1.093.167 2.208.194 2.485.081 1.093-.853 2.363-3.471 4.748-1.448 1.289-3.561 3.088-4.69 3.984-5.028 3.956-17.663 11.491-17.883 10.672-.029-.11.305-.888.726-1.783.976-1.993 1.105-2.833.649-4.537-.321-1.195-.318-1.361.064-1.345 3.547.116 5.292-1.561 4.539-4.37l-.237-.885 1.387.244c.744.133 1.712.135 2.13.023 1.827-.49 4.514-3.937 4.402-5.59-.091-1.043-.578-1.98-1.565-3.02-.428-.454-.773-.86-.757-.888.039-.034.525-.33 1.078-.644.575-.32 1.615-.931 2.349-1.365a8.183 8.183 0 0 1 2.779-1.076c.81-.146 2.579-.502 3.918-.789Zm-61.843 17.282c2.203.121 5.069.776 7.08 1.589 1.715.678 4.055 1.925 4.114 2.146.024.088-.552.931-1.271 1.858-1.125 1.44-1.976 3.02-2.672 4.913-.141.441-.251.471-2.34.604-1.9.129-8.112.371-15.552.61-3.134.105-3.134.105-2.941-2.081.363-4.105 1.649-5.825 5.838-7.801 2.72-1.298 5.606-1.977 7.744-1.838Zm28.256-4.275c.862.22 1.846.548 2.22.709l.675.317-.592-.007c-.918.009-4.905-.867-5.158-1.108-.417-.41 1.227-.352 2.855.089Zm-4.82 1.647c2.097.078 9.807 1.641 12.35 2.501 2.31.78 4.014 1.77 4.472 2.596.765 1.36.201 3.218-1.749 5.804l-.978 1.281-1.637.32c-1.637.32-2.185.301-14.612-.637-4.287-.322-7.159-.121-10.528.781l-2.097.539 1.101-1.789c1.665-2.77 6.373-7.921 9.254-10.116 1.347-1.048 2.464-1.371 4.424-1.28Zm-27.478 15.639c6.108-.19 11.184-.27 11.308-.161.123.109.522 1.07.867 2.092.35 1.044 1.041 2.566 1.537 3.358 1.352 2.318 1.378 2.239-.544 2.992-.923.342-3.541 1.138-5.853 1.758-6.104 1.612-8.708 1.669-12.411.266-3.386-1.274-6.296-3.506-7.196-5.541-.53-1.186-.067-4.037.704-4.244.286-.077 5.508-.314 11.588-.52Zm73.377-21.179c2.054 1.062 2.351 2.524.914 4.379-1.774 2.277-12.106 11.449-15.673 13.898-2.229 1.546-8.026 4.57-10.104 5.269-1.512.523-1.694.548-1.927.208-.125-.204-.918-1.225-1.776-2.228-1.295-1.573-1.478-1.904-1.267-2.174.14-.18 1.154-.712 2.213-1.162 7.093-2.944 19.814-11.83 24.837-17.302.634-.716 1.298-1.32 1.43-1.356.155-.041.778.171 1.353.468Zm-54.914 19.101c2.993-.541 3.491-.532 12.088.199 3.069.269 6.662.468 8.006.464 2.842-.05 3.335.031 3.478.562.053.199.824 1.226 1.71 2.245.871 1.047 1.568 1.975 1.498 2.065-.274.476-2.258 1.174-7.74 2.643l-6.055 1.622-5.485-.214c-7.344-.285-8.913-.505-9.86-1.484-.789-.832-2.209-3.226-2.926-4.931-.791-1.898-.387-2.149 5.286-3.171Zm44.671-1.583c.495.175 1.278 1.602 1.349 2.484.053.46.046 1.316-.016 1.878l-.097 1.045-6.326 1.577c-3.475.86-9.157 2.287-12.609 3.141l-6.261 1.559 1.079 3.41 1.101 3.405-2.985.657c-1.647.371-4.627 1.05-6.655 1.499-2.021.47-3.922.861-4.204.865l-.564.009-1.05-4.271c-.612-2.374-1.052-4.366-1.004-4.45.049-.084 1.016-.083 2.168-.012 3.555.233 6.494-.246 12.513-2.001 7.989-2.331 14.584-5.283 20.159-8.959l.173-.115c2.775-1.837 2.819-1.867 3.229-1.721Zm-45.252 12.623c1.234-.236 2.869-.389 3.626-.379l1.356.04.623 2.323.616 2.301-.704.189c-4.498 1.181-17.106 4.062-18.518 4.25-2.197.257-2.83.095-3.463-.945-.62-.996-.841-2.786-.417-3.232.375-.361 13.595-3.951 16.881-4.547Zm21.011 8.314c.223.13 3.82 10.999 4.801 14.483.053.199.316.389.598.385.792.048 2.323.919 3.113 1.751 1.094 1.177 1.686 3.65 1.302 5.389-.534 2.586-2.185 4-5.685 4.938l-2.202.59-1.044-.55c-1.501-.76-3.082-2.518-3.425-3.801-.321-1.195-.145-2.214.748-4.516.903-2.353.918-2.475.284-4.843-.587-2.19-3.367-10.362-4.036-11.89l-.363-.827 2.804-.633c1.559-.347 2.965-.557 3.105-.476ZM82.416 55.145c-.243.327-1.088 1.929-1.883 3.54-.79 1.635-1.847 3.412-2.357 3.976-1.188 1.29-2.849 2.138-4.4 2.246-.63.026-1.149.118-1.125.207.16.597 2.662 1.04 4.833.862 1.248-.097 1.688-.215 2.876-.889 1.358-.743 1.964-1.214 7.783-6.093 2.773-2.332 4.751-3.668 6.513-4.401.533-.214 1.074-.572 1.159-.785.282-.62-.877-.453-3.338.491-2.669 1.048-3.559 1.69-8.649 6.207-2.073 1.86-3.85 3.332-3.934 3.283-.062-.055.159-.73.537-1.52.761-1.65 2.767-6.669 2.925-7.399.155-.658-.352-.522-.94.276Zm21.653-4.876c-3.644 1.545-6.744 5.127-7.46 8.615-.423 2.034-.052 2.361.63.59 1.247-3.18 3.203-5.483 5.843-6.901 1.649-.893 5.237-1.854 7.287-1.953 3.377-.17 7.599 1.497 10.857 4.323 1.917 1.692 2.062 1.179.229-.82-1.574-1.736-5.947-4.406-7.868-4.792-3.097-.64-6.614-.291-9.518.938Zm-39.67 13.285c-.559.648-1.216 1.63-1.427 2.161l-.381.956.675.933c1.264 1.725 1.248 1.753.33 3.256-1.006 1.62-1.011 1.954.025 1.416.865-.47 2.312-2.73 2.291-3.602.005-.333-.22-.819-.518-1.142-.768-.838-.81-1.348-.22-3.023.93-2.692.794-2.846-.775-.955Zm47.803 2.273c-.41.228-.808 2.09-.613 2.82.072.266.5.72.947.98 1.14.643 2.175.365 2.983-.847.775-1.156.752-1.862-.062-2.52-.972-.808-2.297-.998-3.255-.433ZM73.124 85.285c-.647.933-.605 2.06.129 2.859.299.323.763.649 1.02.723 1.582.358 3.223-1.267 2.814-2.794-.249-.93-1.185-1.603-2.275-1.62-1.156.002-1.095-.038-1.688.832Zm61.385-8.599c-.543.525-1.128 1.251-1.265 1.62-.957 2.414 1.502 5.075 4.558 4.944 1.188-.057 1.386-.11 2.006-.703.979-.927 1.152-2.396.515-4.241-.285-.8-.744-1.721-1.065-2.038-1.146-1.282-3.078-1.097-4.749.418Zm3.532.5c.74.822 1.362 2.529 1.21 3.28-.303 1.339-1.878 1.713-3.443.805-1.481-.86-1.566-2.237-.242-3.635.885-.925 1.877-1.096 2.475-.45Z" fill="#000"/><path d="M198.721 209.326c3.422-.704 3.472-.693 3.893.878.189.708.415 2.165.495 3.258.081 1.093.167 2.208.194 2.485.081 1.093-.853 2.363-3.471 4.748-1.448 1.289-3.561 3.088-4.69 3.984-5.028 3.956-17.663 11.491-17.883 10.672-.029-.11.305-.888.726-1.783.976-1.993 1.105-2.833.649-4.537-.321-1.195-.318-1.361.064-1.345 3.547.116 5.292-1.561 4.539-4.37l-.237-.885 1.387.244c.744.133 1.712.135 2.13.023 1.827-.49 4.514-3.937 4.402-5.59-.091-1.043-.578-1.98-1.565-3.02-.428-.454-.773-.86-.757-.888.039-.034.525-.33 1.078-.644.575-.32 1.615-.931 2.349-1.365a8.183 8.183 0 0 1 2.779-1.076c.81-.146 2.579-.502 3.918-.789Z" fill="#000"/><path d="m97.823 97.851.534 1.992-.804.523c-.443.285-1.953.903-3.36 1.375l-2.535.845-.253-1.474c-.147-.814-.254-1.829-.228-2.262.026-.695.096-.785.933-1.01.506-.135 1.39-.537 1.936-.874.575-.32 1.53-.718 2.13-.855l1.114-.25.533 1.99ZM105.104 94.288c.189.97.359 2.133.383 2.577.054.816.054.816-1.097 1.1-1.465.345-1.894.152-2.187-1.026-.398-1.577-.216-2.48.709-3.344.451-.43 1.075-.834 1.361-.91.528-.142.534-.12.831 1.603ZM109.708 92.888c.888-.12 1.732-.227 1.886-.268.221-.059.343.311.589 1.668.167.975.256 1.924.159 2.092-.078.234-.869.541-2.543.99l-2.421.648-.368-1.988c-.519-2.73-.515-2.802.363-2.872.414-.04 1.468-.156 2.335-.27ZM97.872 102.439c.096.092.077.287-.015.383-.293.316-4.502 2.748-4.943 2.866-.308.082-1.103-.772-1.257-1.347-.09-.332 5.906-2.175 6.215-1.902Z" fill="#FEFFBB"/><path d="m106.887 113.801 2.24-.624.154.575c.267.996 1.12 1.715 2.301 1.897.594.102 1.123.315 1.171.492.047.177-.175 1.02-.514 1.869a54.903 54.903 0 0 0-1.247 3.891l-.643 2.354-.51-.669c-.709-.972-1.167-.921-1.738.205l-.503.941-.414-.577c-.387-.561-.508-.575-1.543-.298l-1.101.295-.291-.823c-.256-.69-.38-.8-.976-.735l-.69.067-.852-3.092c-.457-1.704-.995-3.361-1.194-3.664l-.342-.572 2.215-.451c1.229-.259 3.228-.723 4.477-1.081Z" fill="#545151"/><path d="M138.041 77.186c.74.822 1.362 2.529 1.21 3.28-.303 1.339-1.878 1.713-3.443.805-1.481-.86-1.566-2.237-.242-3.635.885-.924 1.877-1.096 2.475-.45ZM136.233 87.963c.306 2.55-.181 4.696-1.362 5.748-.686.61-2.913 1.99-3.463 2.137-.132.035-.319-.223-.408-.555-.344-1.283.084-4.267 1.207-8.528l.523-2.014 1.688 1.018 1.661 1.002.154 1.192Z" fill="#9FA05C"/><path d="M179.682 99.963c.175.214.445.781.576 1.268.314 1.173-.162 1.775-2.623 3.335-2.488 1.544-4.467 2.525-7.533 3.678-3.109 1.166-10.682 3.55-10.928 3.427-.105-.043-.433-.738-.741-1.533l-.545-1.419 1.153-.451c.643-.244 2.94-1.096 5.138-1.875 5.209-1.87 9.249-3.616 11.985-5.203 2.699-1.553 3.067-1.676 3.518-1.227Z" fill="#fff"/><path d="M206.213 218.44c2.054 1.062 2.351 2.524.914 4.379-1.774 2.277-12.106 11.449-15.673 13.898-2.229 1.546-8.026 4.57-10.104 5.269-1.512.523-1.694.548-1.927.208-.125-.204-.918-1.224-1.776-2.227-1.295-1.574-1.478-1.905-1.267-2.175.14-.18 1.154-.712 2.213-1.162 7.093-2.944 19.814-11.83 24.837-17.302.634-.716 1.298-1.32 1.43-1.356.155-.041.778.171 1.353.468ZM151.299 237.541c2.993-.541 3.491-.532 12.088.199 3.069.269 6.662.468 8.006.464 2.842-.05 3.335.031 3.478.562.053.199.824 1.226 1.71 2.245.871 1.047 1.568 1.975 1.498 2.065-.274.476-2.258 1.174-7.74 2.643l-6.055 1.622-5.485-.214c-7.344-.285-8.913-.505-9.86-1.484-.789-.832-2.209-3.226-2.926-4.931-.791-1.898-.387-2.149 5.286-3.171ZM132.836 239.619c6.108-.19 11.184-.27 11.308-.161.123.109.522 1.07.867 2.092.35 1.044 1.041 2.566 1.537 3.358 1.352 2.318 1.378 2.239-.544 2.992-.923.342-3.541 1.138-5.853 1.758-6.104 1.612-8.708 1.669-12.411.266-3.386-1.274-6.297-3.506-7.196-5.541-.53-1.186-.067-4.037.704-4.244.286-.077 5.508-.314 11.588-.52Z" fill="#BABABA"/><path d="M175.171 208.712c.723.233 2.313.969 3.513 1.572 1.206.625 3.544 1.777 5.189 2.546 3.798 1.757 5.041 2.609 5.296 3.561.314 1.172.046 1.932-1.092 3.233-2.33 2.664-3.509 2.315-12.655-3.723-3.442-2.279-5.708-3.427-6.994-3.557-.897-.091-.781-.36.651-1.36a49.537 49.537 0 0 0 2.209-1.706c1.247-1.069 2.107-1.205 3.883-.566ZM167.176 213.747c.919.086 2.236.42 2.933.732 2.638 1.214 8.638 5.463 10.218 7.221.434.477.964 1.307 1.194 1.815.808 1.87-.464 3.112-2.69 2.641-1.155-.259-4.163-1.445-8.684-3.435-1.873-.826-4.124-1.741-5.003-2.027-.901-.28-1.648-.602-1.684-.735-.118-.442 1.668-6.28 1.954-6.357.045-.011.836.037 1.762.145ZM160.314 223.98c2.097.078 9.807 1.641 12.35 2.501 2.31.78 4.014 1.77 4.472 2.596.765 1.36.201 3.218-1.749 5.804l-.978 1.281-1.637.32c-1.637.32-2.184.301-14.612-.637-4.287-.322-7.159-.121-10.528.781l-2.097.539 1.101-1.789c1.665-2.77 6.373-7.921 9.254-10.116 1.347-1.048 2.464-1.371 4.424-1.28ZM141.153 216.143c.173.12.579.841.919 1.58.853 1.953 3.367 8.868 3.292 9.03-.054.062-1.209-.198-2.588-.587-1.378-.39-3.593-.816-4.928-.956-2.261-.248-3.09-.524-3.238-1.077-.113-.42.389-2.95.766-3.834.821-2.045 4.779-4.885 5.777-4.156ZM136.878 226.608c2.203.121 5.069.776 7.08 1.589 1.715.678 4.055 1.925 4.114 2.146.024.088-.552.931-1.271 1.858-1.125 1.44-1.976 3.02-2.672 4.913-.141.442-.251.471-2.34.604-1.9.129-8.112.371-15.552.61-3.134.105-3.134.105-2.941-2.081.363-4.105 1.649-5.825 5.838-7.801 2.72-1.298 5.606-1.977 7.744-1.838ZM165.134 222.333c.862.22 1.847.548 2.22.709l.675.317-.592-.007c-.918.009-4.905-.867-5.158-1.108-.417-.41 1.227-.352 2.855.089Z" fill="#313E4A"/><path fill-rule="evenodd" clip-rule="evenodd" d="M111 56.142c3.743-.03 7.46 1.51 9.724 4.058l1.185 1.342-2.923 6-2.929 5.979-3.223 2.5c-3.611 2.817-4.459 3.352-5.349 3.377-1.294.015-4.742-2.286-6.689-4.444-.615-.713-.812-1.182-1.547-3.925-.8-2.987-.826-3.17-.535-4.552.9-4.39 3.316-7.528 7.175-9.416.817-.385 3.607-.895 5.111-.919Zm.589 12.505c-.195-.73.203-2.591.613-2.82.958-.565 2.283-.375 3.255.432.813.66.837 1.365.062 2.521-.808 1.212-1.843 1.49-2.983.846-.447-.26-.875-.713-.947-.979ZM74.827 78.521c2.757-.193 5.366.65 7.3 2.407 1.782 1.633 2.707 3.235 3.466 6.067.344 1.283.576 2.502.507 2.686-.109.385.023.35-7.257 1.186-4.057.447-10.13 1.386-11.538 1.764-1.365.365-1.592.047-1.646-2.357-.064-2.616.747-6.722 1.612-8.163.376-.622 1.092-1.383 1.71-1.81 1.196-.818 3.902-1.638 5.846-1.78Zm-1.574 9.623c-.734-.8-.776-1.926-.13-2.859.594-.87.533-.83 1.69-.831 1.09.016 2.025.69 2.274 1.62.409 1.526-1.232 3.151-2.815 2.793-.256-.074-.72-.4-1.02-.723Z" fill="#FFE8E8"/><path d="M123.236 65.526c.602 3.657.285 6.611-.93 8.858-.744 1.361-1.235 1.469-2.496.55-1.815-1.316-1.833-1.382-1.154-2.987 1.183-2.807 4.045-8.506 4.203-8.359.027.016.193.897.377 1.938Z" fill="#FFE8E8"/><path d="M72.212 93.331c9.364-1.513 13.756-1.765 14.757-.847.68.6 1.275 3.523 1.038 5.105-.213 1.408-1.21 3.146-2.478 4.315-.924.865-1.199.986-3.318 1.53-1.944.497-2.584.573-3.997.407-4.444-.469-8.251-2.437-10.2-5.306-.693-1-1.852-3.654-1.731-3.994.089-.285-.496-.176 5.93-1.21ZM118.837 76.143c2.494 1.822 3.843 3.073 4.003 3.67.184.686-1.132 3.173-2.573 4.84-2.621 3.073-5.936 5.147-10.019 6.288-2.35.654-2.626.68-3.831.41-1.738-.411-6.663-2.412-6.575-2.696.162-.541 16.248-13.34 17.034-13.575.198-.053 1.081.421 1.961 1.063Z" fill="#D7DFF4"/><path d="M115.329 91.762c1.961.802 3.358 1.613 3.477 2.056.059.221-.198.67-.634 1.07-.86.753-4.054 2.747-4.714 2.924-.397.106-.382-.016.083-.923.475-.958.497-1.225.215-2.809-.291-1.7-.27-2.678.104-2.779.088-.023.756.177 1.469.46ZM100.872 97.343c.796 2.442.88 2.49 3.353 2.208.982-.121 2.022-.115 2.356-.015.389.133 1.256.02 2.737-.354 3.54-.877.893.164-4.674 1.845-5.457 1.652-5.435 1.646-5.034-.382.132-.652.09-1.779-.07-2.637-.434-2.326-.427-2.565.169-2.63.458-.052.537.07 1.163 1.965ZM97.872 102.439c.096.092.077.287-.015.383-.293.316-4.502 2.748-4.943 2.866-.308.082-1.103-.772-1.257-1.347-.09-.332 5.906-2.175 6.215-1.902Z" fill="#571621"/><path d="M120.897 95.368c.671.745 1.004 2.34.724 3.671-.607 2.843-4.315 6.089-9.845 8.614-1.826.845-3.498 1.388-8.033 2.603l-5.725 1.534-2.759-.257c-1.523-.137-2.954-.37-3.178-.5-.385-.205-.377-.349-.048-1.149.615-1.492 2.108-3.054 3.724-3.891.817-.385 4.037-1.579 7.198-2.64 10.144-3.358 13.863-5.066 16.402-7.477 1.055-.995 1.077-1 1.54-.508Z" fill="#A2060F"/><path d="M175.768 108.695c.759.982 4.009 7.652 5.031 10.319 1.259 3.29 1.49 4.77 1.06 6.687-.76 3.239-3.235 5.894-9.626 10.31-4.977 3.444-6.288 4.625-7.493 6.822-.573 1.031-1.661 2.697-2.428 3.709-1.853 2.418-2.373 3.387-2.656 5.146-.353 2.205.208 3.596 2.883 7.148 1.145 1.543 2.088 2.95 2.069 3.145-.043.367-.968.876-2.289 1.23l-.925.248-1.727-2.217c-1.653-2.118-3.744-5.518-4.028-6.58-.208-.775-.622-.735-.574.059.042 1.127 1.252 3.529 3.31 6.63l1.904 2.881-.704.188c-1.101.295-3 .164-4.187-.301-1.893-.725-2.966-2.264-4.672-6.692-1.422-3.721-1.88-3.053-.753 1.151.68 2.45.825 2.814 2.224 4.953 1.387 2.094 1.502 2.348 1.255 2.746-.22.415-.364.406-1.647.109-1.866-.448-3.618-1.615-5.29-3.538-1.259-1.441-1.762-2.35-3.302-5.897l-.215-.536-.13.747c-.188 1.236.278 3.15 1.081 4.476.394.677 1.555 2.192 2.589 3.409 1.413 1.661 1.817 2.288 1.654 2.474-.13.129-.877.424-1.626.625-1.277.342-1.493.329-2.153-.111-1.04-.622-3.218-3.027-5.168-5.634-1.762-2.35-2.84-4.172-3.576-6.038-1.351-3.456.291-5.958 6.511-9.783 4.256-2.611 6.096-3.934 8.791-6.292 4.101-3.541 6.422-6.416 11.28-14.002.947-1.486 2.624-3.857 3.721-5.313 2.259-2.929 2.661-3.629 2.754-4.603.138-1.246-.032-1.177-1.091.506-.607.993-1.734 2.338-2.778 3.282l-1.741 1.605-.285-1.062c-.16-.598-.868-2.447-1.579-4.13-.716-1.706-1.251-3.175-1.187-3.287.081-.14 2.543-.989 5.458-1.913 2.936-.929 5.899-1.936 6.602-2.219a25.405 25.405 0 0 1 2.209-.829c.874-.258.98-.216 1.444.372ZM131.897 121.802c3.827 3.717 8.73 10.3 9.323 12.512.272 1.018.236 1.146-.896 3.086-1.893 3.329-6.685 8.431-12.243 13.05-4.8 4.013-6.185 4.835-11.607 6.881l-3.103 1.187-.442.995c-.233.537-1.105 2.217-1.879 3.729-2.558 4.811-2.796 6.298-1.44 8.543 1.277 2.124 2.352 3.14 4.688 4.459 3.335 1.881 3.816 2.179 4.474 2.785 1.513 1.42.826 2.553-2.155 3.494-1.671.543-1.925.564-2.622.252-1.121-.482-3.539-2.727-6.199-5.785-2.457-2.827-3.537-4.482-3.988-6.164-.273-1.017-.76-1.693-.97-1.329-.199.314.961 4.201 1.538 5.208.28.518 1.628 2.291 2.958 3.998 1.347 1.678 2.582 3.292 2.753 3.578.28.518.264.546-.837.841-1.321.354-2.136.217-3.384-.564-2.175-1.338-3.351-3.346-4.851-8.328-.623-2.062-1.218-3.752-1.305-3.728-.089.023-.19.88-.227 1.886-.065 2.223.486 4.542 1.707 7.25.461 1.015.804 1.942.739 2.054-.199.315-4.728-2.408-5.68-3.41-.598-.646-1.09-1.51-1.627-2.813-.92-2.29-1.112-3.709-.67-4.966.42-1.251.239-1.487-.494-.698-1.145 1.185-1.117 1.817.1 6.186 1.046 3.728 1.1 3.927.703 4.033-.66.177-2.101-.622-2.842-1.538-.606-.763-.699-1.023-.923-2.741-.113-1.037-.658-3.333-1.182-5.114l-.943-3.257.756-1.317.772-1.345 4.668-1.251c4.557-1.221 4.727-1.29 6.285-2.348 2.829-1.944 4.769-4.218 8.756-10.385 5.064-7.783 5.921-8.724 13.547-14.965l3.134-2.57-.362-1.35c-.468-1.748-1.874-4.881-3.233-7.22-.604-1.024-1.113-1.954-1.155-2.109-.106-.399.558-.648 4.621-1.689l3.749-.981 1.988 1.958ZM179.869 163.63c1.141.382 2.679 1.014 3.416 1.385l1.333.663-1.443 3.683c-2.27 5.706-2.693 7.74-2.627 12.655l.036 1.982-1.532-1.225c-2.009-1.596-4.36-2.887-6.664-3.645-2.085-.651-2.328-.941-2.646-2.919-.406-2.571.306-4.493 3.943-10.471.736-1.217 1.388-2.482 1.421-2.8l.062-.562 1.299.269c.721.139 2.256.581 3.402.985Z" fill="#1FE4FF"/><path fill-rule="evenodd" clip-rule="evenodd" d="M97.965 35.59c.496.53 1.132 1.143 1.417 1.327.527.38.521.358.113-.813-.244-.646-.55-1.346-.697-1.544-.22-.297-.123-.37.736-.6 1.167-.313 1.646-.11 2.53 1.076l.618.807-.216-1.246-.216-1.247 1.106-.272c2.869-.745 4.228-.516 4.572.767.237.885.599.74.779-.351.162-.803.254-.898.895-.975.806-.074 3.936.25 4.322.454.134.06.127.915-.037 1.978-.169 1.041-.214 1.93-.108 1.974.09.07.636-.621 1.223-1.514.587-.892 1.165-1.64 1.275-1.67.138-.013 1.145.31 2.269.72l2.05.78-.706 1.327c-.691 1.3-.794 1.706-.848 3.002-.039.911.446.52 1.684-1.377l1.174-1.784.936.674.951.646-.434 1.373c-.246.754-.416 1.44-.399 1.506.066.243.508-.041 1.197-.819.379-.433.832-.768 1.01-.72.773.242 5.12 6.073 6.943 9.355 1.977 3.502 6.145 13.246 5.86 13.678-.071.09-.662.438-1.331.76-1.606.785-3.36 2.252-3.918 3.255-.541.974-.243.942 1.353-.15 1.355-.931 4.826-1.98 4.956-1.493.208.774-.114 2.568-.603 3.386-.488.819-.729.978-2.743 1.826-2.674 1.12-3.357 1.563-4.423 2.869-2.213 2.75-2.558 6.922-.786 9.838 1.158 1.942 1.171 2.342.171 5.48-1.121 3.477-1.508 5.644-1.299 7.13.145.98.041 1.388-.798 3.011-.885 1.803-1.233 3.058-1.16 4.39.137 2.358-3.182 6.354-8.698 10.512-3.068 2.292-3.6 2.506-5.11 1.891-.657-.251-1.504-.593-1.888-.704-.461-.137-.77-.41-.865-.764-.237-.885-.835-1.531-1.399-1.522-.304.01-1.501.212-2.657.475a55.145 55.145 0 0 1-4.284.744l-2.175.251 3.365-1.091c10.652-3.4 16.202-6.642 18.719-10.897.923-1.575 1.056-2.488.594-4.214-.794-2.965-2.696-5.04-5.54-6.056-.623-.213-1.17-.493-1.2-.604-.03-.11.444-.545 1.039-.966 2.654-1.897 5.225-4.72 6.438-7.06 1.01-1.955.963-2.748-.156-4.37l-.84-1.197.948-2.009c.528-1.113 1.104-2.572 1.275-3.258.312-1.388.128-4.54-.425-6.692-.748-2.882-.716-3.555.246-5.686.468-1.074 1.488-3.078 2.227-4.462l1.343-2.47 1.548-.036c1.714-.032 2.247-.246 2.075-.888-.136-.509-.536-.591-2.766-.634l-1.775-.022-1.034 1.866a257.933 257.933 0 0 0-2.359 4.497l-1.33 2.609-1.045-.906c-.562-.513-1.973-1.463-3.147-2.144-3.477-2.056-7.001-2.44-11.322-1.306-4.404 1.18-7.095 3.466-9.036 7.757-1.352 2.97-1.37 5.37-.148 9.311 1.19 3.736 1.947 4.624 6.515 7.408 1.186.726 1.904 1.292 1.802 1.438-.081.14-1.144 1.018-2.332 1.953l-2.204 1.728-1.141-.12c-1.796-.184-4.017-1.604-5.32-3.389-1.231-1.686-1.709-1.795-1.05-.217.855 2.048 1.911 3.259 3.778 4.324l1.754 1-.926.77-.926.77-2.33-.942c-1.275-.535-3.055-1.101-3.927-1.271-1.948-.403-2.38-.168-3.253 1.773l-.594 1.392-.826-2.553c-.85-2.642-1.728-4.422-2.953-5.825-.927-1.08-3.433-2.684-5.001-3.165-3.95-1.266-9.544.138-12.962 3.235l-.762.679-.66-.44c-1.16-.803-1.169-1.63-.095-3.436 1.707-2.877 3.932-4.611 6.993-5.431 2.443-.655 2.991-.636 3.193.117.154.575.204.585.9.28.676-.3.854-.252 2.083.462.733.444 2.07 1.295 2.988 1.902.896.614 1.599.947 1.551.77-.142-.53-2.286-2.541-4.163-3.911-1.434-1.039-1.733-1.362-1.94-2.136-.349-1.211-1.349-2.39-2.712-3.163l-1.134-.62.188-2.47c.086-1.35.114-2.568.034-2.689-.193-.28-1.243 2.847-1.665 4.881l-.305 1.505 1.5.665c2.274 1.003 3.851 2.572 2.567 2.537-2.871-.06-4.194.199-6.541 1.302-.587.276-.567.176.338-.85 1.35-1.57 1.918-2.53 1.788-3.016-.06-.221-.523-.808-1.052-1.283-1.3-1.24-1.556-2.286-.989-3.956.273-.832.805-1.662 1.5-2.417 1.83-1.89 1.419-2.278-.619-.546-2.881 2.455-3.48 5.414-1.552 7.767.938 1.124 1.007 1.556.393 1.91-.306.177-.837 1.102-1.361 2.404-.466 1.168-1.144 2.512-1.506 3.012-.367.478-.896 1.497-1.199 2.219-.296.743-.628 1.354-.738 1.383-.572.153-1.77-6.782-1.555-8.974.248-2.509 1.45-5.771 3.411-9.285l1.79-3.183 1.548-.035c.852.009 1.885-.102 2.28-.208l.721-.217-.646-.3c-.346-.145-1.112-.272-1.681-.285l-1.034.016.364-.667c.577-1.103 4.197-4.942 4.483-4.758.078.026.387.655.721 1.372.868 1.83 1.165 1.442.68-.894l-.387-1.888 2.023-1.61 2-1.602.59.435c.526.38.62.64.902 2.224.289 1.606.359 1.777.596 1.43.307-.439.563-2.831.379-3.517-.071-.266-.338-.645-.573-.819-.65-.49-.614-.618.218-1.386 1.372-1.222 1.942-1.208 3.531.144.337.29.33.173-.041-.771-.528-1.353-.41-1.527 2.14-3.11 2.22-1.402 2.424-1.433 2.637-.636.107.398.463.848.916 1.13l.739.466-.358-.806c-.416-1.026-.343-1.9.234-2.386.425-.351 5.833-2.891 6.812-3.2.368-.123.703.071 1.397.81ZM80.532 58.685c.796-1.612 1.64-3.214 1.884-3.54.588-.798 1.095-.934.94-.276-.158.73-2.164 5.75-2.925 7.4-.379.79-.599 1.465-.537 1.52.084.048 1.86-1.424 3.934-3.284 5.09-4.518 5.98-5.16 8.65-6.206 2.46-.944 3.619-1.113 3.337-.492-.085.213-.626.571-1.159.785-1.762.733-3.74 2.07-6.513 4.401-5.82 4.88-6.425 5.35-7.783 6.093-1.188.674-1.628.792-2.877.89-2.17.178-4.672-.266-4.832-.864-.024-.088.494-.18 1.124-.206 1.552-.108 3.213-.956 4.401-2.246.51-.564 1.567-2.341 2.356-3.975Zm16.076.198c.717-3.489 3.817-7.07 7.461-8.615 2.904-1.229 6.421-1.578 9.518-.938 1.921.386 6.294 3.056 7.868 4.792 1.833 1.999 1.688 2.512-.229.82-3.258-2.826-7.48-4.493-10.857-4.323-2.05.099-5.638 1.06-7.287 1.953-2.64 1.418-4.596 3.72-5.844 6.9-.681 1.772-1.052 1.445-.63-.59Zm-33.636 6.831c.211-.53.868-1.513 1.426-2.16 1.57-1.892 1.706-1.738.775.954-.589 1.675-.547 2.186.22 3.023.3.323.524.809.519 1.142.021.872-1.426 3.133-2.291 3.602-1.036.538-1.031.205-.026-1.416.919-1.503.935-1.531-.33-3.255l-.674-.934.38-.956Z" fill="#1FE4FF"/><path fill-rule="evenodd" clip-rule="evenodd" d="M139.98 67.514c-.004.688-.194 1.83-.408 2.528l-.414 1.273 1.891 2.125c2.208 2.515 3.044 4.14 3.271 6.309.193 1.774-.027 2.805-.775 3.622-.879.947-4.267 1.689-6.17 1.369-1.437-.255-3.779-1.335-4.88-2.273-1.909-1.576-2.225-5.309-.68-8.26.824-1.596 1.553-2.218 4.151-3.531 1.206-.608 2.399-1.354 2.675-1.642.586-.631 1.255-2.186 1.125-2.672-.048-.177-.005-.284.085-.213.083.049.149.648.129 1.365Zm-6.736 10.792c.137-.369.722-1.095 1.265-1.62 1.671-1.514 3.603-1.7 4.749-.418.321.317.78 1.237 1.065 2.038.636 1.845.464 3.314-.515 4.24-.62.593-.818.647-2.006.704-3.056.131-5.515-2.53-4.558-4.944Z" fill="#1FE4FF"/><path d="M92.84 87.71c3.462 1.206 9.265 3.753 9.388 4.124.166.62-.804 1.14-3.462 1.876-1.409.377-3.097.948-3.727 1.236-2.316 1.047-4.427 1.707-4.675 1.49-.13-.132-.621-1.352-1.127-2.71l-.88-2.492.69-1.3c.375-.716.79-1.633.899-2.018.13-.391.39-.745.588-.798.176-.047 1.215.22 2.306.591Z" fill="#1FE4FF"/><path d="M133.48 154.22c.136.154.161 1.57.106 3.126-.192 4.391.721 7.798 2.597 9.69.969.974 1.898 1.27 3.5 1.173 1.188-.057 1.294-.015 1.616.658.981 1.99 6.884 20.849 7.434 23.784.427 2.21.348 2.705-.419 3.101-.329.183-3.37 1.163-6.797 2.2l-6.215 1.903-1.349-.896c-1.651-1.051-3.608-3.159-4.997-5.348-.569-.891-2.05-3.6-3.282-5.997-1.26-2.413-3.396-6.157-4.763-8.352-4.198-6.772-4.462-7.317-5.972-12.248-1.292-4.207-1.351-4.428-1.136-5.387.401-1.673.568-1.931 1.677-2.37.983-.382 10.477-3.258 15.546-4.687 1.815-.534 2.295-.592 2.454-.35ZM148.205 198.342c.187.258 1.073 2.771 1.97 5.59 4.376 13.601 5.709 17.607 5.973 18.153.258.523.216.63-.754 1.411-.562.459-2.042 1.804-3.276 3.012-1.239 1.186-2.405 2.21-2.603 2.263-.968.259-2.043-1.374-3.707-5.647-1.75-4.416-3.259-8.991-5.352-16.185l-1.892-6.535 4.667-1.251c4.624-1.239 4.668-1.251 4.974-.811Z" fill="#E43D19"/><path d="M137.111 162.045c.864 1.286 1.873 2.676 2.24 3.075.88.998.878 1.164.019 1.394-.99.266-2.262-.342-2.855-1.321-.485-.843-1.82-5.56-1.643-5.868.161-.28.472.087 2.239 2.72ZM112.339 164.794c1.245 3.768 2.364 6.623 3.286 8.391.636 1.229 1.087 2.294 1.017 2.384-.277.287-2.23-.66-3.197-1.539-2.345-2.146-3.335-3.991-3.04-5.707.199-1.286 1.173-3.373 1.613-3.491.177-.047.315-.06.321-.038Z" fill="#E43D19"/><path d="M150.718 248.581c1.234-.236 2.869-.389 3.626-.379l1.356.04.623 2.323.616 2.301-.704.189c-4.498 1.181-17.106 4.062-18.518 4.25-2.197.257-2.83.095-3.463-.945-.62-.996-.841-2.786-.417-3.232.375-.361 13.595-3.951 16.881-4.547ZM195.97 235.958c.495.176 1.278 1.602 1.349 2.484.053.46.046 1.316-.016 1.878l-.097 1.045-6.326 1.577c-3.475.86-9.157 2.287-12.609 3.141l-6.261 1.559 1.079 3.41 1.101 3.405-2.985.657c-1.647.371-4.627 1.051-6.655 1.499-2.021.47-3.922.861-4.204.866l-.564.008-1.05-4.271c-.612-2.373-1.052-4.366-1.004-4.45.049-.084 1.016-.083 2.168-.012 3.555.233 6.494-.246 12.513-2.001 7.989-2.33 14.584-5.283 20.159-8.959l.173-.115c2.775-1.837 2.819-1.867 3.229-1.721Z" fill="#9385B9"/><path d="M164.713 148.104c1.318 1.663 3.091 5.195 3.722 7.374.848 2.903.729 3.338-3.572 12.387-4.103 8.64-5.179 11.228-5.607 13.596-.358 1.922-.067 3.006 2.432 9.426 3.715 9.463 5.209 12.572 7.24 15.134.889 1.114 1.078 1.466.958 1.901-.128.58-1.712 1.977-3.86 3.382-.744.484-1.604 1.236-1.895 1.646-.292.41-.989 2.21-1.593 4.008-1.216 3.74-1.596 4.435-2.714 5.019-1.216.658-1.76.566-2.141-.327-.847-1.931-5.326-15.742-6.722-20.774l-1.022-3.639.399-1.15.4-1.151-1.511-5.903c-.821-3.242-2.121-7.826-2.887-10.158-.789-2.326-1.796-5.471-2.293-6.974l-.874-2.73.905.469c.491.248 1.498 1.187 2.227 2.059 1.492 1.782 2.933 2.842 4.198 3.073 2.33.419 10.773-3.124 11.834-4.974.306-.532.275-.737-.227-2.168-.436-1.187-.516-1.664-.355-1.944.106-.218.992-.788 1.946-1.28.953-.493 1.987-1.126 2.292-1.397.489-.463.51-.563.167-1.491-.221-.558-1.249-2.108-2.297-3.464-1.579-2.019-2.029-2.728-2.439-3.994-.556-1.724-.508-2.425.329-4.143.492-.985 1.717-2.665 2.025-2.748.088-.024.505.387.935.935Z" fill="#F2E8E2"/><path d="M171.729 256.895c.223.13 3.82 10.999 4.801 14.483.053.199.316.389.598.385.792.048 2.323.919 3.113 1.751 1.094 1.177 1.686 3.65 1.302 5.389-.534 2.586-2.185 4-5.685 4.938l-2.202.59-1.044-.55c-1.501-.76-3.082-2.518-3.425-3.801-.321-1.195-.145-2.214.748-4.516.903-2.353.918-2.475.284-4.843-.587-2.19-3.367-10.362-4.036-11.89l-.363-.827 2.804-.633c1.559-.346 2.965-.557 3.105-.476Z" fill="url('#paint0_linear_19_389')"/><path d="M208.575 133.553c-1.958 8.279-5.98 20.218-8.169 24.29-.493.891-1.588 2.441-2.455 3.432-.861 1.014-1.67 2.132-1.808 2.5-.25.826-.164 3.175.21 4.568l.278 1.04-1.089.956c-2.107 1.822-3.284 4.651-3.075 7.369.062.671 1.212 5.58 2.563 10.885 1.971 7.796 2.726 10.439 3.913 13.725 1.071 2.938 1.437 4.216 1.343 4.573-.101.501-.255.542-3.929 1.361-3.581.817-3.927.934-5.344 1.811-2.264 1.413-4.134 2.009-5.483 1.73-.593-.102-3.002-1.164-5.374-2.354-4.218-2.095-4.82-2.313-7.43-2.633-1.292-.152-1.32-.168-2.694-1.863l-1.403-1.711 1.084-2.472c.601-1.37 1.256-3.064 1.47-3.761.443-1.518.679-4.688.418-5.661-.094-.354-.101-.732-.009-.828.07-.09 1.212.031 2.483.284 3.663.725 3.945.721 4.833-.015 3.249-2.673 11.11-15.166 12.067-19.169l.288-1.215-1.531-1.748c-3.489-3.95-7.155-6.098-12.828-7.542l-1.723-.439-1.559-5.819c-.853-3.186-1.57-6.124-1.599-6.496l-.045-.699 1.461.082c2.674.114 11.009-2.333 12.747-3.771.251-.209.809-1.473 1.205-2.813.424-1.323.858-2.435.968-2.464.374-.101.808.376 1.411 1.566.321.673.815 1.37 1.112 1.599.527.381.549.375 1.747-.349.673-.394 2.961-2.074 5.11-3.741 5.487-4.268 7.827-5.749 10.436-6.495l1.006-.294-.606 2.581Z" fill="#757575"/><path d="M188.975 170.225c.173.381.327.956.344 1.283.01.828-1.373 3.593-4.261 8.493-2.302 3.913-2.513 4.183-2.727 3.648-.417-1.027-.361-4.694.119-7.217.429-2.273 1.961-6.596 3.047-8.618l.429-.779 1.35 1.251c.753.699 1.533 1.581 1.699 1.939ZM171.996 180.656c2.274.386 8.023 4.229 8.391 5.601.148.553-.459 1.545-1.763 2.843-.961.993-.751.984-4.802-.041-1.472-.388-4.074-.853-5.804-1.053-3.53-.406-5.423-.776-5.771-1.11-.569-.535 2.73-4.075 5.117-5.473 1.346-.788 2.907-1.04 4.632-.767Z" fill="#413A3A"/><path d="M145.831 65.922c6.087 1.76 7.841 2.405 11.068 4.054 4.236 2.16 6.14 3.453 7.087 4.788.421.599 2.653 4.174 4.96 7.943a1435.36 1435.36 0 0 0 6.647 10.716c1.355 2.15 2.497 4.12 2.524 4.398.066.599-.698 1.183-3.4 2.547-3.749 1.859-12.251 5.18-15.73 6.112-1.651.443-1.955.453-2.154.15-.541-.874-5.969-13.909-7.988-19.154-1.067-2.75-.504-4.347 2.535-7.271 1.952-1.875 1.719-2.216-.312-.462-1.901 1.624-3.099 3.32-3.377 4.746-.202 1.098-.152 1.37.65 3.834 1.071 3.293 3.917 10.57 6.922 17.732 6.321 15.048 6.577 15.738 6.038 17.78-.451 1.662-2.418 5.153-4.159 7.375-1.693 2.137-5.385 5.972-8.437 8.758-2.411 2.187-2.93 2.54-3.067 2.031-.035-.133-.572-1.696-1.162-3.459-1.841-5.459-4.217-9.66-7.861-13.924-2.44-2.856-4.219-4.561-8.975-8.574-2.168-1.838-4.101-3.502-4.304-3.732-.355-.356-.226-.58 1.512-2.635 2.724-3.219 3.479-4.631 4.069-7.801.598-3.053.792-3.295 4.066-5.168 4.067-2.346 5.151-4.202 4.77-8.178l-.176-1.803 1.681-.332c2.893-.562 4.256-1.022 4.958-1.66 1.763-1.611 2.128-3.51 1.268-6.719-.623-2.323-1.585-3.891-3.477-5.755l-1.105-1.127.249-1.537c.157-.825.242-2.27.231-3.192-.049-1.15.025-1.667.241-1.654.172.026 2.084.557 4.208 1.173ZM172.051 78.175c2.774 1.107 7.08 2.822 9.531 3.778 2.472.95 4.857 1.924 5.298 2.161l.821.42-2.504.695-2.488.667-2.073 2.215c-2.274 2.435-3.194 3.227-3.987 3.44-.506.135-.659-.084-2.728-3.49-5.661-9.415-7.127-11.892-7.039-11.915.066-.018 2.389.901 5.169 2.03Z" fill="#252525"/><path d="M185.144 92.429c5.653 5.599 10.249 11.126 16.112 19.443 4.029 5.703 4.917 6.816 7.815 9.881 2.531 2.666 4.703 5.048 4.751 5.225.095.354-1.111.961-4.505 2.298-6.233 2.452-6.742 2.755-12.785 7.504-2.241 1.763-4.278 3.233-4.532 3.254-.342.044-.691-.289-1.374-1.339-1.102-1.65-1.663-2.068-2.477-1.85-.683.183-1.477 1.534-2.162 3.733-.859 2.696-.58 2.503-6.477 4.273l-5.205 1.537-1.609-.281c-.887-.141-2.75-.401-4.169-.59-1.414-.167-2.624-.459-2.716-.624-.091-.165.063-.823.323-1.438.614-1.493 1.948-2.68 6.793-6.088 2.086-1.461 4.504-3.27 5.392-4.006 4.107-3.52 5.813-7.368 5.042-11.477-.356-1.944-1.153-3.865-3.968-9.703-1.649-3.423-2.157-4.615-2.082-5.038.081-.401.505-.847 1.473-1.462 1.825-1.2 2.712-2.031 2.97-2.74.454-1.213-.677-3.85-3.354-7.852l-1.155-1.754 1.227-.968a22.547 22.547 0 0 0 2.215-2.04c.532-.57 1.015-1.055 1.081-1.073.066-.017 1.579 1.403 3.376 3.175ZM122.335 113.858c1.164.732 5.574 4.246 5.651 4.533.024.089-1.758.661-3.982 1.257l-4.029 1.079-1.755-1.972c-.971-1.068-1.768-2.016-1.785-2.082-.071-.266 3.777-3.076 4.542-3.304.192-.075.799.165 1.358.489Z" fill="#252525"/><path d="M173.903 177.436c.31.031.656.127.76.216.487.422.593.04.289-1.019-.205-.735-.527-1.045-.883-.842-.268.142-.79 1.111-.758 1.412.019.108.28.223.592.233Z" fill="#D50814"/><path d="M172.831 175.389c1.422-.77 1.843-.65 3.177.891.831.968.966 1.015 1.407.536.213-.229.145-.338-1.264-1.989-1.308-1.518-1.528-1.718-1.867-1.643-.431.094-1.162.993-1.469 1.797l-.202.529.218-.121Z" fill="#D50814"/><path d="M175.779 173.23c.499.444.979.866 1.073.912.519.359 1.86-.178 2.243-.895.116-.232-.033-.279-.878-.305-.974-.052-1.068-.098-2.025-.963-1.223-1.109-1.545-1.247-2.204-.989-.552.218-2.188 1.667-2.353 2.091-.14.36.827.154 1.441-.32.806-.618 1.633-.464 2.703.469Z" fill="#D50814"/><path d="M174.187 170.339c1.748-.251 2.217-.056 3.542 1.455.826.948.975 1.017 1.551.754.277-.125.214-.226-1.183-1.84-1.299-1.488-1.525-1.695-1.927-1.719-.51-.032-1.479.485-1.945 1.032l-.307.359.269-.041Z" fill="#D50814"/><path d="M177.89 169.386c.514.463 1.009.905 1.111.962.55.403 2.172.312 2.714-.148.166-.151.001-.224-.971-.448-1.117-.275-1.219-.333-2.204-1.232-1.258-1.151-1.61-1.336-2.407-1.296-.667.035-2.757.758-3.007 1.045-.211.244.934.319 1.708.102 1.016-.282 1.95.036 3.056 1.015Z" fill="#D50814"/></g></g><defs><clipPath id="clip0_19_389"><path fill="#fff" d="M0 0h317v301H0z"/></clipPath><clipPath id="clip1_19_389"><path fill="#fff" transform="rotate(-15 157.299 -167.634)" d="M0 0h137v275H0z"/></clipPath><linearGradient id="paint0_linear_19_389" x1="167.374" y1="265.484" x2="175.403" y2="262.863" gradientUnits="userSpaceOnUse"><stop stop-color="#C0B9BD"/><stop offset="1" stop-color="#B79BAC" stop-opacity="0"/></linearGradient></defs></svg>