<svg width="317" height="301" fill="none" xmlns="http://www.w3.org/2000/svg"><g clip-path="url('#clip0_3_238')"><path fill-rule="evenodd" clip-rule="evenodd" d="M75.5 79.5c6-1 20.5-2.4 30.5 0 12.5 3 23 8 47.5 44.5 4 1.5 5.5 2.5 7 3.5.979.652 15.151 5.986 25.163 9.755 5.335 2.008 9.489 3.571 9.837 3.745.074.037.319.125.706.265 4.866 1.759 32.204 11.636 24.794 29.235-6.4 15.2-26 30.333-35 36 2.833 10.333 8.4 35.3 8 52.5-8-5.5-20-3.5-21-3-.116.058-.346.17-.67.327l-.016.008-.005.002c-2.491 1.209-10.342 5.019-14.309 7.663-4.017 2.678-7.237 2.169-10.372 1.673-.377-.06-.752-.119-1.128-.173-1.284-.183-2.972-1.04-4.916-2.027-3.354-1.701-7.469-3.79-11.584-3.473-5.2.4-12.5 3.833-15.5 5.5L106 271c-2.667 1-8.1 2-8.5-2-.4-4-2.833-14.667-4-19.5l-3-11c-4-2.833-12.6-9.2-15-12-2.4-2.8-5.333-6.833-6.5-8.5-2.667-3.333-8.3-10.3-9.5-11.5l-.144-.143-.01-.011-.002-.001C57.49 204.508 49.546 196.634 51 185c1.2-9.6 10.5-21.333 15-26-3.333-9-10.1-28.6-10.5-35-.144-2.302-.37-4.646-.597-6.984-.56-5.784-1.115-11.531-.403-16.516 1-7 6-17 21-21Zm39 18c-12.4-16.8-31.167-16.333-39-14-9 3-11.5 6.5-16 13-3.6 5.2-1.5 21.833 0 29.5 2.5 9.333 9.6 29.8 18 37 10.5 9 25.5 7 39.5 4 11.2-2.4 13.333-20.333 13-29 0-6.5-3.1-23.7-15.5-40.5Zm55.5 42c2.667 1.333 8.2 5.7 9 12.5 1 8.5-4 36.5-9 47.5-6.4-9.6-10.667-28.333-12-36.5-.833-5.667-2-17.5 0-19.5 2.5-2.5 4.5-4 12-4ZM75.5 189c4-3.6 10.333-1.5 13 0 4.8 3.2 6.667 11.667 7 15.5.667 9.667 1.2 29.8-2 33-8-7-23-35-23.5-38s.5-6 5.5-10.5Z" fill="#2D2C2B"/><path d="M170 139.5c2.667 1.333 8.2 5.7 9 12.5 1 8.5-4 36.5-9 47.5-6.4-9.6-10.667-28.333-12-36.5-.833-5.667-2-17.5 0-19.5 2.5-2.5 4.5-4 12-4ZM88.5 189c-2.667-1.5-9-3.6-13 0-5 4.5-6 7.5-5.5 10.5s15.5 31 23.5 38c3.2-3.2 2.667-23.333 2-33-.333-3.833-2.2-12.3-7-15.5ZM75.5 83.5c7.833-2.333 26.6-2.8 39 14 12.4 16.8 15.5 34 15.5 40.5.333 8.667-1.8 26.6-13 29-14 3-29 5-39.5-4-8.4-7.2-15.5-27.667-18-37-1.5-7.667-3.6-24.3 0-29.5 4.5-6.5 7-10 16-13Z" fill="#212121"/><path d="m75.5 79.5-.041-.247-.012.002-.011.003.064.242Zm30.5 0-.058.243.058-.243Zm47.5 44.5-.208.139.045.067.075.028.088-.234Zm7 3.5.139-.208-.139.208Zm35 13.5-.112.224.112-.224Zm25.5 29.5-.23-.097.23.097Zm-35 36-.133-.212-.157.099.049.179.241-.066Zm8 52.5-.142.206.381.262.011-.462L194 259Zm-21-3-.112-.224.112.224Zm-15 8-.139-.208.139.208Zm-11.5 1.5-.035.247.035-.247ZM130 260l-.019-.249.019.249Zm-15.5 5.5-.121-.219-.008.005-.007.004.136.21ZM106 271l.088.234.025-.009.023-.015L106 271Zm-12.5-21.5.243-.059-.002-.007-.241.066Zm-3-11 .241-.066-.023-.086-.074-.052-.144.204ZM69 218l.205-.143-.005-.007-.005-.006L69 218Zm-9.5-11.5-.177.177.177-.177ZM51 185l.248.031L51 185Zm15-26 .18.174.109-.114-.055-.147L66 159Zm-10.5-35-.25.016.25-.016Zm-1-23.5-.248-.035.248.035Zm115.5 39 .112-.224-.053-.026H170v.25Zm9 12.5-.248.029L179 152Zm-9 47.5-.208.139.249.374.187-.41-.228-.103ZM158 163l-.247.036v.004L158 163Zm-69.5 26 .139-.208-.008-.005-.008-.005-.123.218Zm-13 0 .167.186L75.5 189Zm18 48.5-.165.188.176.154.166-.165-.177-.177Zm2-33 .25-.017-.001-.005-.25.022Zm-20-121-.072-.24-.007.003.079.237ZM130 138h-.25v.01l.25-.01Zm-13 29 .052.244L117 167Zm-39.5-4-.163.19.163-.19Zm-18-37-.245.048.001.008.002.009.242-.065Zm0-29.5.206.142-.206-.142Zm126.163 40.755.088-.234-.088.234Zm10.543 4.01.085-.235-.085.235Zm-48.578 124.408-.039.247.039-.247Zm-6.044-2.2-.114.223.114-.223Zm-82.24-57.128-.176.177v.001l.176-.178Zm-4.44-89.329-.25.024.25-.024Zm4.441 89.33.176-.177v-.001l-.176.178Zm112.969 49.989.109.224-.109-.224Zm.016-.008-.109-.225.109.225Zm-112.974-49.97.176-.178-.176.178ZM75.54 79.747c5.993-1 20.452-2.392 30.401-.004l.116-.486c-10.05-2.412-24.592-1.005-30.6-.004l.083.494Zm30.401-.004c6.223 1.494 11.934 3.48 19.146 9.635 7.223 6.165 15.958 16.517 28.204 34.761l.416-.278c-12.254-18.256-21.019-28.654-28.296-34.864-7.288-6.22-13.077-8.234-19.354-9.74l-.116.486Zm47.47 44.491c3.978 1.492 5.461 2.482 6.949 3.474l.278-.416c-1.512-1.008-3.029-2.018-7.051-3.526l-.176.468Zm67.358 46.169c-3.18 7.551-9.65 15.106-16.466 21.49-6.812 6.379-13.95 11.57-18.437 14.395l.266.424c4.513-2.842 11.675-8.051 18.513-14.455 6.833-6.399 13.364-14.011 16.584-21.66l-.46-.194Zm-35.011 36.163c2.832 10.33 8.39 35.267 7.991 52.428l.5.012c.401-17.239-5.175-42.235-8.009-52.572l-.482.132Zm8.383 52.228c-4.057-2.789-9.112-3.668-13.259-3.794a35.544 35.544 0 0 0-5.336.236c-.701.087-1.29.186-1.737.279-.436.091-.764.182-.922.261l.224.448c.092-.046.358-.127.8-.22.432-.09 1.007-.186 1.697-.272a35.08 35.08 0 0 1 5.258-.232c4.103.124 9.048.995 12.991 3.706l.284-.412Zm-64.161.957c-2.638.203-5.79 1.172-8.647 2.291-2.861 1.121-5.446 2.401-6.955 3.239l.242.438c1.491-.829 4.056-2.099 6.895-3.211 2.843-1.114 5.941-2.062 8.503-2.259l-.038-.498Zm-15.617 5.539-8.5 5.5.272.42 8.5-5.5-.272-.42Zm-8.452 5.476c-1.316.494-3.303.981-4.994.86-.845-.061-1.592-.272-2.147-.686-.546-.407-.929-1.028-1.022-1.965l-.498.05c.106 1.063.553 1.817 1.221 2.316.66.492 1.513.719 2.41.783 1.792.129 3.855-.384 5.206-.89l-.176-.468Zm-8.163-1.791c-.402-4.021-2.841-14.707-4.006-19.534l-.486.118c1.168 4.84 3.596 15.487 3.994 19.466l.498-.05Zm-4.008-19.541-3-11-.482.132 3 11 .482-.132Zm-3.097-11.138a240.37 240.37 0 0 1-8.09-6.006c-2.955-2.299-5.684-4.575-6.864-5.953l-.38.326c1.22 1.422 3.99 3.729 6.936 6.022a241.268 241.268 0 0 0 8.11 6.019l.288-.408ZM75.69 226.337c-2.392-2.79-5.32-6.816-6.485-8.48l-.41.286c1.168 1.669 4.107 5.71 6.515 8.52l.38-.326Zm-6.495-8.493a772.797 772.797 0 0 0-5.302-6.552c-1.887-2.303-3.605-4.358-4.216-4.969l-.354.354c.59.589 2.287 2.618 4.184 4.931a784.665 784.665 0 0 1 5.298 6.548l.39-.312Zm-17.947-32.813c.593-4.744 3.193-10.039 6.225-14.746 3.028-4.701 6.467-8.789 8.707-11.111l-.36-.348c-2.26 2.344-5.72 6.457-8.768 11.189-3.043 4.726-5.693 10.098-6.3 14.954l.496.062Zm14.986-26.118c-1.665-4.497-4.189-11.643-6.346-18.463-1.078-3.411-2.064-6.737-2.805-9.609-.743-2.877-1.235-5.282-1.334-6.857l-.499.032c.102 1.625.605 4.07 1.349 6.95.744 2.884 1.733 6.22 2.813 9.634 2.16 6.83 4.686 13.984 6.354 18.487l.468-.174Zm-11.487-58.378c.988-6.912 5.925-16.822 20.817-20.793l-.128-.484c-15.108 4.029-20.171 14.119-21.184 21.207l.495.07Zm115.141 39.189c2.628 1.314 8.077 5.623 8.864 12.305l.496-.058c-.814-6.918-6.431-11.342-9.136-12.695l-.224.448Zm8.864 12.305c.246 2.096.124 5.417-.282 9.407-.405 3.984-1.092 8.617-1.966 13.331-1.749 9.434-4.245 19.159-6.732 24.63l.456.206c2.513-5.529 5.017-15.304 6.768-24.745.876-4.724 1.564-9.371 1.971-13.372.407-3.994.535-7.361.281-9.515l-.496.058Zm-8.544 47.332c-3.178-4.767-5.837-11.821-7.868-18.719-2.03-6.893-3.428-13.608-4.093-17.682l-.494.08c.668 4.093 2.071 10.828 4.107 17.743 2.035 6.91 4.71 14.023 7.932 18.856l.416-.278Zm-11.961-36.397c-.416-2.828-.914-7.193-1.06-11.098-.072-1.954-.056-3.784.101-5.246.078-.731.191-1.363.343-1.868.153-.511.339-.868.546-1.075l-.354-.354c-.293.293-.509.744-.671 1.285-.164.546-.281 1.211-.362 1.959-.16 1.497-.175 3.354-.102 5.317.146 3.929.647 8.313 1.065 11.152l.494-.072Zm-.07-19.287c1.243-1.244 2.338-2.214 4.039-2.882 1.708-.671 4.047-1.045 7.784-1.045v-.5c-3.763 0-6.174.376-7.966 1.08-1.8.707-2.954 1.737-4.211 2.993l.354.354Zm-69.554 45.105c-1.358-.763-3.64-1.676-6.096-1.943-2.457-.267-5.122.11-7.194 1.975l.334.372c1.928-1.735 4.43-2.108 6.806-1.85 2.377.258 4.595 1.145 5.904 1.882l.246-.436Zm-13.29.032c-2.512 2.261-4.038 4.161-4.87 5.89-.837 1.737-.967 3.29-.71 4.837l.493-.082c-.242-1.453-.122-2.9.667-4.538.792-1.646 2.266-3.496 4.754-5.735l-.334-.372Zm-5.58 10.727c.069.412.373 1.208.844 2.268a90.526 90.526 0 0 0 1.938 4.023c1.604 3.161 3.778 7.165 6.187 11.294 2.408 4.129 5.052 8.385 7.596 12.048 2.54 3.658 4.993 6.743 7.017 8.514l.33-.376c-1.976-1.729-4.399-4.769-6.936-8.423-2.534-3.65-5.171-7.894-7.576-12.015-2.404-4.121-4.573-8.117-6.172-11.268a89.912 89.912 0 0 1-1.927-4c-.477-1.074-.751-1.809-.808-2.147l-.493.082Zm23.924 38.136c.441-.442.798-1.151 1.092-2.039.297-.893.538-1.995.734-3.246.392-2.504.605-5.635.697-8.96.183-6.652-.117-14.111-.45-18.949l-.5.034c.334 4.828.633 12.27.45 18.901-.091 3.316-.304 6.423-.69 8.896-.194 1.237-.43 2.309-.715 3.167-.287.864-.613 1.484-.972 1.842l.354.354Zm2.072-33.199c-.168-1.935-.722-5.033-1.84-8.052-1.114-3.013-2.804-5.99-5.27-7.634l-.278.416c2.334 1.556 3.977 4.412 5.08 7.391 1.099 2.972 1.645 6.025 1.81 7.923l.498-.044ZM75.571 83.74c7.771-2.315 26.411-2.778 38.728 13.909l.402-.297C102.218 80.439 83.324 80.907 75.429 83.26l.142.48ZM114.3 97.649C126.666 114.403 129.75 131.55 129.75 138h.5c0-6.551-3.116-23.804-15.549-40.648l-.402.296Zm15.451 40.361c.166 4.313-.283 10.932-2.163 16.763-1.884 5.843-5.175 10.812-10.639 11.983l.104.488c5.736-1.229 9.111-6.427 11.011-12.317 1.903-5.902 2.354-12.583 2.187-16.937l-.5.02Zm-12.802 28.746c-6.997 1.499-14.222 2.743-21.001 2.494-6.776-.248-13.09-1.988-18.284-6.44l-.326.38c5.306 4.548 11.742 6.308 18.591 6.56 6.846.251 14.121-1.005 21.124-2.506l-.104-.488Zm-39.285-3.946c-4.153-3.56-8.01-10.429-11.147-17.61-3.131-7.17-5.527-14.608-6.775-19.265l-.483.13c1.253 4.676 3.657 12.139 6.8 19.335 3.139 7.185 7.032 14.15 11.28 17.79l.325-.38Zm-17.918-36.858c-.748-3.824-1.646-9.887-1.908-15.638-.13-2.876-.102-5.668.181-8.06.285-2.4.823-4.363 1.688-5.612l-.412-.284c-.935 1.351-1.485 3.416-1.772 5.838-.288 2.429-.316 5.25-.184 8.14.263 5.782 1.165 11.87 1.917 15.712l.49-.096Zm-.04-29.31c2.254-3.254 3.987-5.729 6.274-7.768 2.28-2.034 5.123-3.644 9.6-5.137l-.158-.474c-4.523 1.507-7.43 3.147-9.775 5.238-2.339 2.086-4.105 4.611-6.352 7.857l.412.284Zm100.656 31.066c.146.097.499.261.992.474.503.216 1.178.494 1.991.82 1.624.651 3.802 1.497 6.26 2.44a2862.055 2862.055 0 0 0 15.971 6.047l.176-.468a2910.742 2910.742 0 0 1-15.968-6.046 464.695 464.695 0 0 1-6.253-2.438c-.811-.325-1.482-.6-1.98-.815-.508-.219-.812-.364-.911-.43l-.278.416Zm25.214 9.781c2.668 1.004 5.04 1.897 6.788 2.56.875.332 1.592.606 2.113.808.529.205.839.33.912.367l.224-.448c-.101-.05-.441-.186-.955-.385a336.48 336.48 0 0 0-2.116-.81c-1.75-.663-4.122-1.556-6.79-2.56l-.176.468Zm9.813 3.735c.052.025.146.062.26.104.12.045.28.103.473.172l.17-.47-.468-.17a2.45 2.45 0 0 1-.211-.084l-.224.448Zm.733.276c2.434.88 10.452 3.778 16.936 8.642 3.241 2.432 6.08 5.342 7.653 8.718 1.568 3.367 1.884 7.21.06 11.543l.46.194c1.881-4.467 1.559-8.457-.067-11.948-1.621-3.48-4.531-6.449-7.806-8.907-6.55-4.913-14.633-7.833-17.066-8.712l-.17.47ZM172.2 256.112c-2.485 1.206-10.355 5.024-14.339 7.68l.278.416c3.949-2.633 11.782-6.434 14.279-7.646l-.218-.45Zm-14.339 7.68c-3.932 2.622-7.068 2.128-10.194 1.634l-.078.494c3.143.497 6.448 1.022 10.55-1.712l-.278-.416Zm-10.194 1.634c-.376-.06-.754-.12-1.132-.173l-.07.494c.373.054.747.113 1.124.173l.078-.494Zm-1.132-.173c-.608-.087-1.326-.337-2.146-.694-.817-.357-1.719-.814-2.692-1.308l-.227.445c.971.493 1.886.957 2.719 1.321.832.363 1.6.634 2.276.73l.07-.494Zm-4.838-2.002c-3.339-1.695-7.519-3.823-11.716-3.5l.038.498c4.033-.31 8.083 1.738 11.451 3.447l.227-.445ZM59.52 206.167c-1.853-1.836-9.71-9.632-8.272-21.136l-.496-.062c-1.47 11.764 6.562 19.716 8.416 21.553l.352-.355Zm-3.77-82.183c-.145-2.307-.372-4.655-.598-6.992l-.498.048c.226 2.339.453 4.678.596 6.976l.5-.032Zm-.598-6.992c-.56-5.793-1.112-11.507-.405-16.457l-.495-.07c-.717 5.021-.156 10.799.402 16.575l.498-.048Zm4.016 89.531.002.002.35-.357-.001-.002-.35.357Zm113.25 50.039.005-.002-.218-.45-.005.002.218.45Zm-.213-.452-.002.001-.003.001.218.45.002-.001.003-.002-.218-.449Zm.683-.334c-.114.058-.343.168-.667.326l.218.45.673-.328-.224-.448Zm-.667.326-.016.008.218.449.016-.007-.218-.45ZM59.677 206.323l-.145-.144-.352.355.143.143.354-.354Zm-.145-.144-.01-.01-.353.355.01.01.353-.355Zm-.363.345.01.01.353-.355-.01-.01-.353.355Zm113.254 50.035.016-.007-.218-.45a.03.03 0 0 0-.008.004.03.03 0 0 0-.008.004l.218.449Z" fill="#000"/><path d="M212.398 116.969a20760.33 20760.33 0 0 1 41.482-25.31c6.79-4.123 12.609-7.382 12.931-7.244.321.138 1.691 2.015 3.043 4.171 1.352 2.157 2.386 4.09 2.298 4.296-.088.207-20.616 12.897-45.619 28.201L37.198 236.843c-4.763 3.032-9.156 5.287-9.762 5.012-.604-.276-2.017-2.291-3.139-4.478l-2.04-3.978 11.97-7.353 178.171-109.077Z" fill="#744B22"/><path d="M254.129 104.51c-.106-.256 3.878-2.909 8.855-5.898l8.922-5.487 5.802 7.319c2.721 3.826 7.13 11.054 9.799 16.064 2.668 5.012 6.021 12.716 7.451 17.123 1.43 4.407 3.238 11.295 4.018 15.308.78 4.011 1.519 10.936 1.642 15.389.124 4.453-.23 11.083-.787 14.733-.557 3.651-2.159 9.819-3.559 13.706-2.15 5.965-2.617 6.721-2.993 4.843-.245-1.223-1.401-7.593-2.568-14.154s-3.775-17.418-5.798-24.126c-2.021-6.707-5.743-16.547-8.271-21.864-2.528-5.318-6.666-12.747-9.196-16.51l-13.317-16.446Z" fill="#F8F7EB"/><path d="M116.5 280.5c.8-.8 3.333-12 4.5-17.5-1.6.4-9.667 5.167-13.5 7.5-.5 2.333-1.5 7.2-1.5 8 0 .8.333 2.333.5 3 0 0 3 .5 3 1s2 1 3.5 1 2.5-2 3.5-3ZM113 289v-4.5c-1.6 0-5.333-1.667-7-2.5-.333 0-1.1.1-1.5.5-.5.5-7 1.5-13.5 2.5-5.2.8-7.833 3.667-8.5 5-.5 1.333-1.1 4.2.5 5 2 1 15-2.5 17.5-3s10-1.5 11-2c.8-.4 1.333-.833 1.5-1ZM161.549 143.668c3.236.349 6.576.638 7.42.643.843.005 2.328.131 3.299.28.971.149 3.079 1.196 4.686 2.326 1.809 1.274 3.144 3.316 3.507 5.366.352 1.984.023 4.634-.819 6.61-.875 2.052-2.482 3.707-4.253 4.379-1.566.594-6.858.703-11.76.243-4.977-.469-9.811-1.411-10.952-2.134-1.124-.713-2.587-2.433-3.254-3.823-.711-1.484-.838-4.26-.307-6.725.676-3.131 1.623-4.658 3.726-6 2.05-1.307 4.428-1.626 8.707-1.165ZM87.001 159.671c-1.219-.496-2.24-1.959-2.396-3.429-.269-2.545-.199-2.571 9.612-3.607 8.275-.874 9.91-.778 10.054.586.095.895-.217 2.585-.692 3.754-.719 1.769-2.007 2.246-7.658 2.843-3.737.394-7.75.328-8.92-.147Z" fill="#F2F2F2"/><path fill-rule="evenodd" clip-rule="evenodd" d="M76.67 101.408c.988-1.103 3.512-2.86 5.61-3.904 2.324-1.157 6.142-1.973 9.779-2.09 3.282-.105 8.658.714 11.949 1.819 4.3 1.444 6.94 3.175 9.388 6.151 3.108 3.777 3.479 4.921 4.233 13.056.455 4.905.486 10.958.069 13.45-.448 2.679-1.645 5.151-2.928 6.046-1.194.833-4.251 1.992-6.792 2.576-4.114.945-4.625 1.38-4.648 3.957l-.028 2.896-9.22.973c-8.771.926-9.25.861-9.8-1.332-.466-1.851-1.355-2.288-4.515-2.216-3.344.075-3.974-.28-4.195-2.367-.198-1.876.453-2.692 2.762-3.46 1.662-.553 4.055-2.536 5.32-4.408 1.306-1.931 2.161-4.709 1.98-6.426l-.32-3.025-6.172 1.311-6.173 1.311-.695-6.581c-.473-4.483-.169-8.041.953-11.156.906-2.516 2.455-5.477 3.443-6.581Zm30.559 19.387c1.408.573 2.241 1.966 2.469 4.126.19 1.795-.34 4.2-1.176 5.347-.836 1.146-2.883 2.228-4.549 2.404-1.665.176-3.914-.041-4.997-.481-1.084-.441-2.785-1.8-3.78-3.02-.995-1.22-2.241-3.21-2.77-4.421-.873-1.999-.552-2.283 3.468-3.074 2.436-.48 5.504-1.069 6.819-1.309 1.314-.24 3.346-.047 4.516.428Zm-13.86 18.831c-.087-.831-.828-2.646-1.647-4.034-.817-1.387-1.804-2.488-2.192-2.447-.388.041-1.124 1.324-1.633 2.851-.511 1.528-.857 3.458-.769 4.289.104.986 1.245 1.397 3.28 1.182 2.036-.215 3.066-.855 2.962-1.841Z" fill="#F2F2F2"/><path d="M67.087 201.137c.168-1.492 1.062-3.701 1.984-4.908 1.197-1.565 3.511-2.775 8.088-4.227 3.526-1.118 7.904-2.204 9.728-2.414 1.824-.209 4.668.13 6.32.754 2.152.812 3.428 2.154 4.496 4.728.82 1.976 1.39 4.619 1.267 5.872-.123 1.255-1.344 3.408-2.714 4.788-1.923 1.937-4.025 2.907-9.24 4.263-3.714.966-8.293 1.878-10.177 2.026-2.023.159-4.438-.583-5.895-1.812-1.358-1.143-2.85-3.041-3.317-4.216-.466-1.176-.71-3.36-.54-4.854ZM150.5 274c0-1.2 1-5.5 1.5-7.5 2 0 8.833-3.667 12-5.5-1 5.333-3.4 16.5-5 18.5-2 2.5-5 1-7 0s-1.5-4-1.5-5.5Z" fill="#F2F2F2"/><path d="M148.5 282c1.2 0 1.833-1.667 2-2.5 4 2.8 7 2.167 8 1.5l.5 1.5c.333.5 1.3 1.8 2.5 3s-.833 2.833-2 3.5h-4c-2 0-8.5 2-10 2-1.2 0-9.5 1.333-13.5 2-.667 0-2-.6-2-3 0-3 2.5-4.5 3.5-5s13.5-3 15-3Z" fill="#F2F2F2"/></g><defs><clipPath id="clip0_3_238"><path fill="#fff" d="M0 0h317v301H0z"/></clipPath></defs></svg>