<svg width="317" height="301" fill="none" xmlns="http://www.w3.org/2000/svg"><g clip-path="url('#clip0_3_237')"><path fill-rule="evenodd" clip-rule="evenodd" d="M75.5 79.5c6-1 20.5-2.4 30.5 0 12.5 3 23 8 47.5 44.5 3 5.5 4.5 7.5 6 8.5.979.652 15.151 1.986 25.163 5.755 5.335 2.008 10.489 2.571 10.837 2.745.074.037.319.125.706.265 4.866 1.759 34.204 5.636 27.794 27.235-4.692 15.811-23 35.333-32 41 2.833 10.333 20.4 36.3 31 52.5-8-5.5-49-6.5-50-6-.116.058-.346.17-.67.327l-.016.008-.005.002c-2.491 1.209-10.342 5.019-14.309 7.663-4.017 2.678-7.237 2.169-10.372 1.673-.377-.06-.752-.119-1.128-.173-1.284-.183-2.972-1.04-4.916-2.027-3.354-1.701-7.469-3.79-11.584-3.473-5.2.4-12.5 3.833-15.5 5.5L106 271c-2.667 1-8.1 2-8.5-2-.4-4-2.833-14.667-4-19.5l-3-11c-4-15.833-6.6 10.8-15 1-2.4-2.8-6.333-7.833-7.5-9.5-1.747-2.183-12.314-23.65-12.655-23.654C51.168 198.673 50.043 194.044 51 185c1.2-9.6 10.5-21.333 15-26-3.333-9-10.1-28.6-10.5-35-.144-2.302-.37-4.646-.597-6.984-.56-5.784-1.115-11.531-.403-16.516 1-7 6-17 21-21Zm39 18c-12.4-16.8-31.167-16.333-39-14-9 3-11.5 6.5-16 13-3.6 5.2-1.5 21.833 0 29.5 2.5 9.333 9.6 29.8 18 37 10.5 9 25.5 7 39.5 4 11.2-2.4 13.333-20.333 13-29 0-6.5-3.1-23.7-15.5-40.5Zm55.5 42c2.667 1.333 8.2 5.7 9 12.5 1 8.5 4 39.5-1 50.5-6.4-9.6-18.667-31.333-20-39.5-.833-5.667-2-17.5 0-19.5 2.5-2.5 4.5-4 12-4ZM71.5 190c4-3.6 11.333.5 14 2 4.8 3.2 2.667 8.667 3 12.5.667 9.667-3.8 31.8-7 35-8-7-15-37-15.5-40s.5-5 5.5-9.5Z" fill="#2D2C2B"/><path d="M75.5 83.5c7.833-2.333 26.6-2.8 39 14 12.4 16.8 15.5 34 15.5 40.5.333 8.667-1.8 26.6-13 29-14 3-29 5-39.5-4-8.4-7.2-15.5-27.667-18-37-1.5-7.667-3.6-24.3 0-29.5 4.5-6.5 7-10 16-13ZM170 139.5c2.667 1.333 8.2 5.7 9 12.5 1 8.5 4 39.5-1 50.5-6.4-9.6-18.667-31.333-20-39.5-.833-5.667-2-17.5 0-19.5 2.5-2.5 4.5-4 12-4ZM85.5 192c-2.667-1.5-10-5.6-14-2-5 4.5-6 6.5-5.5 9.5s7.5 33 15.5 40c3.2-3.2 7.667-25.333 7-35-.333-3.833 1.8-9.3-3-12.5Z" fill="#212121"/><path d="m75.5 79.5-.041-.247-.012.002-.011.003.064.242Zm30.5 0-.058.243.058-.243Zm47.5 44.5.219-.12-.005-.01-.006-.009-.208.139Zm6 8.5.139-.208-.139.208Zm36 8.5-.112.224.112-.224Zm28.5 27.5.24.071-.24-.071Zm-32 41-.133-.212-.157.099.049.179.241-.066Zm31 52.5-.142.206.351-.343L223 262Zm-50-6-.112-.224.112.224Zm-15 8-.139-.208.139.208Zm-11.5 1.5-.035.247.035-.247ZM130 260l-.019-.249.019.249Zm-15.5 5.5-.121-.219-.008.005-.007.004.136.21ZM106 271l.088.234.025-.009.023-.015L106 271Zm-12.5-21.5.243-.059-.002-.007-.241.066Zm-3-11-.242.061v.005l.242-.066Zm-15 1 .19-.163-.19.163ZM68 230l.205-.143-.005-.007-.005-.006L68 230Zm-17-45-.248-.031v.005L51 185Zm15-26 .18.174.109-.114-.055-.147L66 159Zm-10.5-35-.25.016.25-.016Zm-1-23.5-.248-.035.248.035Zm115.5 39 .112-.224-.053-.026H170v.25Zm9 12.5-.248.029L179 152Zm-1 50.5-.208.139.249.374.187-.41-.228-.103ZM158 163l-.247.036v.004L158 163Zm-72.5 29 .139-.208-.008-.005-.008-.005-.123.218Zm-14-2 .167.186L71.5 190Zm10 49.5-.165.188.176.154.166-.165-.177-.177Zm7-35 .25-.017-.001-.005-.249.022Zm-13-121-.071-.24-.008.003.079.237ZM130 138h-.25v.01l.25-.01Zm-13 29 .052.244L117 167Zm-39.5-4-.163.19.163-.19Zm-18-37-.245.048.001.008.002.009.242-.065Zm0-29.5.206.142-.206-.142Zm125.163 41.755.088-.234-.088.234Zm11.543 3.01.085-.235-.085.235Zm-48.578 124.408-.039.247.039-.247Zm-6.044-2.2-.113.223.113-.223Zm-86.68-146.457-.25.024.25-.024Zm.441 89.33-.22.12.07.129.148.001.002-.25Zm116.969 49.989.109.224-.109-.224Zm.016-.008-.109-.225.109.225ZM75.541 79.747c5.993-1 20.452-2.392 30.401-.004l.116-.486c-10.05-2.412-24.592-1.005-30.6-.004l.083.494Zm30.401-.004c6.223 1.494 11.934 3.48 19.146 9.635 7.223 6.165 15.958 16.517 28.204 34.761l.416-.278c-12.254-18.256-21.019-28.654-28.296-34.864-7.288-6.22-13.077-8.234-19.354-9.74l-.116.486Zm47.339 44.377c2.994 5.49 4.521 7.548 6.08 8.588l.278-.416c-1.441-.96-2.914-2.902-5.92-8.412l-.438.24Zm70.479 44.309c-2.332 7.857-8.057 16.66-14.337 24.215-6.28 7.555-13.087 13.831-17.556 16.644l.266.424c4.531-2.853 11.378-9.173 17.675-16.748 6.296-7.575 12.071-16.439 14.432-24.393l-.48-.142Zm-32.001 41.137c.716 2.612 2.357 6.193 4.569 10.336 2.214 4.147 5.01 8.873 8.047 13.78 6.073 9.811 13.118 20.358 18.416 28.455l.418-.274c-5.302-8.103-12.34-18.64-18.409-28.445-3.034-4.902-5.824-9.617-8.031-13.751-2.21-4.139-3.827-7.678-4.528-10.233l-.482.132Zm31.383 52.228c-1.034-.71-2.58-1.336-4.476-1.891-1.901-.557-4.173-1.047-6.67-1.477-4.996-.862-10.911-1.487-16.602-1.925a316.296 316.296 0 0 0-15.278-.798 151.204 151.204 0 0 0-5.011-.064c-.617.005-1.117.017-1.48.036a7.318 7.318 0 0 0-.446.034 1.997 1.997 0 0 0-.153.024.553.553 0 0 0-.138.043l.224.448c-.016.007-.018.005.014-.001.025-.005.062-.011.112-.017a6.26 6.26 0 0 1 .414-.032c.351-.018.843-.03 1.457-.035 1.229-.01 2.941.009 4.994.064 4.105.109 9.57.359 15.253.796 5.684.437 11.581 1.062 16.555 1.919 2.486.429 4.738.915 6.614 1.465 1.881.55 3.366 1.158 4.333 1.823l.284-.412Zm-93.161-2.043c-2.638.203-5.79 1.172-8.647 2.291-2.861 1.121-5.446 2.401-6.955 3.239l.242.438c1.491-.829 4.056-2.099 6.895-3.211 2.843-1.114 5.941-2.062 8.503-2.259l-.038-.498Zm-15.617 5.539-8.5 5.5.272.42 8.5-5.5-.272-.42Zm-8.452 5.476c-1.316.494-3.303.981-4.994.86-.845-.061-1.592-.272-2.147-.686-.546-.407-.929-1.028-1.022-1.965l-.498.05c.107 1.063.553 1.817 1.221 2.316.66.492 1.513.719 2.41.783 1.792.129 3.855-.384 5.206-.89l-.176-.468Zm-8.163-1.791c-.402-4.021-2.84-14.707-4.006-19.534l-.486.118c1.168 4.84 3.596 15.487 3.994 19.466l.498-.05Zm-4.008-19.541-3-11-.482.132 3 11 .482-.132Zm-2.999-10.995c-.501-1.985-.986-3.328-1.475-4.166-.483-.829-1.023-1.244-1.648-1.166-.296.037-.573.183-.833.386-.26.204-.516.478-.77.793-.506.628-1.03 1.458-1.577 2.317-.55.865-1.129 1.765-1.753 2.558-.625.794-1.283 1.462-1.987 1.875-.697.408-1.435.564-2.241.344-.816-.222-1.736-.838-2.768-2.043l-.38.326c1.068 1.245 2.067 1.941 3.016 2.199.96.262 1.835.068 2.625-.395.784-.458 1.488-1.183 2.128-1.997.642-.815 1.233-1.736 1.782-2.598.553-.868 1.06-1.671 1.545-2.273.241-.3.47-.541.689-.712.219-.172.413-.263.586-.284.313-.039.698.139 1.155.922.452.775.923 2.062 1.422 4.036l.484-.122Zm-15.052.898c-2.397-2.795-6.325-7.822-7.485-9.48l-.41.286c1.173 1.675 5.111 6.715 7.515 9.52l.38-.326Zm-24.442-54.306c.593-4.744 3.193-10.039 6.225-14.746 3.028-4.701 6.467-8.789 8.707-11.111l-.36-.348c-2.26 2.344-5.72 6.457-8.768 11.189-3.043 4.726-5.693 10.098-6.3 14.954l.496.062Zm14.986-26.118c-1.665-4.497-4.189-11.643-6.346-18.463-1.078-3.411-2.064-6.737-2.805-9.609-.743-2.877-1.235-5.282-1.334-6.857l-.499.032c.102 1.625.606 4.07 1.349 6.95.744 2.884 1.733 6.22 2.813 9.634 2.16 6.83 4.686 13.984 6.354 18.487l.468-.174Zm-11.487-58.378c.988-6.912 5.925-16.822 20.817-20.793l-.128-.484c-15.108 4.029-20.171 14.119-21.184 21.207l.495.07Zm115.141 39.189c2.628 1.314 8.077 5.623 8.864 12.305l.496-.058c-.814-6.918-6.431-11.342-9.136-12.695l-.224.448Zm8.864 12.305c.499 4.246 1.498 14.113 1.748 24.29.125 5.088.062 10.25-.343 14.823-.405 4.579-1.153 8.544-2.385 11.255l.456.206c1.268-2.789 2.02-6.824 2.427-11.417.408-4.599.47-9.781.345-14.88-.25-10.198-1.251-20.081-1.752-24.335l-.496.058Zm-.544 50.332c-3.195-4.791-7.857-12.617-11.887-20.265-2.015-3.824-3.87-7.6-5.304-10.928-1.436-3.333-2.442-6.199-2.77-8.208l-.494.08c.339 2.074 1.366 4.988 2.805 8.326 1.441 3.344 3.302 7.133 5.321 10.963 4.036 7.661 8.707 15.501 11.913 20.31l.416-.278Zm-19.961-39.397c-.415-2.828-.914-7.193-1.06-11.098-.072-1.954-.056-3.784.101-5.246.078-.731.191-1.363.343-1.868.153-.511.339-.868.546-1.075l-.354-.354c-.293.293-.508.744-.671 1.285-.164.546-.281 1.211-.362 1.959-.16 1.497-.175 3.354-.102 5.317.146 3.929.647 8.313 1.065 11.152l.494-.072Zm-.07-19.287c1.243-1.244 2.338-2.214 4.039-2.882 1.708-.671 4.047-1.045 7.784-1.045v-.5c-3.763 0-6.174.376-7.966 1.08-1.8.707-2.954 1.737-4.211 2.993l.354.354Zm-72.554 48.105c-1.333-.749-3.856-2.163-6.554-2.935-2.687-.768-5.635-.924-7.736.967l.334.372c1.9-1.709 4.618-1.615 7.264-.858 2.635.753 5.112 2.139 6.446 2.89l.246-.436Zm-14.29-1.968c-2.502 2.252-4.029 3.9-4.863 5.375-.845 1.496-.974 2.805-.717 4.352l.494-.082c-.243-1.453-.122-2.644.658-4.023.791-1.4 2.264-3.002 4.762-5.25l-.334-.372Zm-5.58 9.727c.253 1.516 2.132 9.778 4.947 18.536 1.407 4.38 3.052 8.89 4.847 12.747 1.791 3.849 3.746 7.078 5.788 8.864l.33-.376c-1.959-1.714-3.878-4.86-5.665-8.699-1.783-3.83-3.42-8.32-4.825-12.69-2.81-8.742-4.681-16.98-4.928-18.464l-.494.082Zm15.924 40.136c.432-.433.867-1.162 1.297-2.099.433-.942.87-2.117 1.301-3.461.863-2.688 1.702-6.066 2.42-9.643 1.434-7.147 2.39-15.124 2.054-19.991l-.498.034c.33 4.799-.614 12.723-2.046 19.859-.716 3.565-1.55 6.924-2.406 9.588-.427 1.333-.858 2.487-1.28 3.406-.424.924-.829 1.586-1.196 1.953l.354.354Zm7.072-35.199c-.081-.935-.012-1.975.066-3.081.078-1.098.165-2.256.11-3.397-.111-2.294-.798-4.549-3.286-6.208l-.278.416c2.312 1.541 2.958 3.619 3.064 5.817.054 1.105-.03 2.232-.109 3.337-.078 1.098-.15 2.178-.065 3.16l.498-.044ZM75.571 83.74c7.771-2.315 26.411-2.778 38.728 13.909l.402-.297C102.218 80.439 83.324 80.907 75.429 83.26l.142.48ZM114.3 97.649C126.666 114.403 129.75 131.55 129.75 138h.5c0-6.551-3.116-23.804-15.549-40.648l-.402.296Zm15.451 40.361c.166 4.313-.283 10.932-2.163 16.763-1.884 5.843-5.175 10.812-10.639 11.983l.104.488c5.736-1.229 9.111-6.427 11.011-12.317 1.903-5.902 2.354-12.583 2.187-16.937l-.5.02Zm-12.802 28.746c-6.997 1.499-14.222 2.743-21.001 2.494-6.776-.248-13.09-1.988-18.284-6.44l-.326.38c5.306 4.548 11.742 6.308 18.591 6.56 6.846.251 14.121-1.005 21.124-2.506l-.104-.488Zm-39.285-3.946c-4.153-3.56-8.01-10.429-11.146-17.61-3.132-7.17-5.528-14.608-6.775-19.265l-.483.13c1.252 4.676 3.656 12.139 6.8 19.335 3.138 7.185 7.031 14.15 11.278 17.79l.326-.38Zm-17.918-36.858c-.748-3.824-1.646-9.887-1.908-15.638-.13-2.876-.102-5.668.182-8.06.284-2.4.822-4.363 1.687-5.612l-.412-.284c-.935 1.351-1.485 3.416-1.772 5.838-.288 2.429-.316 5.25-.184 8.14.263 5.782 1.165 11.87 1.917 15.712l.49-.096Zm-.04-29.31c2.254-3.254 3.987-5.729 6.274-7.768 2.28-2.034 5.123-3.644 9.6-5.137l-.158-.474c-4.523 1.507-7.43 3.147-9.775 5.238-2.339 2.086-4.105 4.611-6.352 7.857l.412.284Zm99.656 36.066c.097.064.243.116.403.163.169.049.383.1.636.154.506.107 1.183.228 1.995.366 1.626.276 3.798.621 6.255 1.064 4.914.886 10.941 2.158 15.925 4.034l.176-.468c-5.028-1.893-11.093-3.172-16.013-4.058-2.46-.443-4.64-.79-6.26-1.065a52.046 52.046 0 0 1-1.975-.363 8.516 8.516 0 0 1-.599-.144 1.19 1.19 0 0 1-.265-.099l-.278.416Zm25.214 5.781c2.684 1.01 5.32 1.656 7.326 2.071 1.004.208 1.85.358 2.466.466.309.055.557.098.739.134.091.018.162.033.214.045.061.015.075.022.068.019l.224-.448a.853.853 0 0 0-.173-.056 4.523 4.523 0 0 0-.238-.051 54.887 54.887 0 0 0-.747-.135c-.615-.109-1.456-.258-2.451-.464-1.992-.412-4.601-1.051-7.252-2.049l-.176.468Zm10.813 2.735c.052.025.146.062.26.104.12.045.28.103.473.172l.17-.47-.468-.17a2.45 2.45 0 0 1-.211-.084l-.224.448Zm.733.276c.623.226 1.629.482 2.878.797 1.256.316 2.773.696 4.436 1.169 3.327.946 7.23 2.264 10.777 4.196 3.549 1.932 6.722 4.468 8.616 7.84 1.888 3.363 2.518 7.585.932 12.927l.48.142c1.619-5.457.985-9.82-.976-13.314-1.957-3.485-5.22-6.078-8.813-8.034-3.594-1.958-7.537-3.288-10.879-4.238-1.672-.476-3.196-.857-4.451-1.173-1.261-.318-2.236-.567-2.83-.782l-.17.47ZM172.2 256.112c-2.484 1.206-10.355 5.024-14.339 7.68l.278.416c3.949-2.633 11.782-6.434 14.279-7.646l-.218-.45Zm-14.339 7.68c-3.932 2.622-7.068 2.128-10.194 1.634l-.078.494c3.143.497 6.448 1.022 10.55-1.712l-.278-.416Zm-10.194 1.634c-.376-.06-.754-.12-1.132-.173l-.07.494c.373.054.747.113 1.124.173l.078-.494Zm-1.132-.173c-.608-.087-1.326-.337-2.146-.694-.817-.357-1.719-.814-2.692-1.308l-.226.445c.97.493 1.885.957 2.718 1.321.832.363 1.6.634 2.276.73l.07-.494Zm-4.838-2.002c-3.339-1.695-7.519-3.823-11.716-3.5l.038.498c4.033-.31 8.083 1.738 11.452 3.447l.226-.445ZM55.749 123.984c-.144-2.307-.37-4.655-.597-6.992l-.498.048c.227 2.339.453 4.678.596 6.976l.5-.032Zm-.597-6.992c-.56-5.793-1.112-11.507-.405-16.457l-.495-.07c-.717 5.021-.156 10.799.402 16.575l.498-.048Zm117.266 139.57.005-.002-.218-.45-.005.002.218.45Zm-.213-.452-.002.001-.003.001.218.45.002-.001.003-.002-.218-.449Zm.683-.334c-.114.058-.343.168-.667.326l.218.45.673-.328-.224-.448Zm-.667.326-.016.008.218.449.016-.007-.218-.45Zm.202.457.016-.007-.218-.45a.03.03 0 0 0-.008.004.03.03 0 0 0-.008.004l.218.449ZM55.565 206.227c-2.084-3.828-3.396-6.879-4.073-10.091-.677-3.212-.72-6.602-.243-11.11l-.498-.052c-.48 4.536-.44 7.983.252 11.265.69 3.281 2.029 6.381 4.123 10.227l.439-.239Zm12.63 23.617c-.204-.256-.551-.813-1.01-1.612a120.471 120.471 0 0 1-1.63-2.966 600.639 600.639 0 0 1-4.187-8.025c-1.451-2.819-2.86-5.572-3.925-7.62a135.201 135.201 0 0 0-1.309-2.467 18.473 18.473 0 0 0-.396-.696 2.735 2.735 0 0 0-.13-.198.676.676 0 0 0-.061-.074.32.32 0 0 0-.052-.043.264.264 0 0 0-.147-.047l-.005.5a.237.237 0 0 1-.128-.038c-.015-.011-.023-.02-.024-.02a2.575 2.575 0 0 1 .12.181c.093.153.223.38.385.675.324.589.77 1.435 1.303 2.458 1.066 2.046 2.472 4.797 3.924 7.618 1.452 2.82 2.948 5.71 4.19 8.031.622 1.161 1.18 2.181 1.639 2.98.455.793.82 1.385 1.053 1.675l.39-.312Z" fill="#000"/><path d="M212.398 127.969a20585.226 20585.226 0 0 1 41.482-25.31c6.79-4.123 12.609-7.382 12.931-7.244.321.138 1.691 2.015 3.043 4.171 1.352 2.157 2.386 4.09 2.298 4.296-.088.207-20.616 12.897-45.619 28.201L37.198 247.843c-4.763 3.032-9.156 5.287-9.762 5.012-.604-.276-2.017-2.291-3.139-4.478l-2.04-3.978 11.97-7.353 178.171-109.077Z" fill="#744B22"/><path d="M254.129 115.51c-.106-.256 3.878-2.909 8.855-5.898l8.922-5.487 5.802 7.319c2.721 3.826 7.13 11.053 9.799 16.064 2.668 5.011 6.021 12.716 7.451 17.123 1.43 4.407 3.238 11.295 4.018 15.308.78 4.011 1.519 10.936 1.642 15.389.124 4.453-.23 11.083-.788 14.733-.556 3.651-2.158 9.819-3.559 13.706-2.149 5.965-2.616 6.721-2.992 4.843-.245-1.223-1.401-7.593-2.568-14.155-1.168-6.56-3.775-17.417-5.798-24.125-2.021-6.708-5.743-16.547-8.271-21.864-2.528-5.318-6.666-12.747-9.196-16.51l-13.317-16.446Z" fill="#F8F7EB"/><path d="M116.5 280.5c.8-.8 3.333-12 4.5-17.5-1.6.4-9.667 5.167-13.5 7.5-.5 2.333-1.5 7.2-1.5 8 0 .8.333 2.333.5 3 0 0 3 .5 3 1s2 1 3.5 1 2.5-2 3.5-3ZM115 288l-3-3.5c-1.6 0-4.333-1.667-6-2.5-.333 0-1.1.1-1.5.5-.5.5-6-1.5-12.5-.5-5.2.8-6.833 2.667-7.5 4-.5 1.333.9 2.2 2.5 3 2 1 11 1.5 14.5 2 2.524.361 12 4.5 13 4 .8-.4 1.333-4.833.5-7ZM161.549 154.668c3.236.349 6.576.638 7.42.643.843.005 2.328.131 3.299.28.971.149 3.079 1.196 4.686 2.326 1.809 1.274 3.144 3.316 3.507 5.366.352 1.984.023 4.634-.819 6.61-.875 2.052-2.482 3.707-4.253 4.379-1.566.594-6.858.703-11.76.243-4.977-.469-9.811-1.411-10.952-2.134-1.124-.713-2.587-2.433-3.254-3.823-.711-1.484-.838-4.26-.307-6.725.676-3.131 1.623-4.658 3.726-6 2.049-1.307 4.428-1.626 8.707-1.165ZM87.001 159.671c-1.219-.496-2.24-1.959-2.396-3.429-.269-2.545-.199-2.572 9.612-3.607 8.275-.874 9.91-.778 10.054.586.095.895-.217 2.585-.692 3.754-.719 1.768-2.007 2.246-7.658 2.843-3.737.394-7.75.328-8.92-.147Z" fill="#F2F2F2"/><path fill-rule="evenodd" clip-rule="evenodd" d="M76.67 101.408c.988-1.103 3.512-2.86 5.61-3.904 2.324-1.158 6.142-1.973 9.779-2.09 3.282-.105 8.658.713 11.949 1.819 4.3 1.444 6.94 3.175 9.388 6.151 3.108 3.777 3.479 4.921 4.233 13.056.455 4.905.486 10.958.069 13.45-.448 2.679-1.645 5.151-2.928 6.046-1.194.833-4.251 1.992-6.792 2.576-4.114.945-4.625 1.38-4.648 3.957l-.028 2.896-9.22.973c-8.771.926-9.25.861-9.8-1.332-.466-1.852-1.355-2.288-4.515-2.216-3.344.075-3.974-.28-4.195-2.367-.198-1.876.453-2.692 2.762-3.461 1.662-.553 4.055-2.536 5.32-4.407 1.306-1.931 2.161-4.709 1.98-6.426l-.32-3.025-6.172 1.311-6.173 1.311-.695-6.582c-.473-4.482-.169-8.04.953-11.155.906-2.516 2.455-5.477 3.443-6.581Zm30.559 19.387c1.408.573 2.241 1.966 2.469 4.126.19 1.795-.34 4.2-1.176 5.347-.836 1.146-2.883 2.228-4.549 2.404-1.665.176-3.914-.041-4.997-.481-1.084-.441-2.785-1.801-3.78-3.02-.995-1.22-2.241-3.21-2.77-4.421-.873-1.999-.552-2.283 3.468-3.074a624.11 624.11 0 0 1 6.819-1.309c1.314-.24 3.346-.047 4.516.428Zm-13.86 18.831c-.087-.831-.828-2.647-1.647-4.034-.817-1.387-1.804-2.488-2.192-2.447-.388.041-1.124 1.324-1.633 2.851-.511 1.528-.857 3.457-.769 4.289.104.986 1.245 1.397 3.28 1.182 2.036-.215 3.066-.855 2.962-1.841Z" fill="#F2F2F2"/><path d="M71.087 210.137c.168-1.492 1.062-3.701 1.984-4.908 1.197-1.565 3.511-2.775 8.088-4.227 3.526-1.118 7.904-2.204 9.728-2.414 1.824-.209 4.668.13 6.32.754 2.152.812 3.428 2.154 4.496 4.728.82 1.976 1.391 4.619 1.268 5.872-.124 1.255-1.345 3.408-2.715 4.788-1.923 1.937-4.025 2.907-9.24 4.263-3.714.966-8.293 1.878-10.177 2.026-2.023.159-4.438-.583-5.895-1.812-1.358-1.143-2.85-3.041-3.317-4.216-.466-1.176-.71-3.36-.54-4.854ZM185.508 268.191c-1.039-.6-13.263-9.616-14.745-11.049C171.763 255.41 185 256 185 256c4.119 3.533 8.589 5.194 9.521 7.58 1.166 2.982-1.634 4.83-3.5 6.062-1.866 1.232-4.214-.701-5.513-1.451Z" fill="#F2F2F2"/><path d="M191.437 273.923c.6-1.039-.527-2.421-1.166-2.982 4.425-2.064 5.377-4.979 5.299-6.178l1.55.317c.599-.039 2.208-.226 3.848-.665 1.639-.439 2.037 2.138 2.031 3.482l-2 3.464c-1 1.732-2.518 8.361-3.268 9.66-.6 1.04-3.596 8.894-5.018 12.692-.334.577-1.52 1.432-3.598.232-2.598-1.5-2.647-4.415-2.58-5.531.067-1.116 4.152-13.192 4.902-14.491Z" fill="#F2F2F2"/></g><defs><clipPath id="clip0_3_237"><path fill="#fff" d="M0 0h317v301H0z"/></clipPath></defs></svg>