<svg width="317" height="301" fill="none" xmlns="http://www.w3.org/2000/svg"><g clip-path="url('#clip0_19_391')"><path d="M100.167 22.462c-1.778 1.999-1.737 1.808-1.426 5.79.204 2.47.195 3.815.02 4.35-.327.905-1.339 1.54-4.99 3.03-2.76 1.125-2.853 1.115-3.094-.516-.12-.816-.007-1.134 1.103-2.826 1.58-2.41 1.976-3.626 1.61-4.706-.276-.77-2.058-2.544-2.27-2.258-.035.074.21.64.574 1.235.387.59.656 1.315.628 1.597-.03.26-.682 1.467-1.472 2.672-1.903 2.874-2.014 3.215-1.606 5.192l.305 1.599-1.254.717c-.7.405-1.72.833-2.28.94l-1.034.175-.116-1.095c-.114-.932.053-6.351.227-7.674.037-.213-.035-.388-.147-.372-.294.044-1.242 3.449-1.705 6.087-.363 2.068-.351 2.46.229 4.203.095.334-.158.649-1.108 1.391-1.057.804-1.404.948-2.387 1-.616.045-1.428.003-1.787-.083-.642-.136-.674-.201-.899-1.72-.381-2.582-1.364-6.119-1.965-7.072-.514-.827-1.65-1.493-1.896-1.133-.057.078.262.68.685 1.358.803 1.224.803 1.224 1.227 5.19l.42 3.944.72.496c.384.267.995.501 1.343.52.37.014.707.103.784.161.114.146-3.785 3.546-4.835 4.234-1.266.789-1.65.058-1.193-2.302.32-1.737.039-3.015-.953-4.12-.662-.735-2.21-1.548-2.15-1.14.016.113.409.587.853 1.1 1.074 1.185 1.221 2.182.636 4.306-.57 2.075-.502 2.529.511 3.305l.832.641-1.65 2.397c-2.87 4.129-4.116 6.767-4.781 10.222-.302 1.55-.285 2.126.223 6.196l.543 4.458 1.237 1.67 1.238 1.669-.548 1.91c-1.74 5.999-1.247 11.992 1.287 15.578 1.663 2.37 4.28 4.183 7.6 5.291 4.286 1.405 7.055 1.274 10.75-.545.73-.363 1.466-.68 1.646-.707.293-.043 1.943 2.701 2.544 4.279.409 1.051.327 1.433-.759 3.284-.348.607-.612 1.317-.572 1.589.134.907 1.356 1.537 4.29 2.215 3.648.827 3.777.924 3.564 2.599-.09.639.018 1.063.377 1.774.351.666.622 1.876.994 4.391l.512 3.467 1.272.97c.994.803 1.388.976 1.997.886.564-.083.932.071 1.719.719l1 .847.749-.55c.581-.433.867-.522 1.3-.4 1.107.322 2.039-.857 3.528-4.504.92-2.196 1.431-3.105 1.86-3.168.699-.104 2.908 2.534 4.705 5.649 1.721 2.918 2.809 5.605 3.341 8.12l.47 2.246-3.566 2.217c-6.375 3.951-8.294 5.623-13.204 11.535-1.685 2.008-3.611 4.261-4.306 5.012-1.805 1.979-5.026 4.817-6.093 5.391-.643.327-2.398.771-5.31 1.34-6.09 1.2-6.665 1.354-7.425 2.138-1.222 1.245-1.366 1.984-1.102 5.488.122 1.765.394 4.387.608 5.838.365 2.469.444 2.689 1.291 3.907.475.717 1.237 1.508 1.645 1.772.682.408.985.433 2.518.207l1.737-.257 1.534 1.186c2.286 1.747 3.352 2.26 4.367 2.111.699-.104 1.09.047 2.213.784 2.255 1.543 3.439 1.762 5.476 1.044 1.184-.406 1.3-.4 2.189.001 2.055.97 4.128.803 6.735-.578.707-.359 1.286-.653 1.331-.659.135-.02.788 1.597 2.352 5.788 2.934 7.856 5.008 11.602 7.55 13.681 1.337 1.099 2.306 1.419 3.681 1.216l.609-.09.966 6.85.942 6.853-1.425.488c-4.296 1.491-6.328 3.644-7.088 7.553-.131.668-.321 1.413-.452 1.618-.121.273-1.25.74-3.538 1.472-4.287 1.397-5.479 2.059-6.872 3.862-1.085 1.388-1.273 1.832-2.123 4.968-.361 1.303-.524 1.605-1.285 2.065-.971.606-1.998 2.078-2.307 3.258-.979 3.826 3.313 8.865 9.337 10.962 1.043.355 2.051.785 2.213.947.24.219.369.779.433 1.997.114 2.02.817 3.815 1.769 4.485.385.267 1.101.439 1.978.449 2.17.027 9.774-.749 15.479-1.591l5.231-.773.313.556c.182.298.373.964.449 1.485.241 1.47.785 2.663 1.419 3.055.505.296.827.295 2.521-.094 1.719-.37 1.993-.387 2.227-.051.26.355 1.065 3.779 2.544 10.831.9 4.22.924 3.915-.458 6.574-1.047 1.96-1.482 3.692-1.278 5.074.201 1.359 1.646 3.346 3.439 4.725 1.272.97 1.641 1.124 2.805 1.206 2.161.121 4.825-.874 6.811-2.557 1.496-1.262 3.078-4.9 2.844-6.486-.311-2.107-1.751-4.372-3.485-5.505l-1.175-.776-.678-3.188c-.797-3.841-1.674-9.778-1.566-10.604.062-.519.21-.61 1.147-.818l1.095-.231-.641-3.402-.66-3.375 5.613-.69c3.076-.385 8.553-1.055 12.171-1.519l6.605-.837.731-1.288c1.006-1.77.981-3.341-.185-6.873l-.239-.682 5.819-4.124c3.189-2.277 6.239-4.557 6.759-5.096 1.106-1.09 1.458-2.138 1.248-3.565-.181-1.224-.941-2.154-2.63-3.293-1.481-.986-1.527-1.141-1.425-4.814.05-2.161.05-2.161-.944-4.839-1.472-3.881-1.759-5.042-3.216-12.885-1.733-9.237-2.61-17.049-2.125-19.228.371-1.699 1.306-3.017 3.007-4.287.707-.521 1.39-1.201 1.546-1.548.159-.325.24-1.494.215-2.602-.112-2.785.022-3.129 1.597-4.473 3.826-3.274 9.063-13.054 14.185-26.429.693-1.862 1.496-3.601 1.755-3.871.257-.293 1.089-.74 1.855-1.015 2.388-.839 2.922-1.589 2.397-3.271-.134-.443-1.655-2.627-3.392-4.871-3.253-4.243-4.332-5.936-6.612-10.3-4.202-8.015-9.242-15.931-13.974-21.924-2.607-3.296-3.121-4.123-2.852-4.487.096-.13 1.735-.58 3.612-.973 1.878-.393 3.478-.792 3.574-.922.537-.727-1.695-2.273-8.417-5.819-9.922-5.25-10.326-5.49-17.356-10.658-7.5-5.538-6.038-4.688-17.954-10.176-4.101-1.872-3.906-1.646-4.858-5.442-1.977-7.927-4.415-13.98-7.872-19.606-.888-1.49-1.649-2.744-1.659-2.812-.034-.226.859-.265 1.028-.059 1.009 1.217 6.468.898 7.699-.442.439-.458.413-.478-1.451-.156-1.778.286-2.033.277-3.425-.258-.853-.314-1.548-.652-1.565-.765-.017-.113.41-.5.979-.862l.986-.655-1.25.115c-4.476.43-6.35.22-7.681-.834l-.625-.487.84-.401c.964-.49 3.316-2.505 3.822-3.297.485-.766.06-.68-1.636.311-1.61.956-3.762 1.366-5.807 1.089-1.436-.205-5.843-1.337-5.727-1.493.038-.052.887.078 1.906.274l1.827.356 1.181-1.68c1.334-1.887 2.947-5.158 2.752-5.546-.065-.13-1.116 1.021-2.291 2.584l-2.187 2.823-1.694-.236c-1.461-.224-2.351-.162-6.213.362-4.565.605-5.719.59-5.127-.076.157-.186 1.316-.612 2.597-.986 1.262-.348 2.59-.869 2.947-1.106.892-.665 1.188-2.098.936-4.584l-.211-2.053-.339 1.764c-.454 2.382-.737 3.118-1.313 3.435-.7.404-4.689 1.48-5.115 1.404-.265-.077-.408-.426-.525-1.22-.251-1.699-1.353-3.852-2.287-4.408-.712-.451-1.216-.585-1.175-.313.01.068.338.575.718 1.121.403.543.872 1.538 1.044 2.23.408 1.515.177 2.452-.846 3.32-.369.31-1.074 1.155-1.593 1.857-.492.72-1.024 1.332-1.159 1.352-.158.023-1.307.355-2.566.726-1.258.37-2.347.647-2.398.609-.075-.036-.028-.343.109-.665.149-.392.072-1.539-.269-3.85l-.485-3.285.868-1.61c.74-1.383 1.003-2.256.665-2.206-.068.01-.625.602-1.26 1.298Zm9.759 7.265c.067.453-.459.947-1.036.94-.761-.004-.85-.454-.166-.81.83-.469 1.149-.493 1.202-.13Zm-2.451 3.997c.432.584.993 1.265 1.256 1.481.479.439.476.416.205-.794-.168-.67-.391-1.401-.515-1.614-.186-.32-.079-.382.8-.512 1.195-.176 1.648.08 2.39 1.36l.52.873-.071-1.263-.071-1.263 1.13-.144c2.935-.41 4.259-.026 4.453 1.288.134.906.51.804.814-.26.254-.778.357-.862 1.001-.865.81.02 3.882.7 4.242.948.126.074.021.923-.264 1.96-.288 1.016-.435 1.894-.334 1.949.081.08.703-.544 1.388-1.363.686-.819 1.346-1.495 1.459-1.512.139.003 1.102.44 2.172.976l1.946 1.01-.854 1.237c-.835 1.211-.985 1.604-1.187 2.884-.144.901.383.569 1.831-1.173l1.371-1.638.852.777.871.751-.589 1.314c-.331.72-.579 1.383-.569 1.45.037.25.509.018 1.282-.675.427-.387.916-.668 1.087-.6.74.33 4.388 6.622 5.822 10.092 1.56 3.705 4.581 13.864 4.248 14.26-.08.082-.707.36-1.409.602-1.686.596-3.597 1.85-4.266 2.783-.65.906-.35.908 1.36.008 1.453-.77 5.022-1.413 5.095-.915.118.793-.408 2.538-.988 3.295-.579.757-.836.888-2.935 1.498-2.784.805-3.514 1.168-4.723 2.342-2.514 2.478-3.337 6.582-1.911 9.682.926 2.063.893 2.462-.461 5.463-1.513 3.326-2.147 5.434-2.11 6.934.031.99-.118 1.383-1.138 2.9-1.087 1.689-1.577 2.895-1.657 4.227-.136 2.359-3.892 5.946-9.85 9.442-3.31 1.925-3.864 2.076-5.293 1.291-.624-.324-1.426-.762-1.794-.916-.443-.189-.718-.496-.772-.858-.134-.907-.653-1.617-1.215-1.673-.303-.025-1.515.038-2.694.166s-3.145.233-4.341.247h-2.189l3.468-.698c10.972-2.152 16.858-4.735 19.848-8.672 1.098-1.459 1.335-2.35 1.074-4.118-.448-3.037-2.098-5.317-4.807-6.653-.595-.283-1.106-.624-1.123-.738-.017-.113.504-.49 1.143-.84 2.855-1.579 5.733-4.088 7.207-6.274 1.229-1.825 1.273-2.619.348-4.358l-.697-1.286 1.173-1.886c.652-1.046 1.392-2.429 1.64-3.09.47-1.343.65-4.496.348-6.697-.413-2.949-.303-3.613.898-5.62.588-1.013 1.832-2.887 2.724-4.176l1.619-2.3 1.542.143c1.706.165 2.26.014 2.163-.644-.077-.52-.465-.649-2.674-.948l-1.762-.226-1.241 1.735c-.685.98-1.974 2.861-2.86 4.196l-1.621 2.439-.934-1.02c-.5-.574-1.792-1.68-2.88-2.492-3.217-2.442-6.674-3.229-11.097-2.599-4.51.666-7.446 2.628-9.868 6.667-1.684 2.795-1.977 5.177-1.217 9.233.752 3.848 1.402 4.817 5.621 8.107 1.094.857 1.742 1.503 1.624 1.636-.096.13-1.253.88-2.541 1.672l-2.388 1.464-1.12-.252c-1.762-.388-3.805-2.054-4.896-3.977-1.028-1.816-1.49-1.98-1.017-.336.614 2.132 1.524 3.456 3.256 4.729l1.628 1.195-1.009.658-1.009.658-2.205-1.202c-1.206-.679-2.91-1.446-3.755-1.715-1.89-.624-2.346-.44-3.436 1.387l-.75 1.315-.527-2.63c-.54-2.723-1.208-4.592-2.264-6.126-.796-1.18-3.102-3.062-4.604-3.72-3.778-1.711-9.496-.96-13.247 1.724l-.835.587-.606-.513c-1.06-.931-.973-1.755.3-3.425 2.027-2.66 4.437-4.128 7.571-4.59 2.503-.37 3.045-.288 3.16.482.086.59.135.606.862.382.705-.22.876-.152 2.015.699a108.55 108.55 0 0 1 2.75 2.233c.819.713 1.479 1.125 1.452.943-.08-.543-1.978-2.787-3.686-4.364-1.305-1.197-1.565-1.552-1.682-2.345-.207-1.243-1.065-2.529-2.33-3.453l-1.055-.747.47-2.431c.241-1.333.409-2.538.344-2.667-.16-.301-1.563 2.684-2.216 4.656l-.476 1.46 1.414.833c2.144 1.258 3.53 2.998 2.259 2.816-2.846-.39-4.19-.285-6.648.541-.615.207-.583.11.434-.805 1.52-1.405 2.196-2.292 2.122-2.79-.033-.227-.427-.864-.897-1.396-1.149-1.382-1.284-2.45-.528-4.044.367-.795.991-1.559 1.768-2.229 2.034-1.666 1.671-2.099-.552-.613-3.145 2.108-4.08 4.978-2.435 7.537.803 1.225.821 1.662.171 1.943-.324.14-.958.998-1.628 2.232-.597 1.107-1.425 2.363-1.842 2.819-.42.432-1.063 1.384-1.446 2.065-.38.705-.78 1.273-.893 1.29-.586.086-.978-6.94-.513-9.093.535-2.464 2.104-5.567 4.456-8.831l2.144-2.957 1.542.143c.845.107 1.883.116 2.29.056l.74-.133-.608-.373c-.327-.183-1.072-.397-1.637-.476l-1.029-.103.438-.62c.7-1.03 4.738-4.428 5-4.212.075.036.31.696.56 1.446.651 1.918.991 1.567.779-.81l-.169-1.92 2.195-1.366 2.172-1.362.534.5c.48.438.542.707.641 2.313.103 1.629.152 1.807.428 1.488.355-.4.884-2.747.78-3.45-.04-.271-.261-.678-.475-.878-.59-.561-.539-.685.376-1.352 1.503-1.056 2.068-.977 3.492.55.301.325.307.208.047-.772-.369-1.404-.23-1.563 2.483-2.844 2.367-1.137 2.573-1.144 2.694-.328.06.408.362.895.78 1.227l.68.548-.263-.84c-.296-1.069-.123-1.927.507-2.345.462-.3 6.126-2.2 7.134-2.396.38-.08.691.153 1.295.967Zm10.586 21.915c3.722.4 7.237 2.358 9.193 5.148l1.023 1.47-3.593 5.624-3.597 5.602-3.49 2.113c-3.91 2.383-4.814 2.818-5.701 2.74-1.287-.134-4.448-2.816-6.134-5.183-.529-.779-.671-1.268-1.085-4.077-.452-3.06-.456-3.244-.009-4.583 1.399-4.259 4.159-7.098 8.21-8.53.856-.288 3.686-.474 5.183-.325Zm11.076 10.728c.178 3.702-.477 6.6-1.942 8.692-.896 1.267-1.395 1.317-2.542.26-1.653-1.517-1.663-1.584-.803-3.1 1.497-2.653 4.995-7.985 5.135-7.82.026.019.089.912.152 1.968Zm-49.581 7.344c2.76.125 5.255 1.262 6.974 3.23 1.583 1.828 2.318 3.525 2.746 6.425.194 1.315.284 2.552.195 2.727-.153.37-.017.35-7.345.343-4.082-.022-10.222.213-11.665.426-1.398.207-1.587-.136-1.364-2.53.237-2.606 1.515-6.591 2.54-7.923.444-.576 1.243-1.25 1.906-1.602 1.282-.675 4.065-1.179 6.013-1.096Zm71.981-4.353c5.845 2.448 7.513 3.29 10.528 5.299 3.96 2.633 5.703 4.136 6.491 5.57.348.644 2.154 4.452 4.014 8.461 1.855 3.986 4.272 9.117 5.371 11.409 1.098 2.292 2.006 4.381 2.001 4.659-.003.603-.829 1.095-3.67 2.14-3.939 1.415-12.766 3.737-16.329 4.263-1.691.25-1.994.225-2.157-.098-.437-.931-4.33-14.503-5.733-19.946-.744-2.854-.001-4.376 3.354-6.932 2.155-1.638 1.963-2.003-.257-.494-2.075 1.394-3.459 2.942-3.9 4.327-.326 1.066-.309 1.342.205 3.882.685 3.395 2.676 10.95 4.838 18.411 4.549 15.675 4.724 16.39 3.954 18.356-.639 1.599-2.995 4.841-4.979 6.848-1.927 1.928-6.036 5.313-9.388 7.73-2.647 1.896-3.203 2.186-3.28 1.665-.02-.136-.373-1.751-.757-3.57-1.201-5.634-3.078-10.08-6.208-14.735-2.096-3.117-3.667-5.016-7.93-9.549-1.943-2.075-3.671-3.95-3.846-4.202-.312-.394-.158-.602 1.805-2.443 3.076-2.885 3.987-4.201 4.938-7.282.945-2.964 1.166-3.182 4.633-4.666 4.31-1.864 5.6-3.582 5.679-7.576l.032-1.811 1.708-.137c2.939-.225 4.346-.525 5.117-1.08 1.936-1.397 2.516-3.242 2.031-6.528-.351-2.379-1.128-4.047-2.793-6.116l-.967-1.247.424-1.498c.25-.801.501-2.227.596-3.144.084-1.147.216-1.653.429-1.615.168.045 2.007.792 4.046 1.649Zm-5.995.908c-.084.684-.403 1.796-.696 2.464l-.558 1.217 1.634 2.329c1.904 2.752 2.549 4.463 2.525 6.643-.013 1.785-.349 2.784-1.187 3.51-.982.839-4.433 1.186-6.286.65-1.398-.42-3.601-1.761-4.587-2.82-1.715-1.784-1.599-5.529.275-8.283 1.001-1.49 1.798-2.025 4.529-3.03 1.268-.465 2.538-1.07 2.846-1.323.655-.56 1.498-2.028 1.424-2.526-.026-.181.028-.282.109-.201.078.058.074.66-.028 1.37Zm-21.996 6.142c2.268 2.096 3.466 3.494 3.556 4.105.104.703-1.489 3.022-3.113 4.512-2.957 2.752-6.488 4.431-10.675 5.096-2.41.379-2.687.373-3.853-.033-1.68-.61-6.342-3.162-6.221-3.435.223-.519 17.673-11.385 18.481-11.527.203-.03 1.025.543 1.825 1.282Zm-27.153 8.5c3.3 1.597 8.772 4.795 8.851 5.177.094.634-.929 1.04-3.654 1.466-1.443.213-3.185.586-3.845.799-2.42.774-4.594 1.188-4.815.942-.113-.145-.462-1.413-.808-2.82l-.588-2.577.835-1.211c.454-.67.972-1.533 1.125-1.903.175-.373.473-.695.676-.725.18-.026 1.182.358 2.223.853Zm-21.138 3.214c9.476-.426 13.868-.172 14.757.855.606.674.861 3.647.444 5.19-.373 1.375-1.564 2.986-2.957 4.002-1.018.753-1.305.841-3.473 1.138-1.987.27-2.632.273-4.017-.055-4.36-.977-7.917-3.37-9.522-6.443-.574-1.073-1.42-3.842-1.26-4.167.12-.272-.473-.231 6.028-.52Zm64.214 2.027c.01 2.568-.72 4.644-2.014 5.553-.752.528-3.122 1.642-3.686 1.725-.135.02-.291-.258-.341-.598-.194-1.314.573-4.23 2.179-8.333l.751-1.94 1.56 1.205 1.535 1.186.016 1.202Zm-31.65 2.705c.076.984.111 2.16.085 2.603-.041.817-.041.817-1.217.967-1.495.175-1.899-.067-2.054-1.27-.215-1.613.071-2.489 1.088-3.24.498-.375 1.164-.705 1.457-.749.541-.08.544-.057.641 1.689Zm68.355-8.31c2.629 1.418 6.709 3.617 9.034 4.848 2.347 1.228 4.604 2.47 5.015 2.756l.766.512-2.567.402-2.548.376-2.314 1.963c-2.538 2.157-3.544 2.838-4.355 2.958-.519.077-.646-.16-2.31-3.78-4.541-10.004-5.712-12.632-5.622-12.646.067-.01 2.269 1.17 4.901 2.61Zm-75.997 11.013.301 2.039-.859.428c-.472.231-2.043.672-3.495.979l-2.615.548-.082-1.493c-.053-.826-.043-1.846.032-2.274.106-.687.186-.768 1.043-.895.519-.076 1.443-.375 2.025-.646.608-.252 1.602-.537 2.215-.605l1.134-.12.301 2.038Zm12.376-3.564c.896-.017 1.747-.027 1.905-.05.226-.033.305.349.393 1.725.054.987.033 1.94-.082 2.096-.105.224-.926.437-2.64.69l-2.48.367-.137-2.018c-.202-2.772-.189-2.843.691-2.81.416.007 1.477.013 2.35 0Zm5.713-.474c1.856 1.023 3.151 1.99 3.218 2.443.034.226-.274.642-.752.99-.941.649-4.343 2.263-5.02 2.363-.406.06-.377-.06.189-.908.582-.896.635-1.159.536-2.765-.093-1.723.04-2.692.424-2.748.09-.014.73.262 1.405.625Zm-15.002 3.883c.51 2.517.588 2.576 3.077 2.579.99-.008 2.022.118 2.342.256.371.176 1.245.163 2.759-.037 3.618-.465.869.265-4.854 1.295-5.611 1.014-5.588 1.011-4.957-.958.206-.632.293-1.757.234-2.628-.165-2.36-.13-2.597.469-2.593.461.002.526.13.93 2.086ZM91.832 97.09c.049 1.266-.204 1.581-.56.73-.187-.481.181-2.203.418-2.006.074.035.139.628.142 1.276Zm31.551-1.348c.581.817.729 2.44.297 3.73-.93 2.754-4.986 5.552-10.769 7.425-1.912.63-3.635.977-8.28 1.663l-5.863.865-2.71-.572c-1.498-.311-2.893-.707-3.1-.862-.36-.248-.334-.391.084-1.147.782-1.412 2.445-2.792 4.147-3.437.856-.289 4.191-1.105 7.453-1.795 10.463-2.17 14.353-3.44 17.153-5.543 1.163-.866 1.185-.87 1.588-.327Zm-23.685 4.377c.085.103.044.295-.059.379-.327.28-4.788 2.212-5.24 2.279-.315.046-1.007-.893-1.094-1.483-.05-.339 6.118-1.482 6.393-1.175Zm87.844.089c4.972 6.211 8.902 12.23 13.77 21.166 3.347 6.128 4.101 7.336 6.628 10.714 2.208 2.939 4.092 5.555 4.118 5.736.054.363-1.214.828-4.739 1.765-6.474 1.72-7.014 1.962-13.563 5.985-2.429 1.493-4.621 2.72-4.876 2.711-.345.005-.653-.366-1.21-1.488-.906-1.765-1.415-2.245-2.249-2.122-.699.103-1.643 1.354-2.576 3.46-1.163 2.579-.864 2.419-6.926 3.5l-5.346.928-1.566-.463c-.866-.243-2.686-.715-4.075-1.066-1.384-.328-2.554-.757-2.626-.932-.071-.175.157-.81.486-1.391.782-1.413 2.244-2.439 7.448-5.268 2.24-1.21 4.85-2.73 5.817-3.359 4.484-3.024 6.621-6.651 6.328-10.821-.13-1.972-.701-3.972-2.827-10.095-1.244-3.59-1.612-4.832-1.488-5.244.127-.389.598-.783 1.631-1.283 1.951-.983 2.927-1.706 3.265-2.381.591-1.152-.23-3.902-2.429-8.185l-.945-1.875 1.33-.821a22.556 22.556 0 0 0 2.434-1.772c.594-.504 1.13-.93 1.198-.94.067-.01 1.407 1.574 2.988 3.541Zm-80.195 12.234 2.297-.362.087.589c.15 1.019.915 1.833 2.068 2.149.578.169 1.079.442 1.106.624.027.181-.291.992-.725 1.797a54.362 54.362 0 0 0-1.686 3.722l-.91 2.264-.429-.723c-.592-1.048-1.053-1.049-1.751.003l-.607.877-.345-.62c-.32-.601-.439-.63-1.499-.474l-1.127.167-.195-.851c-.175-.715-.285-.838-.885-.842l-.693-.013-.491-3.17c-.257-1.744-.602-3.453-.765-3.776l-.274-.608 2.252-.194c1.251-.115 3.29-.347 4.572-.559Zm15.339 1.833c1.072.861 5.049 4.858 5.093 5.153.013.09-1.823.454-4.1.79l-4.127.609-1.517-2.16c-.841-1.173-1.524-2.207-1.534-2.275-.04-.271 4.106-2.62 4.892-2.759.2-.053.775.256 1.293.642Zm58.564-7.211c.15.232.353.828.427 1.326.177 1.201-.365 1.744-2.989 3.011-2.65 1.248-4.728 1.995-7.906 2.788-3.223.8-11.019 2.299-11.249 2.148-.1-.055-.346-.783-.56-1.608l-.379-1.472 1.198-.316a304.01 304.01 0 0 1 5.319-1.271c5.39-1.259 9.603-2.53 12.504-3.792 2.859-1.232 3.239-1.311 3.635-.814Zm-49.979 16.201c3.375 4.132 7.488 11.235 7.823 13.501.154 1.042.103 1.166-1.245 2.962-2.262 3.09-7.609 7.607-13.661 11.557-5.23 3.435-6.7 4.092-12.321 5.5l-3.22.823-.552.938c-.294.507-1.353 2.075-2.296 3.488-3.093 4.486-3.502 5.935-2.412 8.321 1.024 2.257 1.975 3.39 4.144 4.968 3.097 2.252 3.54 2.603 4.124 3.281 1.34 1.585.527 2.631-2.542 3.224-1.723.347-1.978.338-2.634-.051-1.058-.608-3.202-3.117-5.493-6.46-2.115-3.091-2.998-4.859-3.253-6.581-.154-1.043-.56-1.77-.81-1.432-.234.289.471 4.283.928 5.35.22.547 1.355 2.463 2.48 4.311 1.145 1.823 2.186 3.567 2.323 3.871.219.547.199.573-.928.739-1.353.2-2.147-.03-3.297-.948-2.007-1.58-2.944-3.71-3.861-8.831-.382-2.12-.778-3.867-.869-3.854-.09.013-.288.853-.441 1.848-.32 2.201-.04 4.567.862 7.398.34 1.061.575 2.022.498 2.126-.234.289-4.42-2.936-5.25-4.041-.52-.71-.909-1.625-1.293-2.981-.652-2.381-.679-3.813-.095-5.01.56-1.195.408-1.45-.41-.75-1.275 1.045-1.32 1.676-.612 6.156.61 3.823.64 4.027.235 4.087-.677.1-2.016-.86-2.647-1.855-.514-.827-.577-1.096-.602-2.829.007-1.043-.27-3.386-.586-5.215l-.563-3.344.903-1.221.922-1.248 4.78-.706c4.667-.689 4.844-.738 6.513-1.61 3.035-1.605 5.222-3.642 9.892-9.309 5.926-7.15 6.885-7.986 15.177-13.309l3.409-2.193-.204-1.382c-.264-1.791-1.301-5.064-2.381-7.544-.483-1.087-.882-2.07-.905-2.228-.06-.408.629-.579 4.784-1.147l3.837-.543 1.749 2.173Zm45.088-7.977c.641 1.063 3.103 8.062 3.811 10.829.872 3.413.932 4.91.284 6.765-1.127 3.13-3.89 5.483-10.747 9.135-5.34 2.849-6.778 3.872-8.228 5.915a37.898 37.898 0 0 1-2.838 3.406c-2.119 2.188-2.746 3.091-3.23 4.806-.604 2.15-.206 3.597 2.042 7.432.96 1.665 1.735 3.171 1.694 3.362-.085.36-1.063.759-2.416.959l-.947.14-1.46-2.401c-1.399-2.294-3.085-5.912-3.245-7-.117-.793-.533-.801-.577-.007-.088 1.124.838 3.65 2.526 6.967l1.561 3.08-.722.107c-1.127.166-2.999-.183-4.124-.78-1.798-.939-2.687-2.591-3.872-7.185-.985-3.86-1.517-3.249-.881 1.056.394 2.512.496 2.89 1.64 5.176 1.137 2.24 1.222 2.505.931 2.872-.266.387-.408.361-1.648-.081-1.802-.66-3.409-2.02-4.848-4.123-1.085-1.576-1.481-2.537-2.603-6.237l-.151-.557-.216.726c-.329 1.207-.086 3.162.56 4.572.313.717 1.293 2.356 2.18 3.683 1.212 1.813 1.541 2.482 1.358 2.648-.144.114-.92.321-1.687.434-1.307.193-1.52.155-2.126-.357-.961-.738-2.849-3.377-4.485-6.192-1.481-2.536-2.342-4.47-2.859-6.408-.945-3.588.974-5.886 7.592-8.97 4.528-2.104 6.508-3.207 9.457-5.24 4.48-3.046 7.117-5.635 12.814-12.612 1.111-1.368 3.05-3.53 4.307-4.85 2.581-2.65 3.061-3.3 3.265-4.256.281-1.222.104-1.173-1.142.377-.717.916-1.991 2.123-3.137 2.941l-1.914 1.394-.161-1.088c-.09-.612-.581-2.531-1.093-4.284-.516-1.776-.879-3.297-.802-3.401.096-.13 2.64-.691 5.642-1.273 3.024-.585 6.083-1.245 6.813-1.446a26.278 26.278 0 0 1 2.289-.57c.899-.155.999-.101 1.393.536Zm-36.078 25.771c.155.58.372 2.053.463 3.289.188 2.056.154 2.293-.261 2.447-4.897 1.788-7.764 3.439-9.642 5.545-1.224 1.385-1.884 1.598-6.597 2.294l-2.841.419 4.433-3.062c6.356-4.389 10.788-8.076 12.892-10.679.545-.683 1.042-1.219 1.106-1.252.09-.013.273.446.447.999Zm65.81 2.694c-2.897 7.999-8.265 19.396-10.908 23.19-.592.828-1.857 2.242-2.833 3.127-.972.908-1.904 1.925-2.083 2.276-.344.791-.528 3.134-.317 4.561l.157 1.065-1.191.825c-2.303 1.567-3.798 4.242-3.902 6.966-.016.674.562 5.682 1.294 11.108 1.062 7.97 1.508 10.683 2.31 14.084.725 3.042.942 4.353.809 4.696-.159.487-.317.51-4.061.901-3.65.4-4.008.476-5.516 1.185-2.412 1.143-4.337 1.52-5.645 1.088-.578-.169-2.849-1.501-5.068-2.956-3.95-2.566-4.522-2.852-7.079-3.47-1.265-.299-1.291-.319-2.462-2.16l-1.196-1.861 1.361-2.331c.754-1.292 1.599-2.899 1.892-3.568.615-1.456 1.214-4.578 1.066-5.575-.053-.362-.016-.738.086-.823.08-.081 1.2.17 2.434.567 3.556 1.142 3.836 1.17 4.803.541 3.534-2.282 12.78-13.788 14.19-17.654l.426-1.175-1.319-1.912c-3.012-4.325-6.408-6.88-11.877-8.967l-1.66-.634-.88-5.96c-.482-3.263-.856-6.264-.842-6.636l.035-.7 1.442.25c2.643.42 11.204-1.052 13.096-2.281.273-.179.973-1.371 1.52-2.655.574-1.266 1.132-2.321 1.245-2.338.384-.056.76.467 1.222 1.719.242.705.652 1.455.921 1.716.48.439.502.435 1.776-.146.714-.314 3.179-1.72 5.505-3.129 5.942-3.609 8.437-4.811 11.114-5.253l1.034-.175-.899 2.494Zm-76.973 11.898c.117.168-.021 1.577-.254 3.117-.696 4.339-.18 7.829 1.465 9.925.851 1.078 1.739 1.479 3.342 1.567 1.187.079 1.287.134 1.53.839.746 2.089 4.442 21.502 4.651 24.481.17 2.244.034 2.727-.773 3.032-.348.144-3.481.769-7.005 1.405l-6.393 1.175-1.237-1.045c-1.518-1.234-3.22-3.553-4.348-5.887-.463-.95-1.623-3.812-2.571-6.335-.975-2.542-2.666-6.506-3.772-8.843-3.391-7.21-3.591-7.782-4.524-12.854-.8-4.327-.834-4.554-.51-5.482.591-1.615.786-1.852 1.939-2.161 1.02-.267 10.782-2.032 15.981-2.869 1.865-.322 2.349-.324 2.479-.065Zm31.728-2.486c1.119 1.803 2.474 5.516 2.85 7.753.509 2.981.341 3.4-4.972 11.894-5.069 8.111-6.436 10.559-7.132 12.862-.577 1.868-.413 2.978 1.331 9.643 2.603 9.827 3.73 13.087 5.453 15.866.755 1.208.902 1.58.733 1.999-.193.561-1.928 1.766-4.223 2.916-.795.395-1.736 1.043-2.072 1.417-.337.374-1.237 2.081-2.043 3.798-1.638 3.576-2.095 4.222-3.273 4.674-1.283.513-1.813.36-2.089-.572-.62-2.015-3.482-16.249-4.29-21.409l-.597-3.732.529-1.097.53-1.097-.823-6.037c-.443-3.315-1.207-8.018-1.7-10.423-.516-2.401-1.155-5.641-1.476-7.191l-.554-2.813.845.57c.459.303 1.351 1.352 1.975 2.302 1.278 1.941 2.587 3.16 3.817 3.535 2.267.684 11.061-1.865 12.328-3.58.365-.494.357-.701.024-2.18-.297-1.23-.322-1.713-.13-1.972.131-.205 1.076-.669 2.08-1.048 1.004-.38 2.104-.89 2.438-1.124.539-.404.571-.502.337-1.463-.155-.579-.999-2.237-1.884-3.704-1.336-2.187-1.702-2.944-1.963-4.248-.355-1.777-.226-2.467.803-4.078.601-.922 2.012-2.45 2.327-2.497.09-.013.457.442.821 1.036Zm3.252-.758c.798.253 1.635.616 1.849.816.343.296.549 1.377 1.305 6.498.498 3.377.907 6.766.927 7.527l-.002 1.39-3.022 4.035c-2.061 2.736-3.167 4.45-3.479 5.306-.463 1.389-.714 3.903-.493 5.399.137.929.137.929-.786 1.227-1.388.437-3.91 1.92-5.766 3.398-.908.713-1.676 1.29-1.721 1.296-.203.03-.24-1.469-.065-2.468.423-2.285 1.726-4.7 7-12.98 6.513-10.2 6.729-11.228 3.813-18.183a103.956 103.956 0 0 0-1.4-3.243c-.309-.534.152-.532 1.84-.018Zm-57.197 11.317c.804 3.887 1.587 6.85 2.3 8.713.491 1.294.816 2.404.736 2.485-.308.254-2.139-.911-2.999-1.896-2.083-2.401-2.854-4.348-2.363-6.018.344-1.255 1.552-3.216 2.003-3.283.181-.027.319-.024.323-.001Zm24.924.117c.71 1.377 1.553 2.873 1.871 3.312.761 1.092.739 1.257-.14 1.387-1.015.15-2.209-.6-2.685-1.641-.385-.892-1.169-5.731-.958-6.017.192-.26.459.14 1.912 2.959Zm20.363 6.209c.878.171 1.62.362 1.672.401.21.177.79 3.009.646 3.285-.229.474-3.846 1.726-7.169 2.471l-2.898.659-1.214-.886c-1.239-.905-2.029-2.038-1.875-2.71.041-.191.529-.633 1.078-.969a30.99 30.99 0 0 0 1.684-1.082c.642-.489.69-.473 1.279-.073.311.232.948.485 1.351.564.71.127.884.055 1.946-.866.635-.534 1.348-1.009 1.548-1.062.203-.03 1.097.093 1.952.268Zm21.93.281c1.089.511 2.544 1.314 3.233 1.768l1.249.812-1.858 3.492c-2.911 5.408-3.564 7.38-4.063 12.27l-.193 1.973-1.381-1.394c-1.812-1.816-3.999-3.368-6.2-4.386-1.997-.886-2.205-1.203-2.293-3.204-.108-2.601.82-4.428 5.12-9.948.871-1.125 1.664-2.307 1.734-2.618l.126-.551 1.259.416c.701.221 2.174.837 3.267 1.37Zm8.287 7.598c.128.398.215.987.194 1.314-.086.823-1.777 3.411-5.209 7.947-2.737 3.622-2.977 3.866-3.128 3.31-.296-1.068.181-4.704.948-7.156.687-2.208 2.706-6.327 4.018-8.211l.515-.724 1.197 1.398c.668.781 1.341 1.747 1.465 2.122Zm-18.066 8.409c2.215.646 7.484 5.124 7.692 6.529.083.566-.634 1.482-2.078 2.622-1.069.875-.86.891-4.765-.593-1.419-.555-3.95-1.316-5.645-1.714-3.46-.809-5.298-1.394-5.606-1.765-.503-.597 3.181-3.735 5.713-4.849 1.428-.628 3.007-.699 4.689-.23Zm-6.914 7.944c1.546.328 2.976.649 3.189.687.313.093.375.361.428 1.812.078 1.772-.304 3.866-1.065 5.738-.42 1.057-1.822 3.418-2.118 3.6-.212.124-.802-1.687-2.314-7.09-1.371-4.915-1.447-5.274-1.131-5.321.112-.017 1.465.247 3.011.574Zm-18.752 6.89c.156.278.748 2.877 1.314 5.78 2.784 14.014 3.647 18.146 3.847 18.719.197.55.142.65-.912 1.315-.61.392-2.235 1.558-3.599 2.616-1.368 1.035-2.643 1.918-2.846 1.948-.992.147-1.872-1.599-3.034-6.035-1.23-4.588-2.204-9.307-3.456-16.693l-1.129-6.71 4.781-.706c4.735-.699 4.78-.706 5.034-.234Zm-9.052 16.873c.159.139.479.902.731 1.675.624 2.038 2.326 9.196 2.233 9.348-.061.056-1.178-.335-2.503-.88-1.325-.546-3.475-1.224-4.786-1.516-2.217-.507-3.009-.876-3.093-1.442-.063-.431.726-2.886 1.202-3.72 1.05-1.938 5.309-4.304 6.216-3.465Zm34.647-3.472c.692.315 2.186 1.229 3.309 1.966 1.126.76 3.316 2.173 4.862 3.126 3.571 2.181 4.708 3.171 4.852 4.146.177 1.2-.177 1.924-1.457 3.086-2.621 2.378-3.752 1.897-12.143-5.154-3.157-2.659-5.276-4.06-6.538-4.336-.882-.194-.735-.448.802-1.276a49.365 49.365 0 0 0 2.391-1.442c1.362-.919 2.232-.954 3.922-.116Zm-8.521 4.083c.904.191 2.173.675 2.83 1.064 2.481 1.509 7.952 6.42 9.32 8.349.377.523.807 1.409.977 1.939.588 1.951-.818 3.038-2.976 2.315-1.117-.391-3.969-1.915-8.231-4.411-1.766-1.036-3.897-2.203-4.737-2.588-.863-.382-1.568-.788-1.588-.924-.067-.453 2.379-6.047 2.672-6.09.045-.007.826.133 1.733.346Zm31.844-.766c3.48-.305 3.529-.289 3.766 1.32.107.725.164 2.198.118 3.293a184.8 184.8 0 0 0-.093 2.492c-.046 1.095-1.119 2.249-3.994 4.317-1.586 1.114-3.893 2.659-5.117 3.418-5.449 3.352-18.867 9.385-18.991 8.546-.016-.113.405-.847.926-1.688 1.199-1.867 1.424-2.687 1.166-4.432-.181-1.224-.159-1.389.219-1.329 3.51.524 5.436-.942 5.011-3.819l-.133-.907 1.349.403c.724.217 1.685.33 2.113.267 1.872-.277 4.937-3.392 5.015-5.047.03-1.047-.346-2.033-1.206-3.179-.374-.501-.67-.943-.65-.969.041-.03.559-.268 1.145-.517a137.38 137.38 0 0 0 2.489-1.085 8.185 8.185 0 0 1 2.884-.75c.822-.052 2.62-.202 3.983-.334Zm-63.42 10.059c2.175.374 4.947 1.354 6.851 2.392 1.626.871 3.807 2.379 3.841 2.605.013.091-.657.861-1.477 1.7-1.283 1.301-2.31 2.772-3.219 4.573-.191.422-.304.439-2.393.331-1.903-.09-8.102-.564-15.52-1.182-3.125-.256-3.125-.256-2.682-2.405.832-4.036 2.307-5.597 6.696-7.079 2.851-.976 5.796-1.318 7.903-.935Zm28.561-.999c.831.318 1.771.758 2.124.96l.634.393-.588-.075c-.912-.097-4.772-1.426-4.996-1.694-.367-.455 1.259-.209 2.826.416Zm-4.978 1.083c2.075.319 9.554 2.757 11.982 3.903 2.204 1.041 3.783 2.22 4.143 3.093.604 1.439-.17 3.22-2.404 5.565l-1.119 1.161-1.663.129c-1.663.13-2.205.048-14.442-2.313-4.221-.812-7.098-.943-10.548-.434l-2.145.294 1.3-1.651c1.972-2.56 7.241-7.135 10.355-8.984 1.459-.887 2.605-1.079 4.541-.763Zm-29.093 12.376c6.09.513 11.141 1.018 11.251 1.14.11.123.396 1.123.621 2.178.228 1.077.74 2.669 1.141 3.513 1.077 2.457 1.112 2.382-.884 2.909-.956.233-3.649.724-6.016 1.073-6.25.9-8.843.658-12.36-1.162-3.217-1.655-5.852-4.206-6.511-6.332-.39-1.239.397-4.018 1.187-4.134.293-.044 5.508.321 11.571.815Zm75.325-12.604c1.919 1.292 2.046 2.778.404 4.456-2.023 2.058-13.341 9.981-17.166 12.004-2.392 1.279-8.498 3.617-10.643 4.072-1.562.347-1.745.35-1.938-.015-.101-.216-.771-1.321-1.508-2.416-1.106-1.713-1.25-2.062-1.009-2.306.16-.162 1.228-.575 2.332-.9 7.385-2.109 21.043-9.474 26.662-14.333.712-.637 1.441-1.162 1.576-1.182.158-.023.753.26 1.29.62Zm-56.746 12.662c3.036-.193 3.53-.127 11.986 1.588 3.017.62 6.563 1.23 7.899 1.381 2.829.276 3.31.414 3.39.958.03.204.678 1.312 1.441 2.426.745 1.141 1.33 2.143 1.25 2.224-.326.442-2.377.907-7.992 1.736l-6.201.915-5.424-.843c-7.263-1.127-8.796-1.526-9.624-2.608-.688-.917-1.824-3.458-2.34-5.234-.568-1.977-.137-2.18 5.615-2.543Zm44.557 3.563c.472.231 1.086 1.738 1.055 2.622 0 .464-.106 1.313-.232 1.864l-.216 1.027-6.466.839c-3.55.455-9.359 1.22-12.886 1.671l-6.399.829.68 3.512.703 3.508-3.042.31c-1.679.179-4.717.512-6.782.724-2.062.235-3.996.405-4.276.377l-.562-.056-.552-4.364c-.335-2.428-.543-4.458-.485-4.536.057-.078 1.019.035 2.155.237 3.504.641 6.479.502 12.66-.549 8.203-1.397 15.094-3.572 21.055-6.582l.185-.094c2.967-1.507 3.015-1.531 3.405-1.339Zm-46.403 7.338c1.253-.093 2.894-.057 3.646.04l1.342.195.352 2.38.348 2.356-.722.107c-4.603.656-17.459 2.068-18.884 2.093-2.211.003-2.822-.231-3.331-1.337-.502-1.06-.515-2.864-.043-3.258.414-.316 13.96-2.362 17.292-2.576Zm19.916 10.673c.207.155 2.531 11.366 3.104 14.939.03.204.27.423.551.451.781.14 2.202 1.18 2.89 2.097.952 1.295 1.255 3.821.674 5.504-.828 2.507-2.63 3.722-6.215 4.252l-2.255.333-.974-.667c-1.404-.927-2.771-2.855-2.966-4.169-.18-1.224.111-2.216 1.263-4.401 1.168-2.233 1.196-2.353.838-4.778-.331-2.243-2.153-10.68-2.641-12.275l-.266-.863 2.858-.307c1.588-.165 3.01-.212 3.139-.116ZM89.78 51.363c-.278.296-1.302 1.79-2.277 3.3-.972 1.533-2.227 3.177-2.798 3.678-1.328 1.145-3.075 1.797-4.63 1.725-.629-.046-1.154-.015-1.14.076.09.612 2.525 1.34 4.701 1.413 1.251.047 1.702-.02 2.96-.553 1.434-.582 2.09-.98 8.431-5.158 3.023-1.998 5.142-3.098 6.977-3.623.553-.151 1.132-.445 1.241-.646.351-.585-.819-.551-3.372.104-2.772.733-3.73 1.268-9.305 5.17-2.274 1.61-4.208 2.868-4.286 2.81-.055-.061.242-.707.708-1.447.946-1.552 3.516-6.308 3.757-7.015.229-.636-.29-.56-.966.166Zm22.071-2.356c-3.798 1.117-7.288 4.318-8.402 7.7-.653 1.973-.322 2.34.559.66 1.605-3.016 3.812-5.079 6.598-6.185 1.74-.697 5.415-1.24 7.463-1.102 3.374.22 7.376 2.361 10.288 5.543 1.71 1.901 1.913 1.408.322-.788-1.364-1.906-5.402-5.06-7.265-5.665-3.003-.992-6.537-1.05-9.563-.163Zm-40.935 8.638c-.628.578-1.394 1.479-1.665 1.982l-.489.906.563 1.005c1.058 1.858 1.039 1.884-.047 3.271-1.184 1.495-1.228 1.826-.137 1.41.914-.367 2.611-2.446 2.69-3.315.044-.33-.124-.838-.383-1.193-.666-.92-.65-1.433.128-3.03 1.234-2.566 1.117-2.734-.66-1.036Zm47.226 7.752c-.434.18-1.043 1.984-.933 2.731.04.272.414.773.828 1.082 1.058.77 2.118.614 3.06-.498.903-1.06.961-1.763.228-2.511-.872-.913-2.167-1.255-3.183-.804ZM77.086 80.235c-.75.851-.837 1.975-.2 2.854.259.355.683.733.929.835 1.53.538 3.348-.888 3.117-2.451-.14-.952-.993-1.73-2.073-1.87-1.149-.132-1.084-.165-1.773.632Zm61.967-1.486c-.601.46-1.264 1.113-1.443 1.463-1.229 2.289.908 5.215 3.959 5.436 1.187.08 1.39.05 2.074-.468 1.078-.808 1.419-2.248.999-4.154-.191-.828-.541-1.795-.824-2.147-.991-1.405-2.931-1.443-4.765-.13Zm3.451.903c.64.9 1.062 2.668.824 3.397-.454 1.295-2.062 1.486-3.512.403-1.372-1.024-1.299-2.401.177-3.638.986-.817 1.991-.873 2.511-.162Z" fill="#000"/><path d="M187.591 217.89c3.48-.305 3.529-.289 3.766 1.32.107.725.164 2.198.118 3.293a184.8 184.8 0 0 0-.093 2.492c-.046 1.095-1.119 2.249-3.994 4.317-1.586 1.114-3.893 2.659-5.117 3.418-5.449 3.352-18.867 9.385-18.991 8.546-.016-.113.405-.847.926-1.688 1.199-1.867 1.424-2.687 1.166-4.432-.181-1.224-.159-1.389.219-1.329 3.51.524 5.436-.942 5.011-3.819l-.133-.907 1.349.403c.724.217 1.685.33 2.113.267 1.872-.277 4.937-3.392 5.015-5.047.03-1.047-.346-2.033-1.206-3.179-.374-.501-.67-.943-.65-.969.041-.03.559-.268 1.145-.517a137.38 137.38 0 0 0 2.489-1.085 8.185 8.185 0 0 1 2.884-.75c.822-.052 2.62-.202 3.983-.334Z" fill="#000"/><path d="m100.177 95.557.301 2.039-.859.428c-.472.231-2.043.672-3.495.979l-2.615.548-.082-1.493c-.053-.826-.043-1.846.032-2.274.106-.687.187-.768 1.043-.895.52-.076 1.443-.375 2.025-.646.608-.252 1.602-.537 2.215-.605l1.134-.12.301 2.039ZM107.819 92.854c.076.984.111 2.16.085 2.604-.041.816-.041.816-1.217.966-1.495.175-1.899-.066-2.054-1.27-.215-1.613.071-2.489 1.089-3.24.497-.375 1.163-.705 1.456-.748.541-.08.544-.058.641 1.688ZM112.553 91.993c.896-.017 1.747-.027 1.905-.05.226-.033.305.349.393 1.725.054.987.033 1.94-.082 2.096-.105.224-.926.437-2.64.69l-2.48.367-.137-2.018c-.202-2.771-.189-2.843.691-2.81.416.007 1.477.013 2.35 0ZM99.698 100.119c.085.103.044.295-.059.379-.327.28-4.788 2.212-5.24 2.279-.315.046-1.007-.893-1.094-1.483-.05-.339 6.118-1.482 6.393-1.175Z" fill="#FEFFBB"/><path d="m107.347 112.442 2.297-.362.087.589c.15 1.019.915 1.833 2.068 2.149.578.169 1.079.442 1.106.624.027.181-.291.992-.725 1.797a54.362 54.362 0 0 0-1.686 3.722l-.91 2.264-.429-.723c-.592-1.048-1.053-1.049-1.751.003l-.607.877-.345-.62c-.32-.601-.439-.63-1.499-.474l-1.127.167-.195-.851c-.175-.715-.285-.838-.885-.842l-.693-.014-.491-3.169c-.258-1.744-.602-3.453-.765-3.776l-.274-.608 2.252-.194c1.251-.115 3.29-.347 4.572-.559Z" fill="#545151"/><path d="M142.504 79.652c.64.9 1.062 2.668.824 3.397-.454 1.295-2.062 1.486-3.512.403-1.372-1.024-1.299-2.401.177-3.638.986-.817 1.991-.873 2.511-.162ZM139.469 90.149c.01 2.568-.72 4.644-2.014 5.553-.752.528-3.122 1.642-3.685 1.725-.136.02-.292-.258-.342-.598-.194-1.314.573-4.23 2.179-8.333l.751-1.94 1.56 1.205 1.535 1.186.016 1.202Z" fill="#9FA05C"/><path d="M181.25 107.064c.15.232.353.828.427 1.326.177 1.201-.365 1.744-2.989 3.011-2.65 1.248-4.728 1.995-7.906 2.789-3.223.8-11.019 2.298-11.249 2.147-.1-.055-.346-.783-.56-1.608l-.379-1.472 1.198-.316a304.01 304.01 0 0 1 5.319-1.271c5.39-1.259 9.603-2.53 12.504-3.792 2.859-1.232 3.239-1.311 3.635-.814Z" fill="#fff"/><path d="M193.986 227.805c1.919 1.292 2.046 2.778.404 4.456-2.023 2.058-13.341 9.981-17.166 12.004-2.392 1.279-8.498 3.617-10.643 4.072-1.562.347-1.745.351-1.937-.015-.102-.216-.772-1.321-1.509-2.416-1.106-1.713-1.249-2.062-1.009-2.306.16-.162 1.229-.575 2.333-.9 7.384-2.109 21.042-9.474 26.661-14.333.712-.637 1.441-1.162 1.576-1.182.158-.023.753.26 1.29.62ZM137.241 240.467c3.035-.193 3.529-.127 11.985 1.588 3.017.62 6.564 1.23 7.899 1.381 2.829.277 3.31.414 3.39.958.03.204.678 1.312 1.441 2.426.745 1.141 1.331 2.143 1.25 2.224-.326.442-2.377.907-7.992 1.736l-6.201.915-5.424-.843c-7.263-1.127-8.796-1.526-9.624-2.608-.688-.917-1.824-3.458-2.34-5.234-.568-1.977-.137-2.18 5.616-2.543ZM118.661 240.409c6.09.513 11.141 1.018 11.251 1.14.11.123.396 1.123.621 2.178.228 1.077.74 2.669 1.141 3.513 1.077 2.457 1.112 2.382-.884 2.909-.956.233-3.649.724-6.016 1.073-6.25.9-8.843.658-12.36-1.162-3.217-1.655-5.851-4.206-6.511-6.332-.39-1.239.398-4.018 1.187-4.134.293-.044 5.508.321 11.571.815Z" fill="#BABABA"/><path d="M164.268 214.573c.692.315 2.186 1.229 3.309 1.966 1.126.76 3.316 2.173 4.862 3.126 3.571 2.181 4.708 3.171 4.852 4.146.177 1.2-.177 1.924-1.457 3.086-2.621 2.378-3.752 1.897-12.143-5.154-3.157-2.659-5.276-4.06-6.538-4.336-.882-.194-.735-.448.802-1.276a49.365 49.365 0 0 0 2.391-1.442c1.362-.919 2.232-.954 3.922-.116ZM155.747 218.656c.904.191 2.173.675 2.83 1.064 2.481 1.509 7.952 6.42 9.32 8.349.377.523.807 1.409.977 1.939.588 1.951-.818 3.038-2.976 2.315-1.117-.391-3.969-1.915-8.231-4.411-1.766-1.036-3.897-2.203-4.737-2.588-.863-.382-1.568-.788-1.588-.924-.067-.453 2.379-6.047 2.672-6.09.045-.007.826.133 1.733.346ZM147.754 228.033c2.075.319 9.554 2.757 11.982 3.903 2.204 1.041 3.783 2.22 4.143 3.093.604 1.439-.17 3.22-2.404 5.565l-1.119 1.161-1.663.129c-1.663.13-2.205.048-14.442-2.313-4.221-.812-7.098-.943-10.548-.434l-2.145.294 1.3-1.651c1.972-2.56 7.241-7.135 10.355-8.984 1.459-.887 2.605-1.079 4.541-.763ZM129.621 218.045c.159.139.479.902.731 1.675.624 2.038 2.326 9.196 2.233 9.348-.061.056-1.178-.335-2.503-.88-1.325-.546-3.475-1.224-4.786-1.516-2.217-.507-3.009-.876-3.093-1.442-.063-.431.726-2.886 1.202-3.72 1.05-1.938 5.309-4.304 6.216-3.465ZM124.171 227.949c2.175.374 4.947 1.354 6.851 2.392 1.626.871 3.807 2.379 3.841 2.605.013.091-.657.861-1.477 1.7-1.283 1.301-2.31 2.772-3.219 4.573-.191.422-.304.439-2.393.331-1.903-.09-8.102-.564-15.52-1.182-3.125-.256-3.125-.256-2.682-2.405.832-4.036 2.307-5.597 6.696-7.079 2.851-.976 5.796-1.318 7.903-.935ZM152.732 226.95c.831.318 1.771.758 2.124.96l.634.393-.588-.075c-.912-.097-4.772-1.426-4.996-1.694-.367-.455 1.259-.209 2.826.416Z" fill="#313E4A"/><path fill-rule="evenodd" clip-rule="evenodd" d="M118.061 55.639c3.722.4 7.237 2.358 9.193 5.148l1.023 1.47-3.593 5.624-3.597 5.602-3.49 2.113c-3.91 2.383-4.814 2.818-5.701 2.74-1.287-.134-4.448-2.816-6.134-5.183-.529-.779-.671-1.268-1.085-4.077-.452-3.06-.456-3.244-.009-4.583 1.399-4.259 4.159-7.098 8.21-8.53.856-.288 3.686-.474 5.183-.325Zm-.852 12.49c-.11-.748.499-2.552.933-2.732 1.016-.45 2.311-.11 3.183.804.733.748.675 1.451-.228 2.511-.942 1.111-2.002 1.268-3.06.498-.414-.31-.788-.81-.828-1.082ZM79.556 73.711c2.76.125 5.255 1.262 6.974 3.23 1.583 1.828 2.318 3.525 2.746 6.425.194 1.315.284 2.552.195 2.727-.153.37-.017.35-7.345.343-4.082-.022-10.222.213-11.665.426-1.398.207-1.587-.136-1.364-2.53.237-2.606 1.515-6.591 2.54-7.923.444-.576 1.243-1.25 1.906-1.602 1.282-.675 4.065-1.179 6.013-1.096Zm-2.67 9.378c-.637-.879-.55-2.003.2-2.854.689-.797.624-.764 1.773-.633 1.08.142 1.933.919 2.073 1.87.23 1.564-1.586 2.99-3.117 2.452-.246-.103-.67-.48-.93-.835Z" fill="#FFE8E8"/><path d="M129.137 66.367c.178 3.702-.477 6.6-1.942 8.692-.896 1.267-1.395 1.317-2.542.26-1.653-1.517-1.663-1.584-.804-3.1 1.498-2.653 4.996-7.985 5.136-7.82.026.019.089.912.152 1.968Z" fill="#FFE8E8"/><path d="M75.255 88.123c9.476-.427 13.868-.173 14.757.854.607.674.861 3.647.444 5.19-.373 1.375-1.564 2.986-2.957 4.002-1.018.753-1.305.841-3.473 1.138-1.987.27-2.632.273-4.017-.055-4.36-.977-7.916-3.37-9.522-6.443-.573-1.073-1.42-3.842-1.26-4.167.12-.272-.473-.231 6.028-.52ZM123.546 76.408c2.268 2.096 3.466 3.494 3.556 4.106.104.702-1.489 3.021-3.113 4.511-2.957 2.752-6.488 4.431-10.675 5.096-2.41.379-2.687.373-3.853-.033-1.68-.61-6.342-3.162-6.221-3.435.223-.519 17.673-11.384 18.481-11.527.203-.03 1.025.543 1.825 1.282Z" fill="#D7DFF4"/><path d="M118.267 91.52c1.856 1.022 3.15 1.989 3.217 2.442.034.226-.274.642-.752.99-.941.65-4.343 2.263-5.02 2.363-.406.06-.377-.06.189-.908.582-.896.635-1.159.536-2.765-.093-1.723.04-2.692.424-2.748.09-.014.73.262 1.406.625ZM103.264 95.402c.51 2.518.588 2.576 3.077 2.579.99-.008 2.022.118 2.342.256.371.176 1.245.163 2.759-.037 3.618-.465.869.265-4.854 1.295-5.611 1.014-5.588 1.011-4.957-.958.206-.632.293-1.757.234-2.628-.164-2.36-.13-2.597.469-2.593.461.002.527.13.93 2.086ZM99.698 100.119c.085.103.044.295-.059.379-.327.28-4.788 2.212-5.24 2.279-.315.046-1.007-.893-1.094-1.483-.05-.339 6.118-1.482 6.393-1.175Z" fill="#571621"/><path d="M123.383 95.742c.582.817.729 2.44.297 3.73-.929 2.754-4.986 5.553-10.769 7.425-1.912.63-3.635.977-8.28 1.663l-5.862.865-2.712-.572c-1.497-.311-2.892-.707-3.1-.862-.358-.248-.333-.391.085-1.147.782-1.412 2.445-2.792 4.147-3.437.856-.289 4.191-1.105 7.453-1.795 10.463-2.17 14.354-3.44 17.153-5.543 1.163-.866 1.185-.87 1.588-.327Z" fill="#A2060F"/><path d="M176.359 115.288c.641 1.063 3.103 8.062 3.811 10.829.873 3.413.932 4.91.284 6.765-1.127 3.13-3.89 5.483-10.747 9.135-5.339 2.849-6.778 3.872-8.228 5.915a37.898 37.898 0 0 1-2.838 3.406c-2.119 2.188-2.746 3.091-3.23 4.807-.604 2.149-.206 3.596 2.042 7.431.96 1.665 1.735 3.171 1.695 3.362-.086.36-1.063.759-2.416.959l-.947.14-1.461-2.401c-1.398-2.294-3.085-5.912-3.245-7-.117-.793-.533-.801-.577-.007-.088 1.124.838 3.65 2.526 6.967l1.561 3.08-.722.107c-1.127.166-2.999-.182-4.124-.78-1.798-.939-2.687-2.591-3.872-7.185-.985-3.86-1.516-3.249-.881 1.056.394 2.512.496 2.89 1.64 5.176 1.137 2.24 1.222 2.505.931 2.872-.265.387-.407.362-1.648-.081-1.802-.66-3.409-2.02-4.848-4.123-1.085-1.576-1.481-2.536-2.603-6.237l-.151-.557-.216.726c-.328 1.207-.086 3.162.56 4.572.314.718 1.293 2.356 2.18 3.683 1.212 1.813 1.541 2.482 1.359 2.648-.145.114-.921.321-1.687.434-1.308.193-1.521.155-2.127-.357-.961-.738-2.849-3.377-4.485-6.192-1.481-2.536-2.342-4.47-2.859-6.408-.944-3.588.974-5.886 7.592-8.97 4.528-2.104 6.508-3.207 9.457-5.24 4.481-3.046 7.117-5.635 12.814-12.612 1.112-1.368 3.05-3.53 4.307-4.85 2.581-2.65 3.061-3.3 3.266-4.256.28-1.222.103-1.173-1.143.377-.717.916-1.991 2.123-3.137 2.941l-1.914 1.394-.161-1.088c-.09-.612-.581-2.531-1.093-4.284-.516-1.776-.878-3.297-.802-3.401.096-.13 2.64-.691 5.642-1.273 3.024-.585 6.083-1.245 6.814-1.446a25.712 25.712 0 0 1 2.289-.569c.898-.156.999-.102 1.392.535ZM131.272 123.265c3.375 4.132 7.488 11.235 7.822 13.501.154 1.042.103 1.166-1.244 2.962-2.263 3.09-7.61 7.607-13.662 11.557-5.23 3.435-6.7 4.092-12.321 5.5l-3.219.823-.553.938c-.294.507-1.353 2.076-2.296 3.488-3.093 4.486-3.501 5.935-2.412 8.321 1.025 2.257 1.975 3.39 4.144 4.968 3.097 2.252 3.541 2.603 4.125 3.281 1.34 1.585.526 2.631-2.543 3.224-1.723.347-1.977.338-2.634-.051-1.057-.608-3.202-3.116-5.493-6.46-2.115-3.091-2.998-4.859-3.252-6.581-.154-1.043-.561-1.77-.81-1.432-.235.289.47 4.283.927 5.35.22.547 1.355 2.463 2.48 4.311 1.145 1.823 2.186 3.567 2.323 3.871.219.547.199.573-.928.739-1.353.2-2.147-.03-3.297-.948-2.007-1.579-2.944-3.71-3.86-8.831-.383-2.12-.78-3.867-.87-3.854-.09.013-.288.853-.44 1.848-.321 2.201-.04 4.567.861 7.398.341 1.061.575 2.022.498 2.126-.234.289-4.42-2.936-5.25-4.041-.52-.71-.909-1.625-1.293-2.981-.651-2.381-.678-3.813-.095-5.01.561-1.195.408-1.45-.41-.75-1.274 1.045-1.32 1.676-.612 6.156.61 3.823.64 4.027.235 4.087-.677.1-2.016-.86-2.647-1.855-.514-.827-.577-1.096-.602-2.828.007-1.043-.27-3.387-.586-5.216l-.563-3.344.903-1.221.922-1.248 4.78-.706c4.668-.689 4.845-.738 6.513-1.61 3.035-1.605 5.223-3.642 9.892-9.309 5.926-7.15 6.885-7.986 15.178-13.309l3.408-2.193-.204-1.382c-.264-1.791-1.301-5.064-2.381-7.544-.483-1.087-.882-2.07-.905-2.228-.06-.408.629-.579 4.785-1.147l3.836-.543 1.75 2.173ZM174.118 170.331c1.089.511 2.544 1.315 3.233 1.768l1.249.812-1.857 3.492c-2.911 5.408-3.565 7.38-4.064 12.27l-.193 1.973-1.38-1.394c-1.812-1.816-4-3.368-6.201-4.386-1.997-.886-2.205-1.203-2.293-3.204-.108-2.601.821-4.428 5.121-9.948.87-1.125 1.664-2.307 1.733-2.618l.126-.551 1.259.416c.701.221 2.174.837 3.267 1.37Z" fill="#FFE91F"/><path fill-rule="evenodd" clip-rule="evenodd" d="M107.475 33.724c.432.584.993 1.265 1.256 1.481.479.439.476.416.205-.794-.168-.67-.391-1.4-.515-1.614-.185-.32-.079-.382.8-.512 1.195-.176 1.648.08 2.39 1.36l.52.873-.071-1.263-.071-1.263 1.131-.144c2.934-.41 4.258-.026 4.452 1.288.134.906.511.804.814-.26.254-.778.357-.862 1.002-.865.809.02 3.882.7 4.241.948.126.074.021.923-.264 1.961-.288 1.015-.434 1.893-.334 1.948.081.08.703-.544 1.388-1.363.686-.819 1.346-1.495 1.459-1.512.139.003 1.102.44 2.172.976l1.946 1.01-.854 1.237c-.835 1.212-.984 1.604-1.187 2.884-.144.901.383.569 1.831-1.173l1.371-1.638.852.777.872.751-.59 1.314c-.331.72-.579 1.383-.569 1.45.037.25.509.018 1.283-.675.426-.387.915-.668 1.086-.6.74.33 4.388 6.622 5.822 10.092 1.561 3.705 4.581 13.864 4.248 14.26-.08.082-.707.36-1.409.602-1.686.596-3.597 1.85-4.266 2.783-.65.906-.35.908 1.36.008 1.454-.77 5.022-1.413 5.096-.915.117.793-.409 2.538-.988 3.295-.58.757-.837.888-2.936 1.499-2.784.804-3.514 1.167-4.723 2.34-2.514 2.479-3.337 6.583-1.911 9.683.926 2.063.893 2.462-.461 5.463-1.513 3.326-2.147 5.434-2.11 6.934.032.99-.118 1.383-1.138 2.9-1.087 1.689-1.577 2.895-1.657 4.227-.136 2.359-3.891 5.946-9.85 9.442-3.31 1.925-3.863 2.076-5.293 1.291-.624-.324-1.425-.762-1.794-.916-.442-.189-.718-.496-.772-.858-.134-.907-.653-1.617-1.214-1.673-.304-.025-1.515.038-2.695.166-1.179.128-3.145.233-4.341.248l-2.189-.001 3.469-.698c10.972-2.152 16.857-4.735 19.847-8.672 1.098-1.459 1.335-2.35 1.074-4.118-.448-3.037-2.098-5.317-4.807-6.653-.595-.283-1.106-.624-1.123-.738-.016-.113.504-.49 1.144-.84 2.854-1.579 5.732-4.088 7.207-6.273 1.228-1.826 1.272-2.62.347-4.358l-.697-1.287 1.173-1.886c.652-1.046 1.393-2.429 1.64-3.09.47-1.343.65-4.496.348-6.697-.412-2.949-.303-3.613.898-5.62.588-1.013 1.832-2.887 2.725-4.176l1.618-2.3 1.542.143c1.706.165 2.26.014 2.163-.644-.077-.52-.464-.649-2.674-.948l-1.762-.226-1.241 1.735c-.685.98-1.974 2.861-2.86 4.196l-1.621 2.44-.934-1.02c-.5-.575-1.792-1.681-2.879-2.493-3.218-2.442-6.675-3.228-11.098-2.599-4.51.666-7.446 2.628-9.868 6.667-1.684 2.796-1.977 5.177-1.217 9.233.752 3.848 1.402 4.817 5.621 8.107 1.094.858 1.742 1.503 1.624 1.636-.096.13-1.253.88-2.541 1.672l-2.388 1.464-1.12-.252c-1.762-.388-3.805-2.054-4.896-3.977-1.028-1.816-1.49-1.98-1.017-.336.614 2.132 1.524 3.456 3.256 4.729l1.628 1.195-1.009.658-1.009.659-2.205-1.203c-1.206-.679-2.909-1.446-3.755-1.715-1.89-.624-2.346-.44-3.436 1.388l-.75 1.314-.527-2.63c-.54-2.723-1.208-4.592-2.264-6.126-.796-1.18-3.102-3.062-4.604-3.72-3.778-1.711-9.496-.96-13.247 1.724l-.835.587-.606-.513c-1.06-.931-.973-1.755.3-3.425 2.027-2.66 4.437-4.128 7.572-4.59 2.502-.37 3.045-.288 3.158.483.087.589.136.605.863.382.705-.22.876-.153 2.016.698.676.525 1.906 1.524 2.749 2.233.819.713 1.479 1.125 1.452.943-.08-.543-1.978-2.787-3.686-4.364-1.305-1.196-1.565-1.552-1.682-2.345-.207-1.243-1.065-2.528-2.33-3.453l-1.055-.747.47-2.431c.241-1.332.409-2.538.344-2.667-.16-.301-1.562 2.684-2.216 4.657l-.476 1.459 1.414.833c2.144 1.258 3.53 2.998 2.259 2.816-2.846-.39-4.19-.285-6.648.541-.615.207-.583.11.434-.805 1.52-1.405 2.196-2.292 2.122-2.79-.033-.227-.427-.864-.897-1.396-1.149-1.382-1.283-2.45-.528-4.044.367-.795.991-1.558 1.768-2.229 2.035-1.666 1.671-2.099-.552-.613-3.144 2.108-4.08 4.979-2.435 7.537.803 1.225.821 1.662.172 1.943-.325.14-.959.998-1.63 2.232-.596 1.107-1.424 2.363-1.841 2.819-.42.432-1.063 1.384-1.446 2.065-.38.705-.78 1.273-.893 1.29-.586.086-.978-6.94-.513-9.093.535-2.464 2.105-5.567 4.457-8.831l2.144-2.957 1.541.143c.846.107 1.884.116 2.29.056l.74-.133-.608-.373c-.326-.183-1.072-.397-1.637-.476l-1.029-.103.438-.62c.701-1.03 4.738-4.428 5-4.212.075.036.31.696.56 1.446.651 1.918.991 1.567.779-.81l-.169-1.92L84.17 42.7l2.172-1.363.534.5c.48.438.543.707.642 2.313.102 1.629.151 1.807.427 1.488.355-.4.884-2.747.78-3.45-.04-.271-.26-.678-.475-.878-.59-.561-.539-.685.377-1.352 1.503-1.056 2.067-.977 3.49.55.302.325.308.209.048-.772-.368-1.404-.23-1.563 2.483-2.844 2.367-1.137 2.573-1.144 2.694-.328.06.408.362.895.78 1.227l.68.548-.262-.84c-.296-1.068-.124-1.927.506-2.344.463-.3 6.126-2.202 7.134-2.397.38-.08.691.153 1.295.967ZM87.503 54.663c.975-1.51 1.999-3.004 2.278-3.3.676-.725 1.195-.802.966-.166-.241.707-2.81 5.463-3.757 7.015-.466.74-.763 1.386-.707 1.447.077.058 2.011-1.2 4.285-2.809 5.576-3.903 6.533-4.438 9.305-5.171 2.553-.655 3.723-.689 3.372-.104-.109.2-.687.495-1.241.646-1.835.526-3.954 1.626-6.976 3.623-6.342 4.178-6.997 4.576-8.432 5.158-1.258.533-1.709.6-2.96.553-2.176-.072-4.61-.801-4.701-1.413-.014-.09.512-.122 1.14-.076 1.555.072 3.302-.58 4.63-1.725.572-.501 1.826-2.145 2.798-3.678Zm15.947 2.045c1.113-3.383 4.603-6.584 8.401-7.7 3.026-.887 6.56-.83 9.563.162 1.864.605 5.901 3.76 7.265 5.665 1.591 2.196 1.388 2.69-.321.788-2.913-3.182-6.915-5.323-10.288-5.543-2.048-.137-5.724.406-7.464 1.102-2.786 1.106-4.993 3.169-6.598 6.184-.881 1.681-1.212 1.314-.558-.658Zm-34.2 2.919c.272-.503 1.038-1.403 1.667-1.983 1.776-1.697 1.893-1.53.66 1.038-.778 1.596-.795 2.108-.13 3.029.26.355.428.863.384 1.193-.079.869-1.776 2.948-2.69 3.315-1.09.416-1.047.085.138-1.41 1.085-1.387 1.104-1.413.047-3.271l-.563-1.005.488-.906Z" fill="#FFE91F"/><path fill-rule="evenodd" clip-rule="evenodd" d="M145.542 70.266c-.083.684-.403 1.796-.696 2.464l-.558 1.217 1.635 2.329c1.903 2.752 2.548 4.463 2.524 6.643-.013 1.785-.349 2.784-1.187 3.51-.982.839-4.433 1.186-6.286.65-1.398-.42-3.601-1.761-4.587-2.82-1.715-1.784-1.599-5.528.275-8.283 1.001-1.49 1.798-2.025 4.529-3.03 1.268-.465 2.538-1.07 2.846-1.323.655-.56 1.498-2.028 1.425-2.526-.027-.181.027-.282.108-.201.078.058.075.66-.028 1.37Zm-7.932 9.946c.179-.35.843-1.004 1.443-1.463 1.834-1.313 3.775-1.275 4.765.13.283.352.633 1.319.824 2.147.42 1.906.08 3.346-.999 4.154-.684.517-.887.547-2.074.468-3.051-.221-5.188-3.147-3.959-5.436Z" fill="#FFE91F"/><path d="M96.393 84.909c3.3 1.596 8.772 4.794 8.851 5.176.094.635-.929 1.04-3.654 1.466-1.443.213-3.185.586-3.845.799-2.42.774-4.594 1.188-4.815.942-.113-.145-.462-1.413-.808-2.82l-.588-2.577.835-1.211c.455-.67.972-1.533 1.125-1.903.175-.373.473-.695.676-.725.18-.026 1.182.358 2.223.853Z" fill="#FFE91F"/><path d="M129.118 155.651c.117.168-.021 1.577-.254 3.117-.696 4.34-.18 7.829 1.465 9.925.851 1.078 1.739 1.479 3.342 1.567 1.187.079 1.287.134 1.53.839.746 2.09 4.442 21.502 4.651 24.481.17 2.244.034 2.728-.773 3.032-.348.144-3.481.769-7.005 1.405l-6.393 1.175-1.237-1.044c-1.518-1.235-3.22-3.554-4.348-5.888-.463-.95-1.623-3.812-2.571-6.335-.975-2.542-2.666-6.506-3.772-8.843-3.391-7.21-3.591-7.782-4.524-12.854-.8-4.327-.834-4.554-.51-5.482.591-1.615.786-1.852 1.939-2.161 1.02-.267 10.782-2.032 15.981-2.869 1.865-.322 2.349-.324 2.479-.065ZM138.673 201.172c.156.278.748 2.877 1.314 5.78 2.784 14.014 3.647 18.147 3.847 18.719.197.55.142.651-.912 1.316-.61.391-2.235 1.557-3.599 2.615-1.368 1.035-2.643 1.918-2.846 1.948-.992.147-1.872-1.599-3.034-6.035-1.23-4.588-2.204-9.306-3.456-16.693l-1.128-6.71 4.78-.706c4.735-.699 4.78-.705 5.034-.234Z" fill="#E43D19"/><path d="M131.825 163.841c.71 1.377 1.553 2.873 1.871 3.313.761 1.091.739 1.257-.14 1.386-1.015.15-2.209-.6-2.685-1.641-.385-.892-1.169-5.731-.958-6.017.192-.26.459.141 1.912 2.959ZM106.901 163.724c.804 3.887 1.587 6.851 2.3 8.713.491 1.294.816 2.404.736 2.485-.308.254-2.139-.911-2.999-1.896-2.083-2.401-2.854-4.348-2.363-6.018.344-1.255 1.552-3.216 2.003-3.283.181-.026.319-.024.323-.001Z" fill="#E43D19"/><path d="M135.394 251.368c1.254-.093 2.895-.057 3.646.04l1.343.196.351 2.379.348 2.356-.722.107c-4.603.656-17.459 2.068-18.883 2.094-2.212.002-2.822-.232-3.331-1.338-.503-1.06-.515-2.864-.044-3.258.415-.316 13.96-2.362 17.292-2.576ZM181.797 244.03c.472.231 1.086 1.738 1.055 2.623 0 .463-.105 1.312-.231 1.863l-.217 1.028-6.466.838c-3.55.455-9.359 1.22-12.886 1.672l-6.398.829.679 3.511.703 3.508-3.042.311c-1.679.178-4.717.511-6.782.723-2.062.235-3.996.405-4.276.377l-.561-.056-.553-4.364c-.335-2.428-.543-4.458-.485-4.536.058-.078 1.019.035 2.155.237 3.504.641 6.479.502 12.66-.549 8.204-1.397 15.094-3.572 21.055-6.582l.185-.094c2.968-1.507 3.015-1.531 3.405-1.339Z" fill="#9385B9"/><path d="M160.846 153.166c1.119 1.803 2.474 5.515 2.85 7.752.509 2.981.341 3.4-4.972 11.894-5.069 8.112-6.436 10.559-7.132 12.862-.577 1.868-.413 2.978 1.331 9.643 2.603 9.827 3.73 13.087 5.453 15.866.755 1.208.902 1.58.733 1.999-.193.561-1.928 1.766-4.223 2.916-.795.395-1.736 1.043-2.072 1.417-.337.374-1.237 2.081-2.043 3.798-1.638 3.576-2.095 4.222-3.273 4.674-1.283.513-1.813.36-2.089-.572-.62-2.015-3.482-16.249-4.29-21.409l-.597-3.732.529-1.097.53-1.097-.823-6.037c-.443-3.315-1.207-8.018-1.7-10.423-.516-2.401-1.155-5.641-1.476-7.191l-.554-2.812.845.569c.459.303 1.351 1.352 1.975 2.302 1.278 1.941 2.587 3.161 3.817 3.535 2.267.684 11.061-1.865 12.328-3.58.365-.494.357-.701.024-2.18-.297-1.23-.322-1.712-.13-1.972.131-.205 1.076-.669 2.08-1.048 1.004-.38 2.104-.89 2.438-1.124.539-.404.571-.501.337-1.462-.155-.58-.999-2.238-1.884-3.705-1.336-2.187-1.702-2.944-1.963-4.248-.355-1.777-.226-2.467.803-4.078.601-.922 2.012-2.45 2.327-2.497.09-.013.457.442.821 1.037Z" fill="#F2E8E2"/><path d="M155.31 262.041c.207.155 2.531 11.366 3.104 14.939.03.204.27.423.551.452.781.139 2.202 1.179 2.89 2.097.952 1.295 1.255 3.82.674 5.503-.828 2.507-2.63 3.723-6.215 4.252l-2.255.333-.974-.667c-1.404-.927-2.772-2.855-2.966-4.169-.18-1.224.111-2.216 1.263-4.401 1.168-2.233 1.196-2.353.838-4.777-.331-2.244-2.153-10.681-2.641-12.275l-.266-.864 2.858-.306c1.588-.165 3.01-.213 3.139-.117Z" fill="url('#paint0_linear_19_391')"/><path d="M206.091 143.753c-2.897 7.999-8.265 19.396-10.908 23.19-.591.828-1.857 2.242-2.833 3.127-.971.908-1.904 1.925-2.083 2.276-.344.791-.528 3.134-.317 4.562l.157 1.065-1.191.824c-2.303 1.567-3.798 4.242-3.902 6.966-.016.674.562 5.683 1.294 11.108 1.062 7.97 1.508 10.683 2.31 14.084.726 3.042.942 4.353.809 4.696-.159.487-.317.51-4.061.901-3.65.4-4.008.476-5.516 1.185-2.412 1.143-4.337 1.52-5.645 1.088-.578-.169-2.849-1.501-5.068-2.956-3.95-2.566-4.522-2.852-7.079-3.47-1.265-.299-1.291-.319-2.462-2.16l-1.196-1.861 1.361-2.331c.754-1.292 1.599-2.899 1.892-3.567.615-1.457 1.214-4.579 1.066-5.576-.053-.362-.016-.738.086-.823.08-.081 1.201.17 2.434.567 3.556 1.142 3.836 1.17 4.803.541 3.534-2.281 12.78-13.788 14.19-17.654l.426-1.175-1.319-1.912c-3.012-4.325-6.408-6.88-11.877-8.966l-1.66-.635-.88-5.96c-.482-3.263-.856-6.264-.842-6.636l.035-.7 1.442.25c2.643.42 11.204-1.052 13.096-2.281.273-.179.973-1.371 1.521-2.655.573-1.266 1.132-2.321 1.244-2.337.384-.057.76.466 1.222 1.718.242.705.652 1.455.921 1.716.48.439.502.435 1.776-.146.714-.314 3.179-1.72 5.505-3.129 5.942-3.609 8.437-4.811 11.114-5.253l1.034-.175-.899 2.494Z" fill="#757575"/><path d="M182.405 177.929c.128.398.215.987.194 1.314-.085.823-1.777 3.411-5.208 7.947-2.737 3.622-2.978 3.866-3.129 3.31-.296-1.068.181-4.704.948-7.156.688-2.208 2.706-6.327 4.018-8.211l.515-.724 1.197 1.398c.668.781 1.341 1.747 1.465 2.122ZM164.339 186.338c2.215.646 7.484 5.124 7.692 6.529.084.566-.634 1.482-2.078 2.622-1.069.875-.859.891-4.765-.593-1.418-.555-3.95-1.316-5.645-1.714-3.46-.809-5.297-1.394-5.606-1.765-.503-.597 3.182-3.735 5.713-4.849 1.428-.628 3.007-.699 4.689-.23Z" fill="#413A3A"/><path d="M151.537 69.358c5.845 2.448 7.513 3.29 10.528 5.299 3.96 2.633 5.703 4.136 6.491 5.57.348.644 2.155 4.452 4.014 8.461a1424.31 1424.31 0 0 0 5.371 11.409c1.098 2.292 2.006 4.381 2.001 4.659-.003.603-.829 1.095-3.67 2.14-3.938 1.415-12.766 3.737-16.328 4.263-1.692.25-1.995.225-2.158-.098-.437-.931-4.33-14.503-5.733-19.946-.744-2.853-.001-4.375 3.355-6.932 2.154-1.638 1.962-2.003-.258-.494-2.075 1.395-3.459 2.942-3.9 4.327-.326 1.066-.309 1.342.205 3.882.685 3.395 2.676 10.95 4.838 18.411 4.549 15.675 4.724 16.39 3.954 18.356-.639 1.599-2.994 4.841-4.979 6.848-1.927 1.928-6.036 5.313-9.388 7.73-2.647 1.896-3.203 2.186-3.28 1.665-.02-.136-.373-1.751-.757-3.57-1.201-5.634-3.078-10.08-6.208-14.735-2.096-3.117-3.667-5.015-7.93-9.549-1.943-2.075-3.671-3.95-3.846-4.202-.312-.394-.158-.602 1.805-2.443 3.076-2.885 3.988-4.201 4.938-7.282.945-2.964 1.166-3.182 4.633-4.666 4.31-1.864 5.6-3.582 5.679-7.576l.032-1.811 1.708-.136c2.939-.226 4.346-.526 5.117-1.08 1.936-1.397 2.516-3.243 2.031-6.528-.351-2.38-1.127-4.048-2.792-6.117l-.968-1.247.424-1.498c.25-.801.501-2.227.596-3.144.084-1.147.217-1.653.429-1.615.168.045 2.007.792 4.046 1.649ZM176.174 84.544c2.629 1.418 6.709 3.617 9.034 4.848 2.347 1.228 4.604 2.47 5.015 2.756l.766.512-2.567.402-2.548.376-2.314 1.963c-2.538 2.157-3.543 2.838-4.355 2.958-.519.077-.646-.16-2.309-3.78-4.542-10.004-5.713-12.632-5.623-12.645.067-.01 2.269 1.17 4.901 2.61Z" fill="#252525"/><path d="M187.542 100.208c4.972 6.212 8.902 12.23 13.77 21.166 3.347 6.128 4.101 7.337 6.628 10.714 2.208 2.939 4.092 5.555 4.118 5.736.054.363-1.214.828-4.739 1.765-6.474 1.72-7.014 1.962-13.563 5.985-2.429 1.493-4.621 2.72-4.876 2.711-.344.005-.653-.366-1.21-1.488-.906-1.765-1.414-2.245-2.249-2.122-.699.103-1.643 1.354-2.576 3.46-1.163 2.579-.864 2.419-6.926 3.5l-5.346.928-1.566-.463c-.866-.243-2.686-.715-4.074-1.066-1.385-.328-2.555-.757-2.626-.932-.072-.175.156-.81.485-1.391.783-1.413 2.244-2.439 7.448-5.268 2.241-1.21 4.85-2.73 5.817-3.359 4.484-3.024 6.622-6.651 6.328-10.821-.13-1.972-.701-3.972-2.826-10.095-1.245-3.59-1.613-4.832-1.489-5.244.127-.389.599-.783 1.631-1.283 1.951-.983 2.927-1.706 3.266-2.381.59-1.152-.231-3.902-2.43-8.185l-.945-1.874 1.33-.822a22.57 22.57 0 0 0 2.434-1.772c.594-.504 1.13-.93 1.198-.94.067-.01 1.407 1.574 2.988 3.541ZM122.686 114.275c1.072.861 5.049 4.858 5.093 5.153.013.09-1.823.454-4.1.79l-4.126.609-1.518-2.16c-.841-1.173-1.523-2.206-1.533-2.274-.041-.272 4.105-2.621 4.891-2.76.2-.053.775.256 1.293.642Z" fill="#252525"/><path d="M167.903 182.908c.31.031.656.128.76.216.487.423.593.04.289-1.019-.205-.735-.527-1.045-.883-.841-.268.141-.79 1.111-.758 1.412.019.107.28.222.592.232Z" fill="#9B3636"/><path d="M166.831 180.861c1.422-.77 1.843-.65 3.177.891.831.969.966 1.016 1.407.536.213-.229.145-.338-1.264-1.988-1.308-1.519-1.528-1.719-1.867-1.643-.431.093-1.162.992-1.469 1.797l-.202.529.218-.122Z" fill="#9B3636"/><path d="M169.779 178.703c.499.444.979.866 1.073.911.519.359 1.86-.178 2.243-.894.116-.232-.033-.28-.878-.306-.974-.051-1.068-.097-2.025-.962-1.223-1.109-1.545-1.248-2.204-.99-.552.219-2.188 1.668-2.353 2.091-.14.36.827.154 1.441-.32.806-.617 1.633-.463 2.703.47Z" fill="#9B3636"/><path d="M168.187 175.812c1.748-.251 2.217-.057 3.542 1.454.826.949.975 1.018 1.551.754.277-.125.214-.226-1.183-1.839-1.299-1.488-1.525-1.696-1.927-1.72-.51-.031-1.479.486-1.945 1.032l-.307.36.269-.041Z" fill="#9B3636"/><path d="M171.89 174.858c.514.463 1.009.905 1.111.963.55.402 2.172.312 2.714-.149.166-.151 0-.223-.971-.447-1.117-.276-1.219-.334-2.204-1.233-1.258-1.151-1.61-1.335-2.407-1.296-.667.036-2.757.759-3.007 1.046-.211.243.934.318 1.708.101 1.016-.282 1.95.037 3.056 1.015Z" fill="#9B3636"/></g><defs><linearGradient id="paint0_linear_19_391" x1="149.997" y1="270.073" x2="158.274" y2="268.392" gradientUnits="userSpaceOnUse"><stop stop-color="#C0B9BD"/><stop offset="1" stop-color="#B79BAC" stop-opacity="0"/></linearGradient><clipPath id="clip0_19_391"><path fill="#fff" transform="rotate(-8.399 216.451 -385.638)" d="M0 0h137v275H0z"/></clipPath></defs></svg>