<svg width="317" height="301" fill="none" xmlns="http://www.w3.org/2000/svg"><path d="M119.382 77.099c6.833 9.833 9.159 24.866 7.5 49.901-1.985 29.952-28.5 27-35 26.5-15.333-2.5-23.8-16.4-27-24-4-9.5-2-42.901 3-52.401s8.118-10.77 9.5-11.537c4.5-2.5 17.39-2 22.89 0 4.4 1.6 13.943 4.37 19.11 11.537ZM79.382 184.5c-1.833-2.667-7.5-7.3-15.5-4.5s-7.984 20.5-6.976 29l3.976 22.5c3.053-4.069 10.226-14.265 14.5-22.5 5.342-10.294 6.5-21 4-24.5ZM139.382 142.5c2.527-.465 6.732.467 9.79 3.053 4.222 3.57 4.278 8.067 5.21 13.516 1.813 10.603-3.5 27.431-3.5 27.431s-3.572 13.477-4.117 15.466c-3.628-5.822-12.596-18.455-13.383-31.966-.639-10.973-2-25 6-27.5Z" fill="#212121"/><mask id="path-2-inside-1_3_234" fill="#fff"><path fill-rule="evenodd" clip-rule="evenodd" d="m149.172 110.198-2.407-7.147c-1.323-3.931-4.016-10.344-5.983-14.251-2.024-4.017-5.648-9.101-8.344-11.701-2.621-2.53-7.31-6.119-10.419-7.976-3.11-1.858-8.688-4.497-12.395-5.866-4.566-1.685-9.647-2.649-15.742-2.988-5.38-.298-10.732-.029-13.307.67-2.368.643-6.027 2.723-8.13 4.623-2.103 1.9-4.833 5.801-6.067 8.669-1.234 2.868-3.124 9.277-4.2 14.242-1.598 7.371-2.058 14.494-2.509 38.82l-.552 29.792-2.617 1.368c-1.44.753-3.829 2.646-5.309 4.208-1.48 1.561-3.608 4.864-4.728 7.339-1.12 2.475-2.047 6.393-2.059 8.706-.012 2.314 1.115 11.314 2.504 20 1.39 8.687 3.443 18.582 4.564 21.99 1.12 3.408 2.957 7.365 4.081 8.794 1.684 2.141 1.922 3.407 1.353 7.201-.612 8.697.746 12.539 6.976 17.077 1.65.397 4.834.714 7.075.705 2.48-.009 6.916-1.325 11.334-3.361 5.592-2.578 8.076-3.214 10.815-2.769 1.956.317 5.181 1.742 7.166 3.167a4227.3 4227.3 0 0 0 8.61 6.151l5 3.562 8-.799c4.4-.439 12.275-.814 17.5-.832 8.499-.03 10.277.301 16.876 3.143l7.375 3.176-.639-8.705c-.351-4.788-1.077-16.707-1.614-26.485l-.975-17.78 15.446-15.22c12.008-11.833 16.01-16.445 17.979-20.721 1.585-3.442 2.536-7.296 2.542-10.3.006-2.639-.649-6.073-1.454-7.631-.805-1.557-2.884-4.026-4.62-5.486-1.736-1.461-4.564-3.385-6.286-4.277-1.721-.892-8.699-3.107-15.505-4.923-6.807-1.815-12.461-3.432-12.565-3.592-.104-.16-.871-3.994-1.704-8.52l-1.516-8.229-3.55-13.844Zm-29.79-33.099c6.833 9.833 9.159 24.866 7.5 49.901-1.985 29.952-28.5 27-35 26.5-15.333-2.5-23.8-16.4-27-24-4-9.5-2-42.901 3-52.401s8.118-10.77 9.5-11.537c4.5-2.5 17.39-2 22.89 0 4.4 1.6 13.943 4.37 19.11 11.537Zm20 65.401c2.527-.465 6.732.467 9.79 3.053 4.222 3.57 4.278 8.067 5.21 13.516 1.813 10.603-3.5 27.431-3.5 27.431s-3.572 13.477-4.117 15.466c-3.628-5.822-12.596-18.455-13.383-31.966-.639-10.973-2-25 6-27.5Zm-75.5 37.5c8-2.8 13.667 1.833 15.5 4.5 2.5 3.5 1.342 14.206-4 24.5-4.274 8.235-11.447 18.431-14.5 22.5L56.906 209c-1.008-8.5-1.024-26.2 6.976-29Z"/></mask><path fill-rule="evenodd" clip-rule="evenodd" d="m149.172 110.198-2.407-7.147c-1.323-3.931-4.016-10.344-5.983-14.251-2.024-4.017-5.648-9.101-8.344-11.701-2.621-2.53-7.31-6.119-10.419-7.976-3.11-1.858-8.688-4.497-12.395-5.866-4.566-1.685-9.647-2.649-15.742-2.988-5.38-.298-10.732-.029-13.307.67-2.368.643-6.027 2.723-8.13 4.623-2.103 1.9-4.833 5.801-6.067 8.669-1.234 2.868-3.124 9.277-4.2 14.242-1.598 7.371-2.058 14.494-2.509 38.82l-.552 29.792-2.617 1.368c-1.44.753-3.829 2.646-5.309 4.208-1.48 1.561-3.608 4.864-4.728 7.339-1.12 2.475-2.047 6.393-2.059 8.706-.012 2.314 1.115 11.314 2.504 20 1.39 8.687 3.443 18.582 4.564 21.99 1.12 3.408 2.957 7.365 4.081 8.794 1.684 2.141 1.922 3.407 1.353 7.201-.612 8.697.746 12.539 6.976 17.077 1.65.397 4.834.714 7.075.705 2.48-.009 6.916-1.325 11.334-3.361 5.592-2.578 8.076-3.214 10.815-2.769 1.956.317 5.181 1.742 7.166 3.167a4227.3 4227.3 0 0 0 8.61 6.151l5 3.562 8-.799c4.4-.439 12.275-.814 17.5-.832 8.499-.03 10.277.301 16.876 3.143l7.375 3.176-.639-8.705c-.351-4.788-1.077-16.707-1.614-26.485l-.975-17.78 15.446-15.22c12.008-11.833 16.01-16.445 17.979-20.721 1.585-3.442 2.536-7.296 2.542-10.3.006-2.639-.649-6.073-1.454-7.631-.805-1.557-2.884-4.026-4.62-5.486-1.736-1.461-4.564-3.385-6.286-4.277-1.721-.892-8.699-3.107-15.505-4.923-6.807-1.815-12.461-3.432-12.565-3.592-.104-.16-.871-3.994-1.704-8.52l-1.516-8.229-3.55-13.844Zm-29.79-33.099c6.833 9.833 9.159 24.866 7.5 49.901-1.985 29.952-28.5 27-35 26.5-15.333-2.5-23.8-16.4-27-24-4-9.5-2-42.901 3-52.401s8.118-10.77 9.5-11.537c4.5-2.5 17.39-2 22.89 0 4.4 1.6 13.943 4.37 19.11 11.537Zm20 65.401c2.527-.465 6.732.467 9.79 3.053 4.222 3.57 4.278 8.067 5.21 13.516 1.813 10.603-3.5 27.431-3.5 27.431s-3.572 13.477-4.117 15.466c-3.628-5.822-12.596-18.455-13.383-31.966-.639-10.973-2-25 6-27.5Zm-75.5 37.5c8-2.8 13.667 1.833 15.5 4.5 2.5 3.5 1.342 14.206-4 24.5-4.274 8.235-11.447 18.431-14.5 22.5L56.906 209c-1.008-8.5-1.024-26.2 6.976-29Z" fill="#2D2C2B"/><path d="m149.172 110.198.484-.124-.01-.036-.474.16Zm-2.407-7.147-.474.159v.001l.474-.16ZM140.782 88.8l.447-.225-.447.225Zm-8.344-11.701-.347.36.347-.36Zm-10.419-7.976-.256.43.256-.43Zm-12.395-5.866.173-.469-.173.469Zm-15.742-2.988.028-.5-.028.5Zm-13.307.67-.131-.483.131.483ZM62.178 88.473l.489.106-.489-.106Zm-2.509 38.82-.5-.009.5.009Zm-.552 29.792.232.443a.5.5 0 0 0 .268-.434l-.5-.009Zm-2.617 1.368-.232-.443.232.443Zm-5.309 4.208.363.344-.363-.344Zm-6.787 16.045-.5-.003.5.003Zm2.504 20-.494.079.494-.079Zm4.564 21.99.475-.156-.475.156Zm4.081 8.794.393-.309-.393.309Zm1.353 7.201-.494-.074a.47.47 0 0 0-.005.039l.499.035Zm6.976 17.077-.294.404a.49.49 0 0 0 .177.082l.117-.486Zm7.075.705-.002-.5.002.5Zm11.334-3.361.21.454-.21-.454Zm10.815-2.769-.08.494.08-.494Zm7.166 3.167-.292.406.292-.406Zm8.61 6.151.29-.407-.29.407Zm5 3.562-.29.407c.099.07.219.103.34.091l-.05-.498Zm8-.799-.05-.498.05.498Zm17.5-.832.002.5-.002-.5Zm16.876 3.143-.198.459.198-.459Zm7.375 3.176-.198.459a.499.499 0 0 0 .697-.496l-.499.037Zm-.639-8.705-.499.037.499-.037Zm-1.614-26.485-.499.027.499-.027Zm-.975-17.78-.351-.356a.5.5 0 0 0-.148.383l.499-.027Zm15.446-15.22.351.356-.351-.356ZM193.83 177l-.454-.209.454.209Zm2.542-10.3-.5-.001.5.001Zm-1.454-7.631.444-.23-.444.23Zm-4.62-5.486-.322.383.322-.383Zm-6.286-4.277-.23.444.23-.444Zm-15.505-4.923.129-.483-.129.483Zm-14.269-12.112.492-.091-.492.091Zm-1.516-8.229.492-.091a.396.396 0 0 0-.008-.033l-.484.124Zm-33.34-46.943.411-.285-.005-.007-.406.292Zm7.5 49.901-.499-.033.499.033Zm-35 26.5-.08.493c.013.003.028.004.042.006l.038-.499Zm-27-24-.46.194.46-.194Zm3-52.401-.442-.233.442.233Zm9.5-11.537-.243-.437.243.437Zm22.89 0 .171-.47-.171.47Zm39.11 76.938-.09-.492a.566.566 0 0 0-.059.015l.149.477Zm9.79 3.053-.323.382.323-.382Zm5.21 13.516-.493.084.493-.084Zm-3.5 27.431-.477-.151-.006.023.483.128Zm-4.117 15.466-.424.264a.5.5 0 0 0 .906-.132l-.482-.132ZM133.382 170l-.499.029.499-.029Zm-54 14.5-.412.283.005.008.407-.291ZM56.906 209l-.496.059a.45.45 0 0 0 .004.028l.492-.087Zm3.976 22.5-.492.087a.5.5 0 0 0 .892.213l-.4-.3Zm14.5-22.5-.444-.23.444.23Zm74.264-98.962-2.407-7.147-.948.32 2.407 7.147.948-.32Zm-2.407-7.146c-1.331-3.955-4.033-10.39-6.01-14.317l-.894.45c1.957 3.887 4.641 10.278 5.956 14.185l.948-.318Zm-6.01-14.317c-2.045-4.057-5.7-9.19-8.444-11.836l-.694.72c2.648 2.554 6.241 7.59 8.244 11.566l.894-.45Zm-8.444-11.836c-2.648-2.556-7.368-6.169-10.51-8.045l-.512.858c3.076 1.838 7.734 5.403 10.328 7.907l.694-.72Zm-10.51-8.045c-3.138-1.875-8.745-4.527-12.478-5.906l-.346.938c3.681 1.36 9.23 3.985 12.312 5.826l.512-.858Zm-12.478-5.906c-4.623-1.706-9.755-2.677-15.887-3.018l-.056.998c6.058.337 11.088 1.294 15.597 2.958l.346-.938ZM93.91 59.77c-5.39-.299-10.81-.035-13.466.686l.262.965c2.494-.676 7.779-.95 13.148-.653l.056-.998Zm-13.466.686c-2.455.667-6.182 2.79-8.334 4.735l.67.742c2.054-1.855 5.645-3.892 7.926-4.512l-.262-.965Zm-8.334 4.735c-2.162 1.953-4.932 5.915-6.191 8.842l.918.396c1.209-2.81 3.899-6.649 5.943-8.496l-.67-.742Zm-6.191 8.842c-1.252 2.91-3.15 9.355-4.23 14.334l.978.212c1.072-4.95 2.954-11.324 4.17-14.15l-.918-.396Zm-4.23 14.334c-1.61 7.428-2.07 14.602-2.52 38.917l1 .018c.451-24.337.912-31.409 2.498-38.723l-.978-.212Zm-2.52 38.917-.552 29.792 1 .018.552-29.792-1-.018Zm-.284 29.358-2.617 1.368.464.886 2.617-1.368-.464-.886Zm-2.617 1.368c-1.502.785-3.933 2.717-5.44 4.307l.726.688c1.453-1.534 3.8-3.388 5.178-4.109l-.464-.886Zm-5.44 4.307c-1.527 1.61-3.683 4.964-4.82 7.477l.91.412c1.103-2.437 3.203-5.689 4.636-7.201l-.726-.688Zm-4.82 7.477c-1.144 2.528-2.092 6.515-2.104 8.909l1 .006c.012-2.232.918-6.081 2.015-8.503l-.911-.412Zm-2.104 8.909c-.006 1.197.278 4.06.73 7.676a383.293 383.293 0 0 0 1.78 12.406l.988-.158a382.032 382.032 0 0 1-1.775-12.373c-.455-3.634-.729-6.428-.723-7.545l-1-.006Zm2.51 20.082c1.39 8.686 3.448 18.617 4.583 22.067l.95-.312c-1.107-3.366-3.155-13.225-4.545-21.913l-.988.158Zm4.583 22.067a49.642 49.642 0 0 0 2.06 5.194c.742 1.598 1.503 2.99 2.103 3.753l.786-.618c-.523-.666-1.244-1.967-1.981-3.556a48.588 48.588 0 0 1-2.018-5.085l-.95.312Zm4.163 8.947c.818 1.04 1.245 1.818 1.423 2.764.182.969.112 2.161-.171 4.054l.989.148c.285-1.901.38-3.239.165-4.387-.22-1.17-.754-2.096-1.62-3.197l-.786.618Zm8.605 24.455c1.7.409 4.925.728 7.194.719l-.004-1c-2.213.009-5.355-.306-6.956-.691l-.234.972Zm7.194.719c1.31-.005 3.093-.351 5.08-.941 1.997-.592 4.233-1.439 6.461-2.466l-.418-.908c-2.19 1.009-4.381 1.838-6.327 2.415-1.955.58-3.63.896-4.8.9l.004 1Zm11.541-3.407c5.588-2.576 7.95-3.148 10.526-2.729l.16-.988c-2.901-.471-5.508.229-11.104 2.809l.418.908Zm10.526-2.729c.919.148 2.17.566 3.45 1.131 1.276.564 2.547 1.261 3.504 1.948l.584-.812c-1.028-.738-2.362-1.466-3.684-2.05-1.317-.583-2.656-1.036-3.694-1.205l-.16.988Zm6.955 3.079c1.986 1.425 5.861 4.193 8.611 6.152l.58-.814c-2.75-1.959-6.623-4.727-8.609-6.15l-.582.812Zm8.611 6.152 5 3.562.58-.814-5-3.562-.58.814Zm5.34 3.653 8-.799-.1-.996-8 .799.1.996Zm8-.799c4.381-.438 12.24-.812 17.452-.83l-.004-1c-5.238.018-13.129.394-17.548.834l.1.996Zm17.452-.83c4.252-.015 6.777.062 9.057.486 2.273.423 4.323 1.197 7.619 2.616l.396-.918c-3.303-1.423-5.441-2.236-7.832-2.681-2.384-.444-4.997-.518-9.244-.503l.004 1Zm16.676 3.102 7.375 3.176.396-.918-7.375-3.176-.396.918Zm8.072 2.68-.639-8.705-.998.074.639 8.705.998-.074Zm-.639-8.705c-.351-4.783-1.077-16.698-1.614-26.475l-.998.054c.537 9.779 1.263 21.702 1.614 26.495l.998-.074Zm-1.614-26.475-.975-17.78-.998.054.975 17.78.998-.054Zm-1.123-17.397 15.446-15.22-.702-.712-15.446 15.22.702.712Zm15.446-15.22c11.988-11.813 16.067-16.492 18.082-20.868l-.908-.418c-1.923 4.176-5.848 8.721-17.876 20.574l.702.712Zm18.082-20.868c1.608-3.491 2.582-7.416 2.588-10.508l-1-.002c-.006 2.916-.934 6.699-2.496 10.092l.908.418Zm2.588-10.508c.003-1.357-.163-2.907-.432-4.315-.266-1.4-.642-2.703-1.078-3.547l-.888.46c.369.714.723 1.907.984 3.274.259 1.358.417 2.844.414 4.126l1 .002Zm-1.51-7.862c-.843-1.63-2.97-4.148-4.742-5.639l-.644.766c1.7 1.429 3.731 3.849 4.498 5.333l.888-.46Zm-4.742-5.639c-1.76-1.48-4.618-3.426-6.378-4.338l-.46.888c1.684.872 4.482 2.774 6.194 4.216l.644-.766Zm-6.378-4.338c-.906-.469-3.125-1.259-5.924-2.148a226.163 226.163 0 0 0-9.682-2.814l-.258.966c3.396.906 6.835 1.912 9.637 2.802 2.821.895 4.952 1.659 5.767 2.082l.46-.888Zm-15.606-4.962a538.314 538.314 0 0 1-8.788-2.414 136.909 136.909 0 0 1-2.708-.799 24.443 24.443 0 0 1-.74-.241 3.788 3.788 0 0 1-.176-.067l-.012-.005a.46.46 0 0 1 .149.145l-.838.544a.527.527 0 0 0 .201.184c.035.019.072.036.103.05.064.027.146.058.238.091.188.066.451.152.778.254.657.204 1.59.479 2.73.805 2.281.652 5.4 1.511 8.805 2.419l.258-.966Zm-12.275-3.381a.328.328 0 0 1 .031.055l.007.016-.006-.017a18.58 18.58 0 0 1-.156-.652c-.098-.448-.229-1.08-.383-1.851a395.569 395.569 0 0 1-1.124-5.89l-.984.182c.417 2.264.818 4.357 1.127 5.904.155.774.287 1.413.388 1.87.05.228.093.415.127.551.017.068.034.128.048.177.008.024.016.051.026.077.006.015.026.068.061.122l.838-.544Zm-1.631-8.339-1.516-8.229-.984.182 1.516 8.229.984-.182ZM56.407 236.656c-.307 4.368-.128 7.596.957 10.318 1.09 2.737 3.07 4.9 6.224 7.198l.588-.808c-3.075-2.24-4.89-4.267-5.883-6.76-1-2.507-1.193-5.549-.888-9.878l-.998-.07Zm92.281-126.334 3.55 13.844.968-.248-3.55-13.844-.968.248Zm-29.717-32.938c6.729 9.683 9.07 24.562 7.412 49.583l.998.066c1.66-25.048-.65-40.235-7.588-50.22l-.822.571Zm7.412 49.583c-.491 7.413-2.497 12.748-5.297 16.585-2.799 3.836-6.418 6.207-10.189 7.65-7.568 2.897-15.708 2.051-18.977 1.799l-.076.998c3.231.248 11.599 1.127 19.41-1.863 3.918-1.499 7.707-3.976 10.64-7.994 2.933-4.019 4.986-9.546 5.487-17.109l-.998-.066Zm-34.42 26.04c-15.066-2.457-23.436-16.139-26.62-23.701l-.922.388c3.216 7.638 11.78 21.756 27.38 24.299l.162-.986Zm-26.62-23.701c-.966-2.293-1.588-6.09-1.884-10.698-.295-4.591-.264-9.932.047-15.279.312-5.347.904-10.69 1.728-15.282.826-4.607 1.878-8.412 3.09-10.715l-.884-.466c-1.288 2.447-2.361 6.38-3.19 11.004-.833 4.64-1.429 10.022-1.742 15.4-.314 5.379-.345 10.762-.047 15.403.298 4.623.926 8.564 1.96 11.021l.922-.388Zm2.981-51.974c2.486-4.723 4.489-7.37 6.02-8.925 1.521-1.543 2.586-2.022 3.28-2.408l-.485-.874c-.687.382-1.872.922-3.507 2.58-1.622 1.647-3.678 4.384-6.192 9.161l.885.466Zm9.3-11.333c1.046-.58 2.624-1.007 4.53-1.278 1.895-.269 4.074-.377 6.291-.347 4.448.063 8.982.685 11.656 1.658l.342-.94c-2.826-1.027-7.487-1.655-11.984-1.718-2.255-.031-4.487.08-6.446.357-1.948.276-3.669.725-4.874 1.394l.486.874Zm22.477.033c2.225.809 5.667 1.887 9.215 3.658 3.545 1.77 7.143 4.21 9.66 7.701l.812-.584c-2.65-3.675-6.406-6.204-10.025-8.011-3.615-1.806-7.145-2.913-9.32-3.704l-.342.94Zm39.371 76.96c2.367-.436 6.423.445 9.377 2.943l.646-.764c-3.163-2.674-7.517-3.657-10.203-3.163l.18.984Zm9.377 2.943c4.047 3.421 4.092 7.67 5.04 13.218l.986-.168c-.915-5.351-.983-10.096-5.38-13.814l-.646.764Zm5.04 13.218c.89 5.206.032 11.986-1.068 17.51a107.756 107.756 0 0 1-1.62 6.912 92.628 92.628 0 0 1-.738 2.587l-.043.141-.011.035a.046.046 0 0 1-.003.009l-.001.002.477.151.477.15.001-.003.003-.01.012-.037.044-.145c.039-.128.096-.315.167-.557.143-.485.345-1.187.581-2.063a109.246 109.246 0 0 0 1.635-6.977c1.104-5.541 1.996-12.476 1.073-17.873l-.986.168Zm-3.007 27.347-.483-.128v.001l-.001.001-.002.008-.008.029a3.362 3.362 0 0 1-.03.113l-.114.431-.412 1.554-1.287 4.85c-.962 3.619-1.99 7.483-2.262 8.475l.964.264c.274-.997 1.304-4.866 2.264-8.482l1.288-4.851.412-1.554.114-.431a7.198 7.198 0 0 1 .038-.142l.002-.007v-.003l-.483-.128Zm-3.693 15.202c-3.657-5.871-12.53-18.378-13.308-31.731l-.998.058c.796 13.668 9.86 26.428 13.458 32.201l.848-.528Zm-67.395-17.485c-1.915-2.786-7.796-7.587-16.077-4.689l.33.944c7.72-2.702 13.172 1.764 14.923 4.311l.824-.566Zm-16.077-4.689c-2.165.758-3.746 2.511-4.888 4.763-1.141 2.252-1.868 5.051-2.307 7.998-.879 5.894-.62 12.491-.112 16.77l.993-.118c-.501-4.221-.754-10.724.108-16.505.43-2.891 1.136-5.573 2.21-7.693 1.074-2.119 2.491-3.629 4.326-4.271l-.33-.944Zm-7.303 29.559 3.976 22.5.984-.174-3.976-22.5-.984.174Zm4.868 22.713c3.058-4.076 10.251-14.298 14.544-22.57l-.888-.46c-4.254 8.198-11.409 18.368-14.456 22.43l.8.6Zm72.599-61.829c-.321-5.511-.816-11.706-.242-16.843.578-5.172 2.207-8.999 5.892-10.151l-.298-.954c-4.315 1.348-6.005 5.784-6.587 10.994-.586 5.244-.081 11.55.237 17.012l.998-.058ZM75.826 209.23c2.695-5.193 4.338-10.496 4.992-14.955.326-2.229.407-4.259.243-5.966-.164-1.696-.574-3.122-1.272-4.1l-.814.582c.552.772.934 1.997 1.09 3.614.155 1.607.081 3.553-.237 5.725-.636 4.343-2.243 9.539-4.89 14.64l.888.46Z" fill="#000" mask="url('#path-2-inside-1_3_234')"/><path d="M168.939 82.349a20655.16 20655.16 0 0 1 28.165-39.599c4.618-6.463 8.684-11.75 9.034-11.75.35 0 2.348 1.186 4.44 2.636 2.092 1.45 3.804 2.82 3.804 3.044 0 .225-13.873 19.973-30.83 43.885L55.09 261.523c-3.185 4.662-6.335 8.465-7 8.45-.664-.015-2.756-1.311-4.649-2.88L40 264.24l8.108-11.473L168.939 82.349Z" fill="#744B22"/><path d="M202.393 54.465c-.198-.193 2.42-4.201 5.818-8.908L214.252 37l8.215 4.444c4.007 2.445 10.906 7.353 15.332 10.908 4.426 3.556 10.542 9.318 13.592 12.806 3.049 3.488 7.423 9.108 9.72 12.489 2.296 3.38 5.703 9.455 7.569 13.5 1.867 4.044 4.152 10.278 5.077 13.853.926 3.575 1.882 9.875 2.125 14 .373 6.329.241 7.208-.844 5.63-.707-1.028-4.277-6.428-7.934-12-3.656-5.571-10.328-14.524-14.828-19.894-4.499-5.37-11.795-12.949-16.212-16.841-4.418-3.893-11.147-9.093-14.954-11.556l-18.717-9.874Z" fill="#F2F2F2"/><path fill-rule="evenodd" clip-rule="evenodd" d="M84.066 77.388c-2.099.782-4.675 2.199-5.725 3.149-1.05.95-2.82 3.61-3.934 5.911-1.379 2.849-2.025 6.201-2.025 10.51v6.327l6-.627 6-.627v2.908c0 1.651-1.092 4.206-2.527 5.911-1.39 1.652-3.865 3.297-5.5 3.656-2.273.499-2.973 1.209-2.973 3.013 0 2.006.564 2.407 3.75 2.671 3.012.249 3.813.753 4.07 2.56.303 2.14.752 2.25 9.183 2.25h8.864l.317-2.75c.281-2.448.81-2.81 4.816-3.296 2.475-.3 5.497-1.095 6.716-1.767 1.31-.722 2.696-2.952 3.391-5.454.646-2.328 1.224-8.085 1.284-12.794.099-7.81-.138-8.935-2.714-12.838-2.029-3.075-4.365-4.985-8.308-6.79-3.018-1.381-8.047-2.699-11.178-2.928-3.469-.254-7.181.138-9.507 1.005Zm21.382 24.647c1.281.686 1.934 2.094 1.934 4.171 0 1.725-.745 3.959-1.655 4.965-.91 1.006-2.965 1.829-4.566 1.829s-3.717-.432-4.703-.959c-.986-.528-2.467-1.991-3.29-3.25-.824-1.26-1.809-3.277-2.19-4.481-.629-1.988-.296-2.226 3.606-2.575 2.364-.212 5.34-.464 6.614-.56 1.273-.096 3.186.291 4.25.86Zm-16.227 12.512c.639 1.401 1.161 3.201 1.161 4 0 .948-1.043 1.453-3 1.453s-3-.505-3-1.453c0-.799.522-2.599 1.161-4 .638-1.401 1.466-2.547 1.839-2.547s1.201 1.146 1.839 2.547Zm-8.839 18.918c0 1.413.825 2.906 1.934 3.5 1.064.569 4.873 1.035 8.465 1.035 5.433 0 6.705-.325 7.566-1.934.569-1.064 1.035-2.639 1.035-3.5 0-1.311-1.545-1.566-9.5-1.566-9.431 0-9.5.018-9.5 2.465Zm55 12.089c-.825.178-4.148.616-7.384.973-4.277.473-6.531 1.297-8.25 3.016-1.764 1.764-2.36 3.459-2.344 6.662.013 2.522.736 5.205 1.75 6.501.951 1.213 2.751 2.577 4.002 3.031 1.27.46 6.194.337 11.155-.279 4.885-.608 10.029-1.856 11.43-2.774 1.585-1.038 2.797-3.001 3.209-5.193.396-2.111.145-4.77-.626-6.631-.797-1.924-2.541-3.63-4.582-4.483-1.813-.757-4.098-1.325-5.078-1.261-.98.064-2.457.261-3.282.438Zm-63.89 42.783c-1.314.761-2.986 2.459-3.714 3.773-.729 1.315-1.341 3.425-1.361 4.69-.019 1.264.632 3.589 1.448 5.166.875 1.693 2.821 3.304 4.75 3.932 1.797.586 6.376 1.499 10.176 2.03 5.337.746 7.65.656 10.169-.396 1.794-.75 3.747-2.271 4.342-3.382.594-1.11 1.08-3.77 1.08-5.91 0-2.787-.664-4.515-2.34-6.09-1.287-1.209-3.784-2.612-5.549-3.118-1.765-.506-6.225-1.181-9.91-1.499-4.784-.413-7.385-.183-9.091.804Zm11.64 62.235c-1.628.883-2.75 2.333-2.75 3.553 0 1.133 2.475 9.793 5.5 19.243 3.025 9.451 5.5 17.509 5.5 17.907 0 .399-3.395.725-7.545.725-6.678 0-7.828.282-10 2.455-1.35 1.35-2.455 3.11-2.455 3.912 0 .912 1.402 1.678 3.75 2.048 2.063.325 14.648.502 27.967.394 19.524-.158 24.32-.463 24.747-1.575.291-.758.013-2.359-.617-3.556-.631-1.198-1.534-2.433-2.009-2.744-.478-.315-.444-1.874.076-3.5.516-1.614 1.448-8.72 2.071-15.792.623-7.072.993-12.985.824-13.14-.17-.156-2.642-.053-5.492.228l-5.184.512-.753 6.629c-.415 3.646-.782 10.565-.817 15.376l-.063 8.748-7.25.002-7.25.003v-3.132c0-1.722-2.5-10.818-5.555-20.213-3.055-9.395-6.035-17.661-6.622-18.368-.587-.708-1.575-1.269-2.195-1.247-.621.022-2.365.711-3.878 1.532Z" fill="#F2F2F2"/></svg>