<svg width="317" height="301" fill="none" xmlns="http://www.w3.org/2000/svg"><g clip-path="url('#clip0_19_387')"><path d="M131.804 27.1c-2.051 1.717-1.983 1.534-2.256 5.52-.16 2.473-.365 3.802-.616 4.306-.455.847-1.55 1.328-5.379 2.267-2.895.71-2.986.688-2.986-.962 0-.824.16-1.122 1.505-2.634 1.914-2.153 2.484-3.298 2.279-4.42-.16-.802-1.664-2.818-1.915-2.566-.045.069.114.665.388 1.306.296.641.456 1.397.387 1.672-.068.252-.889 1.351-1.846 2.428-2.302 2.565-2.462 2.886-2.348 4.902l.069 1.626-1.345.527c-.752.297-1.824.572-2.393.595l-1.049.023.046-1.1c.022-.938.98-6.275 1.344-7.558.069-.206.023-.39-.091-.39-.296 0-1.732 3.23-2.575 5.773-.661 1.992-.707 2.382-.388 4.191.046.344-.251.619-1.299 1.214-1.163.642-1.527.733-2.507.642-.616-.046-1.414-.206-1.755-.344-.616-.229-.639-.298-.639-1.832 0-2.611-.456-6.254-.911-7.284-.388-.894-1.414-1.718-1.71-1.397-.068.068.16.71.479 1.443.615 1.328.615 1.328.456 5.314l-.16 3.962.638.596c.342.32.912.641 1.254.71.365.069.684.206.752.275.091.16-4.262 2.954-5.402 3.481-1.368.596-1.641-.183-.843-2.45.57-1.673.478-2.978-.342-4.215-.547-.825-1.96-1.855-1.96-1.443 0 .114.319.641.683 1.214.889 1.328.889 2.336 0 4.352-.866 1.97-.866 2.428.023 3.344l.73.756-1.984 2.13c-3.441 3.665-5.06 6.093-6.222 9.414-.524 1.49-.593 2.062-.684 6.162l-.114 4.49.98 1.832.98 1.832-.82 1.81c-2.599 5.68-2.986 11.681-1.003 15.598 1.3 2.588 3.624 4.764 6.747 6.345 4.034 2.016 6.792 2.291 10.713 1.031.775-.252 1.55-.458 1.732-.458.296 0 1.527 2.954 1.892 4.604.251 1.099.114 1.466-1.231 3.138-.433.549-.798 1.214-.798 1.488 0 .917 1.117 1.718 3.921 2.818 3.487 1.351 3.601 1.466 3.145 3.092-.182.618-.137 1.054.114 1.81.251.71.342 1.947.342 4.489v3.505l1.117 1.145c.866.939 1.231 1.168 1.846 1.168.57 0 .912.206 1.596.962l.866.985.82-.435c.639-.344.935-.39 1.345-.206 1.049.481 2.143-.55 4.149-3.94 1.23-2.039 1.869-2.863 2.302-2.863.706 0 2.507 2.932 3.829 6.276 1.276 3.138 1.96 5.955 2.12 8.521l.137 2.29-3.853 1.672c-6.883 2.978-9.026 4.352-14.747 9.483-1.96 1.741-4.194 3.688-4.992 4.329-2.074 1.695-5.675 4.031-6.815 4.444-.684.229-2.484.412-5.447.549-6.2.298-6.793.367-7.659 1.031-1.39 1.054-1.641 1.764-1.892 5.268-.137 1.764-.25 4.398-.25 5.864 0 2.497.045 2.726.706 4.055.365.778 1.003 1.672 1.368 1.992.615.504.911.573 2.461.573h1.755l1.345 1.397c2.006 2.062 2.986 2.726 4.012 2.726.706 0 1.071.206 2.074 1.099 2.006 1.856 3.146 2.245 5.265 1.833 1.231-.229 1.345-.206 2.166.32 1.892 1.26 3.966 1.398 6.747.413.752-.252 1.367-.458 1.413-.458.136 0 .547 1.695 1.481 6.07 1.755 8.2 3.26 12.208 5.471 14.636 1.162 1.283 2.074 1.741 3.464 1.741h.616l-.046 6.917-.068 6.918-1.482.275c-4.467.847-6.792 2.68-8.114 6.436-.228.641-.525 1.351-.684 1.535-.16.252-1.345.549-3.715.939-4.445.756-5.722 1.237-7.363 2.817-1.276 1.214-1.527 1.626-2.826 4.604-.547 1.237-.752 1.512-1.573 1.855-1.048.459-2.279 1.764-2.758 2.887-1.527 3.641 1.983 9.253 7.636 12.208.98.504 1.915 1.077 2.051 1.26.206.252.251.824.137 2.038-.182 2.016.251 3.894 1.094 4.696.342.321 1.026.596 1.892.733 2.143.344 9.778.687 15.545.687h5.288l.228.596c.137.32.228 1.008.228 1.534.023 1.489.388 2.749.957 3.23.456.367.775.412 2.508.275 1.755-.115 2.028-.092 2.211.275.205.389.501 3.894.934 11.086.274 4.306.342 4.008-1.413 6.436-1.322 1.787-2.006 3.436-2.006 4.833 0 1.375 1.14 3.551 2.713 5.177 1.116 1.145 1.458 1.351 2.598 1.603 2.12.436 4.901-.16 7.112-1.534 1.664-1.031 3.76-4.398 3.76-6.001 0-2.131-1.094-4.582-2.644-5.956l-1.048-.939-.205-3.253c-.228-3.916-.228-9.918 0-10.719.137-.504.296-.573 1.253-.642l1.117-.068-.136-3.459-.16-3.436 5.653.138c3.1.068 8.616.206 12.263.274l6.655.138.912-1.168c1.254-1.604 1.459-3.161.821-6.826l-.137-.71 6.359-3.23c3.488-1.786 6.838-3.596 7.431-4.054 1.253-.916 1.755-1.901 1.755-3.344 0-1.237-.616-2.268-2.12-3.642-1.322-1.191-1.345-1.352-.706-4.971.364-2.13.364-2.13-.228-4.924-.889-4.055-1.003-5.246-1.3-13.217-.364-9.391-.091-17.247.707-19.332.615-1.626 1.732-2.794 3.601-3.802.775-.412 1.55-.985 1.755-1.306.206-.297.456-1.443.593-2.542.296-2.772.479-3.092 2.234-4.192 4.262-2.68 10.872-11.59 17.893-24.073.957-1.741 2.005-3.345 2.302-3.574.296-.252 1.185-.572 1.983-.733 2.484-.481 3.122-1.145 2.849-2.886-.068-.458-1.254-2.84-2.644-5.314-2.599-4.672-3.419-6.505-5.037-11.155-2.986-8.543-6.816-17.11-10.622-23.73-2.097-3.642-2.485-4.535-2.166-4.856.114-.114 1.801-.32 3.716-.435 1.914-.114 3.556-.275 3.67-.389.638-.642-1.345-2.497-7.477-6.986-9.049-6.643-9.413-6.94-15.613-13.08-6.61-6.573-5.288-5.52-16.275-12.689-3.783-2.45-3.624-2.199-4.011-6.093-.798-8.131-2.325-14.476-4.924-20.546-.661-1.603-1.23-2.955-1.23-3.023 0-.23.888-.138 1.025.091.821 1.352 6.268 1.833 7.682.688.501-.39.478-.413-1.414-.367-1.8.023-2.051-.023-3.35-.756-.798-.435-1.436-.87-1.436-.985 0-.114.478-.435 1.094-.71l1.071-.504-1.253-.069c-4.491-.229-6.314-.71-7.477-1.947l-.547-.572.889-.275c1.026-.344 3.647-1.993 4.263-2.703.592-.687.159-.664-1.664.069-1.733.71-3.921.802-5.904.229-1.39-.412-5.584-2.176-5.447-2.313.045-.046.866.206 1.846.55l1.755.618 1.413-1.49c1.596-1.671 3.67-4.672 3.533-5.084-.046-.138-1.254.847-2.644 2.222l-2.576 2.474-1.641-.482c-1.413-.435-2.302-.503-6.2-.55-4.604-.068-5.743-.251-5.06-.824.183-.16 1.391-.412 2.713-.595 1.299-.16 2.689-.481 3.077-.665.98-.526 1.481-1.9 1.595-4.397l.092-2.062-.593 1.695c-.798 2.29-1.185 2.978-1.801 3.207-.752.297-4.855.778-5.265.641-.251-.114-.342-.48-.342-1.283 0-1.718-.775-4.008-1.618-4.695-.638-.55-1.117-.756-1.117-.481 0 .068.251.618.547 1.214.319.595.638 1.649.706 2.359.183 1.558-.182 2.45-1.322 3.161-.41.252-1.23.985-1.846 1.603-.592.642-1.208 1.169-1.345 1.169-.159 0-1.344.16-2.644.343-1.299.183-2.416.298-2.461.252-.069-.046.022-.343.205-.641.205-.367.296-1.512.296-3.848V29.55l1.094-1.466c.935-1.26 1.322-2.084.98-2.084-.068 0-.706.504-1.436 1.1Zm8.593 8.612c0 .458-.592.87-1.162.779-.752-.115-.775-.573-.046-.825.889-.343 1.208-.32 1.208.046Zm-3.008 3.596c.342.641.798 1.397 1.025 1.65.411.503.411.48.32-.757-.069-.687-.183-1.443-.274-1.672-.137-.343-.023-.39.866-.39 1.208 0 1.619.322 2.166 1.696l.387.939.114-1.26.114-1.26 1.14.023c2.963.023 4.216.596 4.216 1.924 0 .916.388.87.844-.137.364-.733.478-.802 1.117-.71.797.137 3.738 1.26 4.057 1.557.114.092-.114.917-.547 1.901-.433.963-.707 1.81-.616 1.879.069.091.775-.435 1.573-1.146.798-.71 1.55-1.282 1.664-1.282.137.023 1.026.595 2.006 1.282l1.778 1.283-1.026 1.1c-1.003 1.076-1.208 1.443-1.595 2.68-.274.87.296.618 1.983-.894l1.595-1.42.729.894.753.87-.775 1.214c-.433.664-.775 1.282-.775 1.351 0 .252.501.092 1.367-.48.479-.321 1.003-.528 1.163-.436.684.435 3.373 7.192 4.285 10.834 1.003 3.894 2.507 14.385 2.12 14.728-.091.07-.752.252-1.482.39-1.755.343-3.829 1.305-4.627 2.13-.775.802-.479.847 1.345.206 1.55-.55 5.174-.664 5.174-.16 0 .802-.775 2.45-1.459 3.115-.684.664-.957.756-3.122 1.054-2.872.389-3.647.641-5.015 1.626-2.849 2.084-4.262 6.024-3.305 9.3.615 2.175.524 2.565-1.254 5.336-1.983 3.07-2.917 5.063-3.1 6.551-.114.985-.319 1.352-1.55 2.703-1.322 1.512-1.983 2.634-2.256 3.94-.479 2.313-4.718 5.314-11.123 7.902-3.556 1.42-4.126 1.489-5.425.504-.57-.412-1.299-.962-1.641-1.168-.41-.252-.638-.596-.638-.962 0-.916-.411-1.695-.958-1.832-.296-.069-1.504-.184-2.689-.23-1.186-.045-3.146-.229-4.331-.389l-2.165-.321 3.532-.183c11.169-.527 17.369-2.222 20.902-5.68 1.299-1.283 1.664-2.131 1.664-3.917 0-3.069-1.299-5.566-3.784-7.284-.547-.367-1.003-.779-1.003-.893 0-.115.57-.413 1.254-.665 3.054-1.145 6.268-3.206 8.046-5.153 1.482-1.627 1.641-2.405.98-4.26l-.501-1.375 1.436-1.695c.797-.94 1.732-2.199 2.074-2.817.661-1.26 1.299-4.352 1.322-6.574.023-2.978.228-3.62 1.709-5.429.73-.916 2.234-2.588 3.305-3.733l1.938-2.039 1.504.366c1.664.413 2.234.344 2.234-.32 0-.527-.365-.71-2.507-1.329l-1.71-.48-1.481 1.534c-.821.87-2.371 2.543-3.442 3.734l-1.96 2.176-.775-1.146c-.411-.641-1.528-1.924-2.485-2.886-2.826-2.886-6.131-4.169-10.599-4.191-4.558 0-7.75 1.511-10.735 5.153-2.075 2.52-2.713 4.833-2.553 8.956.182 3.917.683 4.97 4.376 8.842.957 1.007 1.504 1.74 1.368 1.855-.114.115-1.368.687-2.758 1.283l-2.576 1.1-1.071-.413c-1.687-.641-3.465-2.588-4.263-4.65-.752-1.947-1.185-2.176-.957-.48.296 2.198 1.003 3.641 2.53 5.153l1.436 1.42-1.094.504-1.094.504-2.006-1.512c-1.094-.847-2.667-1.855-3.465-2.245-1.777-.893-2.256-.778-3.601.87l-.934 1.192-.137-2.68c-.137-2.772-.524-4.719-1.345-6.39-.615-1.283-2.621-3.482-4.012-4.353-3.487-2.245-9.254-2.336-13.356-.229l-.912.458-.525-.595c-.911-1.077-.706-1.879.798-3.344 2.394-2.337 4.992-3.436 8.16-3.436 2.53 0 3.055.16 3.055.939 0 .595.045.618.797.504.73-.115.889-.023 1.892.985.593.618 1.664 1.786 2.394 2.61.706.826 1.299 1.33 1.299 1.146 0-.55-1.55-3.046-3.009-4.856-1.117-1.374-1.322-1.763-1.322-2.565-.023-1.26-.684-2.657-1.801-3.757l-.934-.893.82-2.336c.433-1.283.775-2.451.73-2.589-.114-.32-1.938 2.428-2.872 4.284l-.684 1.374 1.276 1.03c1.938 1.558 3.055 3.482 1.824 3.116-2.758-.802-4.103-.893-6.656-.435-.638.114-.592.023.547-.733 1.71-1.168 2.508-1.947 2.508-2.451 0-.23-.297-.916-.684-1.512-.935-1.535-.912-2.611.068-4.077.479-.733 1.208-1.397 2.074-1.947 2.257-1.351 1.961-1.832-.456-.687-3.419 1.626-4.763 4.329-3.51 7.1.616 1.329.57 1.764-.114 1.947-.342.092-1.094.848-1.937 1.97-.752 1.008-1.755 2.13-2.234 2.52-.479.366-1.254 1.214-1.732 1.832-.479.642-.958 1.146-1.072 1.146-.592 0 .046-7.01.821-9.07.889-2.36 2.895-5.2 5.698-8.087l2.553-2.61 1.505.366c.82.229 1.846.39 2.256.39l.752-.024-.547-.458c-.296-.229-1.003-.55-1.55-.71l-1.003-.252.525-.55c.843-.916 5.333-3.687 5.561-3.435.069.045.205.733.342 1.511.365 1.993.752 1.695.889-.687l.114-1.924 2.371-1.03 2.347-1.031.456.572c.41.504.433.78.297 2.383-.137 1.626-.114 1.809.205 1.534.41-.343 1.276-2.588 1.276-3.298 0-.275-.159-.71-.342-.94-.501-.64-.433-.755.57-1.282 1.641-.825 2.188-.664 3.373 1.054.251.366.274.252.16-.756-.16-1.443 0-1.58 2.872-2.451 2.507-.779 2.712-.756 2.712.069 0 .412.228.939.593 1.328l.593.641-.137-.87c-.137-1.1.159-1.924.843-2.245.502-.229 6.382-1.282 7.408-1.328.388-.023.661.252 1.14 1.145Zm7.271 23.226c3.624.94 6.815 3.39 8.342 6.437l.798 1.603-4.376 5.039-4.377 5.016-3.761 1.58c-4.216 1.787-5.174 2.085-6.04 1.879-1.253-.32-3.989-3.436-5.311-6.024-.41-.848-.478-1.351-.478-4.192 0-3.092.022-3.275.661-4.535 2.005-4.008 5.151-6.414 9.368-7.238.889-.16 3.715.069 5.174.435Zm9.391 12.232c-.365 3.687-1.436 6.459-3.191 8.314-1.072 1.123-1.573 1.1-2.553-.114-1.413-1.741-1.413-1.81-.342-3.184 1.869-2.405 6.108-7.17 6.222-6.986.023.023-.045.916-.136 1.97Zm-50.123.022c2.712.527 5.015 2.016 6.428 4.215 1.299 2.039 1.778 3.825 1.778 6.757 0 1.329-.092 2.566-.205 2.726-.206.343-.069.343-7.317-.733-4.035-.619-10.143-1.283-11.602-1.283-1.413 0-1.55-.366-.98-2.703.615-2.542 2.462-6.299 3.67-7.467.524-.504 1.413-1.053 2.12-1.305 1.367-.481 4.193-.573 6.108-.207Zm71.845 6.208c5.425 3.275 6.952 4.352 9.641 6.78 3.533 3.184 5.038 4.924 5.608 6.46.25.686 1.481 4.718 2.735 8.955 1.253 4.215 2.895 9.643 3.647 12.071.752 2.428 1.345 4.627 1.299 4.902-.091.595-.98.962-3.943 1.58-4.103.825-13.175 1.833-16.776 1.833-1.71 0-2.006-.069-2.12-.412-.296-.985-2.165-14.981-2.758-20.569-.319-2.932.638-4.33 4.331-6.368 2.37-1.306 2.233-1.695-.183-.527-2.256 1.077-3.852 2.405-4.49 3.71-.479 1.009-.501 1.283-.365 3.872.183 3.458 1.049 11.223 2.097 18.92 2.211 16.171 2.28 16.904 1.231 18.736-.866 1.489-3.67 4.352-5.926 6.047-2.188 1.626-6.747 4.375-10.417 6.276-2.894 1.489-3.487 1.695-3.487 1.168 0-.137-.114-1.786-.228-3.642-.365-5.749-1.573-10.422-3.989-15.484-1.618-3.39-2.895-5.497-6.45-10.605-1.619-2.336-3.055-4.443-3.191-4.718-.251-.435-.069-.619 2.142-2.153 3.465-2.405 4.559-3.574 5.949-6.483 1.368-2.794 1.619-2.977 5.266-3.939 4.535-1.214 6.063-2.726 6.724-6.666l.296-1.786 1.709.114c2.941.206 4.377.115 5.22-.32 2.12-1.1 2.963-2.84 2.963-6.162 0-2.405-.524-4.169-1.869-6.46l-.775-1.374.638-1.42c.365-.756.821-2.13 1.049-3.023.251-1.123.456-1.604.661-1.535.159.069 1.869 1.076 3.761 2.222Zm-6.063.023c-.183.664-.661 1.718-1.049 2.336l-.729 1.122 1.276 2.543c1.482 3 1.869 4.787 1.527 6.94-.273 1.764-.752 2.703-1.686 3.299-1.094.687-4.559.526-6.314-.275-1.322-.619-3.305-2.268-4.126-3.459-1.436-2.016-.775-5.703 1.482-8.154 1.208-1.329 2.074-1.741 4.923-2.337 1.322-.275 2.667-.687 3.009-.893.729-.458 1.778-1.787 1.778-2.29 0-.184.068-.275.137-.184.068.069-.023.665-.228 1.352Zm-22.657 2.863c1.938 2.405 2.918 3.962 2.918 4.58 0 .711-1.915 2.772-3.738 4.01-3.328 2.29-7.066 3.435-11.306 3.481-2.439.023-2.712-.023-3.806-.596-1.573-.847-5.813-4.054-5.653-4.306.296-.48 19.146-8.68 19.967-8.704.205 0 .934.687 1.618 1.535Zm-28.104 4.444c3.031 2.061 7.978 6.024 8 6.413 0 .641-1.071.893-3.829.916-1.459 0-3.237.115-3.92.23-2.508.412-4.719.503-4.901.228-.091-.16-.251-1.466-.387-2.909l-.206-2.634 1.003-1.076c.547-.596 1.186-1.375 1.391-1.718.228-.344.57-.619.775-.619.182 0 1.117.527 2.074 1.169Zm-21.38.091c9.436.962 13.744 1.855 14.473 3 .502.757.32 3.734-.319 5.2-.569 1.306-1.983 2.726-3.51 3.528-1.117.595-1.413.641-3.601.618-2.006-.023-2.644-.114-3.966-.641-4.171-1.604-7.34-4.49-8.48-7.765-.41-1.145-.843-4.009-.638-4.306.16-.252-.433-.298 6.04.366Zm63.229 11.384c-.365 2.543-1.391 4.49-2.804 5.2-.821.412-3.328 1.168-3.898 1.168-.136 0-.25-.298-.25-.642 0-1.328 1.185-4.1 3.373-7.925l1.026-1.81 1.367 1.42 1.345 1.398-.159 1.191Zm-31.706-1.947c-.068.985-.205 2.153-.296 2.588-.16.802-.16.802-1.345.779-1.505-.046-1.869-.343-1.846-1.557.022-1.627.433-2.451 1.55-3.047.547-.297 1.253-.527 1.549-.527.547 0 .547.023.388 1.764Zm68.836 1.764c2.393 1.786 6.109 4.558 8.228 6.116 2.143 1.557 4.194 3.115 4.559 3.458l.684.619-2.599.023h-2.575l-2.576 1.603c-2.826 1.764-3.92 2.291-4.741 2.291-.524 0-.615-.252-1.732-4.078-3.032-10.559-3.807-13.33-3.716-13.33.069 0 2.075 1.488 4.468 3.298Zm-76.791-.206v2.061l-.912.298c-.501.16-2.119.366-3.601.458l-2.667.16.137-1.488c.068-.825.228-1.833.365-2.245.205-.664.296-.733 1.162-.733.524 0 1.482-.16 2.097-.344.638-.16 1.664-.297 2.279-.275l1.14.046v2.062Zm12.764-1.718c.889.114 1.733.229 1.892.229.228 0 .251.39.137 1.764-.091.985-.251 1.924-.388 2.061-.136.206-.98.298-2.712.298h-2.507l.159-2.016c.205-2.771.228-2.84 1.094-2.68.411.069 1.459.23 2.325.344Zm5.721.366c1.687 1.283 2.827 2.428 2.827 2.886 0 .229-.365.596-.889.871-1.026.504-4.627 1.603-5.311 1.603-.41 0-.365-.114.319-.87.707-.802.798-1.054.935-2.657.159-1.718.433-2.657.82-2.657.091 0 .684.366 1.299.824Zm-15.408 1.65c.137 2.565.205 2.634 2.667 3 .98.138 1.983.412 2.279.596.342.229 1.208.343 2.736.366 3.646.069.82.389-4.992.573-5.699.183-5.676.183-4.764-1.672.296-.596.547-1.695.615-2.566.183-2.359.251-2.588.844-2.496.456.068.501.206.615 2.199Zm-11.556 0c-.137 1.259-.433 1.534-.661.641-.114-.504.501-2.153.706-1.924.069.046.046.641-.045 1.282Zm31.409 3.275c.456.893.365 2.52-.251 3.734-1.322 2.588-5.743 4.764-11.738 5.772-1.983.343-3.738.435-8.434.435h-5.926l-2.598-.962c-1.436-.527-2.758-1.123-2.941-1.306-.319-.298-.273-.435.251-1.122 6.645-1.221 22.617 6.119 30.019-6.459 1.276-.688 1.299-.688 1.618-.092Zm-24.07.87c.069.115 0 .298-.114.367-.364.229-5.06 1.489-5.516 1.489-.319 0-.866-1.031-.866-1.627 0-.343 6.268-.572 6.496-.229Zm86.889 12.919c4.011 6.872 7.02 13.4 10.53 22.951 2.416 6.551 2.986 7.857 4.992 11.567 1.755 3.23 3.237 6.093 3.237 6.276 0 .367-1.322.642-4.946 1.054-6.656.756-7.226.916-14.292 3.94-2.621 1.122-4.969 2.015-5.22 1.97-.341-.046-.592-.458-.98-1.65-.638-1.878-1.071-2.428-1.914-2.428-.707 0-1.824 1.1-3.055 3.047-1.527 2.382-1.208 2.268-7.362 2.451l-5.425.137-1.481-.687a218.045 218.045 0 0 0-3.875-1.649c-1.322-.527-2.416-1.122-2.462-1.306-.045-.183.274-.779.684-1.305.98-1.283 2.576-2.085 8.137-4.123 2.393-.871 5.197-1.993 6.246-2.474 4.877-2.336 7.521-5.612 7.84-9.781.16-1.97-.113-4.031-1.322-10.399-.706-3.733-.888-5.016-.706-5.405.182-.367.706-.688 1.801-1.031 2.074-.687 3.145-1.26 3.578-1.878.752-1.054.342-3.894-1.208-8.452l-.661-1.993 1.436-.619a22.503 22.503 0 0 0 2.667-1.397c.661-.412 1.253-.756 1.322-.756.068 0 1.162 1.764 2.439 3.94Zm-81.122.389 2.325-.023v.596c0 1.031.638 1.947 1.732 2.428.547.252 1.003.595 1.003.779 0 .183-.433.939-.98 1.672a54.53 54.53 0 0 0-2.211 3.436l-1.231 2.107-.319-.779c-.433-1.122-.889-1.191-1.732-.252l-.729.779-.251-.664c-.228-.642-.342-.687-1.413-.687h-1.14l-.068-.871c-.069-.733-.16-.87-.753-.962l-.683-.114-.023-3.207c0-1.764-.091-3.505-.205-3.848l-.183-.642 2.257.138c1.253.069 3.305.137 4.604.114Zm14.907 4.055c.935 1.007 4.285 5.543 4.285 5.84 0 .092-1.869.184-4.171.184h-4.171l-1.185-2.36c-.662-1.282-1.186-2.405-1.186-2.473 0-.275 4.445-1.993 5.243-2.016.205-.023.729.366 1.185.825Zm58.989 1.42c.114.252.228.87.228 1.374 0 1.214-.615 1.672-3.396 2.543-2.804.847-4.969 1.282-8.228 1.603-3.305.321-11.238.664-11.443.481-.091-.069-.228-.825-.319-1.672l-.159-1.512 1.23-.137c.684-.069 3.123-.298 5.448-.481 5.516-.458 9.87-1.1 12.924-1.924 3.009-.802 3.396-.825 3.715-.275Zm-51.809 8.727c2.735 4.581 5.767 12.208 5.767 14.499 0 1.053-.069 1.168-1.664 2.748-2.69 2.726-8.639 6.414-15.203 9.437-5.676 2.635-7.226 3.07-12.993 3.642l-3.305.344-.684.847c-.364.459-1.641 1.856-2.78 3.116-3.716 3.985-4.331 5.359-3.602 7.879.684 2.382 1.459 3.642 3.374 5.52 2.735 2.68 3.122 3.092 3.601 3.848 1.094 1.764.137 2.68-2.986 2.818-1.755.091-2.006.046-2.598-.435-.958-.756-2.713-3.551-4.491-7.193-1.641-3.367-2.256-5.245-2.256-6.986 0-1.054-.296-1.832-.593-1.535-.273.252-.159 4.307.137 5.429.137.573.98 2.634 1.823 4.627.867 1.97 1.642 3.848 1.733 4.169.137.572.114.595-1.026.595-1.368 0-2.12-.343-3.123-1.42-1.755-1.855-2.37-4.1-2.53-9.3-.068-2.153-.205-3.939-.296-3.939s-.41.801-.707 1.763c-.638 2.131-.706 4.513-.228 7.445.183 1.099.274 2.084.183 2.176-.274.252-3.944-3.551-4.605-4.765-.41-.778-.66-1.74-.843-3.138-.296-2.451-.114-3.871.638-4.97.73-1.1.616-1.374-.296-.802-1.413.848-1.55 1.466-1.504 6.001.045 3.871.045 4.078-.365 4.078-.684 0-1.869-1.146-2.348-2.222-.387-.894-.41-1.168-.182-2.886.16-1.031.228-3.39.182-5.246l-.068-3.39 1.071-1.076 1.094-1.1h4.832c4.719 0 4.901-.023 6.679-.641 3.237-1.145 5.698-2.84 11.146-7.765 6.906-6.207 7.978-6.894 16.958-10.949l3.693-1.672v-1.397c0-1.81-.547-5.2-1.254-7.811-.319-1.145-.57-2.176-.57-2.336 0-.412.707-.481 4.901-.435l3.875.023 1.413 2.405Zm45.769-1.306c.479 1.145 1.892 8.429 2.188 11.27.365 3.504.205 4.993-.706 6.734-1.573 2.932-4.65 4.856-11.967 7.467-5.698 2.038-7.271 2.84-9.003 4.65a37.942 37.942 0 0 1-3.305 2.954c-2.416 1.856-3.169 2.657-3.898 4.284-.912 2.038-.729 3.527.934 7.65.707 1.787 1.254 3.39 1.186 3.573-.137.344-1.163.596-2.53.596h-.958l-1.094-2.588c-1.048-2.474-2.188-6.299-2.188-7.399 0-.802-.41-.87-.57-.091-.25 1.099.297 3.733 1.482 7.261l1.094 3.275h-.729c-1.14 0-2.941-.618-3.967-1.374-1.641-1.191-2.279-2.955-2.78-7.674-.411-3.962-1.026-3.435-1.026.917.023 2.542.068 2.931.866 5.359.798 2.383.843 2.657.502 2.978-.32.344-.456.298-1.619-.321-1.686-.916-3.077-2.496-4.194-4.787-.843-1.718-1.094-2.725-1.664-6.551l-.068-.572-.319.687c-.502 1.145-.547 3.115-.114 4.604.205.756.934 2.519 1.618 3.962.935 1.97 1.163 2.68.958 2.818-.16.091-.958.183-1.733.183-1.322 0-1.527-.069-2.051-.664-.843-.871-2.325-3.757-3.533-6.78-1.094-2.726-1.664-4.765-1.892-6.757-.41-3.688 1.824-5.681 8.821-7.765 4.787-1.42 6.906-2.222 10.12-3.802 4.878-2.36 7.864-4.536 14.52-10.606 1.299-1.191 3.533-3.046 4.969-4.168 2.94-2.245 3.51-2.818 3.852-3.734.456-1.168.273-1.145-1.185.206-.844.802-2.28 1.81-3.533 2.451l-2.097 1.099v-1.099c0-.618-.206-2.588-.456-4.398-.251-1.832-.388-3.39-.297-3.481.114-.115 2.713-.298 5.767-.436 3.077-.137 6.2-.343 6.952-.435a26.144 26.144 0 0 1 2.348-.229c.912-.023 1.003.046 1.299.733Zm-39.455 20.226c.068.595.068 2.084-.023 3.321-.114 2.061-.182 2.29-.616 2.382-5.105 1.054-8.182 2.268-10.348 4.077-1.413 1.191-2.097 1.306-6.861 1.306h-2.872l4.833-2.382c6.929-3.413 11.852-6.414 14.314-8.682.638-.595 1.208-1.053 1.276-1.076.092 0 .205.481.297 1.054Zm64.71 12.277c-4.034 7.49-11.009 17.981-14.177 21.348-.707.733-2.166 1.947-3.26 2.68-1.094.755-2.165 1.626-2.393 1.946-.456.733-.98 3.024-.98 4.467v1.077l-1.3.641c-2.507 1.214-4.376 3.642-4.877 6.322-.114.664-.274 5.703-.342 11.178-.114 8.039-.069 10.788.228 14.27.273 3.115.296 4.443.114 4.764-.228.458-.388.458-4.149.298-3.669-.138-4.034-.115-5.63.366-2.553.779-4.513.871-5.744.252-.547-.252-2.598-1.901-4.581-3.665-3.533-3.115-4.057-3.481-6.496-4.466-1.208-.481-1.231-.504-2.12-2.497l-.912-2.016 1.687-2.107c.935-1.168 2.006-2.634 2.393-3.252.821-1.352 1.869-4.352 1.869-5.36 0-.367.092-.733.206-.802.091-.069 1.162.344 2.324.916 3.351 1.649 3.625 1.718 4.673 1.237 3.829-1.741 14.656-11.773 16.616-15.392l.593-1.1-1.026-2.084c-2.347-4.719-5.333-7.742-10.439-10.605l-1.55-.871v-6.024c0-3.298.068-6.322.137-6.688l.137-.687 1.39.458c2.553.801 11.237.595 13.289-.344.296-.137 1.162-1.214 1.891-2.405.753-1.168 1.459-2.13 1.573-2.13.388 0 .684.573.957 1.878.137.733.434 1.535.661 1.833.411.504.434.504 1.778.114.753-.206 3.397-1.237 5.904-2.29 6.405-2.703 9.049-3.528 11.761-3.574l1.049-.023-1.254 2.337Zm-77.885.527c.091.183-.251 1.557-.707 3.046-1.322 4.192-1.322 7.719 0 10.033.684 1.191 1.505 1.717 3.078 2.038 1.162.252 1.253.321 1.39 1.054.433 2.176 1.254 21.92 1.026 24.898-.16 2.245-.365 2.703-1.208 2.886-.365.092-3.556.252-7.135.367l-6.496.229-1.071-1.214c-1.322-1.443-2.667-3.986-3.442-6.46-.319-1.008-1.048-4.008-1.618-6.642-.593-2.657-1.687-6.826-2.439-9.3-2.302-7.627-2.416-8.223-2.599-13.377-.159-4.397-.159-4.626.297-5.497.82-1.512 1.048-1.718 2.234-1.855 1.048-.115 10.963-.435 16.228-.504 1.892-.046 2.371.023 2.462.298Zm31.751 2.176c.844 1.947 1.641 5.818 1.687 8.085.068 3.024-.16 3.413-6.656 11.041-6.199 7.284-7.909 9.505-8.935 11.681-.843 1.764-.843 2.886-.091 9.735 1.14 10.101 1.778 13.491 3.077 16.492.57 1.306.661 1.695.433 2.084-.273.527-2.165 1.466-4.604 2.268-.843.275-1.869.779-2.256 1.099-.388.321-1.528 1.879-2.576 3.459-2.143 3.299-2.69 3.871-3.921 4.146-1.344.321-1.846.092-1.983-.87-.319-2.085-1.071-16.584-1.117-21.806l-.045-3.78.684-1.007.684-1.008.068-6.093c.045-3.344-.023-8.109-.16-10.56-.159-2.45-.319-5.749-.41-7.329l-.137-2.863.752.687c.411.366 1.14 1.534 1.619 2.565.98 2.107 2.097 3.505 3.259 4.054 2.143 1.008 11.215-.229 12.719-1.74.433-.436.456-.642.342-2.154-.114-1.259-.069-1.74.159-1.969.16-.184 1.163-.504 2.211-.733 1.049-.229 2.211-.573 2.576-.756.593-.321.638-.413.547-1.397-.068-.596-.661-2.36-1.322-3.94-1.003-2.359-1.254-3.161-1.322-4.49-.091-1.809.137-2.473 1.39-3.916.73-.825 2.348-2.131 2.667-2.131.091 0 .388.504.661 1.146Zm3.328-.275c.752.366 1.527.847 1.71 1.076.296.344.342 1.443.342 6.62 0 3.413-.092 6.826-.183 7.582l-.205 1.374-3.579 3.55c-2.438 2.405-3.783 3.94-4.216 4.742-.661 1.305-1.277 3.756-1.277 5.268 0 .939 0 .939-.957 1.099-1.436.229-4.148 1.329-6.2 2.52-1.003.573-1.846 1.031-1.892 1.031-.205 0-.023-1.489.297-2.451.752-2.199 2.393-4.398 8.821-11.819 7.932-9.14 8.296-10.124 6.427-17.431-.41-1.649-.843-3.184-.911-3.413-.228-.573.228-.504 1.823.252Zm-58.237 2.84c.228 3.963.57 7.009 1.003 8.956.296 1.351.456 2.497.365 2.565-.342.207-1.983-1.214-2.69-2.313-1.71-2.68-2.188-4.719-1.459-6.299.524-1.191 2.006-2.955 2.462-2.955.182 0 .319.023.319.046Zm24.64 3.757c.501 1.465 1.117 3.069 1.367 3.55.593 1.191.547 1.351-.342 1.351-1.025 0-2.097-.916-2.416-2.015-.25-.94-.319-5.841-.068-6.093.228-.229.433.206 1.459 3.207Zm19.237 9.116c.844.298 1.55.595 1.596.641.182.206.342 3.092.159 3.344-.296.436-4.057 1.146-7.453 1.398l-2.963.229-1.072-1.054c-1.094-1.077-1.709-2.313-1.458-2.955.068-.183.615-.55 1.208-.801a31.143 31.143 0 0 0 1.823-.825c.707-.389.752-.367 1.277.114.273.275.866.619 1.253.756.684.229.866.184 2.052-.572.706-.435 1.481-.802 1.686-.825.206 0 1.072.252 1.892.55Zm21.654 3.481c1.003.665 2.325 1.673 2.94 2.222l1.117.985-2.348 3.184c-3.669 4.925-4.604 6.78-5.812 11.544l-.478 1.924-1.163-1.58c-1.527-2.062-3.465-3.917-5.493-5.245-1.846-1.169-2.006-1.512-1.801-3.505.274-2.588 1.459-4.26 6.519-9.093 1.026-.985 1.983-2.039 2.097-2.337l.205-.527 1.185.596c.661.321 2.029 1.145 3.032 1.832Zm7.089 8.727c.068.413.068 1.008 0 1.329-.205.802-2.257 3.115-6.314 7.101-3.237 3.183-3.51 3.39-3.579 2.817-.136-1.1.867-4.627 1.983-6.94 1.003-2.085 3.602-5.864 5.175-7.536l.615-.642.98 1.558c.547.87 1.071 1.924 1.14 2.313Zm-19.101 5.681c2.097.962 6.656 6.161 6.656 7.582 0 .572-.844 1.374-2.439 2.29-1.186.71-.98.756-4.627-1.283-1.322-.755-3.716-1.878-5.334-2.519-3.305-1.306-5.037-2.153-5.288-2.566-.41-.664 3.692-3.229 6.359-3.962 1.505-.412 3.077-.252 4.673.458Zm-8.001 6.849c1.482.549 2.85 1.076 3.055 1.145.296.137.319.412.159 1.855-.182 1.764-.866 3.78-1.892 5.52-.569.985-2.302 3.116-2.621 3.253-.228.092-.547-1.787-1.253-7.353-.639-5.062-.661-5.428-.342-5.428.114 0 1.413.458 2.894 1.008Zm-19.556 4.077c.114.298.319 2.955.456 5.909.706 14.27.957 18.485 1.071 19.081.114.572.045.664-1.094 1.168-.661.298-2.439 1.214-3.944 2.061-1.504.825-2.894 1.512-3.099 1.512-1.003 0-1.619-1.855-2.12-6.414-.547-4.718-.821-9.528-.98-17.018l-.137-6.803h4.832c4.787 0 4.832 0 5.015.504Zm-11.42 15.369c.137.161.342.962.479 1.764.319 2.107.957 9.437.843 9.574-.068.046-1.117-.503-2.348-1.236-1.23-.733-3.259-1.718-4.513-2.199-2.119-.825-2.849-1.306-2.849-1.879 0-.435 1.14-2.748 1.733-3.504 1.322-1.764 5.88-3.482 6.655-2.52Zm34.783 1.627c.638.412 1.983 1.534 2.986 2.428 1.003.916 2.963 2.634 4.353 3.802 3.214 2.68 4.194 3.825 4.194 4.81 0 1.214-.456 1.878-1.892 2.84-2.94 1.97-3.988 1.329-11.259-6.871-2.736-3.093-4.627-4.788-5.836-5.246-.843-.32-.661-.549.981-1.145a49.077 49.077 0 0 0 2.575-1.077c1.482-.71 2.348-.618 3.898.459Zm-9.026 2.794c.866.321 2.051.985 2.644 1.466 2.233 1.855 6.929 7.513 8 9.62.297.573.593 1.512.684 2.062.296 2.015-1.254 2.886-3.282 1.855-1.049-.55-3.647-2.474-7.499-5.566-1.596-1.283-3.533-2.749-4.308-3.252-.798-.504-1.436-1.008-1.436-1.146 0-.458 3.236-5.634 3.533-5.634.045 0 .798.251 1.664.595Zm31.614 3.894c3.488.206 3.533.229 3.533 1.855 0 .733-.159 2.199-.365 3.276-.205 1.076-.41 2.176-.455 2.451-.206 1.076-1.436 2.061-4.582 3.687-1.732.871-4.239 2.062-5.562 2.635-5.88 2.519-20.035 6.528-20.035 5.68 0-.114.524-.779 1.163-1.535 1.458-1.672 1.8-2.45 1.8-4.214 0-1.237.046-1.397.411-1.283 3.396 1.031 5.516-.137 5.516-3.046v-.917l1.276.596c.684.321 1.618.573 2.051.573 1.892 0 5.38-2.634 5.699-4.261.182-1.03-.046-2.061-.73-3.321-.296-.55-.524-1.031-.501-1.054a19.08 19.08 0 0 1 1.208-.343c.638-.161 1.801-.481 2.621-.71a8.185 8.185 0 0 1 2.963-.321c.821.069 2.622.183 3.989.252Zm-64.209.687c2.097.687 4.696 2.062 6.428 3.367 1.481 1.1 3.419 2.909 3.419 3.138 0 .092-.775.756-1.71 1.466-1.458 1.1-2.689 2.405-3.852 4.054-.25.39-.364.39-2.416-.022-1.869-.367-7.932-1.741-15.18-3.436-3.054-.71-3.054-.71-2.302-2.772 1.413-3.871 3.1-5.199 7.658-6.024 2.963-.55 5.927-.458 7.955.229Zm28.401 3.184c.775.435 1.641 1.008 1.96 1.26l.57.481-.57-.161c-.889-.229-4.513-2.107-4.695-2.405-.297-.504 1.276-.023 2.735.825Zm-5.083.344c2.006.618 9.049 4.123 11.283 5.611 2.028 1.352 3.419 2.749 3.646 3.665.388 1.512-.638 3.161-3.191 5.154l-1.276.985-1.664-.115c-1.664-.114-2.188-.275-13.95-4.397-4.057-1.421-6.883-1.97-10.37-1.97l-2.166-.023 1.527-1.443c2.325-2.245 8.206-6.002 11.557-7.376 1.572-.664 2.735-.687 4.604-.091Zm-30.589 7.994c5.949 1.397 10.873 2.634 10.964 2.771.091.138.228 1.168.296 2.245.068 1.099.342 2.748.615 3.642.707 2.588.753 2.519-1.299 2.748-.98.092-3.715.184-6.108.184-6.314-.023-8.844-.642-12.058-2.955-2.94-2.107-5.174-5.016-5.516-7.215-.205-1.283.98-3.917 1.778-3.917.296 0 5.402 1.122 11.328 2.497Zm76.358-1.466c1.709 1.557 1.618 3.046-.251 4.466-2.302 1.741-14.656 7.925-18.736 9.368-2.553.917-8.935 2.337-11.123 2.474-1.596.115-1.778.092-1.915-.298-.068-.229-.57-1.42-1.139-2.611-.844-1.855-.935-2.222-.661-2.428.182-.137 1.299-.389 2.438-.549 7.613-1.008 22.201-6.299 28.469-10.285.798-.527 1.596-.939 1.733-.939.159 0 .706.366 1.185.802Zm-57.986 4.237c3.031.252 3.51.389 11.624 3.321 2.895 1.054 6.314 2.176 7.613 2.52 2.758.687 3.214.893 3.214 1.443 0 .206.479 1.397 1.071 2.611.57 1.237 1.003 2.314.912 2.382-.387.39-2.484.55-8.16.55h-6.268l-5.243-1.626c-7.02-2.176-8.479-2.795-9.14-3.986-.547-1.008-1.299-3.688-1.55-5.52-.273-2.039.183-2.176 5.927-1.695Zm43.558 10.033c.433.297.82 1.878.661 2.748-.069.458-.297 1.283-.502 1.81l-.364.985-6.519-.115c-3.579-.069-9.437-.16-12.993-.229l-6.45-.114.159 3.573.183 3.573-3.055-.137c-1.686-.069-4.741-.184-6.815-.275-2.074-.069-4.011-.183-4.285-.252l-.547-.138.091-4.397c.023-2.451.114-4.49.183-4.559.068-.068 1.002.184 2.097.55 3.373 1.145 6.336 1.443 12.604 1.306 8.32-.184 15.454-1.329 21.791-3.436l.197-.066c3.155-1.057 3.206-1.074 3.564-.827Zm-46.977.481c1.253.091 2.872.366 3.601.572l1.299.39v4.787h-.729c-4.65-.023-17.574-.504-18.987-.687-2.188-.321-2.758-.642-3.1-1.81-.342-1.122-.091-2.909.433-3.229.456-.252 14.155-.298 17.483-.023Zm18.143 13.468c.182.183.843 11.613.889 15.232 0 .206.205.458.479.527.752.252 2.005 1.489 2.553 2.497.752 1.42.683 3.962-.137 5.543-1.185 2.359-3.146 3.298-6.77 3.298h-2.279l-.866-.802c-1.254-1.122-2.325-3.229-2.325-4.558 0-1.237.433-2.176 1.892-4.169 1.481-2.038 1.527-2.153 1.527-4.604 0-2.267-.57-10.88-.821-12.529l-.137-.893 2.872.114c1.596.069 3.009.229 3.123.344Zm-34.053-217.99c-.319.252-1.55 1.58-2.735 2.931-1.186 1.375-2.667 2.818-3.305 3.23-1.482.94-3.306 1.329-4.833 1.03-.615-.137-1.139-.182-1.139-.09 0 .618 2.302 1.694 4.444 2.084 1.231.229 1.687.229 3.009-.115 1.504-.366 2.211-.664 9.095-3.87 3.282-1.536 5.538-2.314 7.43-2.566.57-.069 1.186-.275 1.322-.458.433-.527-.729-.665-3.35-.39-2.849.32-3.875.71-9.961 3.757-2.485 1.26-4.581 2.221-4.65 2.153-.045-.069.342-.664.912-1.329 1.162-1.397 4.399-5.726 4.741-6.39.319-.596-.205-.596-.98.023Zm22.178.893c-3.921.55-7.841 3.207-9.437 6.39-.934 1.856-.661 2.268.456.733 2.029-2.748 4.513-4.466 7.431-5.153 1.823-.435 5.539-.435 7.544 0 3.305.71 6.952 3.413 9.368 6.986 1.414 2.13 1.687 1.672.434-.733-1.072-2.084-4.605-5.795-6.36-6.666-2.826-1.42-6.314-1.992-9.436-1.557Zm-41.758 2.565c-.706.481-1.595 1.26-1.937 1.718l-.616.825.41 1.076c.776 1.993.753 2.016-.524 3.23-1.39 1.306-1.481 1.626-.342 1.374.958-.229 2.94-2.038 3.146-2.886.091-.32 0-.847-.205-1.237-.524-1.008-.433-1.511.57-2.977 1.595-2.36 1.504-2.543-.502-1.123ZM143.315 72.2c-.456.115-1.322 1.81-1.322 2.566 0 .274.296.824.661 1.19.935.917 2.006.917 3.1-.045 1.048-.916 1.208-1.604.593-2.451-.73-1.03-1.961-1.558-3.032-1.26Zm-42.783 8.681c-.866.733-1.117 1.833-.616 2.795.206.39.57.824.798.962 1.436.756 3.442-.39 3.442-1.97 0-.962-.729-1.856-1.778-2.153-1.117-.298-1.048-.32-1.846.366Zm61.519 7.582c-.661.366-1.413.916-1.641 1.237-1.55 2.084.137 5.291 3.123 5.955 1.162.252 1.367.252 2.12-.16 1.185-.642 1.732-2.016 1.595-3.963-.068-.847-.273-1.855-.501-2.245-.775-1.534-2.69-1.855-4.696-.824Zm3.282 1.397c.502.985.661 2.795.32 3.482-.639 1.214-2.257 1.168-3.533-.115-1.208-1.214-.935-2.565.706-3.573 1.094-.664 2.097-.573 2.507.206Z" fill="#000"/><path d="M189.745 233.202c3.488.206 3.533.229 3.533 1.855 0 .733-.159 2.199-.365 3.276-.205 1.076-.41 2.176-.455 2.451-.206 1.076-1.436 2.061-4.582 3.687-1.732.871-4.239 2.062-5.562 2.635-5.88 2.519-20.035 6.528-20.035 5.68 0-.114.524-.779 1.163-1.535 1.458-1.672 1.8-2.45 1.8-4.214 0-1.237.046-1.397.411-1.283 3.396 1.031 5.516-.137 5.516-3.046v-.916l1.276.595c.684.321 1.618.573 2.051.573 1.892 0 5.38-2.634 5.699-4.261.182-1.03-.046-2.061-.73-3.321-.296-.55-.524-1.031-.501-1.054a19.08 19.08 0 0 1 1.208-.343c.638-.161 1.801-.481 2.621-.71a8.185 8.185 0 0 1 2.963-.321c.821.069 2.622.183 3.989.252Z" fill="#000"/><path d="M121.137 99.412v2.061l-.912.298c-.501.16-2.119.366-3.601.458l-2.667.16.137-1.488c.068-.825.228-1.833.365-2.245.205-.664.296-.733 1.162-.733.524 0 1.482-.16 2.097-.344.638-.16 1.664-.297 2.279-.275l1.14.046v2.062ZM129.092 97.854c-.068.985-.205 2.153-.296 2.588-.16.802-.16.802-1.345.779-1.505-.046-1.869-.343-1.846-1.557.022-1.627.433-2.451 1.55-3.047.547-.297 1.253-.527 1.549-.527.548 0 .548.023.388 1.764ZM133.901 97.694c.889.114 1.733.229 1.892.229.228 0 .251.39.137 1.764-.091.985-.251 1.924-.388 2.061-.136.206-.98.298-2.712.298h-2.507l.159-2.016c.206-2.771.228-2.84 1.094-2.68.411.069 1.459.23 2.325.344ZM119.997 103.855c.069.115 0 .298-.114.367-.364.229-5.06 1.489-5.516 1.489-.319 0-.866-1.031-.866-1.627 0-.343 6.268-.572 6.496-.229Z" fill="#FEFFBB"/><path d="m125.764 117.163 2.325-.023v.596c0 1.031.638 1.947 1.732 2.428.547.252 1.003.596 1.003.779 0 .183-.433.939-.98 1.672a54.823 54.823 0 0 0-2.211 3.436l-1.231 2.107-.319-.779c-.433-1.122-.889-1.191-1.732-.252l-.729.779-.251-.664c-.228-.642-.342-.687-1.413-.687h-1.14l-.068-.871c-.069-.733-.16-.87-.753-.962l-.683-.114-.023-3.207c0-1.764-.091-3.505-.205-3.848l-.183-.642 2.257.138c1.254.069 3.305.137 4.604.114Z" fill="#545151"/><path d="M165.333 89.86c.502.985.661 2.795.32 3.482-.639 1.214-2.257 1.168-3.533-.115-1.209-1.214-.935-2.565.706-3.573 1.094-.664 2.097-.573 2.507.206ZM160.798 99.801c-.365 2.543-1.391 4.49-2.804 5.2-.821.412-3.328 1.168-3.898 1.168-.136 0-.25-.298-.25-.642 0-1.328 1.185-4.1 3.373-7.925l1.026-1.81 1.367 1.42 1.345 1.398-.159 1.191Z" fill="#9FA05C"/><path d="M199.66 122.638c.114.252.228.87.228 1.374 0 1.214-.615 1.672-3.396 2.543-2.804.847-4.969 1.282-8.228 1.603-3.305.321-11.238.664-11.443.481-.091-.069-.228-.825-.319-1.672l-.159-1.512 1.23-.137c.684-.069 3.123-.298 5.448-.481 5.516-.458 9.87-1.1 12.924-1.924 3.009-.802 3.396-.825 3.715-.275Z" fill="#fff"/><path d="M194.623 243.945c1.709 1.557 1.618 3.046-.251 4.466-2.302 1.741-14.656 7.925-18.736 9.368-2.553.917-8.935 2.337-11.123 2.474-1.596.115-1.778.092-1.915-.298-.068-.229-.57-1.42-1.139-2.611-.844-1.855-.935-2.222-.661-2.428.182-.137 1.299-.389 2.438-.549 7.613-1.008 22.201-6.299 28.469-10.285.798-.527 1.596-.939 1.733-.939.159 0 .706.366 1.185.802ZM136.637 248.182c3.031.252 3.51.389 11.624 3.321 2.895 1.054 6.314 2.176 7.613 2.52 2.758.687 3.214.893 3.214 1.443 0 .206.479 1.397 1.071 2.611.57 1.237 1.003 2.314.912 2.382-.387.39-2.484.55-8.16.55h-6.268l-5.243-1.626c-7.02-2.176-8.479-2.795-9.14-3.986-.547-1.008-1.299-3.687-1.55-5.52-.273-2.039.183-2.176 5.927-1.695ZM118.265 245.411c5.949 1.397 10.873 2.634 10.964 2.771.091.138.228 1.168.296 2.245.068 1.099.342 2.748.615 3.642.707 2.588.753 2.519-1.299 2.748-.98.092-3.715.184-6.108.184-6.314-.023-8.844-.642-12.058-2.955-2.94-2.107-5.174-5.016-5.516-7.215-.205-1.283.98-3.917 1.778-3.917.296 0 5.402 1.122 11.328 2.497Z" fill="#BABABA"/><path d="M167.157 226.514c.638.412 1.983 1.534 2.986 2.428 1.003.916 2.963 2.634 4.353 3.802 3.214 2.68 4.194 3.825 4.194 4.81 0 1.214-.456 1.878-1.891 2.84-2.941 1.97-3.989 1.329-11.26-6.871-2.736-3.093-4.627-4.788-5.836-5.246-.843-.32-.661-.549.981-1.145a49.975 49.975 0 0 0 2.575-1.076c1.482-.711 2.348-.619 3.898.458ZM158.131 229.308c.866.321 2.051.985 2.644 1.466 2.234 1.855 6.929 7.513 8 9.62.297.573.593 1.512.684 2.062.296 2.015-1.254 2.886-3.282 1.855-1.049-.55-3.647-2.474-7.499-5.566-1.596-1.283-3.533-2.749-4.308-3.252-.798-.504-1.436-1.008-1.436-1.146 0-.458 3.236-5.634 3.533-5.634.045 0 .798.252 1.664.595ZM148.854 237.417c2.006.618 9.049 4.123 11.283 5.611 2.028 1.352 3.419 2.749 3.646 3.665.388 1.512-.638 3.161-3.191 5.154l-1.276.985-1.664-.115c-1.664-.114-2.188-.274-13.949-4.397-4.058-1.421-6.884-1.97-10.371-1.97l-2.166-.023 1.527-1.443c2.325-2.245 8.206-6.001 11.557-7.376 1.572-.664 2.735-.687 4.604-.091ZM132.374 224.887c.137.161.342.962.479 1.764.319 2.107.957 9.437.843 9.575-.068.045-1.117-.504-2.347-1.237-1.231-.733-3.26-1.718-4.514-2.199-2.119-.825-2.849-1.306-2.849-1.879 0-.435 1.14-2.748 1.733-3.504 1.322-1.764 5.88-3.482 6.655-2.52ZM125.536 233.889c2.097.687 4.696 2.062 6.428 3.367 1.482 1.1 3.419 2.909 3.419 3.138 0 .092-.775.756-1.71 1.466-1.458 1.1-2.689 2.405-3.852 4.054-.25.39-.364.39-2.416-.022-1.869-.367-7.932-1.741-15.18-3.436-3.054-.71-3.054-.71-2.302-2.772 1.413-3.871 3.1-5.199 7.658-6.024 2.963-.55 5.927-.458 7.955.229ZM153.937 237.073c.775.435 1.641 1.008 1.96 1.26l.57.481-.57-.161c-.889-.229-4.513-2.107-4.695-2.405-.297-.504 1.276-.022 2.735.825Z" fill="#313E4A"/><path fill-rule="evenodd" clip-rule="evenodd" d="M144.66 62.534c3.624.94 6.815 3.39 8.342 6.437l.798 1.603-4.376 5.04-4.377 5.015-3.761 1.58c-4.216 1.787-5.174 2.085-6.04 1.879-1.253-.32-3.989-3.436-5.311-6.024-.41-.848-.478-1.351-.478-4.192 0-3.092.022-3.275.661-4.535 2.006-4.008 5.151-6.414 9.368-7.238.889-.16 3.715.069 5.174.435Zm-2.667 12.232c0-.756.866-2.451 1.322-2.566 1.071-.298 2.302.23 3.032 1.26.615.847.455 1.535-.593 2.45-1.094.963-2.165.963-3.1.047-.365-.367-.661-.917-.661-1.191ZM103.928 74.788c2.713.527 5.015 2.016 6.428 4.215 1.299 2.039 1.778 3.825 1.778 6.757 0 1.329-.091 2.566-.205 2.726-.206.343-.069.343-7.317-.733-4.035-.618-10.143-1.283-11.602-1.283-1.413 0-1.55-.366-.98-2.703.615-2.542 2.462-6.299 3.67-7.467.524-.504 1.413-1.053 2.12-1.305 1.367-.481 4.193-.573 6.108-.207Zm-4.011 8.888c-.502-.962-.251-2.062.615-2.795.798-.687.729-.664 1.846-.366 1.049.298 1.778 1.19 1.778 2.153 0 1.58-2.006 2.726-3.442 1.97-.228-.138-.592-.573-.797-.962Z" fill="#FFE8E8"/><path d="M154.051 74.766c-.365 3.687-1.436 6.459-3.191 8.314-1.072 1.123-1.573 1.1-2.553-.114-1.413-1.741-1.413-1.81-.342-3.184 1.869-2.405 6.109-7.17 6.223-6.986.022.023-.046.916-.137 1.97Z" fill="#FFE8E8"/><path d="M97.569 88.417c9.436.962 13.744 1.855 14.473 3 .502.757.32 3.734-.319 5.2-.569 1.306-1.983 2.726-3.51 3.528-1.117.595-1.413.641-3.601.618-2.006-.023-2.644-.114-3.966-.641-4.171-1.604-7.34-4.49-8.48-7.765-.41-1.145-.843-4.009-.638-4.306.16-.252-.433-.298 6.04.366ZM147.053 83.882c1.938 2.405 2.918 3.962 2.918 4.581 0 .71-1.915 2.772-3.738 4.008-3.328 2.29-7.066 3.436-11.306 3.482-2.439.023-2.712-.023-3.806-.596-1.573-.847-5.813-4.054-5.653-4.306.296-.48 19.146-8.68 19.967-8.704.205 0 .934.687 1.618 1.535Z" fill="#D7DFF4"/><path d="M139.623 98.06c1.686 1.283 2.826 2.428 2.826 2.886 0 .229-.365.596-.889.871-1.026.504-4.627 1.603-5.311 1.603-.41 0-.365-.114.319-.87.707-.802.798-1.054.935-2.657.159-1.718.433-2.657.82-2.657.091 0 .684.366 1.3.824ZM124.214 99.71c.137 2.565.205 2.634 2.667 3 .98.138 1.983.412 2.279.596.342.229 1.208.343 2.736.366 3.646.069.82.39-4.992.573-5.699.183-5.676.183-4.764-1.672.296-.596.547-1.695.615-2.566.183-2.359.251-2.588.844-2.496.456.068.501.206.615 2.199ZM119.997 103.855c.069.115 0 .298-.114.367-.364.229-5.06 1.489-5.516 1.489-.319 0-.866-1.031-.866-1.627 0-.343 6.268-.572 6.496-.229ZM144.067 102.985c.456.893.365 2.52-.251 3.734-1.322 2.588-5.743 4.764-11.738 5.772-1.983.343-3.738.435-8.434.435h-5.926l-2.598-.962c-1.436-.527-2.758-1.122-2.941-1.306-.319-.297-.273-.435.251-1.122 8.196-.634 23.901 4.867 30.019-6.459 1.276-.688 1.299-.688 1.618-.092Z" fill="#571621"/><path d="M193.62 130.059c.479 1.145 1.892 8.429 2.188 11.269.365 3.505.205 4.994-.706 6.735-1.573 2.932-4.65 4.856-11.967 7.467-5.698 2.038-7.271 2.84-9.003 4.65a37.942 37.942 0 0 1-3.305 2.954c-2.416 1.856-3.169 2.657-3.898 4.284-.912 2.038-.729 3.527.935 7.65.706 1.787 1.253 3.39 1.185 3.573-.137.344-1.163.596-2.53.596h-.958l-1.094-2.588c-1.048-2.474-2.188-6.299-2.188-7.399 0-.802-.41-.87-.57-.091-.25 1.099.297 3.733 1.482 7.261l1.094 3.275h-.729c-1.14 0-2.941-.618-3.966-1.374-1.642-1.191-2.28-2.955-2.781-7.674-.411-3.962-1.026-3.435-1.026.917.023 2.542.068 2.931.866 5.359.798 2.383.844 2.657.502 2.978-.319.344-.456.298-1.619-.321-1.686-.916-3.077-2.496-4.194-4.787-.843-1.718-1.094-2.726-1.664-6.551l-.068-.572-.319.687c-.502 1.145-.547 3.115-.114 4.604.205.756.934 2.519 1.618 3.962.935 1.97 1.163 2.68.958 2.818-.16.091-.958.183-1.733.183-1.322 0-1.527-.069-2.051-.664-.843-.871-2.325-3.757-3.533-6.78-1.094-2.726-1.664-4.765-1.892-6.757-.41-3.688 1.824-5.681 8.821-7.765 4.787-1.42 6.906-2.222 10.12-3.802 4.878-2.36 7.864-4.536 14.52-10.606 1.299-1.191 3.533-3.046 4.969-4.168 2.94-2.245 3.51-2.818 3.852-3.734.456-1.168.273-1.145-1.185.206-.844.802-2.28 1.81-3.533 2.451l-2.097 1.099v-1.099c0-.618-.206-2.588-.456-4.398-.251-1.832-.388-3.39-.297-3.481.114-.115 2.713-.298 5.767-.436 3.077-.137 6.2-.343 6.952-.435a26.144 26.144 0 0 1 2.348-.229c.912-.023 1.003.046 1.299.733ZM147.851 131.365c2.735 4.581 5.767 12.208 5.767 14.499 0 1.053-.069 1.168-1.664 2.748-2.69 2.726-8.639 6.414-15.203 9.437-5.676 2.635-7.226 3.07-12.993 3.642l-3.305.344-.684.847c-.364.459-1.641 1.856-2.78 3.116-3.716 3.985-4.331 5.359-3.602 7.879.684 2.382 1.459 3.642 3.374 5.52 2.735 2.68 3.122 3.092 3.601 3.848 1.094 1.764.137 2.68-2.986 2.818-1.755.091-2.006.045-2.598-.436-.958-.755-2.713-3.55-4.491-7.192-1.641-3.367-2.256-5.245-2.256-6.986 0-1.054-.296-1.832-.593-1.535-.273.252-.159 4.307.137 5.429.137.573.98 2.634 1.823 4.627.867 1.97 1.642 3.848 1.733 4.169.137.572.114.595-1.026.595-1.368 0-2.12-.343-3.123-1.42-1.755-1.855-2.37-4.1-2.53-9.3-.068-2.153-.205-3.939-.296-3.939s-.41.801-.707 1.763c-.638 2.131-.706 4.513-.228 7.445.183 1.099.274 2.084.183 2.176-.274.252-3.943-3.551-4.604-4.765-.41-.778-.662-1.74-.844-3.138-.296-2.451-.114-3.871.638-4.97.73-1.1.616-1.374-.296-.802-1.413.848-1.55 1.466-1.504 6.001.045 3.871.045 4.078-.365 4.078-.684 0-1.869-1.146-2.348-2.222-.387-.894-.41-1.168-.182-2.886.16-1.031.228-3.39.182-5.246l-.068-3.39 1.071-1.076 1.094-1.1h4.833c4.718 0 4.9-.023 6.678-.641 3.237-1.145 5.698-2.84 11.146-7.765 6.906-6.207 7.978-6.894 16.958-10.949l3.693-1.672v-1.397c0-1.81-.547-5.2-1.254-7.811-.319-1.145-.57-2.176-.57-2.336 0-.412.707-.481 4.901-.435l3.875.023 1.413 2.405ZM183.363 184.184c1.003.665 2.325 1.673 2.94 2.222l1.117.985-2.347 3.184c-3.67 4.925-4.605 6.78-5.813 11.544l-.478 1.924-1.163-1.58c-1.527-2.062-3.465-3.917-5.493-5.245-1.846-1.169-2.006-1.512-1.801-3.505.274-2.588 1.459-4.26 6.519-9.093 1.026-.985 1.983-2.039 2.097-2.337l.205-.527 1.185.596c.661.321 2.029 1.145 3.032 1.832Z" fill="#1FE4FF"/><path fill-rule="evenodd" clip-rule="evenodd" d="M137.389 39.308c.342.641.798 1.397 1.025 1.65.411.503.411.48.32-.757-.069-.687-.183-1.443-.274-1.672-.137-.343-.023-.39.866-.39 1.208 0 1.619.322 2.166 1.696l.387.939.114-1.26.114-1.26 1.14.023c2.963.023 4.216.596 4.216 1.924 0 .916.388.87.844-.137.364-.733.478-.802 1.117-.71.797.137 3.738 1.26 4.057 1.557.114.092-.114.917-.547 1.901-.433.963-.707 1.81-.616 1.879.069.091.775-.435 1.573-1.146.798-.71 1.55-1.282 1.664-1.282.137.023 1.026.595 2.006 1.282l1.778 1.283-1.026 1.1c-1.003 1.076-1.208 1.443-1.595 2.68-.274.87.296.618 1.983-.894l1.595-1.42.729.894.753.87-.775 1.214c-.433.664-.775 1.282-.775 1.351 0 .252.501.092 1.367-.48.479-.321 1.003-.528 1.163-.436.684.435 3.373 7.192 4.285 10.834 1.003 3.894 2.507 14.385 2.12 14.728-.091.07-.752.252-1.482.39-1.755.343-3.829 1.305-4.627 2.13-.775.802-.479.847 1.345.206 1.55-.55 5.174-.664 5.174-.16 0 .802-.775 2.45-1.459 3.115-.684.664-.957.756-3.122 1.054-2.872.389-3.647.641-5.015 1.626-2.849 2.084-4.262 6.024-3.305 9.3.615 2.175.524 2.565-1.254 5.336-1.983 3.07-2.917 5.063-3.1 6.551-.114.985-.319 1.352-1.55 2.703-1.322 1.512-1.983 2.634-2.256 3.94-.479 2.313-4.718 5.314-11.123 7.902-3.556 1.42-4.126 1.489-5.425.504-.57-.412-1.299-.962-1.641-1.168-.41-.252-.638-.596-.638-.962 0-.916-.411-1.695-.958-1.832-.296-.069-1.504-.184-2.689-.23-1.186-.045-3.146-.229-4.331-.389l-2.165-.321 3.533-.183c11.168-.527 17.368-2.222 20.901-5.68 1.299-1.283 1.664-2.131 1.664-3.917 0-3.069-1.299-5.566-3.784-7.284-.547-.367-1.003-.779-1.003-.893 0-.115.57-.413 1.254-.665 3.054-1.145 6.268-3.206 8.046-5.153 1.482-1.627 1.641-2.405.98-4.26l-.501-1.375 1.436-1.695c.797-.94 1.732-2.199 2.074-2.817.661-1.26 1.299-4.352 1.322-6.574.023-2.978.228-3.62 1.709-5.429.73-.916 2.234-2.588 3.305-3.733l1.938-2.039 1.504.366c1.664.413 2.234.344 2.234-.32 0-.527-.365-.71-2.507-1.329l-1.71-.48-1.481 1.534c-.821.87-2.371 2.543-3.442 3.734l-1.96 2.176-.775-1.146c-.411-.641-1.528-1.924-2.485-2.886-2.826-2.886-6.131-4.169-10.599-4.191-4.558 0-7.75 1.511-10.735 5.153-2.075 2.52-2.713 4.833-2.553 8.956.182 3.917.684 4.97 4.376 8.842.957 1.007 1.504 1.74 1.368 1.855-.114.115-1.368.687-2.758 1.283l-2.576 1.1-1.071-.413c-1.687-.642-3.465-2.588-4.263-4.65-.752-1.947-1.185-2.176-.957-.48.296 2.198 1.003 3.641 2.53 5.153l1.436 1.42-1.094.504-1.094.504-2.006-1.512c-1.094-.847-2.667-1.855-3.465-2.245-1.777-.893-2.256-.778-3.601.87l-.934 1.192-.137-2.68c-.137-2.772-.524-4.719-1.345-6.39-.615-1.284-2.621-3.482-4.012-4.353-3.487-2.245-9.254-2.336-13.356-.229l-.912.458-.525-.595c-.911-1.077-.706-1.879.798-3.344 2.394-2.337 4.992-3.436 8.16-3.436 2.53 0 3.055.16 3.055.939 0 .595.045.618.797.504.73-.115.889-.023 1.892.985.593.618 1.664 1.786 2.394 2.61.706.826 1.299 1.33 1.299 1.146 0-.55-1.55-3.046-3.009-4.856-1.117-1.374-1.322-1.763-1.322-2.565-.023-1.26-.684-2.657-1.801-3.757l-.934-.893.82-2.336c.433-1.283.775-2.451.73-2.589-.114-.32-1.938 2.428-2.872 4.284l-.684 1.374 1.276 1.03c1.938 1.558 3.055 3.482 1.824 3.116-2.758-.802-4.103-.893-6.656-.435-.638.114-.592.023.547-.733 1.71-1.168 2.508-1.947 2.508-2.451 0-.23-.297-.916-.684-1.512-.935-1.535-.912-2.611.068-4.077.479-.733 1.208-1.397 2.074-1.947 2.257-1.351 1.961-1.832-.456-.687-3.419 1.626-4.763 4.329-3.51 7.1.616 1.329.57 1.764-.114 1.947-.342.092-1.094.848-1.937 1.97-.752 1.008-1.755 2.13-2.234 2.52-.479.366-1.254 1.214-1.732 1.832-.479.642-.958 1.146-1.072 1.146-.592 0 .046-7.01.821-9.07.889-2.36 2.895-5.2 5.698-8.087l2.553-2.61 1.505.366c.82.229 1.846.39 2.256.39l.752-.024-.547-.458c-.296-.229-1.003-.55-1.55-.71l-1.003-.252.525-.55c.843-.916 5.333-3.687 5.561-3.435.069.045.205.733.342 1.511.365 1.993.752 1.695.889-.687l.114-1.924 2.371-1.03 2.347-1.031.456.572c.41.504.433.78.297 2.383-.137 1.626-.114 1.809.205 1.534.41-.343 1.276-2.588 1.276-3.298 0-.275-.159-.71-.342-.94-.501-.64-.433-.755.57-1.282 1.641-.825 2.188-.664 3.373 1.054.251.366.274.252.16-.756-.16-1.443 0-1.58 2.872-2.451 2.507-.779 2.712-.756 2.712.069 0 .412.228.939.593 1.328l.593.641-.137-.87c-.137-1.1.159-1.924.843-2.245.502-.229 6.382-1.282 7.408-1.328.388-.023.661.252 1.14 1.145Zm-22.816 17.797c1.185-1.35 2.416-2.68 2.735-2.931.775-.619 1.299-.619.98-.023-.342.664-3.579 4.993-4.741 6.39-.57.665-.957 1.26-.912 1.329.069.069 2.166-.893 4.65-2.153 6.086-3.047 7.112-3.436 9.961-3.757 2.621-.275 3.783-.137 3.35.39-.136.183-.752.389-1.322.458-1.892.252-4.148 1.03-7.43 2.565-6.884 3.207-7.591 3.505-9.095 3.871-1.322.344-1.778.344-3.009.115-2.142-.39-4.444-1.466-4.444-2.085 0-.091.524-.046 1.139.092 1.527.298 3.351-.092 4.833-1.03.638-.413 2.119-1.856 3.305-3.23Zm15.476 4.353c1.596-3.184 5.516-5.841 9.437-6.391 3.122-.435 6.61.137 9.436 1.557 1.755.87 5.288 4.582 6.36 6.666 1.253 2.405.98 2.863-.434.733-2.416-3.573-6.063-6.276-9.368-6.986-2.005-.435-5.721-.435-7.544 0-2.918.687-5.402 2.405-7.431 5.154-1.117 1.534-1.39 1.122-.456-.733ZM95.791 59.35c.342-.458 1.23-1.237 1.937-1.718 2.006-1.42 2.097-1.237.502 1.123-1.003 1.466-1.094 1.97-.57 2.977.205.39.296.917.205 1.237-.205.848-2.188 2.657-3.145 2.886-1.14.252-1.049-.068.341-1.374 1.277-1.214 1.3-1.237.525-3.23l-.41-1.076.615-.825Z" fill="#1FE4FF"/><path fill-rule="evenodd" clip-rule="evenodd" d="M169.71 81.019c-.183.664-.661 1.718-1.049 2.336l-.729 1.122 1.276 2.543c1.482 3 1.869 4.787 1.527 6.94-.273 1.764-.752 2.703-1.686 3.299-1.094.687-4.559.526-6.314-.275-1.322-.619-3.305-2.268-4.126-3.459-1.436-2.016-.775-5.703 1.482-8.154 1.208-1.329 2.074-1.741 4.923-2.337 1.322-.275 2.667-.687 3.009-.893.729-.458 1.778-1.787 1.778-2.29 0-.184.068-.275.137-.184.068.069-.023.665-.228 1.352Zm-9.3 8.68c.228-.32.98-.87 1.641-1.236 2.006-1.03 3.921-.71 4.696.825.228.389.433 1.397.501 2.244.137 1.947-.41 3.322-1.595 3.963-.753.412-.958.412-2.12.16-2.986-.664-4.673-3.87-3.123-5.955Z" fill="#1FE4FF"/><path d="M118.949 88.326c3.031 2.061 7.978 6.024 8 6.413 0 .641-1.071.893-3.829.916-1.459 0-3.237.115-3.92.23-2.508.412-4.719.503-4.901.228-.091-.16-.251-1.466-.387-2.909l-.206-2.634 1.003-1.076c.547-.596 1.186-1.375 1.391-1.718.228-.344.57-.619.775-.619.182 0 1.117.527 2.074 1.169Z" fill="#1FE4FF"/><path d="M140.99 163.089c.091.183-.251 1.557-.707 3.046-1.322 4.192-1.322 7.719 0 10.033.684 1.191 1.505 1.718 3.078 2.038 1.162.252 1.253.321 1.39 1.054.433 2.176 1.254 21.92 1.026 24.898-.16 2.245-.365 2.703-1.208 2.886-.365.092-3.556.252-7.135.367l-6.496.229-1.071-1.214c-1.322-1.443-2.667-3.986-3.442-6.46-.319-1.008-1.048-4.008-1.618-6.642-.593-2.657-1.687-6.826-2.439-9.3-2.302-7.627-2.416-8.223-2.599-13.377-.159-4.397-.159-4.626.297-5.497.82-1.512 1.048-1.718 2.234-1.855 1.048-.115 10.963-.435 16.228-.504 1.892-.046 2.371.023 2.462.298ZM143.794 209.518c.114.298.319 2.955.456 5.909.706 14.27.957 18.485 1.071 19.081.114.572.045.664-1.094 1.168-.661.298-2.439 1.214-3.944 2.061-1.504.825-2.894 1.512-3.099 1.512-1.003 0-1.619-1.855-2.12-6.413-.547-4.719-.821-9.529-.98-17.019l-.137-6.803h4.832c4.787 0 4.832 0 5.015.504Z" fill="#E43D19"/><path d="M142.472 171.587c.501 1.465 1.117 3.069 1.367 3.55.593 1.191.547 1.351-.342 1.351-1.025 0-2.097-.916-2.416-2.015-.25-.94-.319-5.841-.068-6.093.228-.229.433.206 1.459 3.207ZM117.832 167.83c.228 3.963.57 7.009 1.003 8.956.296 1.351.456 2.497.365 2.565-.342.207-1.983-1.214-2.69-2.313-1.71-2.68-2.188-4.718-1.459-6.299.524-1.191 2.006-2.955 2.462-2.955.182 0 .319.023.319.046Z" fill="#E43D19"/><path d="M133.218 258.696c1.253.091 2.872.366 3.601.572l1.299.39v4.787h-.729c-4.65-.023-17.574-.504-18.987-.687-2.188-.321-2.758-.642-3.1-1.81-.342-1.122-.091-2.909.433-3.229.456-.252 14.155-.298 17.483-.023ZM180.195 258.215c.433.297.82 1.878.661 2.748-.069.458-.297 1.283-.502 1.81l-.364.985-6.519-.115c-3.579-.069-9.437-.16-12.993-.229l-6.45-.114.159 3.573.183 3.573-3.054-.137c-1.687-.069-4.741-.184-6.816-.275-2.074-.069-4.011-.183-4.285-.252l-.547-.138.091-4.397c.023-2.451.114-4.49.183-4.559.068-.068 1.003.184 2.097.55 3.373 1.145 6.336 1.443 12.604 1.306 8.32-.184 15.454-1.329 21.791-3.436l.197-.066c3.155-1.057 3.206-1.074 3.564-.827Z" fill="#9385B9"/><path d="M172.741 165.265c.844 1.947 1.641 5.818 1.687 8.085.068 3.024-.16 3.413-6.656 11.041-6.199 7.284-7.909 9.505-8.935 11.681-.843 1.764-.843 2.886-.091 9.735 1.14 10.101 1.778 13.491 3.077 16.492.57 1.306.661 1.695.433 2.084-.273.527-2.165 1.466-4.604 2.268-.843.275-1.869.779-2.256 1.099-.388.321-1.528 1.879-2.576 3.459-2.143 3.299-2.69 3.871-3.921 4.146-1.344.321-1.846.092-1.983-.87-.319-2.085-1.071-16.584-1.117-21.806l-.045-3.78.684-1.007.684-1.008.068-6.093c.045-3.344-.023-8.109-.16-10.559-.159-2.451-.319-5.75-.41-7.33l-.137-2.863.752.687c.411.366 1.14 1.534 1.619 2.565.98 2.107 2.097 3.505 3.259 4.054 2.143 1.008 11.215-.229 12.719-1.74.433-.436.456-.642.342-2.153-.114-1.26-.069-1.741.159-1.97.16-.184 1.163-.504 2.211-.733 1.049-.229 2.211-.573 2.576-.756.593-.321.638-.412.547-1.397-.068-.596-.661-2.36-1.322-3.94-1.003-2.359-1.254-3.161-1.322-4.49-.091-1.809.137-2.473 1.39-3.916.73-.825 2.348-2.131 2.667-2.131.091 0 .388.504.661 1.146Z" fill="#F2E8E2"/><path d="M151.361 272.164c.182.183.843 11.613.889 15.232 0 .206.205.458.479.527.752.252 2.006 1.489 2.553 2.497.752 1.42.683 3.962-.137 5.543-1.185 2.359-3.146 3.298-6.77 3.298h-2.279l-.866-.802c-1.254-1.122-2.325-3.229-2.325-4.558 0-1.237.433-2.176 1.892-4.169 1.481-2.038 1.527-2.153 1.527-4.603 0-2.268-.57-10.881-.821-12.53l-.137-.893 2.872.115c1.596.068 3.009.229 3.123.343Z" fill="url('#paint0_linear_19_387')"/><path d="M218.875 162.562c-4.034 7.49-11.009 17.981-14.177 21.348-.707.733-2.166 1.947-3.26 2.68-1.094.755-2.165 1.626-2.393 1.947-.456.732-.98 3.023-.98 4.466v1.077l-1.299.641c-2.508 1.214-4.377 3.642-4.878 6.322-.114.664-.274 5.703-.342 11.178-.114 8.039-.069 10.788.228 14.27.273 3.115.296 4.443.114 4.764-.228.458-.388.458-4.149.298-3.669-.138-4.034-.115-5.63.366-2.552.779-4.513.871-5.744.252-.547-.252-2.598-1.901-4.581-3.665-3.533-3.115-4.057-3.481-6.496-4.466-1.208-.481-1.231-.504-2.12-2.497l-.912-2.016 1.687-2.107c.935-1.168 2.006-2.634 2.393-3.252.821-1.352 1.869-4.352 1.869-5.36 0-.367.092-.733.206-.802.091-.069 1.162.344 2.324.916 3.351 1.649 3.625 1.718 4.673 1.237 3.829-1.741 14.656-11.773 16.617-15.392l.592-1.1-1.026-2.084c-2.347-4.719-5.333-7.742-10.439-10.605l-1.55-.871v-6.024c0-3.298.068-6.322.137-6.688l.137-.687 1.39.458c2.553.801 11.237.595 13.289-.344.296-.137 1.162-1.214 1.891-2.405.753-1.168 1.459-2.13 1.573-2.13.388 0 .684.573.957 1.878.137.733.434 1.535.661 1.833.411.504.434.504 1.778.114.753-.206 3.397-1.237 5.904-2.29 6.405-2.703 9.049-3.528 11.761-3.574l1.049-.023-1.254 2.337Z" fill="#757575"/><path d="M190.452 192.911c.068.413.068 1.008 0 1.329-.205.802-2.257 3.115-6.314 7.101-3.237 3.183-3.51 3.39-3.579 2.817-.136-1.1.867-4.627 1.983-6.94 1.003-2.085 3.602-5.864 5.175-7.536l.615-.642.98 1.558c.547.87 1.071 1.924 1.14 2.313ZM171.351 198.592c2.097.962 6.656 6.161 6.656 7.582 0 .572-.844 1.374-2.439 2.29-1.186.71-.98.756-4.627-1.283-1.322-.755-3.716-1.878-5.334-2.519-3.305-1.306-5.037-2.153-5.288-2.566-.41-.664 3.692-3.229 6.359-3.962 1.505-.412 3.077-.252 4.673.458Z" fill="#413A3A"/><path d="M175.773 80.996c5.425 3.275 6.952 4.352 9.641 6.78 3.533 3.184 5.038 4.924 5.608 6.46.25.686 1.481 4.718 2.735 8.955 1.253 4.215 2.895 9.643 3.647 12.071.752 2.428 1.345 4.627 1.299 4.902-.091.596-.98.962-3.943 1.58-4.103.825-13.175 1.833-16.776 1.833-1.71 0-2.006-.069-2.12-.412-.296-.985-2.165-14.981-2.758-20.569-.319-2.932.638-4.33 4.331-6.368 2.37-1.306 2.233-1.695-.183-.527-2.256 1.077-3.852 2.405-4.49 3.71-.479 1.009-.501 1.283-.365 3.872.183 3.458 1.049 11.223 2.097 18.92 2.211 16.171 2.28 16.904 1.231 18.736-.866 1.489-3.669 4.352-5.926 6.047-2.188 1.626-6.747 4.375-10.417 6.276-2.894 1.489-3.487 1.695-3.487 1.168 0-.137-.114-1.786-.228-3.642-.365-5.749-1.573-10.422-3.989-15.484-1.618-3.39-2.895-5.497-6.45-10.605-1.619-2.336-3.055-4.443-3.191-4.718-.251-.435-.069-.619 2.142-2.153 3.465-2.405 4.559-3.574 5.949-6.483 1.368-2.794 1.619-2.977 5.266-3.939 4.535-1.214 6.063-2.726 6.724-6.666l.296-1.786 1.709.114c2.941.206 4.377.115 5.22-.32 2.12-1.1 2.963-2.84 2.963-6.162 0-2.405-.524-4.169-1.869-6.46l-.775-1.374.638-1.42c.365-.756.821-2.13 1.049-3.023.251-1.123.456-1.604.661-1.535.159.069 1.869 1.076 3.761 2.222ZM197.928 99.618c2.393 1.786 6.109 4.558 8.228 6.116 2.143 1.557 4.194 3.115 4.559 3.458l.684.619-2.599.023h-2.575l-2.576 1.603c-2.826 1.764-3.92 2.291-4.741 2.291-.524 0-.615-.252-1.732-4.078-3.032-10.559-3.807-13.33-3.716-13.33.069 0 2.075 1.488 4.468 3.298Z" fill="#252525"/><path d="M206.886 116.774c4.011 6.872 7.02 13.4 10.53 22.951 2.416 6.551 2.986 7.857 4.992 11.567 1.755 3.23 3.237 6.093 3.237 6.276 0 .367-1.322.642-4.946 1.054-6.656.756-7.226.916-14.292 3.94-2.621 1.122-4.969 2.015-5.22 1.97-.341-.046-.592-.458-.98-1.65-.638-1.878-1.071-2.427-1.914-2.427-.707 0-1.824 1.099-3.055 3.046-1.527 2.382-1.208 2.268-7.362 2.451l-5.425.137-1.481-.687a218.045 218.045 0 0 0-3.875-1.649c-1.322-.527-2.416-1.122-2.462-1.306-.045-.183.274-.779.684-1.305.98-1.283 2.576-2.085 8.137-4.123 2.394-.871 5.197-1.993 6.246-2.474 4.877-2.336 7.521-5.612 7.841-9.781.159-1.97-.114-4.031-1.323-10.399-.706-3.733-.888-5.016-.706-5.405.182-.367.706-.688 1.801-1.031 2.074-.687 3.145-1.26 3.578-1.878.752-1.054.342-3.894-1.208-8.452l-.661-1.993 1.436-.619a22.503 22.503 0 0 0 2.667-1.397c.661-.412 1.254-.756 1.322-.756.068 0 1.162 1.764 2.439 3.94ZM140.671 121.218c.935 1.007 4.285 5.543 4.285 5.84 0 .092-1.869.184-4.171.184h-4.171l-1.185-2.36c-.661-1.282-1.186-2.405-1.186-2.473 0-.275 4.445-1.993 5.243-2.016.205-.023.729.367 1.185.825Z" fill="#252525"/><path d="M144 103c0-.4-1.333-1.833-2-2.5 0 .5-3.288.873-6 2.5-1.983 1.19-8.63.492-13.204-.598-1.192.977-2.176 1.495-2.796 1.598l-6 1.5v2.25l-2 2.25 12.5 2 13.5-2.5c2-2 6-6.1 6-6.5Z" fill="#571621"/><path d="M173.626 196.584c.291.11.601.293.678.406.361.533.563.192.544-.91-.008-.763-.239-1.146-.636-1.042-.295.068-1.05.869-1.098 1.168-.009.109.214.288.512.378Z" fill="#D50814"/><path d="M173.121 194.329c1.572-.376 1.948-.151 2.837 1.683.553 1.151.671 1.231 1.221.882.265-.166.228-.289-.706-2.248-.87-1.805-1.031-2.055-1.378-2.07-.441-.021-1.379.658-1.884 1.355l-.332.459.242-.061Z" fill="#D50814"/><path d="M176.527 193.008c.367.557.721 1.089.8 1.158.409.481 1.842.309 2.398-.284.172-.194.041-.279-.768-.522-.928-.302-1.007-.371-1.708-1.454-.894-1.388-1.169-1.605-1.873-1.527-.589.069-2.544 1.045-2.814 1.411-.228.312.76.363 1.475.064.938-.388 1.698-.025 2.49 1.154Z" fill="#D50814"/><path d="M175.737 189.802c1.753.211 2.156.52 3.046 2.323.551 1.129.678 1.235 1.302 1.129.3-.049.265-.163-.666-2.083-.87-1.773-1.034-2.032-1.417-2.159-.484-.163-1.554.086-2.146.493l-.389.268.27.029Z" fill="#D50814"/><path d="M179.561 189.84c.376.581.741 1.135.824 1.217.427.531 2.017.864 2.66.56.199-.103.058-.216-.822-.684-1.008-.555-1.091-.638-1.81-1.761-.917-1.437-1.21-1.707-1.99-1.875-.653-.138-2.859.019-3.175.232-.267.18.82.549 1.624.54 1.054-.01 1.874.54 2.689 1.771Z" fill="#D50814"/></g><defs><linearGradient id="paint0_linear_19_387" x1="144.932" y1="279.333" x2="153.366" y2="278.88" gradientUnits="userSpaceOnUse"><stop stop-color="#C0B9BD"/><stop offset="1" stop-color="#B79BAC" stop-opacity="0"/></linearGradient><clipPath id="clip0_19_387"><path fill="#fff" transform="translate(90 26)" d="M0 0h137v275H0z"/></clipPath></defs></svg>