<svg width="317" height="301" fill="none" xmlns="http://www.w3.org/2000/svg"><g clip-path="url('#clip0_19_388')"><path d="M103.883 23.891c-1.775 2.003-1.734 1.812-1.414 5.794.209 2.47.203 3.814.03 4.35-.325.905-1.336 1.543-4.984 3.04-2.758 1.13-2.851 1.122-3.096-.51-.122-.815-.008-1.133 1.098-2.827 1.574-2.413 1.968-3.63 1.599-4.71-.277-.77-2.063-2.54-2.274-2.253-.035.075.211.64.577 1.234.388.59.658 1.314.63 1.596-.03.259-.678 1.468-1.465 2.674-1.897 2.879-2.007 3.22-1.596 5.196l.31 1.598-1.253.72c-.7.407-1.718.837-2.278.944l-1.034.178-.118-1.094c-.116-.932.04-6.352.21-7.674.037-.214-.035-.389-.148-.372-.293.044-1.234 3.45-1.692 6.09-.358 2.069-.345 2.46.239 4.203.096.333-.157.649-1.106 1.393-1.054.807-1.401.951-2.384 1.006-.615.046-1.428.006-1.787-.08-.642-.135-.675-.2-.902-1.717-.387-2.583-1.378-6.117-1.982-7.069-.515-.825-1.652-1.489-1.897-1.128-.058.078.263.679.687 1.356.805 1.223.805 1.223 1.238 5.188l.43 3.942.72.495c.385.266.996.499 1.344.516.371.014.707.103.785.16.114.146-3.777 3.554-4.826 4.244-1.265.792-1.65.063-1.198-2.298.316-1.738.032-3.016-.963-4.118-.663-.734-2.213-1.544-2.152-1.136.017.113.41.587.856 1.099 1.076 1.182 1.226 2.179.645 4.304-.564 2.076-.496 2.53.519 3.304l.833.64-1.645 2.4c-2.861 4.134-4.102 6.775-4.76 10.232-.297 1.55-.28 2.127.238 6.195l.553 4.457 1.24 1.667 1.241 1.667-.543 1.91c-1.728 6.004-1.221 11.996 1.32 15.576 1.669 2.367 4.29 4.174 7.613 5.274 4.289 1.396 7.057 1.259 10.747-.568.73-.364 1.465-.683 1.646-.71.293-.044 1.948 2.696 2.553 4.273.41 1.05.33 1.433-.752 3.286-.347.608-.61 1.319-.569 1.59.136.906 1.36 1.534 4.295 2.206 3.649.819 3.779.916 3.569 2.591-.088.639.021 1.063.381 1.773.353.665.627 1.875 1.004 4.389l.519 3.466 1.274.967c.996.8 1.391.973 1.999.882.564-.085.933.068 1.721.715l1.003.845.746-.552c.581-.434.867-.523 1.3-.403 1.108.32 2.037-.861 3.519-4.511.915-2.198 1.424-3.109 1.852-3.173.699-.104 2.914 2.528 4.717 5.639 1.728 2.915 2.821 5.6 3.359 8.113l.475 2.245-3.562 2.225c-6.366 3.965-8.281 5.641-13.179 11.563-1.68 2.013-3.601 4.269-4.294 5.022-1.801 1.983-5.016 4.828-6.082 5.404-.642.328-2.396.776-5.306 1.351-6.087 1.214-6.663 1.369-7.421 2.155-1.219 1.248-1.362 1.987-1.09 5.49.126 1.765.404 4.387.621 5.836.37 2.47.45 2.689 1.3 3.905.476.716 1.24 1.505 1.648 1.768.683.407.986.431 2.519.202l1.736-.26 1.537 1.182c2.289 1.741 3.357 2.253 4.371 2.101.699-.105 1.09.045 2.214.78 2.259 1.537 3.444 1.754 5.479 1.032 1.183-.409 1.299-.403 2.189-.004 2.058.965 4.129.794 6.733-.592.707-.361 1.285-.656 1.33-.663.135-.02.792 1.595 2.365 5.783 2.951 7.85 5.033 11.591 7.579 13.665 1.34 1.096 2.31 1.414 3.685 1.208l.608-.092.98 6.848.958 6.851-1.424.492c-4.293 1.5-6.321 3.657-7.071 7.568-.131.668-.318 1.414-.449 1.619-.12.273-1.248.743-3.535 1.479-4.284 1.407-5.475 2.071-6.863 3.878-1.083 1.389-1.27 1.834-2.113 4.972-.358 1.304-.52 1.606-1.281 2.068-.969.608-1.992 2.082-2.299 3.263-.971 3.828 3.332 8.857 9.361 10.942 1.044.353 2.053.78 2.215.941.24.219.37.779.437 1.996.119 2.021.826 3.814 1.778 4.482.386.266 1.103.437 1.98.444 2.17.023 9.772-.769 15.475-1.624l5.23-.784.314.555c.182.297.374.963.452 1.484.244 1.469.791 2.661 1.426 3.052.505.295.827.293 2.52-.1 1.719-.373 1.993-.391 2.227-.055.261.354 1.074 3.776 2.568 10.825.909 4.218.932 3.913-.444 6.575-1.042 1.962-1.474 3.695-1.267 5.077.204 1.359 1.653 3.342 3.45 4.717 1.274.967 1.643 1.12 2.807 1.201 2.161.116 4.823-.885 6.806-2.572 1.492-1.266 3.067-4.907 2.829-6.493-.315-2.106-1.761-4.368-3.497-5.497l-1.176-.774-.685-3.186c-.806-3.84-1.696-9.775-1.589-10.601.061-.519.208-.61 1.145-.82l1.094-.234-.648-3.4-.667-3.374 5.611-.702c3.076-.392 8.551-1.073 12.168-1.546l6.603-.85.728-1.291c1.002-1.771.974-3.342-.2-6.872l-.241-.682 5.811-4.136c3.184-2.284 6.229-4.57 6.747-5.111 1.104-1.092 1.454-2.14 1.241-3.568-.184-1.223-.945-2.151-2.637-3.287-1.484-.982-1.53-1.137-1.435-4.811.045-2.161.045-2.161-.955-4.836-1.48-3.878-1.77-5.039-3.244-12.878-1.753-9.234-2.647-17.044-2.167-19.224.368-1.699 1.299-3.02 2.998-4.294.706-.522 1.387-1.203 1.542-1.551.159-.325.237-1.495.21-2.602-.118-2.785.015-3.129 1.587-4.477 3.819-3.282 9.035-13.073 14.128-26.459.688-1.864 1.488-3.605 1.747-3.875.255-.293 1.087-.742 1.852-1.019 2.386-.844 2.919-1.596 2.39-3.277-.135-.443-1.661-2.623-3.402-4.863-3.263-4.236-4.346-5.927-6.635-10.285-4.22-8.007-9.276-15.911-14.022-21.894-2.614-3.29-3.129-4.117-2.861-4.481.096-.13 1.733-.584 3.61-.981 1.876-.397 3.475-.799 3.571-.93.536-.728-1.7-2.269-8.429-5.8-9.934-5.228-10.338-5.468-17.379-10.62-7.512-5.522-6.048-4.676-17.976-10.138-4.105-1.863-3.91-1.637-4.87-5.43-1.995-7.924-4.445-13.972-7.915-19.59-.891-1.488-1.655-2.74-1.665-2.808-.034-.226.859-.267 1.028-.061 1.012 1.215 6.47.883 7.698-.46.438-.458.413-.478-1.452-.152-1.777.29-2.032.281-3.425-.251-.854-.312-1.549-.648-1.566-.761-.017-.114.409-.502.976-.865l.985-.657-1.25.118c-4.474.44-6.349.234-7.682-.817l-.626-.486.838-.403c.964-.492 3.312-2.511 3.815-3.305.484-.767.059-.68-1.635.315-1.608.959-3.759 1.374-5.805 1.101-1.436-.201-5.845-1.324-5.73-1.48.038-.052.887.075 1.907.27l1.828.351 1.177-1.682c1.33-1.89 2.936-5.165 2.74-5.552-.065-.13-1.114 1.024-2.285 2.59l-2.181 2.827-1.694-.232c-1.462-.221-2.352-.157-6.213.375-4.564.615-5.718.602-5.127-.065.157-.186 1.314-.614 2.595-.991 1.261-.352 2.588-.875 2.944-1.113.891-.667 1.184-2.1.926-4.586l-.215-2.052-.335 1.764c-.449 2.383-.731 3.12-1.305 3.438-.7.406-4.686 1.49-5.112 1.415-.265-.076-.41-.425-.529-1.218-.254-1.7-1.36-3.85-2.296-4.404-.713-.45-1.217-.582-1.176-.31.01.068.34.574.721 1.12.404.541.876 1.536 1.048 2.228.412 1.513.183 2.45-.838 3.322-.369.31-1.072 1.156-1.589 1.86-.491.721-1.021 1.333-1.156 1.354-.158.023-1.307.358-2.564.731-1.258.374-2.346.653-2.398.614-.074-.035-.028-.343.108-.664.149-.393.069-1.54-.277-3.85l-.492-3.284.864-1.612c.738-1.385.999-2.258.661-2.207-.068.01-.624.603-1.257 1.3Zm9.774 7.244c.068.453-.457.948-1.034.942-.761-.001-.851-.451-.167-.808.828-.472 1.147-.497 1.201-.134Zm-2.442 4.002c.433.584.996 1.264 1.259 1.48.48.437.477.414.203-.796-.169-.67-.394-1.4-.518-1.613-.186-.32-.08-.381.799-.513 1.194-.18 1.648.077 2.392 1.355l.523.871-.074-1.262-.074-1.263 1.13-.146c2.934-.417 4.259-.036 4.456 1.277.135.907.512.804.813-.26.252-.78.355-.864 1-.868.809.017 3.883.692 4.243.939.126.073.023.923-.259 1.961-.286 1.016-.431 1.894-.331 1.949.082.08.702-.546 1.386-1.366.684-.82 1.343-1.498 1.455-1.515.139.002 1.103.437 2.174.971l1.949 1.005-.852 1.24c-.832 1.213-.981 1.606-1.181 2.886-.141.902.385.568 1.829-1.177l1.368-1.641.853.775.873.75-.586 1.315c-.33.721-.577 1.383-.566 1.451.037.25.509.017 1.281-.678.426-.388.914-.67 1.085-.603.741.33 4.402 6.613 5.844 10.08 1.569 3.702 4.611 13.854 4.279 14.251-.08.081-.707.36-1.408.605-1.684.6-3.593 1.859-4.26 2.792-.647.908-.348.91 1.361.005 1.451-.774 5.018-1.424 5.093-.926.119.793-.403 2.539-.981 3.297s-.835.89-2.932 1.505c-2.783.81-3.512 1.175-4.718 2.352-2.509 2.483-3.323 6.589-1.89 9.686.931 2.061.898 2.46-.449 5.464-1.506 3.33-2.135 5.439-2.095 6.938.033.991-.115 1.384-1.132 2.903-1.083 1.691-1.571 2.899-1.648 4.231-.13 2.358-3.878 5.954-9.829 9.463-3.306 1.932-3.859 2.084-5.29 1.303-.625-.324-1.428-.759-1.796-.912-.443-.189-.72-.495-.774-.857-.136-.906-.657-1.616-1.218-1.67-.304-.025-1.515.041-2.694.172-1.179.13-3.145.239-4.341.256l-2.189.004 3.467-.705c10.967-2.176 16.847-4.771 19.829-8.715 1.094-1.461 1.33-2.354 1.065-4.12-.455-3.036-2.11-5.313-4.822-6.643-.595-.282-1.107-.622-1.124-.735-.017-.113.502-.492 1.141-.843 2.851-1.585 5.724-4.1 7.194-6.289 1.224-1.828 1.266-2.622.337-4.359l-.699-1.284 1.169-1.89c.65-1.046 1.387-2.43 1.633-3.093.467-1.344.64-4.497.334-6.697-.419-2.949-.311-3.613.886-5.622.585-1.015 1.825-2.891 2.715-4.183l1.614-2.303 1.542.14c1.706.16 2.26.008 2.161-.649-.078-.52-.466-.648-2.676-.942l-1.762-.222-1.238 1.737c-.682.983-1.967 2.866-2.85 4.203l-1.616 2.442-.937-1.018c-.5-.573-1.795-1.676-2.884-2.486-3.223-2.435-6.682-3.213-11.103-2.574-4.509.676-7.441 2.644-9.854 6.688-1.678 2.8-1.966 5.182-1.197 9.235.761 3.847 1.413 4.815 5.638 8.096 1.097.854 1.746 1.498 1.628 1.632-.096.13-1.251.882-2.537 1.677l-2.385 1.47-1.12-.25c-1.763-.384-3.81-2.046-4.905-3.966-1.032-1.814-1.494-1.977-1.018-.334.619 2.13 1.532 3.453 3.266 4.721l1.631 1.192-1.007.66-1.008.661-2.208-1.198c-1.207-.676-2.912-1.44-3.758-1.706-1.891-.62-2.348-.436-3.433 1.394l-.748 1.317-.532-2.63c-.546-2.72-1.218-4.589-2.277-6.12-.8-1.178-3.109-3.055-4.613-3.71-3.781-1.703-9.498-.94-13.243 1.753l-.834.588-.607-.511c-1.06-.93-.977-1.753.294-3.426 2.02-2.665 4.427-4.137 7.56-4.607 2.502-.375 3.045-.294 3.16.476.088.59.137.605.864.38.704-.221.876-.154 2.017.694.678.524 1.91 1.52 2.754 2.228.82.71 1.481 1.12 1.454.94-.081-.544-1.984-2.783-3.695-4.357-1.308-1.193-1.569-1.548-1.688-2.34-.209-1.243-1.07-2.527-2.337-3.449l-1.057-.745.465-2.432c.239-1.333.404-2.539.338-2.668-.16-.3-1.556 2.688-2.205 4.662l-.473 1.46 1.415.83c2.147 1.254 3.537 2.99 2.265 2.81-2.846-.383-4.19-.274-6.646.557-.615.208-.583.11.432-.806 1.517-1.409 2.191-2.297 2.116-2.795-.034-.227-.428-.863-.9-1.394-1.152-1.38-1.289-2.447-.537-4.042.365-.796.988-1.561 1.763-2.233 2.031-1.671 1.667-2.103-.553-.612-3.14 2.115-4.07 4.987-2.419 7.542.806 1.223.825 1.66.176 1.943-.324.14-.956 1-1.624 2.235-.594 1.108-1.42 2.367-1.835 2.823-.42.433-1.06 1.386-1.442 2.069-.378.705-.777 1.274-.89 1.291-.586.088-.994-6.938-.533-9.092.53-2.465 2.093-5.571 4.437-8.84l2.138-2.962 1.542.14c.846.105 1.884.111 2.29.05l.74-.133-.609-.373c-.327-.182-1.073-.394-1.638-.472l-1.03-.1.438-.622c.698-1.031 4.728-4.438 4.99-4.222.075.035.312.694.563 1.444.656 1.917.995 1.565.777-.811l-.172-1.92 2.191-1.37 2.17-1.368.535.499c.48.438.544.706.646 2.312.106 1.628.156 1.806.43 1.487.355-.4.88-2.749.774-3.45-.04-.273-.263-.68-.477-.879-.592-.56-.54-.683.373-1.353 1.5-1.059 2.066-.981 3.492.542.302.325.308.209.046-.771-.372-1.404-.234-1.563 2.477-2.85 2.364-1.141 2.57-1.15 2.693-.334.061.408.364.895.783 1.226l.681.547-.264-.84c-.299-1.068-.128-1.927.501-2.346.462-.3 6.121-2.214 7.129-2.412.38-.08.691.152 1.297.964Zm10.633 21.892c3.723.392 7.242 2.342 9.204 5.129l1.027 1.467-3.581 5.632-3.585 5.61-3.485 2.12c-3.905 2.392-4.808 2.829-5.695 2.753-1.287-.131-4.454-2.806-6.145-5.17-.531-.778-.674-1.266-1.095-4.075-.458-3.058-.463-3.242-.018-4.583 1.389-4.261 4.144-7.106 8.192-8.547.855-.29 3.684-.482 5.181-.336Zm11.1 10.705c.186 3.7-.463 6.6-1.923 8.695-.893 1.27-1.393 1.32-2.542.265-1.656-1.512-1.666-1.58-.81-3.098 1.492-2.655 4.979-7.995 5.118-7.83.026.018.091.912.157 1.968Zm-49.566 7.451c2.761.12 5.258 1.25 6.982 3.215 1.587 1.824 2.325 3.52 2.76 6.42.197 1.313.29 2.55.2 2.726-.151.37-.016.35-7.344.36-4.081-.015-10.22.234-11.664.45-1.397.21-1.587-.133-1.37-2.528.232-2.605 1.501-6.594 2.523-7.928.444-.576 1.241-1.252 1.903-1.606 1.281-.678 4.063-1.188 6.01-1.109Zm71.972-4.51c5.85 2.436 7.52 3.274 10.54 5.276 3.966 2.626 5.711 4.124 6.502 5.557.35.643 2.165 4.447 4.033 8.452 1.864 3.982 4.292 9.108 5.396 11.397 1.103 2.29 2.015 4.377 2.011 4.655-.002.603-.827 1.097-3.666 2.148-3.935 1.423-12.757 3.765-16.319 4.298-1.69.254-1.993.23-2.157-.093-.439-.93-4.362-14.494-5.776-19.933-.75-2.852-.011-4.376 3.339-6.94 2.151-1.642 1.958-2.007-.259-.493-2.072 1.399-3.453 2.95-3.89 4.335-.324 1.067-.306 1.343.213 3.882.693 3.394 2.7 10.944 4.878 18.4 4.583 15.665 4.76 16.38 3.994 18.347-.636 1.601-2.984 4.848-4.964 6.859-1.923 1.933-6.024 5.327-9.372 7.751-2.642 1.901-3.197 2.193-3.275 1.672-.021-.136-.378-1.75-.766-3.568-1.212-5.632-3.1-10.074-6.239-14.722-2.103-3.113-3.678-5.007-7.952-9.532-1.946-2.071-3.679-3.942-3.855-4.193-.312-.394-.159-.602 1.8-2.447 3.07-2.892 3.979-4.21 4.923-7.293.938-2.966 1.159-3.184 4.623-4.676 4.306-1.873 5.592-3.594 5.662-7.589l.028-1.81 1.708-.14c2.938-.233 4.345-.536 5.114-1.091 1.933-1.402 2.509-3.248 2.017-6.533-.356-2.379-1.136-4.045-2.806-6.11l-.97-1.245.421-1.5c.249-.8.496-2.228.589-3.145.081-1.147.213-1.653.426-1.615.168.044 2.008.787 4.049 1.64Zm-5.993.922c-.082.684-.399 1.797-.691 2.466l-.555 1.218 1.64 2.325c1.91 2.748 2.558 4.457 2.539 6.637-.01 1.785-.344 2.785-1.18 3.512-.98.842-4.43 1.197-6.284.664-1.4-.415-3.605-1.752-4.593-2.809-1.719-1.78-1.612-5.525.257-8.284.997-1.493 1.793-2.029 4.522-3.04 1.267-.468 2.536-1.075 2.843-1.33.654-.56 1.494-2.03 1.419-2.528-.027-.181.027-.282.108-.202.078.058.076.66-.025 1.37Zm-21.982 6.19c2.273 2.09 3.473 3.486 3.564 4.097.106.703-1.482 3.025-3.102 4.519-2.952 2.758-6.479 4.445-10.665 5.118-2.409.385-2.686.38-3.853-.024-1.681-.605-6.349-3.148-6.228-3.421.221-.52 17.648-11.423 18.456-11.567.203-.03 1.026.54 1.828 1.277Zm-27.135 8.56c3.303 1.589 8.782 4.775 8.863 5.156.095.635-.928 1.043-3.652 1.474-1.442.216-3.184.593-3.843.807-2.418.78-4.591 1.198-4.812.953-.114-.145-.466-1.412-.815-2.819l-.593-2.575.832-1.213c.453-.67.969-1.535 1.12-1.905.175-.373.473-.696.675-.726.18-.027 1.183.355 2.225.847Zm-21.13 3.259c9.474-.447 13.867-.202 14.758.822.608.673.869 3.645.455 5.19-.37 1.375-1.557 2.989-2.948 4.008-1.017.755-1.303.844-3.47 1.146-1.988.274-2.632.278-4.018-.047-4.363-.967-7.924-3.352-9.536-6.422-.576-1.072-1.428-3.84-1.27-4.164.12-.273-.472-.23 6.028-.533Zm64.217 1.887c.016 2.568-.71 4.645-2.002 5.557-.75.53-3.118 1.649-3.681 1.733-.136.02-.292-.257-.343-.597-.197-1.314.564-4.23 2.161-8.338l.746-1.941 1.563 1.202 1.537 1.182.019 1.202Zm-31.644 2.773c.078.985.116 2.16.091 2.604-.039.816-.039.816-1.215.97-1.494.177-1.899-.063-2.057-1.267-.218-1.612.065-2.488 1.082-3.243.497-.375 1.161-.706 1.455-.75.541-.081.544-.059.644 1.686Zm68.337-8.458c2.632 1.412 6.717 3.602 9.044 4.829 2.35 1.222 4.61 2.459 5.021 2.745l.768.51-2.566.407-2.547.382-2.31 1.968c-2.534 2.163-3.538 2.846-4.349 2.968-.519.077-.646-.158-2.318-3.776-4.563-9.993-5.74-12.62-5.65-12.633.068-.01 2.272 1.165 4.907 2.6Zm-75.973 11.178.306 2.038-.858.43c-.472.233-2.042.677-3.494.987l-2.613.554-.086-1.493c-.054-.825-.046-1.846.028-2.274.105-.687.185-.769 1.041-.897.519-.078 1.442-.378 2.023-.65.608-.254 1.602-.542 2.214-.61l1.133-.124.306 2.039Zm12.369-3.591c.896-.019 1.747-.03 1.905-.054.225-.034.305.348.396 1.724.056.988.037 1.94-.077 2.096-.105.224-.926.44-2.639.697l-2.479.371-.141-2.017c-.208-2.771-.196-2.842.684-2.812.416.007 1.477.01 2.351-.005Zm5.712-.486c1.858 1.019 3.155 1.983 3.223 2.436.034.226-.273.643-.75.992-.94.65-4.339 2.272-5.015 2.373-.406.06-.377-.06.187-.908.58-.898.633-1.16.53-2.766-.097-1.723.035-2.692.418-2.75.09-.013.73.262 1.407.623Zm-14.994 3.915c.516 2.517.594 2.575 3.082 2.572.99-.009 2.023.114 2.343.251.372.176 1.245.161 2.759-.042 3.617-.473.869.263-4.852 1.306-5.608 1.026-5.585 1.022-4.959-.948.205-.633.29-1.757.229-2.628-.17-2.36-.136-2.597.464-2.594.461 0 .526.13.934 2.083ZM95.71 98.537c.051 1.266-.201 1.582-.559.732-.187-.481.177-2.203.414-2.007.074.035.14.627.145 1.275Zm31.547-1.416c.584.816.735 2.438.306 3.729-.924 2.756-4.974 5.564-10.754 7.449-1.91.633-3.632.984-8.275 1.68l-5.861.878-2.713-.566c-1.498-.308-2.893-.701-3.101-.855-.36-.247-.335-.39.082-1.147.779-1.414 2.438-2.798 4.139-3.446.855-.291 4.189-1.115 7.449-1.812 10.458-2.192 14.346-3.47 17.142-5.58 1.16-.868 1.183-.872 1.586-.33Zm-23.675 4.428c.085.103.045.295-.058.38-.327.28-4.784 2.222-5.234 2.29-.316.047-1.01-.891-1.098-1.48-.05-.34 6.114-1.496 6.39-1.19Zm87.844-.102c4.986 6.201 8.929 12.211 13.816 21.137 3.36 6.12 4.117 7.327 6.651 10.699 2.214 2.934 4.104 5.546 4.131 5.727.054.363-1.212.831-4.735 1.776-6.47 1.734-7.01 1.977-13.55 6.014-2.426 1.499-4.615 2.73-4.87 2.722-.345.005-.654-.365-1.214-1.486-.909-1.763-1.419-2.242-2.253-2.117-.699.104-1.64 1.357-2.569 3.465-1.157 2.582-.859 2.422-6.918 3.515l-5.344.94-1.567-.46c-.866-.241-2.688-.709-4.077-1.057-1.385-.325-2.556-.751-2.628-.926-.072-.174.155-.811.483-1.392.779-1.414 2.238-2.443 7.436-5.284 2.238-1.215 4.844-2.741 5.81-3.372 4.477-3.033 6.607-6.665 6.304-10.835-.134-1.971-.71-3.97-2.848-10.088-1.252-3.588-1.623-4.829-1.5-5.241.126-.39.597-.784 1.628-1.286 1.949-.987 2.924-1.712 3.26-2.388.588-1.154-.239-3.902-2.447-8.18l-.949-1.873 1.328-.824a22.59 22.59 0 0 0 2.431-1.777c.592-.506 1.127-.934 1.195-.944.068-.01 1.411 1.572 2.996 3.535Zm-80.168 12.409 2.296-.368.088.589c.153 1.02.92 1.831 2.073 2.145.578.168 1.08.44 1.107.621.028.181-.289.993-.721 1.799a54.456 54.456 0 0 0-1.677 3.726l-.905 2.266-.431-.723c-.595-1.046-1.056-1.046-1.751.008l-.606.878-.346-.62c-.321-.6-.44-.629-1.5-.47l-1.127.169-.196-.85c-.177-.715-.287-.838-.887-.84l-.693-.012-.498-3.168c-.261-1.745-.609-3.453-.773-3.775l-.275-.608 2.252-.198c1.25-.118 3.289-.354 4.57-.569Zm15.343 1.8c1.074.858 5.06 4.846 5.104 5.141.013.09-1.822.458-4.098.799l-4.125.619-1.522-2.158c-.844-1.171-1.529-2.203-1.539-2.271-.041-.272 4.1-2.629 4.886-2.77.199-.053.775.254 1.294.64Zm58.548-7.339c.15.232.355.827.429 1.325.18 1.201-.36 1.745-2.981 3.018-2.647 1.254-4.724 2.005-7.9 2.805-3.221.807-11.015 2.323-11.245 2.172-.1-.054-.348-.782-.563-1.606l-.382-1.472 1.197-.318c.666-.169 3.044-.757 5.316-1.283 5.387-1.271 9.597-2.55 12.496-3.819 2.856-1.238 3.236-1.318 3.633-.822Zm-49.943 16.309c3.384 4.126 7.512 11.219 7.852 13.485.156 1.042.105 1.165-1.238 2.965-2.256 3.094-7.593 7.623-13.637 11.586-5.222 3.446-6.691 4.106-12.309 5.527l-3.218.83-.55.939c-.293.507-1.348 2.078-2.289 3.493-3.083 4.492-3.488 5.943-2.393 8.326 1.029 2.255 1.982 3.386 4.154 4.96 3.102 2.244 3.547 2.595 4.132 3.271 1.343 1.582.532 2.63-2.535 3.229-1.722.351-1.977.343-2.635-.045-1.058-.606-3.208-3.109-5.506-6.447-2.122-3.087-3.009-4.853-3.267-6.575-.157-1.042-.565-1.768-.814-1.43-.233.29.481 4.283.94 5.349.22.546 1.36 2.459 2.489 4.305 1.149 1.82 2.193 3.562 2.331 3.866.22.546.201.572-.926.741-1.353.203-2.147-.026-3.299-.942-2.01-1.574-2.952-3.703-3.88-8.821-.387-2.12-.787-3.866-.877-3.853-.09.014-.287.854-.438 1.849-.315 2.201-.03 4.567.878 7.396.344 1.06.58 2.021.503 2.125-.233.29-4.426-2.927-5.26-4.029-.52-.71-.911-1.624-1.299-2.979-.656-2.38-.686-3.811-.105-5.01.558-1.195.405-1.45-.412-.749-1.272 1.048-1.315 1.68-.598 6.158.619 3.822.65 4.026.243 4.086-.676.102-2.018-.855-2.65-1.849-.516-.826-.58-1.094-.609-2.827.005-1.043-.277-3.386-.597-5.215l-.57-3.342.9-1.223.92-1.25 4.778-.716c4.666-.699 4.843-.749 6.51-1.624 3.031-1.613 5.214-3.654 9.872-9.331 5.91-7.163 6.867-8.001 15.148-13.342l3.404-2.201-.207-1.381c-.269-1.79-1.312-5.061-2.398-7.539-.485-1.085-.886-2.068-.91-2.226-.061-.408.628-.581 4.782-1.157l3.836-.552 1.754 2.169Zm45.07-8.074c.643 1.061 3.12 8.055 3.834 10.82.88 3.412.943 4.908.299 6.765-1.12 3.132-3.878 5.491-10.727 9.158-5.333 2.861-6.77 3.887-8.215 5.933-.686.96-1.954 2.493-2.831 3.412-2.114 2.193-2.739 3.097-3.219 4.814-.6 2.151-.199 3.596 2.058 7.427.963 1.662 1.742 3.167 1.702 3.358-.085.36-1.062.761-2.414.964l-.947.142-1.466-2.398c-1.403-2.291-3.097-5.905-3.26-6.992-.119-.793-.535-.8-.577-.006-.085 1.124.846 3.648 2.541 6.961l1.568 3.077-.722.108c-1.127.169-2.999-.176-4.126-.771-1.799-.935-2.692-2.584-3.887-7.176-.993-3.858-1.524-3.246-.879 1.058.4 2.511.502 2.889 1.651 5.172 1.142 2.238 1.228 2.503.938 2.87-.265.388-.407.363-1.648-.077-1.804-.656-3.414-2.013-4.858-4.113-1.088-1.573-1.486-2.533-2.616-6.231l-.153-.557-.213.727c-.327 1.207-.08 3.162.569 4.57.315.717 1.298 2.353 2.188 3.679 1.216 1.81 1.547 2.478 1.364 2.645-.144.114-.919.323-1.686.438-1.307.195-1.52.158-2.127-.353-.963-.736-2.856-3.371-4.499-6.182-1.486-2.533-2.351-4.465-2.872-6.402-.952-3.586.961-5.888 7.573-8.986 4.523-2.114 6.5-3.221 9.445-5.261 4.474-3.056 7.104-5.65 12.787-12.64 1.108-1.37 3.042-3.536 4.296-4.859 2.575-2.656 3.054-3.306 3.256-4.263.278-1.223.101-1.173-1.142.379-.715.918-1.986 2.128-3.13 2.948l-1.911 1.398-.163-1.087c-.092-.612-.587-2.53-1.103-4.282-.519-1.775-.885-3.295-.809-3.399.096-.131 2.639-.697 5.639-1.285 3.022-.592 6.08-1.259 6.81-1.461a26.007 26.007 0 0 1 2.288-.575c.899-.158.999-.103 1.394.533Zm-36.022 25.85c.156.578.377 2.051.47 3.288.193 2.055.159 2.292-.256 2.447-4.893 1.798-7.756 3.455-9.629 5.565-1.222 1.388-1.881 1.602-6.592 2.309l-2.84.425 4.426-3.072c6.346-4.402 10.771-8.099 12.869-10.707.543-.683 1.039-1.221 1.103-1.254.09-.013.274.446.449.999Zm65.815 2.55c-2.879 8.005-8.222 19.414-10.856 23.213-.591.83-1.853 2.247-2.827 3.134-.97.91-1.9 1.929-2.078 2.28-.342.792-.521 3.135-.307 4.563l.159 1.064-1.19.827c-2.299 1.572-3.788 4.25-3.886 6.975-.015.674.574 5.681 1.318 11.105 1.079 7.968 1.532 10.679 2.341 14.079.732 3.04.951 4.35.818 4.695-.157.486-.315.51-4.058.909-3.65.408-4.007.485-5.513 1.197-2.41 1.148-4.335 1.529-5.644 1.1-.578-.168-2.851-1.495-5.074-2.945-3.955-2.557-4.528-2.842-7.086-3.454-1.266-.297-1.292-.316-2.466-2.155l-1.201-1.859 1.356-2.334c.751-1.293 1.593-2.902 1.885-3.571.611-1.458 1.203-4.581 1.054-5.578-.055-.362-.019-.738.084-.823.08-.081 1.2.168 2.435.562 3.558 1.134 3.839 1.161 4.804.53 3.529-2.289 12.749-13.815 14.152-17.685l.423-1.175-1.324-1.909c-3.021-4.319-6.422-6.866-11.896-8.941l-1.661-.631-.893-5.958c-.489-3.262-.87-6.262-.856-6.635l.033-.699 1.443.246c2.644.415 11.201-1.076 13.091-2.309.273-.18.97-1.373 1.514-2.659.571-1.267 1.127-2.323 1.24-2.34.383-.057.761.465 1.225 1.716.244.705.656 1.454.925 1.714.481.438.503.434 1.776-.15.713-.315 3.175-1.727 5.498-3.14 5.934-3.623 8.427-4.83 11.102-5.277l1.034-.178-.894 2.496Zm-76.946 12.065c.117.168-.017 1.577-.248 3.117-.686 4.342-.163 7.83 1.487 9.922.853 1.077 1.743 1.476 3.346 1.56 1.187.077 1.287.131 1.531.836.751 2.088 4.489 21.493 4.705 24.471.174 2.244.039 2.727-.767 3.033-.347.145-3.48.777-7.002 1.42l-6.39 1.19-1.239-1.042c-1.522-1.231-3.229-3.546-4.362-5.878-.465-.949-1.631-3.809-2.585-6.329-.979-2.54-2.679-6.501-3.79-8.836-3.407-7.202-3.608-7.774-4.552-12.844-.81-4.325-.844-4.552-.522-5.48.587-1.617.782-1.854 1.934-2.166 1.02-.269 10.778-2.055 15.975-2.904 1.864-.325 2.348-.328 2.479-.07Zm31.723-2.554c1.122 1.8 2.485 5.51 2.866 7.746.516 2.98.348 3.399-4.946 11.905-5.051 8.122-6.413 10.573-7.105 12.877-.572 1.869-.406 2.979 1.353 9.641 2.624 9.821 3.758 13.079 5.488 15.853.757 1.207.905 1.579.737 1.998-.193.561-1.924 1.77-4.217 2.925-.794.397-1.733 1.047-2.069 1.421-.336.375-1.232 2.084-2.035 3.803-1.63 3.579-2.086 4.227-3.262 4.681-1.283.516-1.813.364-2.09-.567-.625-2.014-3.518-16.242-4.337-21.4l-.605-3.73.527-1.098.526-1.099-.835-6.035c-.451-3.314-1.224-8.016-1.723-10.419-.521-2.4-1.168-5.639-1.492-7.188l-.56-2.812.846.569c.46.301 1.355 1.348 1.981 2.297 1.281 1.939 2.593 3.155 3.824 3.526 2.269.679 11.057-1.889 12.32-3.607.364-.494.356-.701.019-2.18-.299-1.229-.325-1.711-.134-1.971.131-.205 1.075-.671 2.078-1.053 1.003-.382 2.102-.894 2.435-1.129.539-.405.57-.503.334-1.463-.156-.579-1.003-2.235-1.891-3.7-1.342-2.185-1.708-2.941-1.973-4.244-.358-1.776-.231-2.467.795-4.08.599-.923 2.006-2.455 2.321-2.502.09-.013.458.441.824 1.035Zm3.25-.765c.798.251 1.636.612 1.85.811.344.296.552 1.376 1.319 6.496.506 3.375.922 6.764.944 7.525l.001 1.389-3.013 4.042c-2.056 2.74-3.158 4.457-3.468 5.314-.46 1.389-.705 3.904-.481 5.399.139.929.139.929-.784 1.229-1.386.44-3.906 1.929-5.758 3.411-.907.715-1.673 1.293-1.718 1.3-.203.03-.243-1.469-.07-2.468.418-2.286 1.715-4.704 6.972-12.996 6.49-10.214 6.704-11.242 3.773-18.191a101.48 101.48 0 0 0-1.408-3.24c-.31-.533.151-.532 1.841-.021Zm-57.173 11.44c.813 3.885 1.603 6.847 2.319 8.709.494 1.292.821 2.401.741 2.483-.307.254-2.141-.907-3.003-1.889-2.087-2.397-2.863-4.343-2.376-6.014.342-1.255 1.546-3.219 1.997-3.287.18-.027.319-.024.322-.002Zm24.924.063c.714 1.376 1.56 2.87 1.879 3.309.763 1.09.741 1.255-.138 1.387-1.014.152-2.209-.595-2.688-1.635-.387-.892-1.181-5.729-.971-6.016.192-.26.459.14 1.918 2.955Zm20.377 6.165c.878.169 1.621.359 1.673.397.211.177.796 3.008.653 3.284-.228.474-3.843 1.734-7.164 2.487l-2.896.665-1.216-.883c-1.242-.902-2.033-2.034-1.881-2.706.041-.191.528-.635 1.076-.972.572-.34 1.306-.821 1.681-1.086.641-.489.69-.473 1.28-.075.311.231.948.483 1.352.561.71.125.883.053 1.943-.87.635-.535 1.347-1.013 1.546-1.066.203-.03 1.097.091 1.953.264Zm21.93.233c1.091.509 2.547 1.309 3.237 1.762l1.251.808-1.85 3.497c-2.899 5.414-3.548 7.388-4.037 12.278l-.188 1.974-1.384-1.391c-1.816-1.812-4.007-3.36-6.21-4.373-1.999-.882-2.208-1.198-2.3-3.199-.113-2.6.811-4.429 5.099-9.959.868-1.126 1.659-2.31 1.727-2.621l.125-.552 1.261.414c.701.219 2.176.831 3.269 1.362Zm8.304 7.58c.129.398.217.987.197 1.314-.084.823-1.77 3.415-5.191 7.958-2.73 3.629-2.969 3.873-3.122 3.317-.298-1.067.171-4.704.933-7.158.682-2.21 2.692-6.333 4-8.219l.513-.726 1.2 1.395c.67.78 1.345 1.744 1.47 2.119Zm-18.048 8.449c2.217.641 7.496 5.107 7.706 6.512.085.566-.63 1.484-2.072 2.626-1.067.878-.858.893-4.766-.582-1.42-.552-3.953-1.307-5.649-1.702-3.462-.801-5.3-1.382-5.609-1.753-.505-.596 3.173-3.741 5.701-4.861 1.427-.631 3.006-.706 4.689-.24Zm-6.897 7.959c1.547.324 2.978.642 3.191.68.313.092.376.36.432 1.811.081 1.771-.296 3.866-1.052 5.74-.418 1.058-1.815 3.422-2.111 3.605-.211.124-.805-1.686-2.329-7.086-1.382-4.911-1.459-5.27-1.143-5.318.113-.017 1.466.244 3.012.568Zm-18.736 6.931c.157.277.753 2.875 1.327 5.776 2.813 14.008 3.686 18.139 3.887 18.711.198.55.144.65-.909 1.318-.609.392-2.232 1.562-3.594 2.623-1.366 1.038-2.639 1.924-2.842 1.954-.991.149-1.875-1.595-3.047-6.028-1.24-4.586-2.223-9.302-3.491-16.686l-1.144-6.707 4.779-.716c4.734-.71 4.779-.717 5.034-.245Zm-9.016 16.892c.159.138.481.901.735 1.673.628 2.037 2.346 9.191 2.253 9.344-.06.055-1.179-.333-2.505-.875-1.326-.543-3.478-1.216-4.789-1.506-2.218-.501-3.011-.869-3.096-1.435-.064-.431.72-2.887 1.194-3.723 1.046-1.94 5.299-4.315 6.208-3.478Zm34.64-3.547c.692.313 2.189 1.224 3.313 1.959 1.127.757 3.321 2.165 4.869 3.115 3.575 2.174 4.714 3.161 4.86 4.135.18 1.201-.172 1.925-1.45 3.089-2.615 2.384-3.747 1.905-12.154-5.127-3.163-2.652-5.285-4.048-6.548-4.322-.881-.192-.735-.446.8-1.278.722-.409 1.8-1.057 2.388-1.446 1.359-.922 2.23-.96 3.922-.125Zm-8.512 4.101c.904.189 2.174.67 2.832 1.058 2.484 1.504 7.966 6.403 9.338 8.328.378.523.81 1.408.982 1.938.591 1.949-.812 3.04-2.971 2.321-1.119-.388-3.974-1.906-8.242-4.393-1.768-1.032-3.901-2.195-4.742-2.578-.864-.38-1.569-.784-1.59-.92-.068-.453 2.366-6.052 2.659-6.096.045-.007.826.131 1.734.342Zm31.842-.834c3.48-.313 3.528-.298 3.769 1.311.109.725.168 2.198.125 3.293a213.048 213.048 0 0 0-.088 2.491c-.043 1.096-1.114 2.252-3.984 4.327-1.584 1.117-3.887 2.667-5.11 3.429-5.442 3.363-18.846 9.425-18.972 8.587-.017-.113.403-.848.922-1.69 1.195-1.87 1.418-2.69 1.156-4.435-.183-1.223-.162-1.388.216-1.329 3.512.516 5.435-.954 5.004-3.83l-.136-.906 1.35.399c.724.216 1.686.327 2.114.263 1.871-.281 4.929-3.403 5.004-5.058.028-1.047-.351-2.032-1.214-3.177-.374-.5-.671-.941-.652-.968.042-.029.559-.269 1.144-.518.607-.254 1.71-.743 2.487-1.091a8.178 8.178 0 0 1 2.883-.756 157.69 157.69 0 0 0 3.982-.342Zm-63.398 10.196c2.176.369 4.949 1.343 6.856 2.377 1.628.868 3.812 2.37 3.846 2.597.014.09-.654.862-1.473 1.703-1.28 1.303-2.303 2.777-3.209 4.58-.19.423-.303.439-2.392.336-1.903-.086-8.103-.546-15.522-1.148-3.126-.25-3.126-.25-2.688-2.4.824-4.038 2.295-5.601 6.681-7.093 2.849-.982 5.793-1.331 7.901-.952Zm28.559-1.061c.831.316 1.772.754 2.125.956l.635.391-.587-.074c-.913-.095-4.776-1.415-5-1.683-.368-.454 1.259-.212 2.827.41Zm-4.976 1.093c2.075.315 9.56 2.737 11.99 3.878 2.206 1.036 3.789 2.211 4.15 3.084.607 1.437-.163 3.22-2.392 5.569l-1.116 1.164-1.663.133c-1.663.133-2.205.053-14.447-2.282-4.223-.803-7.1-.927-10.549-.411l-2.145.299 1.297-1.654c1.966-2.564 7.225-7.151 10.335-9.007 1.457-.89 2.603-1.085 4.54-.773Zm-29.066 12.44c6.091.5 11.143.993 11.253 1.116.111.122.399 1.121.626 2.176.231 1.077.746 2.667 1.149 3.51 1.082 2.455 1.117 2.381-.878 2.911-.956.236-3.647.732-6.014 1.087-6.247.913-8.841.676-12.362-1.135-3.221-1.649-5.861-4.194-6.525-6.318-.393-1.238.389-4.019 1.178-4.137.293-.044 5.509.309 11.573.79Zm75.297-12.767c1.922 1.287 2.052 2.772.414 4.454-2.018 2.063-13.319 10.01-17.14 12.042-2.389 1.284-8.49 3.635-10.634 4.095-1.561.35-1.745.354-1.938-.011-.101-.216-.774-1.32-1.514-2.413-1.109-1.71-1.253-2.059-1.013-2.304.16-.162 1.227-.577 2.33-.905 7.38-2.125 21.022-9.52 26.63-14.39.711-.639 1.439-1.165 1.574-1.186.158-.023.753.258 1.291.618Zm-56.718 12.785c3.036-.2 3.53-.135 11.989 1.561 3.019.613 6.566 1.217 7.902 1.364 2.83.271 3.311.407 3.393.951.03.203.68 1.31 1.446 2.423.747 1.139 1.335 2.139 1.255 2.221-.326.442-2.376.912-7.989 1.753l-6.199.929-5.425-.831c-7.266-1.112-8.8-1.507-9.63-2.587-.691-.916-1.832-3.455-2.351-5.23-.573-1.975-.142-2.179 5.609-2.554Zm44.564 3.465c.473.231 1.09 1.736 1.062 2.621 0 .463-.103 1.312-.228 1.864l-.215 1.028-6.464.853c-3.549.462-9.356 1.24-12.882 1.699l-6.397.843.688 3.51.71 3.507-3.041.316c-1.679.182-4.716.522-6.781.739-2.061.239-3.994.413-4.275.386l-.561-.055-.562-4.363c-.341-2.427-.553-4.457-.495-4.535.057-.078 1.019.033 2.155.233 3.506.633 6.48.488 12.659-.577 8.2-1.414 15.086-3.604 21.04-6.628l.186-.094c2.964-1.513 3.011-1.538 3.401-1.347Zm-46.387 7.439c1.254-.095 2.895-.063 3.647.032l1.342.193.357 2.378.353 2.356-.721.108c-4.602.667-17.455 2.107-18.879 2.135-2.212.007-2.823-.225-3.334-1.33-.505-1.059-.522-2.863-.051-3.258.414-.317 13.955-2.393 17.286-2.614Zm19.94 10.63c.207.155 2.555 11.36 3.137 14.932.03.204.27.423.551.451.781.137 2.204 1.175 2.895 2.09.954 1.293 1.263 3.818.686 5.502-.822 2.509-2.622 3.729-6.206 4.266l-2.254.338-.975-.665c-1.407-.924-2.778-2.849-2.975-4.163-.184-1.223.105-2.216 1.253-4.403 1.163-2.236 1.191-2.356.828-4.78-.336-2.242-2.176-10.675-2.669-12.269l-.268-.863 2.858-.313c1.588-.168 3.009-.219 3.139-.123ZM93.559 52.815c-.278.296-1.299 1.793-2.27 3.305-.969 1.535-2.22 3.181-2.79 3.684-1.326 1.148-3.072 1.803-4.626 1.735-.63-.044-1.155-.012-1.141.079.092.611 2.528 1.335 4.704 1.402 1.252.044 1.702-.023 2.959-.56 1.433-.584 2.088-.984 8.42-5.175 3.019-2.004 5.135-3.11 6.969-3.639.553-.152 1.131-.447 1.239-.649.35-.585-.82-.548-3.371.112-2.77.74-3.727 1.276-9.294 5.191-2.27 1.614-4.202 2.877-4.28 2.819-.055-.062.24-.708.705-1.45.943-1.553 3.502-6.314 3.742-7.022.227-.636-.291-.558-.966.168Zm22.065-2.404c-3.795 1.125-7.279 4.334-8.385 7.719-.649 1.973-.317 2.34.56.657 1.599-3.019 3.801-5.086 6.584-6.198 1.739-.7 5.414-1.251 7.462-1.118 3.374.212 7.381 2.345 10.3 5.52 1.713 1.898 1.916 1.404.319-.789-1.368-1.902-5.412-5.048-7.277-5.649-3.005-.986-6.539-1.035-9.563-.142Zm-40.916 8.726c-.627.58-1.39 1.483-1.661 1.986l-.486.907.565 1.004c1.062 1.856 1.042 1.882-.04 3.272-1.181 1.497-1.224 1.828-.134 1.41.912-.369 2.605-2.452 2.683-3.32.042-.332-.126-.839-.387-1.194-.667-.919-.652-1.43.123-3.029 1.228-2.57 1.11-2.737-.663-1.036Zm47.243 7.65c-.434.181-1.039 1.986-.927 2.734.04.272.415.771.83 1.08 1.06.767 2.119.608 3.059-.505.901-1.062.957-1.765.223-2.512-.875-.911-2.17-1.25-3.185-.796ZM80.927 81.715c-.748.853-.833 1.978-.195 2.855.261.355.686.73.932.833 1.532.535 3.346-.895 3.112-2.458-.143-.952-.997-1.727-2.078-1.866-1.148-.129-1.084-.162-1.771.636Zm61.963-1.62c-.599.46-1.261 1.115-1.439 1.466-1.224 2.291.919 5.213 3.971 5.427 1.187.077 1.389.047 2.072-.473 1.077-.81 1.415-2.25.991-4.155-.193-.828-.546-1.794-.829-2.146-.994-1.402-2.935-1.436-4.766-.12Zm3.453.895c.642.9 1.068 2.666.832 3.396-.451 1.295-2.058 1.49-3.511.41-1.374-1.021-1.304-2.398.169-3.638.984-.82 1.989-.877 2.51-.168Z" fill="#000"/><path d="M191.731 219.13c3.48-.313 3.528-.298 3.769 1.311.109.725.168 2.198.125 3.293a213.048 213.048 0 0 0-.088 2.491c-.043 1.096-1.114 2.252-3.984 4.327-1.584 1.117-3.887 2.667-5.11 3.429-5.442 3.363-18.846 9.425-18.972 8.587-.017-.113.403-.848.922-1.69 1.195-1.87 1.418-2.69 1.156-4.435-.183-1.223-.162-1.388.216-1.329 3.512.516 5.435-.954 5.004-3.83l-.136-.906 1.35.399c.724.216 1.686.327 2.114.263 1.871-.281 4.929-3.403 5.004-5.058.028-1.047-.351-2.032-1.214-3.177-.374-.5-.671-.941-.652-.968.042-.029.559-.269 1.144-.518.607-.254 1.71-.743 2.487-1.091a8.178 8.178 0 0 1 2.883-.756 157.69 157.69 0 0 0 3.982-.342Z" fill="#000"/><path d="m104.051 96.986.305 2.038-.857.43c-.472.233-2.042.677-3.494.987l-2.613.554-.086-1.493c-.054-.825-.046-1.846.028-2.274.105-.687.185-.769 1.041-.897.519-.078 1.442-.378 2.023-.65.608-.254 1.602-.542 2.214-.61l1.133-.124.306 2.039ZM111.687 94.266c.078.985.116 2.16.091 2.604-.039.816-.039.817-1.215.97-1.494.177-1.899-.063-2.057-1.267-.218-1.612.065-2.488 1.082-3.243.497-.375 1.161-.706 1.455-.75.541-.081.544-.059.644 1.686ZM116.42 93.395c.896-.019 1.747-.03 1.905-.054.225-.034.305.348.396 1.724.056.988.037 1.94-.077 2.096-.105.224-.926.44-2.639.697l-2.479.371-.141-2.017c-.208-2.771-.196-2.842.684-2.812.416.007 1.477.01 2.351-.005ZM103.582 101.549c.085.103.045.295-.058.38-.327.28-4.784 2.222-5.234 2.29-.316.047-1.01-.891-1.098-1.48-.05-.34 6.114-1.496 6.39-1.19Z" fill="#FEFFBB"/><path d="m111.258 113.856 2.296-.368.088.589c.153 1.02.92 1.831 2.073 2.145.579.168 1.08.44 1.107.621.028.181-.289.993-.721 1.799a54.456 54.456 0 0 0-1.677 3.726l-.905 2.266-.431-.723c-.595-1.046-1.056-1.046-1.751.008l-.606.878-.346-.62c-.321-.6-.44-.629-1.5-.47l-1.127.169-.196-.85c-.177-.715-.287-.838-.887-.84l-.693-.012-.498-3.168c-.261-1.745-.609-3.453-.773-3.775l-.275-.608 2.252-.198c1.25-.118 3.289-.354 4.57-.569Z" fill="#545151"/><path d="M146.343 80.99c.642.899 1.068 2.665.832 3.395-.451 1.295-2.058 1.49-3.511.41-1.375-1.021-1.304-2.398.169-3.638.984-.82 1.989-.877 2.51-.168ZM143.331 91.493c.016 2.568-.71 4.646-2.002 5.557-.75.53-3.118 1.649-3.681 1.733-.136.02-.292-.257-.343-.597-.197-1.314.564-4.23 2.161-8.338l.746-1.941 1.563 1.202 1.537 1.182.019 1.202Z" fill="#9FA05C"/><path d="M185.149 108.317c.15.232.355.827.429 1.325.18 1.201-.36 1.745-2.981 3.018-2.647 1.254-4.724 2.005-7.9 2.805-3.221.807-11.015 2.323-11.245 2.172-.1-.054-.348-.782-.563-1.606l-.382-1.472 1.197-.318c.666-.169 3.044-.757 5.316-1.283 5.387-1.271 9.597-2.55 12.496-3.819 2.856-1.238 3.236-1.318 3.633-.822Z" fill="#fff"/><path d="M198.147 229.031c1.922 1.287 2.052 2.773.414 4.454-2.019 2.063-13.319 10.01-17.141 12.042-2.388 1.284-8.49 3.635-10.633 4.095-1.561.35-1.745.354-1.938-.011-.101-.216-.774-1.32-1.514-2.413-1.109-1.71-1.253-2.059-1.013-2.303.159-.163 1.227-.578 2.33-.906 7.38-2.125 21.022-9.519 26.63-14.39.711-.639 1.439-1.165 1.574-1.186.158-.023.753.258 1.291.618ZM141.429 241.816c3.036-.2 3.529-.135 11.989 1.561 3.019.613 6.566 1.217 7.902 1.364 2.83.271 3.311.407 3.392.951.031.204.681 1.31 1.447 2.423.747 1.139 1.335 2.139 1.255 2.221-.326.442-2.376.912-7.989 1.753l-6.199.929-5.425-.831c-7.266-1.112-8.8-1.507-9.63-2.587-.691-.916-1.832-3.454-2.351-5.23-.573-1.975-.143-2.179 5.609-2.554ZM122.85 241.798c6.09.5 11.143.993 11.253 1.116.111.122.399 1.121.626 2.176.231 1.077.746 2.667 1.148 3.51 1.083 2.455 1.118 2.381-.877 2.911-.956.236-3.647.732-6.014 1.087-6.247.913-8.841.676-12.363-1.135-3.22-1.648-5.86-4.194-6.524-6.318-.393-1.238.389-4.019 1.178-4.137.293-.044 5.508.309 11.573.79Z" fill="#BABABA"/><path d="M168.401 215.863c.692.313 2.189 1.224 3.313 1.959 1.127.757 3.321 2.165 4.869 3.115 3.575 2.174 4.714 3.161 4.86 4.135.18 1.201-.172 1.925-1.45 3.089-2.616 2.384-3.748 1.905-12.154-5.126-3.163-2.653-5.285-4.049-6.548-4.323-.881-.192-.735-.446.8-1.278.722-.409 1.8-1.057 2.387-1.446 1.36-.922 2.231-.96 3.923-.125ZM159.889 219.964c.904.189 2.174.67 2.832 1.058 2.484 1.504 7.966 6.403 9.338 8.328.378.523.81 1.408.982 1.938.591 1.949-.813 3.04-2.971 2.321-1.119-.388-3.974-1.906-8.242-4.393-1.768-1.032-3.901-2.195-4.742-2.578-.864-.38-1.57-.784-1.59-.92-.068-.453 2.366-6.052 2.659-6.096.045-.007.826.131 1.734.342ZM151.916 229.358c2.075.315 9.56 2.737 11.99 3.878 2.206 1.036 3.788 2.211 4.15 3.084.607 1.437-.163 3.22-2.392 5.57l-1.117 1.163-1.662.133c-1.663.133-2.205.053-14.447-2.282-4.223-.803-7.1-.927-10.549-.411l-2.145.299 1.297-1.654c1.966-2.564 7.225-7.151 10.335-9.007 1.457-.89 2.603-1.085 4.54-.773ZM133.761 219.41c.159.138.481.901.735 1.673.628 2.037 2.346 9.191 2.253 9.344-.061.055-1.179-.333-2.505-.875-1.326-.543-3.478-1.216-4.789-1.506-2.219-.501-3.011-.869-3.096-1.435-.065-.431.72-2.887 1.194-3.723 1.046-1.94 5.299-4.314 6.208-3.478ZM128.333 229.326c2.176.369 4.949 1.343 6.856 2.377 1.628.868 3.812 2.37 3.846 2.597.014.09-.654.862-1.473 1.703-1.28 1.303-2.304 2.777-3.209 4.58-.19.423-.303.439-2.393.336-1.902-.086-8.102-.546-15.522-1.148-3.125-.25-3.125-.25-2.687-2.4.824-4.038 2.295-5.601 6.681-7.093 2.849-.982 5.793-1.331 7.901-.952ZM156.892 228.265c.831.316 1.772.754 2.125.956l.635.391-.587-.074c-.913-.095-4.776-1.415-5-1.683-.368-.454 1.259-.212 2.827.41Z" fill="#313E4A"/><path fill-rule="evenodd" clip-rule="evenodd" d="M121.848 57.03c3.723.39 7.242 2.341 9.204 5.128l1.027 1.467-3.581 5.632-3.585 5.61-3.485 2.12c-3.905 2.392-4.808 2.829-5.695 2.753-1.287-.131-4.454-2.806-6.145-5.17-.531-.777-.674-1.266-1.095-4.075-.458-3.058-.463-3.242-.018-4.583 1.389-4.261 4.144-7.106 8.192-8.546.855-.29 3.684-.483 5.181-.337Zm-.824 12.49c-.112-.747.493-2.551.927-2.732 1.015-.454 2.31-.115 3.185.796.734.747.678 1.45-.223 2.512-.94 1.114-1.999 1.272-3.059.505-.415-.309-.79-.808-.83-1.08ZM83.382 75.185c2.761.12 5.258 1.25 6.982 3.215 1.587 1.824 2.325 3.52 2.76 6.42.197 1.313.29 2.55.2 2.726-.151.37-.016.35-7.344.36-4.081-.015-10.22.234-11.664.45-1.397.21-1.587-.133-1.37-2.528.232-2.605 1.501-6.594 2.523-7.928.444-.576 1.241-1.252 1.903-1.606 1.281-.678 4.063-1.188 6.01-1.109Zm-2.65 9.384c-.638-.877-.553-2.002.195-2.855.687-.798.623-.765 1.771-.636 1.081.14 1.935.914 2.078 1.866.234 1.563-1.58 2.993-3.112 2.458-.246-.102-.671-.478-.932-.833Z" fill="#FFE8E8"/><path d="M132.948 67.734c.186 3.7-.463 6.6-1.923 8.695-.893 1.27-1.393 1.32-2.542.266-1.656-1.513-1.666-1.58-.81-3.099 1.492-2.655 4.979-7.995 5.118-7.83.026.018.091.912.157 1.968Z" fill="#FFE8E8"/><path d="M79.113 89.606c9.475-.447 13.868-.202 14.759.822.608.673.869 3.645.455 5.19-.37 1.375-1.557 2.99-2.949 4.008-1.016.755-1.302.844-3.47 1.146-1.987.274-2.631.278-4.017-.047-4.363-.967-7.924-3.352-9.536-6.422-.576-1.072-1.428-3.84-1.27-4.164.12-.273-.472-.23 6.028-.533ZM127.379 77.786c2.272 2.092 3.473 3.487 3.564 4.098.105.703-1.482 3.025-3.102 4.519-2.952 2.758-6.479 4.445-10.665 5.118-2.409.385-2.686.38-3.853-.024-1.681-.605-6.349-3.148-6.228-3.421.221-.52 17.648-11.423 18.456-11.567.203-.03 1.026.54 1.828 1.277Z" fill="#D7DFF4"/><path d="M122.132 92.91c1.858 1.018 3.155 1.982 3.223 2.435.034.226-.273.643-.75.992-.94.65-4.339 2.272-5.015 2.373-.406.061-.377-.059.187-.908.58-.898.633-1.16.53-2.766-.097-1.723.035-2.692.418-2.75.09-.013.73.262 1.407.623ZM107.138 96.824c.516 2.517.593 2.575 3.082 2.572.99-.009 2.023.114 2.343.252.372.175 1.245.16 2.759-.043 3.617-.473.869.263-4.852 1.306-5.608 1.026-5.585 1.022-4.959-.948.205-.633.29-1.757.229-2.628-.17-2.36-.136-2.597.464-2.594.461 0 .526.13.934 2.083ZM103.582 101.549c.085.103.045.295-.058.38-.327.28-4.784 2.222-5.234 2.29-.316.047-1.01-.891-1.098-1.48-.05-.34 6.114-1.496 6.39-1.19Z" fill="#571621"/><path d="M127.257 97.121c.584.816.735 2.438.306 3.73-.924 2.755-4.974 5.563-10.754 7.448-1.91.633-3.632.984-8.275 1.68l-5.861.879-2.713-.567c-1.498-.308-2.893-.701-3.101-.855-.36-.247-.335-.39.082-1.147.779-1.414 2.438-2.798 4.139-3.446.855-.291 4.189-1.115 7.449-1.812 10.458-2.192 14.346-3.47 17.142-5.58 1.16-.868 1.183-.872 1.586-.33Z" fill="#A2060F"/><path d="M180.276 116.552c.643 1.061 3.12 8.055 3.834 10.82.88 3.412.943 4.908.299 6.765-1.121 3.132-3.878 5.491-10.727 9.158-5.334 2.861-6.77 3.887-8.215 5.933-.686.96-1.954 2.493-2.831 3.412-2.114 2.193-2.739 3.097-3.219 4.814-.6 2.151-.199 3.596 2.058 7.427.963 1.662 1.742 3.167 1.701 3.358-.084.36-1.061.761-2.413.964l-.947.142-1.466-2.398c-1.403-2.291-3.097-5.905-3.26-6.992-.119-.793-.535-.8-.577-.006-.085 1.124.846 3.648 2.541 6.961l1.567 3.077-.721.108c-1.127.169-2.999-.176-4.126-.771-1.799-.935-2.692-2.584-3.887-7.176-.993-3.858-1.524-3.246-.879 1.058.4 2.511.502 2.889 1.651 5.172 1.142 2.238 1.228 2.503.937 2.87-.264.388-.406.363-1.648-.077-1.803-.656-3.413-2.013-4.857-4.113-1.088-1.573-1.486-2.533-2.616-6.231l-.153-.557-.213.727c-.327 1.207-.08 3.162.569 4.57.315.717 1.298 2.353 2.188 3.679 1.216 1.81 1.547 2.478 1.364 2.645-.144.114-.919.323-1.686.438-1.307.196-1.52.158-2.127-.353-.963-.736-2.856-3.371-4.499-6.182-1.486-2.533-2.351-4.465-2.872-6.402-.953-3.586.961-5.888 7.572-8.986 4.524-2.114 6.501-3.221 9.445-5.261 4.475-3.056 7.105-5.65 12.788-12.64 1.108-1.37 3.042-3.536 4.296-4.859 2.575-2.656 3.054-3.306 3.256-4.263.278-1.223.101-1.173-1.142.379-.715.918-1.986 2.128-3.13 2.948l-1.911 1.398-.163-1.087c-.092-.612-.587-2.53-1.103-4.282-.519-1.775-.886-3.295-.809-3.399.096-.131 2.638-.697 5.639-1.285 3.022-.592 6.08-1.259 6.81-1.461a26.007 26.007 0 0 1 2.288-.575c.898-.158.999-.103 1.394.533ZM135.206 124.626c3.384 4.126 7.512 11.219 7.852 13.485.156 1.042.105 1.165-1.239 2.965-2.255 3.094-7.592 7.623-13.636 11.586-5.223 3.446-6.691 4.106-12.309 5.527l-3.218.83-.55.939c-.293.507-1.348 2.078-2.289 3.493-3.083 4.492-3.488 5.943-2.393 8.326 1.029 2.255 1.982 3.386 4.154 4.96 3.102 2.244 3.546 2.595 4.132 3.271 1.343 1.582.532 2.63-2.535 3.229-1.723.351-1.977.343-2.635-.045-1.059-.606-3.208-3.109-5.506-6.447-2.122-3.087-3.01-4.853-3.268-6.575-.156-1.042-.564-1.768-.813-1.43-.233.29.48 4.283.94 5.349.22.546 1.359 2.459 2.489 4.305 1.148 1.82 2.193 3.562 2.331 3.866.22.546.201.572-.926.741-1.353.203-2.147-.026-3.299-.942-2.011-1.574-2.952-3.703-3.88-8.821-.387-2.12-.787-3.866-.877-3.853-.09.014-.287.854-.438 1.849-.315 2.201-.03 4.567.878 7.396.344 1.06.58 2.021.503 2.125-.233.29-4.426-2.927-5.26-4.029-.52-.71-.911-1.624-1.299-2.979-.656-2.38-.686-3.811-.105-5.01.558-1.195.405-1.45-.412-.749-1.272 1.048-1.316 1.68-.598 6.158.619 3.822.65 4.026.243 4.086-.676.102-2.018-.855-2.65-1.849-.516-.826-.58-1.094-.609-2.827.005-1.043-.277-3.386-.597-5.215l-.57-3.342.9-1.223.919-1.25 4.779-.716c4.666-.699 4.843-.749 6.51-1.624 3.031-1.613 5.214-3.654 9.871-9.331 5.91-7.163 6.868-8.001 15.149-13.342l3.403-2.201-.207-1.381c-.268-1.79-1.311-5.061-2.397-7.539-.485-1.085-.886-2.068-.91-2.226-.061-.408.628-.581 4.782-1.157l3.836-.552 1.754 2.169ZM178.154 171.599c1.09.509 2.547 1.309 3.237 1.762l1.251.808-1.85 3.497c-2.899 5.414-3.549 7.388-4.037 12.278l-.188 1.974-1.384-1.391c-1.816-1.812-4.007-3.36-6.21-4.373-1.999-.882-2.208-1.198-2.3-3.199-.113-2.6.811-4.429 5.099-9.959.868-1.126 1.659-2.31 1.727-2.621l.125-.552 1.261.414c.701.219 2.175.831 3.269 1.362Z" fill="#FFE91F"/><path fill-rule="evenodd" clip-rule="evenodd" d="M111.215 35.137c.433.584.996 1.264 1.258 1.48.481.437.478.414.204-.796-.169-.67-.394-1.4-.518-1.613-.186-.32-.081-.381.799-.513 1.194-.18 1.648.077 2.392 1.355l.523.872-.074-1.263-.074-1.263 1.13-.146c2.934-.417 4.259-.036 4.455 1.278.136.906.513.803.814-.261.252-.78.355-.864.999-.868.81.017 3.884.692 4.244.939.126.073.023.923-.26 1.961-.285 1.016-.43 1.894-.33 1.949.081.08.702-.545 1.386-1.366.684-.82 1.343-1.498 1.455-1.515.139.002 1.103.437 2.174.971l1.948 1.005-.851 1.24c-.832 1.213-.981 1.606-1.181 2.886-.141.902.385.568 1.829-1.177l1.367-1.641.854.775.873.75-.586 1.315c-.33.721-.577 1.383-.567 1.451.038.25.51.017 1.282-.678.426-.388.913-.67 1.085-.603.741.33 4.402 6.613 5.843 10.08 1.569 3.702 4.612 13.854 4.28 14.251-.08.081-.707.36-1.408.605-1.685.6-3.593 1.859-4.26 2.792-.648.908-.348.91 1.361.005 1.451-.774 5.018-1.424 5.093-.926.119.793-.403 2.539-.981 3.297s-.835.89-2.932 1.505c-2.783.81-3.512 1.175-4.718 2.352-2.509 2.483-3.323 6.589-1.891 9.686.932 2.061.899 2.46-.448 5.464-1.507 3.33-2.135 5.439-2.095 6.938.033.991-.115 1.384-1.132 2.903-1.084 1.691-1.571 2.899-1.648 4.231-.13 2.358-3.878 5.954-9.829 9.463-3.306 1.932-3.859 2.084-5.29 1.303-.625-.324-1.428-.759-1.796-.912-.443-.189-.72-.495-.774-.857-.136-.906-.657-1.616-1.218-1.67-.304-.025-1.515.041-2.694.172-1.179.13-3.145.239-4.341.256l-2.189.004 3.467-.705c10.967-2.176 16.847-4.771 19.829-8.715 1.094-1.461 1.329-2.354 1.065-4.12-.455-3.036-2.11-5.312-4.822-6.643-.595-.282-1.107-.622-1.124-.735-.017-.113.502-.492 1.141-.843 2.851-1.585 5.724-4.1 7.194-6.289 1.224-1.828 1.266-2.622.337-4.359l-.699-1.284 1.169-1.89c.649-1.046 1.387-2.43 1.633-3.093.467-1.344.64-4.497.333-6.697-.418-2.949-.311-3.613.886-5.622.586-1.015 1.826-2.891 2.716-4.183l1.613-2.303 1.543.14c1.706.16 2.26.008 2.161-.648-.078-.521-.466-.649-2.676-.943l-1.762-.222-1.238 1.737a250.7 250.7 0 0 0-2.85 4.203l-1.617 2.442-.936-1.018c-.5-.573-1.795-1.676-2.884-2.486-3.223-2.435-6.682-3.213-11.104-2.574-4.508.676-7.44 2.644-9.853 6.688-1.678 2.8-1.966 5.182-1.197 9.236.761 3.846 1.413 4.814 5.638 8.095 1.096.854 1.746 1.498 1.628 1.632-.096.13-1.251.882-2.538 1.677l-2.384 1.47-1.12-.25c-1.764-.384-3.81-2.046-4.905-3.966-1.032-1.814-1.495-1.977-1.018-.334.619 2.13 1.532 3.453 3.266 4.721l1.631 1.192-1.008.66-1.007.661-2.208-1.198c-1.207-.676-2.912-1.44-3.759-1.706-1.89-.62-2.347-.436-3.432 1.394l-.748 1.317-.532-2.63c-.546-2.72-1.218-4.589-2.278-6.12-.798-1.178-3.108-3.055-4.612-3.71-3.781-1.703-9.498-.94-13.243 1.753l-.834.588-.607-.511c-1.061-.93-.977-1.753.294-3.425 2.02-2.666 4.427-4.138 7.56-4.608 2.502-.375 3.045-.294 3.16.476.088.59.137.605.864.38.704-.221.875-.154 2.017.694.677.524 1.91 1.52 2.754 2.228.82.71 1.481 1.12 1.454.94-.081-.544-1.984-2.783-3.695-4.357-1.308-1.193-1.569-1.548-1.688-2.34-.209-1.243-1.07-2.527-2.337-3.449l-1.057-.745.465-2.432c.238-1.333.403-2.539.338-2.668-.16-.3-1.556 2.688-2.205 4.662l-.473 1.46 1.415.83c2.147 1.254 3.537 2.99 2.265 2.81-2.846-.383-4.19-.274-6.647.557-.614.208-.582.11.433-.806 1.517-1.409 2.19-2.297 2.116-2.795-.034-.227-.429-.862-.9-1.394-1.152-1.38-1.289-2.447-.537-4.042.365-.796.988-1.561 1.763-2.233 2.031-1.671 1.667-2.103-.553-.612-3.14 2.115-4.07 4.987-2.419 7.542.806 1.223.825 1.66.176 1.943-.324.14-.956 1-1.624 2.235-.594 1.108-1.42 2.367-1.836 2.823-.419.433-1.06 1.386-1.441 2.069-.378.705-.777 1.274-.89 1.291-.586.088-.994-6.938-.533-9.092.53-2.465 2.092-5.571 4.437-8.84l2.138-2.962 1.542.14c.845.105 1.883.111 2.29.05l.74-.133-.61-.373c-.326-.182-1.072-.394-1.637-.472l-1.03-.1.438-.622c.698-1.031 4.728-4.437 4.99-4.222.075.035.312.694.563 1.444.656 1.917.995 1.565.777-.811l-.172-1.92 2.191-1.37 2.17-1.368.535.499c.48.438.543.706.646 2.312.106 1.628.155 1.806.43 1.487.355-.4.879-2.749.774-3.45-.041-.273-.263-.68-.478-.879-.59-.56-.54-.683.374-1.353 1.5-1.059 2.065-.981 3.492.542.302.325.308.209.046-.771-.372-1.404-.234-1.563 2.477-2.85 2.364-1.141 2.57-1.15 2.693-.334.061.408.364.895.783 1.226l.681.547-.265-.84c-.298-1.068-.127-1.927.502-2.346.462-.3 6.121-2.214 7.129-2.412.38-.08.691.152 1.297.964ZM91.288 56.12c.972-1.512 1.993-3.009 2.27-3.305.676-.726 1.194-.804.967-.168-.24.708-2.8 5.469-3.742 7.023-.465.741-.76 1.387-.704 1.449.077.057 2.009-1.205 4.279-2.819 5.567-3.915 6.524-4.452 9.294-5.191 2.551-.66 3.721-.697 3.371-.112-.108.202-.686.497-1.239.65-1.834.529-3.95 1.634-6.969 3.638-6.332 4.191-6.987 4.59-8.42 5.176-1.257.536-1.707.603-2.959.56-2.176-.068-4.613-.792-4.704-1.403-.014-.091.511-.123 1.14-.079 1.555.068 3.3-.587 4.627-1.735.57-.503 1.82-2.15 2.79-3.684Zm15.951 2.01c1.106-3.385 4.59-6.594 8.385-7.719 3.024-.893 6.558-.844 9.563.142 1.865.6 5.909 3.747 7.277 5.65 1.597 2.192 1.394 2.686-.319.788-2.919-3.175-6.927-5.308-10.3-5.52-2.049-.133-5.723.417-7.462 1.118-2.783 1.112-4.986 3.18-6.584 6.198-.877 1.684-1.209 1.316-.56-.657Zm-34.192 2.993c.27-.503 1.034-1.405 1.661-1.986 1.773-1.701 1.89-1.534.663 1.036-.775 1.599-.79 2.11-.123 3.03.26.354.43.861.386 1.192-.077.869-1.77 2.952-2.683 3.32-1.09.419-1.047.088.135-1.41 1.082-1.389 1.102-1.415.04-3.27l-.566-1.005.487-.907Z" fill="#FFE91F"/><path fill-rule="evenodd" clip-rule="evenodd" d="M149.361 71.597c-.082.684-.399 1.797-.691 2.466l-.555 1.218 1.639 2.325c1.91 2.748 2.558 4.457 2.539 6.637-.009 1.785-.343 2.785-1.179 3.512-.98.842-4.43 1.197-6.285.664-1.399-.415-3.604-1.752-4.592-2.809-1.719-1.78-1.612-5.525.256-8.284.998-1.493 1.794-2.029 4.523-3.04 1.267-.468 2.536-1.075 2.843-1.33.654-.56 1.494-2.03 1.419-2.528-.027-.181.027-.282.108-.202.078.058.076.66-.025 1.37Zm-7.91 9.963c.177-.35.84-1.006 1.439-1.466 1.831-1.317 3.772-1.283 4.766.12.283.35.635 1.317.829 2.145.423 1.905.086 3.345-.991 4.155-.683.52-.886.55-2.073.473-3.051-.214-5.194-3.136-3.97-5.427Z" fill="#FFE91F"/><path d="M100.244 86.346c3.303 1.59 8.782 4.776 8.862 5.157.095.635-.927 1.043-3.651 1.474-1.442.216-3.184.593-3.843.807-2.418.78-4.591 1.198-4.813.953-.114-.145-.465-1.412-.814-2.819l-.593-2.575.832-1.213c.453-.67.968-1.535 1.12-1.905.175-.373.472-.696.675-.726.18-.027 1.183.355 2.225.847Z" fill="#FFE91F"/><path d="M133.123 157.017c.117.168-.018 1.577-.248 3.117-.686 4.342-.163 7.83 1.487 9.922.853 1.077 1.743 1.476 3.346 1.56 1.187.077 1.287.131 1.531.836.751 2.088 4.489 21.493 4.704 24.471.175 2.244.04 2.727-.766 3.033-.348.145-3.48.777-7.002 1.42l-6.39 1.19-1.239-1.042c-1.522-1.231-3.229-3.546-4.362-5.878-.465-.949-1.631-3.809-2.585-6.329-.98-2.54-2.679-6.501-3.79-8.836-3.407-7.202-3.608-7.774-4.552-12.844-.81-4.325-.844-4.552-.522-5.48.587-1.617.782-1.854 1.934-2.166 1.02-.269 10.778-2.055 15.975-2.904 1.864-.325 2.348-.328 2.479-.07ZM142.777 202.518c.157.277.753 2.875 1.327 5.776 2.813 14.008 3.686 18.139 3.887 18.711.198.55.143.65-.909 1.318-.609.392-2.232 1.562-3.594 2.623-1.366 1.038-2.639 1.924-2.842 1.954-.991.149-1.875-1.595-3.047-6.028-1.24-4.586-2.223-9.302-3.491-16.686l-1.144-6.707 4.779-.716c4.734-.71 4.779-.717 5.034-.245Z" fill="#E43D19"/><path d="M135.847 165.201c.714 1.376 1.56 2.87 1.879 3.309.763 1.09.741 1.255-.138 1.387-1.014.152-2.209-.595-2.688-1.635-.387-.892-1.181-5.729-.971-6.016.192-.26.459.14 1.918 2.955ZM110.923 165.138c.813 3.885 1.602 6.847 2.319 8.709.494 1.292.821 2.401.741 2.483-.307.254-2.141-.907-3.003-1.889-2.087-2.397-2.863-4.343-2.376-6.014.342-1.255 1.546-3.219 1.997-3.287.18-.027.319-.024.322-.002Z" fill="#E43D19"/><path d="M139.606 252.72c1.254-.095 2.895-.063 3.647.033l1.342.192.357 2.379.353 2.355-.721.109c-4.602.666-17.455 2.106-18.879 2.134-2.212.007-2.823-.225-3.334-1.33-.505-1.059-.522-2.863-.051-3.258.414-.317 13.955-2.393 17.286-2.614ZM185.993 245.282c.473.23 1.09 1.735 1.061 2.62.001.463-.102 1.312-.227 1.864l-.215 1.028-6.464.853c-3.549.462-9.356 1.24-12.882 1.699l-6.397.843.688 3.51.71 3.507-3.041.316c-1.679.182-4.716.522-6.781.739-2.061.239-3.994.413-4.275.386l-.562-.055-.561-4.363c-.341-2.427-.553-4.457-.495-4.535.057-.078 1.019.033 2.155.233 3.506.633 6.48.488 12.659-.577 8.2-1.414 15.086-3.604 21.04-6.628l.186-.094c2.963-1.513 3.011-1.538 3.401-1.346Z" fill="#9385B9"/><path d="M164.846 154.463c1.122 1.8 2.485 5.51 2.866 7.746.516 2.98.348 3.399-4.946 11.905-5.051 8.122-6.413 10.573-7.105 12.877-.572 1.869-.406 2.979 1.353 9.641 2.624 9.821 3.758 13.079 5.488 15.854.757 1.206.904 1.578.737 1.997-.193.561-1.924 1.77-4.218 2.925-.793.397-1.733 1.047-2.068 1.421-.336.375-1.232 2.084-2.035 3.803-1.63 3.579-2.086 4.227-3.262 4.681-1.283.516-1.813.364-2.091-.567-.624-2.014-3.517-16.242-4.336-21.4l-.605-3.73.526-1.098.527-1.098-.835-6.036c-.451-3.314-1.224-8.016-1.723-10.419-.521-2.4-1.168-5.639-1.492-7.188l-.56-2.811.846.568c.46.301 1.355 1.348 1.981 2.297 1.281 1.939 2.593 3.155 3.824 3.526 2.268.679 11.057-1.888 12.32-3.607.364-.494.356-.701.019-2.18-.299-1.228-.325-1.711-.134-1.971.131-.205 1.075-.671 2.078-1.053 1.003-.382 2.102-.894 2.435-1.129.539-.405.57-.502.334-1.463-.156-.579-1.003-2.235-1.891-3.7-1.342-2.185-1.709-2.94-1.973-4.244-.358-1.776-.231-2.467.794-4.08.6-.923 2.007-2.454 2.322-2.502.09-.013.458.441.824 1.035Z" fill="#F2E8E2"/><path d="M159.546 263.351c.207.154 2.555 11.359 3.136 14.932.031.203.271.422.552.45.781.137 2.204 1.175 2.895 2.09.954 1.293 1.263 3.818.686 5.502-.823 2.509-2.622 3.729-6.206 4.266l-2.254.338-.976-.665c-1.406-.924-2.778-2.849-2.974-4.163-.184-1.223.105-2.216 1.253-4.403 1.163-2.236 1.191-2.356.828-4.78-.337-2.242-2.177-10.675-2.669-12.269l-.268-.863 2.858-.312c1.588-.169 3.009-.22 3.139-.123Z" fill="url('#paint0_linear_19_388')"/><path d="M210.069 144.952c-2.879 8.005-8.222 19.414-10.856 23.213-.591.83-1.853 2.247-2.827 3.134-.97.91-1.9 1.929-2.078 2.28-.342.793-.521 3.135-.307 4.563l.159 1.064-1.19.827c-2.299 1.572-3.788 4.25-3.886 6.975-.015.674.574 5.681 1.318 11.105 1.079 7.968 1.532 10.68 2.341 14.079.732 3.04.951 4.35.819 4.695-.158.486-.316.51-4.059.909-3.649.408-4.007.485-5.513 1.197-2.41 1.148-4.335 1.53-5.644 1.1-.578-.168-2.851-1.495-5.074-2.945-3.955-2.557-4.528-2.842-7.086-3.454-1.266-.297-1.292-.316-2.466-2.155l-1.201-1.859 1.356-2.334c.751-1.293 1.593-2.902 1.885-3.571.611-1.458 1.203-4.581 1.054-5.578-.055-.362-.019-.738.084-.823.08-.081 1.2.168 2.435.562 3.558 1.134 3.839 1.161 4.804.53 3.529-2.289 12.749-13.815 14.152-17.685l.423-1.175-1.324-1.909c-3.021-4.319-6.422-6.866-11.895-8.941l-1.662-.631-.893-5.958c-.489-3.262-.87-6.262-.856-6.635l.033-.699 1.443.247c2.644.414 11.201-1.077 13.091-2.31.273-.18.97-1.373 1.514-2.659.571-1.266 1.127-2.323 1.24-2.34.383-.057.761.465 1.225 1.716.244.705.656 1.454.925 1.714.481.438.503.434 1.776-.15.713-.315 3.175-1.727 5.498-3.14 5.934-3.622 8.427-4.83 11.102-5.277l1.034-.178-.894 2.496Z" fill="#757575"/><path d="M186.458 179.179c.129.398.217.987.197 1.314-.084.823-1.77 3.415-5.192 7.958-2.729 3.629-2.969 3.873-3.121 3.317-.298-1.067.171-4.704.932-7.158.683-2.21 2.693-6.333 4-8.219l.514-.726 1.2 1.395c.67.78 1.345 1.744 1.47 2.119ZM168.41 187.628c2.217.641 7.496 5.107 7.706 6.512.085.566-.63 1.484-2.072 2.626-1.067.878-.858.893-4.767-.582-1.419-.552-3.952-1.307-5.648-1.702-3.462-.801-5.301-1.382-5.61-1.753-.504-.596 3.173-3.741 5.702-4.861 1.427-.631 3.006-.706 4.689-.24Z" fill="#413A3A"/><path d="M155.354 70.675c5.85 2.436 7.52 3.274 10.54 5.276 3.966 2.626 5.711 4.124 6.502 5.557.35.643 2.165 4.447 4.033 8.452 1.864 3.982 4.292 9.108 5.395 11.397 1.104 2.29 2.016 4.377 2.012 4.655-.002.603-.827 1.097-3.666 2.148-3.935 1.423-12.757 3.765-16.319 4.299-1.69.253-1.993.229-2.157-.094-.439-.93-4.362-14.494-5.776-19.933-.75-2.852-.011-4.376 3.339-6.94 2.151-1.642 1.958-2.007-.259-.493-2.072 1.399-3.453 2.95-3.89 4.335-.324 1.068-.306 1.343.213 3.882.693 3.394 2.7 10.944 4.878 18.4 4.583 15.665 4.759 16.38 3.994 18.347-.636 1.601-2.984 4.848-4.964 6.859-1.923 1.933-6.024 5.327-9.372 7.751-2.642 1.901-3.197 2.193-3.275 1.672-.021-.136-.378-1.75-.766-3.568-1.212-5.632-3.1-10.074-6.239-14.722-2.103-3.113-3.678-5.007-7.952-9.532-1.946-2.071-3.679-3.942-3.855-4.193-.312-.393-.159-.602 1.8-2.447 3.07-2.892 3.979-4.21 4.923-7.293.938-2.966 1.159-3.184 4.623-4.676 4.306-1.873 5.592-3.594 5.662-7.589l.028-1.81 1.707-.14c2.939-.232 4.345-.536 5.115-1.091 1.933-1.402 2.509-3.248 2.017-6.533-.356-2.378-1.136-4.045-2.806-6.11l-.97-1.245.421-1.5c.249-.8.496-2.228.589-3.145.081-1.147.213-1.653.426-1.615.168.044 2.008.787 4.049 1.64ZM180.024 85.808c2.632 1.412 6.717 3.602 9.044 4.829 2.35 1.222 4.61 2.459 5.021 2.745l.768.51-2.566.408-2.547.381-2.31 1.968c-2.534 2.163-3.538 2.846-4.349 2.968-.519.077-.646-.158-2.318-3.776-4.563-9.993-5.74-12.62-5.65-12.633.068-.01 2.272 1.165 4.907 2.6Z" fill="#252525"/><path d="M191.426 101.447c4.986 6.201 8.929 12.211 13.816 21.137 3.36 6.12 4.117 7.327 6.651 10.699 2.214 2.934 4.104 5.546 4.131 5.728.054.362-1.212.83-4.735 1.775-6.47 1.734-7.01 1.977-13.55 6.014-2.426 1.499-4.615 2.73-4.87 2.722-.345.005-.654-.365-1.214-1.486-.909-1.763-1.419-2.242-2.253-2.117-.699.104-1.641 1.357-2.569 3.465-1.157 2.582-.859 2.422-6.918 3.515l-5.344.94-1.567-.46c-.866-.241-2.688-.709-4.077-1.056-1.385-.326-2.556-.752-2.628-.927-.072-.174.155-.811.483-1.392.779-1.414 2.238-2.443 7.436-5.284 2.238-1.215 4.844-2.741 5.81-3.372 4.477-3.033 6.607-6.665 6.304-10.835-.134-1.971-.71-3.97-2.848-10.088-1.252-3.588-1.623-4.829-1.5-5.241.126-.39.597-.784 1.628-1.286 1.949-.987 2.924-1.712 3.26-2.388.588-1.154-.239-3.902-2.447-8.18l-.949-1.873 1.328-.824a22.602 22.602 0 0 0 2.431-1.777c.592-.506 1.127-.934 1.195-.944.068-.01 1.411 1.572 2.996 3.535ZM126.601 115.656c1.074.858 5.059 4.846 5.104 5.141.013.091-1.822.458-4.098.799l-4.125.619-1.522-2.158c-.844-1.17-1.529-2.203-1.539-2.271-.041-.272 4.1-2.629 4.886-2.77.199-.053.775.254 1.294.64Z" fill="#252525"/><path d="M169.626 184.584c.291.11.601.293.678.406.361.533.563.192.544-.91-.008-.763-.239-1.146-.636-1.042-.295.068-1.05.869-1.098 1.168-.009.109.214.288.512.378Z" fill="#9B3636"/><path d="M169.121 182.329c1.572-.376 1.948-.151 2.837 1.683.553 1.151.671 1.231 1.221.882.265-.166.228-.289-.706-2.248-.87-1.805-1.031-2.055-1.378-2.07-.441-.021-1.379.658-1.884 1.355l-.332.459.242-.061Z" fill="#9B3636"/><path d="M172.527 181.008c.367.557.721 1.089.8 1.158.409.481 1.842.309 2.398-.284.172-.194.041-.279-.768-.522-.928-.302-1.007-.371-1.708-1.454-.894-1.388-1.169-1.605-1.873-1.527-.589.069-2.544 1.045-2.814 1.411-.228.312.76.363 1.475.064.938-.388 1.698-.025 2.49 1.154Z" fill="#9B3636"/><path d="M171.737 177.802c1.753.211 2.156.52 3.045 2.323.552 1.129.679 1.235 1.303 1.129.3-.049.265-.163-.666-2.083-.87-1.773-1.035-2.032-1.417-2.159-.484-.163-1.554.086-2.146.493l-.389.268.27.029Z" fill="#9B3636"/><path d="M175.561 177.84c.376.581.741 1.135.824 1.217.427.531 2.017.864 2.66.56.199-.103.058-.216-.822-.684-1.008-.555-1.091-.638-1.811-1.761-.916-1.437-1.209-1.707-1.989-1.875-.654-.138-2.859.019-3.175.232-.267.18.82.549 1.624.54 1.054-.01 1.874.54 2.689 1.771Z" fill="#9B3636"/></g><defs><linearGradient id="paint0_linear_19_388" x1="154.25" y1="271.394" x2="162.524" y2="269.695" gradientUnits="userSpaceOnUse"><stop stop-color="#C0B9BD"/><stop offset="1" stop-color="#B79BAC" stop-opacity="0"/></linearGradient><clipPath id="clip0_19_388"><path fill="#fff" transform="rotate(-8.524 225.768 -404.028)" d="M0 0h137v275H0z"/></clipPath></defs></svg>