<svg width="317" height="301" viewBox="0 0 317 301" fill="none" xmlns="http://www.w3.org/2000/svg">
<g clip-path="url(#clip0_3_238)">
<path fill-rule="evenodd" clip-rule="evenodd" d="M75.5 79.5C81.5 78.5 96 77.1 106 79.5C118.5 82.5 129 87.5 153.5 124C157.5 125.5 159 126.5 160.5 127.5C161.479 128.152 175.651 133.486 185.663 137.255C190.998 139.263 195.152 140.826 195.5 141C195.574 141.037 195.819 141.125 196.206 141.265C201.072 143.024 228.41 152.901 221 170.5C214.6 185.7 195 200.833 186 206.5C188.833 216.833 194.4 241.8 194 259C186 253.5 174 255.5 173 256C172.884 256.058 172.654 256.17 172.33 256.327L172.314 256.335L172.309 256.337C169.818 257.546 161.967 261.356 158 264C153.983 266.678 150.763 266.169 147.628 265.673C147.251 265.613 146.876 265.554 146.5 265.5C145.216 265.317 143.528 264.46 141.584 263.473C138.23 261.772 134.115 259.683 130 260C124.8 260.4 117.5 263.833 114.5 265.5L106 271C103.333 272 97.9 273 97.5 269C97.1 265 94.6666 254.333 93.5 249.5L90.5 238.5C86.5 235.667 77.9 229.3 75.5 226.5C73.1 223.7 70.1666 219.667 69 218C66.3333 214.667 60.7 207.7 59.5 206.5C59.4574 206.457 59.4092 206.41 59.3558 206.357L59.3452 206.346L59.3436 206.345C57.4907 204.508 49.5457 196.634 51 185C52.2 175.4 61.4999 163.667 65.9999 159C62.6666 150 55.8999 130.4 55.4999 124C55.356 121.698 55.1293 119.354 54.9032 117.016C54.3436 111.232 53.7877 105.485 54.4999 100.5C55.4999 93.5 60.5 83.4999 75.5 79.5ZM114.5 97.5C102.1 80.7 83.3333 81.1667 75.5 83.5C66.5 86.5 63.9999 90 59.5 96.5C55.9 101.7 58 118.333 59.5 126C61.9999 135.333 69.0999 155.8 77.4999 163C87.9999 172 103 170 117 167C128.2 164.6 130.333 146.667 130 138C130 131.5 126.9 114.3 114.5 97.5ZM170 139.5C172.667 140.833 178.2 145.2 179 152C180 160.5 175 188.5 170 199.5C163.6 189.9 159.333 171.167 158 163C157.167 157.333 156 145.5 158 143.5C160.5 141 162.5 139.5 170 139.5ZM75.5 189C79.5 185.4 85.8333 187.5 88.4999 189C93.2999 192.2 95.1666 200.667 95.4999 204.5C96.1666 214.167 96.7 234.3 93.5 237.5C85.5 230.5 70.4999 202.5 69.9999 199.5C69.4999 196.5 70.4999 193.5 75.5 189Z" fill="#2D2C2B"/>
<path d="M170 139.5C172.667 140.833 178.2 145.2 179 152C180 160.5 175 188.5 170 199.5C163.6 189.9 159.333 171.167 158 163C157.167 157.333 156 145.5 158 143.5C160.5 141 162.5 139.5 170 139.5Z" fill="#212121"/>
<path d="M88.4999 189C85.8333 187.5 79.5 185.4 75.5 189C70.4999 193.5 69.4999 196.5 69.9999 199.5C70.4999 202.5 85.5 230.5 93.5 237.5C96.7 234.3 96.1666 214.167 95.4999 204.5C95.1666 200.667 93.2999 192.2 88.4999 189Z" fill="#212121"/>
<path d="M75.5 83.5C83.3333 81.1667 102.1 80.7 114.5 97.5C126.9 114.3 130 131.5 130 138C130.333 146.667 128.2 164.6 117 167C103 170 87.9999 172 77.4999 163C69.0999 155.8 61.9999 135.333 59.5 126C58 118.333 55.9 101.7 59.5 96.5C63.9999 90 66.5 86.5 75.5 83.5Z" fill="#212121"/>
<path d="M75.5 79.5L75.4589 79.2534L75.4471 79.2553L75.4355 79.2584L75.5 79.5ZM106 79.5L105.942 79.7431L106 79.5ZM153.5 124L153.292 124.139L153.337 124.206L153.412 124.234L153.5 124ZM160.5 127.5L160.639 127.292L160.5 127.5ZM195.5 141L195.388 141.224L195.5 141ZM221 170.5L220.77 170.403L221 170.5ZM186 206.5L185.867 206.288L185.71 206.387L185.759 206.566L186 206.5ZM194 259L193.858 259.206L194.239 259.468L194.25 259.006L194 259ZM173 256L172.888 255.776H172.888L173 256ZM158 264L157.861 263.792L158 264ZM146.5 265.5L146.465 265.747L146.5 265.5ZM130 260L129.981 259.751L130 260ZM114.5 265.5L114.379 265.281L114.371 265.286L114.364 265.29L114.5 265.5ZM106 271L106.088 271.234L106.113 271.225L106.136 271.21L106 271ZM93.5 249.5L93.7431 249.441L93.7411 249.434L93.5 249.5ZM90.5 238.5L90.7411 238.434L90.7176 238.348L90.6445 238.296L90.5 238.5ZM69 218L69.2048 217.857L69.2002 217.85L69.1952 217.844L69 218ZM59.5 206.5L59.3232 206.677H59.3232L59.5 206.5ZM51 185L51.248 185.031L51 185ZM65.9999 159L66.1799 159.174L66.2889 159.06L66.2344 158.913L65.9999 159ZM55.4999 124L55.2504 124.016L55.4999 124ZM54.4999 100.5L54.2525 100.465L54.4999 100.5ZM170 139.5L170.112 139.276L170.059 139.25H170V139.5ZM179 152L178.752 152.029L179 152ZM170 199.5L169.792 199.639L170.041 200.013L170.228 199.603L170 199.5ZM158 163L157.753 163.036L157.753 163.04L158 163ZM88.4999 189L88.6386 188.792L88.6307 188.787L88.6225 188.782L88.4999 189ZM75.5 189L75.6672 189.186L75.5 189ZM93.5 237.5L93.3353 237.688L93.5113 237.842L93.6767 237.677L93.5 237.5ZM95.4999 204.5L95.7494 204.483L95.749 204.478L95.4999 204.5ZM75.5 83.5L75.4285 83.2603L75.4209 83.2628L75.5 83.5ZM130 138H129.75L129.75 138.01L130 138ZM117 167L117.052 167.244L117 167ZM77.4999 163L77.3372 163.19L77.4999 163ZM59.5 126L59.2546 126.048L59.2562 126.056L59.2585 126.065L59.5 126ZM59.5 96.5L59.7055 96.6423L59.5 96.5ZM185.663 137.255L185.751 137.021L185.663 137.255ZM196.206 141.265L196.291 141.03L196.206 141.265ZM147.628 265.673L147.589 265.92L147.628 265.673ZM141.584 263.473L141.47 263.696L141.584 263.473ZM59.3436 206.345L59.1676 206.522L59.1684 206.523L59.3436 206.345ZM54.9032 117.016L54.6543 117.04L54.9032 117.016ZM59.3452 206.346L59.5212 206.169L59.5204 206.168L59.3452 206.346ZM172.314 256.335L172.423 256.559H172.423L172.314 256.335ZM172.33 256.327L172.221 256.102L172.33 256.327ZM59.3558 206.357L59.5319 206.179L59.5318 206.179L59.3558 206.357ZM75.5411 79.7466C81.5339 78.7478 95.9925 77.3553 105.942 79.7431L106.058 79.2569C96.0074 76.8447 81.466 78.2522 75.4589 79.2534L75.5411 79.7466ZM105.942 79.7431C112.165 81.2367 117.876 83.2227 125.088 89.3776C132.311 95.5426 141.046 105.895 153.292 124.139L153.708 123.861C141.454 105.605 132.689 95.2073 125.412 88.9973C118.124 82.7772 112.335 80.7632 106.058 79.2569L105.942 79.7431ZM153.412 124.234C157.39 125.726 158.873 126.716 160.361 127.708L160.639 127.292C159.127 126.284 157.61 125.274 153.588 123.766L153.412 124.234ZM220.77 170.403C217.59 177.954 211.12 185.509 204.304 191.893C197.492 198.272 190.354 203.463 185.867 206.288L186.133 206.712C190.646 203.87 197.808 198.661 204.646 192.257C211.479 185.858 218.01 178.246 221.23 170.597L220.77 170.403ZM185.759 206.566C188.591 216.896 194.149 241.833 193.75 258.994L194.25 259.006C194.651 241.767 189.075 216.771 186.241 206.434L185.759 206.566ZM194.142 258.794C190.085 256.005 185.03 255.126 180.883 255C178.806 254.937 176.949 255.063 175.547 255.236C174.846 255.323 174.257 255.422 173.81 255.515C173.374 255.606 173.046 255.697 172.888 255.776L173.112 256.224C173.204 256.178 173.47 256.097 173.912 256.004C174.344 255.914 174.919 255.818 175.609 255.732C176.988 255.562 178.819 255.438 180.867 255.5C184.97 255.624 189.915 256.495 193.858 259.206L194.142 258.794ZM129.981 259.751C127.343 259.954 124.191 260.923 121.334 262.042C118.473 263.163 115.888 264.443 114.379 265.281L114.621 265.719C116.112 264.89 118.677 263.62 121.516 262.508C124.359 261.394 127.457 260.446 130.019 260.249L129.981 259.751ZM114.364 265.29L105.864 270.79L106.136 271.21L114.636 265.71L114.364 265.29ZM105.912 270.766C104.596 271.26 102.609 271.747 100.918 271.626C100.073 271.565 99.3262 271.354 98.7713 270.94C98.2252 270.533 97.8424 269.912 97.7487 268.975L97.2512 269.025C97.3575 270.088 97.8039 270.842 98.4723 271.341C99.132 271.833 99.9848 272.06 100.882 272.124C102.674 272.253 104.737 271.74 106.088 271.234L105.912 270.766ZM97.7487 268.975C97.3466 264.954 94.908 254.268 93.743 249.441L93.2569 249.559C94.4252 254.399 96.8533 265.046 97.2512 269.025L97.7487 268.975ZM93.7411 249.434L90.7411 238.434L90.2588 238.566L93.2588 249.566L93.7411 249.434ZM90.6445 238.296C88.6468 236.881 85.4999 234.583 82.5535 232.29C79.5992 229.991 76.8704 227.715 75.6898 226.337L75.3101 226.663C76.5295 228.085 79.3007 230.392 82.2464 232.685C85.2 234.983 88.3531 237.286 90.3554 238.704L90.6445 238.296ZM75.6898 226.337C73.2978 223.547 70.3699 219.521 69.2048 217.857L68.7951 218.143C69.9633 219.812 72.9021 223.853 75.3101 226.663L75.6898 226.337ZM69.1952 217.844C67.8614 216.177 65.7858 213.601 63.8933 211.292C62.0062 208.989 60.2878 206.934 59.6767 206.323L59.3232 206.677C59.9121 207.266 61.6104 209.295 63.5066 211.608C65.3975 213.916 67.4718 216.49 68.8047 218.156L69.1952 217.844ZM51.248 185.031C51.841 180.287 54.4413 174.992 57.4726 170.285C60.5005 165.584 63.9401 161.496 66.1799 159.174L65.82 158.826C63.5598 161.17 60.0994 165.283 57.0523 170.015C54.0086 174.741 51.3589 180.113 50.7519 184.969L51.248 185.031ZM66.2344 158.913C64.5688 154.416 62.0451 147.27 59.8883 140.45C58.8099 137.039 57.8238 133.713 57.0826 130.841C56.3402 127.964 55.8478 125.559 55.7495 123.984L55.2504 124.016C55.352 125.641 55.8555 128.086 56.5985 130.966C57.3427 133.85 58.3317 137.186 59.4116 140.6C61.5714 147.43 64.0978 154.584 65.7655 159.087L66.2344 158.913ZM54.7474 100.535C55.7349 93.6232 60.6718 83.7128 75.5644 79.7415L75.4355 79.2584C60.3281 83.287 55.265 93.3768 54.2525 100.465L54.7474 100.535ZM169.888 139.724C172.516 141.038 177.965 145.347 178.752 152.029L179.248 151.971C178.434 145.053 172.817 140.629 170.112 139.276L169.888 139.724ZM178.752 152.029C178.998 154.125 178.876 157.446 178.47 161.436C178.065 165.42 177.378 170.053 176.504 174.767C174.755 184.201 172.259 193.926 169.772 199.397L170.228 199.603C172.741 194.074 175.245 184.299 176.996 174.858C177.872 170.134 178.56 165.487 178.967 161.486C179.374 157.492 179.502 154.125 179.248 151.971L178.752 152.029ZM170.208 199.361C167.03 194.594 164.371 187.54 162.34 180.642C160.31 173.749 158.912 167.034 158.247 162.96L157.753 163.04C158.421 167.133 159.824 173.868 161.86 180.783C163.895 187.693 166.57 194.806 169.792 199.639L170.208 199.361ZM158.247 162.964C157.831 160.136 157.333 155.771 157.187 151.866C157.115 149.912 157.131 148.082 157.288 146.62C157.366 145.889 157.479 145.257 157.631 144.752C157.784 144.241 157.97 143.884 158.177 143.677L157.823 143.323C157.53 143.616 157.314 144.067 157.152 144.608C156.988 145.154 156.871 145.819 156.79 146.567C156.63 148.064 156.615 149.921 156.688 151.884C156.834 155.813 157.335 160.197 157.753 163.036L158.247 162.964ZM158.177 143.677C159.42 142.433 160.515 141.463 162.216 140.795C163.924 140.124 166.263 139.75 170 139.75V139.25C166.237 139.25 163.826 139.626 162.034 140.33C160.234 141.037 159.08 142.067 157.823 143.323L158.177 143.677ZM88.6225 188.782C87.2654 188.019 84.9831 187.106 82.5269 186.839C80.0703 186.572 77.4049 186.949 75.3327 188.814L75.6672 189.186C77.595 187.451 80.0963 187.078 82.473 187.336C84.8501 187.594 87.0678 188.481 88.3774 189.218L88.6225 188.782ZM75.3327 188.814C72.8209 191.075 71.2946 192.975 70.4622 194.704C69.6256 196.441 69.4955 197.994 69.7533 199.541L70.2465 199.459C70.0044 198.006 70.1242 196.559 70.9127 194.921C71.7053 193.275 73.179 191.425 75.6672 189.186L75.3327 188.814ZM69.7533 199.541C69.822 199.953 70.126 200.749 70.5967 201.809C71.0727 202.88 71.7329 204.252 72.5348 205.832C74.1388 208.993 76.313 212.997 78.7215 217.126C81.1299 221.255 83.7741 225.511 86.3181 229.174C88.8586 232.832 91.3107 235.917 93.3353 237.688L93.6646 237.312C91.6892 235.583 89.2663 232.543 86.7287 228.889C84.1946 225.239 81.5576 220.995 79.1534 216.874C76.7494 212.753 74.5799 208.757 72.9807 205.606C72.181 204.03 71.5249 202.667 71.0536 201.606C70.577 200.532 70.3028 199.797 70.2465 199.459L69.7533 199.541ZM93.6767 237.677C94.1183 237.235 94.475 236.526 94.7693 235.638C95.0656 234.745 95.3072 233.643 95.5032 232.392C95.8952 229.888 96.1081 226.757 96.1999 223.432C96.3835 216.78 96.083 209.321 95.7493 204.483L95.2505 204.517C95.5835 209.345 95.8831 216.787 95.7 223.418C95.6085 226.734 95.3964 229.841 95.0092 232.314C94.8156 233.551 94.5791 234.623 94.2947 235.481C94.0083 236.345 93.6816 236.965 93.3232 237.323L93.6767 237.677ZM95.749 204.478C95.5807 202.543 95.0265 199.445 93.9094 196.426C92.7949 193.413 91.1047 190.436 88.6386 188.792L88.3613 189.208C90.6952 190.764 92.3383 193.62 93.4405 196.599C94.54 199.571 95.0859 202.624 95.2509 204.522L95.749 204.478ZM75.5713 83.7396C83.3422 81.4249 101.982 80.9615 114.299 97.6485L114.701 97.3515C102.218 80.4385 83.3244 80.9085 75.4286 83.2604L75.5713 83.7396ZM114.299 97.6485C126.666 114.404 129.75 131.551 129.75 138H130.25C130.25 131.449 127.134 114.196 114.701 97.3515L114.299 97.6485ZM129.75 138.01C129.916 142.323 129.467 148.942 127.587 154.773C125.703 160.616 122.412 165.585 116.948 166.756L117.052 167.244C122.788 166.015 126.163 160.817 128.063 154.927C129.966 149.025 130.417 142.344 130.25 137.99L129.75 138.01ZM116.948 166.756C109.951 168.255 102.726 169.499 95.9466 169.25C89.171 169.002 82.8569 167.262 77.6626 162.81L77.3372 163.19C82.643 167.738 89.0788 169.498 95.9283 169.75C102.774 170.001 110.049 168.745 117.052 167.244L116.948 166.756ZM77.6626 162.81C73.5095 159.25 69.6531 152.381 66.5165 145.2C63.3848 138.03 60.9887 130.592 59.7414 125.935L59.2585 126.065C60.5112 130.741 62.9151 138.204 66.0583 145.4C69.1967 152.585 73.0903 159.55 77.3372 163.19L77.6626 162.81ZM59.7453 125.952C58.997 122.128 58.099 116.065 57.8372 110.314C57.7063 107.438 57.7348 104.646 58.0185 102.254C58.3032 99.8547 58.8413 97.8906 59.7055 96.6423L59.2944 96.3577C58.3586 97.7094 57.8092 99.7745 57.522 102.196C57.2339 104.625 57.2061 107.446 57.3377 110.336C57.6009 116.118 58.5029 122.206 59.2546 126.048L59.7453 125.952ZM59.7055 96.6423C61.9587 93.3876 63.6924 90.9133 65.9789 88.8741C68.2593 86.8401 71.1016 85.2297 75.579 83.7372L75.4209 83.2628C70.8983 84.7703 67.9906 86.4099 65.646 88.5009C63.3075 90.5867 61.5412 93.1124 59.2944 96.3577L59.7055 96.6423ZM160.361 127.708C160.507 127.805 160.86 127.969 161.353 128.182C161.856 128.398 162.531 128.676 163.344 129.002C164.968 129.653 167.146 130.499 169.604 131.442C174.522 133.329 180.569 135.605 185.575 137.489L185.751 137.021C180.745 135.137 174.7 132.861 169.783 130.975C167.325 130.033 165.151 129.187 163.53 128.537C162.719 128.212 162.048 127.937 161.55 127.722C161.042 127.503 160.738 127.358 160.639 127.292L160.361 127.708ZM185.575 137.489C188.243 138.493 190.615 139.386 192.363 140.049C193.238 140.381 193.955 140.655 194.476 140.857C195.005 141.062 195.315 141.187 195.388 141.224L195.612 140.776C195.511 140.726 195.171 140.59 194.657 140.391C194.134 140.188 193.415 139.913 192.541 139.581C190.791 138.918 188.419 138.025 185.751 137.021L185.575 137.489ZM195.388 141.224C195.44 141.249 195.534 141.286 195.648 141.328C195.768 141.373 195.928 141.431 196.121 141.5L196.291 141.03C196.097 140.96 195.94 140.903 195.823 140.86C195.699 140.814 195.634 140.788 195.612 140.776L195.388 141.224ZM196.121 141.5C198.555 142.38 206.573 145.278 213.057 150.142C216.298 152.574 219.137 155.484 220.71 158.86C222.278 162.227 222.594 166.07 220.77 170.403L221.23 170.597C223.111 166.13 222.789 162.14 221.163 158.649C219.542 155.169 216.632 152.2 213.357 149.742C206.807 144.829 198.724 141.909 196.291 141.03L196.121 141.5ZM172.2 256.112C169.715 257.318 161.845 261.136 157.861 263.792L158.139 264.208C162.088 261.575 169.921 257.774 172.418 256.562L172.2 256.112ZM157.861 263.792C153.929 266.414 150.793 265.92 147.667 265.426L147.589 265.92C150.732 266.417 154.037 266.942 158.139 264.208L157.861 263.792ZM147.667 265.426C147.291 265.366 146.913 265.306 146.535 265.253L146.465 265.747C146.838 265.801 147.212 265.86 147.589 265.92L147.667 265.426ZM146.535 265.253C145.927 265.166 145.209 264.916 144.389 264.559C143.572 264.202 142.67 263.745 141.697 263.251L141.47 263.696C142.441 264.189 143.356 264.653 144.189 265.017C145.021 265.38 145.789 265.651 146.465 265.747L146.535 265.253ZM141.697 263.251C138.358 261.556 134.178 259.428 129.981 259.751L130.019 260.249C134.052 259.939 138.102 261.987 141.47 263.696L141.697 263.251ZM59.5196 206.167C57.6673 204.331 49.81 196.535 51.248 185.031L50.7519 184.969C49.2814 196.733 57.314 204.685 59.1676 206.522L59.5196 206.167ZM55.7495 123.984C55.6052 121.677 55.3781 119.329 55.152 116.992L54.6543 117.04C54.8805 119.379 55.1068 121.718 55.2504 124.016L55.7495 123.984ZM55.152 116.992C54.5916 111.199 54.0403 105.485 54.7474 100.535L54.2525 100.465C53.5352 105.486 54.0956 111.264 54.6543 117.04L55.152 116.992ZM59.1684 206.523L59.17 206.525L59.5204 206.168L59.5188 206.166L59.1684 206.523ZM172.418 256.562L172.423 256.56L172.205 256.11L172.2 256.112L172.418 256.562ZM172.205 256.11C172.204 256.11 172.204 256.11 172.203 256.111C172.202 256.111 172.201 256.112 172.2 256.112L172.418 256.562C172.419 256.562 172.419 256.561 172.42 256.561C172.421 256.561 172.422 256.56 172.423 256.559L172.205 256.11ZM172.888 255.776C172.774 255.834 172.545 255.944 172.221 256.102L172.439 256.552C172.762 256.395 172.994 256.282 173.112 256.224L172.888 255.776ZM172.221 256.102L172.205 256.11L172.423 256.559L172.439 256.552L172.221 256.102ZM59.6767 206.323C59.6337 206.28 59.5852 206.232 59.5319 206.179L59.1798 206.534C59.2333 206.587 59.2811 206.635 59.3232 206.677L59.6767 206.323ZM59.5318 206.179L59.5212 206.169L59.1692 206.524L59.1798 206.534L59.5318 206.179ZM59.1692 206.524C59.1728 206.527 59.1763 206.531 59.1798 206.534L59.5318 206.179C59.5283 206.176 59.5248 206.172 59.5212 206.169L59.1692 206.524ZM172.423 256.559C172.436 256.553 172.426 256.558 172.439 256.552L172.221 256.102C172.218 256.103 172.216 256.104 172.213 256.106C172.21 256.107 172.208 256.108 172.205 256.11L172.423 256.559Z" fill="black"/>
<path d="M212.398 116.969C228.422 107.17 247.089 95.781 253.88 91.6587C260.67 87.536 266.489 84.277 266.811 84.4149C267.132 84.5527 268.502 86.4296 269.854 88.5861C271.206 90.7427 272.24 92.6761 272.152 92.882C272.064 93.0888 251.536 105.779 226.533 121.083L37.1981 236.843C32.4348 239.875 28.0419 242.13 27.4365 241.855C26.8321 241.579 25.4193 239.564 24.297 237.377L22.2573 233.399L34.2277 226.046L212.398 116.969Z" fill="#744B22"/>
<path d="M254.129 104.51C254.023 104.254 258.007 101.601 262.984 98.6121L271.906 93.1249L277.708 100.444C280.429 104.27 284.838 111.498 287.507 116.508C290.175 121.52 293.528 129.224 294.958 133.631C296.388 138.038 298.196 144.926 298.976 148.939C299.756 152.95 300.495 159.875 300.618 164.328C300.742 168.781 300.388 175.411 299.831 179.061C299.274 182.712 297.672 188.88 296.272 192.767C294.122 198.732 293.655 199.488 293.279 197.61C293.034 196.387 291.878 190.017 290.711 183.456C289.544 176.895 286.936 166.038 284.913 159.33C282.892 152.623 279.17 142.783 276.642 137.466C274.114 132.148 269.976 124.719 267.446 120.956L254.129 104.51Z" fill="#F8F7EB"/>
<path d="M116.5 280.5C117.3 279.7 119.833 268.5 121 263C119.4 263.4 111.333 268.167 107.5 270.5C107 272.833 106 277.7 106 278.5C106 279.3 106.333 280.833 106.5 281.5C106.5 281.5 109.5 282 109.5 282.5C109.5 283 111.5 283.5 113 283.5C114.5 283.5 115.5 281.5 116.5 280.5Z" fill="#F2F2F2"/>
<path d="M113 289V284.5C111.4 284.5 107.667 282.833 106 282C105.667 282 104.9 282.1 104.5 282.5C104 283 97.5 284 91 285C85.8 285.8 83.1667 288.667 82.5 290C82 291.333 81.4 294.2 83 295C85 296 98 292.5 100.5 292C103 291.5 110.5 290.5 111.5 290C112.3 289.6 112.833 289.167 113 289Z" fill="#F2F2F2"/>
<path d="M161.549 143.668C164.785 144.017 168.125 144.306 168.969 144.311C169.812 144.316 171.297 144.442 172.268 144.591C173.239 144.74 175.347 145.787 176.954 146.917C178.763 148.191 180.098 150.233 180.461 152.283C180.813 154.267 180.484 156.917 179.642 158.893C178.767 160.945 177.16 162.6 175.389 163.272C173.823 163.866 168.531 163.975 163.629 163.515C158.652 163.046 153.818 162.104 152.677 161.381C151.553 160.668 150.09 158.948 149.423 157.558C148.712 156.074 148.585 153.298 149.116 150.833C149.792 147.702 150.739 146.175 152.842 144.833C154.892 143.526 157.27 143.207 161.549 143.668Z" fill="#F2F2F2"/>
<path d="M87.0014 159.671C85.7825 159.175 84.7604 157.712 84.6052 156.242C84.3365 153.697 84.4063 153.671 94.2169 152.635C102.492 151.761 104.127 151.857 104.271 153.221C104.366 154.116 104.054 155.806 103.579 156.975C102.86 158.744 101.572 159.221 95.9207 159.818C92.1842 160.212 88.1707 160.146 87.0014 159.671Z" fill="#F2F2F2"/>
<path fill-rule="evenodd" clip-rule="evenodd" d="M76.6698 101.408C77.6578 100.305 80.1819 98.5478 82.2795 97.5038C84.6039 96.3465 88.4222 95.5311 92.0588 95.4144C95.3409 95.3088 100.717 96.1276 104.008 97.2327C108.308 98.6774 110.948 100.408 113.396 103.384C116.504 107.161 116.875 108.305 117.629 116.44C118.084 121.345 118.115 127.398 117.698 129.89C117.25 132.569 116.053 135.041 114.77 135.936C113.576 136.769 110.519 137.928 107.978 138.512C103.864 139.457 103.353 139.892 103.33 142.469L103.302 145.365L94.0812 146.338C85.3109 147.264 84.8317 147.199 84.2815 145.006C83.8158 143.155 82.9272 142.718 79.7666 142.79C76.4234 142.865 75.7927 142.51 75.5724 140.423C75.3743 138.547 76.0245 137.731 78.3342 136.963C79.9955 136.41 82.3895 134.427 83.654 132.555C84.9596 130.624 85.815 127.846 85.6337 126.129L85.3143 123.104L79.1417 124.415L72.969 125.726L72.2743 119.145C71.8011 114.662 72.105 111.104 73.2266 107.989C74.1328 105.473 75.6819 102.512 76.6698 101.408ZM107.229 120.795C108.637 121.368 109.47 122.761 109.698 124.921C109.888 126.716 109.358 129.121 108.522 130.268C107.686 131.414 105.639 132.496 103.973 132.672C102.308 132.848 100.059 132.631 98.9756 132.191C97.8919 131.75 96.1907 130.391 95.1963 129.171C94.2007 127.951 92.9546 125.961 92.4261 124.75C91.5534 122.751 91.8737 122.467 95.8944 121.676C98.3303 121.196 101.398 120.607 102.713 120.367C104.027 120.127 106.059 120.32 107.229 120.795ZM93.3695 139.626C93.2817 138.795 92.5411 136.98 91.7225 135.592C90.905 134.205 89.9178 133.104 89.5298 133.145C89.1418 133.186 88.4063 134.469 87.8965 135.996C87.3856 137.524 87.0402 139.454 87.128 140.285C87.2321 141.271 88.3725 141.682 90.4083 141.467C92.4441 141.252 93.4736 140.612 93.3695 139.626Z" fill="#F2F2F2"/>
<path d="M67.0865 201.137C67.2553 199.645 68.1488 197.436 69.0708 196.229C70.2683 194.664 72.5825 193.454 77.1595 192.002C80.685 190.884 85.0631 189.798 86.8873 189.588C88.7114 189.379 91.5555 189.718 93.2075 190.342C95.3592 191.154 96.6348 192.496 97.703 195.07C98.5231 197.046 99.0937 199.689 98.9705 200.942C98.8468 202.197 97.6259 204.35 96.2563 205.73C94.3329 207.667 92.231 208.637 87.0156 209.993C83.3023 210.959 78.723 211.871 76.8386 212.019C74.8162 212.178 72.4014 211.436 70.9444 210.207C69.5863 209.064 68.0939 207.166 67.627 205.991C67.1606 204.815 66.9172 202.631 67.0865 201.137Z" fill="#F2F2F2"/>
<path d="M150.5 274C150.5 272.8 151.5 268.5 152 266.5C154 266.5 160.833 262.833 164 261C163 266.333 160.6 277.5 159 279.5C157 282 154 280.5 152 279.5C150 278.5 150.5 275.5 150.5 274Z" fill="#F2F2F2"/>
<path d="M148.5 282C149.7 282 150.333 280.333 150.5 279.5C154.5 282.3 157.5 281.667 158.5 281L159 282.5C159.333 283 160.3 284.3 161.5 285.5C162.7 286.7 160.667 288.333 159.5 289H155.5C153.5 289 147 291 145.5 291C144.3 291 136 292.333 132 293C131.333 293 130 292.4 130 290C130 287 132.5 285.5 133.5 285C134.5 284.5 147 282 148.5 282Z" fill="#F2F2F2"/>
</g>
<defs>
<clipPath id="clip0_3_238">
<rect width="317" height="301" fill="white"/>
</clipPath>
</defs>
</svg>
