<svg width="90" height="108" viewBox="0 0 90 108" fill="none" xmlns="http://www.w3.org/2000/svg">
  <path d="M45.0321 68.8317C45.2565 70.5353 45.2565 70.5353 46.0537 71.1301C47.0788 71.9099 48.3882 72.1252 49.7671 71.7569C50.8671 71.4671 50.9034 71.4386 51.1877 70.1572C51.2626 69.8045 51.4309 69.4957 51.5321 69.4749C51.6534 69.4499 52.3584 70.2113 53.1253 71.1707C54.7079 73.1218 55.0661 74.1443 54.6277 75.3941C54.341 76.2543 52.9062 77.4774 52.5843 77.1431C52.4743 77.0182 52.2071 76.3353 51.9965 75.6197C51.5097 74.0755 50.8612 73.2814 49.8309 72.9876C49.1818 72.805 48.7446 72.8318 47.3293 73.2287C46.387 73.4649 45.296 73.9004 44.9045 74.1497L44.2026 74.6315L44.7613 76.7302L45.3403 78.8246L41.3355 79.6493C39.151 80.0992 37.2128 80.414 37.0504 80.342C36.872 80.2944 36.5156 79.5878 36.2478 78.7996C35.4731 76.4714 34.8758 76.1306 32.4688 76.6262C31.4778 76.8303 30.9162 77.0725 30.3154 77.5335C29.4486 78.2391 29.2696 78.803 29.102 81.3674C29.0533 82.0521 28.9391 82.6238 28.8379 82.6446C28.6357 82.6863 28.6707 81.7303 28.9092 80.9433C28.9967 80.6512 28.9627 79.6673 28.8359 78.7447L28.5913 77.0452L29.5979 76.7115C30.1517 76.5342 31.0494 76.2861 31.5753 76.1778C32.8496 75.9153 34.1702 75.2639 34.467 74.76C34.6395 74.4715 34.627 73.6941 34.4205 72.2819L34.1413 70.21L34.7999 69.9268C35.1514 69.7912 35.556 69.7079 35.6696 69.7477C35.7832 69.7876 36.2122 70.4371 36.6215 71.1961C37.0309 71.9551 37.5991 72.8712 37.8846 73.234L38.4272 73.9234L40.0007 73.5783C40.8502 73.4034 41.9377 73.0529 42.4184 72.8275C43.529 72.2825 43.7473 71.4997 43.4586 69.1768L43.2503 67.4487L44.0391 67.2863L44.8077 67.128L45.0321 68.8317Z" fill="#A9270B"/>
  <path d="M26.4853 74.19C26.6585 74.7236 26.7989 75.2007 26.7668 75.2494C26.7549 75.2941 26.0933 75.0508 25.3057 74.707C24.5424 74.3793 23.9611 74.0141 24.0254 73.9165C24.158 73.7416 25.512 73.252 25.9493 73.2252C26.0748 73.2204 26.3122 73.6565 26.4853 74.19Z" fill="#A9270B"/>
  <path d="M45.0321 68.8317C45.2565 70.5353 45.2565 70.5353 46.0537 71.1301C47.0788 71.9099 48.3882 72.1252 49.7671 71.7569C50.8671 71.4671 50.9034 71.4386 51.1877 70.1572C51.2626 69.8045 51.4309 69.4957 51.5321 69.4749C51.6534 69.4499 52.3584 70.2113 53.1253 71.1707C54.7079 73.1218 55.0661 74.1443 54.6277 75.3941C54.341 76.2543 52.9062 77.4774 52.5843 77.1431C52.4743 77.0182 52.2071 76.3353 51.9965 75.6197C51.5097 74.0755 50.8612 73.2814 49.8309 72.9876C49.1818 72.805 48.7446 72.8318 47.3293 73.2287C46.387 73.4649 45.296 73.9004 44.9045 74.1497L44.2026 74.6315L44.7613 76.7302L45.3403 78.8246L41.3355 79.6493C39.151 80.0992 37.2128 80.414 37.0504 80.342C36.872 80.2944 36.5156 79.5878 36.2478 78.7996C35.4731 76.4714 34.8758 76.1306 32.4688 76.6262C31.4778 76.8303 30.9162 77.0725 30.3154 77.5335C29.4486 78.2391 29.2696 78.803 29.102 81.3674C29.0533 82.0521 28.9391 82.6238 28.8379 82.6446C28.6357 82.6863 28.6707 81.7303 28.9092 80.9433C28.9967 80.6512 28.9627 79.6673 28.8359 78.7447L28.5913 77.0452L29.5979 76.7115C30.1517 76.5342 31.0494 76.2861 31.5753 76.1778C32.8496 75.9153 34.1702 75.2639 34.467 74.76C34.6395 74.4715 34.627 73.6941 34.4205 72.2819L34.1413 70.21L34.7999 69.9268C35.1514 69.7912 35.556 69.7079 35.6696 69.7477C35.7832 69.7876 36.2122 70.4371 36.6215 71.1961C37.0309 71.9551 37.5991 72.8712 37.8846 73.234L38.4272 73.9234L40.0007 73.5783C40.8502 73.4034 41.9377 73.0529 42.4184 72.8275C43.529 72.2825 43.7473 71.4997 43.4586 69.1768L43.2503 67.4487L44.0391 67.2863L44.8077 67.128L45.0321 68.8317Z" stroke="black"/>
  <path d="M26.4853 74.19C26.6585 74.7236 26.7989 75.2007 26.7668 75.2494C26.7549 75.2941 26.0933 75.0508 25.3057 74.707C24.5424 74.3793 23.9611 74.0141 24.0254 73.9165C24.158 73.7416 25.512 73.252 25.9493 73.2252C26.0748 73.2204 26.3122 73.6565 26.4853 74.19Z" stroke="black"/>
  <path d="M38.8612 77.901C39.5305 77.1031 41.9565 75.1704 46.3057 73.8221C48.5035 73.1408 52.8629 71.5047 54.2454 72.255C55.5988 72.9895 56.4978 74.9461 55.1383 76.1822C53.7789 77.4184 53.2686 78.0408 51.7205 78.4646L51.637 78.4875C46.9902 79.7596 44.6448 80.4016 40.037 80.6624C38.8915 80.7273 37.1001 80.7348 37.1001 80.7348L38.8612 77.901Z" fill="#711602"/>
  <path d="M32.7782 72.5989C32.9282 73.327 33.0091 74.0271 32.9247 74.1289C32.8604 74.2264 31.8134 74.5685 30.6082 74.8589L28.4041 75.4182L28.1333 74.1036L27.8626 72.789L29.5758 72.0988C30.5134 71.7371 31.5604 71.395 31.884 71.3283L32.4991 71.2438L32.7782 72.5989Z" fill="#BFD4E0"/>
  <path d="M41.9716 69.0191C42.0573 69.8447 42.0503 70.7317 41.9384 71.0077C41.7427 71.4907 40.9069 71.9369 39.6124 72.2035C38.9854 72.3326 38.9325 72.2803 38.2655 71.0894C37.2136 69.1556 37.2124 68.945 38.3362 68.566C38.8495 68.397 39.3951 68.1793 39.5527 68.1258C39.7062 68.052 40.2844 67.8907 40.8264 67.7581L41.8133 67.5337L41.9716 69.0191Z" fill="#BFD4E0"/>
  <path d="M48.3548 67.6624C48.9516 67.8979 49.4757 68.1906 49.5655 68.3197C49.819 68.7313 49.7554 69.6509 49.4258 70.0983C49.1647 70.4683 48.9826 70.5058 48.2979 70.4571C47.0093 70.3429 46.5857 69.9242 46.5303 68.7339C46.5029 68.1914 46.4999 67.6649 46.5398 67.5513C46.6593 67.2104 47.3441 67.2592 48.3548 67.6624Z" fill="#BFD4E0"/>
  <path d="M49.7063 74.5311C50.3405 74.9487 50.9171 76.622 50.7071 77.4453C50.5566 78.0455 50.5001 78.0782 48.979 78.3704C48.0646 78.5376 47.271 78.5745 47.0598 78.4704C46.6089 78.226 46.0977 75.9489 46.3862 75.4046C46.7223 74.6818 49.0233 74.0815 49.7063 74.5311Z" fill="#BFD4E0"/>
  <path d="M34.0891 78.0423C34.6008 78.2743 35.6289 81.0141 35.3107 81.3116C35.1857 81.4217 34.2202 81.8524 33.1494 82.2837C31.7473 82.8465 31.1244 82.9959 30.9293 82.8674C30.7342 82.7389 30.6747 82.2452 30.6883 81.0829C30.6947 79.3738 30.8339 78.9235 31.4674 78.519C32.0403 78.1269 33.6263 77.8425 34.0891 78.0423Z" fill="#BFD4E0"/>
  <path fill-rule="evenodd" clip-rule="evenodd" d="M76.8469 52.7504L77.1943 51.8778C78.0484 49.6779 77.906 46.0178 76.7903 41.4196C76.0891 38.4914 75.0194 36.0355 73.6945 33.35C72.4787 30.8513 71.6929 28.9438 69.9188 26.7908C67.7128 24.167 65.1349 21.683 62.4827 19.6571C59.7912 17.5845 57.2335 15.9128 53.8421 15.0695C49.7773 14.0889 44.4296 13.9717 40.3562 15.2113L34.7209 17.0254C25.6767 19.7944 21.8254 21.2621 18.4548 23.2212C14.9914 25.2416 13.3645 26.8626 10.119 31.5789C8.94939 33.6979 7.79962 35.7282 6.92353 37.9714C5.97779 40.443 4.88814 43.9563 4.74424 44.9979C4.57358 46.3191 5.05142 48.4344 5.75763 49.4064C6.07593 49.8257 6.85411 50.6353 7.49723 51.1985C8.13619 51.7416 8.67402 52.3055 8.70318 52.4471C9.35331 55.6036 12.988 67.2709 12.7995 69.06C12.7371 70.1902 13.1709 71.6821 13.7408 72.1972C14.7219 73.0704 16.5322 73.7728 20.2558 74.7559C25.7153 76.1826 26.9509 76.9612 27.2432 79.199C27.4128 80.5344 27.1202 81.7753 26.0525 84.1667C25.6444 85.0519 25.3179 86.0257 25.3155 86.3213C25.2597 87.8929 27.2825 89.6268 29.7882 90.1228C30.5991 90.272 31.3297 90.5432 31.4278 90.7128C31.5099 90.9067 31.7681 91.4438 32.0222 91.9607C33.1039 94.1414 35.4948 94.387 42.141 92.9761C44.4092 92.4844 46.6671 92.0428 48.9579 91.6778C53.4575 87.9954 57.8968 84.2579 61.7249 79.8566C63.6548 77.2179 65.8464 74.9438 67.6265 72.1689C68.7103 70.4699 69.8298 68.6371 70.0939 68.0767C72.5232 62.7248 69.2964 58.488 71.7506 56.7726C72.2307 56.4418 73.054 55.9349 73.5626 55.6405C74.0915 55.3418 74.628 54.9783 74.769 54.8439L76.8469 52.7504ZM59.4558 19.395C55.0855 16.5001 51.4476 15.6259 45.7152 16.0474C42.6425 16.2795 41.793 16.4545 36.9173 17.9645C26.9475 21.0507 22.421 22.7207 19.4377 24.4103C16.0022 26.3616 12.9946 29.4687 10.902 33.2307C9.52669 35.6644 7.6334 40.2919 6.75134 43.2775C6.17143 45.2733 6.13278 45.5975 6.37854 46.7907C6.69513 48.3278 7.34422 49.2272 9.07726 50.578L10.1838 51.4464C10.1838 51.4464 14.5635 62.4472 16 69C14.5 69.1923 14.2885 69.3284 14.4665 70.1925C14.6581 71.1228 14.7438 71.2317 15.6945 71.7527C16.243 72.0614 17.343 72.4884 18.1419 72.6823L19.59 73.0588L22.7209 72.3929C26.1754 71.6605 29.3123 70.6139 33.5788 68.8077C40.2695 65.9751 44.8776 65.1105 48.2484 66.0187C49.4816 66.3761 52.2986 68.1784 53.6265 69.5072C54.8973 70.7634 56.0783 72.6074 56.2949 73.6591C56.4538 74.5329 56.1142 76.0576 55.5396 76.8506C55.2945 77.1962 54.7186 77.7786 54.2671 78.1456C53.4688 78.7739 53.2707 78.8357 44.7762 80.6904C37.556 82.2827 35.8492 82.6974 34.6577 83.259C33.8659 83.6118 32.3864 84.1063 31.3751 84.3145C29.6802 84.6846 29.4899 84.6816 28.7182 84.3135L27.8979 83.9132L27.4452 84.7865C26.8444 85.9643 26.8028 86.4789 27.3174 87.2373C27.8565 88.0118 28.6727 88.3918 30.4318 88.641C31.8667 88.8514 31.9881 88.8265 35.1529 87.7109C37.473 86.8958 40.053 86.2169 39.755 86.5102C39.614 86.6447 38.1934 87.5275 36.5908 88.4479C35.0126 89.3843 33.5641 90.3361 33.3791 90.5639C32.852 91.1785 33.309 91.759 34.6642 92.1967L35.8409 92.5869L42.2932 91.2582L48.7454 89.9295L50.9303 88.1513C58.6179 81.8668 66.7799 72.1535 69.1491 66.4582C69.848 64.7331 69.9669 63.5701 69.6514 60.81C69.3401 58.0701 69.4501 56.7614 70.0462 56.1749C70.2556 55.9631 71.111 55.4074 71.9587 54.9166C74.6149 53.3788 75.5357 52.2193 76.1566 49.6037C76.4171 48.4116 76.4147 47.9904 75.9838 45.5914C75.3935 42.2133 74.0916 37.6323 73.0289 35.2369C70.1486 28.7252 65.6758 23.4902 59.4558 19.395ZM41.9385 71.0075C42.0504 70.7315 42.0574 69.8446 41.9717 69.0189L41.8134 67.5336L40.8265 67.7579C40.2845 67.8906 39.7063 68.0518 39.5528 68.1256C39.3952 68.1791 38.8497 68.3969 38.3363 68.5659C37.2125 68.9448 37.2137 69.1554 38.2656 71.0893C38.9326 72.2801 38.9855 72.3325 39.6126 72.2033C40.907 71.9368 41.7428 71.4906 41.9385 71.0075ZM46.0541 71.1298C45.2569 70.535 45.2569 70.535 45.0325 68.8314L44.8081 67.1277L44.0395 67.286L43.2507 67.4484L43.459 69.1765C43.7477 71.4994 43.5294 72.2822 42.4187 72.8272C41.9381 73.0526 40.8506 73.4031 40.0011 73.578L38.4276 73.9231L37.885 73.2337C37.5994 72.8709 37.0312 71.9548 36.6219 71.1958C36.2126 70.4368 35.7836 69.7873 35.67 69.7474C35.5563 69.7076 35.1518 69.7909 34.8002 69.9265L34.1417 70.2097L34.4208 72.2816C34.6273 73.6938 34.6399 74.4712 34.4674 74.7597C34.1706 75.2636 32.8499 75.915 31.5757 76.1775C31.0498 76.2858 30.1521 76.5339 29.5982 76.7112L28.5917 77.0449L28.8363 78.7444C28.9631 79.667 28.997 80.6509 28.9096 80.943C28.6711 81.73 28.636 82.686 28.8383 82.6443C28.9394 82.6235 29.0536 82.0518 29.1024 81.3671C29.27 78.8027 29.449 78.2388 30.3157 77.5332C30.9166 77.0722 31.4781 76.83 32.4692 76.6259C34.8762 76.1303 35.4735 76.4711 36.2482 78.7993C36.5159 79.5875 36.8723 80.2941 37.0508 80.3417C37.2132 80.4137 39.1514 80.0989 41.3358 79.649L45.3407 78.8243L44.7617 76.7299L44.203 74.6313L44.9049 74.1494C45.2963 73.9001 46.3874 73.4646 47.3297 73.2284C48.7449 72.8315 49.1822 72.8047 49.8312 72.9873C50.8616 73.2811 51.5101 74.0752 51.9968 75.6194C52.2075 76.335 52.4746 77.0179 52.5847 77.1428C52.9066 77.4771 54.3414 76.254 54.6281 75.3938C55.0664 74.144 54.7083 73.1215 53.1257 71.1704C52.3588 70.211 51.6538 69.4496 51.5324 69.4746C51.4313 69.4954 51.263 69.8042 51.188 70.1569C50.9037 71.4383 50.8675 71.4668 49.7675 71.7566C48.3885 72.1249 47.0792 71.9096 46.0541 71.1298ZM49.5656 68.3195C49.4758 68.1904 48.9517 67.8978 48.3549 67.6623C47.3442 67.259 46.6594 67.2103 46.5399 67.5511C46.5 67.6647 46.5031 68.1912 46.5304 68.7337C46.5858 69.924 47.0094 70.3428 48.298 70.4569C48.9828 70.5056 49.1648 70.4682 49.4259 70.0981C49.7555 69.6508 49.8191 68.7311 49.5656 68.3195ZM32.9248 74.1287C33.0092 74.027 32.9283 73.3268 32.7783 72.5987L32.4992 71.2437L31.8841 71.3282C31.5605 71.3948 30.5135 71.7369 29.5759 72.0987L27.8627 72.7888L28.1334 74.1034L28.4042 75.418L30.6083 74.8587C31.8135 74.5684 32.8605 74.2263 32.9248 74.1287ZM26.767 75.2492C26.7991 75.2004 26.6587 74.7233 26.4855 74.1898C26.3124 73.6562 26.075 73.2202 25.9495 73.2249C25.5122 73.2517 24.1583 73.7414 24.0256 73.9163C23.9614 74.0138 24.5426 74.3791 25.3059 74.7068C26.0936 75.0506 26.7551 75.2938 26.767 75.2492ZM50.7072 77.4451C50.9172 76.6218 50.3406 74.9485 49.7064 74.531C49.0234 74.0813 46.7224 74.6817 46.3863 75.4044C46.0978 75.9487 46.609 78.2258 47.0599 78.4703C47.2711 78.5744 48.0647 78.5374 48.9791 78.3702C50.5002 78.0781 50.5567 78.0453 50.7072 77.4451ZM35.3108 81.3114C35.629 81.014 34.6009 78.2741 34.0892 78.0422C33.6264 77.8423 32.0404 78.1268 31.4675 78.5188C30.834 78.9234 30.6948 79.3737 30.6884 81.0827C30.6748 82.2451 30.7343 82.7388 30.9294 82.8673C31.1245 82.9957 31.7474 82.8464 33.1495 82.2836C34.2203 81.8522 35.1858 81.4215 35.3108 81.3114Z" fill="black"/>
  <path d="M26.8376 33.0061C26.4105 33.3892 25.5449 34.3053 24.9418 35.062C23.5302 36.8074 22.369 37.7212 20.708 38.3584C19.8919 38.6951 19.4237 38.9813 19.457 39.1431C19.557 39.6284 23.0223 40.0744 25.3989 39.9434C27.1884 39.8279 28.2425 39.3156 31.7315 36.8051C33.4376 35.5683 35.5316 34.1673 36.3632 33.7009C38.1395 32.7026 38.1395 32.7026 37.7011 32.5188C37.5143 32.4308 36.7373 32.5486 35.9568 32.7515C34.8004 33.074 34.118 33.4464 31.9033 34.9777C30.4512 36.0146 28.6915 37.0938 27.9723 37.3895C26.033 38.2105 24.2864 38.7389 24.099 38.5455C24.0175 38.4569 24.2864 38.022 24.6808 37.5824C25.5421 36.6461 28.2368 32.6336 28.1826 32.3707C28.1201 32.0673 27.6758 32.2642 26.8376 33.0061Z" fill="black"/>
  <path d="M26.8374 33.0062C26.4102 33.3893 25.5447 34.3054 24.9415 35.0621C23.5299 36.8075 22.3687 37.7213 20.7078 38.3584C19.8916 38.6952 19.4235 38.9813 19.4568 39.1431C19.5568 39.6285 23.0221 40.0745 25.3987 39.9435C27.1882 39.8279 28.2423 39.3157 31.7313 36.8052C33.4374 35.5684 35.5313 34.1674 36.363 33.701C38.1393 32.7027 38.1393 32.7027 37.7008 32.5189C37.514 32.4309 36.7371 32.5487 35.9566 32.7516C34.8001 33.0741 34.1178 33.4465 31.9031 34.9778C30.451 36.0147 28.6913 37.0939 27.9721 37.3896C26.0328 38.2106 24.2862 38.7389 24.0988 38.5456C24.0173 38.457 24.2861 38.0221 24.6805 37.5825C25.5419 36.6462 28.2365 32.6337 28.1824 32.3708C28.1199 32.0674 27.6755 32.2643 26.8374 33.0062Z" fill="black"/>
  <path fill-rule="evenodd" clip-rule="evenodd" d="M45.715 16.0474C51.4474 15.6259 55.0853 16.5001 59.4556 19.395C65.6756 23.4902 70.1484 28.7253 73.0287 35.237C74.0913 37.6324 75.3933 42.2133 75.9836 45.5915C76.4145 47.9905 76.4169 48.4117 76.1564 49.6038C75.5355 52.2194 74.6146 53.3788 71.9585 54.9167C71.1108 55.4075 70.2553 55.9632 70.0459 56.1749C69.4499 56.7615 69.3399 58.0702 69.6512 60.8101C69.9667 63.5702 69.8478 64.7332 69.1489 66.4583C66.7797 72.1536 58.6177 81.8669 50.9301 88.1514L48.7452 89.9296L42.2929 91.2583L35.8407 92.587L34.664 92.1968C33.3087 91.7591 32.8518 91.1785 33.3789 90.564C33.5639 90.3362 35.0124 89.3843 36.5906 88.4479C38.1932 87.5276 39.6138 86.6447 39.7548 86.5103C40.0528 86.217 37.4728 86.8959 35.1527 87.711C31.9879 88.8265 31.8665 88.8515 30.4316 88.641C28.6725 88.3919 27.8562 88.0118 27.3172 87.2374C26.8026 86.479 26.8442 85.9644 27.445 84.7866L27.8976 83.9133L28.718 84.3136C29.4896 84.6817 29.68 84.6847 31.3749 84.3146C32.3862 84.1063 33.8657 83.6119 34.6575 83.2591C35.849 82.6975 37.5558 82.2828 44.776 80.6905C53.2705 78.8358 53.4686 78.7739 54.2669 78.1457C54.7184 77.7787 55.2943 77.1963 55.5393 76.8507C56.114 76.0577 56.4535 74.533 56.2947 73.6592C56.078 72.6075 54.8971 70.7635 53.6263 69.5073C52.2984 68.1784 49.4814 66.3762 48.2481 66.0188C44.8774 65.1106 40.2693 65.9752 33.5786 68.8077C29.3121 70.614 26.1752 71.6605 22.7207 72.393L19.5897 73.0589L18.1417 72.6824C17.3428 72.4885 16.2428 72.0615 15.6942 71.7528C14.7436 71.2318 14.6579 71.1229 14.4663 70.1926C13.1847 63.9701 10.1836 51.4465 10.1836 51.4465L9.07703 50.5781C7.344 49.2273 6.6949 48.3279 6.37832 46.7908C6.13255 45.5975 6.1712 45.2733 6.75111 43.2776C7.63317 40.2919 9.52646 35.6644 10.9017 33.2308C12.9944 29.4688 16.002 26.3617 19.4374 24.4103C22.4208 22.7208 26.9473 21.0507 36.9171 17.9646C41.7928 16.4546 42.6423 16.2796 45.715 16.0474ZM24.9415 35.0621C25.5447 34.3054 26.4102 33.3893 26.8374 33.0062C27.6755 32.2643 28.1199 32.0674 28.1824 32.3708C28.2365 32.6337 25.5419 36.6462 24.6805 37.5825C24.2861 38.0221 24.0173 38.457 24.0988 38.5456C24.2862 38.7389 26.0328 38.2106 27.9721 37.3896C28.6913 37.0939 30.451 36.0147 31.9031 34.9778C34.1178 33.4465 34.8001 33.0741 35.9566 32.7516C36.7371 32.5487 37.514 32.4309 37.7008 32.5189C38.1393 32.7027 38.1393 32.7027 36.363 33.701C35.5313 34.1674 33.4374 35.5684 31.7313 36.8052C28.2423 39.3157 27.1882 39.8279 25.3987 39.9435C23.0221 40.0745 19.5568 39.6285 19.4568 39.1431C19.4235 38.9813 19.8916 38.6952 20.7078 38.3584C22.3687 37.7213 23.5299 36.8075 24.9415 35.0621Z" fill="#FED90F"/>
  <path d="M31.2977 61.5189C31.1829 61.9853 31.1425 61.9937 30.9545 61.6951C30.6481 61.2311 30.77 60.5946 31.1359 60.8355C31.331 60.964 31.3726 61.1662 31.2977 61.5189Z" fill="#A9270B"/>
  <path d="M34.2214 55.7517C33.8645 56.3734 33.9377 57.1383 34.3881 57.9943C34.9123 59.0038 35.3489 58.8717 35.387 57.7254C35.4083 57.215 35.5273 56.7689 35.6284 56.748C35.9437 56.6409 37.368 58.5402 37.518 59.2683C37.7637 60.4616 37.0243 60.7614 35.8814 59.9216C35.3121 59.5117 34.8386 59.5671 34.9302 60.012C35.0218 60.457 37.0422 61.7697 37.4872 61.6781C38.5794 61.4531 39.4436 58.176 38.7439 56.9287C37.8318 55.3666 34.871 54.606 34.2214 55.7517Z" fill="black"/>
  <path fill-rule="evenodd" clip-rule="evenodd" d="M29.3613 59.9993C28.2269 61.3503 30.1837 64.2995 31.7144 63.5415C32.2313 63.2875 32.2836 62.5177 31.9087 60.6975L31.5797 59.0997L30.6897 59.283C30.1031 59.4038 29.6671 59.6412 29.3613 59.9993ZM30.9546 61.6951C31.1426 61.9937 31.183 61.9854 31.2978 61.519C31.3728 61.1663 31.3311 60.964 31.136 60.8356C30.7701 60.5947 30.6482 61.2312 30.9546 61.6951Z" fill="black"/>
  <path fill-rule="evenodd" clip-rule="evenodd" d="M44.0515 24.067C42.8404 25.1926 42.6462 26.9112 43.1107 29.1449C43.5185 30.4962 45.3922 30.4102 46.6248 30.846C47.9039 31.1155 51.8893 32.0241 56.0703 33.1939C60.9473 34.5584 66.4027 36.7704 67.5812 37.0532C68.8173 37.2403 69.602 37.1948 70.4073 36.3596C72.2382 34.4792 71.6419 31.1807 69.4705 30.1362C65.5221 27.9979 51.7327 23.726 47.5622 22.9547C46.1811 22.7362 44.7179 23.4547 44.0515 24.067ZM67.5954 30.5581C63.1941 28.6273 51.5072 24.901 47.7151 24.482C46.9433 24.3599 45.8223 25.0097 45.5962 25.0836C44.6393 25.3966 43.8689 27.6731 44.5085 28.6863C45.0493 29.574 48.0058 29.7112 58.9181 32.9834C66.7831 35.3595 67.7835 35.9767 68.7056 35.6751C69.3668 35.4588 69.529 35.3072 69.8588 34.6078C70.281 33.6614 70.297 32.6506 69.8726 32.0008C69.6807 31.7087 68.861 31.0708 67.5954 30.5581Z" fill="#392E04"/>
  <path fill-rule="evenodd" clip-rule="evenodd" d="M47.7162 24.4815C51.306 24.9422 62.4633 28.1454 67.5548 30.3559C68.8203 30.8686 69.6817 31.7087 69.8736 32.0008C70.298 32.6507 70.282 33.6614 69.8598 34.6079C69.6111 35.3863 69.2744 35.486 68.7616 35.6378C68.6804 35.6619 68.5948 35.6872 68.5044 35.7168C67.9432 35.9003 67.428 35.7281 65.3375 35.0295C63.9932 34.5802 61.9975 33.9133 58.9193 32.9832C54.0111 31.5113 50.7124 30.6737 48.5192 30.1168C45.8362 29.4355 44.8073 29.1743 44.5097 28.6858C43.8701 27.6726 44.1942 25.2771 45.514 24.6786C45.7402 24.6046 46.5398 24.4426 47.7162 24.4815ZM52.558 29.5593C52.6025 29.6953 52.5309 29.8408 52.398 29.8842C52.2652 29.9277 52.1214 29.8526 52.077 29.7167C52.0325 29.5807 52.1041 29.4352 52.2369 29.3918C52.3698 29.3483 52.5135 29.4233 52.558 29.5593ZM53.3603 29.5695C53.4932 29.5261 53.5648 29.3806 53.5203 29.2446C53.4758 29.1087 53.332 29.0336 53.1992 29.0771C53.0664 29.1205 52.9947 29.266 53.0392 29.402C53.0837 29.538 53.2275 29.613 53.3603 29.5695ZM53.8423 30.2296C53.8868 30.3656 53.8151 30.511 53.6823 30.5545C53.5495 30.5979 53.4057 30.5229 53.3612 30.3869C53.3167 30.2509 53.3883 30.1055 53.5212 30.062C53.654 30.0186 53.7978 30.0936 53.8423 30.2296ZM54.3219 29.255C54.4548 29.2116 54.5264 29.0661 54.4819 28.9301C54.4374 28.7941 54.2937 28.7191 54.1608 28.7625C54.028 28.806 53.9564 28.9515 54.0008 29.0874C54.0453 29.2234 54.1891 29.2985 54.3219 29.255ZM54.8045 29.9149C54.849 30.0509 54.7774 30.1964 54.6446 30.2398C54.5117 30.2833 54.368 30.2082 54.3235 30.0722C54.279 29.9363 54.3506 29.7908 54.4835 29.7473C54.6163 29.7039 54.7601 29.7789 54.8045 29.9149ZM52.0761 28.8993C52.2089 28.8558 52.2805 28.7104 52.236 28.5744C52.1915 28.4384 52.0478 28.3634 51.9149 28.4068C51.7821 28.4503 51.7105 28.5957 51.755 28.7317C51.7995 28.8677 51.9432 28.9427 52.0761 28.8993ZM53.1976 28.2598C53.2421 28.3958 53.1705 28.5413 53.0377 28.5847C52.9048 28.6282 52.7611 28.5532 52.7166 28.4172C52.6721 28.2812 52.7437 28.1357 52.8766 28.0923C53.0094 28.0488 53.1531 28.1239 53.1976 28.2598ZM53.9999 28.2699C54.1327 28.2264 54.2044 28.081 54.1599 27.945C54.1154 27.809 53.9716 27.734 53.8388 27.7774C53.706 27.8209 53.6343 27.9663 53.6788 28.1023C53.7233 28.2383 53.8671 28.3133 53.9999 28.2699ZM52.8757 27.2749C52.9202 27.4109 52.8485 27.5564 52.7157 27.5998C52.5828 27.6433 52.4391 27.5682 52.3946 27.4322C52.3501 27.2963 52.4217 27.1508 52.5546 27.1073C52.6874 27.0639 52.8312 27.1389 52.8757 27.2749ZM54.9622 27.9552C55.095 27.9118 55.1667 27.7663 55.1222 27.6303C55.0777 27.4943 54.9339 27.4193 54.8011 27.4628C54.6682 27.5062 54.5966 27.6517 54.6411 27.7877C54.6856 27.9236 54.8293 27.9987 54.9622 27.9552ZM55.4441 28.6153C55.4886 28.7512 55.417 28.8967 55.2842 28.9402C55.1513 28.9836 55.0076 28.9086 54.9631 28.7726C54.9186 28.6366 54.9902 28.4911 55.1231 28.4477C55.2559 28.4042 55.3996 28.4793 55.4441 28.6153ZM56.2464 28.6255C56.3793 28.582 56.4509 28.4366 56.4064 28.3006C56.3619 28.1646 56.2182 28.0896 56.0853 28.133C55.9525 28.1765 55.8809 28.3219 55.9254 28.4579C55.9698 28.5939 56.1136 28.6689 56.2464 28.6255ZM55.7668 29.6001C55.8113 29.736 55.7397 29.8815 55.6068 29.925C55.474 29.9684 55.3302 29.8934 55.2857 29.7574C55.2412 29.6214 55.3129 29.4759 55.4457 29.4325C55.5785 29.389 55.7223 29.4641 55.7668 29.6001ZM55.9288 30.9101C56.0617 30.8666 56.1333 30.7212 56.0888 30.5852C56.0443 30.4492 55.9006 30.3742 55.7677 30.4176C55.6349 30.4611 55.5633 30.6065 55.6077 30.7425C55.6522 30.8785 55.796 30.9535 55.9288 30.9101ZM56.7284 29.2855C56.7729 29.4215 56.7013 29.567 56.5684 29.6104C56.4356 29.6539 56.2918 29.5788 56.2473 29.4429C56.2029 29.3069 56.2745 29.1614 56.4073 29.118C56.5402 29.0745 56.6839 29.1495 56.7284 29.2855ZM57.5307 29.2957C57.6635 29.2523 57.7352 29.1068 57.6907 28.9708C57.6462 28.8349 57.5024 28.7598 57.3696 28.8033C57.2367 28.8467 57.1651 28.9922 57.2096 29.1282C57.2541 29.2642 57.3979 29.3392 57.5307 29.2957ZM58.6529 28.656C58.6974 28.792 58.6258 28.9375 58.4929 28.9809C58.3601 29.0243 58.2164 28.9493 58.1719 28.8133C58.1274 28.6773 58.199 28.5319 58.3318 28.4884C58.4647 28.445 58.6084 28.52 58.6529 28.656ZM58.815 29.966C58.9478 29.9226 59.0194 29.7771 58.9749 29.6411C58.9304 29.5051 58.7867 29.4301 58.6538 29.4735C58.521 29.517 58.4494 29.6625 58.4939 29.7984C58.5384 29.9344 58.6821 30.0095 58.815 29.966ZM59.9372 29.3263C59.9817 29.4622 59.91 29.6077 59.7772 29.6512C59.6444 29.6946 59.5006 29.6196 59.4561 29.4836C59.4116 29.3476 59.4832 29.2021 59.6161 29.1587C59.7489 29.1152 59.8927 29.1903 59.9372 29.3263ZM57.2087 28.3108C57.3416 28.2674 57.4132 28.1219 57.3687 27.9859C57.3242 27.8499 57.1804 27.7749 57.0476 27.8183C56.9148 27.8618 56.8432 28.0072 56.8876 28.1432C56.9321 28.2792 57.0759 28.3542 57.2087 28.3108ZM57.051 30.2703C57.0955 30.4063 57.0239 30.5518 56.8911 30.5952C56.7582 30.6387 56.6145 30.5636 56.57 30.4277C56.5255 30.2917 56.5971 30.1462 56.73 30.1028C56.8628 30.0593 57.0066 30.1343 57.051 30.2703ZM57.8534 30.2805C57.9862 30.2371 58.0578 30.0916 58.0133 29.9556C57.9688 29.8197 57.8251 29.7446 57.6922 29.7881C57.5594 29.8315 57.4878 29.977 57.5323 30.113C57.5768 30.249 57.7205 30.324 57.8534 30.2805ZM58.3353 30.9406C58.3798 31.0766 58.3082 31.222 58.1753 31.2655C58.0425 31.3089 57.8987 31.2339 57.8542 31.0979C57.8098 30.9619 57.8814 30.8165 58.0142 30.773C58.1471 30.7296 58.2908 30.8046 58.3353 30.9406ZM59.1376 30.9508C59.2704 30.9074 59.3421 30.7619 59.2976 30.6259C59.2531 30.4899 59.1093 30.4149 58.9765 30.4583C58.8437 30.5018 58.772 30.6473 58.8165 30.7832C58.861 30.9192 59.0048 30.9943 59.1376 30.9508ZM60.2591 30.3112C60.3036 30.4472 60.232 30.5926 60.0992 30.6361C59.9663 30.6795 59.8226 30.6045 59.7781 30.4685C59.7336 30.3325 59.8052 30.1871 59.9381 30.1436C60.0709 30.1002 60.2147 30.1752 60.2591 30.3112ZM61.0615 30.3214C61.1943 30.278 61.2659 30.1325 61.2214 29.9965C61.1769 29.8605 61.0332 29.7855 60.9003 29.829C60.7675 29.8724 60.6959 30.0179 60.7404 30.1539C60.7849 30.2898 60.9286 30.3649 61.0615 30.3214ZM59.6196 31.6108C59.6641 31.7468 59.5924 31.8923 59.4596 31.9357C59.3267 31.9792 59.183 31.9042 59.1385 31.7682C59.094 31.6322 59.1656 31.4867 59.2985 31.4433C59.4313 31.3998 59.5751 31.4749 59.6196 31.6108ZM60.4218 31.6209C60.5547 31.5774 60.6263 31.432 60.5818 31.296C60.5373 31.16 60.3936 31.085 60.2607 31.1284C60.1279 31.1719 60.0562 31.3173 60.1007 31.4533C60.1452 31.5893 60.289 31.6643 60.4218 31.6209ZM60.9038 32.2811C60.9483 32.4171 60.8767 32.5626 60.7438 32.606C60.611 32.6495 60.4672 32.5744 60.4228 32.4384C60.3783 32.3025 60.4499 32.157 60.5827 32.1135C60.7156 32.0701 60.8593 32.1451 60.9038 32.2811ZM61.3841 31.3062C61.5169 31.2628 61.5886 31.1173 61.5441 30.9813C61.4996 30.8453 61.3558 30.7703 61.223 30.8138C61.0901 30.8572 61.0185 31.0027 61.063 31.1387C61.1075 31.2747 61.2513 31.3497 61.3841 31.3062ZM57.373 31.2553C57.4175 31.3912 57.3459 31.5367 57.2131 31.5802C57.0802 31.6236 56.9365 31.5486 56.892 31.4126C56.8475 31.2766 56.9191 31.1311 57.0519 31.0877C57.1848 31.0442 57.3285 31.1193 57.373 31.2553ZM51.7534 27.9145C51.8862 27.871 51.9579 27.7256 51.9134 27.5896C51.8689 27.4536 51.7251 27.3786 51.5923 27.422C51.4595 27.4655 51.3878 27.6109 51.4323 27.7469C51.4768 27.8829 51.6206 27.9579 51.7534 27.9145Z" fill="#A69558"/>
  <path d="M27.8231 14.0039C27.163 10.5095 27.141 10.6827 28.671 8.73914C29.2185 8.06124 29.7016 7.48287 29.7658 7.4674C30.0866 7.39006 29.9127 8.18789 29.3254 9.48429L28.6358 10.9943L29.3998 13.8548C29.9372 15.867 30.1151 16.874 30.0069 17.236C29.9043 17.5337 29.7792 18.6548 29.8539 18.6788C29.9072 18.708 31.4638 18.3305 32.641 17.8788C33.8181 17.4271 35.5321 17.0726 35.2538 16.745C35.1683 16.6444 35.2012 15.5431 35.6099 14.8566C36.0452 14.1848 36.6467 13.3679 36.9737 13.0581C37.88 12.1887 38.0167 11.3369 37.4873 10.0367C37.2598 9.44057 36.718 8.60533 36.2815 8.1646C35.8665 7.71872 35.5047 7.30198 35.4889 7.24279C35.4257 7.00606 35.9223 7.07531 36.6477 7.4044C37.5972 7.80545 38.8514 9.6029 39.2466 11.0824C39.431 11.7729 39.6009 12.0679 39.8625 12.1098C40.2792 12.1354 44.0189 10.793 44.6563 10.3664C45.1812 10.03 45.3868 9.35049 45.6086 7.1973L45.7749 5.6034L46.1635 7.3995C46.6309 9.57556 46.4764 10.8726 45.6777 11.5481C45.3562 11.7935 44.1251 12.3842 42.9427 12.8162C41.7442 13.2731 40.5596 14.6635 40.4254 14.8429C39.9154 15.4907 41.7073 15.3494 46.0441 14.367C49.7126 13.5248 49.9912 12.5241 51.4175 12.5792L53.0683 12.6223L54.9165 9.90914C55.9052 8.41099 56.8124 7.28946 56.8868 7.39752C57.11 7.72167 55.8536 10.7751 54.7408 12.5761L54.0783 13.6903L51.9677 14.0425C50.9688 13.9683 49.8959 14.6417 49.8959 14.6417C49.7992 14.791 54.5201 15.5152 55.9198 15.5558C57.9126 15.6004 59.7784 14.2175 61.2408 13.2141C62.7835 12.1704 63.1847 12.0527 62.7865 12.7786C62.3723 13.5293 60.2917 15.5426 59.4081 16.0706L57.5257 17.3925C58.5607 17.1016 60.2398 17.8735 61.3152 17.8771C63.2631 17.8836 64.6751 17.2608 66.7464 16.8635L67.9387 16.6391L67.0492 17.3154C66.5349 17.6914 64.43 18.1857 64.4564 18.2843C64.4827 18.383 65.6779 18.9286 66.5267 19.123C67.9146 19.4603 69.3937 19.018 71.0783 18.591C72.8433 18.1236 72.8699 18.1381 72.4889 18.5869C69.1235 19.9586 68.2728 19.9229 65.122 19.7327C64.941 19.5663 60.7531 18.7307 61.2023 19.3761C61.2023 19.3761 62.8784 20.3366 63.8676 21.568L66.6502 25.067C67.8182 26.2492 68.8465 27.492 69.5583 28.7238L66.6502 25.067C64.2931 22.6811 61.367 20.5416 59.325 19.2356C53.7503 14.9152 47.6777 14.7464 41.1644 16.2672C33.6867 17.9236 25.2818 20.5779 18.9675 24.1732C12.4544 27.8818 9.12262 32.814 5.9288 40.5157L6.67948 38.0278L5.54471 37.3242C4.4997 36.7362 4.39433 36.3417 4.75407 34.4492C5.12467 32.5121 4.89284 31.6441 3.75299 30.701C3.27901 30.2903 2.85835 29.9087 2.83201 29.8101C2.73717 29.455 4.30052 30.0231 5.00359 30.6095C6.05818 31.4892 6.44408 32.593 6.29392 34.162C6.06685 36.2955 6.46103 36.7021 7.6075 35.8798C7.90743 35.091 10.5474 30.9321 10.4249 30.8146C9.59964 30.3636 8.65722 30.5166 7.82811 30.0989L7.09216 29.7303L6.33039 26.2814C5.56335 22.8127 5.56336 22.8128 4.68021 21.8078C4.21213 21.2487 3.85069 20.7479 3.89906 20.6732C4.10338 20.33 5.25565 20.8082 5.82478 21.4899C6.4897 22.2745 7.75528 25.308 8.35592 27.557C8.70894 28.8787 8.74613 28.9327 9.37638 28.9908C9.72886 29.0318 10.5977 29.3939 11.1858 29.2942C12.1267 29.1514 11.9184 28.4665 12.8619 27.6512C14.4755 26.2222 13.4638 24.8496 13.6475 22.733C13.8542 20.3525 14.4589 17.2461 14.737 17.179C14.8439 17.1533 14.9289 17.3008 14.9121 17.4938C14.8649 18.681 15.1941 23.494 15.3888 24.308L15.5989 25.2652L16.4526 24.4016C16.9822 24.253 17.9243 23.7739 18.5617 23.3473L19.7443 22.7916L19.3893 21.811C18.8187 20.1007 18.8947 19.7885 20.4651 17.0582C21.1159 15.9145 21.633 14.782 21.6393 14.5495C21.6402 14.2973 21.3166 13.6824 20.891 13.1971C20.4868 12.7066 20.2 12.2297 20.227 12.1602C20.4043 11.8865 22.2798 13.2822 22.614 13.9366C23.0647 14.8568 22.7933 15.9721 21.4918 18.2596C20.5774 19.8658 20.4962 20.1583 20.6858 20.8685C21.0652 22.2889 21.156 22.288 23.7094 21.0216C27.0871 19.3466 27.756 19.6698 27.9889 18.8368C28.1083 18.3461 28.2424 16.1705 27.8231 14.0039Z" fill="black"/>
  <path d="M38.9453 19.8229C38.6905 19.6932 38.1084 19.2382 37.6503 18.8392C37.0104 18.284 36.5877 17.543 36.2849 17.6731C35.4791 18.0059 28.131 20.5045 27.7967 20.8277C27.3432 21.2749 27.6718 22.5663 28.0983 23.3806L28.4587 24.017L27.8004 23.6906C27.3968 23.4938 27.0628 23.1507 26.9438 22.8305C26.7058 22.19 24.828 21.1075 23.0508 22.4388C21.0088 23.9469 21.3672 24.2189 21.9111 25.2935C22.2929 26.0432 22.3077 26.1388 22.0018 25.9268C20.5596 24.9359 19.2615 24.0836 18.1891 25.1995C17.5403 25.8993 17.9649 26.127 18.5504 26.4798C18.7621 26.6049 19.0151 26.8967 19.0944 27.1102C19.2993 27.6617 19.2555 29.6561 19.0271 30.0418C18.8516 30.3478 18.7805 30.2121 18.4204 28.9093C18.0669 27.6244 17.9694 27.4175 17.4964 27.1449L16.6815 26.4694L15.265 27.7063L13.5508 29.6399L14.5862 31.893C15.1644 33.7828 14.9409 34.1264 14.0747 32.6843C13.7407 32.119 12.4575 30.9825 12.3897 30.9668C12.135 30.8371 10.2002 34.3264 9.79119 35.2824L9.32896 35.9029L10.8509 35.8853C11.334 35.8513 11.9907 35.8957 12.2934 35.9877L12.8624 36.185L12.2684 36.4207C11.9408 36.5396 11.0756 36.7123 10.3543 36.7721L9.04733 36.9233L7.52849 40.8383C7.96854 34.1151 12.2494 27.9563 19.3625 23.5654C29.4786 18.6754 38.8678 15.6777 47.1067 15.8472C47.1217 15.8419 47.1375 15.8374 47.1541 15.8339C47.4765 15.7746 48.4179 15.8575 49.3521 15.9755C56.8634 16.69 63.3326 20.283 68.4123 27.8002C66.6334 25.2357 62.1981 21.6863 61.5265 21.5465C61.3727 21.5215 61.0136 21.8335 60.7239 22.2213C60.1976 22.917 59.8434 23.1868 59.7707 22.9911C59.7509 22.9378 59.8454 22.3583 59.9995 21.7169L60.268 20.5495L59.4162 20.0914L58.576 19.6089L57.7119 21.1742C56.8013 22.8371 56.419 23.1979 56.3863 22.4426C56.3387 21.3696 56.3968 21.0256 56.8869 19.8988L57.3886 18.7477L55.4322 17.4576C54.4513 17.2078 53.4157 17.2645 53.2999 17.2864C53.2089 17.3194 53.1008 18.5472 52.6687 19.3298C52.2366 20.1125 51.8244 20.7264 51.7434 20.675C51.6508 20.6481 51.6246 19.9106 51.6928 19.0379C51.7543 18.1474 51.6923 16.388 51.5749 16.3499C51.3965 16.2772 50.3787 16.1051 49.3521 15.9755C48.6136 15.9052 47.865 15.8628 47.1067 15.8472C46.6387 16.0128 46.955 17.0246 46.8778 17.6786C46.8046 18.5935 45.854 17.6111 45.5896 16.8995C45.2062 15.8677 44.6467 15.6612 42.2741 16.5019L41.1553 16.856L41.7134 18.2303L41.986 19.2418L41.4056 18.6247C40.5722 17.7158 39.8248 17.0205 38.8602 17.3705C38.1504 17.628 38.0726 17.6966 38.281 17.9239C38.4199 18.0754 38.729 18.6294 38.9819 19.1433C39.4117 20.0776 39.4183 20.0954 38.9453 19.8229Z" fill="black"/>
  <path fill-rule="evenodd" clip-rule="evenodd" d="M32.4836 92.0325C32.9045 92.5501 33.3493 93.5548 34.1073 95.6758L35.1522 98.5993L36.4254 99.2218C37.428 99.747 37.8006 99.8294 38.314 99.6459C38.7894 99.476 39.1361 99.5461 39.932 99.9728L40.9482 100.536L41.5031 99.9286C41.9331 99.4517 42.1666 99.3252 42.5636 99.3557C43.5817 99.4444 44.1872 98.2584 44.85 94.8324C45.2691 92.7648 45.5557 91.8867 45.917 91.7576C47.0967 91.0385 46.4978 89.7926 45.7528 88.4253C45.7528 88.4253 43.6727 88.4967 43.2198 87.9192C42.8996 87.5108 43.3089 85.5355 43.3089 85.5355L31.0653 89.44C31.3424 90.389 31.8626 91.2381 32.4836 92.0325ZM41.0463 88.0894L39.1134 88.8016C38.0363 89.208 36.3044 89.7622 35.238 90.0786L33.3144 90.6367L33.6577 91.1173C33.8552 91.37 34.4503 92.795 34.9761 94.2664L35.9512 96.9347L36.5558 96.8264C37.0776 96.7262 37.1946 96.8137 37.4702 97.4047L37.7867 98.1105L38.7375 97.7707C39.6313 97.4514 39.74 97.4556 40.1214 97.9227L40.5286 98.4021L40.905 97.535C41.3286 96.5001 41.7294 96.4215 42.4253 97.2287L42.9237 97.7833L43.3224 95.6584C43.5446 94.48 43.9238 92.9008 44.1426 92.1331C44.3805 91.3585 44.5164 90.5988 44.4618 90.446C44.4072 90.2931 43.9244 90.1424 43.3929 90.0953C42.3367 90.0201 41.5311 89.4461 41.2238 88.5862L41.0463 88.0894Z" fill="black"/>
  <path d="M39.1134 88.8016L41.0463 88.0894L41.2238 88.5862C41.5311 89.4461 42.3367 90.0201 43.3929 90.0953C43.9244 90.1424 44.4072 90.2931 44.4618 90.446C44.5164 90.5988 44.3805 91.3585 44.1426 92.1331C43.9238 92.9008 43.5446 94.48 43.3224 95.6584L42.9237 97.7833L42.4253 97.2287C41.7294 96.4215 41.3286 96.5001 40.905 97.535L40.5286 98.4021L40.1214 97.9227C39.74 97.4556 39.6313 97.4514 38.7375 97.7707L37.7867 98.1105L37.4702 97.4047C37.1946 96.8137 37.0776 96.7262 36.5558 96.8264L35.9512 96.9347L34.9761 94.2664C34.4503 92.795 33.8552 91.37 33.6577 91.1173L33.3144 90.6367L35.238 90.0786C36.3044 89.7622 38.0363 89.208 39.1134 88.8016Z" fill="black"/>
  <path d="M38.958 88.0781L41.1875 87.2566L41.3922 87.8297C41.7467 88.8215 42.6759 89.4836 43.8942 89.5703C44.5072 89.6246 45.0641 89.7985 45.1271 89.9748C45.1901 90.1511 45.0333 91.0274 44.7589 91.9208C44.5065 92.8063 44.0691 94.6278 43.8128 95.987L43.353 98.4379L42.7781 97.7983C41.9754 96.8672 41.5131 96.9579 41.0245 98.1515L40.5904 99.1517L40.1207 98.5987C39.6808 98.06 39.5554 98.0551 38.5245 98.4234L37.4278 98.8153L37.0627 98.0013C36.7448 97.3195 36.6098 97.2186 36.008 97.3343L35.3106 97.4592L34.1859 94.3814C33.5794 92.6843 32.8931 91.0406 32.6653 90.7492L32.2692 90.1948L34.488 89.5511C35.718 89.1861 37.7157 88.5469 38.958 88.0781Z" fill="#6A390C"/>
  <path fill-rule="evenodd" clip-rule="evenodd" d="M43.5099 38.6781C39.7733 40.2766 37.646 43.1859 37.4775 46.9354C37.415 48.3354 37.9906 50.975 38.7006 52.4869C39.4633 54.0996 40.3451 55.1297 41.7191 55.9947C44.8176 57.9554 48.8318 57.7824 52.4546 55.5536C55.9798 53.3928 57.4799 50.0705 56.889 45.8078C56.4803 42.8946 55.2092 40.7489 53.1653 39.4958C51.0324 38.1972 48.984 37.774 46.0944 38.0662C45.2221 38.1661 44.4875 38.2377 44.4753 38.2561C44.4753 38.2561 44.0385 38.4577 43.5099 38.6781ZM54.211 41.8633C53.0817 40.4058 50.6032 39.2103 48.4618 39.1092C47.2179 39.0306 43.8406 39.742 42.7412 40.2873C40.472 41.4242 38.93 43.8462 38.6859 46.6866C38.5825 47.8877 39.1319 50.7878 39.6962 51.979C40.2851 53.2129 41.4567 54.5659 42.4861 55.1511C44.1732 56.1429 46.1073 56.3983 48.3863 55.929C50.9835 55.3782 53.0313 54.0956 54.4838 52.0906C55.76 50.3131 56.0654 49.0864 55.8061 46.5888C55.6207 44.6819 55.0227 42.9397 54.211 41.8633Z" fill="black"/>
  <path d="M54.2808 41.7666C53.1516 40.3092 50.6731 39.1136 48.5316 39.0125C47.2877 38.9339 43.9105 39.6453 42.811 40.1906C40.5418 41.3275 38.9998 43.7496 38.7557 46.5899C38.6523 47.791 39.2018 50.6911 39.766 51.8823C40.355 53.1162 41.5266 54.4693 42.5559 55.0545C44.243 56.0463 46.1771 56.3017 48.4562 55.8323C51.0533 55.2816 53.1011 53.9989 54.5537 51.9939C55.8299 50.2164 56.1353 48.9897 55.876 46.4921C55.6905 44.5852 55.0925 42.843 54.2808 41.7666Z" fill="#FFE8E8"/>
  <path d="M45.7107 46.4543C45.2096 47.1952 45.1736 47.3301 45.3091 47.9878C45.391 48.3855 45.562 48.8286 45.6916 48.9932C46.262 49.6729 48.3009 49.5081 48.9181 48.7114C49.2069 48.3331 49.2334 48.1522 49.0885 47.4487C48.8932 46.5004 48.4892 46.0096 47.6267 45.693C46.7643 45.3764 46.3365 45.5442 45.7107 46.4543Z" fill="black"/>
  <path fill-rule="evenodd" clip-rule="evenodd" d="M23.4802 64.5535C24.6242 63.6844 25.8695 61.7698 26.2054 60.4151C27.4337 55.523 24.5382 50.5113 19.7566 49.2789C18.477 48.9462 18.2551 48.9546 16.3137 49.2985C14.7155 49.5904 13.9758 49.7986 13.0122 50.2765L11.7988 50.899L10.4903 51.7833C10.5161 51.9084 10.3122 52.5466 10.0367 53.1995C9.03694 55.4921 9.007 55.8895 9.66961 59.1066C10.2586 61.9663 10.2586 61.9663 11.0515 62.9209C11.4768 63.4481 12.3517 64.3486 12.992 64.9247C15.6846 67.3471 20.7651 66.6901 23.4802 64.5535ZM23.5884 53.4084C22.4022 51.9013 21.1731 50.9993 19.7967 50.6493C18.7752 50.3939 18.4781 50.3992 16.34 50.7836C14.1877 51.1895 13.9233 51.2626 13.0428 51.8725C11.8021 52.7242 11.0745 53.8055 10.7182 55.3322C10.4633 56.4466 10.4717 56.6685 10.9208 58.849C11.3883 61.1188 11.4246 61.2045 12.2143 62.2343C13.8368 64.3222 16.3835 65.2883 19.1619 64.8465C21.9262 64.4263 23.7583 63.0989 24.6692 60.9178C25.2374 59.5152 25.2705 58.4091 24.814 56.1929C24.4938 54.6379 24.3996 54.4524 23.5884 53.4084Z" fill="black"/>
  <path fill-rule="evenodd" clip-rule="evenodd" d="M19.6381 50.6182C21.0145 50.9682 22.2437 51.8702 23.4298 53.3773C24.2411 54.4213 24.3352 54.6068 24.6555 56.1618C25.1119 58.378 25.0789 59.4841 24.5107 60.8867C23.5997 63.0678 21.7676 64.3952 19.0034 64.8154C16.225 65.2572 13.6783 64.2911 12.0558 62.2032C11.2661 61.1734 11.2298 61.0877 10.7623 58.8179C10.3132 56.6374 10.3047 56.4155 10.5596 55.3011C10.916 53.7744 11.6435 52.6931 12.8842 51.8414C13.7648 51.2315 14.0292 51.1584 16.1815 50.7525C18.3196 50.3681 18.6166 50.3628 19.6381 50.6182Z" fill="#FFE8E8"/>
  <path d="M14.2933 56.6934C13.4827 57.6428 14.1069 59.1352 15.3896 59.3927C16.4753 59.5977 17.2638 59.1744 17.4983 58.2319C17.6628 57.5832 17.637 57.4581 17.3084 56.9482C17.0955 56.638 16.7069 56.2895 16.4414 56.1765C15.7885 55.9011 14.7412 56.154 14.2933 56.6934Z" fill="black"/>
  <path d="M42.0113 64.4237C42.4175 64.9274 43.4697 66.0612 44.3337 66.9241C45.6932 68.3145 47.3338 70.6037 47.1412 70.8687C47.0942 70.9089 45.7759 69.859 44.1672 68.5505C42.1518 66.8765 40.7927 65.9178 39.6871 65.3431C38.8404 64.9098 38.1509 64.4922 38.1979 64.452C38.3006 64.3014 40.128 63.701 40.7217 63.6121C41.2134 63.5355 41.3448 63.6233 42.0113 64.4237Z" fill="#6A390C"/>
  <path d="M42.7478 70.2415L42.8857 71.8138L40.8967 69.9295C39.8037 68.8869 38.3421 67.5088 37.6409 66.8508C36.9398 66.1927 36.3491 65.5904 36.3388 65.5052C36.3183 65.335 36.9376 64.7422 37.1589 64.7155C37.227 64.7073 38.2046 65.3665 39.3198 66.1646C39.5279 66.315 39.7227 66.4556 39.9052 66.5872C41.7315 67.9041 42.3216 68.3296 42.5484 68.8992C42.6565 69.1707 42.6822 69.4751 42.7202 69.9245L42.7211 69.9354C42.7291 70.0306 42.7377 70.1323 42.7478 70.2415Z" fill="#6A390C"/>
  <path d="M49.2692 63.1681C50.7188 63.8741 51.4326 64.0643 56.5066 65.1793C61.4383 66.2596 61.4527 66.3787 56.5882 65.9984C53.7817 65.7843 51.5014 65.3513 49.3988 64.6723C48.6826 64.447 47.5272 64.0719 46.7816 63.8299L46.7739 63.8274L46.6676 63.7929L45.321 63.3681L46.067 63.9689C46.4888 64.3153 47.8274 65.1037 49.0413 65.7172C51.4732 66.9782 52.6014 67.7402 53.4989 68.7373C54.536 69.8902 54.2121 70.0675 52.2647 69.387C49.797 68.5448 46.2621 66.5879 43.4722 64.5065L42.0496 63.4519L45.1457 63.0611L48.2611 62.6852L49.2692 63.1681Z" fill="#6A390C"/>
  <path d="M54.8766 62.4053C56.8739 62.3543 58.7201 62.3388 58.9986 62.3571C59.4535 62.4058 59.4726 62.4208 59.2187 62.6068C58.5381 63.1207 49.5205 63.1033 49.4609 62.6096C49.4547 62.5585 49.8633 62.5092 50.3652 62.5178C50.6591 62.5138 51.5333 62.4911 52.619 62.4629L52.6262 62.4627L52.6301 62.4626L52.635 62.4625C53.3288 62.4445 54.1078 62.4243 54.8766 62.4053Z" fill="#6A390C"/>
  <path fill-rule="evenodd" clip-rule="evenodd" d="M55.2602 68.1621C54.9288 67.6659 54.0135 67.2762 54.0434 67.2381C54.0734 67.1999 55.1132 67.2299 56.3486 67.3054C59.9525 67.5442 62.1753 67.5006 62.9446 67.1487C63.7009 66.8329 63.9431 66.4065 63.6561 65.8884C63.4515 65.4813 62.7445 65.2039 60.4499 64.6517C59.1517 64.342 58.6809 64.0188 59.3959 63.9326C59.5491 63.9141 60.0895 63.3826 60.6006 62.751C61.328 61.4002 59.9683 60.9959 59.1976 60.9626L53.5976 61.1088C48.1825 61.1749 41.0177 62.0565 38.3488 62.983C36.3104 63.6952 35.3764 64.2569 35.291 64.8372C35.2443 65.3091 35.4486 66.2862 35.7309 66.9085L38.9299 69.804C38.9903 69.8514 39.565 70.3989 40.305 71.1038L40.317 71.1152L40.3185 71.1166L40.9189 71.6884C41.9335 72.6541 42.961 73.5837 43.1858 73.7293C43.3904 73.8746 43.4943 73.9484 43.5863 73.9358C43.6812 73.9228 43.7636 73.8179 43.9307 73.6048C44.1981 73.2444 44.2313 72.9468 44.1468 71.8171L44.0506 70.4471L45.4119 71.4227C46.1518 71.9725 47.1171 72.5296 47.5332 72.6867L48.3254 72.9538L48.5995 72.5062C48.9465 71.9462 48.9259 71.776 48.2289 70.1502L47.6499 68.7866L48.1466 69.0376C49.2248 69.5869 55.5467 72.8582 55.6279 70.2075C55.6543 69.9971 55.6582 69.5994 55.6253 69.327L55.5637 68.8163C55.5637 68.8163 55.4167 68.3963 55.2602 68.1621ZM44.3337 66.9241C43.4697 66.0612 42.4175 64.9274 42.0113 64.4237C41.3448 63.6233 41.2134 63.5355 40.7217 63.6121C40.128 63.701 38.3006 64.3014 38.1979 64.452C38.1509 64.4922 38.8404 64.9098 39.6871 65.3431C40.7927 65.9178 42.1518 66.8765 44.1672 68.5505C45.7759 69.859 47.0942 70.9089 47.1412 70.8687C47.3338 70.6037 45.6932 68.3145 44.3337 66.9241ZM56.5066 65.1793C51.4326 64.0643 50.7188 63.8741 49.2692 63.1681L48.2611 62.6852L45.1457 63.0611L42.0496 63.4519L43.4722 64.5065C46.2621 66.5879 49.797 68.5448 52.2647 69.387C54.2121 70.0675 54.536 69.8902 53.4989 68.7373C52.6014 67.7402 51.4732 66.9782 49.0413 65.7172C47.8274 65.1037 46.4888 64.3153 46.067 63.9689L45.321 63.3681L46.6676 63.7929L46.7739 63.8274L46.7816 63.8299C47.5272 64.0719 48.6826 64.447 49.3988 64.6723C51.5014 65.3513 53.7817 65.7843 56.5882 65.9984C61.4527 66.3787 61.4383 66.2596 56.5066 65.1793ZM58.9986 62.3571C58.7201 62.3388 56.8739 62.3543 54.8766 62.4053C54.1078 62.4243 53.3288 62.4445 52.635 62.4625L52.6301 62.4626L52.6262 62.4627L52.619 62.4629C51.5333 62.4911 50.6591 62.5138 50.3652 62.5178C49.8633 62.5092 49.4547 62.5585 49.4609 62.6096C49.5205 63.1033 58.5381 63.1207 59.2187 62.6068C59.4726 62.4208 59.4535 62.4058 58.9986 62.3571ZM42.8857 71.8138L42.7478 70.2415C42.7377 70.1323 42.7291 70.0306 42.7211 69.9354L42.7202 69.9245C42.6822 69.4751 42.6565 69.1707 42.5484 68.8992C42.3216 68.3296 41.7315 67.9041 39.9052 66.5872C39.7227 66.4556 39.5279 66.315 39.3198 66.1646C38.2046 65.3665 37.227 64.7073 37.1589 64.7155C36.9376 64.7422 36.3183 65.335 36.3388 65.5052C36.3491 65.5904 36.9398 66.1927 37.6409 66.8508C38.3421 67.5088 39.8037 68.8869 40.8967 69.9295L42.8857 71.8138Z" fill="black"/>
  <path d="M33.5663 66.2888C33.7257 66.3214 33.8613 66.4432 33.8716 66.5283C33.3438 68.4425 32.196 72.3969 31.8271 72.9014C31.9072 71.9319 31.9561 71.4873 31.9705 71.3863C32.0082 69.551 31.8868 68.1149 31.6825 68.1395C31.5974 68.1498 31.1858 69.892 30.7492 71.9999C29.8932 76.2137 29.5536 77.55 29.2982 77.5808C29.1961 77.5932 29.0244 76.4567 28.8305 74.563C28.5494 71.6608 28.563 71.4865 28.9121 69.9418C29.4296 67.7896 29.7328 67.0103 30.1528 66.7697C30.5579 66.5481 33.1393 66.1849 33.5663 66.2888Z" fill="#6A390C"/>
  <path d="M22.2182 70.1449C22.2592 70.4853 21.1174 71.9012 20.4884 72.2706C19.7294 72.7076 18.0259 73.1895 18.3995 72.8508C18.5853 72.6729 21.9566 70.1246 22.1656 69.9958C22.1826 69.9937 22.2058 70.0427 22.2182 70.1449Z" fill="#6A390C"/>
  <path d="M25.3273 68.7162C25.3684 69.0567 23.6125 71.8247 22.7578 72.7568C21.326 74.3457 20.4161 75.25 20.3228 75.1922C20.2846 75.1622 20.7172 74.4537 21.3078 73.6226C21.8814 72.7934 22.6398 71.493 23.0152 70.7395C23.4144 69.8969 23.8703 69.2374 24.1882 69.0091C24.762 68.6117 25.2986 68.4779 25.3273 68.7162Z" fill="#6A390C"/>
  <path d="M28.4693 67.56C28.5042 67.8494 26.9291 72.1154 26.2939 73.4355C25.6865 74.7005 24.5271 76.2566 23.3824 77.3619C22.1117 78.5687 21.8632 78.5123 22.6877 77.1866C23.8163 75.3752 25.9403 70.0758 25.9791 68.9658C25.9958 68.532 26.1291 68.205 26.3361 68.0591C27.1978 67.4716 28.422 67.1685 28.4693 67.56Z" fill="#6A390C"/>
  <path fill-rule="evenodd" clip-rule="evenodd" d="M18.6626 71.0229C18.6156 71.0631 17.8736 71.498 17.0165 71.9814C14.9123 73.1506 14.8185 73.231 14.876 73.7076C14.9499 74.3205 15.5002 74.4441 17.5233 74.3209L19.3231 74.2074L18.7229 74.8152C18.3833 75.1498 17.329 76.0024 16.3604 76.7065C15.4088 77.4085 14.5552 78.0641 14.4974 78.1575C14.4205 78.2358 14.7428 78.4733 15.2162 78.6752C15.8913 78.9737 16.1909 79.0239 16.8105 78.8628C17.6003 78.6812 19.8542 77.3212 20.9493 76.3774C21.308 76.0577 21.7797 75.6727 22.0036 75.5248L22.4025 75.2521L22.0943 75.7038C21.9338 75.9477 21.3152 76.8341 20.7247 77.6652C19.5565 79.2915 19.3096 79.8221 19.5121 80.2122C19.6914 80.5533 20.166 80.4788 21.6808 79.8642C23.2616 79.2245 24.1431 78.5136 25.8852 76.49L27.2488 74.9093L27.5939 76.7674C27.9328 78.5746 27.956 78.6236 28.4614 78.8044C29.5103 79.196 30.0372 78.8388 30.8418 77.2046L31.3675 76.1222L35.2372 66.968C35.1785 66.7679 35.0147 66.2695 34.8783 65.8542C34.5426 64.7893 34.1666 64.6792 31.968 65.0654C28.8712 65.5944 24.8407 67.1169 21.3635 69.0736L19.7774 69.9557L18.6626 71.0229ZM33.8716 66.5283C33.8613 66.4432 33.7257 66.3214 33.5663 66.2888C33.1393 66.1849 30.5579 66.5481 30.1528 66.7697C29.7328 67.0103 29.4296 67.7896 28.9121 69.9418C28.563 71.4865 28.5494 71.6608 28.8305 74.563C29.0244 76.4567 29.1961 77.5932 29.2982 77.5808C29.5536 77.55 29.8932 76.2137 30.7492 71.9999C31.1858 69.892 31.5974 68.1498 31.6825 68.1395C31.8868 68.1149 32.0082 69.551 31.9705 71.3863C31.9561 71.4873 31.9072 71.9319 31.8271 72.9014C32.196 72.3969 33.3438 68.4425 33.8716 66.5283ZM26.2939 73.4355C26.9291 72.1154 28.5042 67.8494 28.4693 67.56C28.422 67.1685 27.1978 67.4716 26.3361 68.0591C26.1291 68.205 25.9958 68.532 25.9791 68.9658C25.9403 70.0758 23.8163 75.3752 22.6877 77.1866C21.8632 78.5123 22.1117 78.5687 23.3824 77.3619C24.5271 76.2566 25.6865 74.7005 26.2939 73.4355ZM22.7578 72.7568C23.6125 71.8247 25.3684 69.0567 25.3273 68.7162C25.2986 68.4779 24.762 68.6117 24.1882 69.0091C23.8703 69.2374 23.4144 69.8969 23.0152 70.7395C22.6398 71.493 21.8814 72.7934 21.3078 73.6226C20.7172 74.4537 20.2846 75.1622 20.3228 75.1922C20.4161 75.25 21.326 74.3457 22.7578 72.7568ZM20.4884 72.2706C21.1174 71.9012 22.2592 70.4853 22.2182 70.1449C22.2058 70.0427 22.1826 69.9937 22.1656 69.9958C21.9566 70.1246 18.5853 72.6729 18.3995 72.8508C18.0259 73.1895 19.7294 72.7076 20.4884 72.2706Z" fill="black"/>
</svg>
