<svg width="512" height="512" viewBox="0 0 512 512" fill="none" xmlns="http://www.w3.org/2000/svg">
  <path d="M405.768 240.897L405.515 252.431C404.605 265.33 401.316 287.74 389.935 312.983C393.526 296.138 395.449 278.685 395.449 260.777C395.449 247.371 394.386 234.269 392.363 221.421C383.06 162.899 353.32 111.21 310.714 73.9263C276.864 44.3044 234.892 23.776 188.598 16.1385C176.102 13.1539 168.767 12.7998 168.767 12.7998L169.526 13.7104C190.164 38.3898 202.199 63.6346 208.41 87.5099C215.337 114.139 215.019 139.065 211.311 159.603C208.781 173.565 204.684 185.504 200.232 194.559C200.232 194.559 203.925 179.181 203.572 161.678C203.268 145.945 199.625 128.492 186.979 119.033C190.874 139.369 186.169 156.112 176.861 171.845C168.211 186.555 155.584 200.107 142.184 214.489C113.188 245.611 80.5712 280.618 76.8 339.643V343.892C76.8 403.332 105.179 453.413 152.832 482.247C145.244 468.589 136.291 443.296 143.17 415.675C147.571 441.879 154.198 455.538 166.289 472.939C175.293 485.889 187.434 494.287 202.914 500.509C218.393 506.783 235.037 508.502 253.754 508.502C315.52 508.502 370.206 476.886 401.873 428.878L402.176 428.929C419.881 401.005 431.062 367.516 431.062 331.549C431.011 298.465 421.602 267.455 405.768 240.897Z" fill="white"/>
  <path d="M358.634 317.47L358.482 324.461C357.93 332.28 355.94 345.865 349.048 361.168C351.223 350.956 352.387 340.376 352.387 329.521C352.387 321.394 351.743 313.452 350.518 305.663C340.411 242.002 290.456 191.681 227.149 181.224C219.583 179.415 215.142 179.2 215.142 179.2C215.295 179.385 215.448 179.568 215.602 179.752C242.034 211.399 245.157 244.579 240.9 268.191C239.369 276.654 236.888 283.891 234.193 289.38C234.193 289.38 236.429 280.058 236.214 269.448C236.031 259.911 233.825 249.331 226.168 243.597C228.526 255.925 225.678 266.075 220.042 275.611C203.473 303.824 162.799 325.013 159.46 377.328V379.904C159.46 415.935 176.643 446.294 205.494 463.772C200.9 455.493 195.479 440.16 199.644 423.418C202.309 439.303 206.321 447.582 213.641 458.13C219.092 465.98 226.443 471.071 235.816 474.843C245.188 478.646 255.265 479.688 266.597 479.688C303.994 479.688 337.103 460.522 356.276 431.422L356.459 431.452C367.179 414.524 373.948 394.225 373.948 372.421C373.917 352.366 368.221 333.568 358.634 317.47Z" fill="black"/>
</svg>
